<svg xmlns="http://www.w3.org/2000/svg" viewBox="0 0 121.2 121.2"><defs><style>.cls-1{fill:#ffbf3a;}.cls-2{fill:#fff;}</style></defs><g id="Capa_2" data-name="Capa 2"><g id="Capa_1-2" data-name="Capa 1"><circle class="cls-1" cx="60.6" cy="60.6" r="60.6"/><path class="cls-2" d="M29.39,37.55h2.66a5,5,0,0,0,2.23-.45,3.13,3.13,0,0,0,1.37-1.27,3.88,3.88,0,0,0,.46-1.93,3.49,3.49,0,0,0-1-2.67,4.22,4.22,0,0,0-3-1H26.33V41.9h3.06Zm0-5h2.26a1.69,1.69,0,0,1,1.16.35,1.27,1.27,0,0,1,.38,1,1.23,1.23,0,0,1-.38,1,1.69,1.69,0,0,1-1.16.34H29.39Z"/><rect class="cls-2" x="39.93" y="36.18" width="5.39" height="2.28"/><path class="cls-2" d="M29.39,57.38h.87a2.32,2.32,0,0,1,.8.14.85.85,0,0,1,.52.51l1.89,3.7h3.35l-1.75-3.32a3.14,3.14,0,0,0-.94-1.11,2.06,2.06,0,0,0-.44-.23l.43-.17a3.24,3.24,0,0,0,1.42-1.26A3.68,3.68,0,0,0,36,53.7,3.37,3.37,0,0,0,34.94,51a4.56,4.56,0,0,0-3.11-1h-5.5V61.73h3.06Zm0-5H31.3a2.2,2.2,0,0,1,1.35.34,1.27,1.27,0,0,1,.45,1.06,1.25,1.25,0,0,1-.45,1.06,2.2,2.2,0,0,1-1.35.35H29.39Z"/><rect class="cls-2" x="39.93" y="56.01" width="5.39" height="2.28"/><polygon class="cls-2" points="29.17 74.8 34.59 81.57 36.82 81.57 36.82 69.91 34 69.91 34 76.66 28.58 69.91 26.33 69.91 26.33 81.57 29.17 81.57 29.17 74.8"/><rect class="cls-2" x="39.93" y="75.85" width="5.39" height="2.28"/><path class="cls-2" d="M34.51,90.45a7.86,7.86,0,0,0-3.5-.7H26.33V101.4H31a7.86,7.86,0,0,0,3.5-.7,4.9,4.9,0,0,0,2.16-2,7,7,0,0,0,0-6.24A4.94,4.94,0,0,0,34.51,90.45Zm-1,7.64a3.66,3.66,0,0,1-2.65.83H29.39V92.21h1.45a3.71,3.71,0,0,1,2.65.83,4.1,4.1,0,0,1,0,5Z"/><rect class="cls-2" x="39.93" y="95.68" width="5.39" height="2.28"/><path class="cls-2" d="M94.81,35a3.63,3.63,0,0,0-3.24-3.13c-.44,0-.89,0-1.47,0H86.24c0-.26,0-.52,0-.77a4,4,0,0,0-3.61-3.81c-1.28-.05-2.56-.05-3.52-.05H77.43l0-2.95a5.63,5.63,0,0,0-5.54-5.55c-1.09,0-2.18,0-3.26,0s-2.21,0-3.3,0a5.58,5.58,0,0,0-5.54,5.47h0v.12a2.81,2.81,0,0,0,0,.41s0,0,0,.07v2.42h-4.6c-2.74,0-4.25,1.52-4.25,4.26q0,4.45,0,8.92c0,2.76,1.54,4.29,4.32,4.29h4.48v10h0q0,20.91,0,41.83a5.7,5.7,0,0,0,5.71,5.88c1.25,0,2.21,0,3.12,0,1.21,0,2.29,0,3.32-.07a6.6,6.6,0,0,0,3.51-1.34,5.79,5.79,0,0,0,2.1-4.92q0-19.35,0-38.69V54.74h0v-10h2.14l2.88,0a3.8,3.8,0,0,0,3.76-3.93V40h5.59a3,3,0,0,0,3-3c0-.15,0-.29,0-.43A10.08,10.08,0,0,0,94.81,35ZM65.38,21.75c1.07,0,2.15,0,3.22,0s2.12,0,3.18,0a2.66,2.66,0,0,1,2.66,2.94H62.75A2.63,2.63,0,0,1,65.38,21.75Zm-4,20h-6.1c-1.11,0-1.32-.2-1.32-1.3q0-4.45,0-8.91c0-1.08.17-1.25,1.25-1.26H69.78c.25,0,.51,0,.8.05V41.67c-.31,0-.56,0-.82,0Zm12.26,57a3.61,3.61,0,0,1-1.86.75c-1.06,0-2.12.07-3.18.07s-2,0-3,0a2.69,2.69,0,0,1-2.78-2.88q0-24.42,0-48.84c0-.14,0-.28,0-.5H74.47v1q0,24,0,48A2.87,2.87,0,0,1,73.59,98.67Zm9.67-57.92c0,.53-.23.94-.8.94l-2.84,0h-3.5V30.26h3c1.15,0,2.29,0,3.43.05.25,0,.69.55.7.86C83.28,34.36,83.26,37.55,83.26,40.75ZM91.85,37H88.73V34.87H90.1c.44,0,.87,0,1.3,0,.16,0,.41.29.43.48A14,14,0,0,1,91.85,37Z"/><path class="cls-2" d="M68.6,51.59a1.5,1.5,0,0,0-1.5,1.5V92.17a1.5,1.5,0,0,0,3,0V53.09A1.5,1.5,0,0,0,68.6,51.59Z"/></g></g></svg>