<svg xmlns="http://www.w3.org/2000/svg" viewBox="0 0 157.18 157.18"><defs><style>.cls-1{fill:none;stroke:#ffc754;stroke-miterlimit:10;}.cls-2{fill:#ffc754;}.cls-3,.cls-4{fill:#fff;}.cls-3{fill-rule:evenodd;}</style></defs><title>Recurso 1</title><g id="Capa_2" data-name="Capa 2"><g id="Capa_1-2" data-name="Capa 1"><circle class="cls-1" cx="78.59" cy="78.59" r="78.09"/><circle class="cls-2" cx="78.59" cy="78.59" r="65.63"/><path class="cls-3" d="M20.31,84V79.84h2.47l-1.24-1.4V74.26h6.17l-4.93-1.4L24,70.07l2.47-1.39H24l1.23-1.4H52.38l12.34,7H61l-8.64-5.58H37.58l-2.47,5.58H45V70.07h1.23v4.19L61,75.65H66l1.23-1.39,6.17,1.39,2.47,1.4H73.35l1.23,1.39h2.47V84l-1.23,2.79-2.47,1.4H71.16a7.18,7.18,0,0,0,.2-1.69c0-3.53-2.53-6.39-5.65-6.39S60.06,83,60.06,86.52a7.18,7.18,0,0,0,.2,1.69H38.07a7.18,7.18,0,0,0,.2-1.69c0-3.53-2.54-6.39-5.66-6.39S27,83,27,86.52a7.18,7.18,0,0,0,.2,1.69H24L20.31,84Zm45.4-2.5a4.74,4.74,0,0,1,4.42,5,5.31,5.31,0,0,1-1.36,3.61h4.58v1.39H22.78V90.13h6.77a5.31,5.31,0,0,1-1.36-3.61,4.74,4.74,0,0,1,4.42-5,4.74,4.74,0,0,1,4.42,5,5.31,5.31,0,0,1-1.36,3.61h27a5.31,5.31,0,0,1-1.36-3.61,4.74,4.74,0,0,1,4.42-5Zm2,5a2,2,0,1,1-3.9,0H65a.73.73,0,1,0,1.44,0Zm-2-3.6a3.63,3.63,0,1,1-3.19,3.6,3.41,3.41,0,0,1,3.19-3.6Zm-31.14,3.6a2,2,0,1,1-3.91,0h1.23a.73.73,0,1,0,1.44,0Zm-2-3.6a3.63,3.63,0,0,1,0,7.21,3.63,3.63,0,0,1,0-7.21Zm-11.07.52,3,3.37h1.21v-.29c0-4.3,3.08-7.79,6.88-7.79s6.89,3.49,6.89,7.79v.29H58.83a2.71,2.71,0,0,1,0-.29c0-4.3,3.09-7.79,6.89-7.79s6.89,3.49,6.89,7.79c0,.1,0,.2,0,.29h.47l1.84-1,.92-2.08V79.84H74.07L71.2,76.59l-3.61-.82-1.13,1.28H61l-14.8-1.4h-13l3.08-7h-7l-4.31,2.43-.36.82,4.5,1.27-.27,2.45h-6v2.21l3,3.37H21.54v2.21Z"/><path class="cls-3" d="M139,86.34l1.16-2.54V82.53L137.86,80h0L139,81.25l1.16-2.54-2.32-3.82h-2.32l-8.11-3.82-4.64-1.27h-9.27l-4.64,1.27-7,3.82h3.48l3.48-2.54,4.64-1.28h8.11l5.8,3.82-1.16,1.27H124l-1.16-2.54v2.54H117V72.35h-1.15v3.81H100.76L89.17,78.71,86.85,80,88,81.25l-1.16,1.28v2.54l2.32,2.55h3.56a6.14,6.14,0,0,1-.28-1.83,5.16,5.16,0,1,1,10.28,0,6.14,6.14,0,0,1-.28,1.83h22.4a6.14,6.14,0,0,1-.28-1.83,5.16,5.16,0,1,1,10.28,0,6.14,6.14,0,0,1-.28,1.83h2.13L139,86.34ZM97.59,81.43a4.18,4.18,0,0,0-4,4.36,4.56,4.56,0,0,0,1.18,3.1H89.17v1.27H139V88.89h-6.5a4.6,4.6,0,0,0,1.17-3.1,4,4,0,1,0-8,0,4.56,4.56,0,0,0,1.18,3.1H100.4a4.6,4.6,0,0,0,1.17-3.1,4.18,4.18,0,0,0-4-4.36Zm-1.66,4.36a1.67,1.67,0,1,0,3.32,0H98.09a.52.52,0,0,1-.5.55.53.53,0,0,1-.5-.55Zm1.66-3.09a3.11,3.11,0,1,0,2.82,3.09,3,3,0,0,0-2.82-3.09Zm30.46,3.09a1.67,1.67,0,1,0,3.32,0h-1.16a.5.5,0,1,1-1,0Zm1.66-3.09a3.11,3.11,0,1,0,2.82,3.09,3,3,0,0,0-2.82-3.09Zm8.45,2.69-1.73,1H136c0-.18,0-.36,0-.55,0-3.81-2.82-6.91-6.3-6.91s-6.3,3.1-6.3,6.91c0,.19,0,.37,0,.55H103.87c0-.18,0-.36,0-.55,0-3.81-2.82-6.91-6.3-6.91s-6.3,3.1-6.3,6.91c0,.19,0,.37,0,.55H89.65L88,84.54V83.05l1.64-1.8-.84-.92.74-.41,11.33-2.48h25.87l2.55-2.8-4.53-3,2.29.62,8.25,3.88h1.93l1.6,2.64-.14.3-.84-.92L136.22,80l2.8,3.07v.45l-.86,1.89Z"/><path class="cls-4" d="M100.05,40.46A41.84,41.84,0,0,0,48.55,48l-.08-5.51-3,.05.15,10.21,10.22-.15-.05-3-4.73.07a38.89,38.89,0,0,1,56.58.63l2.19-2A41.79,41.79,0,0,0,100.05,40.46Z"/><path class="cls-4" d="M57.87,118.23a41.86,41.86,0,0,0,51.5-7.57l.08,5.51,3,0-.15-10.22-10.22.16,0,3,4.73-.07a38.91,38.91,0,0,1-56.57-.63l-2.2,2A41.84,41.84,0,0,0,57.87,118.23Z"/></g></g></svg>