<svg xmlns="http://www.w3.org/2000/svg" viewBox="0 0 128 128"><defs><style>.cls-1{fill:#ffcb54;}.cls-2{fill:#fff;}</style></defs><g id="Capa_2" data-name="Capa 2"><g id="Capa_1-2" data-name="Capa 1"><rect class="cls-1" width="128" height="128" rx="8"/><path class="cls-2" d="M75.32,38.66a19.66,19.66,0,0,0-39.32,0V49.45L46.19,39.26v-.6a9.47,9.47,0,0,1,18.94,0V65.85l-.26.79a4.45,4.45,0,0,1-1.13,1.94,3.88,3.88,0,0,1-5.57,0,3.8,3.8,0,0,1,0-5.57,4.1,4.1,0,0,1,4.32-.79l1.91.64V43.2l-9.05-9.59L18.91,70.06c-1.68,1.68-.91,4.82,2.42,9.88a94.38,94.38,0,0,0,11.8,14c1.72,1.71,15.25,15,21.7,15a3,3,0,0,0,2.2-.82L93.45,71.76,75.32,54Zm14,33.12L55,106.09c-1.4.63-9.22-3.57-19.84-14.19S20.37,73.47,21,72.11L55.29,37.78l6.2,6.57V59.07a6.75,6.75,0,0,0-5.38,11.56,6.9,6.9,0,0,0,11.31-2.52l.07-.06A2.33,2.33,0,0,0,68,66.31V38.66A12.38,12.38,0,0,0,43.3,38l-4.39,4.39V38.66a16.75,16.75,0,0,1,33.5,0V55.2Z"/><path class="cls-2" d="M83.43,52.88A1.45,1.45,0,0,0,82,55.29L96.12,69.43V92.5a6.92,6.92,0,0,0,13.83,0C110,71.54,101,58.21,83.43,52.88ZM103,96.5a4.16,4.16,0,0,1-4-4V68.83a1.44,1.44,0,0,0-.43-1L89,58.19c12,6,18.06,17.54,18.06,34.31A4.17,4.17,0,0,1,103,96.5Z"/></g></g></svg>