<svg xmlns="http://www.w3.org/2000/svg" viewBox="0 0 121.2 121.2"><defs><style>.cls-1{fill:#ffbf3a;}.cls-2{fill:#fff;}</style></defs><g id="Capa_2" data-name="Capa 2"><g id="Capa_1-2" data-name="Capa 1"><circle class="cls-1" cx="60.6" cy="60.6" r="60.6"/><path class="cls-2" d="M67.91,40.75h3.61a1.8,1.8,0,0,1,1.8,1.8v9a1.81,1.81,0,0,1-1.81,1.81H67.91a1.81,1.81,0,0,1-1.81-1.81v-9A1.8,1.8,0,0,1,67.91,40.75Z"/><path class="cls-2" d="M53.47,40.75a1.8,1.8,0,0,0-1.81,1.8v3.61a1.81,1.81,0,0,0,3.61,0V42.55A1.79,1.79,0,0,0,53.47,40.75Z"/><path class="cls-2" d="M53.47,51.57a1.81,1.81,0,0,0-1.81,1.81V57a1.81,1.81,0,0,0,3.61,0V53.38A1.8,1.8,0,0,0,53.47,51.57Z"/><path class="cls-2" d="M91.37,89.79V65.3a7.21,7.21,0,0,0-3.22-6l-7.61-5.07V38.94a5.42,5.42,0,0,0-5.41-5.41H49.86a5.42,5.42,0,0,0-5.42,5.41V78.65a5.42,5.42,0,0,0,5.42,5.41H68.27c1.54,2.46,1.44,2.4,1.44,2.84v2.89a5.43,5.43,0,0,0-3.61,5.1v5.41a1.81,1.81,0,0,0,1.81,1.81H93.17A1.81,1.81,0,0,0,95,100.3V94.89A5.42,5.42,0,0,0,91.37,89.79ZM86.15,62.3a3.59,3.59,0,0,1,1.61,3V89.47H73.33c0-3.26,0-4.06-.83-5.44L70.85,81.4s0-.07,0-.1l-2.2-3.48-2.68-4.31a4.44,4.44,0,0,1-.38-.79s0,0,0,0l0-.14a2.7,2.7,0,0,1,0-.28,1.48,1.48,0,0,1,0-.21,2.56,2.56,0,0,1,0-.39.15.15,0,0,0,0-.07,2.68,2.68,0,0,1,.07-.27l.09-.24a.42.42,0,0,0,0-.1,2.28,2.28,0,0,1,.45-.63,1.29,1.29,0,0,1,.17-.16l.11-.08a2.52,2.52,0,0,1,2.18-.4l.15,0,.18.08c.08,0,.16.08.24.12l.13.08a3.07,3.07,0,0,1,.35.28l7.81,7.82a1.8,1.8,0,0,0,.39.29l.14.07a1.44,1.44,0,0,0,.4.13h.12a1.45,1.45,0,0,0,.36,0H79a1.73,1.73,0,0,0,.83-.34l.11-.09.09-.07a1.83,1.83,0,0,0,.13-.16.94.94,0,0,0,.09-.12,1.23,1.23,0,0,0,.19-.38s0-.09,0-.14a2,2,0,0,0,.07-.48V58.56ZM49.86,80.45a1.81,1.81,0,0,1-1.81-1.8V38.94a1.81,1.81,0,0,1,1.81-1.8H75.13a1.81,1.81,0,0,1,1.8,1.8V72.48L72.2,67.75h0a5,5,0,0,0-.61-.53l-.27-.2-.33-.2a5.68,5.68,0,0,0-.78-.39h0A5.83,5.83,0,0,0,68.51,66h0l-.55,0a6.08,6.08,0,0,0-.61,0l-.2,0a5.58,5.58,0,0,0-.69.13h0a6.07,6.07,0,0,0-2.78,1.57l0,.07a6,6,0,0,0-1.07,1.47V42.55a1.81,1.81,0,0,0-3.61,0V75a1.81,1.81,0,0,0,3.61,0v-.3c.09.17.16.35.27.52l.17.27c.5.87,1.19,1.93,2.12,3.39l1,1.53Zm41.51,18H69.71V94.89a1.81,1.81,0,0,1,1.81-1.81h18a1.81,1.81,0,0,1,1.81,1.81Z"/><path class="cls-2" d="M39,29.92H86a1.81,1.81,0,0,0,1.81-1.81V20.89A1.81,1.81,0,0,0,86,19.09H39a1.8,1.8,0,0,0-1.8,1.8v7.22A1.8,1.8,0,0,0,39,29.92Zm1.8-7.22H84.15v3.61H40.83Z"/><path class="cls-2" d="M29.48,70.15a1.81,1.81,0,0,0-2.55,0L16.1,81a1.8,1.8,0,0,0,1.27,3.08H21V100.3a1.81,1.81,0,0,0,1.81,1.81H33.62a1.81,1.81,0,0,0,1.8-1.81V84.06H39A1.81,1.81,0,0,0,40.31,81Zm4.14,10.3a1.81,1.81,0,0,0-1.81,1.8V98.5H24.59V82.25a1.81,1.81,0,0,0-1.8-1.8H21.73L28.2,74l6.47,6.47Z"/></g></g></svg>