<svg xmlns="http://www.w3.org/2000/svg" viewBox="0 0 121.2 121.2"><defs><style>.cls-1{fill:#ffbf3a;}.cls-2{fill:#fff;}</style></defs><g id="Capa_2" data-name="Capa 2"><g id="Capa_1-2" data-name="Capa 1"><g id="Capa_2-2" data-name="Capa 2"><g id="Capa_1-2-2" data-name="Capa 1-2"><circle class="cls-1" cx="60.6" cy="60.6" r="60.6"/></g></g><path class="cls-2" d="M100.51,31a8,8,0,0,0-7.29-4.92c-.55,0-1.11,0-1.66,0-1,0-1.52.49-1.5,1.27s.56,1.19,1.47,1.22a16.89,16.89,0,0,1,2.57.14,5.52,5.52,0,0,1,4.55,5H64.49c-.11-2.11,1.82-4.43,4.16-5a9.35,9.35,0,0,1,1.9-.19c5.18,0,10.36,0,15.54,0A2.05,2.05,0,0,0,87.46,28a1.17,1.17,0,0,0-.72-1.87,2.89,2.89,0,0,0-.66,0c-5.32,0-10.64,0-16,0a8.09,8.09,0,0,0-8.06,6.47,10.46,10.46,0,0,0-.2,2.23q0,10.17,0,20.33c0,2.31,1,3.33,3.35,3.33,1.11,0,2.22,0,3.33,0a3,3,0,0,0,2.81-1.57c.86-1.42,1.79-2.8,2.62-4.23a1.19,1.19,0,0,1,1.59-.57L65.49,70.22l-4.25-2.31c-3.75-2-6.56-1.43-9.2,2-3.57-5.34-7.12-10.65-10.7-16a1.62,1.62,0,0,1,2.13.83c.75,1.38,1.66,2.68,2.48,4a2.91,2.91,0,0,0,2.75,1.51c1.25,0,2.5,0,3.74,0a2.75,2.75,0,0,0,3-2.88c0-1.66,0-3.32,0-5,0-5.31,0-10.62,0-15.93,0-3.93-2.12-7-5.64-8.12a11,11,0,0,0-3.18-.45c-7.2,0-14.41,0-21.61,0q-7.14,0-8.81,6.9a.91.91,0,0,1-.11.22V49.47c.4.58.88,1,1.65.76s.86-.91.85-1.63c0-1.57,0-3.14,0-4.76H52.92v.85c0,4,0,8.08,0,12.12,0,.81-.25,1-1,1a21,21,0,0,0-2.75,0A1.32,1.32,0,0,1,47.78,57c-.81-1.38-1.71-2.71-2.53-4.09a3.08,3.08,0,0,0-2.89-1.59H29.14a3.13,3.13,0,0,0-3,1.63c-.84,1.43-1.76,2.81-2.62,4.23a1.06,1.06,0,0,1-1,.61c-1.08,0-2.16,0-3.24,0-.54,0-.75-.15-.73-.71,0-.91,0-1.82,0-2.73,0-.71-.08-1.35-.84-1.63s-1.24.18-1.66.73v4.65a3.09,3.09,0,0,0,3.47,2.19,30.28,30.28,0,0,1,3.16,0,3,3,0,0,0,2.88-1.6c.7-1.18,1.45-2.34,2.22-3.56.16.23.3.4.42.58q8.53,12.76,17.07,25.52a1,1,0,0,1,0,1.19c-1.64,3-3.27,5.9-4.84,8.88a4.9,4.9,0,0,0-.44,2c-.08,1.71,4.11,4,5.52,2.91.5-.39,1-.83,1.44-1.24q5.51,10.88,17.78,9.6c-.06.15-.1.27-.15.39a2.75,2.75,0,0,0,1.26,3.62c.43.25.88.48,1.32.71a2.75,2.75,0,0,0,4.07-1.2c1.2-2.17,2.39-4.36,3.57-6.55.47-.87.35-1.58-.3-2s-1.39-.12-1.89.77l-3.38,6.19c-.14.26-.3.5-.45.74a2.26,2.26,0,0,1-.32-.12c-1.71-.85-1.71-.85-.85-2.56a1.89,1.89,0,0,0-.32-2.42,2.27,2.27,0,0,0-2.26-.32,13.4,13.4,0,0,1-12.48-3.3,12.83,12.83,0,0,1-3.66-5.75,1.91,1.91,0,0,0-3.6-.31,9.27,9.27,0,0,1-.66,1.15.63.63,0,0,1-.56.23c-.57-.25-1.11-.58-1.67-.89a3,3,0,0,1,.2-.47q5.79-10.64,11.6-21.26a3.63,3.63,0,0,1,5.13-1.5c1.84,1,3.65,2,5.47,3,1.35.72,1.78.6,2.52-.74,3.36-6,6.76-12.06,10-18.15.75-1.4,1.52-2,3.15-1.87s3.35,0,5.15,0c-.21.4-.33.67-.48.93L72.91,75.1c-.66,1.18-.5,1.72.66,2.35,1.78,1,3.55,1.92,5.32,2.9,2.32,1.27,2.89,3.26,1.63,5.58l-5.08,9.32a5.68,5.68,0,0,0-.37.74,1.13,1.13,0,0,0,.51,1.44,1.15,1.15,0,0,0,1.57-.23,3.17,3.17,0,0,0,.44-.7l5-9.18c2.08-3.82,1.08-7.21-2.73-9.28l-4.41-2.41L88.6,51.94c.24.35.4.57.54.8L91.78,57a2.91,2.91,0,0,0,2.69,1.48c1.08,0,2.17-.06,3.24,0a3.14,3.14,0,0,0,3.49-2.18V33.2A15.18,15.18,0,0,0,100.51,31ZM52.85,41.23H18.58v-3H52.85ZM18.66,35.57c0-2.7,2.53-5.1,5.55-5.16,2.35-.05,4.71,0,7.06,0,5.24,0,10.47,0,15.71,0a5.7,5.7,0,0,1,5.73,4.27c.07.26.1.53.16.9ZM50.29,73.31c-1.11,1.94-2.16,3.91-3.3,6-5.71-8.55-11.32-16.94-17-25.49a56.81,56.81,0,0,0,5.71,0c2-.21,3,.53,4.08,2.17,3.38,5.31,6.94,10.51,10.47,15.73A1.31,1.31,0,0,1,50.29,73.31Zm14.11-37H98.67v3H64.4ZM97.83,56c-1-.06-2,0-3.07,0a1.06,1.06,0,0,1-1.05-.61c-.87-1.44-1.79-2.86-2.67-4.3a3.05,3.05,0,0,0-2.82-1.57H74.85A3.06,3.06,0,0,0,72,51.06c-.87,1.44-1.8,2.86-2.67,4.3A1.09,1.09,0,0,1,68.3,56c-1.26,0-2.54,0-3.88,0V42H98.66c0,.21,0,.42,0,.64,0,4.15,0,8.29,0,12.44C98.73,55.77,98.53,56,97.83,56Z"/><path class="cls-2" d="M51.11,88.59A10.82,10.82,0,1,0,62,77.82,10.81,10.81,0,0,0,51.11,88.59ZM61.9,80.31a8.31,8.31,0,1,1-8.29,8.26A8.31,8.31,0,0,1,61.9,80.31Z"/><path class="cls-2" d="M58.7,75.18a1.24,1.24,0,0,0,1.15-1.27,1.9,1.9,0,0,0-2-1.5,1.3,1.3,0,0,0-1.22,1.31A2,2,0,0,0,58.7,75.18Z"/><path class="cls-2" d="M77.7,83.26c0-.76-1-1.5-2-1.47A1.24,1.24,0,0,0,74.49,83c0,.78,1,1.51,2,1.51A1.24,1.24,0,0,0,77.7,83.26Z"/></g></g></svg>