<svg xmlns="http://www.w3.org/2000/svg" viewBox="0 0 121.2 121.2"><defs><style>.cls-1{fill:#ffbf3a;}.cls-2{fill:#fff;}</style></defs><g id="Capa_2" data-name="Capa 2"><g id="Capa_1-2" data-name="Capa 1"><circle class="cls-1" cx="60.6" cy="60.6" r="60.6"/><path class="cls-2" d="M62.4,44.36H55.18a1.8,1.8,0,1,0,0,3.6h3.61v1.81a1.81,1.81,0,0,0,3.61,0V48a5.41,5.41,0,1,0,0-10.82H58.79a1.81,1.81,0,0,1,0-3.61H66a1.81,1.81,0,1,0,0-3.61H62.4V28.11a1.81,1.81,0,0,0-3.61,0v1.81a5.42,5.42,0,0,0,0,10.83H62.4a1.81,1.81,0,1,1,0,3.61Z"/><path class="cls-2" d="M98.5,29.92v-9a1.82,1.82,0,0,0-1.1-1.66,1.87,1.87,0,0,0-.71-.14H24.5a1.81,1.81,0,0,0-1.8,1.8V47.4A12.62,12.62,0,1,0,38.46,66H53.38V78.26c0,3.31,1.56,5.08,3.61,8.15V88a5.4,5.4,0,0,0-3.61,5.08v7.22a1.81,1.81,0,0,0,1.8,1.81H87.67a1.8,1.8,0,0,0,1.8-1.81V93.08A5.4,5.4,0,0,0,85.86,88V86.41c2.07-3.1,3.61-4.84,3.61-8.15V66h7.22a1.81,1.81,0,0,0,1.81-1.8V48h0v-18ZM94.89,55.18H89.7A7.26,7.26,0,0,1,94.89,50Zm0-32.48v5.18A7.26,7.26,0,0,1,89.7,22.7Zm-63.4,0a7.23,7.23,0,0,1-5.18,5.18V22.7Zm-5.18,8.86a10.84,10.84,0,0,0,8.86-8.86H86a10.84,10.84,0,0,0,8.86,8.86V46.32a10.85,10.85,0,0,0-5.42,2.62V46.16a1.79,1.79,0,0,0-1.8-1.8H85.86a9,9,0,0,0-9,9v1.8H40.21a12.64,12.64,0,0,0-12.1-9,13.38,13.38,0,0,0-1.8.14Zm1.8,36.26a9,9,0,1,1,9-9A9,9,0,0,1,28.11,67.82Zm12.64-9H76.84V62.4H40.21a12.27,12.27,0,0,0,.54-3.61ZM85.86,98.5H57V93.08a1.81,1.81,0,0,1,1.8-1.8H84.06a1.8,1.8,0,0,1,1.8,1.8Zm0-20.24a5.36,5.36,0,0,1-.91,3c-2.58,3.87-2.7,3.87-2.7,4.59v1.81H60.61c0-2,0-2.3-.32-2.81C58,81.38,57,80.4,57,78.26V66H72.42a15,15,0,0,0-4.6,10.83,1.81,1.81,0,1,0,3.61,0,11.47,11.47,0,0,1,7.24-10.7l.65-.26h0l.08,0a1.77,1.77,0,0,0,.45-.3l.13-.15a1.6,1.6,0,0,0,.25-.37,1.3,1.3,0,0,0,.08-.17,1.69,1.69,0,0,0,.13-.63V53.38A5.42,5.42,0,0,1,85.86,48v9h0Zm9-15.86H89.47V58.79h5.42Z"/><circle class="cls-2" cx="37.14" cy="38.94" r="1.8"/><circle class="cls-2" cx="84.06" cy="38.94" r="1.8"/><path class="cls-2" d="M31.72,57h-1.8V55.18a1.81,1.81,0,0,0-3.61,0V57H24.5a1.81,1.81,0,0,0,0,3.61h1.81v1.8a1.81,1.81,0,1,0,3.61,0V60.6h1.8a1.81,1.81,0,1,0,0-3.61Z"/></g></g></svg>