<svg xmlns="http://www.w3.org/2000/svg" viewBox="0 0 121.2 121.2"><defs><style>.cls-1{fill:#ffbf3a;}.cls-2{fill:#fff;}</style></defs><g id="Capa_2" data-name="Capa 2"><g id="Capa_1-2" data-name="Capa 1"><circle class="cls-1" cx="60.6" cy="60.6" r="60.6"/><rect class="cls-2" x="44.79" y="24.03" width="2.77" height="8.32" transform="translate(-7.69 23.11) rotate(-26.01)"/><path class="cls-2" d="M66.83,59.78a6.92,6.92,0,0,0-12.36-3.86L34.55,49l-1,2.58L53,60.6a6.93,6.93,0,0,0,13.84-.82Z"/><rect class="cls-2" x="24.89" y="73.88" width="8.32" height="2.77" transform="translate(-28.13 18.35) rotate(-24.02)"/><rect class="cls-2" x="35.68" y="30.13" width="4.16" height="13.87" transform="translate(-15.15 37.54) rotate(-44.99)"/><rect class="cls-2" x="26.72" y="44.11" width="2.77" height="8.32" transform="translate(-26.87 58.15) rotate(-69.99)"/><path class="cls-2" d="M60.6,16.22A44.38,44.38,0,1,0,105,60.6,44.38,44.38,0,0,0,60.6,16.22ZM99,72.59,92.43,70.2l-1,2.61,6.58,2.39A40.2,40.2,0,0,1,20.49,63.37H34.25V59.21H20.42a40.2,40.2,0,0,1,38.79-38.8V34.25h4.16V20.49A39.46,39.46,0,0,1,74.91,23l-2.79,7.28,2.59,1,2.76-7.2a40.28,40.28,0,0,1,10.37,7l-9.39,9.39,2.94,2.95,9.37-9.37A40.15,40.15,0,0,1,97,43.5l-6.42,2.86,1.12,2.53L98.08,46a40,40,0,0,1,2.7,13.17H86.94v4.16h13.77A40.19,40.19,0,0,1,99,72.59Z"/><path class="cls-2" d="M45.34,84.17H75.85V74.46H45.34Zm20.8-8.32h8.33v6.93H66.14Zm-9.7,0h8.32v6.93H56.44Zm-9.71,0h8.32v6.93H46.73Z"/></g></g></svg>