<svg xmlns="http://www.w3.org/2000/svg" viewBox="0 0 121.2 121.2"><defs><style>.cls-1{fill:#ffbf3a;}.cls-2{fill:#fff;}</style></defs><g id="Capa_2" data-name="Capa 2"><g id="Capa_1-2" data-name="Capa 1"><circle class="cls-1" cx="60.6" cy="60.6" r="60.6"/><g id="vehicle-classes"><path class="cls-2" d="M62,79.3a2.44,2.44,0,0,1-2.45,2.45H44.91a2.45,2.45,0,0,1,0-4.89H59.59A2.44,2.44,0,0,1,62,79.3Z"/><path class="cls-2" d="M89.63,47.14l-7.25-12a15,15,0,0,0-12.82-7.23H44.91a2.45,2.45,0,0,0,0,4.9H69.56a10.13,10.13,0,0,1,8.63,4.86l7.25,12a7.43,7.43,0,0,1,1.07,3.83V79.3a2.45,2.45,0,1,0,4.89,0V53.5A12.35,12.35,0,0,0,89.63,47.14Z"/><path class="cls-2" d="M99.41,37.36l-7.25-12a15,15,0,0,0-12.82-7.22H54.7a2.45,2.45,0,1,0,0,4.89H79.34A10.13,10.13,0,0,1,88,27.89l7.24,12a7.39,7.39,0,0,1,1.07,3.82V69.52a2.45,2.45,0,0,0,4.9,0V43.71A12.3,12.3,0,0,0,99.41,37.36Z"/><path class="cls-2" d="M79.84,61.82l-7.25-12A15,15,0,0,0,59.77,42.6h-15a15.06,15.06,0,0,0-12.82,7.22l-7.25,12a12.33,12.33,0,0,0-1.77,6.35V88a8.42,8.42,0,0,0,8.41,8.41h.39a8.4,8.4,0,0,0,7.81-5.35c.23.23.37.39.38.4a2.46,2.46,0,0,0,1.87.87h21a2.48,2.48,0,0,0,1.88-.87s.15-.17.37-.41a8.41,8.41,0,0,0,7.82,5.36h.39A8.41,8.41,0,0,0,81.61,88V68.18A12.35,12.35,0,0,0,79.84,61.82ZM36.1,52.35a10.14,10.14,0,0,1,8.63-4.85h15a10.12,10.12,0,0,1,8.63,4.86l5.28,8.72a92.82,92.82,0,0,1-23.87,3.54C40.3,64.62,34,62.4,30.87,61l1.55-2.56ZM35.2,88a3.52,3.52,0,0,1-3.51,3.52H31.3A3.52,3.52,0,0,1,27.79,88V84.45a19.27,19.27,0,0,1,7.41,3.06Zm29.21-3a29.66,29.66,0,0,0-2.73,2.46H42.83A32.81,32.81,0,0,0,40.1,85a28.85,28.85,0,0,0-5.74-3.59,25,25,0,0,0-3.18-1.21,20.17,20.17,0,0,0-3.39-.75v-2.6h2.44a2.45,2.45,0,0,0,0-4.9H27.79V68.18a7.26,7.26,0,0,1,.68-2.93c3,1.42,10.07,4.27,21.34,4.27a97.26,97.26,0,0,0,26.32-4,7.25,7.25,0,0,1,.59,2.71V72H74.27a2.45,2.45,0,0,0,0,4.9h2.45v2.6a20,20,0,0,0-3.27.71,22.2,22.2,0,0,0-3.24,1.23A28.26,28.26,0,0,0,64.41,85Zm12.31,3a3.52,3.52,0,0,1-3.51,3.52h-.39A3.53,3.53,0,0,1,69.3,88v-.51a19.26,19.26,0,0,1,7.42-3.06Z"/></g></g></g></svg>