<svg xmlns="http://www.w3.org/2000/svg" viewBox="0 0 109.57 109.57"><defs><style>.cls-1{fill:none;stroke:#ffc754;stroke-miterlimit:10;}.cls-2{fill:#ffbf3a;}.cls-3{fill:#fff;}</style></defs><g id="Capa_2" data-name="Capa 2"><g id="Capa_1-2" data-name="Capa 1"><circle class="cls-1" cx="54.79" cy="54.79" r="54.29"/><circle class="cls-2" cx="54.79" cy="54.79" r="45.62"/><path class="cls-3" d="M52.87,64.56h0a2,2,0,0,1-1.5-.68L41,52.67a2,2,0,0,1,3-2.74l8.89,9.64L77.55,35a2,2,0,0,1,2.88,0,2,2,0,0,1,0,2.87L54.31,64A1.86,1.86,0,0,1,52.87,64.56Z"/><path class="cls-3" d="M54.79,82a27.21,27.21,0,0,1,0-54.42,2.05,2.05,0,1,1,0,4.1A23.11,23.11,0,1,0,77.9,54.79a2.05,2.05,0,0,1,4.1,0A27.28,27.28,0,0,1,54.79,82Z"/></g></g></svg>