<svg xmlns="http://www.w3.org/2000/svg" viewBox="0 0 121.2 121.2"><defs><style>.cls-1{fill:#ffbf3a;}.cls-2{fill:#fff;}</style></defs><g id="Capa_2" data-name="Capa 2"><g id="Capa_1-2" data-name="Capa 1"><circle class="cls-1" cx="60.6" cy="60.6" r="60.6"/><path class="cls-2" d="M103.32,67.36,63,27.08a2.81,2.81,0,0,0-1.4-.77L39,21.24a2.88,2.88,0,0,0-2.66.77L17.88,40.48a2.9,2.9,0,0,0-.77,2.7l5.29,22.4A2.83,2.83,0,0,0,23.16,67l40.29,40.28a2.85,2.85,0,0,0,4.06,0l35.8-35.8A2.88,2.88,0,0,0,103.32,67.36ZM65.48,101.14,27.81,63.46l-4.73-20L39.3,27.2l20.26,4.54L97.22,69.4Z"/><path class="cls-2" d="M49.68,38.27a10.85,10.85,0,0,0-15.33,0A10.85,10.85,0,0,0,42,56.78a10.85,10.85,0,0,0,7.66-18.51ZM45.62,49.53a5.09,5.09,0,0,1-7.2,0,5.09,5.09,0,1,1,7.2,0Z"/><path class="cls-2" d="M55.42,56.94A2.38,2.38,0,1,0,52,60.29L53.7,62a7.15,7.15,0,0,0,10,10.18l3.39-3.35a2.38,2.38,0,0,1,3.35,3.39l-6.78,6.69a2.38,2.38,0,1,0,3.34,3.4l3.39-3.35,1.68,1.69a2.38,2.38,0,0,0,3.39-3.34l-1.68-1.7a7.15,7.15,0,1,0-10-10.17L60.4,68.77a2.38,2.38,0,0,1-3.35-3.39l6.78-6.7a2.38,2.38,0,1,0-3.34-3.39L57.1,58.64Z"/></g></g></svg>