<svg xmlns="http://www.w3.org/2000/svg" viewBox="0 0 121.2 121.2"><defs><style>.cls-1{fill:#ffbf3a;}.cls-2{fill:#fff;}</style></defs><g id="Capa_2" data-name="Capa 2"><g id="Capa_1-2" data-name="Capa 1"><circle class="cls-1" cx="60.6" cy="60.6" r="60.6"/><path class="cls-2" d="M75.16,68.92a6.24,6.24,0,1,0,6.24,6.24A6.24,6.24,0,0,0,75.16,68.92Z"/><path class="cls-2" d="M78.62,61.29V40.49a2.08,2.08,0,1,0-4.16,0V59.21H62V40.49a2.08,2.08,0,1,0-4.16,0V59.21H44V40.49a2.08,2.08,0,1,0-4.15,0V80.71a2.08,2.08,0,1,0,4.15,0V63.37H57.82V80.71a2.08,2.08,0,1,0,4.16,0V63.37H76.55A2.08,2.08,0,0,0,78.62,61.29Z"/><path class="cls-2" d="M75.16,66.14a9,9,0,1,0,9,9A9,9,0,0,0,75.16,66.14Zm0,16.65a7.63,7.63,0,1,1,7.63-7.63A7.64,7.64,0,0,1,75.16,82.79Z"/><path class="cls-2" d="M60.6,16.22A44.38,44.38,0,1,0,105,60.6,44.38,44.38,0,0,0,60.6,16.22Zm0,84.59A40.22,40.22,0,1,1,100.82,60.6,40.2,40.2,0,0,1,60.6,100.81Z"/></g></g></svg>