<svg xmlns="http://www.w3.org/2000/svg" viewBox="0 0 121.2 121.2"><defs><style>.cls-1{fill:#ffbf3a;}.cls-2{fill:#fff;}.cls-3{fill:aqua;}</style></defs><g id="Capa_2" data-name="Capa 2"><g id="Capa_1-2" data-name="Capa 1"><circle class="cls-1" cx="60.6" cy="60.6" r="60.6"/><path class="cls-2" d="M72.85,85.39C82.37,72.8,93.73,55.47,93.73,44.44a33.58,33.58,0,0,0-67.16,0c0,13.32,16.58,35.86,26.46,48.1a9.14,9.14,0,0,0,14.23,0l1.34-1.67c9.12,1.3,12.92,4.32,12.92,5.46,0,1.77-7.49,6.11-21.37,6.11S38.78,98.1,38.78,96.33c0-.28.36-1,1.71-1.91a3.05,3.05,0,1,0-3.42-5.06c-3.63,2.46-4.4,5.15-4.4,7,0,16.21,55,16.27,55,0C87.62,91.31,82.08,87.31,72.85,85.39ZM57.78,88.71c-15.72-19.48-25.11-36-25.11-44.27a27.48,27.48,0,1,1,55,0c0,8.23-9.39,24.79-25.11,44.27A3.14,3.14,0,0,1,57.78,88.71Z"/><path class="cls-2" d="M67.41,23.16c-4.53.2-9.08.12-13.62,0a8.44,8.44,0,0,0-3.49.32c-1.63.65-3.23,2.57-3.24,4q-.08,9.81-.14,19.62c0,1.27.38,1.72,1.63,1.74,3.69,0,18.39.17,22.06.16,1.35,0,1.8-.45,1.84-1.8,0-1,0-2.06,0-3.08,0-5.24,0-10.48.18-15.71C72.76,26,70,23,67.41,23.16Zm-.16,11.06c0,1.12-.31,1.41-1.45,1.41-2,0-10.16-.06-12.19-.07-1,0-1.28-.28-1.33-1.23-.12-1.95,0-3.9,0-5.86,0-.67.48-.95,1.12-.95l12.34.06c1.18,0,1.49.31,1.49,1.45Q67.28,31.63,67.25,34.22Z"/><path class="cls-2" d="M66.39,51.61c.14-1,0-1.15-1-1.16l-11.67,0c-.37,0-.54.12-.52.52a24.36,24.36,0,0,1,0,2.56,3.38,3.38,0,0,0,.73,2.39,3,3,0,0,1,.69,2.21q-.07,9.63-.12,19.24c0,2.1.58,3,2.28,3.34.36.08.5,0,.49-.36,0-.75,0-1.5,0-2.25,0-5.44.13-19.22.17-20.67,0-.64.38-.86,1-.81s.88.14.87.86c0,3.83-.2,19.22-.2,23.07a1.53,1.53,0,0,0,.76,1.59,1.72,1.72,0,0,0,2-.11,9.18,9.18,0,0,1,1.39-.9,3,3,0,0,0,1.62-2.9c0-3.23.08-16.71.09-20.22a2.63,2.63,0,0,1,.68-1.92,3.64,3.64,0,0,0,.74-1.53C66.62,53.55,66.26,52.58,66.39,51.61Z"/><path class="cls-3" d="M41.65,64.94a1.92,1.92,0,0,1-.23.19l-.09.11Z"/></g></g></svg>