<svg xmlns="http://www.w3.org/2000/svg" viewBox="0 0 121.2 121.2"><defs><style>.cls-1{fill:#ffbf3a;}.cls-2{fill:#fff;}</style></defs><g id="Capa_2" data-name="Capa 2"><g id="Capa_1-2" data-name="Capa 1"><g id="Capa_2-2" data-name="Capa 2"><g id="Capa_1-2-2" data-name="Capa 1-2"><circle class="cls-1" cx="60.6" cy="60.6" r="60.6"/></g></g><path class="cls-2" d="M65.27,43.85v-.52a3.08,3.08,0,0,1,.37-.5,12.33,12.33,0,0,0,2.52-3.18,23.19,23.19,0,0,0,3-11.33c0-2.1,0-4.21,0-6.31a1,1,0,0,1,1.13-1.12h4.86V20a1,1,0,1,1,2,0c0,.3,0,.61,0,.92h4.94V20a1,1,0,1,1,2,0v.87h5V20a1,1,0,1,1,2,0c0,.3,0,.6,0,.93h4.7c.87,0,1.23.36,1.23,1.21V47.29c0,.88-.36,1.23-1.24,1.23H72.17a1,1,0,0,1-1-1c0-.13,0-.27,0-.4V44.58h-.38c-1.42,0-2.83,0-4.24,0A1.22,1.22,0,0,1,65.27,43.85ZM97,28.81H73.16A24.05,24.05,0,0,1,68.52,42.6H91.41a.61.61,0,0,0,.44-.2,29.46,29.46,0,0,0,2-2.61,20.71,20.71,0,0,0,2.87-8.22C96.84,30.66,96.9,29.74,97,28.81Zm-5.94-5.92h-5v.84a1,1,0,0,1-1,1.11,1,1,0,0,1-1-1.09v-.86H79.15c0,.31,0,.6,0,.89a1,1,0,0,1-1,1.06,1,1,0,0,1-1-1.05v-.9h-4v3.9H97V22.88H93c0,.33,0,.65,0,1a1,1,0,0,1-1,1,1,1,0,0,1-1-1ZM97,38.06l-.19.39a19,19,0,0,1-3.85,5.68,1.54,1.54,0,0,1-1.15.45H73.18v2H97Z"/><path class="cls-2" d="M79.8,69.24l1.81,1.9a8.91,8.91,0,0,1,2.59,6.35c0,3.57,0,7.14,0,10.71a5.41,5.41,0,0,1-2.58,4.66,1.36,1.36,0,0,0-.53.93c-.06,1.12,0,2.26,0,3.39a4.47,4.47,0,0,1-4.5,4.46c-1.92,0-3.83,0-5.74,0a4.51,4.51,0,0,1-4.67-4.49c0-.63,0-1.26,0-1.85H34.9c0,.48,0,1,0,1.62a4.55,4.55,0,0,1-4.8,4.72c-1.82,0-3.65,0-5.48,0A4.5,4.5,0,0,1,20,97c0-.47,0-.93,0-1.39.11-1.41,0-2.59-1.42-3.51a4.39,4.39,0,0,1-1.72-3.91c0-3.51,0-7,0-10.53a8.93,8.93,0,0,1,2.68-6.57c.57-.57,1.25-1,1.88-1.55l-.25-.32c-1.16-.14-2.32-.27-3.48-.43-2.34-.34-3.73-1.39-4-3.33-.37-2.46-.08-4.22,2.22-5.53a14.66,14.66,0,0,1,2.67-1.23A3.76,3.76,0,0,1,23.48,62a8.68,8.68,0,0,1,.07,1.13,1,1,0,0,1-1,1,1,1,0,0,1-1.08-.9c-.05-.34-.07-.69-.11-1A1.66,1.66,0,0,0,19.1,60.7,16.48,16.48,0,0,0,16.54,62c-1,.61-1.06,1.74-.83,3.15a1.9,1.9,0,0,0,1.89,1.52c1.44.16,2.88.26,4.32.44a1.21,1.21,0,0,0,1.39-.81c2-3.78,4.08-7.53,6.16-11.28a22,22,0,0,1,1.46-2.15,6.13,6.13,0,0,1,2.89-2.15,47.32,47.32,0,0,1,33.26,0,6.7,6.7,0,0,1,3.3,2.56,94.45,94.45,0,0,1,7.32,13c.33.68.68,1,1.44.87,1.44-.19,2.88-.29,4.32-.45a1.86,1.86,0,0,0,1.87-1.53c.16-1.1.37-2.34-.78-3.09a13.49,13.49,0,0,0-2.63-1.32,1.67,1.67,0,0,0-2.28,1.55,2.77,2.77,0,0,1-.17,1.18,1.47,1.47,0,0,1-1,.68,1.3,1.3,0,0,1-.9-.84,3.92,3.92,0,0,1,5.24-4.5,15.73,15.73,0,0,1,2.13,1c2.44,1.31,3,3.15,2.39,6.06a3.5,3.5,0,0,1-2.93,2.77C82.91,68.87,81.41,69,79.8,69.24Zm2.31,13.43c0-1.65,0-3.31,0-5A7,7,0,0,0,80,72.47a21.93,21.93,0,0,1-1.56-1.64,21.26,21.26,0,0,1-2.35-3.29,111.57,111.57,0,0,0-7.32-13,5.14,5.14,0,0,0-2.65-2,45.31,45.31,0,0,0-31-.07,5,5,0,0,0-2.9,2.22c-2.06,3.55-4.24,7-6.09,10.72a24.17,24.17,0,0,1-5,7.09,6.75,6.75,0,0,0-2.15,5.23c0,3.36,0,6.72,0,10.09A3.4,3.4,0,0,0,22,91.56a103.14,103.14,0,0,0,13.12,1.52,3.28,3.28,0,0,0,3.27-1.3A6.46,6.46,0,0,1,44,89.27c4.41,0,8.81,0,13.22,0a10,10,0,0,1,1.64.12c2,.32,3.33,1.66,4.55,3.13a1.4,1.4,0,0,0,1.34.58c1-.1,2.09-.07,3.12-.19,3.8-.44,7.6-.87,11.38-1.42A3.25,3.25,0,0,0,82.11,88C82.12,86.21,82.11,84.44,82.11,82.67Zm-60,11.18c0,1,0,2,0,3a2.46,2.46,0,0,0,2.68,2.71c1.39,0,2.78-.06,4.17,0,3.75.2,4-1.44,3.89-4,0-.15,0-.28-.06-.41Zm46.22,1.26c0,.74,0,1.49,0,2.23a2.29,2.29,0,0,0,2.28,2.19q3,.07,6.07,0a2.26,2.26,0,0,0,2.28-2c.1-1.23,0-2.48,0-3.69ZM39.93,93.22H61.12a4.18,4.18,0,0,0-3.31-1.83q-7.31,0-14.61,0A4.07,4.07,0,0,0,39.93,93.22Z"/><path class="cls-2" d="M70.51,66.13a43.39,43.39,0,0,0-4.82-9.25,3.15,3.15,0,0,0-1.63-1.05,50.81,50.81,0,0,0-14.49-2,52.8,52.8,0,0,0-12.67,2A3.08,3.08,0,0,0,35.3,57a43.57,43.57,0,0,0-4.78,9.17c1.22-.07,2.33-.18,3.43-.19q13.3-.17,26.61-.28c.81,0,1.34.46,1.28,1.09-.09.8-.63,1-1.36,1-6.12,0-12.24-.1-18.35,0-4.26.07-8.51.39-12.76.63-1.18.06-1.74-.56-1.33-1.65A53,53,0,0,1,33.4,55.93a4.83,4.83,0,0,1,2.88-2.11A55,55,0,0,1,51.2,51.71a57.11,57.11,0,0,1,13.62,2.12,4.76,4.76,0,0,1,2.75,2A52,52,0,0,1,73,66.78c.37,1-.17,1.66-1.23,1.59q-1.22-.09-2.43-.21c-.7-.07-1.19-.42-1.1-1.17s.62-1,1.32-.91Z"/><path class="cls-2" d="M50.5,77.24c3.31,0,6.62.13,9.91,0,2-.11,3.92,1.3,3.1,4A7.44,7.44,0,0,1,57,86.3c-4.28.09-8.58.11-12.86,0a7.17,7.17,0,0,1-6.49-4.89c-1.07-2.82,1-4.33,3.07-4.2,3.27.19,6.55,0,9.82,0Zm0,2.1c-3.3,0-6.6,0-9.9,0-1.17,0-1.51.38-1,1.46.92,2,2.38,3.36,4.64,3.41q6.26.14,12.51,0c2.25,0,3.72-1.44,4.65-3.4.5-1.08.16-1.48-1-1.47C57.12,79.36,53.82,79.34,50.52,79.34Z"/><path class="cls-2" d="M80.33,79.24a18.44,18.44,0,0,1-.16,2A3.46,3.46,0,0,1,77.81,84a31.25,31.25,0,0,1-4.4.92,3.6,3.6,0,0,1-2.78-1,14.45,14.45,0,0,0-2.8-1.85c-2.15-1-2.25-3.06-1.92-4.89.06-.3.64-.65,1-.74,2.87-.68,5.77-1.26,8.64-1.94a3.67,3.67,0,0,1,4.66,3.16,13.52,13.52,0,0,1,0,1.56Zm-2.17.1h0c0-.35,0-.7,0-1a1.64,1.64,0,0,0-2.24-1.7c-2.44.59-4.89,1.18-7.35,1.68-.77.15-.86.53-.62,1.06a2.53,2.53,0,0,0,.88.87,12.75,12.75,0,0,1,2.41,1.51,3.45,3.45,0,0,0,3.7,1c.67-.18,1.35-.33,2-.56a1.69,1.69,0,0,0,1.2-1.56C78.19,80.15,78.16,79.74,78.16,79.34Z"/><path class="cls-2" d="M20.8,79.46a4.74,4.74,0,0,1,.9-3.79,3.35,3.35,0,0,1,3.56-1.2c2.95.69,5.93,1.29,8.89,2,.4.1,1,.55,1,.86a8.18,8.18,0,0,1-.32,3.13c-.25.66-1.07,1.14-1.71,1.61-.85.64-1.82,1.12-2.63,1.79a3.8,3.8,0,0,1-3.1,1.07,25.24,25.24,0,0,1-4.14-.9,3.56,3.56,0,0,1-2.46-3.28C20.76,80.25,20.8,79.76,20.8,79.46Zm1.94-.21c.15,1-.14,2.17.91,2.59a13.71,13.71,0,0,0,4.18.94c.62,0,1.29-.72,1.94-1.12L32,80.29c.14-.09.39-.09.46-.22a6.44,6.44,0,0,0,.67-1.37,2.28,2.28,0,0,0-.86-.45c-2.45-.58-4.91-1.1-7.35-1.71a1.3,1.3,0,0,0-1.72.72A9.92,9.92,0,0,0,22.74,79.25Z"/><path class="cls-2" d="M65.26,67.9a1.06,1.06,0,1,1,0-2.09c.69,0,1.19.28,1.22,1S66,67.91,65.26,67.9Z"/></g></g></svg>