<svg xmlns="http://www.w3.org/2000/svg" viewBox="0 0 109.57 109.57"><defs><style>.cls-1{fill:none;stroke:#ffcb54;stroke-miterlimit:10;}.cls-2{fill:#ffc33a;}.cls-3{fill:#fff;}</style></defs><g id="Capa_2" data-name="Capa 2"><g id="Capa_1-2" data-name="Capa 1"><circle class="cls-1" cx="54.79" cy="54.79" r="54.29"/><circle class="cls-2" cx="54.79" cy="54.79" r="45.62"/><path class="cls-3" d="M68.13,24.64H41.55A15.7,15.7,0,0,0,25.86,40.33V66.92A15.7,15.7,0,0,0,41.55,82.61H68.13a15.71,15.71,0,0,0,15.7-15.69V40.33A15.71,15.71,0,0,0,68.13,24.64Zm12.3,42.28a12.31,12.31,0,0,1-12.3,12.29H41.55a12.31,12.31,0,0,1-12.3-12.29V40.33A12.31,12.31,0,0,1,41.55,28H68.13a12.31,12.31,0,0,1,12.3,12.29Z"/><path class="cls-3" d="M54.84,37.77A15.86,15.86,0,1,0,70.69,53.62,15.87,15.87,0,0,0,54.84,37.77Zm0,28.31A12.46,12.46,0,1,1,67.29,53.62,12.47,12.47,0,0,1,54.84,66.08Z"/><path class="cls-3" d="M71.07,32.14a4.69,4.69,0,1,0,4.68,4.69A4.69,4.69,0,0,0,71.07,32.14Zm0,6a1.29,1.29,0,1,1,1.29-1.28A1.28,1.28,0,0,1,71.07,38.11Z"/></g></g></svg>