<svg width="12" height="8" viewBox="0 0 12 8" fill="none" xmlns="http://www.w3.org/2000/svg">
<path d="M4.72001 0.762513C3.13401 1.17201 1.89901 2.12751 1.15151 3.53151C0.651011 4.47401 0.391011 5.70251 0.495011 6.69051C0.527511 7.00251 0.560011 7.26901 0.560011 7.27551C0.560011 7.28851 0.807011 7.29501 1.11251 7.29501H1.66501L1.61951 7.02201C1.52851 6.45651 1.50901 6.48251 2.07451 6.46301L2.57501 6.44351V6.19001V5.93001H2.05501C1.76901 5.93001 1.53501 5.90401 1.53501 5.87151C1.53501 5.65701 1.74951 4.77951 1.86651 4.48701C2.04851 4.05801 2.49701 3.33001 2.58151 3.33001C2.62051 3.33001 2.80901 3.47951 3.00401 3.66801L3.36151 4.00601L3.53701 3.83051L3.70601 3.65501L3.32251 3.26501C3.11451 3.05051 2.95201 2.86851 2.97151 2.85551C2.98451 2.84251 3.12751 2.73201 3.29001 2.60201C3.45251 2.47201 3.77101 2.27701 3.99851 2.16001C4.43401 1.94551 5.34401 1.67901 5.48051 1.73751C5.53901 1.75701 5.56501 1.92601 5.56501 2.29001V2.81001H5.83151H6.09801L6.05251 2.25751L6.00701 1.70501H6.22801C6.83901 1.70501 8.15851 2.22501 8.64601 2.65401L8.83451 2.82301L8.45101 3.20651L8.07401 3.59001L8.24951 3.76551L8.42501 3.94101L8.80201 3.57051L9.17901 3.20001L9.31551 3.34301C9.72501 3.77851 10.167 4.79901 10.2775 5.55301L10.323 5.86501H9.76401H9.20501V6.12501V6.38501H9.76401H10.323L10.2775 6.75551C10.2515 6.95701 10.219 7.15851 10.1995 7.21051C10.1735 7.27551 10.284 7.29501 10.7195 7.29501H11.272L11.324 7.08051C11.35 6.97001 11.3695 6.56701 11.3695 6.19001C11.3695 5.03951 11.051 4.00601 10.414 3.05051C9.15301 1.15251 6.83251 0.223013 4.72001 0.762513Z" fill="black" fill-opacity="0.35"/>
<path d="M6.42298 3.88253C5.94198 4.56503 5.72098 4.82503 5.62348 4.82503C5.45448 4.82503 5.04498 5.03303 4.90198 5.19553C4.62248 5.50103 4.51198 6.10553 4.66148 6.49553C4.75248 6.74253 5.02548 7.02203 5.31798 7.17153C6.27998 7.66553 7.37198 6.49553 6.86498 5.51403L6.74148 5.26053L6.92998 4.12303C7.03398 3.49253 7.11198 2.97253 7.10548 2.95953C7.09248 2.95303 6.78698 3.36903 6.42298 3.88253ZM6.18898 5.46203C6.53348 5.73503 6.57898 6.22903 6.28648 6.51503C6.05248 6.74903 5.81198 6.81403 5.55848 6.71003C4.84348 6.41103 5.01898 5.34503 5.77948 5.34503C5.94198 5.34503 6.11098 5.39703 6.18898 5.46203Z" fill="black" fill-opacity="0.35"/>
</svg>
