<svg width="9" height="9" viewBox="0 0 9 9" fill="none" xmlns="http://www.w3.org/2000/svg">
<path d="M4.77951 0.437486C3.63551 0.684486 2.69301 1.60749 2.38751 2.77749C1.80251 5.03949 3.96051 7.19749 6.22251 6.61249C7.80851 6.19649 8.84851 4.65599 8.60151 3.07649C8.40001 1.75699 7.32751 0.645486 6.03401 0.411486C5.54651 0.320486 5.28651 0.326986 4.77951 0.437486ZM6.02101 0.957486C7.67851 1.30849 8.56901 3.10899 7.86051 4.64949C7.40551 5.63749 6.28101 6.27449 5.18251 6.16399C4.64301 6.11199 3.95401 5.76099 3.56401 5.34499C1.98451 3.66149 3.10901 0.983486 5.44251 0.866486C5.51401 0.866486 5.77401 0.905486 6.02101 0.957486Z" fill="#1057DB"/>
<path d="M5.39048 1.48398C5.36448 1.50998 5.34498 1.61398 5.34498 1.71798C5.34498 1.86098 5.31248 1.89998 5.20198 1.89998C4.96148 1.90648 4.55198 2.12748 4.29198 2.38748C4.09048 2.59548 3.92798 2.90098 3.81098 3.31048C3.80448 3.34948 3.71348 3.39498 3.60948 3.40798C3.36248 3.43398 3.36898 3.60948 3.62248 3.65498C3.77198 3.68098 3.82398 3.73298 3.85648 3.89548C3.91498 4.20098 4.21398 4.66898 4.44798 4.83798C4.56498 4.91598 4.80548 5.03298 4.98748 5.09798C5.25398 5.18898 5.31898 5.23448 5.34498 5.39048C5.39048 5.65048 5.56598 5.63098 5.59198 5.35798C5.61148 5.19548 5.64398 5.14998 5.75448 5.14998C5.98198 5.14348 6.39798 4.92898 6.63848 4.68848C6.87898 4.44798 7.09348 4.02548 7.09998 3.80448C7.09998 3.69398 7.14548 3.66148 7.31448 3.64198C7.59398 3.61598 7.60048 3.43398 7.32098 3.40798C7.13898 3.38848 7.11298 3.35598 7.03498 3.05048C6.91798 2.58248 6.41748 2.08198 5.94948 1.96498C5.64398 1.88698 5.61148 1.85448 5.59198 1.68548C5.57248 1.49048 5.47498 1.39948 5.39048 1.48398ZM5.34498 2.28998C5.34498 2.36798 5.39048 2.41998 5.44898 2.41998C5.50748 2.41998 5.56598 2.36148 5.58548 2.28998C5.62448 2.13398 5.66998 2.12748 5.98198 2.26398C6.30048 2.39398 6.56698 2.65398 6.71648 2.97248C6.87248 3.30398 6.87248 3.36898 6.70998 3.41448C6.63848 3.43398 6.57998 3.49248 6.57998 3.55098C6.57998 3.60948 6.63198 3.65498 6.70998 3.65498C6.87898 3.65498 6.87248 3.75898 6.67748 4.15548C6.49548 4.51298 6.15748 4.79898 5.82598 4.86398C5.65698 4.89648 5.61798 4.87698 5.58548 4.76648C5.56598 4.68848 5.52048 4.62998 5.47498 4.62998C5.42948 4.62998 5.38398 4.68848 5.36448 4.76648C5.33198 4.87698 5.29298 4.89648 5.13048 4.86398C4.68198 4.77298 4.22698 4.32448 4.13598 3.87598C4.10348 3.70698 4.12298 3.66798 4.23348 3.63548C4.31148 3.61598 4.36998 3.57048 4.36998 3.52498C4.36998 3.47948 4.31148 3.43398 4.23348 3.41448C4.12298 3.38198 4.10348 3.34298 4.13598 3.17398C4.20098 2.84248 4.48698 2.50448 4.84448 2.32248C5.24098 2.12748 5.34498 2.12098 5.34498 2.28998Z" fill="#1057DB"/>
<path d="M5.18251 2.771C4.51951 3.0765 4.46751 3.9085 5.09151 4.253C5.54651 4.5065 6.10551 4.2465 6.26801 3.7135C6.44351 3.1285 5.74151 2.5175 5.18251 2.771Z" fill="#1057DB"/>
<path d="M2.62801 5.75451C2.56951 5.81951 2.62801 5.91051 2.86851 6.15101C3.12851 6.40451 3.19351 6.44351 3.25201 6.36551C3.31701 6.29401 3.27151 6.21601 3.03101 5.96901C2.86201 5.80651 2.71901 5.67001 2.71251 5.67001C2.70601 5.67001 2.66701 5.70901 2.62801 5.75451Z" fill="#1057DB"/>
<path d="M1.25 6.7425C0.385498 7.607 0.372498 7.6265 0.372498 7.906C0.372498 8.4325 0.924998 8.803 1.354 8.5755C1.458 8.517 1.9065 8.1075 2.355 7.659L3.1675 6.84L2.68 6.3525C2.4135 6.086 2.1795 5.865 2.16 5.865C2.1405 5.865 1.731 6.2615 1.25 6.7425Z" fill="#1057DB"/>
</svg>
