<svg width="10" height="10" viewBox="0 0 10 10" fill="none" xmlns="http://www.w3.org/2000/svg">
<path d="M3.92501 2.49501C3.21001 2.68001 2.75001 3.15001 2.57001 3.87501C2.49501 4.17001 2.49001 4.26001 2.54501 4.52001C2.58001 4.68501 2.65001 4.90501 2.70501 5.01001C2.75501 5.11001 2.80001 5.22501 2.80001 5.25501C2.80001 5.29001 2.43001 5.69001 1.98001 6.14501C1.49001 6.64001 1.14501 7.03001 1.12501 7.10501C1.05501 7.39001 1.38001 7.70501 1.67001 7.63001C1.81501 7.59501 1.97501 7.42501 2.74501 6.51001C3.35001 5.79501 3.37501 5.78001 3.73001 5.93001C3.99501 6.04001 4.61001 6.03501 4.90001 5.92001C5.39501 5.72501 5.74501 5.39001 5.96001 4.91501C6.04501 4.73001 6.07001 4.57501 6.07001 4.24501C6.07001 3.86001 6.05501 3.78001 5.91001 3.49001C5.61501 2.89001 5.06001 2.51501 4.41501 2.47501C4.23001 2.46501 4.01001 2.47001 3.92501 2.49501ZM4.81001 2.95001C5.10001 3.05501 5.43001 3.36001 5.57501 3.64501C5.70501 3.90501 5.72501 4.33001 5.63001 4.67001C5.47501 5.20001 4.86001 5.65001 4.30001 5.65001C4.04001 5.65001 3.62001 5.49001 3.39001 5.30001C2.94001 4.93001 2.79001 4.16001 3.06501 3.62001C3.39501 2.97001 4.12501 2.69001 4.81001 2.95001Z" fill="#1057DB"/>
<path d="M5.90002 3.00002L6.00502 3.15002L6.81002 3.16002L7.61502 3.17502L7.83002 3.67502L8.04002 4.17502L7.19502 4.19002C6.73002 4.19502 6.35002 4.22002 6.35002 4.24002C6.34502 4.41002 6.18502 4.98502 6.08502 5.18002C5.92002 5.50002 5.47002 5.92002 5.11502 6.09002C4.86002 6.20502 4.76502 6.22502 4.31502 6.22502H3.80002V6.53002C3.80002 6.73502 3.82502 6.86002 3.87002 6.89502C3.91502 6.93502 4.10002 6.95002 4.38502 6.94002L4.82502 6.92502L4.84002 6.61002L4.85502 6.30002H6.37502H7.90002V6.57002C7.90002 6.74002 7.92502 6.86002 7.97002 6.89502C8.01502 6.93502 8.20002 6.95002 8.48502 6.94002L8.92502 6.92502L8.94002 5.83002L8.95002 4.73502L8.75502 4.54502L8.55502 4.36002L8.76502 4.29002C8.94502 4.23502 8.97502 4.21002 8.96002 4.10502C8.91002 3.78002 8.87502 3.75002 8.53502 3.75002H8.22002L8.00002 3.30002L7.78002 2.85002H6.78502H5.79502L5.90002 3.00002ZM8.55002 5.35002V5.50002H7.97502C7.66002 5.50002 7.40002 5.49002 7.40002 5.47502C7.40002 5.46502 7.42502 5.39502 7.46002 5.32502C7.51502 5.20502 7.53002 5.20002 8.03502 5.20002H8.55002V5.35002ZM7.00002 5.95002V6.15502L6.39002 6.14002L5.77502 6.12502L5.76002 5.93502L5.74502 5.75002H6.37002H7.00002V5.95002Z" fill="#1057DB"/>
</svg>
