<svg width="17" height="12" viewBox="0 0 17 12" fill="none" xmlns="http://www.w3.org/2000/svg">
<path d="M6.2425 0.2395C4.741 0.628 3.775 1.615 3.397 3.1375C3.2395 3.757 3.229 3.946 3.3445 4.492C3.418 4.8385 3.565 5.3005 3.6805 5.521C3.7855 5.731 3.88 5.9725 3.88 6.0355C3.88 6.109 3.103 6.949 2.158 7.9045C1.129 8.944 0.404502 9.763 0.362502 9.9205C0.215502 10.519 0.898002 11.1805 1.507 11.023C1.8115 10.9495 2.1475 10.5925 3.7645 8.671C5.035 7.1695 5.0875 7.138 5.833 7.453C6.3895 7.684 7.681 7.6735 8.29 7.432C9.3295 7.0225 10.0645 6.319 10.516 5.3215C10.6945 4.933 10.747 4.6075 10.747 3.9145C10.747 3.106 10.7155 2.938 10.411 2.329C9.7915 1.069 8.626 0.281501 7.2715 0.1975C6.883 0.1765 6.421 0.187 6.2425 0.2395ZM8.101 1.195C8.71 1.4155 9.403 2.056 9.7075 2.6545C9.9805 3.2005 10.0225 4.093 9.823 4.807C9.4975 5.92 8.206 6.865 7.03 6.865C6.484 6.865 5.602 6.529 5.119 6.13C4.174 5.353 3.859 3.736 4.4365 2.602C5.1295 1.237 6.6625 0.649 8.101 1.195Z" fill="white"/>
<path d="M10.39 1.30001L10.6105 1.61501L12.301 1.63601L13.9915 1.66751L14.443 2.71751L14.884 3.76751L13.1095 3.79901C12.133 3.80951 11.335 3.86201 11.335 3.90401C11.3245 4.26101 10.9885 5.46851 10.7785 5.87801C10.432 6.55001 9.48698 7.43201 8.74148 7.78901C8.20598 8.03051 8.00648 8.07251 7.06148 8.07251H5.97998V8.71301C5.97998 9.14351 6.03248 9.40601 6.12698 9.47951C6.22148 9.56351 6.60998 9.59501 7.20848 9.57401L8.13248 9.54251L8.16398 8.88101L8.19548 8.23001H11.3875H14.59V8.79701C14.59 9.15401 14.6425 9.40601 14.737 9.47951C14.8315 9.56351 15.22 9.59501 15.8185 9.57401L16.7425 9.54251L16.774 7.24301L16.795 4.94351L16.3855 4.54451L15.9655 4.15601L16.4065 4.00901C16.7845 3.89351 16.8475 3.84101 16.816 3.62051C16.711 2.93801 16.6375 2.87501 15.9235 2.87501H15.262L14.8 1.93001L14.338 0.985007H12.2485H10.1695L10.39 1.30001ZM15.955 6.23501V6.55001H14.7475C14.086 6.55001 13.54 6.52901 13.54 6.49751C13.54 6.47651 13.5925 6.32951 13.666 6.18251C13.7815 5.93051 13.813 5.92001 14.8735 5.92001H15.955V6.23501ZM12.7 7.49501V7.92551L11.419 7.89401L10.1275 7.86251L10.096 7.46351L10.0645 7.07501H11.377H12.7V7.49501Z" fill="white"/>
</svg>
