<?xml version="1.0" encoding="UTF-8"?>
<svg id="Capa_1" data-name="Capa 1" xmlns="http://www.w3.org/2000/svg" viewBox="0 0 349.52 224.15">
  <path d="m114.88,86.59c.25,1,.67,2.68,1.23,4.93-11.07,0-21.54,0-32.01,0-8.16,0-16.35-.32-24.48.17-3.05.19-7.02,1.44-8.79,3.64-5.8,7.22-10.78,15.09-16.69,23.59,2.33.35,3.67.73,5.02.73,27.66.03,55.32.05,82.98-.05,1.45,0,2.89-1.16,5.34-2.21,10.35,14.71,25.19,25.81,44.1,31-2.09,9.19,1.16,12.42,10.12,10.04,3-.8,6.01-2.07,8.6-3.76,5.94-3.9,8.1-4.73,16.73-4.66-.39,4.95-1.04,9.87-1.11,14.8-.2,13.49-.15,26.99-.21,40.48-.03,7.01-1.4,8.37-8.48,8.38-4.67,0-9.33,0-14,0-6.96-.01-8.12-1.15-8.26-8.01-.02-.83-.07-1.66-.13-2.88H35.94c-.07,1.34-.14,2.63-.2,3.91-.26,5.45-1.82,6.95-7.36,6.97-5.66.03-11.33-.04-16.99.02-4.4.04-6.36-2.23-6.43-6.44,0-.33,0-.67,0-1-.74-20.45-1.33-40.91-2.32-61.35-.31-6.49,1.15-11.29,7.38-14.31,3.54-1.71,6.65-4.29,10.33-6.73-3.6-4.34-8.3-3.63-12.53-3.72-3.49-.07-7.11.41-7.74-4.11-.6-4.33,2.7-6.23,6.18-7.24,2.51-.73,5.23-.99,7.86-.99,6.38.01,6.39.38,6.83,6.74.15,2.13,1.75,4.15,3.06,7.06,5.33-7.36,10.13-13.49,14.38-19.98,7.04-10.76,16.86-15.34,29.56-15.1,15.47.28,30.94.07,46.94.07Zm-81.55,73.42c2.09-1.34,5.63-2.42,5.93-4.08.47-2.63-.33-6.81-2.2-8.27-5.03-3.94-10.71-7.26-16.56-9.85-2.54-1.12-6.14.16-9.26.35.53,3.3,0,7.43,1.81,9.74,4.89,6.25,11.39,10.59,20.28,12.11Zm-6.91,12.57c-.07.24-.15.48-.22.72-.83,0-1.66,0-2.49,0-4.16-.03-6.5,1.7-6.63,6.17-.13,4.55,1.94,7.18,6.36,6.98,4.58-.21,9.19-1.01,13.66-2.07,1.47-.35,3.61-2.34,3.55-3.5-.07-1.58-1.62-3.78-3.11-4.48-3.52-1.66-7.39-2.59-11.12-3.81Zm157.5,14.47c2.78-.53,5.1-.29,6.21-1.34,1.55-1.46,3-3.87,3-5.87,0-2.03-1.48-5.47-2.92-5.83-6.43-1.61-12.9-1.06-18.4,3.24-2.94,2.29-2.95,5.07.63,6.52,3.93,1.58,8.17,2.37,11.49,3.29Z"/>
  <path d="m191.31,146.65c-40.11.03-73.09-32.87-73.18-73C118.04,33.22,150.88.13,191.22,0c40.64-.13,73.62,32.84,73.6,73.58-.02,40.39-32.86,73.04-73.52,73.07Zm.16-18.96c30.04-.01,54.43-24.27,54.45-54.16.02-30.13-24.68-54.83-54.63-54.64-29.88.19-54.29,24.74-54.25,54.57.04,29.85,24.51,54.24,54.43,54.23Z"/>
  <path d="m248.87,147.63c-2.6,2.16-5.34,3.52-8.1.2-3.97-4.77,1.59-6.5,3.11-9.94-.97-1.16-2.1-2.51-3.27-3.91,4.6-4.83,9.16-9.62,13.93-14.63,1.25.96,2.64,2.04,4.03,3.11,3.25-1.48,4.81-7.57,9.89-3.57,2.72,2.14,2.76,3.49.57,7.75,1.54,1.09,3.24,2.01,4.6,3.29,23.71,22.44,47.38,44.92,71.04,67.42,5.89,5.6,6.53,16.91,1.36,22.45-4.76,5.1-16.69,5.99-21.82,1.15-24.35-22.98-48.56-46.1-72.77-69.22-.99-.94-1.51-2.38-2.56-4.11Z"/>
</svg>