<svg width="13" height="13" viewBox="0 0 13 13" fill="none" xmlns="http://www.w3.org/2000/svg">
<path d="M7.08501 2.16449C7.95601 2.46349 8.62551 3.00949 9.01551 3.74399C9.43801 4.53699 9.52901 5.32349 9.28851 6.17499C8.85301 7.76099 6.67551 11.115 6.08401 11.115C5.72651 11.115 4.14051 8.89849 3.41251 7.37749C3.02251 6.55199 2.79501 5.79799 2.79501 5.31049C2.79501 3.84799 3.80251 2.54799 5.25851 2.11899C5.77851 1.96949 6.56501 1.98899 7.08501 2.16449ZM5.03751 2.97699C3.32801 3.78299 2.94451 5.93449 4.27051 7.26699C5.77851 8.77499 8.32651 7.94299 8.72301 5.80449C8.86601 5.03749 8.59951 4.19249 8.02101 3.57499C7.26051 2.76249 6.03201 2.51549 5.03751 2.97699Z" fill="black" fill-opacity="0.35"/>
<path d="M7.38401 3.73098C7.46201 3.78298 7.57251 3.96498 7.63101 4.12748C7.72201 4.36148 7.78051 4.42648 7.89101 4.41348C7.96251 4.41348 8.06651 4.40698 8.10551 4.41348C8.22901 4.42648 8.20951 4.79048 8.08601 4.86198C7.99501 4.91398 7.98851 4.96598 8.05351 5.25848C8.09251 5.44698 8.12501 5.82398 8.12501 6.10998C8.12501 6.67548 8.04701 6.82498 7.74801 6.82498C7.49451 6.82498 7.38401 6.72748 7.37101 6.51948L7.36451 6.33748L6.12301 6.31798L4.87502 6.30498V6.46098C4.87502 6.67548 4.71251 6.82498 4.48501 6.82498C4.17951 6.82498 4.09502 6.68198 4.09502 6.14898C4.09502 5.88898 4.12751 5.50548 4.16651 5.29748C4.22501 4.97248 4.21851 4.90748 4.13402 4.86198C4.01051 4.79048 3.99101 4.42648 4.10802 4.41348C4.15351 4.40698 4.25751 4.41348 4.32902 4.41348C4.43951 4.42648 4.49801 4.36148 4.58902 4.12748C4.76451 3.65298 4.81001 3.63998 6.11001 3.63998C7.00051 3.63998 7.28001 3.65948 7.38401 3.73098ZM5.05701 3.84798C4.94001 3.93898 4.61501 4.67348 4.61501 4.84248C4.61501 4.92698 4.81001 4.93998 6.11001 4.93998C7.83901 4.93998 7.74151 4.99198 7.41651 4.27048C7.30601 4.01698 7.17601 3.83498 7.10451 3.81548C6.82501 3.74398 5.16102 3.76998 5.05701 3.84798ZM6.89001 5.65498V5.91498H7.28001H7.67001V5.65498V5.39498H7.28001H6.89001V5.65498ZM4.58252 5.65498V5.88248L4.95951 5.90198C5.36901 5.92148 5.44701 5.86298 5.36901 5.55098C5.33001 5.39498 5.30401 5.38848 4.95301 5.40798L4.58252 5.42748V5.65498Z" fill="black" fill-opacity="0.35"/>
</svg>
