<svg viewBox="0 0 8 9" fill="none" xmlns="http://www.w3.org/2000/svg">
<path d="M3.7365 1.0625C2.7685 1.2715 1.971 2.0525 1.7125 3.0425C1.2175 4.9565 3.0435 6.7825 4.9575 6.2875C6.2995 5.9355 7.1795 4.632 6.9705 3.2955C6.8 2.179 5.8925 1.2385 4.798 1.0405C4.3855 0.9635 4.1655 0.969 3.7365 1.0625ZM4.787 1.5025C6.1895 1.7995 6.943 3.323 6.3435 4.6265C5.9585 5.4625 5.007 6.0015 4.0775 5.908C3.621 5.864 3.038 5.567 2.708 5.215C1.3715 3.7905 2.323 1.5245 4.2975 1.4255C4.358 1.4255 4.578 1.4585 4.787 1.5025Z" fill="white"/>
<path d="M4.2535 1.948C4.2315 1.97 4.215 2.058 4.215 2.146C4.215 2.267 4.1875 2.3 4.094 2.3C3.8905 2.3055 3.544 2.4925 3.324 2.7125C3.1535 2.8885 3.016 3.147 2.917 3.4935C2.9115 3.5265 2.8345 3.565 2.7465 3.576C2.5375 3.598 2.543 3.7465 2.7575 3.785C2.884 3.807 2.928 3.851 2.9555 3.9885C3.005 4.247 3.258 4.643 3.456 4.786C3.555 4.852 3.7585 4.951 3.9125 5.006C4.138 5.083 4.193 5.1215 4.215 5.2535C4.2535 5.4735 4.402 5.457 4.424 5.226C4.4405 5.0885 4.468 5.05 4.5615 5.05C4.754 5.0445 5.106 4.863 5.3095 4.6595C5.513 4.456 5.6945 4.0985 5.7 3.9115C5.7 3.818 5.7385 3.7905 5.8815 3.774C6.118 3.752 6.1235 3.598 5.887 3.576C5.733 3.5595 5.711 3.532 5.645 3.2735C5.546 2.8775 5.1225 2.454 4.7265 2.355C4.468 2.289 4.4405 2.2615 4.424 2.1185C4.4075 1.9535 4.325 1.8765 4.2535 1.948ZM4.215 2.63C4.215 2.696 4.2535 2.74 4.303 2.74C4.3525 2.74 4.402 2.6905 4.4185 2.63C4.4515 2.498 4.49 2.4925 4.754 2.608C5.0235 2.718 5.249 2.938 5.3755 3.2075C5.5075 3.488 5.5075 3.543 5.37 3.5815C5.3095 3.598 5.26 3.6475 5.26 3.697C5.26 3.7465 5.304 3.785 5.37 3.785C5.513 3.785 5.5075 3.873 5.3425 4.2085C5.1885 4.511 4.9025 4.753 4.622 4.808C4.479 4.8355 4.446 4.819 4.4185 4.7255C4.402 4.6595 4.3635 4.61 4.325 4.61C4.2865 4.61 4.248 4.6595 4.2315 4.7255C4.204 4.819 4.171 4.8355 4.0335 4.808C3.654 4.731 3.269 4.3515 3.192 3.972C3.1645 3.829 3.181 3.796 3.2745 3.7685C3.3405 3.752 3.39 3.7135 3.39 3.675C3.39 3.6365 3.3405 3.598 3.2745 3.5815C3.181 3.554 3.1645 3.521 3.192 3.378C3.247 3.0975 3.489 2.8115 3.7915 2.6575C4.127 2.4925 4.215 2.487 4.215 2.63Z" fill="white"/>
<path d="M4.0775 3.037C3.5165 3.2955 3.4725 3.9995 4.0005 4.291C4.3855 4.5055 4.8585 4.2855 4.996 3.8345C5.1445 3.3395 4.5505 2.8225 4.0775 3.037Z" fill="white"/>
<path d="M1.916 5.5615C1.8665 5.6165 1.916 5.6935 2.1195 5.897C2.3395 6.1115 2.3945 6.1445 2.444 6.0785C2.499 6.018 2.4605 5.952 2.257 5.743C2.114 5.6055 1.993 5.49 1.9875 5.49C1.982 5.49 1.949 5.523 1.916 5.5615Z" fill="white"/>
<path d="M0.75 6.3975C0.0184997 7.129 0.00749969 7.1455 0.00749969 7.382C0.00749969 7.8275 0.475 8.141 0.838 7.9485C0.926 7.899 1.3055 7.5525 1.685 7.173L2.3725 6.48L1.96 6.0675C1.7345 5.842 1.5365 5.655 1.52 5.655C1.5035 5.655 1.157 5.9905 0.75 6.3975Z" fill="white"/>
</svg>
