<?xml version="1.0" encoding="UTF-8"?>
<svg id="Capa_1" data-name="Capa 1" xmlns="http://www.w3.org/2000/svg" viewBox="0 0 372.13 372.21">
  <path d="m240.24,235.22v16.95h4.12c21.75,0,43.5-.07,65.25.1,2.57.02,5.49.84,7.63,2.24,16.94,11.07,33.7,22.4,50.59,33.56,3.02,2,4.33,4.44,4.3,8.08-.13,14.75-.04,29.51-.06,44.26,0,5.81-2.04,7.77-7.96,7.79-5.49.02-10.98,0-16.37,0-6.18,16.43-16.12,24.23-30.37,24-13.53-.22-23.71-8.6-28.84-23.84h-96.85c-4.87,15.5-15.16,24.64-31.89,23.61-14.46-.89-23.27-9.73-27.35-23.77-5.66,0-11.39.03-17.13-.01-5.13-.04-7.24-2.17-7.28-7.34-.04-5.37,0-10.73,0-16.66-1.6,0-3.04,0-4.48,0-27.88,0-55.75,0-83.63,0C7.23,324.19,0,316.91,0,304.13,0,209.48,0,114.83,0,20.18,0,7.21,7.2.06,20.24.06,72.87.06,125.49.09,178.12,0c3.28,0,5.63,1.04,7.9,3.32,16.91,17.04,33.88,34.01,50.91,50.93,2.19,2.18,3.31,4.43,3.18,7.58-.21,5.09-.06,10.19-.06,15.25,40.98-11.77,75.14-2.51,99.88,32.79,19.52,27.85,19.44,65.02-.17,92.73-24.77,35.02-58.81,44.3-99.52,32.62Zm-12.19-168.73c-.69-.22-.91-.35-1.14-.35-11.38-.03-22.75,0-34.13-.07-11.01-.06-18.65-7.66-18.73-18.61-.05-7.38-.01-14.76-.01-22.13,0-4.33,0-8.66,0-13.26-1.67,0-2.9,0-4.13,0-49.76,0-99.52,0-149.28,0-6.9,0-8.63,1.73-8.63,8.62,0,94.29,0,188.58,0,282.87,0,6.9,1.74,8.64,8.61,8.64,27.76,0,55.51,0,83.27,0,1.32,0,2.64,0,4.14,0,0-1.26,0-2,0-2.74.08-7.3.71-8.06,7.86-9.99,19.64-5.31,39.27-10.63,58.88-16.05,1.87-.52,3.69-1.53,5.29-2.66,9.4-6.62,18.64-13.47,28.11-19.98,6-4.13,11.07-10.5,19.88-8.5,0-6.87-.16-13.12.07-19.34.11-2.97-.87-4.65-3.42-6.24-29.12-18.21-44.3-54.36-36.9-87.68,5.15-23.2,17.71-41.29,37.69-54.23,1.14-.74,2.36-2.33,2.44-3.59.28-4.85.11-9.72.11-14.71Zm41.99,17.61c-39.84.15-72.14,32.47-71.98,72.03.16,40.19,32.47,72.17,72.76,72.01,39.29-.16,71.33-32.71,71.26-72.4-.07-39.38-32.66-71.79-72.03-71.64Zm90.04,252.03c0-12.07-.08-23.79.06-35.51.03-2.44-.78-3.78-2.78-5.1-14.81-9.76-29.5-19.7-44.32-29.44-1.65-1.08-3.87-1.81-5.82-1.82-26.74-.12-53.49-.11-80.23,0-1.83,0-3.94.7-5.44,1.76-11.97,8.38-23.8,16.98-35.76,25.37-2.1,1.47-4.54,2.66-7,3.36-10.56,3.01-21.19,5.76-31.78,8.65-8.98,2.45-17.95,4.97-26.67,7.38v25.27h12.18c4.63-17.09,17.51-23.36,27.32-23.7,16.79-.58,27,8.23,31.88,23.71h96.81c4.91-14.67,14.42-23.24,27.32-23.72,16.79-.62,27.02,8.19,31.92,23.79h12.31Zm-198.11-11.91c-10,.09-18.04,8.28-17.92,18.25.12,9.78,8.25,17.76,18.06,17.72,9.94-.03,17.99-8.24,17.91-18.26-.08-9.74-8.29-17.8-18.05-17.72Zm156.19,0c-10.01.01-18.12,8.14-18.07,18.1.05,9.79,8.11,17.84,17.91,17.88,9.96.04,18.07-8.09,18.07-18.1,0-9.76-8.14-17.88-17.9-17.87ZM186.11,21.85c0,8.89-.14,17.95.08,27.01.07,2.91,2.23,5.02,5.13,5.08,9.04.21,18.1.08,26.96.08-10.71-10.71-21.35-21.35-32.16-32.17Z"/>
  <path d="m53.84,53.94c.55-9.33,2.01-11.96,6.34-11.83,4.2.13,5.5,2.61,5.98,11.98,3.38,0,6.82-.02,10.26,0,4.77.03,7.5,2.18,7.55,5.91.06,3.73-2.72,6.06-7.39,6.08-7,.03-13.99,0-20.99.02-4.78.02-7.5,2.16-7.57,5.89-.07,3.85,2.75,6.08,7.74,6.11,3.12.02,6.25-.01,9.37,0,10.23.07,18.12,7.03,18.82,16.6.71,9.68-5.91,17.67-16.02,19.33-.49.08-.99.12-1.82.23-.56,4.73,1.55,11.9-6.48,11.63-7.14-.24-5.26-6.79-5.81-11.77-3.53,0-6.99.03-10.44,0-4.67-.04-7.43-2.35-7.36-6.11.07-3.64,2.72-5.85,7.2-5.88,6.62-.04,13.24,0,19.87-.01,6.04,0,8.95-2,8.88-6.1-.07-4.07-2.88-5.91-9.06-5.91-2.75,0-5.5.02-8.25,0-9.98-.1-17.83-7.03-18.62-16.42-.81-9.68,5.77-17.79,15.82-19.48.6-.1,1.2-.16,1.95-.25Z"/>
  <path d="m114.05,222.16c-23.13,0-46.26,0-69.38,0-1.12,0-2.28.11-3.37-.09-3.23-.59-5.2-2.56-5.22-5.88-.02-3.32,1.92-5.32,5.15-5.93,1.09-.21,2.24-.1,3.37-.1,46.26,0,92.51,0,138.77,0,1.12,0,2.28-.11,3.37.09,3.24.58,5.2,2.56,5.22,5.88.02,3.32-1.93,5.32-5.15,5.93-1.21.23-2.49.1-3.74.1-23,0-46.01,0-69.01,0Z"/>
  <path d="m107.69,192.14c-20.88,0-41.75,0-62.63,0-1.12,0-2.26.06-3.37-.05-3.33-.34-5.62-2.78-5.65-5.91-.03-3.13,2.25-5.62,5.55-5.99.99-.11,2-.05,3-.05,42.25,0,84.51,0,126.76,0,1.12,0,2.28-.11,3.37.08,3.24.57,5.2,2.55,5.23,5.86.03,3.32-1.92,5.32-5.14,5.95-1.09.21-2.24.1-3.37.1-21.25,0-42.5,0-63.76,0Z"/>
  <path d="m105.02,150.13c20.13,0,40.25,0,60.38,0,1.12,0,2.28-.11,3.37.09,3.23.6,5.18,2.59,5.18,5.91,0,3.32-1.97,5.3-5.19,5.91-1.09.2-2.24.09-3.37.09-40.25,0-80.51,0-120.76,0-1.12,0-2.28.11-3.37-.1-3.22-.61-5.18-2.59-5.18-5.91,0-3.32,1.95-5.3,5.19-5.9,1.09-.2,2.24-.09,3.37-.09,20.13,0,40.25,0,60.38,0Z"/>
  <path d="m71.64,252.17c-9.38,0-18.75.02-28.13,0-4.73-.01-7.47-2.25-7.47-6,0-3.75,2.73-5.99,7.47-5.99,19-.02,38-.02,57,0,4.73,0,7.48,2.25,7.48,5.99,0,3.73-2.76,5.99-7.48,6-9.63.03-19.25,0-28.88,0Z"/>
  <path d="m241.31,192.11c-5.74.02-8.68-4.84-6.45-8.78.66-1.17,1.69-2.15,2.65-3.11,18.78-18.82,37.58-37.62,56.39-56.41.97-.97,1.93-2.01,3.08-2.71,2.56-1.55,5.09-1.18,7.18.89,2.1,2.08,2.46,4.6.96,7.18-.62,1.06-1.55,1.95-2.43,2.83-18.97,18.99-37.93,37.98-56.95,56.91-1.51,1.5-3.49,2.54-4.42,3.21Z"/>
  <path d="m246.03,114.14c9.95-.01,18.04,8.14,18.01,18.15-.04,9.75-8.2,17.85-17.95,17.82-9.99-.03-18.09-8.2-18.01-18.16.07-9.79,8.16-17.8,17.96-17.82Zm5.99,18.1c.06-3.22-2.54-5.97-5.77-6.1-3.36-.13-6.23,2.67-6.19,6.04.04,3.23,2.72,5.9,5.95,5.92,3.22.02,5.94-2.63,6.01-5.85Z"/>
  <path d="m276.09,180.22c-.04-9.95,8.12-18.11,18.08-18.06,9.79.04,17.8,8.06,17.88,17.9.08,9.77-7.97,17.98-17.7,18.07-10,.09-18.21-7.97-18.26-17.91Zm23.95,0c.04-3.22-2.57-5.96-5.8-6.06-3.36-.11-6.21,2.7-6.15,6.08.06,3.23,2.76,5.88,5.98,5.88,3.23,0,5.93-2.67,5.97-5.89Z"/>
</svg>