<svg width="13" height="13" viewBox="0 0 13 13" fill="none" xmlns="http://www.w3.org/2000/svg">
<path d="M4.8425 2.31401C4.4525 2.37251 4.355 2.41151 4.355 2.50251C4.355 2.57401 4.2705 2.60001 4.0105 2.60001C3.705 2.60001 3.64 2.62601 3.458 2.80801C3.2045 3.07451 2.6715 3.96501 2.47 4.44601C2.392 4.64751 2.2815 4.81001 2.236 4.81001C2.0995 4.81001 2.1255 4.56301 2.275 4.47201C2.5155 4.32251 2.4115 4.27051 1.95 4.30951C1.4105 4.35501 1.1765 4.45251 1.04 4.69951C0.948999 4.86851 0.948999 4.88801 1.066 4.97901C1.1505 5.03751 1.3585 5.07001 1.6705 5.07001C1.9305 5.07001 2.145 5.09601 2.145 5.12201C2.145 5.15451 2.0735 5.24551 1.9825 5.33001C1.8915 5.41451 1.82 5.52501 1.82 5.58351C1.82 5.63551 1.651 5.83701 1.4495 6.03201L1.0725 6.37651L1.0855 8.43701C1.105 10.2895 1.118 10.504 1.2155 10.5755C1.2805 10.6275 1.534 10.66 1.8525 10.66C2.4765 10.66 2.665 10.569 2.665 10.257V10.0555L3.211 10.101C3.5425 10.1205 3.835 10.114 3.939 10.075C4.147 9.99051 8.866 9.97751 8.983 10.0555C9.0285 10.0815 9.36 10.1075 9.7175 10.1075H10.3675L10.387 10.3025C10.4195 10.6015 10.5495 10.66 11.18 10.66C12.025 10.66 11.9665 10.8225 11.947 8.38501L11.9275 6.35701L11.583 6.05151C11.401 5.88901 11.245 5.70051 11.245 5.64201C11.245 5.58351 11.1735 5.44701 11.0825 5.34301C10.9915 5.23251 10.92 5.12851 10.92 5.10901C10.92 5.08951 11.1215 5.07001 11.362 5.07001C11.9145 5.07001 12.0835 4.97251 11.9925 4.69951C11.9015 4.45251 11.6805 4.36151 11.076 4.31601C10.647 4.29001 10.582 4.29651 10.6665 4.36801C10.764 4.45251 10.92 4.69951 10.92 4.77101C10.92 4.79051 10.8745 4.81001 10.816 4.81001C10.7575 4.81001 10.634 4.62151 10.4975 4.32251C10.218 3.71151 9.8735 3.15901 9.568 2.84051C9.3665 2.63251 9.295 2.60001 9.048 2.60001C8.8335 2.60001 8.736 2.56751 8.645 2.45051C8.528 2.30751 8.5085 2.30751 6.7795 2.29451C5.824 2.29451 4.953 2.30101 4.8425 2.31401ZM8.697 2.99001C9.139 3.01601 9.529 3.06801 9.555 3.09401C9.659 3.19801 10.4 4.70601 10.4 4.81001C10.4 4.90751 10.0165 4.91401 6.5195 4.91401C2.6715 4.90751 2.6325 4.90751 2.652 4.77751C2.665 4.70601 2.847 4.29001 3.0615 3.85451L3.4515 3.06151L3.7895 3.02251C5.044 2.87301 6.786 2.86001 8.697 2.99001ZM3.1785 6.76651C3.7765 6.92901 3.952 6.95501 4.0755 6.89651C4.1665 6.85751 4.6345 6.82501 5.187 6.82501C6.37 6.82501 6.435 6.85751 6.435 7.37751C6.435 7.89751 6.318 7.96251 5.408 7.90401C4.6735 7.85201 4.29 7.73501 4.069 7.48151C3.9065 7.30601 3.6205 7.30601 3.3345 7.48151C3.1265 7.61151 3.081 7.61151 2.5805 7.54001C1.586 7.40351 1.365 7.27351 1.365 6.85751C1.365 6.45451 1.625 6.33101 2.145 6.48051C2.3075 6.52601 2.769 6.65601 3.1785 6.76651ZM11.544 6.51301C11.6545 6.59101 11.7 6.89001 11.6285 7.05901C11.544 7.29951 11.3165 7.39701 10.6015 7.51401C9.9255 7.63101 9.9255 7.63101 9.6785 7.48801C9.334 7.28651 9.1 7.30601 8.8725 7.54001C8.6385 7.78701 8.398 7.85201 7.5335 7.90401C6.877 7.94301 6.8315 7.93651 6.695 7.80001C6.5715 7.67651 6.552 7.60501 6.5845 7.32551C6.604 7.11101 6.656 6.96801 6.734 6.90951C6.8835 6.79901 8.6905 6.79251 8.9245 6.89651C9.048 6.95501 9.2495 6.92251 9.9515 6.74051C10.4325 6.61051 10.894 6.48051 10.985 6.44801C11.154 6.37651 11.4205 6.40901 11.544 6.51301ZM2.093 8.24851C2.2295 8.43051 2.301 8.45001 3.1135 8.57351C3.588 8.64501 3.9975 8.72301 4.0235 8.74251C4.043 8.76851 3.9845 8.92451 3.8935 9.08701C3.6595 9.50951 3.302 9.64601 2.548 9.60051C2.2555 9.58101 1.9695 9.53551 1.9175 9.49001C1.794 9.39251 1.716 9.06101 1.664 8.49551C1.6315 8.06651 1.6315 8.06001 1.7875 8.06001C1.8785 8.06001 2.002 8.13801 2.093 8.24851ZM11.427 8.63201C11.4075 8.95051 11.362 9.26901 11.3165 9.34701C11.167 9.62001 10.2375 9.71101 9.6915 9.50301C9.4705 9.41851 9.3665 9.32751 9.2365 9.08701C9.1455 8.92451 9.087 8.76851 9.1065 8.74251C9.1325 8.72301 9.5225 8.64501 9.9775 8.58001C10.868 8.44351 10.894 8.43051 11.0695 8.20951C11.1345 8.12501 11.2515 8.06001 11.323 8.06001C11.453 8.06001 11.4595 8.08601 11.427 8.63201ZM8.567 8.76851C8.749 8.86601 9.035 9.28851 9.035 9.46401C9.035 9.54201 8.983 9.62651 8.9245 9.65251C8.6645 9.75001 6.4935 9.80851 5.3365 9.75001C3.939 9.67851 3.8545 9.64601 4.0625 9.25601C4.29 8.83351 4.459 8.71651 4.8945 8.69051C5.733 8.63201 8.4175 8.69051 8.567 8.76851Z" fill="black"/>
<path d="M4.5825 6.94852C4.212 6.98752 4.1925 6.99402 4.212 7.15002C4.264 7.61152 4.745 7.81952 5.694 7.78702L6.2725 7.76752L6.292 7.44252C6.2985 7.26052 6.2855 7.08502 6.2595 7.04602C6.1945 6.96152 5.122 6.89652 4.5825 6.94852Z" fill="black"/>
<path d="M7.215 6.94852C6.7925 6.98752 6.7925 6.98752 6.734 7.22152C6.7015 7.35152 6.695 7.54002 6.721 7.63752L6.7665 7.81302L7.4945 7.78702C8.398 7.74802 8.6645 7.65052 8.775 7.31252C8.8205 7.18252 8.827 7.05252 8.801 7.02002C8.7165 6.94852 7.7155 6.90302 7.215 6.94852Z" fill="black"/>
<path d="M1.833 8.723C1.859 9.022 1.924 9.295 1.9695 9.347C2.0215 9.399 2.275 9.451 2.5545 9.4705C3.1915 9.516 3.5685 9.3925 3.7635 9.0675L3.8935 8.84L3.7505 8.8075C3.6725 8.7945 3.289 8.7295 2.899 8.671C2.275 8.5735 2.171 8.5345 2.028 8.372C1.937 8.2745 1.846 8.19 1.82 8.19C1.8005 8.19 1.807 8.4305 1.833 8.723Z" fill="black"/>
<path d="M11.1085 8.37202C10.9525 8.54752 10.868 8.57352 10.166 8.67752C9.139 8.82702 9.1975 8.80102 9.3405 9.04152C9.529 9.37302 9.9255 9.51602 10.556 9.47052C10.9395 9.44452 11.0955 9.40552 11.154 9.32752C11.2515 9.19752 11.3295 8.63202 11.297 8.35902L11.2775 8.17702L11.1085 8.37202Z" fill="black"/>
<path d="M5.07 8.814C4.875 8.827 4.654 8.853 4.576 8.8725C4.4265 8.905 4.069 9.3925 4.121 9.4835C4.1405 9.516 4.3745 9.5615 4.641 9.5875C5.265 9.646 7.8065 9.646 8.4305 9.5875C8.9895 9.529 9.0285 9.4575 8.697 9.074L8.4825 8.827L6.955 8.8075C6.1165 8.801 5.265 8.801 5.07 8.814Z" fill="black"/>
</svg>
