<svg width="22" height="22" viewBox="0 0 22 22" fill="none" xmlns="http://www.w3.org/2000/svg">
<path d="M17.05 5.85201C16.5 6.03901 15.587 6.99601 15.422 7.54601C15.246 8.14001 15.257 8.83301 15.444 9.28401C15.576 9.60301 15.697 9.68001 16.588 9.98801C17.732 10.395 17.71 10.384 17.71 10.197C17.71 10.12 17.545 10.01 17.358 9.95501C17.105 9.87801 16.995 9.77901 16.995 9.62501C16.995 9.43801 17.061 9.40501 17.424 9.43801C18.502 9.52601 18.722 9.08601 17.82 8.63501C16.83 8.14001 16.687 7.46901 17.457 6.98501C17.688 6.84201 17.809 6.68801 17.787 6.54501C17.754 6.21501 18.194 6.24801 18.238 6.56701C18.26 6.72101 18.348 6.82001 18.458 6.82001C18.777 6.82001 18.953 6.99601 18.876 7.22701C18.81 7.41401 18.733 7.43601 18.271 7.39201C17.864 7.35901 17.732 7.38101 17.677 7.52401C17.611 7.70001 18.062 8.14001 18.315 8.14001C18.392 8.14001 18.579 8.26101 18.744 8.41501C19.228 8.86601 19.129 9.44901 18.469 9.93301C18.37 10.01 18.26 10.197 18.216 10.351C18.161 10.604 18.205 10.659 18.59 10.813C19.019 10.978 19.041 10.978 19.459 10.692C20.295 10.131 20.68 9.39401 20.68 8.39301C20.669 7.37001 20.108 6.43501 19.217 5.97301C18.777 5.75301 17.567 5.68701 17.05 5.85201Z" fill="black"/>
<path d="M10.175 9.46C8.866 9.669 7.502 10.164 6.765 10.725C6.49 10.923 6.237 10.978 5.203 11.033C3.762 11.121 2.442 11.374 1.815 11.682C1.573 11.803 1.364 11.924 1.342 11.935C1.32 11.957 1.408 12.155 1.529 12.386C1.804 12.892 1.826 13.233 1.595 13.42C1.331 13.64 1.595 13.75 2.398 13.75C3.058 13.75 3.08 13.739 3.08 13.475C3.08 12.716 3.707 12.012 4.499 11.913C5.346 11.792 6.259 12.617 6.27 13.497V13.75H10.67H15.07V13.42C15.07 12.991 15.312 12.518 15.686 12.221C16.599 11.506 17.996 12.089 18.117 13.244L18.183 13.75H18.755C19.294 13.75 19.338 13.728 19.47 13.42C19.624 13.046 19.558 12.144 19.36 11.759C19.096 11.264 16.027 10.043 14.047 9.636C12.969 9.416 11.055 9.328 10.175 9.46ZM14.19 10.076C14.872 10.274 16.06 10.868 16.06 11.022C16.06 11.066 15.114 11.099 13.948 11.088L11.825 11.055L11.792 10.516C11.77 10.219 11.781 9.922 11.803 9.856C11.869 9.691 13.299 9.823 14.19 10.076ZM11.418 10.417L11.385 11.055L9.328 11.088C7.986 11.099 7.26 11.077 7.26 11C7.26 10.824 8.536 10.23 9.394 10.01C9.823 9.9 10.461 9.801 10.813 9.801L11.451 9.79L11.418 10.417Z" fill="black"/>
<path d="M4.323 12.342C3.817 12.474 3.52 12.903 3.52 13.497C3.52 13.904 3.575 14.047 3.861 14.311C4.521 14.927 5.588 14.641 5.819 13.805C6.061 12.881 5.258 12.089 4.323 12.342ZM5.038 13.112C5.225 13.299 5.203 13.695 5.005 13.86C4.587 14.201 3.949 13.563 4.29 13.145C4.455 12.947 4.851 12.925 5.038 13.112Z" fill="black"/>
<path d="M16.357 12.331C15.939 12.441 15.719 12.639 15.543 13.068C15.059 14.223 16.588 15.18 17.479 14.289C18.337 13.442 17.512 12.012 16.357 12.331ZM17.05 13.145C17.391 13.563 16.753 14.201 16.335 13.86C16.137 13.695 16.115 13.299 16.302 13.112C16.489 12.925 16.885 12.947 17.05 13.145Z" fill="black"/>
</svg>
