<svg width="10" height="10" viewBox="0 0 10 10" fill="none" xmlns="http://www.w3.org/2000/svg">
<path d="M3.03754 1.145C2.57604 1.4245 2.12104 1.5805 1.56854 1.6585C0.879544 1.7495 0.795044 1.86 0.795044 2.6725C0.795044 4.0505 1.18504 5.1035 2.01704 5.968L2.30954 6.2735L2.47854 6.1435L2.64754 6.02L2.25754 5.6105C1.58804 4.9085 1.26954 4.0895 1.20454 2.9065C1.15904 2.146 1.20454 2.055 1.60754 2.055C2.02354 2.055 2.79054 1.795 3.33004 1.47L3.55754 1.3335L3.94104 1.561C4.40254 1.8405 4.77954 1.9705 5.37104 2.0485C5.61804 2.0875 5.83904 2.146 5.87154 2.1915C5.93004 2.2955 5.87804 2.9585 5.75454 3.55C5.65704 4.0505 5.29304 4.915 5.10454 5.123C5.00704 5.2335 5.01354 5.24 5.27354 5.24H5.54654L5.76754 4.7655C6.04704 4.1805 6.22904 3.485 6.28754 2.7635C6.35904 1.899 6.21604 1.7235 5.39054 1.639C4.95504 1.5935 4.46104 1.418 4.09054 1.171C3.70704 0.917499 3.42754 0.910998 3.03754 1.145Z" fill="black" fill-opacity="0.35"/>
<path d="M3.06354 2.33451C2.68654 2.47751 2.45904 2.67251 2.26404 3.03001C2.10154 3.32251 2.08204 3.42001 2.10804 3.80351C2.13404 4.33001 2.33554 4.68101 2.75154 4.96051C3.08954 5.18801 3.66154 5.24001 4.06454 5.08401C4.74704 4.82401 5.18904 3.94651 4.95504 3.32901C4.84454 3.03001 4.77954 3.14701 4.78604 3.64101C4.79254 4.07651 4.77304 4.14801 4.59754 4.40801C4.07104 5.16851 2.99854 5.16851 2.47854 4.40801C2.34854 4.21301 2.32254 4.09601 2.32254 3.70601C2.32254 3.28351 2.34204 3.21201 2.52404 2.98451C2.92704 2.47751 3.55754 2.32151 4.11004 2.59451C4.37004 2.73101 4.43504 2.73101 4.43504 2.61401C4.43504 2.36701 3.49904 2.17201 3.06354 2.33451Z" fill="black" fill-opacity="0.35"/>
<path d="M4.21399 3.16001L3.71349 3.74501L3.45999 3.54351C3.32349 3.43301 3.18049 3.36151 3.14149 3.38101C3.03749 3.44601 3.58349 4.20001 3.73299 4.20001C3.80449 4.20001 4.02549 3.93351 4.36999 3.42001C4.65599 2.99101 4.88999 2.62701 4.88999 2.60751C4.88999 2.46451 4.64299 2.66601 4.21399 3.16001Z" fill="black" fill-opacity="0.35"/>
<path d="M4.56502 5.75352C3.94102 5.89002 3.14802 6.23452 2.67352 6.56602C2.50452 6.69602 2.17952 6.83902 1.95852 6.89752C1.22402 7.08602 0.548022 7.50852 0.340022 7.91152C0.281522 8.01552 0.294522 8.03502 0.405022 8.03502C0.606522 8.03502 0.554522 8.32102 0.359522 8.34702C0.229522 8.36652 0.210022 8.40552 0.210022 8.64602C0.210022 8.83452 0.255522 8.98402 0.346522 9.10102C0.463522 9.25052 0.528522 9.27002 0.860022 9.27002C1.16552 9.27002 1.23702 9.25052 1.21102 9.17902C1.15252 9.01652 1.31502 8.56152 1.51652 8.33402C1.76352 8.05452 2.20552 7.87252 2.52402 7.92452C3.05052 8.00902 3.52502 8.54852 3.52502 9.06202V9.27002H4.88352H6.23552L6.28102 8.95802C6.37852 8.19102 7.15852 7.71002 7.83452 7.99602C8.24402 8.16502 8.68602 8.88002 8.56902 9.17902C8.54302 9.25052 8.61452 9.27002 8.92002 9.27002C9.27102 9.27002 9.31652 9.25052 9.42052 9.09452C9.58302 8.85402 9.58302 8.01552 9.42702 7.74252C9.36202 7.63202 9.28402 7.43052 9.25152 7.28752C9.10852 6.73502 8.41952 5.87702 8.01652 5.75352C7.88652 5.71452 7.18452 5.66902 6.45002 5.65602C5.31902 5.63652 5.03302 5.64952 4.56502 5.75352ZM6.09902 6.48802C6.07302 6.78702 6.02102 7.06002 5.97552 7.10552C5.88452 7.19002 2.94002 7.33302 2.85552 7.25502C2.76452 7.17702 3.42102 6.63102 3.86302 6.42302C4.40902 6.16302 5.19552 5.96802 5.72852 5.96152L6.14452 5.95502L6.09902 6.48802ZM7.13902 6.09152C7.41852 6.16302 7.77602 6.29302 7.91902 6.37752C8.23102 6.55952 8.62752 6.98852 8.54952 7.06002C8.52352 7.09252 8.02952 7.12502 7.45752 7.13802L6.41752 7.15752V6.67002C6.41752 6.18252 6.46302 5.95502 6.56702 5.95502C6.59302 5.95502 6.85302 6.01352 7.13902 6.09152ZM6.06002 7.51502C6.13802 7.56052 6.13802 7.59952 6.08602 7.69052C6.03402 7.77502 5.91052 7.81402 5.63102 7.82702C5.14352 7.85302 4.95502 7.80102 4.95502 7.65152C4.95502 7.58652 4.97452 7.51502 5.00052 7.49552C5.06552 7.42402 5.94952 7.44352 6.06002 7.51502Z" fill="black" fill-opacity="0.35"/>
<path d="M1.98451 8.39901C1.77001 8.50301 1.57501 8.82801 1.57501 9.07501C1.57501 9.46501 1.93251 9.79001 2.36151 9.79001C2.57601 9.79001 2.66701 9.75101 2.84901 9.56901C3.03101 9.38701 3.07001 9.30251 3.07001 9.06201C3.07001 8.73701 2.95301 8.52901 2.68001 8.39251C2.43951 8.26901 2.24451 8.26901 1.98451 8.39901ZM2.56301 8.79551C2.69301 8.91251 2.71901 9.20501 2.60201 9.32201C2.41351 9.51051 1.96501 9.32851 1.96501 9.06201C1.96501 8.91251 2.18601 8.68501 2.33551 8.68501C2.39401 8.68501 2.49801 8.73051 2.56301 8.79551Z" fill="black" fill-opacity="0.35"/>
<path d="M7.16502 8.34051C6.98302 8.41201 6.78152 8.63951 6.71002 8.85401C6.50202 9.47801 7.19752 10.011 7.80202 9.69901C8.19852 9.49751 8.27652 8.90601 7.96452 8.55501C7.78252 8.35351 7.39252 8.24951 7.16502 8.34051ZM7.59402 8.73701C7.63302 8.76301 7.69802 8.84751 7.74352 8.93201C7.93202 9.28951 7.37302 9.58851 7.13902 9.25701C7.00252 9.06201 7.00902 8.97101 7.16502 8.81501C7.30152 8.67851 7.47052 8.65251 7.59402 8.73701Z" fill="black" fill-opacity="0.35"/>
</svg>
