<svg width="14" height="6" viewBox="0 0 14 6" fill="none" xmlns="http://www.w3.org/2000/svg">
<path d="M10.08 0.968012C10.832 1.15201 11.56 1.40001 12.056 1.64801C12.392 1.82401 12.632 1.88001 12.96 1.88001C13.528 1.88001 13.72 2.04801 13.72 2.56001C13.72 2.75201 13.776 3.04001 13.856 3.19201C13.976 3.45601 13.976 3.49601 13.848 3.82401C13.664 4.32001 13.512 4.42401 12.888 4.51201C12.432 4.57601 12.288 4.64001 12.072 4.84801C11.856 5.06401 11.728 5.11201 11.36 5.14401C10.984 5.17601 10.872 5.15201 10.6 4.96801L10.28 4.76001H7.04801H3.80801L3.51201 4.96001C3.12001 5.22401 2.56801 5.23201 2.18401 4.97601C1.99201 4.84001 1.69601 4.76001 1.16001 4.68801C0.744013 4.63201 0.360013 4.55201 0.312013 4.51201C0.248013 4.46401 0.232013 4.30401 0.264012 4.10401C0.288013 3.87201 0.264012 3.69601 0.152013 3.49601L0.00801277 3.22401L0.240013 3.02401C0.608013 2.72001 1.52801 2.31201 2.20001 2.16801C2.52801 2.08801 3.29601 2.00001 3.90401 1.95201L5.01601 1.88001L5.95201 1.38401L6.88001 0.880012L8.24001 0.864012C9.21601 0.848012 9.73601 0.880012 10.08 0.968012ZM6.42401 1.60001C6.08001 1.77601 5.80001 1.94401 5.80001 1.97601C5.80001 2.01601 6.55201 2.04001 7.48001 2.04001C9.34401 2.04001 9.28001 2.06401 9.02401 1.51201L8.88001 1.22401L7.96001 1.25601C7.07201 1.28801 7.01601 1.29601 6.42401 1.60001ZM9.51201 1.60001C9.56801 1.75201 9.63201 1.89601 9.65601 1.92001C9.72001 1.98401 10.84 1.72001 10.84 1.64801C10.84 1.58401 9.89601 1.34401 9.59201 1.32801C9.43201 1.32001 9.42401 1.33601 9.51201 1.60001ZM10.888 3.24801C10.624 3.36801 10.416 3.81601 10.48 4.12001C10.544 4.40801 10.944 4.76001 11.208 4.76001C11.472 4.76001 11.856 4.56001 11.96 4.36801C12.12 4.05601 12.056 3.64001 11.808 3.39201C11.552 3.14401 11.24 3.08801 10.888 3.24801ZM2.27201 3.39201C1.78401 3.88801 2.14401 4.76001 2.84001 4.76001C3.24001 4.76001 3.64001 4.35201 3.64001 3.95201C3.64001 3.73601 3.43201 3.34401 3.26401 3.24801C3.18401 3.20001 2.98401 3.16001 2.81601 3.16001C2.58401 3.16001 2.45601 3.21601 2.27201 3.39201Z" fill="black" fill-opacity="0.35"/>
</svg>
