<svg xmlns="http://www.w3.org/2000/svg" viewBox="0 0 113.86 85.43"><defs><style>.cls-1{fill:#d6d5d6;}.cls-2{fill:#d4d5dd;}.cls-3{fill:#fff;}.cls-4{fill:#b7b8bc;}.cls-5{fill:#e4e5e6;}.cls-6{fill:#f4f5f7;}.cls-7{fill:#c8cacc;}.cls-8{fill:#fcfcfc;}.cls-9{fill:#c2c2c4;}.cls-10{fill:#fefdfd;}.cls-11{fill:#fafafa;}.cls-12{fill:#dcddde;}.cls-13{fill:#ebeced;}.cls-14{fill:#cfcfd2;}.cls-15{fill:#fdfdfd;}.cls-16{fill:#e9e9ea;}</style></defs><title>Recurso 11</title><g id="Capa_2" data-name="Capa 2"><g id="Capa_1-2" data-name="Capa 1"><path class="cls-1" d="M106.09,0c3.87.22,7.76,4.2,7.76,8q0,34.67,0,69.34c0,4-4.06,8-8,8q-48.81,0-97.62,0A8.42,8.42,0,0,1,0,77.36Q0,42.76,0,8.15A8.58,8.58,0,0,1,8,0V.8C8,.85,7.91,1,7.83,1,3.12,1.57.75,5.62.76,10c.09,22,.06,44,0,66a8.31,8.31,0,0,0,8.6,8.66q47.54,0,95.08,0c5.1,0,8.58-3.45,8.58-8.51,0-22.27,0-44.53,0-66.8A8.66,8.66,0,0,0,105.82.8Z"/><path class="cls-2" d="M106.09,0l-.27.77H8V0L9,0H105C105.38,0,105.73,0,106.09,0Z"/><path class="cls-3" d="M8,.8h97.79a8.66,8.66,0,0,1,7.28,8.52c-.09,22.27,0,44.53,0,66.8,0,5.06-3.48,8.51-8.58,8.51q-47.53,0-95.08,0A8.31,8.31,0,0,1,.79,76c0-22,.06-44,0-66,0-4.36,2.36-8.41,7.07-9C7.91,1,8,.85,8,.8ZM89,31.88v-.41c-.06-.41-.37-.41-.68-.4-1.3-.95-2.83-.67-4.26-.74-.68,0-1.57,0-1.76,1a3.05,3.05,0,0,1-1.83-3.19c.07-1.48.07-1.48-1.39-1.1A22.11,22.11,0,0,0,76,22.26a4.21,4.21,0,0,0-2.64-1.87,42.17,42.17,0,0,0-6.89-.72,182.52,182.52,0,0,0-25.61.77,4.56,4.56,0,0,0-3.61,2.2,85.22,85.22,0,0,0-4.73,9.82l-.87-.05v-.54c.28,0,.53-.11.48-.47s-.29-.29-.5-.31c-.25-.39-.67-.28-1-.36-.28-.63-.66-.58-1.1-.17-1,.08-1.94.17-2.91.24a2.15,2.15,0,0,0-1.67,3.49c.41,1.76,1,2.15,2.74,1.79.46-.09.92-.4,1.34.09-1.82,1.72-3.23,3.62-2.79,6.33-.49.32-.61.69-.14,1.14l0,2.17a1.56,1.56,0,0,0,0,1.85l.21,1.62a.52.52,0,0,0,0,.8c-.05,1.28.45,2.56.17,3.83a8.21,8.21,0,0,0,.07,3.42,12.92,12.92,0,0,0,.4,3.45c0,1.32-.08,2.64,0,4a1.36,1.36,0,0,0,1.22,1.36,18.75,18.75,0,0,0,4.85,0,1,1,0,0,0,.93-1c1.07-.7-.23-1.65.26-2.41,2,1.52,4.07,1,4.44-1.1a3.17,3.17,0,0,1,1.69-.27H52.5c.75,0,1.36-.07,1.38-1a46.65,46.65,0,0,1,6.14.17,1.46,1.46,0,0,0,1.68,1.12c3.68,0,7.36,0,11,0,1.09,0,2.38-.37,2.68,1.29,0,0,.07,0,.11.08,1,1.07,2.15,0,3.21.23.26,0,.48,0,.55-.36.83.18.33.76.32,1.17,0,.9-.15,1.82,1.08,2.09a17.83,17.83,0,0,0,4.78.27,1.32,1.32,0,0,0,1.32-.93c.48-1.64.11-3.34.35-5,0,0-.22-.11-.33-.17.3-1.27,1.22-2.41,1-3.8a36.56,36.56,0,0,1,0-8.87c.25-3.53.2-7-2-10.07l-.26-1.63c2.44.6,3,.36,3.71-1.64,0-.81.29-1.64-.23-2.39Z"/><path class="cls-4" d="M32.47,32.46a85.22,85.22,0,0,1,4.73-9.82,4.56,4.56,0,0,1,3.61-2.2,182.52,182.52,0,0,1,25.61-.77,42.17,42.17,0,0,1,6.89.72A4.21,4.21,0,0,1,76,22.26,22.11,22.11,0,0,1,79,27.05c.72,2,1.45,4.07,2.18,6.11.26.7.44,1.59,1.18,1.83,1.44.47,2.24,1.67,3.33,2.53,2.23,3,2.28,6.54,2,10.07a36.56,36.56,0,0,0,0,8.87c.23,1.39-.69,2.53-1,3.8l-.36.07-1.81.16a.51.51,0,0,0-.59-.17c-1.5-.15-3,.41-4.48.18a24.66,24.66,0,0,0-5.36-.5h-.27a5.52,5.52,0,0,0-2.58-.51c-5-.09-10-.05-14.94-.22-6.13-.21-12.25.32-18.38.5l0-.37c3-.75,6.15-.58,9.2-.75,3.51-.18,7.08-.09,10.62,0a1,1,0,0,0,1.31,0c.58.06,1.15.16,1.72.17,5.15,0,10.3-.09,15.44.36a3.48,3.48,0,0,0,1.43.25q3.81.31,7.65.29A1,1,0,0,0,86.5,59c.15-.55.24-1.12.35-1.68a.76.76,0,0,0,0-1.09c-.55-1.47-.2-3-.16-4.45.06-2.53.63-5.09-.3-7.59.77.06.68-.49.69-1a9.14,9.14,0,0,0-1.35-4.35c-.3-.48-.3-1.2-1-1.36a2.21,2.21,0,0,0-1.37-1.11c-1-.65-2.26-1-2.62-2.41a23.4,23.4,0,0,0-2.2-6.36A4.64,4.64,0,0,0,77,25.37c0-.15-.06-.31-.1-.46a14.5,14.5,0,0,0-2.36-3,1.76,1.76,0,0,0-1.66-.69,46.81,46.81,0,0,0-7.92-.77c-6.1-.14-12.21-.19-18.3.26a27.53,27.53,0,0,0-5.92.77A2.69,2.69,0,0,0,38,22.75a39.43,39.43,0,0,0-4.52,9.13A5.27,5.27,0,0,0,33,33.26c-.12,2.06-1.53,2.87-3.22,3.35a1.91,1.91,0,0,0-1.33,1.18l-.09.37a5.84,5.84,0,0,0-1.34,6.08l0,.49A1.45,1.45,0,0,0,26.54,46c.05,1.09,0,2.19.05,3.28h-.36L26,47.66a1.76,1.76,0,0,0,0-1.85l0-2.17c.33-.34.19-.75.14-1.14-.44-2.71,1-4.61,2.79-6.33a3.78,3.78,0,0,0,1.58-.78c.52-.16,1.16-.14,1.35-.84.39-.38.22-.87.27-1.32l.1-.28Z"/><path class="cls-5" d="M73.94,60h.27c-.08.91.56.83,1.12.79s1,.07.74.82c-.87.17-.37.89-.54,1.35,0,0-.11-.05-.11-.08-.3-1.66-1.59-1.29-2.68-1.29-3.68,0-7.36,0-11,0A1.47,1.47,0,0,1,60,60.5c.41-.39.93-.17,1.39-.24.77-.11,1.59.26,2.32-.24,3,.46,6.12,0,9.16.39A1.07,1.07,0,0,0,73.94,60Z"/><path class="cls-6" d="M85.72,37.52c-1.09-.86-1.89-2.06-3.33-2.53-.74-.24-.92-1.13-1.18-1.83-.73-2-1.46-4.07-2.18-6.11,1.46-.38,1.46-.38,1.39,1.1a3.05,3.05,0,0,0,1.83,3.19A4,4,0,0,1,82,33.1c-.29.53.27.29.49.35l.28.54c1.35.66,2.7-.24,4,0l1.87,0c-.71,2.42-2.82.74-4.21,1.29a1.14,1.14,0,0,0,1,.6Z"/><path class="cls-5" d="M53.88,60.32c0,.94-.63,1-1.38,1H40.24a3.17,3.17,0,0,0-1.69.27c-.29-.19-.23-.49-.26-.77a11.9,11.9,0,0,0,1.47,0A83.22,83.22,0,0,1,50.91,60C51.85,60.58,52.91,60.07,53.88,60.32Z"/><path class="cls-7" d="M75.53,63c.17-.46-.33-1.18.54-1.35.09.57.53.51.93.51.84,0,1.69,0,2.54,0,1.26.09,2.55-.3,3.78.27-.76,0-1.52,0-2.26.11-.49.07-1.08.33-.87.94s-.21,1.69.87,1.88a13,13,0,0,0,4,.25c.57-.07,1.23-.25,1.2-1-.07-1.43.44-2.82.21-4.25l.36-.07c.11.06.34.13.33.17-.24,1.66.13,3.36-.35,5a1.32,1.32,0,0,1-1.32.93,17.83,17.83,0,0,1-4.78-.27c-1.23-.27-1.1-1.19-1.08-2.09,0-.41.51-1-.32-1.17a3.07,3.07,0,0,0-3-.13c.94.48,1.77-.07,2.42.49C77.68,63,76.52,64,75.53,63Z"/><path class="cls-8" d="M82.78,34l-.28-.54a1.61,1.61,0,0,0,.29-1c-.06-1,.4-1.5,1.44-1.38l1.58.16a3.59,3.59,0,0,0,2.46-.16c.31,0,.62,0,.68.4-.12.14-.29.27,0,.41v0c.13,1-.11,1.55-1.24,1.42a3,3,0,0,0-.9.2A9.78,9.78,0,0,0,82.78,34Z"/><path class="cls-9" d="M38.06,59.4l0,.37a85.17,85.17,0,0,1-8.58,1.06l-2.15,0H26.9a12.92,12.92,0,0,1-.4-3.45c.35-.21.28-.59.36-.91l1.53.64c0,.16,0,.33,0,.49-.41.11-.95-.66-1.24.11A1.89,1.89,0,0,0,28.76,60a26.39,26.39,0,0,0,5.53-.54c1.28.35,2.46-.73,3.75-.28C38.05,59.26,38.05,59.33,38.06,59.4Z"/><path class="cls-1" d="M38.29,60.82c0,.28,0,.58.26.77-.37,2.12-2.41,2.62-4.44,1.1-.49.76.81,1.71-.27,2.41l-.37,0,0-.92c0-1.75,0-1.72-1.69-1.78-.53,0-1.29.42-1.55-.5,1.6,0,3.19,0,4.78,0C36.23,61.85,37.54,62.2,38.29,60.82Zm-1.07,1.63c-.65.13-1.38-.36-2.12.36A2.22,2.22,0,0,0,37.22,62.45Z"/><path class="cls-7" d="M33.47,65.07l.37,0a1,1,0,0,1-.92,1,18.75,18.75,0,0,1-4.85,0,1.36,1.36,0,0,1-1.22-1.36c0-1.33,0-2.65,0-4h.41A26.16,26.16,0,0,1,27.55,64,1.35,1.35,0,0,0,29,65.56,13.93,13.93,0,0,0,33.47,65.07Z"/><path class="cls-9" d="M31.61,31.87v.54h-.27c0-.41.16-1-.49-1a16.38,16.38,0,0,0-4.74.21,1.2,1.2,0,0,0-.92,1.29c0,.81.66.51,1.07.61l0,.49c-.29,0-.63,0-.8.3l-.54,0a2.15,2.15,0,0,1,1.67-3.49c1-.07,1.94-.16,2.91-.24.32.34.72.23,1.1.17s.77,0,1,.36C31.6,31.35,31.6,31.61,31.61,31.87Z"/><path class="cls-1" d="M88.27,31.07a3.59,3.59,0,0,1-2.46.16l-1.58-.16c-1-.12-1.5.36-1.44,1.38a1.61,1.61,0,0,1-.29,1c-.22-.06-.78.18-.49-.35a4,4,0,0,0,.24-1.76c.19-1,1.08-1.05,1.76-1C85.44,30.4,87,30.12,88.27,31.07Z"/><path class="cls-1" d="M24.89,34.29l.54,0c.71,1.38,1.93,1.18,3.12,1,.68-.11,1.36-.39,2,.14a3.78,3.78,0,0,1-1.58.78c-.42-.49-.88-.18-1.34-.09C25.87,36.44,25.3,36.05,24.89,34.29Z"/><path class="cls-1" d="M85.46,35.89a1.14,1.14,0,0,1-1-.6c1.39-.55,3.5,1.13,4.21-1.29l.47.25C88.44,36.25,87.9,36.49,85.46,35.89Z"/><path class="cls-7" d="M53.88,60.32c-1-.25-2,.26-3-.32l12.82,0c-.73.5-1.55.13-2.32.24-.46.07-1-.15-1.39.24A45,45,0,0,0,53.88,60.32Z"/><path class="cls-4" d="M26.86,56.42c-.08.32,0,.7-.36.91a8.21,8.21,0,0,1-.07-3.42c.28-1.27-.22-2.55-.17-3.83h.56C27.32,52.19,26.84,54.3,26.86,56.42Z"/><path class="cls-5" d="M31.33,32.41h.27l.87.05c-.06.16-.13.33-.2.49s-.36.08-.1.28c-.05.45.12.94-.27,1.32-1-.54-2.22.06-3.24-.52l0-.51C29.65,33.42,31.21,34.67,31.33,32.41Z"/><path class="cls-4" d="M89.17,34.25,88.7,34l-1.87,0,0-.49a3,3,0,0,1,.9-.2c1.13.13,1.37-.47,1.24-1.42C89.46,32.61,89.16,33.44,89.17,34.25Z"/><path class="cls-5" d="M78.74,63.19c-.65-.56-1.48,0-2.42-.49a3.07,3.07,0,0,1,3,.13C79.22,63.14,79,63.2,78.74,63.19Z"/><path class="cls-7" d="M26,45.81a1.76,1.76,0,0,1,0,1.85A1.56,1.56,0,0,1,26,45.81Z"/><path class="cls-9" d="M26.82,50.07h-.56a.52.52,0,0,1,0-.8h.36C26.88,49.47,26.81,49.79,26.82,50.07Z"/><path class="cls-5" d="M30.57,30.73c-.38.06-.78.17-1.1-.17C29.91,30.15,30.29,30.1,30.57,30.73Z"/><path class="cls-7" d="M26.18,42.5c.05.39.19.8-.14,1.14C25.57,43.19,25.69,42.82,26.18,42.5Z"/><path class="cls-5" d="M31.61,31.87c0-.26,0-.52,0-.78.21,0,.45,0,.5.31S31.89,31.83,31.61,31.87Z"/><path class="cls-4" d="M89,31.88c-.29-.14-.12-.27,0-.41Z"/><path class="cls-10" d="M28.48,37.79a1.91,1.91,0,0,1,1.33-1.18c1.69-.48,3.1-1.29,3.22-3.35a5.27,5.27,0,0,1,.48-1.38l.31,0a2.1,2.1,0,0,0,.89,2.84c1.53.89,3.61.89,4.61-.13-1,0-1.9,0-2.77,0a2.15,2.15,0,0,1-2-2.69h.26c0,.44.08.81.63.8a14.15,14.15,0,0,0,2.6.26c2.85.08,5.7.24,8.55.23,10.09,0,20.17.49,30.26.25l2.28.16c-1.54,1.67-3.5.53-5.08,1.27A4.94,4.94,0,0,0,79.84,34l.87,0c.36,1.36,1.61,1.76,2.62,2.41-.1.6.25,1.4-.68,1.63a12.84,12.84,0,0,1-2.48.81c-.52,0-.83.25-.88.78L76.91,40c-1.32,0-2.61.35-3.91.4a3.85,3.85,0,0,0-2.81,1.14.9.9,0,0,0-1.34,0H43.41a1.57,1.57,0,0,0-1.28-.84c-1.36-.15-2.72-.35-4.08-.53-2.06-.6-4.11-1.22-6.17-1.79C30.77,38,29.71,37.36,28.48,37.79ZM41,37.23c.19.63.37,1.26.58,1.89.09.25.27.51.58.37s.2-.4.12-.6c-.23-.56-.5-1.11-.76-1.66a1.76,1.76,0,0,0-1.26-1.57A2.48,2.48,0,0,0,41,37.23Zm31.55-.85a8.81,8.81,0,0,0-1.3,2.48c-.09.24-.32.52,0,.7s.51-.07.6-.34A6.41,6.41,0,0,0,72.55,36.38Z"/><path class="cls-10" d="M26.82,50.07c0-.28.06-.6-.23-.8,0-1.09,0-2.19-.05-3.28a1.45,1.45,0,0,1,.53-1.26c.78-1.13,1.77-.94,3-.71a63.21,63.21,0,0,0,10.43,1.52l.52.26h.8A10.13,10.13,0,0,0,48.84,49q8.49.06,17,0c.84,0,1.82,0,2.23-1.05h.25c1.67-.16,2.55-1.54,3.77-2.41A14.87,14.87,0,0,0,76.62,45l9.07-1.37c.29.12.32.55.68.57.94,2.5.37,5.06.31,7.59,0,1.49-.39,3,.16,4.45a1.81,1.81,0,0,1-1.59.79c-1.44.16-2.89.21-4.34.3H79l-.27-.54c1.46-.26,2.91-.58,4.37-.77.73-.1,1-.4,1-1.09.49-1,.18-2,.27-3,.07-.74-.25-1-1-1a25.24,25.24,0,0,0-5.43.4c-1.17.19-2.4-.19-3.5.41-.65.11-1.39-.22-2,.31.48.44,1.14,0,1.5.5v.81H71.77L71,53l-.3-.24A1.47,1.47,0,0,0,69.17,52c-4.15,0-8.29-.46-12.44-.22-3.21.19-6.41.16-9.62.24-1.11,0-2.22.16-3.33.24-.67,0-.94.42-.91,1.06l-.29.26h0l-.27.28c-.95.29-.79,1.2-1.07,1.88-.58.49-.31,1.36-.83,1.88-1.06-.12-2.17.26-3.2-.26,0-.18,0-.37,0-.55.26-.08.84.16.57-.48-.12-.27-.26-.43.06-.62,1.09-.67,1.3-1.88,1.78-2.92.21-.74,1.09-.34,1.66-.93l-2.21-.39H37c-.36-.12-.71-.45-1.07,0a9.77,9.77,0,0,0-2.15-.24c-1.23-.56-2.53-.18-3.8-.25-.39,0-.45.36-.57.64-1,2.33.32,4.4,2.77,4.44a6.12,6.12,0,0,0,3.21.52v.8c-2.33.19-4.64-.37-7-.26l-1.53-.64C26.84,54.3,27.32,52.19,26.82,50.07Z"/><path class="cls-11" d="M40.72,21.44a27.53,27.53,0,0,1,5.92-.77c6.09-.45,12.2-.4,18.3-.26a46.81,46.81,0,0,1,7.92.77c0,.57.13,1,.82,1.05-.14.76-.74.6-1.15.45a12.82,12.82,0,0,0-4.48-.45c-2.41.11-4.77-.49-7.17-.55-5.48-.15-10.94.23-16.41.56q-.42-.54-.81,0l-1.33.22c-.29-.38-.62-.18-.95-.08s-.78.23-1-.07S40.8,21.82,40.72,21.44Z"/><path class="cls-6" d="M63.73,60,50.91,60a83.22,83.22,0,0,0-11.15.77,11.9,11.9,0,0,1-1.47,0c-.75,1.38-2.06,1-3.25,1-1.59,0-3.18,0-4.78,0h0c-.05-.32-.1-.67-.53-.27-.31-.18-.27-.48-.28-.77A85.17,85.17,0,0,0,38,59.77c6.13-.18,12.25-.71,18.38-.5,5,.17,10,.13,14.94.22a5.52,5.52,0,0,1,2.58.51,1.07,1.07,0,0,1-1,.41C69.85,60.05,66.77,60.48,63.73,60Z"/><path class="cls-12" d="M40.47,45.54A63.21,63.21,0,0,1,30,44c-1.2-.23-2.19-.42-3,.71,0-.16,0-.33,0-.49,1.21-1.86.93-4.05,1.34-6.08l.09-.37c1.23-.43,2.29.25,3.4.56,2.06.57,4.11,1.19,6.17,1.79,0,.11,0,.21,0,.32-.37,0-.79-.14-1.07.25-1-.76-2.32-.66-3.46-1-.49-.53-1.23-.46-1.8-.8a1.43,1.43,0,0,0-1.92.37,2.16,2.16,0,0,0-.38,2.37,1.25,1.25,0,0,0,1.47.67c.65-.13.08-.66.19-1s0-.63.28-.84h.27c0,2.15,0,2.15,1.93,2.41A12.75,12.75,0,0,0,37,43.1c.62.8,1.63.45,2.39.84a.52.52,0,0,1-.51.25,58.26,58.26,0,0,1-7.34-1.1c-1.13-.23-2.54-.05-3-1.72-.35,1.22.1,1.78,1.12,2,2.22.38,4.46.68,6.66,1.17C37.69,44.8,39.23,44.63,40.47,45.54ZM28.75,40.13a3.4,3.4,0,0,0-.06.39.68.68,0,0,0,.09.22,3.54,3.54,0,0,0,.11-.44S28.82,40.21,28.75,40.13Z"/><path class="cls-10" d="M86.45,60.33c.23,1.43-.28,2.82-.21,4.25,0,.75-.63.93-1.2,1a13,13,0,0,1-4-.25c-1.08-.19-.65-1.23-.87-1.88s.38-.87.87-.94c.74-.1,1.5-.08,2.26-.11,1.07,0,1-1,1.31-1.65a2.17,2.17,0,0,0,0-.26Z"/><path class="cls-11" d="M76.35,59.22c-5.14-.45-10.29-.31-15.44-.36-.57,0-1.14-.11-1.72-.17V58.4l0-.51,5.61,0c.36.75.72.76,1.08,0h.79a13.12,13.12,0,0,0,2.65,0c1.06-.12,2.58.28,3-1.39h.28a1.29,1.29,0,0,0,1.46.82,21.46,21.46,0,0,1,2.27,0v1.91Z"/><path class="cls-11" d="M40.43,57.59c.52-.52.25-1.39.83-1.88h.8l-.27.81c-.65.9.28.83.64,1,1.8.63,3.68.33,5.53.39l9.62,0a.55.55,0,0,0,.29.5v.3c-3.54-.13-7.11-.22-10.62,0-3,.17-6.18,0-9.2.75,0-.07,0-.14,0-.21V58.11C38.83,57.87,39.82,58.62,40.43,57.59Z"/><path class="cls-8" d="M76.35,59.22v-1.1c1.43-.14,2.89.29,4.29-.27,2.08,0,4.19.18,6.21-.54-.11.56-.2,1.13-.35,1.68a1,1,0,0,1-1.07.77q-3.84,0-7.65-.29A3.48,3.48,0,0,1,76.35,59.22Z"/><path class="cls-6" d="M84.63,60.75c-.31.65-.24,1.6-1.31,1.65-1.23-.57-2.52-.18-3.78-.27-.85-.06-1.7,0-2.54,0-.4,0-.84.06-.93-.51.28-.75-.11-.87-.74-.82s-1.2.12-1.12-.79a24.66,24.66,0,0,1,5.36.5c1.51.23,3-.33,4.48-.18A.55.55,0,0,0,84.63,60.75Z"/><path class="cls-13" d="M73.68,22.23c-.69,0-.83-.48-.82-1.05a1.76,1.76,0,0,1,1.66.69,14.5,14.5,0,0,1,2.36,3l-.26.27h-.27c0-.29.05-.61-.27-.8L76,24.31l.12.06c0,.3-.06.61.26.81A38.51,38.51,0,0,0,79,31.34c.32,1.68.17,1.83-1.61,1.6l-.26-.06A1.69,1.69,0,0,0,78,31.33c.44-.55,0-1-.21-1.43-.43-1.14-.94-2.25-1.42-3.38a13.77,13.77,0,0,1-1.14-2.23C74.87,23.5,74.63,22.58,73.68,22.23Z"/><path class="cls-7" d="M85.69,43.61,76.62,45v-.5l7.83-1.38c.33-.05.67-.18.69-.52a5.86,5.86,0,0,0-.72-4c.06-.35-1.15-1,.27-1,.72.16.72.88,1,1.36-.38.25-.3.65-.21,1A11.23,11.23,0,0,1,85.69,43.61Z"/><path class="cls-11" d="M28.66,34c1,.58,2.22,0,3.24.52-.19.7-.83.68-1.35.84-.64-.53-1.32-.25-2-.14-1.19.2-2.41.4-3.12-1,.17-.34.51-.27.8-.3Z"/><path class="cls-6" d="M80.71,34l-.87,0c-.52-.82.31-1.91-.53-2.68l-2.43-5.88.1-.08a4.64,4.64,0,0,1,1.53,2.25A23.4,23.4,0,0,1,80.71,34Z"/><path class="cls-13" d="M40.72,21.44c.08.38-.58.56-.33.9s.65.18,1,.07.66-.3.95.08v.28c-.39.44-.91.26-1.38.25a2.18,2.18,0,0,0-2.11,1.09l-.78.27,0-1.63A2.69,2.69,0,0,1,40.72,21.44Z"/><path class="cls-13" d="M85.69,43.61a11.23,11.23,0,0,0-.18-3.79c-.09-.31-.17-.71.21-1a9.14,9.14,0,0,1,1.35,4.35c0,.48.08,1-.69,1C86,44.16,86,43.73,85.69,43.61Z"/><path class="cls-6" d="M84.7,37.5c-1.42,0-.21.68-.27,1l-.06.06c-.29,0-.6-.07-.79.24a2.69,2.69,0,0,0-2.4.79l-.29,0-1.6,0c0-.53.36-.75.88-.78A12.84,12.84,0,0,0,82.65,38c.93-.23.58-1,.68-1.63A2.21,2.21,0,0,1,84.7,37.5Z"/><path class="cls-10" d="M28.39,38.16c-.41,2-.13,4.22-1.34,6.08A5.84,5.84,0,0,1,28.39,38.16Z"/><path class="cls-5" d="M38,22.75l0,1.63h0l-.28,0c-.1-.16-.18-.13-.26,0h0a.55.55,0,0,0-.27.54h0c-.32.19-.26.51-.27.81h0a3.79,3.79,0,0,0-1.08,2.14,2.24,2.24,0,0,0-.81,1.85l-1.26,2.16-.31,0A39.43,39.43,0,0,1,38,22.75Z"/><path class="cls-5" d="M86.85,57.31c-2,.72-4.13.51-6.21.54l.27-.54c1.45-.09,2.9-.14,4.34-.3a1.81,1.81,0,0,0,1.59-.79A.76.76,0,0,1,86.85,57.31Z"/><path class="cls-14" d="M57.88,58.69v-.3h1.32v.29A1,1,0,0,1,57.88,58.69Z"/><path class="cls-7" d="M84.63,60.75a.55.55,0,0,1-.58-.43.51.51,0,0,1,.59.17A2.17,2.17,0,0,1,84.63,60.75Z"/><path class="cls-6" d="M76.62,25.18l.26-.27c0,.15.07.31.1.46l-.1.08Z"/><path class="cls-3" d="M32.17,33.23c-.26-.2-.11-.25.1-.28C32.24,33.05,32.2,33.14,32.17,33.23Z"/><path class="cls-1" d="M86.8,33.48l0,.49c-1.35-.22-2.7.68-4,0A9.78,9.78,0,0,1,86.8,33.48Z"/><path class="cls-15" d="M29.46,60.83c0,.29,0,.59.28.77a.57.57,0,0,0,.53.27h0c.26.92,1,.49,1.55.5,1.74.06,1.74,0,1.69,1.78l0,.92a13.93,13.93,0,0,1-4.45.49A1.35,1.35,0,0,1,27.55,64a26.16,26.16,0,0,0-.24-3.17Z"/><path class="cls-11" d="M34.29,59.47a26.39,26.39,0,0,1-5.53.54,1.89,1.89,0,0,1-1.63-2.35c.29-.77.83,0,1.24-.11,1.77.59,3.6.16,5.39.33C33.54,58.54,34.19,58.92,34.29,59.47Z"/><path class="cls-12" d="M33.76,57.88c-1.79-.17-3.62.26-5.39-.33,0-.16,0-.33,0-.49,2.33-.11,4.64.45,7,.26h1.87c1,.52,2.14.14,3.2.26-.61,1-1.6.28-2.39.52A21.91,21.91,0,0,1,33.76,57.88Z"/><path class="cls-3" d="M33.76,57.88a21.91,21.91,0,0,0,4.28.23v1.08c-1.29-.45-2.47.63-3.75.28C34.19,58.92,33.54,58.54,33.76,57.88Z"/><path class="cls-13" d="M37.22,62.45a2.22,2.22,0,0,1-2.12.36C35.84,62.09,36.57,62.58,37.22,62.45Z"/><path class="cls-8" d="M31.33,32.41c-.12,2.26-1.68,1-2.69,1.11l-2.39,0c-.41-.1-1.06.2-1.07-.61a1.2,1.2,0,0,1,.92-1.29,16.38,16.38,0,0,1,4.74-.21C31.49,31.37,31.29,32,31.33,32.41Z"/><path class="cls-1" d="M26.25,33.48l2.39,0c0,.17,0,.34,0,.51L26.23,34C26.24,33.8,26.25,33.64,26.25,33.48Z"/><path class="cls-6" d="M44.48,41.51h.79a7.36,7.36,0,0,0,2.82.53H66a7.39,7.39,0,0,0,2.82-.53.9.9,0,0,1,1.34,0c-.1.93-.87,1.45-1.31,2.17-.19-.34-.53-.3-.84-.31-.3-.37-.73-.26-1.11-.26l-6.12,0a1.46,1.46,0,0,1-1.32-.35,4.53,4.53,0,0,0-4.33.05,6.14,6.14,0,0,1-2.09.28c-2.4,0-4.81,0-7.21,0-.46,0-1-.19-1.38.25h-.27c-.36-.59-.89-1.1-.8-1.88h.8C44.3,41.7,44.39,41.69,44.48,41.51Z"/><path class="cls-4" d="M76.86,33.41c-10.09.24-20.17-.27-30.26-.25-2.85,0-5.7-.15-8.55-.23,0-.19,0-.39,0-.58q19.44.46,38.86.58Z"/><path class="cls-12" d="M68.85,41.51A7.39,7.39,0,0,1,66,42H48.09a7.36,7.36,0,0,1-2.82-.53Z"/><path class="cls-1" d="M68.88,43.69c.44-.72,1.21-1.24,1.31-2.17A3.85,3.85,0,0,1,73,40.38c1.3-.05,2.59-.41,3.91-.4,0,.37,0,.73,0,1.1v1.2l-.05.34C76.58,40.37,75,40.7,73.49,41a2.67,2.67,0,0,1-.4,0,3.08,3.08,0,0,0-2.51,1.45A17.74,17.74,0,0,1,68,46.26v-.54C68,44.9,68.82,44.46,68.88,43.69Z"/><path class="cls-7" d="M33.82,31.86l1.26-2.16c0,.11,0,.21,0,.31a4.34,4.34,0,0,0-.28,1.59h0l-.26.27a2.15,2.15,0,0,0,2,2.69c.87.06,1.75,0,2.77,0-1,1-3.08,1-4.61.13A2.1,2.1,0,0,1,33.82,31.86Z"/><path class="cls-14" d="M76.86,33.41l0-.48.24,0,.26.06c1.78.23,1.93.08,1.61-1.6h.31c.84.77,0,1.86.53,2.68a4.94,4.94,0,0,1-5.78.83c1.58-.74,3.54.4,5.08-1.27Z"/><path class="cls-1" d="M43.41,41.51c-.09.78.44,1.29.8,1.88a2.45,2.45,0,0,0,0,.27h-.54C43,42.17,42.2,40.76,40.19,41A7,7,0,0,1,38,40.46l0-.32c1.36.18,2.72.38,4.08.53A1.57,1.57,0,0,1,43.41,41.51Z"/><path class="cls-7" d="M76.93,41.08c0-.37,0-.73,0-1.1l2.38-.37,1.6,0-.53.51A8.88,8.88,0,0,0,76.93,41.08Z"/><path class="cls-14" d="M38,32.35l0,.58a14.15,14.15,0,0,1-2.6-.26c-.55,0-.63-.36-.63-.8V31.6h0l.29-.26.48.26c.11.63.61.5,1,.54S37.61,32,38,32.35Z"/><path class="cls-1" d="M72.55,36.38a6.41,6.41,0,0,1-.7,2.84c-.09.27-.31.5-.6.34s-.09-.46,0-.7A8.81,8.81,0,0,1,72.55,36.38Z"/><path class="cls-1" d="M41.52,37.23c.26.55.53,1.1.76,1.66.08.2.09.5-.12.6s-.49-.12-.58-.37c-.21-.63-.39-1.26-.58-1.89Z"/><path class="cls-13" d="M41.52,37.23H41a2.48,2.48,0,0,1-.74-1.57A1.76,1.76,0,0,1,41.52,37.23Z"/><path class="cls-13" d="M34.82,31.6v.27h-.26Z"/><path class="cls-12" d="M44.48,41.51c-.09.18-.18.19-.27,0Z"/><path class="cls-13" d="M72.07,45.53c-1.22.87-2.1,2.25-3.77,2.41,0-.42-.21-.51-.61-.37a3.73,3.73,0,0,1-1.8.36.81.81,0,0,0-.72-.25H50.74c-.39,0-.84-.06-.9.52-.26.09-.62-.16-.82.27,5,0,9.9,0,14.84,0a16.78,16.78,0,0,0,4.19-.55c-.41,1-1.39,1-2.23,1.05q-8.49.06-17,0a10.13,10.13,0,0,1-7.05-3.2c0-.18,0-.36,0-.54a25.69,25.69,0,0,0,5,2,2.93,2.93,0,0,0,2.53-.14c1.34-.08,2.66.2,4,.23,3.29.07,6.6.17,9.89,0,1.59-.09,3.31.21,4.8-.73,1.35-.08,2.48-.94,3.81-1.07Z"/><path class="cls-9" d="M42.87,53.3c0-.64.24-1,.91-1.06C44.89,52.16,46,52,47.11,52c3.21-.08,6.41,0,9.62-.24,4.15-.24,8.29.24,12.44.22a1.47,1.47,0,0,1,1.56.78h0c-3.11-.16-6.22-.34-9.33-.24-1.73,0-3.46.17-5.19.19-3.52,0-7,0-10.55,0a5.2,5.2,0,0,0-2.8.57Z"/><path class="cls-11" d="M39.65,52.76c-.48,1-.69,2.25-1.78,2.92-.32.19-.18.35-.06.62.27.64-.31.4-.57.48l-.79-.26c-.89-.67.72-.46.24-1.07H35.62l-1.87,0c-.19-.3-.51-.24-.8-.25-1.63-.57-2.09-1.29-1.9-3.25L31.61,53a.84.84,0,0,0,.93.76,28.05,28.05,0,0,1,3.77.54.94.94,0,0,0,1.2-.76,1.16,1.16,0,0,0,1.07-1.34h.53A.49.49,0,0,0,39.65,52.76Z"/><path class="cls-12" d="M74.47,51.68c1.1-.6,2.33-.22,3.5-.41a25.24,25.24,0,0,1,5.43-.4c.74,0,1.06.28,1,1-.09,1,.22,2-.27,3l-.27-.28c-.12-1.05.29-2.18-.41-3.18-.15,1.35,0,2.73-1.2,3.72-.71,0-1.42,1-2.13,0,2.14-.36,2.48-.64,2.65-2.26.1-.92-.3-.26-.51-.16H82c-.16-.86-.66-.4-1.07-.28-.18-.81-.84-.47-1.31-.52C77.89,51.79,76.15,52.28,74.47,51.68Z"/><path class="cls-3" d="M76.35,57.31a21.46,21.46,0,0,0-2.27,0,1.29,1.29,0,0,1-1.46-.82c.43-1.25-.67-2.11-.85-3.21h2.17a.56.56,0,0,1,.54.26c0,.81.69,1.26,1.07,1.87-.69,1.28.06,1.42,1.08,1.35h2.13l.27.54Z"/><path class="cls-16" d="M74.47,51.68c1.68.6,3.42.11,5.13.28.47,0,1.13-.29,1.31.52-1.14.61-2.36.11-3.53.29-.32,0-.84-.19-.87.32s.45.49.81.47a12.77,12.77,0,0,0,4.66-.8h.27c0,1-.78.94-1.38,1.05-1,.18-1.94.2-2.88.43a2,2,0,0,1-2.4-.9,1.56,1.56,0,0,0-1.65-.85c-.36-.51-1-.06-1.5-.5C73.08,51.46,73.82,51.79,74.47,51.68Z"/><path class="cls-8" d="M73.94,52.49a1.56,1.56,0,0,1,1.65.85,2,2,0,0,0,2.4.9c.94-.23,1.93-.25,2.88-.43.6-.11,1.42,0,1.38-1.05.21-.1.61-.76.51.16-.17,1.62-.51,1.9-2.65,2.26s-4.08.36-5.51-1.59c0,0-.08,0-.12,0a.56.56,0,0,0-.54-.26Z"/><path class="cls-2" d="M31.61,53l-.56-1.11c-.19,2,.27,2.68,1.9,3.25-.44.59-.89-.07-1.34,0-1.22-.92-1.19-2.33-1.41-3.86a3.91,3.91,0,0,0-.28,3,1.13,1.13,0,0,0,1.41,1.13l.82.54c-2.45,0-3.74-2.11-2.77-4.44.12-.28.18-.66.57-.64,1.27.07,2.57-.31,3.8.25-.51.55-1.28,0-2,.48l.9.05c0,.26,0,.51,0,.77-.48,0-1.16-.49-1.06.56Z"/><path class="cls-16" d="M74.48,53.56s.11,0,.12,0C76,55.54,78,55.68,80.11,55.18c.71,1,1.42,0,2.13,0,.84.72,1.16-.11,1.61-.54l.27.28c0,.69-.26,1-1,1.09-1.46.19-2.91.51-4.37.77H76.63c-.11-.53.6-.44.67-.92l-1.75-.43C75.17,54.82,74.52,54.37,74.48,53.56Z"/><path class="cls-11" d="M40.47,45.54c-1.24-.91-2.78-.74-4.17-1-2.2-.49-4.44-.79-6.66-1.17-1-.17-1.47-.73-1.12-2,.45,1.67,1.86,1.49,3,1.72a58.26,58.26,0,0,0,7.34,1.1,2,2,0,0,0,2.14,0h.3l.24.5A1.52,1.52,0,0,0,41,45.8Z"/><path class="cls-11" d="M68.05,47.94a16.78,16.78,0,0,1-4.19.55c-4.94,0-9.87,0-14.84,0,.2-.43.56-.18.82-.27,5.35,0,10.7,0,16-.27a3.73,3.73,0,0,0,1.8-.36c.4-.14.59,0,.61.37Z"/><path class="cls-16" d="M32.15,56l-.82-.54.28-.29c.45-.07.9.59,1.34,0,.29,0,.61-.05.8.25a1.53,1.53,0,0,0,1.87,0h1.07c.48.61-1.13.4-.24,1.07H35.36A6.12,6.12,0,0,1,32.15,56Z"/><path class="cls-6" d="M76.35,57.31h4.56l-.27.54c-1.4.56-2.86.13-4.29.27Z"/><path class="cls-1" d="M72.07,45.53h-.29c0-.29,0-.61.28-.81l.52,0c.45.43,1,.25,1.49.16a12.33,12.33,0,0,1,2.56-.42V45A14.87,14.87,0,0,1,72.07,45.53Z"/><path class="cls-12" d="M71.77,53.3c.18,1.1,1.28,2,.85,3.21h-.54a1.74,1.74,0,0,0-.17-1.21c-.33-.63-1-1.14-.92-1.95L71,53Z"/><path class="cls-16" d="M39.65,52.76a.49.49,0,0,1-.54-.54v-.78l2.21.39C40.74,52.42,39.86,52,39.65,52.76Z"/><path class="cls-5" d="M42.05,55.7h-.79c.28-.68.12-1.59,1.07-1.88l.27-.28h.27C42.88,54.39,42,54.87,42.05,55.7Z"/><path class="cls-7" d="M32.69,51.7l-.9-.05c.68-.48,1.45.07,2-.48a9.77,9.77,0,0,1,2.15.24v.3Z"/><path class="cls-3" d="M35.36,56.52h1.09l.79.26c0,.18,0,.37,0,.55H35.36Z"/><path class="cls-2" d="M35.9,51.71v-.3c.36-.44.71-.11,1.07,0,.08.15.17.16.27,0h.26V52C37,51.87,36.38,52.16,35.9,51.71Z"/><path class="cls-12" d="M37.5,52v-.52h1.6c0,.26,0,.52,0,.78h-.53C38.29,51.83,37.87,52,37.5,52Z"/><path class="cls-12" d="M41,45.8a1.52,1.52,0,0,1,.54-1.1l.27.56v.54Z"/><path class="cls-9" d="M71,53l0,.35a.54.54,0,0,1-.26-.59h0Z"/><path class="cls-9" d="M42.87,53.57h-.29l.29-.26h0Z"/><path class="cls-12" d="M37.24,51.43c-.1.15-.19.14-.27,0Z"/><path class="cls-9" d="M42.6,53.55l-.27.28Z"/><path class="cls-7" d="M42.33,22.77v-.28l1.33-.22a.47.47,0,0,0,.81,0c5.47-.33,10.93-.71,16.41-.56,2.4.06,4.76.66,7.17.55v.31c-4.22-.1-8.45-.36-12.68-.26S46.68,22.81,42.33,22.77Z"/><path class="cls-12" d="M68.05,22.54v-.31a12.82,12.82,0,0,1,4.48.45c.41.15,1,.31,1.15-.45.95.35,1.19,1.27,1.51,2.06a13.77,13.77,0,0,0,1.14,2.23h-.51A8.37,8.37,0,0,1,74.46,24,1.3,1.3,0,0,0,73,23,15.84,15.84,0,0,1,68.05,22.54Z"/><path class="cls-13" d="M44.47,22.24a.47.47,0,0,1-.81,0Q44.05,21.7,44.47,22.24Z"/><path class="cls-1" d="M30.27,61.87a.57.57,0,0,1-.53-.27C30.17,61.2,30.22,61.55,30.27,61.87Z"/><path class="cls-8" d="M37,43.1a12.75,12.75,0,0,1-3.43-.25c-1.93-.26-1.93-.26-1.93-2.41a12.1,12.1,0,0,1,3.4.15c1.58.11,1.64,1.27,2,2.33Z"/><path class="cls-11" d="M37,43.1v-.19c.39-.73.67-1.47,0-2.2.28-.39.7-.23,1.07-.25a7,7,0,0,0,2.16.54v1c-.4.74.24,1.13.55,1.62v.53l-1.36-.25C38.6,43.55,37.59,43.9,37,43.1Z"/><path class="cls-8" d="M31.34,40.44c-.31.21-.19.56-.28.84s.46.87-.19,1a1.25,1.25,0,0,1-1.47-.67,2.16,2.16,0,0,1,.38-2.37,1.43,1.43,0,0,1,1.92-.37c.57.34,1.31.27,1.8.8C32.67,39.63,31.84,39.58,31.34,40.44Z"/><path class="cls-7" d="M31.34,40.44c.5-.86,1.33-.81,2.16-.77,1.14.38,2.43.28,3.46,1,.68.73.4,1.47,0,2.2-.32-1-.38-2.21-2-2.32a12.1,12.1,0,0,0-3.4-.15Z"/><path class="cls-13" d="M39.36,43.94l1.36.25H41a2,2,0,0,1-2.14,0A.52.52,0,0,0,39.36,43.94Z"/><path class="cls-11" d="M28.75,40.13c.07.08.15.13.14.17a3.54,3.54,0,0,1-.11.44.68.68,0,0,1-.09-.22A3.4,3.4,0,0,1,28.75,40.13Z"/><path class="cls-14" d="M57.58,57.89l-9.62,0v-.51H66.69v.51H64.83l-5.61,0Z"/><path class="cls-5" d="M66.7,57.85c0-.17,0-.34,0-.51a11.43,11.43,0,0,0,5.39-.83h.26c-.41,1.67-1.93,1.27-3,1.39A13.12,13.12,0,0,1,66.7,57.85Z"/><path class="cls-13" d="M57.58,57.89h1.64l0,.51H57.87A.55.55,0,0,1,57.58,57.89Z"/><path class="cls-13" d="M64.83,57.86h1.08C65.55,58.62,65.19,58.61,64.83,57.86Z"/><path class="cls-15" d="M72.08,56.51a11.43,11.43,0,0,1-5.39.83H48a14.44,14.44,0,0,1-6.18-.83l.27-.81c0-.83.82-1.31.81-2.13v-.28a5.2,5.2,0,0,1,2.8-.57c3.51,0,7,0,10.55,0,1.73,0,3.46-.14,5.19-.19,3.11-.1,6.22.08,9.33.24a.54.54,0,0,0,.26.59c0,.81.59,1.32.92,1.95A1.74,1.74,0,0,1,72.08,56.51Z"/><path class="cls-5" d="M41.79,56.51a14.44,14.44,0,0,0,6.18.83c0,.17,0,.34,0,.51-1.85-.06-3.73.24-5.53-.39C42.07,57.34,41.14,57.41,41.79,56.51Z"/><path class="cls-10" d="M68.05,22.54A15.84,15.84,0,0,0,73,23a1.3,1.3,0,0,1,1.47.95,8.37,8.37,0,0,0,1.36,2.55A15.8,15.8,0,0,0,78,31.33a1.69,1.69,0,0,1-.83,1.55l-.24,0q-19.43-.1-38.86-.58c-.42-.35-.93-.17-1.4-.21s-.93.09-1-.54l.81-1.82,2.44-5.67A2.18,2.18,0,0,1,41,23c.47,0,1,.19,1.38-.25,4.35,0,8.7-.38,13-.49S63.83,22.44,68.05,22.54Z"/><path class="cls-1" d="M79.31,31.33H79a38.51,38.51,0,0,1-2.65-6.16h.27l.26.27Z"/><path class="cls-1" d="M78,31.33a15.8,15.8,0,0,1-2.14-4.82h.51c.48,1.13,1,2.24,1.42,3.38C77.91,30.34,78.4,30.78,78,31.33Z"/><path class="cls-1" d="M76.08,24.37c.32.19.26.51.27.8h0c-.32-.2-.26-.51-.26-.81Z"/><path class="cls-1" d="M76.09,24.37,76,24.31l.11.06Z"/><path class="cls-6" d="M76.63,44.48a12.33,12.33,0,0,0-2.56.42c-.51.09-1,.27-1.49-.16l.57-.82h.78a2.06,2.06,0,0,0,2.71-.54h.22a.8.8,0,0,0,.84.27,57.77,57.77,0,0,0,6.14-1c.65-.15.81-.56.84-1.16a10.77,10.77,0,0,0-.31-2.89l.06-.06a5.86,5.86,0,0,1,.72,4c0,.34-.36.47-.69.52Z"/><path class="cls-1" d="M38.84,24.11,36.4,29.78l-.81,1.82-.48-.26c.17-.54.34-1.08.52-1.61h0c.4-.28.24-.7.27-1.08h0c.88-.45.93-1.32,1.07-2.14h0A2.69,2.69,0,0,0,38,24.39h0Z"/><path class="cls-1" d="M84.37,38.59a10.77,10.77,0,0,1,.31,2.89c0,.6-.19,1-.84,1.16a57.77,57.77,0,0,1-6.14,1,.8.8,0,0,1-.84-.27h0a.53.53,0,0,0,.54-.26c1.59.12,3-.51,4.56-.8h.81c1.62-.23,2.08-1,.79-3.48C83.77,38.52,84.08,38.59,84.37,38.59Z"/><path class="cls-8" d="M83.58,38.83c1.29,2.46.83,3.25-.79,3.48l0-.81c-.11-1-.25-1.93-1.58-1.88A2.69,2.69,0,0,1,83.58,38.83Z"/><path class="cls-12" d="M81.18,39.62c1.33,0,1.47.9,1.58,1.88h-.51c.11-1.49-1-1.3-1.89-1.35l.53-.51Z"/><path class="cls-13" d="M38,24.39A2.69,2.69,0,0,1,37,26.51v-.8h0c.31-.2.26-.52.27-.81h0a.56.56,0,0,0,.27-.54h0l.26,0Z"/><path class="cls-14" d="M35.1,30c0-.1,0-.2,0-.31a2.24,2.24,0,0,1,.81-1.85h0l0,.8h0c-.38.29-.26.7-.27,1.08h0Z"/><path class="cls-14" d="M37,25.71v.8h0c-.51.32-.44,1.1-1.05,1.34h0A3.79,3.79,0,0,1,37,25.71Z"/><path class="cls-14" d="M37.24,24.91c0,.29,0,.61-.27.81C37,25.42,36.92,25.1,37.24,24.91Z"/><path class="cls-14" d="M37.51,24.37a.56.56,0,0,1-.27.54A.55.55,0,0,1,37.51,24.37Z"/><path class="cls-14" d="M37.76,24.36l-.26,0C37.58,24.23,37.66,24.2,37.76,24.36Z"/><path class="cls-11" d="M68.88,43.69c-.06.77-.91,1.21-.86,2-.66.14-1,.91-1.75.89-1.42,0-2.83.12-4.25.21a122.09,122.09,0,0,1-12.54-.3c-1.24-.05-2.8.14-3.7-1.25.39-.44.9-.27,1.37-.24,2.66.16,5.32.34,8,.52,1.24,1.06,2.71.67,4,.31a13.75,13.75,0,0,1,3.22-.6c1.73-.06,3.49.2,5.18-.47-2.22-.07-4.44,0-6.65-.08-.38,0-1,.26-1-.46s.56-.57,1-.6A54.5,54.5,0,0,0,68,43.38C68.35,43.39,68.69,43.35,68.88,43.69Z"/><path class="cls-12" d="M55.13,45.55c-2.66-.18-5.32-.36-8-.52-.47,0-1-.2-1.37.24a.46.46,0,0,1-.5-.49c.35-.5.89-.27,1.35-.31,2.36-.19,4.69.3,7,.25.38,0,.9.13.93-.47s-.53-.57-1-.58a75.87,75.87,0,0,1-9.17-.29c.39-.44.92-.25,1.38-.25,2.4,0,4.81,0,7.21,0a6.14,6.14,0,0,0,2.09-.28l.32,0V45.5Z"/><path class="cls-14" d="M55.48,42.87l-.32,0a4.53,4.53,0,0,1,4.33-.05,1.46,1.46,0,0,0,1.32.35v.5c-.44,0-1,0-1,.6s.65.46,1,.46c2.21,0,4.43,0,6.65.08-1.69.67-3.45.41-5.18.47a13.75,13.75,0,0,0-3.22.6c-1.25.36-2.72.75-4-.31l.35,0c.85,0,1.7,0,2.54,0,1.13.05,1.14-.73,1.2-1.52s-.35-1.2-1.2-1.17S56.33,42.87,55.48,42.87Z"/><path class="cls-11" d="M44.48,43.38a75.87,75.87,0,0,0,9.17.29c.42,0,1-.13,1,.58s-.55.46-.93.47c-2.35.05-4.68-.44-7-.25-.46,0-1-.19-1.35.31a2.06,2.06,0,0,1-1.09-1.12l0-.27Z"/><path class="cls-1" d="M60.81,43.65v-.5l6.12,0c.38,0,.81-.11,1.11.26A54.5,54.5,0,0,1,60.81,43.65Z"/><path class="cls-8" d="M73.93,43.92h-.78c.32-.74.64-1.48,1-2.22-1.33.61-1.64,1.85-2.06,3-.3.2-.25.52-.28.81-1.33.13-2.46,1-3.81,1.07l.06-.34a17.74,17.74,0,0,0,2.55-3.83A3.08,3.08,0,0,1,73.09,41a2.67,2.67,0,0,0,.4,0c1.53-.27,3.09-.6,3.39,1.65v.76h-.24A9.32,9.32,0,0,0,73.93,43.92Z"/><path class="cls-14" d="M68,46.26,68,46.6c-1.49.94-3.21.64-4.8.73-3.29.21-6.6.11-9.89,0-1.33,0-2.65-.31-4-.23-2.57,0-4.63-.91-5.64-3.48h.54a2.06,2.06,0,0,0,1.09,1.12.46.46,0,0,0,.5.49c.9,1.39,2.46,1.2,3.7,1.25a122.09,122.09,0,0,0,12.54.3c1.42-.09,2.83-.25,4.25-.21.78,0,1.09-.75,1.75-.89C68,45.9,68,46.08,68,46.26Z"/><path class="cls-8" d="M80.36,40.16c.92.05,2-.14,1.89,1.35-.32.19-.26.51-.27.81-1.51.29-3,.92-4.56.8,0-.38,0-.75-.49-.84v-1.2A8.88,8.88,0,0,1,80.36,40.16Z"/><path class="cls-5" d="M76.93,42.28c.49.09.5.46.49.84a.53.53,0,0,1-.54.26v-.76Z"/><path class="cls-13" d="M35.1,30l.53-.28c-.18.53-.35,1.07-.52,1.61l-.29.26A4.34,4.34,0,0,1,35.1,30Z"/><path class="cls-8" d="M43.65,43.66c1,2.57,3.07,3.43,5.64,3.48a2.93,2.93,0,0,1-2.53.14,25.69,25.69,0,0,1-5-2l-.27-.56-.24-.5a.67.67,0,0,0-.3-.55A1.75,1.75,0,0,0,40.18,42V41C42.2,40.76,43,42.17,43.65,43.66Z"/><path class="cls-12" d="M65.89,47.93c-5.35.28-10.7.31-16,.27.06-.58.51-.52.9-.52H65.17A.81.81,0,0,1,65.89,47.93Z"/><path class="cls-16" d="M37.5,52c.37,0,.79-.13,1.08.27a1.16,1.16,0,0,1-1.07,1.34h0c0-.53-.18-.71-.73-.82-1.37-.29-2.77.27-4.1-.27,0-.26,0-.51,0-.77H35.9C36.38,52.16,37,51.87,37.5,52Z"/><path class="cls-16" d="M37.51,53.57a.94.94,0,0,1-1.2.76,28.05,28.05,0,0,0-3.77-.54.84.84,0,0,1-.93-.76h0c2,.12,3.88.9,5.89.53Z"/><path class="cls-2" d="M35.62,55.45a1.53,1.53,0,0,1-1.87,0Z"/><path class="cls-8" d="M82,52.76a12.77,12.77,0,0,1-4.66.8c-.36,0-.84,0-.81-.47s.55-.28.87-.32c1.17-.18,2.39.32,3.53-.29C81.32,52.36,81.82,51.9,82,52.76Z"/><path class="cls-8" d="M83.85,54.63c-.45.43-.77,1.26-1.61.54,1.16-1,1.05-2.37,1.2-3.72C84.14,52.45,83.73,53.58,83.85,54.63Z"/><path class="cls-8" d="M75.55,55.43l1.75.43c-.07.48-.78.39-.67.92C75.61,56.85,74.86,56.71,75.55,55.43Z"/><path class="cls-11" d="M37.5,53.56c-2,.37-3.92-.41-5.89-.53-.1-1.05.58-.6,1.06-.56,1.33.54,2.73,0,4.1.27C37.32,52.85,37.54,53,37.5,53.56Z"/><path class="cls-11" d="M31.61,55.17l-.28.29a1.13,1.13,0,0,1-1.41-1.13,3.91,3.91,0,0,1,.28-3C30.42,52.84,30.39,54.25,31.61,55.17Z"/><path class="cls-12" d="M41,43.65a.67.67,0,0,1,.3.55h-.57c0-.18,0-.35,0-.53Z"/><path class="cls-5" d="M72.06,44.72c.42-1.17.73-2.41,2.06-3-.33.74-.65,1.48-1,2.22l-.57.82Z"/><path class="cls-13" d="M41,43.65h-.26c-.31-.49-.95-.88-.55-1.62A1.75,1.75,0,0,1,41,43.65Z"/><path class="cls-5" d="M73.93,43.92a9.32,9.32,0,0,1,2.71-.54A2.06,2.06,0,0,1,73.93,43.92Z"/><path class="cls-13" d="M35.91,27.86c.61-.24.54-1,1.05-1.34-.14.82-.19,1.69-1.07,2.14C35.9,28.39,35.9,28.13,35.91,27.86Z"/><path class="cls-13" d="M35.63,29.73c0-.38-.11-.79.27-1.08C35.87,29,36,29.45,35.63,29.73Z"/><path class="cls-13" d="M82,42.32c0-.3,0-.62.27-.81h.51l0,.81Z"/><path class="cls-11" d="M55.48,42.87c.85,0,1.7,0,2.54,0s1.26.3,1.2,1.17-.07,1.57-1.2,1.52c-.84,0-1.69,0-2.54,0Z"/></g></g></svg>