<svg xmlns="http://www.w3.org/2000/svg" viewBox="0 0 113.89 85.15"><defs><style>.cls-1{fill:#d6d5d6;}.cls-2{fill:#d7d7da;}.cls-3{fill:#fff;}.cls-4{fill:#b5b7ba;}.cls-5{fill:#e7e9eb;}.cls-6{fill:#cecfd1;}.cls-7{fill:#a5a7ab;}.cls-8{fill:#f7f7f9;}.cls-9{fill:#fafafa;}.cls-10{fill:#fcfcfc;}.cls-11{fill:#f1f1f2;}.cls-12{fill:#fefefe;}.cls-13{fill:#bebec2;}.cls-14{fill:#dedfe1;}.cls-15{fill:#c5c4c7;}.cls-16{fill:#ccccce;}</style></defs><title>Recurso 14</title><g id="Capa_2" data-name="Capa 2"><g id="Capa_1-2" data-name="Capa 1"><path class="cls-1" d="M0,9.64A8.78,8.78,0,0,1,4.4,1.11,7.34,7.34,0,0,1,8.46,0Q57,0,105.59,0a8.4,8.4,0,0,1,8.27,8.3q.08,34.2,0,68.4A8.35,8.35,0,0,1,108,84.59l-.28-.56a1.57,1.57,0,0,1,.74-.52,7.62,7.62,0,0,0,4.61-7.09q.06-33.86,0-67.7A8.28,8.28,0,0,0,105.2.81Q57.07.8,8.93.82A7.64,7.64,0,0,0,4.2,2.36,8.29,8.29,0,0,0,.8,9.64Z"/><path class="cls-2" d="M0,9.64H.8c0,.44,0,.89,0,1.34,0,21.45.05,42.91,0,64.36a8.67,8.67,0,0,0,8.94,9c30.67-.12,61.34,0,92-.06a27.3,27.3,0,0,0,6-.3l.28.56a4.34,4.34,0,0,1-2.42.55q-48.55,0-97.11,0a8.05,8.05,0,0,1-8.38-8C0,54.61,0,32.12,0,9.64Z"/><path class="cls-3" d="M107.71,84a27.3,27.3,0,0,1-6,.3c-30.66,0-61.33-.06-92,.06a8.67,8.67,0,0,1-8.94-9C.87,53.89.82,32.43.82,11c0-.45,0-.9,0-1.34A8.29,8.29,0,0,1,4.2,2.36,7.64,7.64,0,0,1,8.93.82q48.14,0,96.27,0a8.28,8.28,0,0,1,7.88,7.91q0,33.86,0,67.7a7.62,7.62,0,0,1-4.61,7.09A1.57,1.57,0,0,0,107.71,84ZM36.48,64a.82.82,0,0,0,.8-.75c.53.06,1.06.15,1.59.16,6.32.19,12.64.51,19,.5,6.72,0,13.44-.31,20.17-.49a2.32,2.32,0,0,0,1.73,2.11,5,5,0,0,0,3.93-.77.64.64,0,0,0-.06-1l0-1.3c.22,0,.45,0,.67-.06a4.6,4.6,0,0,0,4.29-5,19.46,19.46,0,0,1,.4-4.1,13,13,0,0,0,.2-5.27c-.7-3.23-.7-6.57-1.38-9.82-.19-.91-.21-2-1-2.57-1.36-1.07-2.17-2.7-3.73-3.54a7.08,7.08,0,0,1-2.32-2.68A63.33,63.33,0,0,0,75.44,22a5.56,5.56,0,0,0-3.73-1.85,129,129,0,0,0-20.8-.29L48,19.92a28.48,28.48,0,0,1-3.45.18c-1.62.18-3.34.11-4.56,1.49s-2.44,2.81-3.65,4.24c-2,2.42-3.83,5.05-6.42,7.05-1.38,1.07-3.16,2.19-3.46,4.19-.39,2.67-1.33,5.26-1.23,8,0,.53-.23,1.07-.25,1.54-.06,1.48-.69,2.88-.39,4.42.42,2.13,1,4.29.77,6.44a3.49,3.49,0,0,0,1.55,3.66,5.5,5.5,0,0,0,4.89,1.09l-.2.69c-.9.39-.44.86-.09,1.34.93,1.29,2.3,1.06,3.62,1.09.81,0,1.26-.27,1.33-1.09Z"/><path class="cls-4" d="M31.8,62.21a5.48,5.48,0,0,1-4.9-1.08,3.49,3.49,0,0,1-1.55-3.66c.26-2.15-.35-4.31-.77-6.44-.3-1.54.33-2.94.39-4.42,0-.47.27-1,.25-1.54-.1-2.74.84-5.33,1.23-8,.3-2,2.08-3.12,3.46-4.19,2.59-2,4.37-4.63,6.42-7.05C37.54,24.4,38.75,23,40,21.59s2.94-1.31,4.56-1.49A28.48,28.48,0,0,0,48,19.92c0,.16,0,.32,0,.48a3.69,3.69,0,0,1-1.94.21,9.84,9.84,0,0,0-4.48.81l-.82.49c-.74.35-1.1,1.07-1.61,1.65l-6.46,8-.78.82c-1.08.76-2.5,1.16-2.84,2.7-.36.39-1.2.22-1.19,1h0c-.68.09-.47.66-.58,1.06-.66,1.28-.31,2.74-.75,4.06-.4.23-.1.49,0,.75A4.83,4.83,0,0,0,26,45l-.09,1.86a.36.36,0,0,0,0,.25h0c-.21.07-.24.21-.15.39,0,0,.14,0,.21,0,.54,0,1.1-.17,1.59.2V48c-1.9-.08-2.37.27-2.38,1.78l0,.29c.24,1.4.52,2.8.69,4.21a9.84,9.84,0,0,1,.25,3.3c-.46,2.2,2.78,4.94,4.85,4a5.42,5.42,0,0,1,5.33.44,3.77,3.77,0,0,0,1.88.63c5.07.15,10.15.37,15.22.48,7.58.15,15.15-.17,22.72-.45a2.8,2.8,0,0,0,2.66-1.39h0l.51,0,1.59-.22c.56.43,1.27.21,1.9.49,1.61.71,2.78-.42,4-1.17a2.32,2.32,0,0,0,1-2.9,3.38,3.38,0,0,1,0-1.58,40.17,40.17,0,0,0,.91-6c0-1.35-.45-1.78-1.78-1.69a23.64,23.64,0,0,0-2.5.4l0-.35A9,9,0,0,1,87,47.48c1.35,0,1.24-.67,1.18-1.58a51.41,51.41,0,0,0-1-6.17,17.57,17.57,0,0,0-.51-2.58c-.13-.38.08-.95-.59-1,0-.51-.44-.63-.84-.73-.73-.65-1-1.68-1.91-2.18a.83.83,0,0,0-.92-.58c-1.27-1.08-1.94-2.59-2.9-3.89-1.51-2.05-2.66-4.39-4.71-6h0a.71.71,0,0,0,0-.25,2.11,2.11,0,0,0-2.14-1.35c-.16-.08-.3-.22-.46-.23-3.28-.23-6.56-.59-9.85-.57-3.8,0-7.59,0-11.39,0v-.48a129,129,0,0,1,20.8.29A5.56,5.56,0,0,1,75.44,22a63.33,63.33,0,0,1,5.39,7.43,7.08,7.08,0,0,0,2.32,2.68c1.56.84,2.37,2.47,3.73,3.54.74.58.76,1.66,1,2.57.68,3.25.68,6.59,1.38,9.82a13,13,0,0,1-.2,5.27,19.46,19.46,0,0,0-.4,4.1,4.6,4.6,0,0,1-4.29,5c-.22,0-.45,0-.67.06-.43-.14-.9.83-1.31,0a2.48,2.48,0,0,0-4.14,1,.41.41,0,0,0-.19,0c-6.73.18-13.45.49-20.17.49-6.33,0-12.65-.31-19-.5-.53,0-1.06-.1-1.59-.16a8.18,8.18,0,0,1-1.52-.81c-1-.46-1.91-1.23-3.11-.62C32.31,61.83,32,61.85,31.8,62.21Z"/><path class="cls-5" d="M78,63.42a.41.41,0,0,1,.19,0,2,2,0,0,0,1.09.29h.56c0,.68.23,1.17,1,1s1.77-.1,1.73-1.34a.88.88,0,0,1,1,.29.64.64,0,0,1,.06,1,5,5,0,0,1-3.93.77A2.32,2.32,0,0,1,78,63.42Z"/><path class="cls-5" d="M36.45,64.25c-.07.82-.52,1.11-1.33,1.09-1.32,0-2.69.2-3.62-1.09-.35-.48-.81-1,.09-1.34l.58.28a1.93,1.93,0,0,0,2,1.59c.63.06,1.17,0,1.26-.82Z"/><path class="cls-6" d="M36.45,64.25l-1-.29c-.84-1.26-2-1.19-3.24-.77l-.58-.28c.06-.23.13-.46.21-.7s.51-.38.85-.39c1.41.5,3,.66,3.83,2.18Z"/><path class="cls-6" d="M79.85,63.72h-.56c-.05-.6.36-.83.82-1.07a4.7,4.7,0,0,1,2.23-.27c.41.87.88-.1,1.31,0,0,.43,0,.87,0,1.3a.88.88,0,0,0-1-.29A2.31,2.31,0,0,0,79.85,63.72Z"/><path class="cls-5" d="M36.48,64c-.82-1.52-2.42-1.68-3.83-2.18,1.2-.61,2.13.16,3.11.62a8.18,8.18,0,0,0,1.52.81A.82.82,0,0,1,36.48,64Z"/><path class="cls-7" d="M50.91,19.86v.48L48,20.4c0-.16,0-.32,0-.48Z"/><path class="cls-8" d="M25.23,49.78c0-1.51.48-1.86,2.38-1.78a6,6,0,0,0,2.68.72c.1.26.31.29.54.27.1.25.32.27.54.28h0c.19.33.52.25.82.27a.83.83,0,0,1,.8.52c-.25.41.15.22.27.29h0v.8A13.44,13.44,0,0,1,31.56,51c-.62-.13-.92.09-1,.69l-.55-.2c-.7-.1-1.41-.06-2.12-.23-1.19-.29-1.78.29-1.53,1.55a21.56,21.56,0,0,1,.19,2.39c.34,1.17-.15,2.59,1,3.51a1.44,1.44,0,0,0,.89.75A59.48,59.48,0,0,0,41,61.55l2.64,0c.32.36.74.23,1.13.25,3.51.13,7,0,10.53.21,5.86.34,11.74-.1,17.6-.22a4.78,4.78,0,0,0,1-.26c1.63.13,3.22-.45,4.85-.25a2.8,2.8,0,0,1-2.66,1.39c-7.57.28-15.14.6-22.72.45-5.07-.11-10.15-.33-15.22-.48a3.77,3.77,0,0,1-1.88-.63A5.42,5.42,0,0,0,31,61.61c-2.07.91-5.31-1.83-4.85-4a9.84,9.84,0,0,0-.25-3.3c-.17-1.41-.45-2.81-.69-4.21.26-.07.58.12.87-.24Zm2.39.54c-.25-.29-.54-.36-1,0l1,.07a3.66,3.66,0,0,0,2.5.37l0-.4Z"/><path class="cls-9" d="M86.65,37.15a17.57,17.57,0,0,1,.51,2.58,51.41,51.41,0,0,1,1,6.17c.06.91.17,1.6-1.18,1.58a9,9,0,0,0-2.52.74c-1.18.46-2.47.73-3.26,1.85a.91.91,0,0,0-1,.52c-.85,0-1.09-1.39-2.14-1l-1.85-.12a20.93,20.93,0,0,0,3.45-1.29,14.58,14.58,0,0,0,4.56-2.41h0a3.26,3.26,0,0,0,2.42-1.62h0c.21-.08.21-.18,0-.27-.36-.59.76-1.41-.31-1.89-.37-.51-.78-.17-1.19-.05A30.89,30.89,0,0,1,81,43.14l-.07-.08c-.09-.19.54-.5.14-.39-1.12.3-2-.34-3-.37h0a2.3,2.3,0,0,1-.27-2.43c.34-1.22.56-2.47.83-3.7.29-.22.25-.54.25-.84h5v-.28H79.07c0-2.16.36-2.47,2.42-2.11.61.11,1.21.19,1.82.28.9.5,1.18,1.53,1.91,2.18-.07.53-.48.47-.84.49-1.29,0-2.59,0-3.87,0a2.07,2.07,0,0,0-1.71,2.43c.08,1.22,1,.68,1.62.77a13.54,13.54,0,0,0,2.9-.3c.86-.35,2.11,0,2.44-1.32H86Z"/><path class="cls-9" d="M26.53,41.24c.44-1.32.09-2.78.75-4.06,1.17.19.65-.56.58-1.06h.59a27.66,27.66,0,0,1,4.26.23c1.62.3,1.85.45,1.77,2.07,0,.26-.19.56.22.6s.39-.29.41-.56,0-.47,0-.93l.45.78a11.07,11.07,0,0,0,.66,2.84,1.07,1.07,0,0,1-.31,1.15h0a2.08,2.08,0,0,0-1.93,1c-.71.06-1.43.14-1.88-.61.13,0,.27.2.36-.05l-.36,0a.4.4,0,0,1-.21-.09A1.72,1.72,0,0,0,30.29,42c-.18-.3-.36-.31-.53,0C28.61,42.05,27.63,41.42,26.53,41.24Zm2.12-3.66c-.26,0-.46,0-.45.33a.61.61,0,0,0,.58.61c.82.11,1.69-.13,2.46.36.19.13.45.21.57,0s-.1-.44-.37-.57C30.55,37.82,29.47,38.27,28.65,37.58Zm5,5.41-.19-.06s0,.1,0,.1Z"/><path class="cls-10" d="M26,45a4.83,4.83,0,0,1,.49-3c1.5-.17,2.69.82,4.07,1.07s2.34,1.32,3.73.58c.7-.26,1.41-.49,1.61-1.34h0c1,.25.78,1.2,1.1,1.85,0,.94,0,1.91,1,2.44,1,1.2,2.31.67,3.53.75l1,0c-.3,1,1,.88,1.07,1.59a57.86,57.86,0,0,1-9.09-1.1c-2.41-1.26-5-2.07-7.4-3.42-.1-.06-.26,0-.39,0a1,1,0,0,0,0-.1l-.07,0,.11.11.29.53Z"/><path class="cls-8" d="M80.13,50.59a.91.91,0,0,1,1-.52,13.82,13.82,0,0,0,3.24-1.5,23.64,23.64,0,0,1,2.5-.4c1.33-.09,1.82.34,1.78,1.69a40.17,40.17,0,0,1-.91,6,3.38,3.38,0,0,0,0,1.58,2.32,2.32,0,0,1-1,2.9c-1.22.75-2.39,1.88-4,1.17-.63-.28-1.34-.06-1.9-.49.55-.49,1.31-.28,1.92-.56a.56.56,0,0,0,.53-.24c.37-.08.8.11,1.08-.29h0c.42-.06,1,.16,1.07-.54h0c.4,0,.77,0,.81-.54h0c.93-1.85.86-3.88,1.07-5.85,0-.44.2-1-.53-1.14v-.48c.17-.1.21-.21,0-.3h-.54a.53.53,0,0,0-.53.25,3.11,3.11,0,0,0-2.65,1.12c-.35-.31-1.18-.63,0-.91a.65.65,0,0,0,.46-.58l.81-.19a6.75,6.75,0,0,0,3-.77L88,50s0-.09-.07-.1a.41.41,0,0,0-.52.21,11.42,11.42,0,0,0-3,.33A17.89,17.89,0,0,1,80.13,50.59Z"/><path class="cls-11" d="M48,20.4l2.94-.06c3.8,0,7.59,0,11.39,0,3.29,0,6.57.34,9.85.57.16,0,.3.15.46.23h0c-1.87-.09-3.76.22-5.63-.22-1.2,0-2.4,0-3.6,0-7.28-.16-14.55.31-21.82.54A9.84,9.84,0,0,1,46,20.61,3.69,3.69,0,0,0,48,20.4Z"/><path class="cls-12" d="M26,45H27.1a.55.55,0,0,1,.52.27c-.11.38-1,.4-.57.94s.81,0,1.16-.28a1.26,1.26,0,0,1,.23-.13,32.48,32.48,0,0,1,3.74,1.85c0,.34.07.66.44.73s.31-.24.36-.45l1.35.27a6.59,6.59,0,0,0,2.39.61V49c-.82.77-2.29.34-2.9,1.53a4.59,4.59,0,0,1-.58-.22h0L33,50.05a.83.83,0,0,0-.8-.52,1,1,0,0,0-.82-.27h0c0-.09,0-.17,0-.25a3.35,3.35,0,0,0,0-1.27c-.19-.45-2.69-.53-3.27-.19-.06,0-.08,0-.07.09h-.37c-.49-.37-1.05-.19-1.59-.2L26,47.1h0c.3-.11.14-.18,0-.25Z"/><path class="cls-10" d="M84.38,35.89c.36,0,.77,0,.84-.49.4.1.79.22.84.73-.43.26-.27.7-.31,1.08v.28h0a11.68,11.68,0,0,1-3,1.05,9.46,9.46,0,0,0-2.25.19c-.38.12-.79.17-1-.39a1.56,1.56,0,0,1,1.16-2C81.93,35.94,83.22,36.47,84.38,35.89Z"/><path class="cls-8" d="M74.78,22.74c2,1.62,3.2,4,4.71,6,1,1.3,1.63,2.81,2.9,3.89a3.62,3.62,0,0,1-3.61-2.11.48.48,0,0,0-.52-.55L78,29.44a.56.56,0,0,0-.27-.53h0a23.4,23.4,0,0,0-1.16-2.67C76.05,25,75,24.09,74.78,22.74Z"/><path class="cls-2" d="M82.81,60.51c-.61.28-1.37.07-1.92.56l-1.59.22c-.19-.28-.36-.24-.51,0h0c-1.63-.2-3.22.38-4.85.25-.08-.18-.17-.36-.26-.54.41-.06,1,.26,1.17-.25.12-.31-.52-.22-.64-.54l0-.35c.67-.68,1.51-.24,2.27-.35l5-.64c-1.58.92-3.44.79-5.11,1.5l5.92-.72C81.86,60.34,82.73,60.17,82.81,60.51Z"/><path class="cls-13" d="M41.56,21.42c7.27-.23,14.54-.7,21.82-.54,1.2,0,2.4,0,3.6,0v.45a129.09,129.09,0,0,0-13.91.06l-.82,0a10.82,10.82,0,0,0-3.21.21c-2.79.07-5.6-.15-8.29.84v-.59Z"/><path class="cls-10" d="M29.05,35.09c.34-1.54,1.76-1.94,2.84-2.7.71.21,1.42-.43,2.13,0l.26,2.66c-1.58.16-3.21-.31-4.77.28Z"/><path class="cls-8" d="M32.67,31.57l6.46-8,.31.3a3.16,3.16,0,0,0-.58,1.31h0c-1.3,1.27-1.81,3-2.81,4.49,0,.06.08.24.12.36a1.26,1.26,0,0,1-1,.78c-.24,0-.45,0-.56.27h0C33.9,31.06,33.61,32.52,32.67,31.57Z"/><path class="cls-1" d="M74.78,22.74c.22,1.35,1.27,2.29,1.78,3.51a23.4,23.4,0,0,1,1.16,2.67c-.57,0-.58-.59-.93-.86-.25.36-.34.92-1,.85v-.34a2.28,2.28,0,0,0-.43-2.07l-1.47-2.61,0-.34c.22-.09.18-.18,0-.26h0a.56.56,0,0,0-.28-.55h0c0-.68-.77-.65-1.08-1.05v-.57h0a2.11,2.11,0,0,1,2.14,1.35c-.11,0-.3.07-.3.1,0,.21.19.14.32.15Z"/><path class="cls-14" d="M78.78,30.53a3.62,3.62,0,0,0,3.61,2.11.83.83,0,0,1,.92.58c-.61-.09-1.21-.17-1.82-.28-2.06-.36-2.41,0-2.42,2.11l-.28.28c0,.3,0,.62-.25.84l-.28-.29a1.27,1.27,0,0,1,0-.52C78.94,34,78,33.79,77,33.73l-.39,0c0-.15,0-.3,0-.45a6.12,6.12,0,0,1,1,0c.51.1,1.12.46,1.3-.32s-.79-.33-1-.77v-.27c1.36,0,.34-.92.53-1.37Z"/><path class="cls-11" d="M29.05,35.09l.46.25,5,0,.07.46-.07.07c-2,0-4.07-.31-6.09.21h-.59C27.85,35.31,28.69,35.48,29.05,35.09Z"/><path class="cls-11" d="M82.34,62.38a4.7,4.7,0,0,0-2.23.27c-.46.24-.87.47-.82,1.07a2,2,0,0,1-1.09-.29A2.48,2.48,0,0,1,82.34,62.38Z"/><path class="cls-15" d="M30.58,43.06C29.2,42.81,28,41.82,26.51,42c-.08-.26-.38-.52,0-.75,1.1.18,2.08.81,3.23.8h0c.18.29.37.3.55,0h0a1.72,1.72,0,0,1,1.61.55v0H31C30.71,42.65,30.55,42.78,30.58,43.06Z"/><path class="cls-14" d="M32.67,31.57c.94,1,1.23-.51,1.91-.51.06.55.46.54.86.54l1.83,0c0,.1,0,.2,0,.3-.94.46-2-.05-3,.52H34c-.71-.44-1.42.2-2.13,0Z"/><path class="cls-16" d="M84.41,48.57a13.82,13.82,0,0,1-3.24,1.5c.79-1.12,2.08-1.39,3.26-1.85C84.42,48.34,84.42,48.46,84.41,48.57Z"/><path class="cls-15" d="M27.61,47.66H28a6,6,0,0,1,2.31,1.08h0A6,6,0,0,1,27.61,48Z"/><path class="cls-14" d="M39.44,23.86l-.31-.3c.51-.58.87-1.3,1.61-1.65v.59h0a.48.48,0,0,0-.27.54h0Z"/><path class="cls-11" d="M85.75,37.21c0-.38-.12-.82.31-1.08.67.07.46.64.59,1l-.62.34Z"/><path class="cls-11" d="M27.86,36.12c.07.5.59,1.25-.58,1.06C27.39,36.78,27.18,36.21,27.86,36.12Z"/><path class="cls-2" d="M25.23,49.78l.85,0c-.29.36-.61.17-.87.24Z"/><path class="cls-8" d="M74.78,22.75c-.13,0-.31.06-.32-.15,0,0,.19-.07.3-.1A.71.71,0,0,1,74.78,22.75Z"/><path class="cls-10" d="M26,47.1l.06.36c-.07,0-.2,0-.21,0C25.72,47.31,25.75,47.17,26,47.1Z"/><path class="cls-8" d="M78.79,61.33c.15-.28.32-.32.51,0Z"/><path class="cls-10" d="M25.93,46.84c.17.07.33.14,0,.25A.36.36,0,0,1,25.93,46.84Z"/><path class="cls-12" d="M79.85,63.72a2.31,2.31,0,0,1,2.71-.29c0,1.24-.94,1.22-1.73,1.34S79.82,64.4,79.85,63.72Z"/><path class="cls-9" d="M32.17,63.19c1.24-.42,2.4-.49,3.24.77-.09.78-.63.88-1.26.82A1.93,1.93,0,0,1,32.17,63.19Z"/><path class="cls-12" d="M81.47,58.9l-5,.64c-.76.11-1.6-.33-2.27.35l-6.13.1-.82-.56c.61-1.67,1.54-3.24,1.62-5.07.51-1.72.3-2.46-.89-2.63a9.58,9.58,0,0,0-2.87-.3H63.5l-11.24,0c-2,.07-4-.28-5.95.49-.88.39-.52,1.18-.42,1.75a10.39,10.39,0,0,0,1,3.15l.85,2.1c-.12.48-.83.5-.82,1.07v0a51.23,51.23,0,0,1-6.67-.24l-2.95-.1a11.51,11.51,0,0,0-4.57-.76.48.48,0,0,0-.52-.53c-.24-1.28-.21-2.64-1-3.77C31,53.84,31,53,30.34,52.46l-.08-.26c.19-.36.65-.13,1-.46l-.68-.1c.08-.6.38-.82,1-.69a13.44,13.44,0,0,0,1.69.18c.62-.08,1.45.34,1.78-.46s.79-.59,1.29-.59h5.07c-1.41-.93-2.89-.18-4.15-.78l0-.33A65.07,65.07,0,0,0,48,49.79l4.24.17a14.91,14.91,0,0,0,3.27.08H65.1l12.89,0c.28.06.64,0,.77.35.33,1,1.15,1,1.95.93,1-.06,1.92-.2,2.88-.3a.65.65,0,0,1-.46.58c-1.21.28-.38.6,0,.91-.27,1.14-.92,2.19-.9,3.42-1.12.77-.45,2-.74,3Z"/><path class="cls-1" d="M73.7,61l.26.54a4.78,4.78,0,0,1-1,.26c-5.86.12-11.74.56-17.6.22-3.51-.2-7-.08-10.53-.21-.39,0-.81.11-1.13-.25.39-.45.92-.26,1.38-.26q9.63,0,19.26,0c.53-.09,1.14.24,1.6-.28l1.87,0,.29,0A8.3,8.3,0,0,0,72.89,61C73.18,60.71,73.45,60.7,73.7,61Z"/><path class="cls-1" d="M41,61.55a59.48,59.48,0,0,1-12.56-2.14,1.44,1.44,0,0,1-.89-.75l0,0h1.06c2.23.54,4.45,1.06,6.73,1.39,1.6.23,3.25.13,4.79.73.19.31.5.25.79.29C41.72,61.14,41,61.38,41,61.55Z"/><path class="cls-15" d="M41,61.55c0-.17.68-.41,0-.5-.29,0-.6,0-.79-.29,2.78-.06,5.54.49,8.32.23l15.79.07c0,.08,0,.17,0,.25q-9.63,0-19.26,0c-.46,0-1-.19-1.38.26Z"/><path class="cls-16" d="M30.26,52.2l.08.26-.35,0a2.44,2.44,0,0,0-1.3-.32c-.89-.41-1.27,0-1.36.85-.08.72.26,1.48-.24,2.14h-.54a21.56,21.56,0,0,0-.19-2.39c-.25-1.26.34-1.84,1.53-1.55.71.17,1.42.13,2.12.23C29.8,51.79,29.87,52,30.26,52.2Z"/><path class="cls-14" d="M37.24,49.29c1.26.6,2.74-.15,4.15.78H36.32c-.5,0-1-.12-1.29.59s-1.16.38-1.78.46c0-.27,0-.53,0-.8a4.59,4.59,0,0,0,.58.22c.61-1.19,2.08-.76,2.9-1.53Z"/><path class="cls-1" d="M26.55,55.15h.53a12,12,0,0,0,.54,3.47l0,0C26.4,57.74,26.89,56.32,26.55,55.15Z"/><path class="cls-2" d="M27.62,50.32h2.51l0,.4a3.66,3.66,0,0,1-2.5-.37Z"/><path class="cls-6" d="M30.26,52.2c-.39-.16-.46-.41-.25-.76l.55.2.68.1C30.91,52.07,30.45,51.84,30.26,52.2Z"/><path class="cls-2" d="M27.6,50.35l-1-.07c.43-.32.72-.25,1,0Z"/><path class="cls-15" d="M31.35,49.26a1,1,0,0,1,.82.27C31.87,49.51,31.54,49.59,31.35,49.26Z"/><path class="cls-14" d="M33,50.05l.27.29C33.12,50.27,32.72,50.46,33,50.05Z"/><path class="cls-15" d="M31.36,49c0,.08,0,.16,0,.25-.22,0-.44,0-.54-.28h0Z"/><path class="cls-15" d="M30.83,49c-.23,0-.44,0-.54-.27h0c.22,0,.43,0,.53.27Z"/><path class="cls-10" d="M86.25,42c1.07.48,0,1.3.31,1.89v.27h0a3.64,3.64,0,0,0-2.42,1.62h0a15.1,15.1,0,0,0-4.57,2.07,25.83,25.83,0,0,1-8.23,1.47c-2.08-.06-4.17.18-6.26.28H55.51l-3.26-.07,0-.07c0-.29,0-.69-.41-.69s-.39.39-.41.68l-3.47,0-.82-.21V47.64c1,.34,2,0,3,0l12.8.24h9.34v-.48H63l-7.5-.11v-.92c3.57-.19,7.12.15,10.69.14,2,.25,4-.18,6,.24.23.52.5.42.79.06h.87c-.17.57,0,.66.59.58,1.57-.21,2.54-1.61,2.54-3.77.17-.59-.19-1.61,1.07-1.34h0c1,1.54,2,1.91,3.68,1.35C83.2,43.14,84.72,42.57,86.25,42Z"/><path class="cls-15" d="M65.09,49.6c2.09-.1,4.18-.34,6.26-.28a25.83,25.83,0,0,0,8.23-1.47v.34a20.93,20.93,0,0,1-3.45,1.29L78,49.6v.45L65.1,50C65.1,49.89,65.1,49.74,65.09,49.6Z"/><path class="cls-4" d="M86.25,42c-1.53.55-3,1.12-4.59,1.63C80,44.21,79,43.84,78,42.3c1,0,1.93.67,3,.37.4-.11-.23.2-.14.39l-.59.16s0,.08.09.09a.49.49,0,0,0,.57-.17A30.89,30.89,0,0,0,85.06,42C85.47,41.85,85.88,41.51,86.25,42Z"/><path class="cls-1" d="M78,42.3c-1.26-.27-.9.75-1.07,1.34l-.82.27c0-.17-.16-.37-.1-.5,1-2.45,1.5-5,2.27-7.53l.28.29c-.27,1.23-.49,2.48-.83,3.7A2.3,2.3,0,0,0,78,42.3Z"/><path class="cls-6" d="M84.38,35.89c-1.16.58-2.45,0-3.64.47a1.56,1.56,0,0,0-1.16,2c.17.56.58.51,1,.39a9.46,9.46,0,0,1,2.25-.19c.21,0,.42,0,.53.27a13.54,13.54,0,0,1-2.9.3c-.6-.09-1.54.45-1.62-.77a2.07,2.07,0,0,1,1.71-2.43C81.79,35.84,83.09,35.89,84.38,35.89Z"/><path class="cls-13" d="M78,50.05V49.6c1.05-.4,1.29.95,2.14,1a17.38,17.38,0,0,0,4.26-.2c0,.15,0,.3,0,.45l-.81.19c-1,.1-1.92.24-2.88.3-.8.05-1.62.05-1.95-.93C78.63,50,78.27,50.11,78,50.05Z"/><path class="cls-1" d="M79.59,48.19v-.34a15.1,15.1,0,0,1,4.57-2.07A14.58,14.58,0,0,1,79.59,48.19Z"/><path class="cls-1" d="M84.14,45.79a3.64,3.64,0,0,1,2.42-1.62A3.26,3.26,0,0,1,84.14,45.79Z"/><path class="cls-4" d="M78.79,35.33l.28-.28h4.77v.28Z"/><path class="cls-14" d="M83.32,38.8c-.11-.22-.32-.24-.53-.27a11.68,11.68,0,0,0,3-1.05C85.43,38.81,84.18,38.45,83.32,38.8Z"/><path class="cls-1" d="M86.55,44.18v-.27C86.76,44,86.76,44.1,86.55,44.18Z"/><path class="cls-14" d="M85.75,37.21l.28.28h-.28Z"/><path class="cls-6" d="M34,32.4h.28c.25,1.49,1.26.38,1.89.55v.24c-1.5.2-1.42,1-1,2.17a22,22,0,0,1,.71,2.93l-.34,0-.45-.78c0,.46,0,.7,0,.93s0,.59-.41.56-.23-.34-.22-.6c.08-1.62-.15-1.77-1.77-2.07a27.66,27.66,0,0,0-4.26-.23c2-.52,4.06-.16,6.09-.21l.16.09-.09-.16c0-.15,0-.3-.07-.46.3-.4-.12-.26-.26-.33Z"/><path class="cls-16" d="M35.57,38.32l.34,0a31.61,31.61,0,0,0,1.29,3.77c.57,1.36,1.08,2.75,2.49,3.51V46c-1,0-1.46-.89-2.15-1.39,0-.33-.21-.45-.51-.47-.32-.65-.12-1.6-1.1-1.85a1.07,1.07,0,0,0,.31-1.15A11.07,11.07,0,0,1,35.57,38.32Z"/><path class="cls-11" d="M28.65,37.58c.82.69,1.9.24,2.79.69.27.13.51.26.37.57s-.38.17-.57,0c-.77-.49-1.64-.25-2.46-.36a.61.61,0,0,1-.58-.61C28.19,37.62,28.39,37.57,28.65,37.58Z"/><path class="cls-7" d="M30.58,43.06c0-.28.13-.41.37-.49.32.2.64.5,1,0v0a.4.4,0,0,0,.21.09v0c.45.75,1.17.67,1.88.61l.32.32C32.92,44.38,31.83,43.22,30.58,43.06Z"/><path class="cls-13" d="M34.31,43.64,34,43.32a2.08,2.08,0,0,1,1.93-1C35.72,43.15,35,43.38,34.31,43.64Z"/><path class="cls-15" d="M33.62,43l-.16,0s0-.06,0-.1Z"/><path class="cls-15" d="M32.11,42.71v0l.36,0C32.38,42.91,32.24,42.74,32.11,42.71Z"/><path class="cls-15" d="M29.76,42c.17-.31.35-.3.53,0h-.53Z"/><path class="cls-15" d="M47.17,49.23l.82.21v.35A65.07,65.07,0,0,1,37.27,49a.53.53,0,0,0-.55-.18,6.59,6.59,0,0,1-2.39-.61l.27-.28A57.86,57.86,0,0,0,43.69,49,25.33,25.33,0,0,0,47.17,49.23Z"/><path class="cls-12" d="M47.17,49.23A25.33,25.33,0,0,1,43.69,49c-.09-.71-1.37-.61-1.07-1.59h2.94a4.38,4.38,0,0,1,1.61.25Z"/><path class="cls-2" d="M34.6,47.89l-.27.28L33,47.9c-.2-.29-.51-.24-.8-.28a32.48,32.48,0,0,0-3.74-1.85l-.82-.53A.55.55,0,0,0,27.1,45l-.29-.53h0c.13,0,.29,0,.39,0C29.57,45.82,32.19,46.63,34.6,47.89Z"/><path class="cls-14" d="M41.58,47.35c-1.22-.08-2.56.45-3.53-.75l0,0,3.52.35Z"/><path class="cls-14" d="M37,44.16c.3,0,.5.14.51.47-.15.74.48,1.26.54,1.94l0,0C37,46.07,37.06,45.1,37,44.16Z"/><path class="cls-13" d="M41.58,47.35c0-.14,0-.29,0-.43a20.3,20.3,0,0,0,4,.21,1.13,1.13,0,0,1,0,.26H42.62Z"/><path class="cls-2" d="M26.81,44.44l-.11-.11.07,0a1,1,0,0,1,0,.1Z"/><path class="cls-5" d="M82.81,60.51c-.08-.34-1-.17-.53-.83.6-.77,1.59-.32,2.32-.72.36-.19,1.1-.1.61-.88a6,6,0,0,0,.57-4.79c-.75-.57-.42.52-.79.52h-.3L85,52.19l.8-.54c0,.16,0,.42.22.36.39-.14.31-.53.31-.86h.54v.78c.31,1.18-.66,2.22-.5,3.31a17.38,17.38,0,0,1,0,3.68h0a.8.8,0,0,0-.81.54h0c-.46,0-.88,0-1.07.54h0c-.38,0-.81-.15-1.08.29A.56.56,0,0,1,82.81,60.51Z"/><path class="cls-2" d="M86.29,58.91a17.38,17.38,0,0,0,0-3.68c-.16-1.09.81-2.13.5-3.31.73.12.57.7.53,1.14C87.15,55,87.22,57.06,86.29,58.91Z"/><path class="cls-15" d="M85.75,51.65l-.8.54c-1-.1-1.24.7-1.55,1.33s-.59,1.62-.88,2.43l-.32,0c0-1.22.63-2.27.9-3.41a3.11,3.11,0,0,1,2.65-1.12Z"/><path class="cls-6" d="M84.4,50.84c0-.15,0-.3,0-.45a11.86,11.86,0,0,1,3-.32h0A6.75,6.75,0,0,1,84.4,50.84Z"/><path class="cls-2" d="M85.75,51.65V51.4a.53.53,0,0,1,.53-.25c0,.33.08.72-.31.86C85.8,52.07,85.77,51.81,85.75,51.65Z"/><path class="cls-2" d="M84.42,60c.19-.5.61-.56,1.07-.54C85.4,60.14,84.84,59.92,84.42,60Z"/><path class="cls-2" d="M85.49,59.44a.8.8,0,0,1,.81-.54C86.26,59.44,85.89,59.46,85.49,59.44Z"/><path class="cls-2" d="M83.34,60.27c.27-.44.7-.26,1.08-.29C84.14,60.38,83.71,60.19,83.34,60.27Z"/><path class="cls-6" d="M87.36,50.07a.41.41,0,0,1,.52-.21s.05.06.07.1l-.59.11Z"/><path class="cls-2" d="M86.83,51.44v-.3C87,51.23,87,51.34,86.83,51.44Z"/><path class="cls-6" d="M72.61,21.14v.57L67,21.37v-.45C68.85,21.36,70.74,21.05,72.61,21.14Z"/><path class="cls-10" d="M30.82,49c-.1-.24-.31-.26-.53-.27A6,6,0,0,0,28,47.65l.07-.09c.58-.34,3.08-.26,3.27.19a3.35,3.35,0,0,1,0,1.27Z"/><path class="cls-10" d="M27.62,45.24l.82.53a1.26,1.26,0,0,0-.23.13c-.35.28-.83.68-1.16.28S27.51,45.62,27.62,45.24Z"/><path class="cls-10" d="M32.18,47.62c.29,0,.6,0,.8.28,0,.21,0,.51-.36.45S32.18,48,32.18,47.62Z"/><path class="cls-10" d="M36.72,48.78a.53.53,0,0,1,.55.18l0,.33L36.72,49Z"/><path class="cls-4" d="M28.05,47.56l-.07.09h0C28,47.59,28,47.56,28.05,47.56Z"/><path class="cls-11" d="M75.83,28.91c.62.07.71-.49,1-.85.35.27.36.87.93.86h0a.54.54,0,0,0,.27.53l.28.54H78c-.7.11-1.41.61-2.12,0a.83.83,0,0,0-.73-.25c-5.12.16-10.24-.29-15.37-.25-7.18-.12-14.36,0-21.54.23-1.39,0-1.4-.08-.84-1.33.48-1.08,1.5-1.92,1.51-3.22h0c.5.08.58-.56,1-.6l.08.08A5.57,5.57,0,0,1,39.28,26c-.3.66-1,1.2-.73,2.09.06.5.31.81.86.77a22.51,22.51,0,0,0,4.42,0,3.57,3.57,0,0,1,2,.28h1.35c2.76-.09,5.52-.22,8.28-.24,3.87,0,7.75,0,11.63,0,.47,0,1,.18,1.35-.33h1c.11.76.71.52,1.15.54A37.84,37.84,0,0,0,75.83,28.91Z"/><path class="cls-11" d="M78.78,30.53H78.5c-.08-.08-.16-.17-.25-.25V30h0A.48.48,0,0,1,78.78,30.53Z"/><path class="cls-1" d="M78,29.44a.54.54,0,0,1-.27-.53A.56.56,0,0,1,78,29.44Z"/><path class="cls-8" d="M85.21,58.08c.49.78-.25.69-.61.88-.73.4-1.72-.05-2.32.72l-5.92.72c1.67-.71,3.53-.58,5.11-1.5h1.34l.26-.22A5.36,5.36,0,0,0,85.21,58.08Z"/><path class="cls-16" d="M68.08,60l6.13-.1,0,.35c-.6,0-1.2,0-1.8,0s-1,.07-.86.78h-.3a10.47,10.47,0,0,0-3.47-.52Z"/><path class="cls-11" d="M71.57,61c-.12-.71.31-.8.86-.78s1.2,0,1.8,0c.12.32.76.23.64.54-.2.51-.76.19-1.17.25-.25-.33-.52-.32-.81,0Z"/><path class="cls-8" d="M67,21.37l5.64.34c.31.4,1,.37,1.08,1.05-1.72-.84-3.56-.46-5.36-.54-.4-.43-.92-.25-1.39-.26-4.19,0-8.38,0-12.57,0-.47,0-1.13.31-1.31-.51A129.09,129.09,0,0,1,67,21.37Z"/><path class="cls-5" d="M53.07,21.43c.18.82.84.51,1.31.51,4.19,0,8.38,0,12.57,0,.47,0,1-.17,1.39.26a2.26,2.26,0,0,0,0,.26c-6.8-.41-13.59.09-20.38,0a2.26,2.26,0,0,1,0-.26c.28-.39.7-.22,1.07-.27a14.42,14.42,0,0,0,1.74,0c.5-.07,1.21.38,1.46-.49Z"/><path class="cls-11" d="M49.05,22c-.37.05-.79-.12-1.07.27H43.42a3,3,0,0,0-2.94,2.23v.11l-.54.09-.08-.08c-.06-.62.6-.95.61-1.54h0a.47.47,0,0,0,.27-.54h0c2.69-1,5.5-.77,8.29-.84Z"/><path class="cls-9" d="M49.05,22v-.29a10.82,10.82,0,0,1,3.21-.21c-.25.87-1,.42-1.46.49A14.42,14.42,0,0,1,49.05,22Z"/><path class="cls-15" d="M34.28,35.06c.14.07.56-.07.26.33l-5,0C31.07,34.75,32.7,35.22,34.28,35.06Z"/><path class="cls-10" d="M78.25,30.27c.09.08.17.17.25.25-.19.45.83,1.37-.53,1.37-.84,0-1.7,0-2.53-.07-5.3-.62-10.63-.65-15.94-1l-7.53,0a52.32,52.32,0,0,1-5.6.22c-2.33-.15-4.63.45-7,.25-.71.11-1.48-.26-2.14.25l-1.83,0c-.4,0-.8,0-.86-.54h0a.58.58,0,0,0,.56-.27,1.26,1.26,0,0,0,1-.78,7.93,7.93,0,0,0,2.38.24l15.85-.5c1.78-.05,3.54.38,5.33.19l16.1,0c.71.62,1.42.12,2.12,0A3.83,3.83,0,0,1,78.25,30.27Z"/><path class="cls-13" d="M59.74,29.94c-1.79.19-3.55-.24-5.33-.19l-15.85.5A7.93,7.93,0,0,1,36.18,30c0-.12-.16-.3-.12-.36,1-1.45,1.51-3.22,2.81-4.49,0,1.3-1,2.14-1.51,3.22-.56,1.25-.55,1.37.84,1.33,7.18-.22,14.36-.35,21.54-.23Z"/><path class="cls-13" d="M40.48,23c0,.59-.67.92-.61,1.54-.43,0-.51.68-1,.6a3.16,3.16,0,0,1,.58-1.31Z"/><path class="cls-14" d="M35.14,30.79a.58.58,0,0,1-.56.27C34.69,30.82,34.9,30.79,35.14,30.79Z"/><path class="cls-12" d="M40.49,24.56v-.11a2.33,2.33,0,0,0,1.15-.85,2.43,2.43,0,0,1,1.6-.84L48,22.48c6.79.09,13.58-.41,20.38,0,1.86.44,4-.22,5.58,1.41L75.4,26.5a2.28,2.28,0,0,1,.43,2.07l-6.47.06h-1c-.89,0-1.78,0-2.67,0a161.41,161.41,0,0,0-17.87,0c-.38,0-.74,0-.72.55h-.46c0-.28-.06-.48-.38-.51s-.54.15-.51.51a3.57,3.57,0,0,0-2-.28c-1.45-.56-3-.1-4.43-.29l-.53-.51C39.17,26.82,40.24,25.88,40.49,24.56Z"/><path class="cls-13" d="M69.36,28.63l6.47-.06v.34a37.84,37.84,0,0,1-5.32.26C70.07,29.15,69.47,29.39,69.36,28.63Z"/><path class="cls-2" d="M73.93,23.89c-1.57-1.63-3.72-1-5.58-1.41a2.26,2.26,0,0,1,0-.26c1.8.08,3.64-.3,5.36.54h0a.56.56,0,0,0,.28.55h0c0,.09,0,.18,0,.26Z"/><path class="cls-8" d="M74,23.3a.56.56,0,0,1-.28-.55A.56.56,0,0,1,74,23.3Z"/><path class="cls-8" d="M74,23.55c0-.08,0-.17,0-.26C74.15,23.37,74.19,23.46,74,23.55Z"/><path class="cls-3" d="M37.2,42.06a31.61,31.61,0,0,1-1.29-3.77,22,22,0,0,0-.71-2.93c-.44-1.14-.52-2,1-2.17l5.13-.07,7.75-.24,12.57,0a11.36,11.36,0,0,0,3,0c.15.27.42.29.69.3l8.4.28,2.92.24.39,0c1,.06,1.94.22,1.28,1.63a1.27,1.27,0,0,0,0,.52C77.49,38.39,77,41,76,43.41c-.06.13.06.33.1.5H69.4l-15,0c-1.86-.52-3.76-.08-5.63-.27,0-.64-.38-1.21-.92-.85-.88.6-1.6.2-2.38,0-1.09-.27-2.12-.72-3.17.29a1.39,1.39,0,0,1-2,0C39.43,41.87,38.34,42,37.2,42.06Z"/><path class="cls-9" d="M78,32.16c.2.44,1.17,0,1,.77s-.79.42-1.3.32a6.12,6.12,0,0,0-1,0L73.69,33l-6.41-.37v-1Z"/><path class="cls-6" d="M78,32.16l-10.69-.52c-.44,0-1-.22-1.12.46-1-.41-2.13-.11-3.19-.25v-.26c-1.13-.56-2.33-.11-3.48-.27v-.5c5.31.35,10.64.38,15.94,1,.83.1,1.69.05,2.53.07C78,32,78,32.07,78,32.16Z"/><path class="cls-15" d="M73.69,33l2.93.23c0,.15,0,.3,0,.45l-2.92-.24Z"/><path class="cls-9" d="M31.91,42.57c-.32.5-.64.2-1,0Z"/><path class="cls-9" d="M29.75,42h.55C30.12,42.33,29.93,42.32,29.75,42Z"/><path class="cls-3" d="M36.19,33c-.63-.17-1.64.94-1.89-.55.91-.57,2-.06,3-.52,0,.34,0,.67,0,1Z"/><path class="cls-9" d="M37.25,32.89c0-.34,0-.67,0-1,0-.1,0-.2,0-.3.66-.51,1.43-.14,2.14-.25,0,.17,0,.35,0,.52-.62.15-1.43-.06-1.6.89A.58.58,0,0,1,37.25,32.89Z"/><path class="cls-13" d="M40.75,22.49a.47.47,0,0,1-.27.54A.48.48,0,0,1,40.75,22.49Z"/><path class="cls-10" d="M68.08,60l-.28.52V61l-1.87,0a1.21,1.21,0,0,0-1.61,0L48.52,61l-.27-1,4,0c.67.52,1.44.15,2.15.26,2.89,0,5.77.11,8.65-.05,1.4-.07,2.93.16,4.2-.76Z"/><path class="cls-15" d="M63.5,51.42h1.62v.48l-.53,0c-.19.06-.23.15-.08.29v3.16H63.8V52.77c-.23-.38-.61-.3-.95-.3h-11c-.34,0-.72-.09-1,.27l0,3.2h-.49c0-1.33,0-2.66,0-4l1.87-.26.55,0c1.87.55,3.78.16,5.67.23.77,0,1.6.29,2.33-.23C61.71,51.54,62.65,51.93,63.5,51.42Z"/><path class="cls-14" d="M63.8,55.39h.72c0,1.1,0,2.21.08,3.31,0,.31-.36.75.1.93A1.32,1.32,0,0,0,66,59.5a4.09,4.09,0,0,0,.86-1c.9-1.25.94-2.8,1.52-4.16h.53c-.08,1.83-1,3.4-1.62,5.07-1.27.92-2.8.69-4.2.76-2.88.16-5.76.05-8.65.05.44-.46,1-.25,1.52-.25,2.5,0,5,0,7.73,0-.75-.59-1.7.24-2-.8a9.13,9.13,0,0,0,1.57-.06c.47-.11,1.12-.28.57-1Z"/><path class="cls-11" d="M48.25,60l.27,1c-2.78.26-5.54-.29-8.32-.23-1.54-.6-3.19-.5-4.79-.73-2.28-.33-4.5-.85-6.73-1.39a.6.6,0,0,1,.56-.29,10.87,10.87,0,0,0,1.66.49c.46.07,1.11.36,1.28-.48a.48.48,0,0,1,.52.53A27.72,27.72,0,0,0,37.26,60l3,.25c1.36.07,2.71,0,4.07.22.83.1,1.9.58,2.61-.45v0h1.35Z"/><path class="cls-14" d="M50.42,55.93h.49c0,.64,0,1.27,0,1.91-.12.94.24,1.4,1.24,1.33.74,0,1.49,0,2.23,0-.35.41-.83.22-1.25.25s-.83,0-.89.55l-4,0h0a1.58,1.58,0,0,0-.53-1.08c-.29-.7-.57-1.4-.85-2.1l.36,0c.79.57.77,1.64,1.46,2.31a1.57,1.57,0,0,0,1.45.39c.48-.08.21-.66.23-1C50.42,57.61,50.41,56.77,50.42,55.93Z"/><path class="cls-7" d="M65.09,49.6c0,.14,0,.29,0,.43H55.49l0-.43Z"/><path class="cls-16" d="M68.88,54.36h-.53c0-2.08,0-2.08-2.13-2.17-.38,0-.8.09-1.1-.27v-.48a9.58,9.58,0,0,1,2.87.3C69.18,51.9,69.39,52.64,68.88,54.36Z"/><path class="cls-1" d="M32.18,58.36c-.17.84-.82.55-1.28.48a10.87,10.87,0,0,1-1.66-.49,1,1,0,0,1,0-.25h.49a4.93,4.93,0,0,1,.66.07c1.28.29,1.38.16,1-1.13-.22-.8-.39-1.62-.59-2.43l.35,0C32,55.72,31.94,57.08,32.18,58.36Z"/><path class="cls-6" d="M47.23,56.76l-.36,0a10.39,10.39,0,0,1-1-3.15c-.1-.57-.46-1.36.42-1.75l.06.36C46.35,53.81,47.15,55.22,47.23,56.76Z"/><path class="cls-7" d="M63.5,51.42c-.85.51-1.79.12-2.68.27h-8l-.55,0a2.44,2.44,0,0,1,0-.27Z"/><path class="cls-4" d="M52.26,51.4a2.44,2.44,0,0,0,0,.27l-1.87.26a16.06,16.06,0,0,0-4,.32l-.06-.36C48.25,51.12,50.27,51.47,52.26,51.4Z"/><path class="cls-16" d="M46.89,60c-.71,1-1.78.55-2.61.45-1.36-.18-2.71-.15-4.07-.22,0-.16,0-.31,0-.47A51.23,51.23,0,0,0,46.89,60Z"/><path class="cls-16" d="M82.81,58.9H81.46c.29-1-.38-2.19.74-3h.32a8.38,8.38,0,0,1-.25,1.25A1.24,1.24,0,0,0,82.81,58.9Z"/><path class="cls-5" d="M37.26,60a27.72,27.72,0,0,1-4.56-1.08,11.51,11.51,0,0,1,4.57.76Z"/><path class="cls-15" d="M55.51,49.61l0,.43A14.91,14.91,0,0,1,52.22,50l0-.42Z"/><path class="cls-6" d="M31.17,54.59l-.35,0A4.58,4.58,0,0,1,30,52.49l.35,0C31,53,31,53.84,31.17,54.59Z"/><path class="cls-7" d="M52.25,49.54l0,.42L48,49.79v-.35l3.47,0h.82Z"/><path class="cls-2" d="M37.26,60v-.32l2.95.1c0,.16,0,.31,0,.47Z"/><path class="cls-10" d="M47.72,58.89A1.58,1.58,0,0,1,48.25,60H46.9C46.89,59.39,47.6,59.37,47.72,58.89Z"/><path class="cls-11" d="M67.79,61v-.49a10.47,10.47,0,0,1,3.47.52l-3.19,0Z"/><path class="cls-15" d="M68.08,61.05l3.19,0h.3l1.32,0A8.3,8.3,0,0,1,68.08,61.05Z"/><path class="cls-11" d="M64.31,61.06a1.21,1.21,0,0,1,1.61,0c-.46.52-1.07.19-1.6.28C64.32,61.23,64.31,61.14,64.31,61.06Z"/><path class="cls-5" d="M29.24,58.1a1,1,0,0,0,0,.25.6.6,0,0,0-.56.29H27.62a12,12,0,0,1-.54-3.47c.51-.66.17-1.42.25-2.14.09-.89.47-1.26,1.36-.85-.05.7-.44.47-.82.31A4,4,0,0,0,28.15,56h0c.08.45-.21,1,.27,1.34h0C28.36,57.89,29.05,57.75,29.24,58.1Z"/><path class="cls-9" d="M27.87,52.48c.38.16.77.39.82-.31a2.44,2.44,0,0,1,1.3.32,4.58,4.58,0,0,0,.83,2.13c.2.81.37,1.63.59,2.43.36,1.29.26,1.42-1,1.13a4.93,4.93,0,0,0-.66-.07,10,10,0,0,0-1.08-4.93A24.67,24.67,0,0,0,29.16,56c.11.57.34,1.34-.74,1.28h0c0-.45.14-1-.27-1.34h0C28.06,54.8,28,53.64,27.87,52.48Z"/><path class="cls-9" d="M45.56,47.13a20.3,20.3,0,0,1-4-.21l-3.52-.35c-.06-.68-.69-1.2-.54-1.94.69.5,1.14,1.38,2.15,1.39,2.75.12,5.51-.07,8.25.23l3.54,0,4,.08v.92C52.18,47.06,48.87,47.14,45.56,47.13Z"/><path class="cls-15" d="M45.56,47.13c3.31,0,6.62-.07,9.92.17l7.5.11v.48l-12.8-.24c-1,0-2,.33-3,0a4.38,4.38,0,0,0-1.61-.25A1.13,1.13,0,0,0,45.56,47.13Z"/><path class="cls-16" d="M72.12,46.76c-2-.42-4,0-6-.24,0-.15,0-.3,0-.44,2.1,0,4.19,0,6.28,0a3.79,3.79,0,0,0,2.6-.82.5.5,0,0,1,.51.25l-.34.53h-.18c-.51.11-1,.24-1.21.8h-.93Z"/><path class="cls-14" d="M75.57,45.51a.5.5,0,0,0-.51-.25c-.14-.38.46-.63.19-1.1H73.69v-.24h2.4l.82-.27c0,2.16-1,3.56-2.54,3.77-.56.08-.76,0-.59-.58h.06c.56,0,1.1-.1,1.21-.8h.18C75.54,46,76,46.05,75.57,45.51Z"/><path class="cls-4" d="M66.18,46.08c0,.14,0,.29,0,.44-3.57,0-7.12-.33-10.69-.14l-4-.08,0-.46c1.15.06,2.3.16,3.45.17C58.7,46.05,62.44,46.06,66.18,46.08Z"/><path class="cls-16" d="M63,47.89v-.48h9.34v.48Z"/><path class="cls-9" d="M52.28,49.47h-.82c0-.29,0-.68.41-.68S52.24,49.18,52.28,49.47Z"/><path class="cls-9" d="M72.12,46.76l.79.06C72.62,47.18,72.35,47.28,72.12,46.76Z"/><path class="cls-9" d="M81,43.14a.49.49,0,0,1-.57.17s-.06-.06-.09-.09l.59-.16Z"/><path class="cls-16" d="M37.25,32.89a.58.58,0,0,0,.57-.15l2.12-.08,1.35,0,0,.42-5.13.07V33Z"/><path class="cls-11" d="M34.61,35.85l.09.16-.16-.09Z"/><path class="cls-10" d="M66.18,46.08c-3.74,0-7.48,0-11.23-.07-1.15,0-2.3-.11-3.45-.17L48,45.8c-2.76-.07-5.52.06-8.27-.23-1.41-.76-1.92-2.15-2.49-3.51,1.14-.06,2.23-.19,3.07,1a1.39,1.39,0,0,0,2,0c1-1,2.08-.56,3.17-.29.78.19,1.5.59,2.38,0,.54-.36.93.21.92.85H42.09a101.57,101.57,0,0,0,12.32.54H75.25c.27.47-.33.72-.19,1.1a3.79,3.79,0,0,1-2.6.82C70.37,46,68.28,46.07,66.18,46.08Z"/><path class="cls-4" d="M39.69,45.57c2.75.29,5.51.16,8.27.23l0,.45c-2.74-.3-5.5-.11-8.25-.23C39.69,45.87,39.69,45.72,39.69,45.57Z"/><path class="cls-9" d="M82.81,58.9a1.24,1.24,0,0,1-.54-1.7A8.38,8.38,0,0,0,82.52,56c.29-.81.51-1.65.88-2.43S84,52.09,85,52.19c-.09.54-.18,1.08-.26,1.63-.71,1.56-.38,3.47-1.62,4.86Z"/><path class="cls-1" d="M83.07,58.68c1.24-1.39.91-3.3,1.62-4.86H85a8.9,8.9,0,0,1-.42,2.61c-.08.29-.29.66.14.79s.61-.31.68-.63a11.76,11.76,0,0,0,.39-3.29,6,6,0,0,1-.57,4.79A5.36,5.36,0,0,1,83.07,58.68Z"/><path class="cls-8" d="M85.78,53.29a11.76,11.76,0,0,1-.39,3.29c-.07.32-.2.78-.68.63s-.22-.5-.14-.79A8.9,8.9,0,0,0,85,53.81C85.36,53.81,85,52.72,85.78,53.29Z"/><path class="cls-4" d="M47.14,29.19c0-.52.34-.53.72-.55a161.41,161.41,0,0,1,17.87,0c.89.06,1.78,0,2.67,0-.35.51-.88.33-1.35.33-3.88,0-7.76-.05-11.63,0C52.66,29,49.9,29.1,47.14,29.19Z"/><path class="cls-1" d="M59.74,29.94v-.46c5.13,0,10.25.41,15.37.25a.83.83,0,0,1,.73.25Z"/><path class="cls-6" d="M40.49,24.56c-.25,1.32-1.32,2.26-1.62,3.55l-.32,0c-.31-.89.43-1.43.73-2.09A5.57,5.57,0,0,0,40,24.65Z"/><path class="cls-4" d="M39.4,28.62c1.47.19,3-.27,4.43.29a22.51,22.51,0,0,1-4.42,0Z"/><path class="cls-4" d="M45.79,29.19c0-.36.14-.54.51-.51s.4.23.38.51Z"/><path class="cls-15" d="M39.4,28.62v.28c-.55,0-.8-.27-.86-.77l.32,0Z"/><path class="cls-1" d="M78.25,30.27A3.83,3.83,0,0,0,78,30h.29Z"/><path class="cls-2" d="M48,22.48l-4.74.28a2.43,2.43,0,0,0-1.6.84,2.33,2.33,0,0,1-1.15.85,3,3,0,0,1,2.94-2.23H48A2.26,2.26,0,0,0,48,22.48Z"/><path class="cls-1" d="M59.5,30.82v.5H52v-.45Z"/><path class="cls-6" d="M39.42,31.85c0-.17,0-.35,0-.52,2.33.2,4.63-.4,7-.25v.28c-.89.44-1.84.13-2.75.23-1.23.14-2.49-.24-3.68.25Z"/><path class="cls-15" d="M46.37,31.36v-.28a52.32,52.32,0,0,0,5.6-.22c0,.15,0,.3,0,.45l-4,0Z"/><path class="cls-7" d="M61.63,32.9l-12.57,0v-.45H61.63Z"/><path class="cls-6" d="M54.41,44.16a101.57,101.57,0,0,1-12.32-.54h6.69c1.87.19,3.77-.25,5.63.27Z"/><path class="cls-13" d="M73.69,33v.44l-8.4-.28c-.27,0-.54,0-.69-.3s0-.27,0-.4a5.21,5.21,0,0,1,2.15.2l.55,0Z"/><path class="cls-13" d="M54.41,44.16v-.27l15,0a.81.81,0,0,1,0,.22Z"/><path class="cls-4" d="M49.06,32.43v.45l-7.75.24c0-.14,0-.28,0-.42l6.14-.35Z"/><path class="cls-4" d="M64.58,32.46c0,.13,0,.27,0,.4a11.36,11.36,0,0,1-3,0v-.47l.83-.07Z"/><path class="cls-16" d="M69.4,44.15a.81.81,0,0,0,0-.22h4.29v.24Z"/><path class="cls-5" d="M67.28,32.63l-.55,0c0-.37-.23-.52-.56-.56.15-.68.68-.46,1.12-.46C67.29,32,67.28,32.3,67.28,32.63Z"/><path class="cls-5" d="M62.46,32.35l-.83.08H49.06l-1.63-.08c-.09-.47.24-.72.52-1l4,0H59.5c1.15.16,2.35-.29,3.48.27H50.18v.29H62.45Z"/><path class="cls-13" d="M62.45,31.88H50.18v-.29H63v.26Z"/><path class="cls-9" d="M62.45,31.88l.53,0c1.06.14,2.15-.16,3.19.25.33,0,.56.19.56.56a5.21,5.21,0,0,0-2.15-.2l-2.12-.1Z"/><path class="cls-3" d="M39.42,31.85h.52v.82l-2.12.08C38,31.79,38.8,32,39.42,31.85Z"/><path class="cls-11" d="M52.26,60c.06-.58.49-.52.89-.55s.9.16,1.25-.25h7.25c.31,1,1.26.21,2,.8-2.72,0-5.23,0-7.73,0-.51,0-1.08-.21-1.52.25C53.7,60.13,52.93,60.5,52.26,60Z"/><path class="cls-12" d="M46.37,52.25a16.06,16.06,0,0,1,4-.32c0,1.34,0,2.67,0,4,0,.84,0,1.68-.05,2.52,0,.35.25.93-.23,1a1.57,1.57,0,0,1-1.45-.39c-.69-.67-.67-1.74-1.46-2.31C47.15,55.22,46.35,53.81,46.37,52.25Z"/><path class="cls-12" d="M65.12,51.91c.3.36.72.25,1.1.27,2.14.09,2.14.09,2.13,2.17-.58,1.36-.62,2.91-1.52,4.16a4.09,4.09,0,0,1-.86,1,1.32,1.32,0,0,1-1.27.13c-.46-.18-.09-.62-.1-.93-.06-1.1-.06-2.21-.08-3.31s0-2.11,0-3.16a2.45,2.45,0,0,0,.08-.29Z"/><path class="cls-5" d="M50.93,57.85c0-.64,0-1.27,0-1.91,0-1.07,0-2.13,0-3.2.45.07,1-.17,1.33.26,0,.09,0,.18,0,.27-1.07.88-.37,2.07-.54,3.1-.13.83.29,1.21,1.15,1.2,3.11,0,6.22,0,9.33,0,.84,0,1.09-.32,1-1.1,0-1.06,0-2.13,0-3.19l.56,0V55.4c0,.89,0,1.79,0,2.69H52.35A2.78,2.78,0,0,1,50.93,57.85Z"/><path class="cls-8" d="M52.26,53c-.37-.43-.88-.19-1.33-.26.25-.36.63-.27,1-.27h11c.34,0,.72-.08.95.3-.3,0-.61-.08-.82.23Z"/><path class="cls-6" d="M52.82,51.69h8c-.73.52-1.56.25-2.33.23C56.6,51.85,54.69,52.24,52.82,51.69Z"/><path class="cls-14" d="M63,53c.21-.31.52-.24.82-.23v.5l-.56,0-.26,0Z"/><path class="cls-14" d="M64.59,51.94a2.45,2.45,0,0,1-.08.29C64.36,52.09,64.4,52,64.59,51.94Z"/><path class="cls-12" d="M50.93,57.85a2.78,2.78,0,0,0,1.42.25H63.79c.55.75-.1.92-.57,1a9.13,9.13,0,0,1-1.57.06H54.4c-.74,0-1.49,0-2.23,0C51.17,59.25,50.81,58.79,50.93,57.85Z"/><path class="cls-2" d="M28.42,57.29c1.08.06.85-.71.74-1.28a24.67,24.67,0,0,1-.51-2.83,10,10,0,0,1,1.08,4.93h-.49C29.05,57.75,28.36,57.89,28.42,57.29Z"/><path class="cls-2" d="M27.87,52.48c.1,1.16.19,2.32.28,3.48A4,4,0,0,1,27.87,52.48Z"/><path class="cls-2" d="M28.15,56c.41.38.23.89.27,1.34C27.94,56.92,28.23,56.4,28.15,56Z"/><path class="cls-1" d="M47.93,46.25l0-.45,3.54,0,0,.46Z"/><path class="cls-9" d="M75.05,46c-.11.7-.65.76-1.21.8C74.05,46.28,74.54,46.15,75.05,46Z"/><path class="cls-9" d="M75.57,45.51c.45.54,0,.49-.34.53Z"/><path class="cls-9" d="M39.94,32.66v-.82c1.19-.49,2.45-.11,3.68-.25.91-.1,1.86.21,2.75-.23H48c-.28.28-.61.53-.52,1l-6.14.35Z"/><path class="cls-3" d="M63,53.27l.26,0c0,1.06,0,2.13,0,3.19,0,.78-.21,1.11-1,1.1-3.11,0-6.22,0-9.33,0-.86,0-1.28-.37-1.15-1.2.17-1-.53-2.22.54-3.1Z"/><path class="cls-2" d="M63,53.27H52.27c0-.09,0-.18,0-.27H63Z"/></g></g></svg>