<svg xmlns="http://www.w3.org/2000/svg" viewBox="0 0 113.86 85.42"><defs><style>.cls-1{fill:#d5d6d6;}.cls-2{fill:#d6d5d7;}.cls-3{fill:#fff;}.cls-4{fill:#b7b7bc;}.cls-5{fill:#d0d1d4;}.cls-6{fill:#a8acb1;}.cls-7{fill:#eaebed;}.cls-8{fill:#fbfbfc;}.cls-9{fill:#fefefe;}.cls-10{fill:#f7f7f8;}.cls-11{fill:#fafafa;}.cls-12{fill:#e1e0e1;}.cls-13{fill:#cfcfd1;}.cls-14{fill:#e2e2e3;}.cls-15{fill:#ddd;}.cls-16{fill:#f0f0f0;}</style></defs><title>Recurso 5</title><g id="Capa_2" data-name="Capa 2"><g id="Capa_1-2" data-name="Capa 1"><path class="cls-1" d="M105,0a8.58,8.58,0,0,1,8.84,8.82V76.29c0,4.44-2,7.31-6.17,8.82a6,6,0,0,1-2.1.31H8.38A8.68,8.68,0,0,1,0,77C0,54.12,0,31.24,0,8.36A8.53,8.53,0,0,1,8.32,0c.8,0,1.61,0,2.41,0a.65.65,0,0,1,0,.76c-.59,0-1.17,0-1.75,0A8.28,8.28,0,0,0,.79,9.05c.1,8.48,0,17,0,25.44q0,20.88,0,41.76A8.08,8.08,0,0,0,8.74,84.6q48.21,0,96.43,0a7.94,7.94,0,0,0,7.89-7.94q0-33.74,0-67.46a8.11,8.11,0,0,0-8-8.4Z"/><path class="cls-2" d="M105,0V.79L26.51.81,10.73.79a.65.65,0,0,0,0-.76L74,0Z"/><path class="cls-3" d="M10.73.79l15.78,0L105,.79a8.11,8.11,0,0,1,8,8.4q0,33.72,0,67.46a7.94,7.94,0,0,1-7.89,7.94q-48.23.06-96.43,0A8.08,8.08,0,0,1,.82,76.25q0-20.88,0-41.76c0-8.48.07-17,0-25.44A8.28,8.28,0,0,1,9,.81C9.56.82,10.14.79,10.73.79Zm58.92,52h1.09c1.32-.08,2.7.39,4-.4a18.61,18.61,0,0,0,2.73,3c1.92,1.4,5.56,1.7,7-.23a1.6,1.6,0,0,0,0-.21c1.23-.24,1.64-1.23,2.08-2.2l1-.27c.7.75,1.56.48,2.38.34.61-.11,1.22-.26,1.82-.4,2.43-.52,4.92-.85,7.12-2.14a3,3,0,0,0,1.59-3.44c-.55-3.05-1.44-6-1.87-9.1-.28-2-.86-2.34-2.86-2.36s-4.14.17-6.09-.53c-3.19-1.14-6.33-2.4-9.46-3.69a33.1,33.1,0,0,0-12-2.68,86.79,86.79,0,0,0-11.63.26c-2.77.32-5.56.47-8.21,1.61A107.67,107.67,0,0,0,38,35.87,7.26,7.26,0,0,1,34.92,37a84.1,84.1,0,0,0-13,1.61c-2.74.63-5.56,1.25-7.06,4-1.15,2.13-2.59,4.25-1,6.83.16.25,0,.69,0,1a.74.74,0,0,0-.48,1A1.41,1.41,0,0,0,15,52.5c2.65,1.15,5.51,1,8.29,1.27.59.07,1.16-.19,1-1l.33,0a5.09,5.09,0,0,0,1.65,2.36,6.46,6.46,0,0,0,9.9-1.86c.24-.42.37-1,1.05-.75,1.14.54,2.34.18,3.51.23H69.65Z"/><path class="cls-4" d="M74.69,52.37c-1.25.79-2.63.32-4,.4l0-.52c.8,0,1.6,0,2.4,0,.54,0,.85-.17.81-.76a13.27,13.27,0,0,1,.88-5.06,1.11,1.11,0,0,0,.49-.84,1.5,1.5,0,0,0,.31-.24c1.85-2.83,6.11-3.53,9.26-1.43a2.2,2.2,0,0,0,2.18.36c0,.16,0,.31,0,.47-.61.15-.49.41-.22.85a5.26,5.26,0,0,1,1.1,2.38.5.5,0,0,0,.17.55c0,.53,0,1.06.07,1.59a7.41,7.41,0,0,1-.17,1c-.28.87.31,1.14.9,1,3.12-.66,6.32-1,9.28-2.36a2.37,2.37,0,0,0,1.51-2.51c-.06-3-1.5-5.62-1.87-8.51,0-.13,0-.27,0-.4l0-.6a1.42,1.42,0,0,0-1.52-1.45,10,10,0,0,0-2-.12H93l-.82.16a3.45,3.45,0,0,0-1.59-.23C87.74,35,84.91,34,82.1,32.84c-3.23-1.26-6.42-2.71-9.89-3.1a90.33,90.33,0,0,0-16.93,0,18.93,18.93,0,0,0-5.11.86C45.35,32.39,41,35.08,36.6,37.69l-.43.06c-4,.47-8,.53-11.87,1.34-2.5.52-5.11.75-7.26,2.37A6.52,6.52,0,0,0,14.65,45a.92.92,0,0,0-.17.81A1.17,1.17,0,0,0,14,47.13a1.47,1.47,0,0,0,.17,1.12l.5.51.17,1.58a1.07,1.07,0,0,1-.85.6l-.06-.39c0-.36.14-.8,0-1-1.58-2.58-.14-4.7,1-6.83,1.5-2.78,4.32-3.4,7.06-4a84.1,84.1,0,0,1,13-1.61A7.26,7.26,0,0,0,38,35.87a107.67,107.67,0,0,1,10.34-5.51c2.65-1.14,5.44-1.29,8.21-1.61a86.79,86.79,0,0,1,11.63-.26,33.1,33.1,0,0,1,12,2.68c3.13,1.29,6.27,2.55,9.46,3.69,1.95.7,4,.52,6.09.53s2.58.38,2.86,2.36c.43,3.08,1.32,6,1.87,9.1a3,3,0,0,1-1.59,3.44c-2.2,1.29-4.69,1.62-7.12,2.14-.6.14-1.21.29-1.82.4-.82.14-1.68.41-2.38-.34a2.42,2.42,0,0,1-.12-1.92c.47-2.27-1-5.19-3-5.92-.58-.91-1.56-.9-2.46-1.09a3.85,3.85,0,0,0-3.78.61h0a.6.6,0,0,0-.6.26.41.41,0,0,0-.19,0,.48.48,0,0,0-.28.53h0A1.22,1.22,0,0,0,76,46.06c-.41.36-.92.7-.42,1.35-.25,1.14-.87,2.22-.39,3.44-.4.07-.38-.41-.67-.53A3.85,3.85,0,0,0,74.69,52.37Z"/><path class="cls-4" d="M40.72,52.76c-1.17,0-2.37.31-3.51-.23.19-2.55-.08-5-1.91-7-.65-.7-1.35-1.67-2.61-1.08a7.82,7.82,0,0,0-4.29,0c-.86-.77-1.58-.07-2.07.42a7.17,7.17,0,0,0-2.45,5c0,1-.26,2,.4,2.91.18.83-.39,1.09-1,1-2.78-.32-5.64-.12-8.29-1.27V52l7.07.93c.46.06,1.23.31,1.3-.11s.28-1.36-.59-1.66l.29-.52a3.8,3.8,0,0,0,.19-2.16,1.77,1.77,0,0,0,.4-1.07,11.14,11.14,0,0,1,1.78-2.64,7.68,7.68,0,0,1,8.29-1c3.05,1.29,4,4.06,4,7.21,0,1.38,0,1.46,1.46,1.08.22-.05.44-.07.66-.1l.85.34Z"/><path class="cls-5" d="M32.69,44.5c1.26-.59,2,.38,2.61,1.08,1.83,2,2.1,4.4,1.91,7-.68-.21-.81.33-1.05.75a6.46,6.46,0,0,1-9.9,1.86,5.09,5.09,0,0,1-1.65-2.36c-.24-1-.49-2-.73-2.94a7.17,7.17,0,0,1,2.45-5c.49-.49,1.21-1.19,2.07-.42l-1.18.84a5.84,5.84,0,0,0,6.13,9.93,5.73,5.73,0,0,0,.22-10A2.29,2.29,0,0,1,32.69,44.5Z"/><path class="cls-6" d="M40.72,52.76c0-.16,0-.33,0-.5l1.32,0,22,0,3.47.06v.52Z"/><path class="cls-1" d="M74.69,52.37a3.85,3.85,0,0,1-.13-2c.29.12.27.6.67.53,1,4.34,4.77,6.06,8.89,4l.29.27c-1.43,1.93-5.07,1.63-7,.23A18.61,18.61,0,0,1,74.69,52.37Z"/><path class="cls-7" d="M84.47,44.65c2,.73,3.47,3.65,3,5.92a2.42,2.42,0,0,0,.12,1.92l-1,.27c0-.27,0-.54,0-.82h0a5,5,0,0,0-1.07-5.89h0a.46.46,0,0,0-.54-.27h0c.08-.49-.39-.69-.54-1.07Z"/><path class="cls-5" d="M86.53,51.94c0,.28,0,.55,0,.82-.44,1-.85,2-2.08,2.2l-.1-.1C85.3,54.05,85.65,52.8,86.53,51.94Z"/><path class="cls-6" d="M15,52v.51a1.41,1.41,0,0,1-1.57-.91.74.74,0,0,1,.48-1l.06.39C13.79,51.8,14.62,51.68,15,52Z"/><path class="cls-4" d="M67.52,52.77v-.52h2.16l0,.51Z"/><path class="cls-7" d="M23.88,49.84c.24,1,.49,2,.73,2.94l-.33,0C23.62,51.85,23.89,50.83,23.88,49.84Z"/><path class="cls-6" d="M69.65,52.77l0-.51h1l0,.52Z"/><path class="cls-5" d="M84.41,55.17l-.29-.27.24,0,.1.1A1.6,1.6,0,0,1,84.41,55.17Z"/><path class="cls-8" d="M87.05,44.23a2.2,2.2,0,0,1-2.18-.36c-3.15-2.1-7.41-1.4-9.26,1.43a1.5,1.5,0,0,1-.31.24l0,0c.09-.44.18-.89.28-1.33a.58.58,0,0,0,.27-.53c1.09-.48,1.28-1.64,1.74-2.52.65-1.22,1.88-2.13,2-3.64a1.34,1.34,0,0,0,.8-1.09v-.2c.94-2,.68-2.82-1-3.3a22.3,22.3,0,0,0-6.46-1.82c-.17-.25-.44-.23-.7-.28a51.44,51.44,0,0,0-10-.59,1.12,1.12,0,0,0-1-.2c-2.56.36-5.19.21-7.71,1-1.41.41-3,.27-4.18,1.4A7.42,7.42,0,0,0,45,35.08a.52.52,0,0,0-.57.5c-1.09.21-2.12.49-2.12,1.91s.64,1.68,2.42,1.07a2.11,2.11,0,0,0,1.34-.8c.69,1.13,1.65-.1,2.42.27.12.76.73.53,1.16.52A53.66,53.66,0,0,0,57,38.34a6.62,6.62,0,0,1,2.77.08c.7.2,0,1.28.56,1.75a4.65,4.65,0,0,0-.56,1.72c0,1.89.1,3.79.16,5.67,0,1.62-.55,1.79-1.69,1.92l-.4.05-14.12.54c-.58-1.53.65-1.39,1.49-1.6,2.18-.53,4.36.2,6.56.16a41.69,41.69,0,0,1,5.81-.18c.58.06.94-.24.69-.93a7.13,7.13,0,0,1-.13-4.19c.08-.33.11-.87-.08-1-.86-.69-2.24.27-3-.9-.11-.16-.26.28-.41.4-.49.39-2.31,0-2.86-.56.45,0,.89,0,1.34,0,.24,0,.45-.1.47-.37s-.2-.38-.44-.39-.54,0-.8,0a54.62,54.62,0,0,1-8.76.38c-.68-.06-.62.24-.65.65a1.51,1.51,0,0,1-.45.24c-1.56.24-2.07,1-2,2.49.13,2,.7,4,.28,6.07l-.82.06c-.94-1-.67-2.31-.83-3.52A12,12,0,0,1,41,37.35c-1.37.47-1.47,1.62-2.13,2.29a.46.46,0,0,1-.23-.56c.36-1.06-.17-1.36-1.12-1.33a7.22,7.22,0,0,1-.92-.06c4.4-2.61,8.75-5.3,13.57-7.08a18.93,18.93,0,0,1,5.11-.86,90.33,90.33,0,0,1,16.93,0c3.47.39,6.66,1.84,9.89,3.1C84.91,34,87.74,35,90.56,36.11c-.12.89-.79,1.41-1.47,1C88,36.56,86.78,37,85.8,36.4a1.47,1.47,0,0,0-2.23.57c-.71,0-1.42,0-2.13,0a1.29,1.29,0,0,0-1.23,1c-.08.5-.06,1.18.7,1.35h0a.58.58,0,0,0,.28.56,2.22,2.22,0,0,0,2.95,0v-.28h0c.69-.11.48-.66.53-1.08a.72.72,0,0,0,.81,0,15.37,15.37,0,0,1,.29,2.36A1,1,0,0,0,86.69,42a16.68,16.68,0,0,0,3.67,0c.43-.09.81-.31.87-.7a1,1,0,0,0-.49-1.13c-1.16-.59-.52-1.12.06-1.65A4.25,4.25,0,0,0,94,41h0l.27.81h0a2.28,2.28,0,0,0-1.89.51c-.4,0-.84,0-.8.64l-.24.2c-.17-.37-.4-.59-.83-.38A23.89,23.89,0,0,0,87.05,44.23Zm-1.32-1.12c.1.11.15.35.35.1l-.35-.09C85.37,41.63,84,41.76,83,41.49a6.54,6.54,0,0,0-5,.36c1,.39,1.61-.09,2.31-.07A12.86,12.86,0,0,1,85.73,43.11ZM59.26,39.78c-1.38-.13-2.78.39-4.17-.07-.07,0-.26.1-.28.18a.37.37,0,0,0,.36.46C56.55,40.42,58,40.69,59.26,39.78Z"/><path class="cls-9" d="M91.38,43.12l.24-.2.82-.33a6.13,6.13,0,0,0,1.87-.82h.79c.39,1.17,1.52,1.21,2.42,1.59,0,.76,0,1.52,0,2.27-.2,2.52-.45,2.8-2.91,3.41a23,23,0,0,1-5.88,1l-.52,0c0-.53-.05-1.06-.07-1.59.43-.34.2-.47-.17-.55a5.26,5.26,0,0,0-1.1-2.38c-.27-.44-.39-.7.22-.85A22.8,22.8,0,0,0,91.38,43.12Z"/><path class="cls-10" d="M97.52,43.38c-.9-.38-2-.42-2.42-1.59.2-1-.87-.33-1.07-.82h0c-.29-.62-1.15-.67-1.35-1.37h.53a16.47,16.47,0,0,0,3.58-.12V39.1H93.23c-.12-.05-.32-.07-.35-.15-.13-.44.23-.38.46-.39a26.91,26.91,0,0,1,4.49.2c.37,2.89,1.81,5.54,1.87,8.51a2.37,2.37,0,0,1-1.51,2.51c-3,1.35-6.16,1.7-9.28,2.36-.59.12-1.18-.15-.9-1a7.41,7.41,0,0,0,.17-1l.52,0a.5.5,0,0,0,.63.51,31.65,31.65,0,0,0,7.53-1.45,1,1,0,0,0,.63-.81c.19-1.35.39-2.71.56-4.06C98.09,43.88,98.11,43.44,97.52,43.38Z"/><path class="cls-9" d="M23.66,47.4a1.77,1.77,0,0,1-.4,1.07c-1.26.27-1,1.28-1,2.13-1.35-.09-2.66.44-4,.28v-.54c1.14-.32,1.36-.88.69-1.94a1.6,1.6,0,0,0-2.22-.8A3.58,3.58,0,0,1,15,48c-.2-.45-.4-.91-1-.82a1.17,1.17,0,0,1,.49-1.34l.8-.53a.49.49,0,0,0,.54-.52l1.33-.29c.54.7.78.65,1.34-.27,1.39,0,2.64-.69,4-.78,1.13,1.35.57,2.6-1.32,2.93-.68.16-2-.34-1.95.33,0,1,1.27.26,1.95.47h1.6Z"/><path class="cls-11" d="M84.36,54.86l-.24,0c-4.12,2-7.9.29-8.89-4-.48-1.22.14-2.3.39-3.44a.69.69,0,0,0,.5-.37,5.89,5.89,0,0,1,4.07-2.71c1.32-.27,2.41.61,3.66.4h0c0,.71.63.79,1.07,1.07h0a.48.48,0,0,0,.54.27h0c.67,1.91,1.4,3.8,1.07,5.89h0C85.65,52.8,85.3,54.05,84.36,54.86Zm-7.75-5c0,3,1.69,5,4.33,5a4.41,4.41,0,0,0,4.54-4.69c0-2.93-1.79-4.86-4.41-5C79,45.12,76.33,47.34,76.61,49.87Z"/><path class="cls-8" d="M17,41.46c2.15-1.62,4.76-1.85,7.26-2.37,3.91-.81,7.92-.87,11.87-1.34.54,2.07.44,2.25-1.08,1.88.1-.85-.47-.83-1-.79a35.92,35.92,0,0,0-6.19.8c-1,0-1.95.65-3,.37a2.42,2.42,0,0,0-2.12.42L19.84,41l-2.4.54Z"/><path class="cls-3" d="M35.09,39.63c1.52.37,1.62.19,1.08-1.88l.43-.06a7.22,7.22,0,0,0,.92.06c.95,0,1.48.27,1.12,1.33a.46.46,0,0,0,.23.56c0,.29,0,.6-.25.81-1-.11-1.78,0-2.24,1.09-.31.73-3.33.87-3.88.26a1,1,0,0,1-.18-1.33c.16-.27.38-.49.37-.83Z"/><path class="cls-8" d="M70.72,52.25H67.51L64,52.19v-.51h1.31c1.16,0,2.31.07,3.46,0,.89-.08,1.89,0,2.51-.92.84-1.18,1.64-2.39,2.5-3.56.24-.33.37-.85.93-.85l.06.05a13.27,13.27,0,0,0-.88,5.06c0,.59-.27.77-.81.76C72.32,52.2,71.52,52.23,70.72,52.25Z"/><path class="cls-10" d="M18.23,50.34v.54c-.31.07-.71-.15-1.05.54,2-.17,3.78.32,5.6-.27.87.3.67,1.16.59,1.66s-.84.17-1.3.11L15,52c-.38-.31-1.21-.19-1-1.05a1.07,1.07,0,0,0,.85-.6h.45C16.26,51.08,17.24,50.09,18.23,50.34Z"/><path class="cls-11" d="M83.57,37a1.47,1.47,0,0,1,2.23-.57c1,.58,2.21.16,3.29.75.68.37,1.35-.15,1.47-1a3.45,3.45,0,0,1,1.59.23c-.08.81,1.07.66,1.08,1.39l-1.07,0a2.17,2.17,0,0,0-1.34.27,17.56,17.56,0,0,0-4.22-.27c-.59,0-1.08.08-1.14.8a.72.72,0,0,1-.81,0C84.74,37.72,84.23,37.29,83.57,37Z"/><path class="cls-10" d="M17,41.46l.4.06c.27,1.08.93.11,1.39.26s.77-.16.92.29a.74.74,0,0,1-.58.92c-.83.28-1.71.45-2.56.67-.55.14-1.15.27-.79,1.08a.49.49,0,0,1-.54.52L14.65,45A6.52,6.52,0,0,1,17,41.46Z"/><path class="cls-12" d="M18.23,50.34c-1-.25-2,.74-3,0,.4-.09,1.22.21,1-.6-.19-.57-.46-1.61-1.57-1l-.5-.51c.3-.07.65,0,.86-.3a3.58,3.58,0,0,0,1.68-.35,1.6,1.6,0,0,1,2.22.8C19.59,49.46,19.37,50,18.23,50.34Zm-.66-.8c.38,0,.87.09.89-.5s-.47-.88-1.05-.83c-.38,0-1-.23-1,.48S17,49.54,17.57,49.54Z"/><path class="cls-8" d="M93.23,37.73c0-.73-1.16-.58-1.08-1.39l.82-.16c.44.81.88.81,1.33,0a10,10,0,0,1,2,.12,1.42,1.42,0,0,1,1.52,1.45H97Z"/><path class="cls-1" d="M93.23,37.73l3.73,0c.05.54.49.51.86.59,0,.13,0,.27,0,.4a26.91,26.91,0,0,0-4.49-.2c-.23,0-.59-.05-.46.39,0,.08.23.1.35.15v.51h-.53c-.6-.5-1.15-1-.53-1.85Z"/><path class="cls-5" d="M83.85,44.73c-1.25.21-2.34-.67-3.66-.4A5.89,5.89,0,0,0,76.12,47a.69.69,0,0,1-.5.37c-.5-.65,0-1,.43-1.35A2.31,2.31,0,0,0,77.15,45h0a.51.51,0,0,0,.28-.53.41.41,0,0,1,.19,0c.25,0,.48,0,.6-.26h0A20.56,20.56,0,0,1,82,43.9C82.63,44.12,83.36,44.15,83.85,44.73Z"/><path class="cls-13" d="M91.38,43.12a22.8,22.8,0,0,1-4.32,1.58c0-.16,0-.31,0-.47a23.89,23.89,0,0,1,3.5-1.49C91,42.53,91.21,42.75,91.38,43.12Z"/><path class="cls-11" d="M14.66,48.76c1.11-.63,1.38.41,1.57,1,.27.81-.55.51-1,.6h-.45C14.78,49.81,14.72,49.28,14.66,48.76Z"/><path class="cls-14" d="M82,43.9a20.56,20.56,0,0,0-3.76.27A3.85,3.85,0,0,1,82,43.56C82,43.68,82,43.79,82,43.9Z"/><path class="cls-7" d="M82,43.9c0-.11,0-.22,0-.34.9.19,1.88.18,2.46,1.09l-.09.08h-.53C83.36,44.15,82.63,44.12,82,43.9Z"/><path class="cls-8" d="M15,48c-.21.32-.56.23-.86.3A1.47,1.47,0,0,1,14,47.13C14.62,47,14.82,47.5,15,48Z"/><path class="cls-11" d="M94.3,36.19c-.45.8-.89.8-1.33,0Z"/><path class="cls-14" d="M77.15,45a2.31,2.31,0,0,1-1.1,1.08A1.2,1.2,0,0,1,77.15,45Z"/><path class="cls-14" d="M14.65,45l.63.28-.8.53A.92.92,0,0,1,14.65,45Z"/><path class="cls-10" d="M97.82,38.36c-.37-.08-.81,0-.86-.59h.83Z"/><path class="cls-8" d="M75.3,45.54a1.11,1.11,0,0,1-.49.84l-.06-.05c0-.39,0-.78.53-.81Z"/><path class="cls-10" d="M87.94,47.93c.37.08.6.21.17.55A.5.5,0,0,1,87.94,47.93Z"/><path class="cls-14" d="M77.43,44.45a.51.51,0,0,1-.28.53A.48.48,0,0,1,77.43,44.45Z"/><path class="cls-14" d="M78.22,44.18c-.12.26-.35.28-.6.26A.6.6,0,0,1,78.22,44.18Z"/><path class="cls-8" d="M32.69,39.64c0,.34-.21.56-.37.83a1,1,0,0,0,.18,1.33c.55.61,3.57.47,3.88-.26.46-1.11,1.26-1.2,2.24-1.09.05,2.14-.67,4.27,0,6.41.1,1.78-.16,3.64,1.31,5.06-.22,0-.44,0-.66.1-1.41.38-1.46.3-1.46-1.08,0-3.15-1-5.92-4-7.21a7.68,7.68,0,0,0-8.29,1,11.14,11.14,0,0,0-1.78,2.64l-.88-.27a12.29,12.29,0,0,0,1.07-2.4A9.08,9.08,0,0,1,31.26,42c.07,0,.15-.17.24-.27a7.11,7.11,0,0,0-7.11,1.93L23,43.38l.3-1.05a.57.57,0,0,0,.52-.27c.23-.12.6-.17.68-.35.67-1.51,2.05-1.41,3.33-1.55C29.49,40.06,31.05,39.48,32.69,39.64Z"/><path class="cls-11" d="M32.69,44.5a2.29,2.29,0,0,0,.88.78,5.73,5.73,0,0,1-.22,10,5.84,5.84,0,0,1-6.13-9.93l1.18-.84A7.82,7.82,0,0,1,32.69,44.5Zm-2.41,1a4.42,4.42,0,0,0-4.56,4.67,4.7,4.7,0,0,0,4.62,4.89c2.47.14,4.74-2.32,4.75-4.8A4.74,4.74,0,0,0,30.28,45.52Z"/><path class="cls-2" d="M39.89,51.92c-1.47-1.42-1.21-3.28-1.31-5.06h.5c.16,1.21-.11,2.51.83,3.52a1.77,1.77,0,0,1,0,.23c.08.93.79.8,1.4.8H60a.54.54,0,0,0,.55-.23,18.7,18.7,0,0,0,2.7.26c.62,0,1.31-.27,1.87.25H64q-10.35,0-20.68,0c-.46,0-1.13-.3-1.3.52l-1.32,0Z"/><path class="cls-14" d="M22.78,51.15c-1.82.59-3.64.1-5.6.27.34-.69.74-.47,1.05-.54,1.35.16,2.66-.37,4-.28l.83,0Z"/><path class="cls-8" d="M23.07,50.63l-.83,0c0-.85-.24-1.86,1-2.13A3.8,3.8,0,0,1,23.07,50.63Z"/><path class="cls-7" d="M42.06,52.22c.17-.82.84-.52,1.3-.52q10.34,0,20.68,0v.51Z"/><path class="cls-5" d="M86.53,52c.33-2.09-.4-4-1.07-5.89A5,5,0,0,1,86.53,52Z"/><path class="cls-5" d="M83.85,44.73h.53c.15.38.62.58.54,1.07C84.48,45.52,83.85,45.44,83.85,44.73Z"/><path class="cls-5" d="M85.46,46.07a.48.48,0,0,1-.54-.27A.46.46,0,0,1,85.46,46.07Z"/><path class="cls-3" d="M51.71,41.24c.55.58,2.37.95,2.86.56.15-.12.3-.56.41-.4.79,1.17,2.17.21,3,.9.19.16.16.7.08,1a7.13,7.13,0,0,0,.13,4.19c.25.69-.11,1-.69.93a41.69,41.69,0,0,0-5.81.18c-2.2,0-4.38-.69-6.56-.16-.84.21-2.07.07-1.49,1.6-1-.09-1.93.44-2.94.24.42-2-.15-4.05-.28-6.07-.1-1.52.41-2.25,2-2.49a1.51,1.51,0,0,0,.45-.24,32.66,32.66,0,0,0,6.7-.25c.45.82.9.83,1.34,0Z"/><path class="cls-3" d="M48.51,38c-.77-.37-1.73.86-2.42-.27.44-.7,0-1.26-.28-1.85,0-.36,0-.73,0-1.09,1.17-.34,1.9-1.54,3.2-1.62.4,0,.79,0,.81-.54a9.31,9.31,0,0,1,3.75-1.07c.37.41.48.14.54-.21l5.29-.56c1.64-.19,1.8,0,1.42,1.58,0,1.08-.6,2.11-.28,3.22l-.27,1.87C56.36,37.77,52.45,38.06,48.51,38Zm.67-3.42c-.1-.06-.23-.2-.37-.22s-.27.17-.26.35.18.29.36.29S49.21,34.89,49.18,34.61Z"/><path class="cls-3" d="M85.46,38.56c.06-.72.55-.81,1.14-.8a17.56,17.56,0,0,1,4.22.27l0,.53c-.58.53-1.22,1.06-.06,1.65a1,1,0,0,1,.49,1.13c-.06.39-.44.61-.87.7a16.68,16.68,0,0,1-3.67,0,1,1,0,0,1-.94-1.08A15.37,15.37,0,0,0,85.46,38.56Z"/><path class="cls-12" d="M40.73,50.31c1,.2,2-.33,2.94-.24l14.12-.54.4-.05c1.14-.13,1.74-.3,1.69-1.92-.06-1.88-.12-3.78-.16-5.67a4.65,4.65,0,0,1,.56-1.72h.26a8.23,8.23,0,0,1,0,1.72,23,23,0,0,0-.23,5c0,2.37.41,2.66,2.76,2.29,1.56-.24,3.15-.32,4.73-.47l.27.52c-.66.39-1.4.19-2.09.28a36.71,36.71,0,0,0-5.13.53H60c-2.12,0-4.24.13-6.35.2-3.54.1-7.07.48-10.62.36-1,0-2.08.47-3.12,0a1.77,1.77,0,0,0,0-.23Z"/><path class="cls-2" d="M60.83,32.4c.38-1.59.22-1.77-1.42-1.58l-5.29.56a.5.5,0,0,0-.54.21,9.31,9.31,0,0,0-3.75,1.07l-.53,0,0-.3c1.17-1.13,2.77-1,4.18-1.4,2.52-.75,5.15-.6,7.71-1a1.12,1.12,0,0,1,1,.2c0,.11,0,.23,0,.34a1.51,1.51,0,0,0-.76,1.31l0,.54Z"/><path class="cls-7" d="M75.28,45.52c-.54,0-.54.42-.53.81-.56,0-.69.52-.93.85-.86,1.17-1.66,2.38-2.5,3.56-.62.88-1.62.84-2.51.92-1.15.09-2.3,0-3.46,0,.59-1,1.71-.8,2.46-.73,2.35.21,3.46-1.1,4.58-2.84.9-1.4,1.6-3,3.16-3.93h0Z"/><path class="cls-15" d="M60.54,40.17h-.26c-.6-.47.14-1.55-.56-1.75A6.62,6.62,0,0,0,57,38.34a53.66,53.66,0,0,1-7.28.21c-.43,0-1,.24-1.16-.52,3.94,0,7.85-.26,11.77-.54-.29.58,0,.78.54.81Z"/><path class="cls-11" d="M84.13,39.91a2.22,2.22,0,0,1-2.95,0,.56.56,0,0,0-.28-.56h0c.12-.54-.37-1.28.47-1.58,1.7-.61,2.71.09,2.74,1.85h0C83.93,39.72,83.94,39.81,84.13,39.91Z"/><path class="cls-14" d="M51.71,41.24H49.57a32.66,32.66,0,0,1-6.7.25c0-.41,0-.71.65-.65a54.62,54.62,0,0,0,8.76-.38c.26,0,.53,0,.8,0s.45.12.44.39-.23.36-.47.37C52.6,41.24,52.16,41.24,51.71,41.24Z"/><path class="cls-13" d="M62.16,30.56c0-.11,0-.23,0-.34a51.44,51.44,0,0,1,10,.59c.26.05.53,0,.7.28,0,.17,0,.33,0,.49l-2.15-.23L67.27,31c-.41-.34-.9-.18-1.36-.21-.72,0-1.4-.38-2.14-.19Z"/><path class="cls-13" d="M39.08,46.85h-.5c-.63-2.14.09-4.27,0-6.41.27-.21.22-.52.25-.81.66-.67.76-1.82,2.13-2.29A12,12,0,0,0,39.08,46.85Z"/><path class="cls-1" d="M84.12,39.64c0-1.76-1-2.46-2.74-1.85-.84.3-.35,1-.47,1.58-.76-.17-.78-.85-.7-1.35a1.29,1.29,0,0,1,1.23-1c.71,0,1.42,0,2.13,0,.66.32,1.17.75,1.08,1.59C84.6,39,84.81,39.53,84.12,39.64Z"/><path class="cls-4" d="M72.88,31.58v-.49a22,22,0,0,1,6.46,1.83,1,1,0,0,1-.58.57l-.49-.09a.46.46,0,0,0-.61-.41c-.94,0-1.69-.76-2.65-.6l-.21,0C74.29,31.77,73.48,31.93,72.88,31.58Z"/><path class="cls-16" d="M79.58,37.5c-.13,1.51-1.36,2.42-2,3.64-.46.88-.65,2-1.74,2.51h-.28a3.86,3.86,0,0,1,.66-1.55,6.76,6.76,0,0,0,1.49-2.73.5.5,0,0,0,.53-.55c.25-.41.65-.77.54-1.33Z"/><path class="cls-13" d="M85.73,43.11a12.86,12.86,0,0,0-5.48-1.33c-.7,0-1.36.46-2.31.07a6.54,6.54,0,0,1,5-.36c1,.27,2.42.14,2.78,1.63Z"/><path class="cls-13" d="M78.75,33.49a1,1,0,0,0,.58-.57c1.73.47,2,1.29,1,3.29-.41-.17-.17-.68-.42-1l-.67,1L79,35.87A1.65,1.65,0,0,0,78.75,33.49Zm1.55,1-.06-.09-.07.07.1.12Z"/><path class="cls-13" d="M45.81,35.91c.28.59.72,1.15.28,1.85a2.11,2.11,0,0,1-1.34.8V38c.39-.27.9-.48.64-1.12-.15-.38-.36-.83-.82-.7-.64.18-1.46.13-1.71,1l-.53.28c0-1.42,1-1.7,2.12-1.91H45Z"/><path class="cls-14" d="M79,35.87l.27.27c0,.2-.2.48-.12.59s.32,0,.49-.13a3.47,3.47,0,0,1,.72-.19,1.34,1.34,0,0,1-.8,1.09h-.81c-.9-.31-1.79.6-2.68,0V37A2.81,2.81,0,0,0,79,35.87Z"/><path class="cls-12" d="M90.8,38.56l0-.53a2.17,2.17,0,0,1,1.34-.27c-.62.84-.07,1.35.53,1.85.2.7,1.06.75,1.35,1.37A4.25,4.25,0,0,1,90.8,38.56Z"/><path class="cls-14" d="M49.27,32.38l0,.3L49,33.2c-1.3.08-2,1.28-3.2,1.62l-.81.26h0A7.42,7.42,0,0,1,49.27,32.38Z"/><path class="cls-2" d="M59.26,39.78c-1.29.91-2.71.64-4.09.57a.37.37,0,0,1-.36-.46c0-.08.21-.21.28-.18C56.48,40.17,57.88,39.65,59.26,39.78Z"/><path class="cls-7" d="M44.75,38v.53c-1.78.61-2.29.38-2.42-1.07l.53-.28C42.82,39,44,38.07,44.75,38Z"/><path class="cls-10" d="M80.38,36.41a3.47,3.47,0,0,0-.72.19c-.17.09-.31.38-.49.13s.08-.39.12-.59c.2-.28.4-.55.67-1,.25.34,0,.85.42,1Z"/><path class="cls-12" d="M94.31,41.77a6.13,6.13,0,0,1-1.87.82c0-.1,0-.21,0-.31A2.28,2.28,0,0,1,94.31,41.77Z"/><path class="cls-12" d="M94,41c.2.49,1.27-.17,1.07.82h-.8Z"/><path class="cls-13" d="M92.42,42.28c0,.1,0,.21,0,.31l-.82.33C91.58,42.33,92,42.32,92.42,42.28Z"/><path class="cls-14" d="M45,35.59h-.59a.52.52,0,0,1,.57-.5h0Z"/><path class="cls-7" d="M75.55,43.65h.28a.59.59,0,0,1-.27.54h0Z"/><path class="cls-13" d="M85.73,43.12l.35.09c-.2.25-.25,0-.35-.1Z"/><path class="cls-1" d="M80.9,39.36a.56.56,0,0,1,.28.56A.58.58,0,0,1,80.9,39.36Z"/><path class="cls-1" d="M84.13,39.91c-.19-.1-.2-.19,0-.28Z"/><path class="cls-15" d="M97.52,43.38c.59.06.57.5.53.9-.17,1.35-.37,2.71-.56,4.06a1,1,0,0,1-.63.81,31.65,31.65,0,0,1-7.53,1.45.5.5,0,0,1-.63-.51,23,23,0,0,0,5.88-1c2.46-.61,2.71-.89,2.91-3.41C97.55,44.9,97.52,44.14,97.52,43.38Z"/><path class="cls-12" d="M93.22,39.61V39.1h3.58v.39A16.47,16.47,0,0,1,93.22,39.61Z"/><path class="cls-14" d="M23.34,42.33,23,43.38l-.54,0c-1.37.09-2.62.77-4,.78-.45.07-1-.17-1.34.27l-1.33.29c-.36-.81.24-.94.79-1.08.85-.22,1.73-.39,2.56-.67a.74.74,0,0,0,.58-.92c-.15-.45-.61-.2-.92-.29s-1.12.82-1.39-.26l2.4-.54c.6,1,1.44.14,2.15.29-.13.49.25.74.52,1a.48.48,0,0,0-.53.54c-.1.07-.37-.12-.29.2l.29-.2a.49.49,0,0,0,.54-.53h.79Z"/><path class="cls-16" d="M22.5,43.4l.54,0,1.35.27c-.15.37-.59.61-.54,1.08a12.29,12.29,0,0,1-1.07,2.4h-1.6v-.8C23.07,46,23.63,44.75,22.5,43.4Z"/><path class="cls-8" d="M21.18,46.33v.8c-.68-.21-1.91.48-1.95-.47C19.2,46,20.5,46.49,21.18,46.33Z"/><path class="cls-8" d="M17.15,44.45c.38-.44.89-.2,1.34-.27C17.93,45.1,17.69,45.15,17.15,44.45Z"/><path class="cls-1" d="M76.61,49.87c-.28-2.53,2.39-4.75,4.46-4.65,2.62.13,4.44,2.06,4.41,5a4.41,4.41,0,0,1-4.54,4.69C78.3,54.86,76.58,52.86,76.61,49.87Zm8.32.46a4.26,4.26,0,0,0-3.83-4.5c-2,0-3.93,2-3.95,4.27s1.78,4.24,3.8,4.18A3.81,3.81,0,0,0,84.93,50.33Z"/><path class="cls-15" d="M32.69,39.64c-1.64-.16-3.2.42-4.82.52v-.52a35.92,35.92,0,0,1,6.19-.8c.56,0,1.13-.06,1,.79Z"/><path class="cls-14" d="M27.87,39.64v.52c-1.28.14-2.66,0-3.33,1.55-.08.18-.45.23-.68.35v0a5.37,5.37,0,0,1,.31-.69c.14-.25.57-.44.33-.75s-.65.12-.95.06-.31.74-.76.31v-.54A2.42,2.42,0,0,1,24.9,40C25.92,40.29,26.86,39.63,27.87,39.64Z"/><path class="cls-13" d="M22.78,40.43V41l-.79.3c-.71-.15-1.55.7-2.15-.29Z"/><path class="cls-9" d="M75.55,43.65v.53c-1.56.9-2.26,2.53-3.16,3.93-1.12,1.74-2.23,3-4.58,2.84-.75-.07-1.87-.25-2.46.73h-.23c-.56-.52-1.25-.26-1.87-.25a18.7,18.7,0,0,1-2.7-.26l.28-1.09A36.71,36.71,0,0,1,66,49.55c.69-.09,1.43.11,2.09-.28a4.5,4.5,0,0,0,3.3-1l-3.57.5c-1.58.15-3.17.23-4.73.47-2.35.37-2.78.08-2.76-2.29a23,23,0,0,1,.23-5,8.23,8.23,0,0,0,0-1.72c.09-.63.18-1.25.28-1.87,2.48-.1,5-.21,7.45-.28a12.52,12.52,0,0,0,2.52-.25h3.15l2.15-.26c.89.59,1.78-.32,2.68,0,.11.56-.29.92-.54,1.33a29.29,29.29,0,0,1-4.39-.14.39.39,0,0,0-.52.28c-.09.4.25.4.5.4H77.7a6.76,6.76,0,0,1-1.49,2.73A3.86,3.86,0,0,0,75.55,43.65Z"/><path class="cls-8" d="M17.57,49.54c-.59,0-1.09-.26-1.14-.85s.6-.45,1-.48c.58-.05,1.08.11,1.05.83S18,49.5,17.57,49.54Z"/><path class="cls-14" d="M23.85,44.73c-.05-.47.39-.71.54-1.08a7.11,7.11,0,0,1,7.11-1.93c-.09.1-.17.28-.24.27A9.08,9.08,0,0,0,23.85,44.73Z"/><path class="cls-14" d="M23.86,42.06a.57.57,0,0,1-.52.27l0,0a.55.55,0,0,1,.54-.27Z"/><path class="cls-5" d="M30.28,45.52a4.74,4.74,0,0,1,4.81,4.76c0,2.48-2.28,4.94-4.75,4.8a4.7,4.7,0,0,1-4.62-4.89A4.42,4.42,0,0,1,30.28,45.52Zm4,4.75a3.92,3.92,0,0,0-4-4.2,4.26,4.26,0,0,0-4.07,4.28,4.13,4.13,0,0,0,4,4A3.85,3.85,0,0,0,34.33,50.27Z"/><path class="cls-8" d="M39.92,50.6c1,.51,2.08,0,3.12,0,3.55.12,7.08-.26,10.62-.36,2.11-.07,4.23-.18,6.35-.2V51.4H41.32C40.71,51.4,40,51.53,39.92,50.6Z"/><path class="cls-7" d="M60,51.4V50.08h.82c-.1.37-.19.73-.28,1.09A.54.54,0,0,1,60,51.4Z"/><path class="cls-8" d="M49.57,41.26h1.34C50.47,42.09,50,42.08,49.57,41.26Z"/><path class="cls-13" d="M70.79,37.77a12.52,12.52,0,0,1-2.52.25c-2.48.07-5,.18-7.45.28-.54,0-.83-.23-.54-.81l.27-1.87h.51a1.79,1.79,0,0,1,0,.4c-.34,1.71-.34,1.8,1.33,1.7,2.35-.13,4.69-.34,7-.26C69.89,37.48,70.42,37.3,70.79,37.77Z"/><path class="cls-15" d="M61.06,35.63h-.51c-.32-1.11.31-2.14.28-3.22h.53c0,.17,0,.35,0,.53C61.27,33.84,61.17,34.73,61.06,35.63Z"/><path class="cls-8" d="M45,35.59l0-.51.81-.26c0,.36,0,.73,0,1.09Z"/><path class="cls-8" d="M49.18,34.61c0,.28,0,.42-.27.42s-.34-.07-.36-.29,0-.38.26-.35S49.08,34.55,49.18,34.61Z"/><path class="cls-8" d="M49,33.2l.28-.52.53,0C49.81,33.22,49.42,33.21,49,33.2Z"/><path class="cls-8" d="M53.58,31.59a.5.5,0,0,1,.54-.21C54.06,31.73,54,32,53.58,31.59Z"/><path class="cls-7" d="M67.78,48.75l3.57-.5a4.5,4.5,0,0,1-3.3,1Z"/><path class="cls-3" d="M61.38,32.94c0-.18,0-.36,0-.53s0-.36,0-.54c.8-.4,2-.1,2.37-1.26.74-.19,1.42.17,2.14.19.33.86.84.62,1.36.21l3.46.34c-.2.66-.32,1.62.4,1.68,1.22.11,2.11,1.15,3.36,1v1.07a6.4,6.4,0,0,0-1.67.42c-.65.13-1.21.78-1.88.57-2.56-.84-5.26,0-7.85-.69-.62-.16-1-.24-.94-.94S62.19,33.15,61.38,32.94Z"/><path class="cls-8" d="M63.77,30.61c-.39,1.16-1.57.86-2.37,1.26a1.51,1.51,0,0,1,.76-1.31Z"/><path class="cls-8" d="M74.49,34c-1.25.17-2.14-.87-3.36-1-.72-.06-.6-1-.4-1.68l2.15.23c.6.35,1.41.19,1.91.79Z"/><path class="cls-8" d="M67.27,31c-.52.41-1,.65-1.36-.21C66.37,30.83,66.86,30.67,67.27,31Z"/><path class="cls-8" d="M79,35.87A2.81,2.81,0,0,1,76.08,37c-.43.05-.87.17-.82-.57a15.5,15.5,0,0,0-.26-4c1-.16,1.71.62,2.65.6.09.31.26.5.61.41l.49.09A1.65,1.65,0,0,1,79,35.87Z"/><path class="cls-15" d="M75,32.39a15.5,15.5,0,0,1,.26,4c-.05.74.39.62.82.57,0,.18,0,.35,0,.52l-2.15.26c.43-.84,1-1.66.55-2.68V34l.3-1.64Z"/><path class="cls-13" d="M78.26,33.4c-.35.09-.52-.1-.61-.41A.46.46,0,0,1,78.26,33.4Z"/><path class="cls-1" d="M77.7,39.37H73.82c-.25,0-.59,0-.5-.4a.39.39,0,0,1,.52-.28,29.29,29.29,0,0,0,4.39.14A.5.5,0,0,1,77.7,39.37Z"/><path class="cls-10" d="M80.3,34.53l0,.1-.1-.12.07-.07Z"/><path class="cls-8" d="M44.75,38c-.77,0-1.93,1-1.89-.82.25-.87,1.07-.82,1.71-1,.46-.13.67.32.82.7C45.65,37.55,45.14,37.76,44.75,38Z"/><path class="cls-16" d="M23.85,42a.55.55,0,0,0-.54.27h-.8c-.27-.3-.65-.55-.52-1l.79-.3c.45.43.39-.38.76-.31s.67-.41.95-.06-.19.5-.33.75A5.37,5.37,0,0,0,23.85,42Z"/><path class="cls-16" d="M22,42.85a.48.48,0,0,1,.53-.54h0a.49.49,0,0,1-.54.53Z"/><path class="cls-16" d="M22,42.85l-.29.2c-.08-.32.19-.13.29-.2Z"/><path class="cls-9" d="M84.93,50.33a3.81,3.81,0,0,1-4,4c-2,.06-3.82-2.06-3.8-4.18s1.93-4.32,3.95-4.27A4.26,4.26,0,0,1,84.93,50.33Z"/><path class="cls-8" d="M74.49,35.08c.4,1-.12,1.84-.55,2.68h-.51a1.34,1.34,0,0,0-2.2,0h-.44c-.37-.47-.9-.29-1.37-.3-2.35-.08-4.69.13-7,.26-1.67.1-1.67,0-1.33-1.7a1.79,1.79,0,0,0,0-.4c.11-.9.21-1.79.32-2.69.81.21.79.88.77,1.5s.32.78.94.94c2.59.68,5.29-.15,7.85.69.67.21,1.23-.44,1.88-.57A6.4,6.4,0,0,1,74.49,35.08Z"/><path class="cls-15" d="M71.23,37.77a1.34,1.34,0,0,1,2.2,0Z"/><path class="cls-9" d="M34.33,50.27a3.85,3.85,0,0,1-4,4.1,4.13,4.13,0,0,1-4-4,4.26,4.26,0,0,1,4.07-4.28A3.92,3.92,0,0,1,34.33,50.27Z"/></g></g></svg>