<svg xmlns="http://www.w3.org/2000/svg" viewBox="0 0 113.9 85.19"><defs><style>.cls-1{fill:#d5d5d8;}.cls-2{fill:#d2d4dc;}.cls-3{fill:#d5d5d5;}.cls-4{fill:#fff;}.cls-5{fill:#b1b2b6;}.cls-6{fill:#adafb3;}.cls-7{fill:#fafafb;}.cls-8{fill:#cccdcf;}.cls-9{fill:#d0d0d2;}.cls-10{fill:#e9eaeb;}.cls-11{fill:#c4c3c3;}.cls-12{fill:#fefefe;}.cls-13{fill:#f7f7f9;}.cls-14{fill:#b8bbbe;}.cls-15{fill:#e0e0e1;}.cls-16{fill:#c9cbcd;}</style></defs><title>Recurso 13</title><g id="Capa_2" data-name="Capa 2"><g id="Capa_1-2" data-name="Capa 1"><path class="cls-1" d="M0,7.26A15,15,0,0,1,1.88,3.34,8.65,8.65,0,0,1,8.71,0H60c14.86,0,29.73.06,44.6,0a9,9,0,0,1,9.28,9.27c-.09,21.74-.05,43.47-.05,65.21h-.77c0-.58,0-1.16,0-1.74q0-31.51,0-63a13.12,13.12,0,0,0-.48-3.41c-.7-2.68-4.24-5.51-7.61-5.49-14.06.06-28.11,0-42.17,0H9.13a8,8,0,0,0-7.06,3.8A8.18,8.18,0,0,0,.79,9.94H0Z"/><path class="cls-2" d="M0,9.94H.79c0,.58,0,1.16,0,1.74V75.85a8.69,8.69,0,0,0,.26,2.64l-.74.27c0-.21-.09-.43-.32-.53Z"/><path class="cls-3" d="M.32,78.76l.74-.27c.06,1.82,1.38,3,2.54,4A9.1,9.1,0,0,0,9.82,84.4q31.62,0,63.22,0c10.54,0,21.08,0,31.61,0a8,8,0,0,0,7.38-4.2,10.53,10.53,0,0,0,1-5.69h.77c.2,2.69-.1,5.27-1.87,7.45a7.86,7.86,0,0,1-6.14,3.24q-48.81,0-97.62,0A8.61,8.61,0,0,1,.32,78.76Z"/><path class="cls-4" d="M113.08,74.48a10.53,10.53,0,0,1-1,5.69,8,8,0,0,1-7.38,4.2c-10.53,0-21.07,0-31.61,0q-31.61,0-63.22,0A9.1,9.1,0,0,1,3.6,82.47c-1.16-1-2.48-2.16-2.54-4A8.69,8.69,0,0,1,.8,75.85V11.68c0-.58,0-1.16,0-1.74a8.18,8.18,0,0,1,1.28-5.3A8,8,0,0,1,9.13.84H62.81c14.06,0,28.11,0,42.17,0,3.37,0,6.91,2.81,7.61,5.49a13.12,13.12,0,0,1,.48,3.41q0,31.51,0,63C113.06,73.32,113.07,73.9,113.08,74.48ZM88.4,38l-1.06-.19A1.74,1.74,0,0,0,86,37.67l-.8-.09A4.72,4.72,0,0,0,83,37.29,14.33,14.33,0,0,1,75,35a76.15,76.15,0,0,0-7.83-4.3C63.75,29,60,28.86,56.27,28.59a73.35,73.35,0,0,0-14.59.3c-3.78.47-7.2,2.23-10.75,3.54-2.82,1-5.46,2.67-8.57,2.83-1.06.06-2.13-.07-3.19,0-2.46,0-2.79.45-3.4,2.84-.4,1.56-.19,3.21-.9,4.7A11.3,11.3,0,0,0,14,47.56a2.67,2.67,0,0,0,1.63,2.64,23.39,23.39,0,0,0,7,2c1.39.23,2.75.87,4.19.25.16,1,.74.15,1.1.26A6.34,6.34,0,0,0,39,53.38a1.53,1.53,0,0,1,1.26-.71,7.11,7.11,0,0,0,.79.1h35.1a1.47,1.47,0,0,0,1.24-.35,1.09,1.09,0,0,1,.83.58,6.18,6.18,0,0,0,4.09,3.28h.15a4.92,4.92,0,0,0,3.28,0,5.94,5.94,0,0,0,4-3.19l.62.5c.74.43,1.48,0,2.21,0a40.64,40.64,0,0,0,7.19-1.06c1.4-.3,1.68-1,1-2.14a1.9,1.9,0,0,1-.2-1.52c1-.87.93-2.5,0-4.07A6.78,6.78,0,0,0,97,40.09a22.72,22.72,0,0,0-7.82-2C89,38,88.7,37.79,88.4,38Z"/><path class="cls-5" d="M26.79,52.49c-1.44.62-2.8,0-4.19-.25a23.39,23.39,0,0,1-7-2A2.67,2.67,0,0,1,14,47.56a11.3,11.3,0,0,1,.92-4.81c.71-1.49.5-3.14.9-4.7.61-2.39.94-2.79,3.4-2.84,1.06,0,2.13.11,3.19,0,3.11-.16,5.75-1.78,8.57-2.83,3.55-1.31,7-3.07,10.75-3.54a73.35,73.35,0,0,1,14.59-.3c3.71.27,7.48.41,10.92,2.15A76.15,76.15,0,0,1,75,35a14.33,14.33,0,0,0,8,2.25,4.72,4.72,0,0,1,2.23.29l0,.51-5.88-.3a15.26,15.26,0,0,1-2.62-.89C75.16,35.63,73.26,35,71.61,34a2.91,2.91,0,0,0-1.93-.79c-1.07-1.23-2.58-1.62-4-2.16a10.09,10.09,0,0,0-3.16-1c-4.68-.82-9.41-.68-14.13-.82a36.74,36.74,0,0,0-16.5,3.76,4.75,4.75,0,0,0-.64.2c-3.79,1.58-7.53,3.41-11.85,2.83-.3,0-.61.13-.92.11-1.4-.07-1.87.72-1.86,2l-.25,1.34-.26,1.86-.07.51-.55,1.66-.24.77a6.81,6.81,0,0,0-.33.73c-.85,2.76-.25,4.19,2.37,5.23a40,40,0,0,0,8,1.84c.77.14,1.46.06,1.09-1.11A7.08,7.08,0,0,1,26.29,49l.09-1c.73-1.63,1.38-3.23,3.11-4.23,2.49-1.43,5.89-1.82,8.31.38l0,.58-.46-.1C36,42.8,31.49,42.86,30,44.43c-2.32,1.29-3.31,3.51-2.84,6.61A1.63,1.63,0,0,1,26.79,52.49Z"/><path class="cls-6" d="M100.56,48.81a1.9,1.9,0,0,0,.2,1.52c.69,1.18.41,1.84-1,2.14a40.64,40.64,0,0,1-7.19,1.06c-.73,0-1.47.44-2.21,0a26.58,26.58,0,0,0,.15-4.46l-.2-.31a3.11,3.11,0,0,0-.56-1.89h0l-.27-.61-.18-.21-.3-.31a1.88,1.88,0,0,0-.88-.86,4.39,4.39,0,0,0-2.66-1.18c-.34,0-.52.12-.58.45L83.59,44a.56.56,0,0,0-.66-.31c-2.18.3-4,1.17-4.88,3.33a8.77,8.77,0,0,0-.68,5.39,1.47,1.47,0,0,1-1.24.35H41a7.11,7.11,0,0,1-.79-.1c0-.13-.05-.27-.07-.41l.32-.3c.53,0,1.07.07,1.6.07H66.41c3,0,6,0,9.08,0,.81,0,1.21-.14,1.2-1.09a8.8,8.8,0,0,1,2.45-6.42l1-.62c.67-.23,1.33-.52,2-.68,3.89-.9,7.84.62,8.87,5,.19.81-.2,1.7.37,2.43v.51c-.51,1.76-.47,1.81,1.2,1.65.22,0,.44,0,.66,0q3.21-.48,6.4-1c.34-.05.76-.15.76-.6s-.34-.48-.65-.57a1.13,1.13,0,0,0-.08-.24c.12-.53-.16-1.14.34-1.59Z"/><path class="cls-7" d="M88.14,44.9a1.88,1.88,0,0,1,.88.86l-.09.31A2.11,2.11,0,0,0,89.71,48c.72,3.64-.5,6.29-4,7.77-1,.48-2.26-.14-3.28.5h-.15c0-.77-.7-.85-1.18-1.11-4-2.16-3.68-8.14-.3-10A19.81,19.81,0,0,1,83.59,44l1.31.16.56,0,2.14,1.06C88,45.49,88.16,45.32,88.14,44.9Zm-6.69,1.73h0c-.72,0-1,.6-1.34,1.08A3.92,3.92,0,0,0,79.55,51a4.62,4.62,0,0,0,4.49,4,4.7,4.7,0,0,0,4.64-3.83,4.84,4.84,0,0,0-2.9-5.38c-.42-.15-1-.49-1.1.36a6.68,6.68,0,0,1-2.36,0C81.76,45.83,81.52,46.09,81.45,46.63Z"/><path class="cls-8" d="M40.17,52.26c0,.14,0,.28.07.41a1.53,1.53,0,0,0-1.26.71,6.34,6.34,0,0,1-11.09-.62l-.45-2.2c-.32-1.49.64-3.9,1.77-4.47-1,1.73-1.82,3.48-1.06,5.54s2.06,3.7,4.36,4.07a4.9,4.9,0,0,0,5.6-2.62,5.59,5.59,0,0,0,1.13-3.52c.71,0,.66.48.69,1S39.72,51.73,40.17,52.26Z"/><path class="cls-9" d="M83.59,44a19.81,19.81,0,0,0-2.78,1.18c-3.38,1.84-3.71,7.82.3,10,.48.26,1.16.34,1.18,1.11A6.18,6.18,0,0,1,78.2,53a1.09,1.09,0,0,0-.83-.58A8.77,8.77,0,0,1,78.05,47c.91-2.16,2.7-3,4.88-3.33A.56.56,0,0,1,83.59,44Z"/><path class="cls-6" d="M89.22,38.1a22.72,22.72,0,0,1,7.82,2,6.78,6.78,0,0,1,3.48,4.65l-.39,0-.22,0a8.24,8.24,0,0,0-1.79-2.93c-.51-.53-1-1.51-2.05-.85v0c0-.65-.4-.8-.93-.84-1.9-.8-4-.89-5.93-1.52Z"/><path class="cls-10" d="M29.21,46.09c-1.13.57-2.09,3-1.77,4.47l.45,2.2c-.36-.12-.94.69-1.1-.27A1.63,1.63,0,0,0,27.12,51c-.47-3.1.52-5.32,2.84-6.61l.07.07c0,.27,0,.53,0,.8h0a.46.46,0,0,0-.53.27h0c-.25.1-.28.31-.28.54Z"/><path class="cls-8" d="M85.72,55.77c3.49-1.48,4.71-4.13,4-7.77l.05,0,.57.81.19.31c-.38,1.3-.24,2.7-.77,4a5.94,5.94,0,0,1-4,3.19Z"/><path class="cls-5" d="M100.13,44.79l.39,0c1,1.57,1,3.2,0,4.07l-.59,0c.89-1.12.42-2.28.11-3.44C100.09,45.15,100.11,45,100.13,44.79Z"/><path class="cls-11" d="M85.72,55.77v.46a4.92,4.92,0,0,1-3.28,0C83.46,55.63,84.68,56.25,85.72,55.77Z"/><path class="cls-10" d="M89.75,53c.53-1.26.39-2.66.77-4a26.58,26.58,0,0,1-.15,4.46Z"/><path class="cls-5" d="M86,37.67a1.74,1.74,0,0,1,1.34.16v.52H86.27L86,38.2Z"/><path class="cls-6" d="M87.33,38.35v-.52L88.4,38v.53l-1,0A.76.76,0,0,0,87.33,38.35Z"/><path class="cls-6" d="M86,37.67v.53l-.77,0a.49.49,0,0,0,0-.16l0-.51Z"/><path class="cls-5" d="M88.41,38.55V38c.3-.23.55,0,.82.08l0,.53Z"/><path class="cls-7" d="M88.41,38.55l.79.08c2,.63,4,.72,5.93,1.52,0,.28,0,.56,0,.84a8.59,8.59,0,0,0-2.67-.34l-.52-.21a1.08,1.08,0,0,0-.32-.22c-.75-.17-1.8-.78-2.18.08s.64,1.39,1.4,1.78a.57.57,0,0,0,.54.27l.26.3c-.65,1.14-1.11,1.28-2,.51a2.38,2.38,0,0,0-1.75-.82c-1.49-1.19-3.21-.92-4.9-.8,1.65.12,3.26.55,4.89.82a42.38,42.38,0,0,1,3.36,3.15c-.79-1.31.3-1.72.94-2.33h.25l.28.23h.79c1.11.51,2.41.16,3.49.79a2.7,2.7,0,0,1-1.46.57c-.45.09-.77.33-.59.83a3.09,3.09,0,0,0,2.83,1.26c1-.3.7-1.26,1.11-1.85l1.2.32c.31,1.16.78,2.32-.11,3.44-.5.45-.22,1.06-.33,1.59-.5-.14-1.3-.09-1.41-.49-.18-.74.56-1.23,1.12-1.72-2.92-1.16-3.61-.95-4,1.15.37,1.16,1.38.68,2.14.84a3.72,3.72,0,0,0,2.19.46c.31.09.65.21.65.57s-.42.55-.76.6q-3.19.52-6.4,1c-.22,0-.44,0-.66,0-1.67.16-1.71.11-1.2-1.65h6.11a22.82,22.82,0,0,0-3-.3,19.46,19.46,0,0,0-3.05-.21c-.57-.73-.18-1.62-.37-2.43-1-4.36-5-5.88-8.87-5-.68.16-1.34.45-2,.68.19-.59-.48-.72-.82-1.32,1.54.37,2.24-.64,3.09-1.35-.78-1.44-2.35-.94-3.53-1.39-1.46-.56-2,0-1.75,1.61a7.35,7.35,0,0,1,.07,1.06c0,2.09,0,2.09,2,2A8.8,8.8,0,0,0,76.69,51c0,.95-.39,1.1-1.2,1.09-3,0-6,0-9.08,0H42.09c-.53,0-1.07,0-1.6-.07a11.91,11.91,0,0,0-1.17-6.35l.06-.06c.76,0,.59,1.09,1.33,1.09a4.05,4.05,0,0,0,2.15,2.94c.09,1.35,1,1.68,2.13,1.62,1.74.58,3.57.3,5.35.44,3.3.24,6.63.06,9.95.06l12.95,0c.56,0,1.18.13,1.52-.53h0l.31-.27a.52.52,0,0,0,.48-.53c.18-1.79.36-3.58.53-5.37,0-.4,0-.81-.53-.81V43.7c.89-.2.55-.92.5-1.4a9.29,9.29,0,0,0-1.29-4.25c.86,0,1.31-.71,1.92-1.15a15.26,15.26,0,0,0,2.62.89v1.08c0,.23.12.46.37.48a42.31,42.31,0,0,1,5.15.27c.35.07.11-.3.06-.47.36-.21.29-.57.34-.9l.77,0,.27.14,0,.82c-.06.25-1,.48-.07.75a3,3,0,0,0,2.19.16C88,39.54,87,40,86.77,39.15a1.09,1.09,0,0,0,.62-.64ZM94,46.36c-.29,0-.55,0-.81,0s-.7-.08-1-.13-.64.25-.34.49c.47.37,1.11.18,1.67.12C93.68,46.82,94,46.79,94,46.36Z"/><path class="cls-12" d="M76.68,36.9c-.61.44-1.06,1.13-1.92,1.15l-.82-.82c-.06-.12-.14-.16-.24,0-.39.29-.36.59,0,.89a.47.47,0,0,0,.52.52,8.69,8.69,0,0,1,1.31,3.75c-.71,0-1.53.18-1.83-.8.34-.08.74.14,1.13-.23l-8.37-.56-5.36-.3c0-.78,0-1.49-1.09-.75l-2.92-.07.54-1.34,1.31,0,7.53.07a2.07,2.07,0,0,0,2.11.32,2.69,2.69,0,0,0-2.13-.6c-2.51.18-5-.3-7.5-.24-1.59-.22-3.23.27-4.79-.33.12-2.33-.63-4.58-.56-6.9,2.44-.17,4.81.57,7.23.56A11.56,11.56,0,0,0,64,32,11.17,11.17,0,0,0,68.32,34h0c0,.56.42.54.82.54h0v1c-.79.22-.85.85-.77,1.49s.31,1,1,1h0c0,.52.26.77.86.64a11.31,11.31,0,0,1,1.55-.12.47.47,0,0,0,.51-.56V36.46c.35-.31.45-.72,0-1s-.52.12-.57.45l-.79,0h0a.94.94,0,0,0-.81-.57l-.52-.5a2.28,2.28,0,0,1,0-.26c.61-.45-.1-.94,0-1.4a2.91,2.91,0,0,1,1.93.79C73.26,35,75.16,35.63,76.68,36.9Zm-5.26,3-.22-.1c0,.07-.11.17-.09.22s.14.07.22.1Z"/><path class="cls-7" d="M16.61,38.06c0-1.26.46-2.05,1.86-2,.31,0,.62-.15.92-.11,4.32.58,8.06-1.25,11.85-2.83a4.75,4.75,0,0,1,.64-.2c.3,1,1.3.42,1.86.83A1.5,1.5,0,0,1,34,34.84l-.35.15c.46.77.41,1.85,1.41,2.28.44,2.3,2,4,3.24,5.83,0,0,.17,0,.26,0-.33,1,1,1.46.8,2.4l-.06.06L37.8,44.18C35.38,42,32,42.37,29.49,43.8c-1.73,1-2.38,2.6-3.11,4.23A4.42,4.42,0,0,1,26,44.2c.5-.12.95.51,1.71,0a48.76,48.76,0,0,0-6.31-2.12c-.34-.4-1.21-.47-.8-1.32h0c.59,0,1.19,0,1.34-.8h0c.87-.19,1.74-.55,1.56-1.61s-1.14-.75-1.86-.79a17.13,17.13,0,0,0-4,.27Zm13.67,1.32-.12-.1.1.12A2.3,2.3,0,0,0,34,39.11a1.17,1.17,0,0,0-.23-1.77,3.67,3.67,0,0,0-3.56.08,10.44,10.44,0,0,0,1.93.09c1.17-.07,1.82.34,1.59,1.62A3.87,3.87,0,0,1,30.28,39.38Zm5.94,2.39C34.68,41,32,41,30.9,41.91c1-.06,1.78-.12,2.6-.14S35.28,41.77,36.22,41.77Z"/><path class="cls-12" d="M26,44.2A4.42,4.42,0,0,0,26.38,48l-.09,1a3.89,3.89,0,0,1-3.13.15,4.21,4.21,0,0,0-2.26.11c-1,0-1.92-.6-2.95-.54h0a10.6,10.6,0,0,1-1.1-4.27c0-1,1-1.39,1.36-2.16h0a3.61,3.61,0,0,1,3.25,0Z"/><path class="cls-13" d="M33.74,33.77c-.56-.41-1.56.15-1.86-.83a36.74,36.74,0,0,1,16.5-3.76c4.72.14,9.45,0,14.13.82a10.09,10.09,0,0,1,3.16,1,.92.92,0,0,1-.58.88L64,31.63a12.84,12.84,0,0,0-3.22-.78,34.3,34.3,0,0,0-7.22-.6,18.35,18.35,0,0,0-7.49.2,33,33,0,0,0-10.51,2.22l-.49.23-.63.33A.82.82,0,0,0,33.74,33.77Z"/><path class="cls-7" d="M20.9,49.3a4.21,4.21,0,0,1,2.26-.11A3.89,3.89,0,0,0,26.29,49a7.08,7.08,0,0,0,.09,1.85c.37,1.17-.32,1.25-1.09,1.11a40,40,0,0,1-8-1.84c-2.62-1-3.22-2.47-2.37-5.23a6.81,6.81,0,0,1,.33-.73c.48,0,1-.41,1.36.28a4.88,4.88,0,0,0,0,1.58c.35.93-.19,2.33,1.31,2.71h0c1.28,1.13,2.89,1,4.61,1.27C22,49.32,21.26,49.82,20.9,49.3Z"/><path class="cls-7" d="M16.1,41.26c.09-.62.17-1.24.26-1.86l1.61,0,3,0c.4,0,.93-.15,1,.52h0a1.77,1.77,0,0,0-1.34.8h0A9.82,9.82,0,0,1,16.1,41.26Z"/><path class="cls-14" d="M37.8,44.18l1.52,1.43A11.91,11.91,0,0,1,40.49,52l-.32.3c-.45-.53-.19-1.15-.24-1.73s0-1-.69-1c0-.27-.07-.53-.1-.79s0-.74-.44-.88a3.94,3.94,0,0,0-1.18-2.07l-.29-.54.54,0,.15.11-.12-.14,0-.51Z"/><path class="cls-7" d="M65.09,31.9a.92.92,0,0,0,.58-.88c1.43.54,2.94.93,4,2.16-.13.46.58,1,0,1.4h-.52a.84.84,0,0,0-.82-.54h0C67.44,33,66.05,32.79,65.09,31.9Z"/><path class="cls-13" d="M85.23,38.25c0,.33,0,.69-.34.9-1.87.08-3.71-.46-5.58-.28V37.79l5.88.3A.49.49,0,0,1,85.23,38.25Z"/><path class="cls-10" d="M30,44.43c1.53-1.57,6-1.63,7.35.23l-.08.1-.51,0a5.54,5.54,0,0,0-4.33-1c-.83.14-1.5.74-2.36.75Z"/><path class="cls-15" d="M16.1,41.26a9.82,9.82,0,0,0,4.53-.53c-.41.85.46.92.8,1.32l0,.26a3.61,3.61,0,0,0-3.25,0c.13-.35.83-.89-.26-.81-.64.05-1.28.15-1.92.23Z"/><path class="cls-7" d="M16,41.77c.64-.08,1.28-.18,1.92-.23,1.09-.08.39.46.26.81h0c-1.06,0-1.7,1-2.74,1.09Z"/><path class="cls-10" d="M15.48,43.43c1,0,1.68-1.11,2.74-1.09-.37.77-1.38,1.15-1.36,2.16l-.26,0c-.33-.69-.88-.3-1.36-.28Z"/><path class="cls-10" d="M18,39.38l-1.61,0c.08-.45.17-.9.25-1.34l1.08-.26a2.17,2.17,0,0,0,0,.26A1.84,1.84,0,0,0,18,39.13,2.11,2.11,0,0,0,18,39.38Z"/><path class="cls-10" d="M37.77,44.76l0,.51,0,0-.54,0h0v-.53l.08-.1Z"/><path class="cls-4" d="M79.14,44.54c-2,.08-2,.08-2-2a7.35,7.35,0,0,0-.07-1.06c-.29-1.56.29-2.17,1.75-1.61,1.18.45,2.75,0,3.53,1.39-.85.71-1.55,1.72-3.09,1.35.34.6,1,.73.82,1.32Z"/><path class="cls-15" d="M99.71,50.6a3.72,3.72,0,0,1-2.19-.46v-.59c.13-.44.59-.74.58-1.21-1.12-.48-2-.51-2.2,1h-.52c.36-2.1,1.05-2.31,4-1.15-.56.49-1.3,1-1.12,1.72.11.4.91.35,1.41.49A2.17,2.17,0,0,1,99.71,50.6Z"/><path class="cls-9" d="M91.35,50.65a19.46,19.46,0,0,1,3.05.21,22.82,22.82,0,0,1,3,.3H91.34C91.35,51,91.35,50.82,91.35,50.65Z"/><path class="cls-15" d="M88.14,44.9c0,.42-.11.59-.54.38l-2.14-1.06,0-.5A4.39,4.39,0,0,1,88.14,44.9Z"/><path class="cls-8" d="M89.71,48a2.11,2.11,0,0,1-.78-1.93h.39l.18.21c0,.25,0,.49.27.61h0V48Z"/><path class="cls-15" d="M89.76,48V46.88a3.11,3.11,0,0,1,.56,1.89Z"/><path class="cls-9" d="M85.48,43.72l0,.5-.56,0C85,43.84,85.14,43.67,85.48,43.72Z"/><path class="cls-15" d="M89.77,46.89c-.28-.12-.29-.36-.27-.61Z"/><path class="cls-15" d="M89.32,46.07h-.39l.09-.31Z"/><path class="cls-12" d="M82.32,46.09a6.68,6.68,0,0,0,2.36,0,4,4,0,0,1,3.47,4.8,4.55,4.55,0,0,1-3.36,3.43,3.94,3.94,0,0,1-4-1.83c-1-1.54-.81-3.11-.39-4.74a1.31,1.31,0,0,0,1-1.12h0C81.87,46.67,82.21,46.56,82.32,46.09Z"/><path class="cls-9" d="M80.45,47.74c-.42,1.63-.62,3.2.39,4.74a3.94,3.94,0,0,0,4,1.83,4.55,4.55,0,0,0,3.36-3.43,4,4,0,0,0-3.47-4.8c.13-.85.68-.51,1.1-.36a4.84,4.84,0,0,1,2.9,5.38A4.7,4.7,0,0,1,84,54.93a4.62,4.62,0,0,1-4.49-4,3.92,3.92,0,0,1,.56-3.26Z"/><path class="cls-8" d="M80.45,47.74l-.34,0c.35-.48.62-1.06,1.34-1.08A1.31,1.31,0,0,1,80.45,47.74Z"/><path class="cls-8" d="M82.32,46.09c-.11.47-.45.58-.87.54C81.52,46.09,81.76,45.83,82.32,46.09Z"/><path class="cls-7" d="M38.11,53.08a4.9,4.9,0,0,1-5.6,2.62c-2.3-.37-3.58-2-4.36-4.07s.08-3.81,1.06-5.54h0a.5.5,0,0,0,.28-.54h0a.46.46,0,0,0,.53-.27h0c.77.06,1.1-.89,1.87-.81,0,.47-.6.61-.53,1.1l-.54.77h0c-2.11,1-2.55,4.58-.8,6.43h0c.23,1.13,1.21,1.42,2.07,1.81.35.15.58-.07.6-.46h1.37c.19.92.75.46,1.2.3.85-.33,1.28-1.16,2-1.67C37.44,53.11,37.8,53,38.11,53.08Z"/><path class="cls-12" d="M38.11,53.08c-.31,0-.67,0-.88-.31.88-1.21.62-2.7,1-4l.9,0c0,.26.07.52.1.79A5.59,5.59,0,0,1,38.11,53.08Z"/><path class="cls-13" d="M96.07,41c1.06-.66,1.54.32,2.05.85a8.24,8.24,0,0,1,1.79,2.93h-1A1.41,1.41,0,0,0,97.5,43.4a5.22,5.22,0,0,1-3.2-1.33h0l-.28-.3v-.4c.87-.24,1.58.55,2.45.37Z"/><path class="cls-16" d="M96.07,41l.41.78c-.87.18-1.58-.61-2.45-.37L93,41.27l-.54.27c-.3-.3.1-.59,0-.89a8.59,8.59,0,0,1,2.67.34h1Z"/><path class="cls-13" d="M96.06,41h-1c0-.28,0-.56,0-.84C95.66,40.19,96.08,40.34,96.06,41Z"/><path class="cls-15" d="M98.86,44.75h1l.22,0c0,.18,0,.36,0,.54L98.88,45h0a2.26,2.26,0,0,0,0-.26Z"/><path class="cls-8" d="M31.88,44.49c-.77-.08-1.1.87-1.87.81,0-.27,0-.53,0-.8.86,0,1.53-.61,2.36-.75a5.54,5.54,0,0,1,4.33,1l-.09.09-1.23-.16-.28-.2A4.32,4.32,0,0,0,31.88,44.49Z"/><path class="cls-8" d="M30,45.29a.46.46,0,0,1-.53.27A.46.46,0,0,1,30,45.29Z"/><path class="cls-8" d="M29.48,45.56a.5.5,0,0,1-.28.54C29.2,45.87,29.23,45.66,29.48,45.56Z"/><path class="cls-13" d="M87.39,38.51a1.09,1.09,0,0,1-.62.64h-.48l0-.82h1.06A.76.76,0,0,1,87.39,38.51Z"/><path class="cls-4" d="M73.68,41.54c.3,1,1.12.77,1.83.8,0,.45,0,.91,0,1.36v.51l0,.81a17.75,17.75,0,0,0-.32,3.17c-.15,1.94-.19,1.94-2.13,1.93h-2.4l-2.68-.27c0-.35,0-.75-.48-.8-1.64-.18-3.29,0-4.94-.25-.48-.08-.46.42-.48.77-2.5.16-5-.34-7.48-.28a39.42,39.42,0,0,0,.26-5.43c.06-1.95-.48-3.84-.51-5.78a10.06,10.06,0,0,1,3.19.2l-.54,1.34-1.64.08c1.53.38,3.06,1,4.56,0,1-.74,1.1,0,1.09.75-.21.89.51.42.81.56.78.83,1.82.85,2.15,0h2.4C68.83,41.48,71.28,41.19,73.68,41.54Z"/><path class="cls-4" d="M98.88,45c-.41.59-.16,1.55-1.11,1.85a3.09,3.09,0,0,1-2.83-1.26c-.18-.5.14-.74.59-.83A2.7,2.7,0,0,0,97,44.2a2.7,2.7,0,0,1,1.61.55l.27.26Z"/><path class="cls-15" d="M60.29,51.7c-3.32,0-6.65.18-9.95-.06-1.78-.14-3.61.14-5.35-.44,0-.1,0-.2,0-.29,2.94.51,5.9.16,8.85.27h.51l5.94,0Z"/><path class="cls-15" d="M98.6,44.75A2.7,2.7,0,0,0,97,44.2c-1.08-.63-2.38-.28-3.49-.79-.26-.34-.52-.35-.79,0a3.11,3.11,0,0,1-.28-.23v-.3c.89-.2-.23-.37,0-.55v-.78l.54-.27a3.63,3.63,0,0,0,.38.95c.35.45.75.64,1-.15a5.22,5.22,0,0,0,3.2,1.33,1.41,1.41,0,0,1,1.36,1.35H98.6Z"/><path class="cls-3" d="M70.73,50.13h2.4c1.94,0,2,0,2.13-1.93A17.75,17.75,0,0,1,75.58,45h.5c-.17,1.79-.35,3.58-.53,5.37a.52.52,0,0,1-.49.53l-.3.27h0l-.3,0c-.06-.71-.61-.47-1-.52-.9-.12-1.86.26-2.72-.26Z"/><path class="cls-16" d="M74.46,51.16l.3,0c-.34.66-1,.53-1.52.53l-12.95,0c0-.16,0-.32,0-.47.57,0,1.14,0,1.72.05A77,77,0,0,0,74.46,51.16Z"/><path class="cls-9" d="M75.55,43.7c0-.45,0-.91,0-1.36a8.69,8.69,0,0,0-1.31-3.75c0-.35-.17-.53-.52-.52-.34-.3-.37-.6,0-.89a.64.64,0,0,0,.24,0l.82.82a9.29,9.29,0,0,1,1.29,4.25C76.1,42.78,76.44,43.5,75.55,43.7Z"/><path class="cls-10" d="M92.18,43.18c-.64.61-1.73,1-.94,2.33a42.38,42.38,0,0,0-3.36-3.15v0a2.38,2.38,0,0,1,1.75.82c.87.77,1.33.63,2-.51v-.31h.27v.27A.57.57,0,0,0,92.18,43.18Z"/><path class="cls-8" d="M79.31,38.87c1.87-.18,3.71.36,5.58.28,0,.17.29.54-.06.47a42.31,42.31,0,0,0-5.15-.27C79.43,39.33,79.34,39.1,79.31,38.87Z"/><path class="cls-3" d="M87.88,42.36c-1.63-.27-3.24-.7-4.89-.82,1.69-.12,3.41-.39,4.9.8Z"/><path class="cls-10" d="M39.38,45.55c.16-.94-1.13-1.4-.8-2.4h0a7.5,7.5,0,0,1,2.15,3.47l0,0C40,46.64,40.14,45.54,39.38,45.55Z"/><path class="cls-1" d="M90.82,42.08c-.76-.39-1.78-.91-1.4-1.78s1.43-.25,2.18-.08a1.08,1.08,0,0,1,.32.22l0,0h-.54c-.39,0-.91-.2-1.15.13s.32.63.48,1a4.13,4.13,0,0,1,.15.5Z"/><path class="cls-10" d="M42.86,49.58a4.05,4.05,0,0,1-2.15-2.94l0,0c1.26.59,1.52,1.9,2.14,3Z"/><path class="cls-15" d="M86.29,39.16h.48c.23.85,1.18.39,1.64.92a3,3,0,0,1-2.19-.16C85.3,39.64,86.23,39.41,86.29,39.16Z"/><path class="cls-10" d="M94,46.36c0,.43-.33.46-.53.48-.56.06-1.2.25-1.67-.12-.3-.24-.15-.57.34-.49s.7.1,1,.13S93.72,46.36,94,46.36Z"/><path class="cls-10" d="M45,50.91c0,.09,0,.19,0,.29-1.16.06-2-.27-2.13-1.62l0,0C43.64,49.92,43.94,51,45,50.91Z"/><path class="cls-9" d="M97.52,49.55v.59c-.76-.16-1.77.32-2.14-.84h.52C96.39,49.74,97,49.5,97.52,49.55Z"/><path class="cls-1" d="M92.43,41.54v.78h-.52c0-.17,0-.35,0-.53V40.47l0,0,.52.21C92.53,41,92.13,41.24,92.43,41.54Z"/><path class="cls-9" d="M76.08,45h-.5l0-.81C76.13,44.21,76.09,44.62,76.08,45Z"/><path class="cls-1" d="M92.71,43.4c.27-.34.53-.33.79,0Z"/><path class="cls-1" d="M92.18,43.18a.57.57,0,0,1-.28-.58l.54.27v.3h-.25Z"/><path class="cls-1" d="M91.36,42.35a.57.57,0,0,1-.54-.27h0a.53.53,0,0,1,.53.27Z"/><path class="cls-16" d="M74.76,51.19l.3-.27Z"/><path class="cls-1" d="M91.63,42.34v.31l-.26-.3h.27Z"/><path class="cls-11" d="M57.61,38.29a10.06,10.06,0,0,0-3.19-.2l-.55.49c-.09-.56-.52-.51-.92-.53l-12.21-.54,0-.3,12.86.29h.57c1.56.6,3.2.11,4.79.33,0,.15,0,.3,0,.45Z"/><path class="cls-13" d="M69.67,34.84l.52.5c-.07.68.13,1,.81.57h0A5.92,5.92,0,0,0,72.32,38a.47.47,0,0,1-.51.56,5.29,5.29,0,0,0-2.41-.52h0c-.56-.76-.25-1.62-.26-2.44V35.1A.56.56,0,0,0,69.67,34.84Z"/><path class="cls-15" d="M54.14,37.49h-.57l-.81-6.92.83,0v.05C53.51,32.91,54.26,35.16,54.14,37.49Z"/><path class="cls-15" d="M73.68,41.54c-2.4-.35-4.85-.06-7.24-.49v-.3l8.37.56C74.42,41.68,74,41.46,73.68,41.54Z"/><path class="cls-11" d="M53.59,30.25a34.3,34.3,0,0,1,7.22.6v.3c-2.42,0-4.79-.73-7.23-.56v-.34Z"/><path class="cls-3" d="M58.92,38.27c0-.15,0-.3,0-.45,2.5-.06,5,.42,7.5.24,0,.1,0,.19,0,.28Z"/><path class="cls-15" d="M65.09,31.9c1,.89,2.35,1.14,3.23,2.14A11.17,11.17,0,0,1,64,32v-.33Z"/><path class="cls-9" d="M60,39.7c-1.5,1-3,.39-4.56,0l1.64-.08Z"/><path class="cls-9" d="M66.44,40.75v.3H64l-2.15,0c-.3-.14-1,.33-.81-.56Z"/><path class="cls-16" d="M69.13,35.62c0,.82-.3,1.68.26,2.44-.72.09-1-.39-1-1S68.34,35.84,69.13,35.62Z"/><path class="cls-15" d="M72.32,38A5.92,5.92,0,0,1,71,35.91l.79,0,.53.52Z"/><path class="cls-8" d="M64,31.63V32a11.56,11.56,0,0,1-3.21-.81v-.3A12.84,12.84,0,0,1,64,31.63Z"/><path class="cls-7" d="M66.45,38.34c0-.09,0-.18,0-.28a2.69,2.69,0,0,1,2.13.6A2.07,2.07,0,0,1,66.45,38.34Z"/><path class="cls-15" d="M69.4,38.07a5.29,5.29,0,0,1,2.41.52,11.31,11.31,0,0,0-1.55.12C69.66,38.84,69.45,38.59,69.4,38.07Z"/><path class="cls-7" d="M72.32,36.46l-.53-.52c0-.33.2-.69.57-.45S72.67,36.15,72.32,36.46Z"/><path class="cls-15" d="M71,35.91c-.68.4-.88.11-.81-.57A.94.94,0,0,1,71,35.91Z"/><path class="cls-15" d="M68.31,34a.84.84,0,0,1,.82.54C68.73,34.58,68.33,34.6,68.31,34Z"/><path class="cls-7" d="M73.68,38.07c.35,0,.52.17.52.52A.47.47,0,0,1,73.68,38.07Z"/><path class="cls-7" d="M71.42,39.86l-.09.22c-.08,0-.19,0-.22-.1s.06-.15.09-.22Z"/><path class="cls-15" d="M69.67,34.84a.56.56,0,0,1-.54.26c0-.17,0-.35,0-.53h.53A2.28,2.28,0,0,0,69.67,34.84Z"/><path class="cls-7" d="M73.94,37.23a.64.64,0,0,1-.24,0C73.8,37.07,73.88,37.11,73.94,37.23Z"/><path class="cls-15" d="M40.71,37.21l0,.3a21.86,21.86,0,0,1-5.11-.26l-.55,0c-1-.43-.95-1.51-1.41-2.28l.35-.15c.27.37.75.31,1.09.53h0c0,.24,0,.45.32.54A3.62,3.62,0,0,0,38.55,37c.6-.11.85-.28.84-.89,0-1.32,0-2.64,0-4l.11,0h.11c.61,1.18.26,2.44.28,3.65A1.33,1.33,0,0,0,40.71,37.21Z"/><path class="cls-9" d="M17.68,38.06a2.17,2.17,0,0,1,0-.26,17.13,17.13,0,0,1,4-.27c.72,0,1.69-.21,1.86.79s-.69,1.42-1.56,1.61c-.06-.67-.59-.52-1-.52l-3,0a2.11,2.11,0,0,1,0-.25c1.3-.07,2.66.22,3.87-.62C20.43,38.31,19,38.35,17.68,38.06Z"/><path class="cls-10" d="M35.08,37.27l.55,0c-.33,1.21,1.18.8,1.36,1.56-.21,0-.44.07-.55.31.55,1.42,1.8,2.48,2.15,4h0c-.09,0-.22,0-.26,0C37.07,41.25,35.52,39.57,35.08,37.27Z"/><path class="cls-11" d="M21.46,42.31l0-.26a48.76,48.76,0,0,1,6.31,2.12c-.76.54-1.21-.09-1.71,0Z"/><path class="cls-16" d="M35.11,35.37c-.34-.22-.82-.16-1.09-.53a1.5,1.5,0,0,0-.28-1.07.82.82,0,0,1,.73-.54c.26,0,.52,0,.63-.33l.49-.23c.2.34.56.28.88.33C35.94,33.74,34.34,33.88,35.11,35.37Z"/><path class="cls-11" d="M33.74,39.13c.23-1.28-.42-1.69-1.59-1.62a10.44,10.44,0,0,1-1.93-.09,3.67,3.67,0,0,1,3.56-.08A1.17,1.17,0,0,1,34,39.11Z"/><path class="cls-14" d="M36.22,41.77c-.94,0-1.83,0-2.72,0s-1.65.08-2.6.14C32,41,34.68,41,36.22,41.77Z"/><path class="cls-10" d="M33.74,39.13l.27,0a2.3,2.3,0,0,1-3.75.29l0,0A3.87,3.87,0,0,0,33.74,39.13Z"/><path class="cls-9" d="M20.63,40.73a1.77,1.77,0,0,1,1.34-.8C21.82,40.69,21.22,40.69,20.63,40.73Z"/><path class="cls-10" d="M30.26,39.4l-.1-.12.12.1Z"/><path class="cls-9" d="M20.9,49.3c.36.52,1.13,0,1.66.73-1.72-.3-3.33-.14-4.61-1.27C19,48.7,19.88,49.3,20.9,49.3Z"/><path class="cls-9" d="M16.6,44.48l.26,0A10.6,10.6,0,0,0,18,48.77c-1.5-.38-1-1.78-1.31-2.71A4.88,4.88,0,0,1,16.6,44.48Z"/><path class="cls-5" d="M36.47,33c-.32,0-.68,0-.88-.33A33,33,0,0,1,46.1,30.45c0,.11,0,.22,0,.33l-.51.09a1.32,1.32,0,0,0-1.09.19,14.71,14.71,0,0,0-4.85,1.07H39.5l-.11,0Z"/><path class="cls-16" d="M46.06,30.78c0-.11,0-.22,0-.33a18.35,18.35,0,0,1,7.49-.2v.29l-.83,0C50.52,30.38,48.3,30.78,46.06,30.78Z"/><path class="cls-5" d="M35.1,32.9c-.11.31-.37.32-.63.33Z"/><path class="cls-12" d="M37.52,45.82a3.94,3.94,0,0,1,1.18,2.07l-.43.42C37.15,48,37,47,36.64,46.15l.06-.06Z"/><path class="cls-7" d="M38.27,48.32c.14-.15.29-.29.43-.43.45.14.42.52.44.88l-.9,0Z"/><path class="cls-7" d="M37.52,45.82l-.82.27.26-.76.28,0h0Z"/><path class="cls-10" d="M37.8,45.27l.12.14-.15-.11Z"/><path class="cls-8" d="M37.24,45.29l-.28,0-.33-.5.09-.09.51,0C37.23,44.94,37.24,45.12,37.24,45.29Z"/><path class="cls-7" d="M17.68,38.06c1.36.29,2.75.25,4.14.45-1.21.84-2.57.55-3.87.62A1.84,1.84,0,0,1,17.68,38.06Z"/><path class="cls-7" d="M97.52,49.55c-.54,0-1.13.19-1.62-.24.18-1.48,1.08-1.45,2.2-1C98.11,48.81,97.65,49.11,97.52,49.55Z"/><path class="cls-12" d="M36.63,44.83l.33.5c-.09.25-.17.51-.26.76l-.06.06c-2.48-.93-2.48-.93-3.24-.54,3,.92,4,2.19,3.86,5a3.9,3.9,0,0,1-3.21,3.56H32.68C31.51,54.24,31,53,30,52.78h0a3,3,0,0,0-.11-.91,4,4,0,0,1,.66-4.66,1,1,0,0,0,.25-.86h0a2.82,2.82,0,0,0,1.9-.82c-.57-.42-.94.07-1.36.05-.07-.49.57-.63.53-1.1a4.32,4.32,0,0,1,3.24,0c-.14.09-.29.24-.16.37s.33,0,.44-.17Z"/><path class="cls-9" d="M34.05,54.14a3.9,3.9,0,0,0,3.21-3.56c.16-2.78-.82-4-3.86-5,.76-.39.76-.39,3.24.54.35.87.51,1.88,1.63,2.16l0,.43c-.39,1.33-.13,2.82-1,4-.7.51-1.13,1.34-2,1.67C34.8,54.6,34.24,55.06,34.05,54.14Z"/><path class="cls-8" d="M30.81,46.36a1,1,0,0,1-.25.86,4,4,0,0,0-.66,4.66,3,3,0,0,1,.11.91C28.26,50.94,28.7,47.36,30.81,46.36Z"/><path class="cls-8" d="M30,52.78c1,.18,1.5,1.46,2.67,1.35,0,.39-.25.61-.6.46C31.22,54.2,30.24,53.91,30,52.78Z"/><path class="cls-8" d="M31.35,45.59c.42,0,.79-.47,1.36-.05a2.82,2.82,0,0,1-1.9.82Z"/><path class="cls-7" d="M94.3,42.07c-.2.79-.6.6-1,.15a3.63,3.63,0,0,1-.38-.95l1.06.11v.4l.28.3Z"/><path class="cls-15" d="M94.31,42.08l-.28-.3Z"/><path class="cls-13" d="M98.6,44.75h.26a2.26,2.26,0,0,1,0,.26Z"/><path class="cls-7" d="M35.4,44.67c-.11.17-.23.4-.44.17s0-.28.16-.37Z"/><path class="cls-12" d="M74.46,51.16A77,77,0,0,1,62,51.28c-.58,0-1.15,0-1.72-.05l-5.94,0c-.15-1,.22-1.45,1.32-1.35,1.76.15,3.54.21,5.31.27.43,0,1,.25,1.15-.52,0-.35,0-.85.48-.77,1.65.26,3.3.07,4.94.25.5,0,.46.45.48.8H64.26v.33a46.68,46.68,0,0,0,6.48.19c.86.52,1.82.14,2.72.26C73.85,50.69,74.4,50.45,74.46,51.16Z"/><path class="cls-15" d="M53.87,38.58l.55-.49c0,1.94.57,3.83.51,5.78a39.42,39.42,0,0,1-.26,5.43l-.58,0a32.82,32.82,0,0,0,.2-3.56C54.21,43.34,54,41,53.87,38.58Z"/><path class="cls-3" d="M54.09,49.28l.58,0c2.5-.06,5,.44,7.48.28-.11.77-.72.53-1.15.52-1.77-.06-3.55-.12-5.31-.27-1.1-.1-1.47.32-1.32,1.35h-.51c.28-1.5-.81-1.45-1.76-1.6-.78-.11-1.65.28-2.45-.43C51.23,48.79,52.65,49.44,54.09,49.28Z"/><path class="cls-9" d="M70.73,50.38a46.68,46.68,0,0,1-6.48-.19v-.33h3.79l2.68.27Z"/><path class="cls-7" d="M61.89,41,64,41C63.71,41.86,62.67,41.84,61.89,41Z"/><path class="cls-12" d="M54.09,49.28c-1.44.16-2.86-.49-4.44-.13.8.71,1.67.32,2.45.43.95.15,2,.1,1.76,1.6-3-.11-5.91.24-8.85-.27-1.07.11-1.37-1-2.13-1.35-.62-1.05-.88-2.36-2.14-3a7.5,7.5,0,0,0-2.15-3.47c-.35-1.54-1.6-2.6-2.15-4l4.3,0c.21,0,.48,0,.4-.34s-.26-.17-.39,0l-3.76,0c-.18-.76-1.69-.35-1.36-1.56a21.86,21.86,0,0,0,5.11.26L53,38.05c.4,0,.83,0,.92.53.15,2.38.34,4.76.42,7.14A32.82,32.82,0,0,1,54.09,49.28Zm-6.05,0,0-.38-4.91-.63A10,10,0,0,0,48,49.25Z"/><path class="cls-13" d="M92.44,42.87l-.54-.27v-.27h.53C92.21,42.5,93.33,42.67,92.44,42.87Z"/><path class="cls-13" d="M91.63,42.34h-.27a.53.53,0,0,0-.53-.27,4.13,4.13,0,0,0-.15-.5c-.16-.34-.79-.53-.48-1s.76-.11,1.15-.13c0,.51-.08,1.07.55,1.33,0,.18,0,.36,0,.53Z"/><path class="cls-15" d="M91.9,41.8c-.63-.26-.52-.82-.55-1.33h.54Z"/><path class="cls-12" d="M46.06,30.78c2.24,0,4.46-.4,6.7-.21l.81,6.93-12.86-.29a1.33,1.33,0,0,1-.82-1.43c0-1.21.33-2.47-.28-3.65a14.71,14.71,0,0,1,4.85-1.07l.28.3c-.16.83-.84.42-1.29.55S42.08,32,42.7,33c.44.76-.2,1-.86,1-.9,0-1.23.42-1.09,1.25s.72,1.08,1.48.8c2.1-.78,4.21,0,6.3,0,3.06.07,3,1.15,2.87-2.39,0-.58.8-1.33-.12-1.75a5.7,5.7,0,0,0-2-.32c-.89-.05-1.78,0-2.67,0-.38,0-.81.11-1.11-.27v-.49Z"/><path class="cls-7" d="M36.47,33l2.92-.85c0,1.33,0,2.65,0,4,0,.61-.24.78-.84.89a3.62,3.62,0,0,1-3.13-1.1l-.32-.54h0C34.34,33.88,35.94,33.74,36.47,33Z"/><path class="cls-16" d="M35.1,35.37l.32.54C35.15,35.82,35.11,35.61,35.1,35.37Z"/><path class="cls-14" d="M37,38.81l3.76,0c0,.12,0,.23,0,.35l-4.3,0C36.55,38.88,36.78,38.86,37,38.81Z"/><path class="cls-13" d="M45.55,30.87v.49h-.81l-.28-.3A1.32,1.32,0,0,1,45.55,30.87Z"/><path class="cls-15" d="M48,49.25a10,10,0,0,1-4.88-1l4.91.63Z"/><path class="cls-10" d="M40.74,39.14c0-.12,0-.23,0-.35s.33-.21.39,0S41,39.1,40.74,39.14Z"/><path class="cls-4" d="M44.74,31.36h.81c.3.38.73.26,1.11.27.89,0,1.78,0,2.67,0a5.7,5.7,0,0,1,2,.32c.92.42.1,1.17.12,1.75.1,3.54.19,2.46-2.87,2.39-2.09,0-4.2-.8-6.3,0-.76.28-1.33.07-1.48-.8S40.94,34,41.84,34c.66,0,1.3-.24.86-1-.62-1.07.18-1,.75-1.12S44.58,32.19,44.74,31.36Z"/></g></g></svg>