<svg version="1.1" id="Layer_1" xmlns="http://www.w3.org/2000/svg" xmlns:xlink="http://www.w3.org/1999/xlink" x="0px" y="0px"
	 width="100%" viewBox="0 0 618 476" enable-background="new 0 0 618 476" xml:space="preserve">
<path fill="#FFFFFF" opacity="1.000000" stroke="none" 
	d="
M619.000000,382.000000 
	C619.000000,413.660492 619.000000,445.320984 619.000000,476.986084 
	C413.046387,476.990723 207.092758,476.990723 1.069569,476.990723 
	C1.069569,318.410706 1.069569,159.821365 1.069569,1.116014 
	C206.882416,1.116014 412.764893,1.116014 619.000000,1.116014 
	C619.000000,126.690529 619.000000,252.381378 618.598022,378.463013 
	C617.794983,377.363098 617.123657,375.886414 617.045715,374.379028 
	C616.849670,370.585938 616.921509,366.779022 616.913696,362.511597 
	C616.620605,302.361694 616.299805,242.677780 616.222656,182.808563 
	C616.308167,181.749649 616.149902,180.876053 616.001953,179.533722 
	C616.010193,168.377274 616.007996,157.689560 616.256226,146.785217 
	C616.343140,145.377335 616.179688,144.186050 616.023315,142.531952 
	C616.020264,138.046097 616.010132,134.023041 616.270508,129.736130 
	C616.341797,127.321320 616.142578,125.170372 615.953125,122.569717 
	C615.651245,117.077011 615.339661,112.034019 615.187744,106.608215 
	C615.508850,97.848015 615.716064,89.471176 615.815613,81.093063 
	C615.883179,75.407463 615.699707,69.718246 615.803528,64.033844 
	C616.054138,50.310955 617.250427,36.403770 606.998657,24.663868 
	C603.482788,20.088354 600.937561,14.510553 596.601807,11.842026 
	C587.348206,6.146732 576.602783,4.157873 565.696106,4.086503 
	C507.167389,3.703506 448.638367,3.350235 390.109039,3.081656 
	C362.115051,2.953198 334.120117,3.025182 306.125610,3.023226 
	C270.372803,3.020729 234.619766,2.964238 198.867340,3.084034 
	C187.570282,3.121887 176.274857,3.650826 164.606476,3.951330 
	C163.488708,3.967524 162.743134,3.987406 161.626617,3.851965 
	C159.345200,3.501321 157.437256,3.175290 155.523712,3.138268 
	C151.703156,3.064349 147.879517,3.148952 143.592880,3.126027 
	C123.846451,3.272272 104.564293,3.460578 85.282143,3.648884 
	C85.292969,4.098279 85.303802,4.547674 85.314629,4.997068 
	C87.135895,4.997068 88.958183,4.956914 90.778252,5.003588 
	C102.548485,5.305425 114.319878,5.575345 126.087532,5.958932 
	C133.728729,6.208010 141.364243,6.631892 149.445831,6.994792 
	C152.258957,7.010348 154.628555,7.008568 157.291672,7.291247 
	C161.390228,7.370623 165.195267,7.165538 169.462631,6.978934 
	C178.552979,7.307679 187.179016,7.708596 195.809692,7.899158 
	C202.560364,8.048209 209.316818,7.933231 216.070694,7.941186 
	C229.733841,7.957278 243.396973,7.994152 257.060120,7.992820 
	C361.369446,7.982649 465.678864,7.895108 569.987976,8.034329 
	C583.869751,8.052856 595.676147,13.366056 604.198486,25.296337 
	C609.720886,34.248528 611.478027,43.721272 611.074951,53.763016 
	C610.942200,57.070644 611.401123,60.397545 611.418823,63.716541 
	C611.468018,72.920921 611.354248,82.126518 611.446594,91.330215 
	C611.512390,97.887901 611.807678,104.443283 611.990234,111.465698 
	C611.974915,116.617813 611.969910,121.303940 611.752197,126.146622 
	C611.707886,126.864464 611.876343,127.425751 612.032349,128.437958 
	C612.021301,131.594803 612.022766,134.300735 611.803772,137.153885 
	C611.735779,137.863541 611.888184,138.425980 612.027344,139.456863 
	C612.324646,148.589462 612.635193,157.253616 612.581116,166.032028 
	C612.164490,168.757080 612.112549,171.367889 612.057495,174.382507 
	C612.291931,176.558685 612.710571,178.328415 612.736267,180.103821 
	C612.860718,188.703522 612.879700,197.304718 612.578003,206.018616 
	C612.141785,208.422867 612.063660,210.713867 611.974243,213.472931 
	C611.979553,254.961990 611.996155,295.982971 611.736328,337.275330 
	C611.647217,340.028656 611.834473,342.510681 612.009216,345.461243 
	C612.002930,351.955200 612.009155,357.980591 611.738770,364.278015 
	C611.668030,367.021332 611.873901,369.492615 612.060242,372.412170 
	C612.047058,375.247498 612.053528,377.634552 611.795410,380.233276 
	C611.688782,381.963715 611.846863,383.482452 611.997070,385.377319 
	C612.000488,386.505981 612.011658,387.258575 611.736450,388.302582 
	C611.605774,392.864929 611.953674,397.139191 611.879028,401.406097 
	C611.697510,411.786469 611.351440,422.164429 611.011475,432.541382 
	C610.733704,441.020233 607.208496,448.123413 601.964172,454.661346 
	C594.975342,463.374176 585.628296,467.351868 574.566406,469.055511 
	C571.186829,469.358093 568.224060,469.961304 565.270691,469.918243 
	C553.809570,469.751251 542.352234,469.193512 530.892029,469.146332 
	C522.933167,469.113525 514.973083,469.884613 507.011353,469.934845 
	C486.759399,470.062592 466.506195,469.989258 446.253479,469.992798 
	C352.538910,470.009186 258.824249,469.978119 165.109787,470.084229 
	C148.989639,470.102509 132.869644,470.990997 116.750481,470.962769 
	C95.299461,470.925232 73.845375,470.005890 52.400642,470.231140 
	C42.958221,470.330322 35.068089,466.834625 26.876362,462.674561 
	C24.977232,460.592682 23.218267,458.818787 21.496775,457.009277 
	C16.095055,451.331329 12.689652,444.396240 11.213292,436.933624 
	C9.938797,430.491364 10.012292,423.715454 10.057180,417.090912 
	C10.233721,391.037170 10.736023,364.985535 10.894218,338.931793 
	C10.946592,330.305878 10.203925,321.677734 10.076762,313.046906 
	C10.027610,309.710876 10.983215,306.360535 10.939629,303.023804 
	C10.868290,297.562622 10.163570,292.109650 10.093864,286.648529 
	C10.047626,283.026031 10.945952,279.390656 10.889390,275.769348 
	C10.763626,267.717499 10.089291,259.672607 10.023878,251.621780 
	C9.882383,234.206924 9.980206,216.790085 9.985827,199.374069 
	C9.989194,188.943588 10.012733,178.513092 10.010885,168.082611 
	C10.004490,131.975830 9.890219,95.868553 10.068204,59.762703 
	C10.102305,52.844963 11.103898,45.910568 11.995144,39.027363 
	C12.451710,35.501240 13.651075,32.071301 14.514738,28.597891 
	C14.127791,28.464609 13.740845,28.331327 13.353898,28.198046 
	C11.318329,32.405418 9.003944,36.510746 7.405546,40.878117 
	C6.879551,42.315315 8.761523,44.486710 8.585874,46.225769 
	C7.965956,52.363384 6.246161,58.453075 6.192250,64.571945 
	C6.068533,78.613777 6.904071,92.661362 6.950244,106.707924 
	C7.074336,144.458221 6.988237,182.209198 6.986560,219.959915 
	C6.986001,232.547821 7.085687,245.136795 6.948368,257.723175 
	C6.879681,264.018982 6.101347,270.311798 6.140931,276.602844 
	C6.203101,286.483337 6.911130,296.360901 6.922665,306.240234 
	C6.932927,315.030731 6.147971,323.821381 6.126156,332.613007 
	C6.107818,340.003571 6.912085,347.394379 6.952054,354.787262 
	C7.070600,376.714325 6.922975,398.642822 7.036743,420.569946 
	C7.065938,426.196777 7.048589,431.946808 8.149682,437.419525 
	C10.444315,448.824554 15.611271,458.689484 26.140406,465.336578 
	C31.551466,468.027069 36.603149,471.667816 42.089806,472.525299 
	C51.297695,473.964355 60.782066,473.642181 70.150970,474.040588 
	C77.606491,474.357666 85.064857,474.921112 92.519203,474.879578 
	C103.806862,474.816650 115.091141,474.137573 126.378738,474.078400 
	C133.835541,474.039276 141.297546,474.920685 148.753876,474.872498 
	C162.705383,474.782288 176.653397,474.221832 190.605194,474.062592 
	C194.892517,474.013702 199.187988,474.914825 203.478851,474.906769 
	C285.718933,474.752472 367.958832,474.491272 450.198914,474.350311 
	C464.922119,474.325073 479.645538,474.803467 494.369873,474.925568 
	C506.639313,475.027374 518.910278,474.949707 531.180603,474.947784 
	C543.670593,474.945831 556.178101,475.338196 568.644470,474.793243 
	C576.830078,474.435486 585.317322,473.955719 592.446045,468.065216 
	C600.254578,465.779053 605.091980,460.241058 609.245361,454.225494 
	C615.100830,445.744568 616.554016,435.773956 616.871643,425.803314 
	C617.285095,412.825409 616.906616,399.823608 617.068542,386.834595 
	C617.088745,385.215302 618.326416,383.611176 619.000000,382.000000 
M77.792183,242.983566 
	C77.839142,240.989853 78.020477,238.988708 77.910599,237.003662 
	C77.327248,226.464020 69.672981,218.447189 59.700764,218.082077 
	C54.384129,217.887390 49.052006,218.140579 43.732315,217.994080 
	C40.969982,217.917999 39.899113,218.860855 39.925293,221.711838 
	C40.033741,233.522644 40.058987,245.336121 39.911495,257.146088 
	C39.871845,260.320740 41.128624,261.167633 44.043228,261.046173 
	C48.195087,260.873108 52.359566,261.005981 56.518646,261.002197 
	C69.276375,260.990601 75.112587,256.213409 77.792183,242.983566 
M136.089767,261.936707 
	C146.548492,260.230804 149.410156,249.473190 147.514404,240.988739 
	C146.685760,237.280090 144.054169,232.651108 140.925385,231.107635 
	C136.824829,229.084763 131.422882,229.699921 125.739563,229.090179 
	C125.739563,226.905792 126.861092,222.808456 125.368401,220.216843 
	C124.265488,218.302002 119.755623,218.349472 116.429543,217.430344 
	C116.429543,232.809494 116.429543,246.673508 116.429543,260.990173 
	C118.767815,260.990173 120.734329,260.994171 122.700836,260.989105 
	C124.786888,260.983704 126.883423,260.835175 128.956055,260.996857 
	C131.071106,261.161926 133.162659,261.628082 136.089767,261.936707 
M264.965302,229.058380 
	C256.138641,232.005264 253.750092,236.037155 253.992279,247.580856 
	C254.220596,258.463348 263.807373,264.736816 273.739746,260.570007 
	C274.753479,260.144714 276.009247,260.075653 277.127411,260.163361 
	C279.910980,260.381744 282.679962,260.786041 285.917389,261.170624 
	C285.917389,247.306580 286.015930,234.529144 285.763062,221.758682 
	C285.738129,220.499252 283.767120,218.718307 282.328888,218.192123 
	C280.626343,217.569260 278.521576,218.045807 275.959381,218.045807 
	C275.959381,222.884644 275.959381,227.048370 275.959381,230.671844 
	C272.199921,230.065231 268.994934,229.548080 264.965302,229.058380 
M441.019775,243.859406 
	C441.019775,249.441833 441.019775,255.024277 441.019775,260.617584 
	C444.418030,260.617584 446.980499,260.617584 449.956146,260.617584 
	C449.956146,252.793228 450.339233,245.319214 449.847717,237.903168 
	C449.361816,230.571503 440.772217,226.534973 434.027527,230.046127 
	C432.774353,230.698471 431.633423,231.566391 429.669708,232.831512 
	C429.669708,227.474777 429.669708,222.918121 429.669708,218.462189 
	C426.523193,218.462189 423.963867,218.462189 421.371552,218.462189 
	C421.371552,232.765671 421.371552,246.638504 421.371552,260.662476 
	C424.311676,260.662476 426.873688,260.662476 430.028107,260.662476 
	C430.028107,254.722397 429.862579,249.106110 430.090546,243.505875 
	C430.225983,240.179062 431.451019,237.264587 435.508453,236.955765 
	C439.876953,236.623260 440.790802,239.472290 441.019775,243.859406 
M159.968933,261.930603 
	C166.795746,261.367371 173.622559,260.804138 180.845825,260.208221 
	C180.845825,253.024933 181.151764,245.717056 180.736603,238.450394 
	C180.466827,233.728027 177.499954,230.004608 172.682129,229.622208 
	C167.845520,229.238312 162.747009,229.598831 158.053024,230.782272 
	C154.305878,231.726990 151.793961,234.887497 152.335175,239.713959 
	C156.191925,239.671097 159.863571,241.498077 162.855042,237.170029 
	C163.705322,235.939850 167.374939,236.495575 169.731567,236.618042 
	C170.160370,236.640320 171.016754,239.276993 170.783096,239.441910 
	C169.285980,240.498459 167.612534,241.455276 165.857605,241.959702 
	C163.484253,242.641876 160.872192,242.576324 158.573792,243.412323 
	C156.477493,244.174805 154.183777,245.316605 152.812378,246.979919 
	C148.412079,252.316910 151.173096,258.504425 159.968933,261.930603 
M390.023651,233.534836 
	C385.192627,239.568588 384.328552,248.808716 388.019531,254.966537 
	C391.170990,260.224243 397.744446,262.972321 404.506104,261.858765 
	C410.838959,260.815796 414.171112,257.623993 415.646484,250.061417 
	C412.070038,251.259995 408.915161,251.842941 406.249725,253.313217 
	C401.304932,256.040894 396.826447,254.382736 395.196442,248.068298 
	C402.374664,248.068298 409.397919,248.068298 416.269531,248.068298 
	C417.537292,240.647537 414.855408,234.286957 409.551575,231.079376 
	C403.751648,227.571838 396.496552,228.308685 390.023651,233.534836 
M299.790619,261.049622 
	C310.077179,263.984741 318.075562,260.002716 319.411011,250.015915 
	C315.915375,251.251846 312.799652,251.931625 310.111023,253.395706 
	C305.179504,256.081146 300.501801,254.185379 299.312103,247.947723 
	C306.461182,247.947723 313.500641,247.947723 320.366791,247.947723 
	C322.385956,237.558151 313.933594,229.194901 307.138672,228.961929 
	C298.885712,228.678955 292.123260,232.844055 290.179504,239.997025 
	C287.712769,249.074387 290.995453,256.825867 299.790619,261.049622 
M81.418648,250.576981 
	C85.309830,259.161560 91.787666,263.178528 99.603043,261.853333 
	C105.905907,260.784546 109.911499,257.028839 110.723061,250.005707 
	C107.064209,251.302521 104.096619,252.607880 100.995438,253.368515 
	C98.752655,253.918610 96.202194,254.253662 94.041389,253.699768 
	C92.791100,253.379288 92.041115,251.107025 91.065979,249.713165 
	C92.416542,249.134995 93.751129,248.106506 95.120468,248.057953 
	C100.555038,247.865204 106.000473,247.978653 111.546211,247.978653 
	C112.796913,240.877640 111.032883,235.486069 105.748833,231.532364 
	C100.965233,227.953079 93.672546,227.977295 88.347481,231.402115 
	C81.546448,235.776184 80.427429,242.432816 81.418648,250.576981 
M206.011505,257.471924 
	C208.438278,258.828552 210.717636,260.765381 213.321030,261.426758 
	C219.674652,263.040863 226.037827,261.920105 230.200516,256.806000 
	C234.919739,251.008194 235.365036,244.019104 232.028854,237.064499 
	C229.140686,231.043823 223.967712,229.082886 217.741653,229.015579 
	C211.404480,228.947037 206.051834,231.165558 203.546432,237.191788 
	C200.752686,243.911591 200.642883,250.769257 206.011505,257.471924 
M573.871643,261.824188 
	C583.518188,260.057556 588.440125,250.652557 585.816040,240.262772 
	C584.251526,234.068283 579.962646,230.131210 573.637024,229.209854 
	C567.303467,228.287338 561.329651,229.279373 557.294678,235.126236 
	C553.127686,241.164444 552.755188,247.602188 556.101135,253.969360 
	C559.643311,260.709869 565.915649,262.409790 573.871643,261.824188 
M534.028748,243.507462 
	C534.028748,239.097000 534.028748,234.686523 534.028748,229.919174 
	C530.497681,230.079254 527.938965,230.195251 525.019592,230.327606 
	C525.019592,235.876114 525.059814,240.851776 525.008728,245.826508 
	C524.952332,251.322205 523.021912,254.060760 519.175171,254.021698 
	C513.652893,253.965637 514.070740,249.832047 514.021606,246.167892 
	C513.951111,240.909103 514.003601,235.648682 514.003601,230.375702 
	C510.615784,230.375702 508.049896,230.375702 505.525818,230.375702 
	C505.300049,231.206345 505.064941,231.674210 505.061798,232.143616 
	C505.022644,237.972031 504.976257,243.800934 505.012054,249.629211 
	C505.075531,259.956604 512.149414,264.566498 521.765503,260.670135 
	C522.837158,260.235901 524.150391,260.187286 525.329468,260.271301 
	C528.017822,260.462860 530.692444,260.847809 534.028748,261.229187 
	C534.028748,255.069870 534.028748,249.786575 534.028748,243.507462 
M479.051727,230.153030 
	C472.020447,233.889221 469.553192,240.058044 470.091797,247.597076 
	C470.666718,255.643295 477.144501,261.659363 485.195984,261.962524 
	C493.417206,262.272095 499.375305,257.579224 500.689270,249.561096 
	C496.707275,247.857178 493.376953,247.667358 490.436035,251.896210 
	C487.566193,256.022827 482.306213,255.431396 480.612946,250.686401 
	C479.167297,246.635284 478.964233,242.177597 482.064911,238.380219 
	C484.641296,235.224899 488.004578,235.059586 490.108063,238.021759 
	C493.217621,242.400635 496.792450,240.922974 500.569763,240.569946 
	C500.130188,230.137695 488.126831,227.055679 479.051727,230.153030 
M375.161041,257.771301 
	C378.190735,248.783295 381.220459,239.795303 384.286407,230.699875 
	C375.431061,229.138855 375.008514,229.446182 373.019073,236.817230 
	C372.052643,240.397903 370.820099,243.906738 369.708008,247.448105 
	C367.523254,243.739609 366.375641,240.016968 365.164551,236.315109 
	C362.834229,229.192230 362.286865,228.916428 353.900604,230.785431 
	C354.319244,232.501007 354.607483,234.249237 355.173279,235.902481 
	C357.587341,242.956482 360.070251,249.987030 362.554047,257.016968 
	C364.309418,261.985321 371.320618,262.844940 375.161041,257.771301 
M193.204132,269.790100 
	C194.136688,267.239868 195.723679,264.727478 195.873795,262.131989 
	C196.257996,255.489670 196.002899,248.810379 196.003250,242.145859 
	C196.003448,238.223709 196.003265,234.301559 196.003265,230.393692 
	C192.594437,230.393692 190.028564,230.393692 186.997986,230.393692 
	C186.997986,240.083252 187.072052,249.382675 186.928940,258.678741 
	C186.903519,260.329895 186.298843,263.175842 185.410721,263.413818 
	C179.844604,264.905060 182.352615,268.481598 182.553680,272.584259 
	C186.225632,271.701721 189.369614,270.946106 193.204132,269.790100 
M325.015472,243.498672 
	C325.015472,249.233856 325.015472,254.969040 325.015472,260.576233 
	C328.498230,260.576233 331.052673,260.576233 334.000732,260.576233 
	C334.000732,247.052444 333.986816,233.950851 334.009918,220.849335 
	C334.016174,217.303589 331.416992,218.120117 329.406952,218.055374 
	C327.266663,217.986420 324.945740,217.611099 324.993866,221.065475 
	C325.093384,228.208817 325.018616,235.354568 325.015472,243.498672 
M549.025574,233.503632 
	C549.025391,229.848160 548.835571,226.179947 549.079895,222.540894 
	C549.310852,219.100769 548.150208,217.870438 544.605469,217.929276 
	C541.305542,217.984055 539.860107,218.709061 539.946228,222.370941 
	C540.172729,232.002762 540.022278,241.643433 540.021973,251.280579 
	C540.021912,254.370667 540.021973,257.460754 540.021973,260.646027 
	C543.363403,260.646027 545.923462,260.646027 549.025635,260.646027 
	C549.025635,251.701294 549.025635,243.101654 549.025574,233.503632 
M465.025543,241.519501 
	C465.025543,237.782242 465.025543,234.044998 465.025543,230.428619 
	C461.540436,230.428619 458.980743,230.428619 456.394562,230.428619 
	C456.394562,240.745361 456.394562,250.624832 456.394562,260.661377 
	C459.331360,260.661377 461.891632,260.661377 465.025604,260.661377 
	C465.025604,254.390244 465.025604,248.451141 465.025543,241.519501 
M458.528473,220.009506 
	C457.763977,221.411285 456.999481,222.813065 456.186005,224.304688 
	C462.373413,225.610138 467.483215,222.282379 471.403839,214.712601 
	C463.669739,212.904526 462.794098,213.228867 458.528473,220.009506 
M189.710480,218.047302 
	C184.559875,219.329773 187.739838,222.822311 187.313950,225.656281 
	C190.297928,225.656281 192.851440,225.656281 195.521683,225.656281 
	C195.521683,222.990860 195.521683,220.662338 195.521683,218.036148 
	C193.564697,218.036148 192.086182,218.036148 189.710480,218.047302 
M21.974718,19.466677 
	C24.635517,17.058750 27.296316,14.650823 29.957113,12.242895 
	C22.747780,14.418434 16.527037,21.011375 15.997645,26.025139 
	C17.982107,23.829298 19.723183,21.902767 21.974718,19.466677 
M32.423996,10.191195 
	C32.796173,10.195194 33.168541,10.202883 33.539528,10.183795 
	C33.549717,10.183271 33.545094,9.894807 33.547379,9.740611 
	C33.175480,9.735168 32.803581,9.729726 32.423996,10.191195 
z"/>
<path fill="#E1E1E1" opacity="1.000000" stroke="none" 
	d="
M612.079834,371.963898 
	C611.873901,369.492615 611.668030,367.021332 612.027527,364.396790 
	C614.023926,363.821564 615.454956,363.399567 616.885864,362.977600 
	C616.921509,366.779022 616.849670,370.585938 617.045715,374.379028 
	C617.123657,375.886414 617.794983,377.363098 618.598022,378.926880 
	C619.000000,379.750000 619.000000,380.500000 619.000000,381.625000 
	C618.326416,383.611176 617.088745,385.215302 617.068542,386.834595 
	C616.906616,399.823608 617.285095,412.825409 616.871643,425.803314 
	C616.554016,435.773956 615.100830,445.744568 609.245361,454.225494 
	C605.091980,460.241058 600.254578,465.779053 592.213989,467.782532 
	C589.276550,468.072357 586.955017,468.985352 584.598267,469.087677 
	C581.411011,469.226013 578.142883,473.171967 574.987488,469.059265 
	C585.628296,467.351868 594.975342,463.374176 601.964172,454.661346 
	C607.208496,448.123413 610.733704,441.020233 611.011475,432.541382 
	C611.351440,422.164429 611.697510,411.786469 611.879028,401.406097 
	C611.953674,397.139191 611.605774,392.864929 611.994141,388.511841 
	C612.984619,389.163696 613.431152,389.897736 614.498169,391.651855 
	C614.815796,388.065887 616.560730,385.243469 612.004883,385.001221 
	C611.846863,383.482452 611.688782,381.963715 612.122314,380.368774 
	C613.453369,380.011505 614.820557,379.760071 614.835449,379.444763 
	C614.991882,376.132782 614.932190,372.810577 614.932190,368.043579 
	C613.327759,370.248779 612.703796,371.106354 612.079834,371.963898 
z"/>
<path fill="#DADADA" opacity="1.000000" stroke="none" 
	d="
M574.566406,469.055511 
	C578.142883,473.171967 581.411011,469.226013 584.598267,469.087677 
	C586.955017,468.985352 589.276550,468.072357 591.845764,467.803223 
	C585.317322,473.955719 576.830078,474.435486 568.644470,474.793243 
	C556.178101,475.338196 543.670593,474.945831 531.180603,474.947784 
	C518.910278,474.949707 506.639313,475.027374 494.369873,474.925568 
	C479.645538,474.803467 464.922119,474.325073 450.198914,474.350311 
	C367.958832,474.491272 285.718933,474.752472 203.478851,474.906769 
	C199.187988,474.914825 194.892517,474.013702 190.605194,474.062592 
	C176.653397,474.221832 162.705383,474.782288 148.753876,474.872498 
	C141.297546,474.920685 133.835541,474.039276 126.378738,474.078400 
	C115.091141,474.137573 103.806862,474.816650 92.519203,474.879578 
	C85.064857,474.921112 77.606491,474.357666 70.150970,474.040588 
	C60.782066,473.642181 51.297695,473.964355 42.089806,472.525299 
	C36.603149,471.667816 31.551466,468.027069 26.169434,465.028809 
	C26.367640,463.935455 26.700647,463.450867 27.033657,462.966309 
	C35.068089,466.834625 42.958221,470.330322 52.400642,470.231140 
	C73.845375,470.005890 95.299461,470.925232 116.750481,470.962769 
	C132.869644,470.990997 148.989639,470.102509 165.109787,470.084229 
	C258.824249,469.978119 352.538910,470.009186 446.253479,469.992798 
	C466.506195,469.989258 486.759399,470.062592 507.011353,469.934845 
	C514.973083,469.884613 522.933167,469.113525 530.892029,469.146332 
	C542.352234,469.193512 553.809570,469.751251 565.270691,469.918243 
	C568.224060,469.961304 571.186829,469.358093 574.566406,469.055511 
z"/>
<path fill="#DADADA" opacity="1.000000" stroke="none" 
	d="
M604.082031,24.966381 
	C595.676147,13.366056 583.869751,8.052856 569.987976,8.034329 
	C465.678864,7.895108 361.369446,7.982649 257.060120,7.992820 
	C243.396973,7.994152 229.733841,7.957278 216.070694,7.941186 
	C209.316818,7.933231 202.560364,8.048209 195.809692,7.899158 
	C187.179016,7.708596 178.552979,7.307679 169.464020,6.739851 
	C169.003098,6.482286 169.003067,6.003319 169.300903,6.002726 
	C170.126083,5.916960 170.653412,5.831788 171.180740,5.746615 
	C171.111832,5.533565 171.042938,5.320515 170.974030,5.107465 
	C170.315369,5.403985 169.656693,5.700505 168.620178,5.996109 
	C167.154449,5.315133 166.066559,4.635074 164.978683,3.955016 
	C176.274857,3.650826 187.570282,3.121887 198.867340,3.084034 
	C234.619766,2.964238 270.372803,3.020729 306.125610,3.023226 
	C334.120117,3.025182 362.115051,2.953198 390.109039,3.081656 
	C448.638367,3.350235 507.167389,3.703506 565.696106,4.086503 
	C576.602783,4.157873 587.348206,6.146732 596.601807,11.842026 
	C600.937561,14.510553 603.482788,20.088354 606.610474,24.670555 
	C605.614929,24.984421 604.848511,24.975401 604.082031,24.966381 
z"/>
<path fill="#E1E1E1" opacity="1.000000" stroke="none" 
	d="
M26.876358,462.674561 
	C26.700647,463.450867 26.367640,463.935455 26.005604,464.727783 
	C15.611271,458.689484 10.444315,448.824554 8.149682,437.419525 
	C7.048589,431.946808 7.065938,426.196777 7.036743,420.569946 
	C6.922975,398.642822 7.070600,376.714325 6.952054,354.787262 
	C6.912085,347.394379 6.107818,340.003571 6.126156,332.613007 
	C6.147971,323.821381 6.932927,315.030731 6.922665,306.240234 
	C6.911130,296.360901 6.203101,286.483337 6.140931,276.602844 
	C6.101347,270.311798 6.879681,264.018982 6.948368,257.723175 
	C7.085687,245.136795 6.986001,232.547821 6.986560,219.959915 
	C6.988237,182.209198 7.074336,144.458221 6.950244,106.707924 
	C6.904071,92.661362 6.068533,78.613777 6.192250,64.571945 
	C6.246161,58.453075 7.965956,52.363384 8.585874,46.225769 
	C8.761523,44.486710 6.879551,42.315315 7.405546,40.878117 
	C9.003944,36.510746 11.318329,32.405418 13.353898,28.198046 
	C13.740845,28.331327 14.127791,28.464609 14.514738,28.597891 
	C13.651075,32.071301 12.451710,35.501240 11.995144,39.027363 
	C11.103898,45.910568 10.102305,52.844963 10.068204,59.762703 
	C9.890219,95.868553 10.004490,131.975830 10.010885,168.082611 
	C10.012733,178.513092 9.989194,188.943588 9.985827,199.374069 
	C9.980206,216.790085 9.882383,234.206924 10.023878,251.621780 
	C10.089291,259.672607 10.763626,267.717499 10.889390,275.769348 
	C10.945952,279.390656 10.047626,283.026031 10.093864,286.648529 
	C10.163570,292.109650 10.868290,297.562622 10.939629,303.023804 
	C10.983215,306.360535 10.027610,309.710876 10.076762,313.046906 
	C10.203925,321.677734 10.946592,330.305878 10.894218,338.931793 
	C10.736023,364.985535 10.233721,391.037170 10.057180,417.090912 
	C10.012292,423.715454 9.938797,430.491364 11.213292,436.933624 
	C12.689652,444.396240 16.095055,451.331329 21.496775,457.009277 
	C23.218267,458.818787 24.977232,460.592682 26.876358,462.674561 
z"/>
<path fill="#DADADA" opacity="1.000000" stroke="none" 
	d="
M616.913696,362.511597 
	C615.454956,363.399567 614.023926,363.821564 612.304199,364.124756 
	C612.009155,357.980591 612.002930,351.955200 612.288940,345.193115 
	C612.391663,341.972260 612.202209,339.488129 612.012695,337.003967 
	C611.996155,295.982971 611.979553,254.961990 612.265503,213.203094 
	C612.690735,210.278595 612.813354,208.091995 612.936035,205.905396 
	C612.879700,197.304718 612.860718,188.703522 612.736267,180.103821 
	C612.710571,178.328415 612.291931,176.558685 612.334473,174.100494 
	C612.724976,170.915695 612.835388,168.416733 612.945801,165.917770 
	C612.635193,157.253616 612.324646,148.589462 612.245117,139.310211 
	C612.325500,138.132294 612.174866,137.569473 612.024170,137.006653 
	C612.022766,134.300735 612.021301,131.594803 612.251465,128.287262 
	C612.310425,127.120461 612.137634,126.555252 611.964844,125.990051 
	C611.969910,121.303940 611.974915,116.617813 612.256470,111.242798 
	C613.364624,109.366280 614.196350,108.178658 615.028076,106.991028 
	C615.339661,112.034019 615.651245,117.077011 615.684692,122.831177 
	C615.604309,125.694908 615.802185,127.847450 616.000000,130.000000 
	C616.010132,134.023041 616.020264,138.046097 615.759277,142.741211 
	C615.660828,144.609451 615.833313,145.805649 616.005859,147.001831 
	C616.007996,157.689560 616.010193,168.377274 615.754639,179.716614 
	C615.657654,181.243439 615.818298,182.118652 615.979004,182.993881 
	C616.299805,242.677780 616.620605,302.361694 616.913696,362.511597 
z"/>
<path fill="#D6D6D6" opacity="1.000000" stroke="none" 
	d="
M77.661545,243.395493 
	C75.112587,256.213409 69.276375,260.990601 56.518646,261.002197 
	C52.359566,261.005981 48.195087,260.873108 44.043228,261.046173 
	C41.128624,261.167633 39.871845,260.320740 39.911495,257.146088 
	C40.058987,245.336121 40.033741,233.522644 39.925293,221.711838 
	C39.899113,218.860855 40.969982,217.917999 43.732315,217.994080 
	C49.052006,218.140579 54.384129,217.887390 59.700764,218.082077 
	C69.672981,218.447189 77.327248,226.464020 77.910599,237.003662 
	C78.020477,238.988708 77.839142,240.989853 77.661545,243.395493 
M67.777641,238.831818 
	C65.165825,228.317917 62.865841,226.477448 53.529633,226.917480 
	C51.075726,227.033142 49.873730,227.652786 49.924854,230.341217 
	C50.045189,236.668900 50.067364,243.003067 49.912914,249.329330 
	C49.841389,252.258911 51.092934,252.953491 53.785652,253.001099 
	C63.227089,253.168015 66.908531,249.782074 67.777641,238.831818 
z"/>
<path fill="#D6D6D6" opacity="1.000000" stroke="none" 
	d="
M135.677139,261.949524 
	C133.162659,261.628082 131.071106,261.161926 128.956055,260.996857 
	C126.883423,260.835175 124.786888,260.983704 122.700836,260.989105 
	C120.734329,260.994171 118.767815,260.990173 116.429543,260.990173 
	C116.429543,246.673508 116.429543,232.809494 116.429543,217.430344 
	C119.755623,218.349472 124.265488,218.302002 125.368401,220.216843 
	C126.861092,222.808456 125.739563,226.905792 125.739563,229.090179 
	C131.422882,229.699921 136.824829,229.084763 140.925385,231.107635 
	C144.054169,232.651108 146.685760,237.280090 147.514404,240.988739 
	C149.410156,249.473190 146.548492,260.230804 135.677139,261.949524 
M130.157379,236.469696 
	C124.758179,240.024124 123.424164,245.939468 126.766052,251.507767 
	C128.866898,255.008209 133.156845,256.370758 135.410980,253.346741 
	C137.427597,250.641342 138.358017,246.486710 138.260300,243.013947 
	C138.149323,239.070374 135.895660,235.695984 130.157379,236.469696 
z"/>
<path fill="#D6D6D6" opacity="1.000000" stroke="none" 
	d="
M265.377625,229.044647 
	C268.994934,229.548080 272.199921,230.065231 275.959381,230.671844 
	C275.959381,227.048370 275.959381,222.884644 275.959381,218.045807 
	C278.521576,218.045807 280.626343,217.569260 282.328888,218.192123 
	C283.767120,218.718307 285.738129,220.499252 285.763062,221.758682 
	C286.015930,234.529144 285.917389,247.306580 285.917389,261.170624 
	C282.679962,260.786041 279.910980,260.381744 277.127411,260.163361 
	C276.009247,260.075653 274.753479,260.144714 273.739746,260.570007 
	C263.807373,264.736816 254.220596,258.463348 253.992279,247.580856 
	C253.750092,236.037155 256.138641,232.005264 265.377625,229.044647 
M269.627167,254.929123 
	C274.333130,254.820740 276.286804,251.382645 276.367523,247.701859 
	C276.441406,244.333069 275.514374,240.345291 273.573883,237.695465 
	C271.590271,234.986786 268.011993,235.204498 265.333466,238.148712 
	C260.783966,243.149521 262.535492,251.547409 269.627167,254.929123 
z"/>
<path fill="#D6D6D6" opacity="1.000000" stroke="none" 
	d="
M441.013855,243.406464 
	C440.790802,239.472290 439.876953,236.623260 435.508453,236.955765 
	C431.451019,237.264587 430.225983,240.179062 430.090546,243.505875 
	C429.862579,249.106110 430.028107,254.722397 430.028107,260.662476 
	C426.873688,260.662476 424.311676,260.662476 421.371552,260.662476 
	C421.371552,246.638504 421.371552,232.765671 421.371552,218.462189 
	C423.963867,218.462189 426.523193,218.462189 429.669708,218.462189 
	C429.669708,222.918121 429.669708,227.474777 429.669708,232.831512 
	C431.633423,231.566391 432.774353,230.698471 434.027527,230.046127 
	C440.772217,226.534973 449.361816,230.571503 449.847717,237.903168 
	C450.339233,245.319214 449.956146,252.793228 449.956146,260.617584 
	C446.980499,260.617584 444.418030,260.617584 441.019775,260.617584 
	C441.019775,255.024277 441.019775,249.441833 441.013855,243.406464 
z"/>
<path fill="#D6D6D6" opacity="1.000000" stroke="none" 
	d="
M159.560959,261.882874 
	C151.173096,258.504425 148.412079,252.316910 152.812378,246.979919 
	C154.183777,245.316605 156.477493,244.174805 158.573792,243.412323 
	C160.872192,242.576324 163.484253,242.641876 165.857605,241.959702 
	C167.612534,241.455276 169.285980,240.498459 170.783096,239.441910 
	C171.016754,239.276993 170.160370,236.640320 169.731567,236.618042 
	C167.374939,236.495575 163.705322,235.939850 162.855042,237.170029 
	C159.863571,241.498077 156.191925,239.671097 152.335175,239.713959 
	C151.793961,234.887497 154.305878,231.726990 158.053024,230.782272 
	C162.747009,229.598831 167.845520,229.238312 172.682129,229.622208 
	C177.499954,230.004608 180.466827,233.728027 180.736603,238.450394 
	C181.151764,245.717056 180.845825,253.024933 180.845825,260.208221 
	C173.622559,260.804138 166.795746,261.367371 159.560959,261.882874 
M160.246445,250.848114 
	C159.703125,255.212753 162.693924,255.975540 165.831558,255.734680 
	C169.988663,255.415588 171.526260,252.156433 169.979980,246.451813 
	C166.803711,247.711884 163.705200,248.941132 160.246445,250.848114 
z"/>
<path fill="#D6D6D6" opacity="1.000000" stroke="none" 
	d="
M390.287994,233.271912 
	C396.496552,228.308685 403.751648,227.571838 409.551575,231.079376 
	C414.855408,234.286957 417.537292,240.647537 416.269531,248.068298 
	C409.397919,248.068298 402.374664,248.068298 395.196442,248.068298 
	C396.826447,254.382736 401.304932,256.040894 406.249725,253.313217 
	C408.915161,251.842941 412.070038,251.259995 415.646484,250.061417 
	C414.171112,257.623993 410.838959,260.815796 404.506104,261.858765 
	C397.744446,262.972321 391.170990,260.224243 388.019531,254.966537 
	C384.328552,248.808716 385.192627,239.568588 390.287994,233.271912 
M403.733612,236.493484 
	C399.374573,235.332840 396.537140,236.755066 395.123047,241.466888 
	C399.282623,241.466888 403.006287,241.466888 408.018890,241.466888 
	C406.295502,239.328796 405.335266,238.137466 403.733612,236.493484 
z"/>
<path fill="#D6D6D6" opacity="1.000000" stroke="none" 
	d="
M299.404144,260.958191 
	C290.995453,256.825867 287.712769,249.074387 290.179504,239.997025 
	C292.123260,232.844055 298.885712,228.678955 307.138672,228.961929 
	C313.933594,229.194901 322.385956,237.558151 320.366791,247.947723 
	C313.500641,247.947723 306.461182,247.947723 299.312103,247.947723 
	C300.501801,254.185379 305.179504,256.081146 310.111023,253.395706 
	C312.799652,251.931625 315.915375,251.251846 319.411011,250.015915 
	C318.075562,260.002716 310.077179,263.984741 299.404144,260.958191 
M309.709961,241.867401 
	C309.604919,240.540329 309.962341,238.427582 309.304169,238.040161 
	C307.630005,237.054611 305.293304,236.069580 303.610565,236.524002 
	C301.739349,237.029297 300.298370,239.127579 298.670074,240.532333 
	C298.960022,241.010056 299.249939,241.487762 299.539856,241.965485 
	C302.653748,241.965485 305.767639,241.965485 309.709961,241.867401 
z"/>
<path fill="#D6D6D6" opacity="1.000000" stroke="none" 
	d="
M81.289055,250.180603 
	C80.427429,242.432816 81.546448,235.776184 88.347481,231.402115 
	C93.672546,227.977295 100.965233,227.953079 105.748833,231.532364 
	C111.032883,235.486069 112.796913,240.877640 111.546211,247.978653 
	C106.000473,247.978653 100.555038,247.865204 95.120468,248.057953 
	C93.751129,248.106506 92.416542,249.134995 91.065979,249.713165 
	C92.041115,251.107025 92.791100,253.379288 94.041389,253.699768 
	C96.202194,254.253662 98.752655,253.918610 100.995438,253.368515 
	C104.096619,252.607880 107.064209,251.302521 110.723061,250.005707 
	C109.911499,257.028839 105.905907,260.784546 99.603043,261.853333 
	C91.787666,263.178528 85.309830,259.161560 81.289055,250.180603 
M101.563286,241.897797 
	C102.419357,238.641098 101.080345,236.448532 97.578651,236.158966 
	C93.805077,235.846924 90.889969,237.087570 90.500092,241.972458 
	C94.153191,241.972458 97.456314,241.972458 101.563286,241.897797 
z"/>
<path fill="#D6D6D6" opacity="1.000000" stroke="none" 
	d="
M205.746857,257.204224 
	C200.642883,250.769257 200.752686,243.911591 203.546432,237.191788 
	C206.051834,231.165558 211.404480,228.947037 217.741653,229.015579 
	C223.967712,229.082886 229.140686,231.043823 232.028854,237.064499 
	C235.365036,244.019104 234.919739,251.008194 230.200516,256.806000 
	C226.037827,261.920105 219.674652,263.040863 213.321030,261.426758 
	C210.717636,260.765381 208.438278,258.828552 205.746857,257.204224 
M221.201981,237.121002 
	C216.139236,235.268280 212.672729,236.861511 211.264816,241.688187 
	C209.509491,247.705856 212.097946,254.254074 216.888992,254.630753 
	C218.876755,254.787018 221.776886,253.308899 222.974976,251.646454 
	C226.399780,246.894257 225.521133,241.992874 221.201981,237.121002 
z"/>
<path fill="#D6D6D6" opacity="1.000000" stroke="none" 
	d="
M573.455261,261.875854 
	C565.915649,262.409790 559.643311,260.709869 556.101135,253.969360 
	C552.755188,247.602188 553.127686,241.164444 557.294678,235.126236 
	C561.329651,229.279373 567.303467,228.287338 573.637024,229.209854 
	C579.962646,230.131210 584.251526,234.068283 585.816040,240.262772 
	C588.440125,250.652557 583.518188,260.057556 573.455261,261.875854 
M572.717102,236.478424 
	C569.465027,235.401566 566.814514,236.225800 564.978943,239.131561 
	C562.582092,242.925781 561.952881,247.054810 564.561890,250.824814 
	C565.815063,252.635727 568.278809,254.647964 570.206970,254.660629 
	C572.136597,254.673340 574.682251,252.709869 575.897644,250.900452 
	C578.586060,246.898163 577.233215,240.998703 572.717102,236.478424 
z"/>
<path fill="#D6D6D6" opacity="1.000000" stroke="none" 
	d="
M534.028748,244.005371 
	C534.028748,249.786575 534.028748,255.069870 534.028748,261.229187 
	C530.692444,260.847809 528.017822,260.462860 525.329468,260.271301 
	C524.150391,260.187286 522.837158,260.235901 521.765503,260.670135 
	C512.149414,264.566498 505.075531,259.956604 505.012054,249.629211 
	C504.976257,243.800934 505.022644,237.972031 505.061798,232.143616 
	C505.064941,231.674210 505.300049,231.206345 505.525818,230.375702 
	C508.049896,230.375702 510.615784,230.375702 514.003601,230.375702 
	C514.003601,235.648682 513.951111,240.909103 514.021606,246.167892 
	C514.070740,249.832047 513.652893,253.965637 519.175171,254.021698 
	C523.021912,254.060760 524.952332,251.322205 525.008728,245.826508 
	C525.059814,240.851776 525.019592,235.876114 525.019592,230.327606 
	C527.938965,230.195251 530.497681,230.079254 534.028748,229.919174 
	C534.028748,234.686523 534.028748,239.097000 534.028748,244.005371 
z"/>
<path fill="#D6D6D6" opacity="1.000000" stroke="none" 
	d="
M479.437256,230.053604 
	C488.126831,227.055679 500.130188,230.137695 500.569763,240.569946 
	C496.792450,240.922974 493.217621,242.400635 490.108063,238.021759 
	C488.004578,235.059586 484.641296,235.224899 482.064911,238.380219 
	C478.964233,242.177597 479.167297,246.635284 480.612946,250.686401 
	C482.306213,255.431396 487.566193,256.022827 490.436035,251.896210 
	C493.376953,247.667358 496.707275,247.857178 500.689270,249.561096 
	C499.375305,257.579224 493.417206,262.272095 485.195984,261.962524 
	C477.144501,261.659363 470.666718,255.643295 470.091797,247.597076 
	C469.553192,240.058044 472.020447,233.889221 479.437256,230.053604 
z"/>
<path fill="#D6D6D6" opacity="1.000000" stroke="none" 
	d="
M375.058899,258.163391 
	C371.320618,262.844940 364.309418,261.985321 362.554047,257.016968 
	C360.070251,249.987030 357.587341,242.956482 355.173279,235.902481 
	C354.607483,234.249237 354.319244,232.501007 353.900604,230.785431 
	C362.286865,228.916428 362.834229,229.192230 365.164551,236.315109 
	C366.375641,240.016968 367.523254,243.739609 369.708008,247.448105 
	C370.820099,243.906738 372.052643,240.397903 373.019073,236.817230 
	C375.008514,229.446182 375.431061,229.138855 384.286407,230.699875 
	C381.220459,239.795303 378.190735,248.783295 375.058899,258.163391 
z"/>
<path fill="#D6D6D6" opacity="1.000000" stroke="none" 
	d="
M192.858871,269.990295 
	C189.369614,270.946106 186.225632,271.701721 182.553680,272.584259 
	C182.352615,268.481598 179.844604,264.905060 185.410721,263.413818 
	C186.298843,263.175842 186.903519,260.329895 186.928940,258.678741 
	C187.072052,249.382675 186.997986,240.083252 186.997986,230.393692 
	C190.028564,230.393692 192.594437,230.393692 196.003265,230.393692 
	C196.003265,234.301559 196.003448,238.223709 196.003250,242.145859 
	C196.002899,248.810379 196.257996,255.489670 195.873795,262.131989 
	C195.723679,264.727478 194.136688,267.239868 192.858871,269.990295 
z"/>
<path fill="#D6D6D6" opacity="1.000000" stroke="none" 
	d="
M325.015503,242.998993 
	C325.018616,235.354568 325.093384,228.208817 324.993866,221.065475 
	C324.945740,217.611099 327.266663,217.986420 329.406952,218.055374 
	C331.416992,218.120117 334.016174,217.303589 334.009918,220.849335 
	C333.986816,233.950851 334.000732,247.052444 334.000732,260.576233 
	C331.052673,260.576233 328.498230,260.576233 325.015472,260.576233 
	C325.015472,254.969040 325.015472,249.233856 325.015503,242.998993 
z"/>
<path fill="#D6D6D6" opacity="1.000000" stroke="none" 
	d="
M549.025635,234.002808 
	C549.025635,243.101654 549.025635,251.701294 549.025635,260.646027 
	C545.923462,260.646027 543.363403,260.646027 540.021973,260.646027 
	C540.021973,257.460754 540.021912,254.370667 540.021973,251.280579 
	C540.022278,241.643433 540.172729,232.002762 539.946228,222.370941 
	C539.860107,218.709061 541.305542,217.984055 544.605469,217.929276 
	C548.150208,217.870438 549.310852,219.100769 549.079895,222.540894 
	C548.835571,226.179947 549.025391,229.848160 549.025635,234.002808 
z"/>
<path fill="#E1E1E1" opacity="1.000000" stroke="none" 
	d="
M615.187744,106.608215 
	C614.196350,108.178658 613.364624,109.366280 612.266724,110.776794 
	C611.807678,104.443283 611.512390,97.887901 611.446594,91.330215 
	C611.354248,82.126518 611.468018,72.920921 611.418823,63.716541 
	C611.401123,60.397545 610.942200,57.070644 611.074951,53.763016 
	C611.478027,43.721272 609.720886,34.248528 604.198486,25.296335 
	C604.848511,24.975401 605.614929,24.984421 606.769653,24.986750 
	C617.250427,36.403770 616.054138,50.310955 615.803528,64.033844 
	C615.699707,69.718246 615.883179,75.407463 615.815613,81.093063 
	C615.716064,89.471176 615.508850,97.848015 615.187744,106.608215 
z"/>
<path fill="#D6D6D6" opacity="1.000000" stroke="none" 
	d="
M465.025574,242.015778 
	C465.025604,248.451141 465.025604,254.390244 465.025604,260.661377 
	C461.891632,260.661377 459.331360,260.661377 456.394562,260.661377 
	C456.394562,250.624832 456.394562,240.745361 456.394562,230.428619 
	C458.980743,230.428619 461.540436,230.428619 465.025543,230.428619 
	C465.025543,234.044998 465.025543,237.782242 465.025574,242.015778 
z"/>
<path fill="#E1E1E1" opacity="1.000000" stroke="none" 
	d="
M149.002304,6.977454 
	C141.364243,6.631892 133.728729,6.208010 126.087532,5.958932 
	C114.319878,5.575345 102.548485,5.305425 90.778252,5.003588 
	C88.958183,4.956914 87.135895,4.997068 85.314629,4.997068 
	C85.303802,4.547674 85.292969,4.098279 85.282143,3.648884 
	C104.564293,3.460578 123.846451,3.272272 143.677872,3.493157 
	C147.105911,4.437880 149.984680,4.973412 152.778854,5.493206 
	C151.585526,5.962204 150.293915,6.469829 149.002304,6.977454 
z"/>
<path fill="#D6D6D6" opacity="1.000000" stroke="none" 
	d="
M458.705627,219.679977 
	C462.794098,213.228867 463.669739,212.904526 471.403839,214.712601 
	C467.483215,222.282379 462.373413,225.610138 456.186005,224.304688 
	C456.999481,222.813065 457.763977,221.411285 458.705627,219.679977 
z"/>
<path fill="#D6D6D6" opacity="1.000000" stroke="none" 
	d="
M190.159058,218.041718 
	C192.086182,218.036148 193.564697,218.036148 195.521683,218.036148 
	C195.521683,220.662338 195.521683,222.990860 195.521683,225.656281 
	C192.851440,225.656281 190.297928,225.656281 187.313950,225.656281 
	C187.739838,222.822311 184.559875,219.329773 190.159058,218.041718 
z"/>
<path fill="#E1E1E1" opacity="1.000000" stroke="none" 
	d="
M21.719488,19.721458 
	C19.723183,21.902767 17.982107,23.829298 15.997645,26.025139 
	C16.527037,21.011375 22.747780,14.418434 29.957113,12.242895 
	C27.296316,14.650823 24.635517,17.058750 21.719488,19.721458 
z"/>
<path fill="#DADADA" opacity="1.000000" stroke="none" 
	d="
M149.445831,6.994792 
	C150.293915,6.469829 151.585526,5.962204 152.778854,5.493206 
	C149.984680,4.973412 147.105911,4.437880 144.142151,3.535218 
	C147.879517,3.148952 151.703156,3.064349 155.523712,3.138268 
	C157.437256,3.175290 159.345200,3.501321 161.598938,4.174300 
	C160.294174,5.436903 158.646179,6.221845 156.998169,7.006787 
	C154.628555,7.008568 152.258957,7.010348 149.445831,6.994792 
z"/>
<path fill="#DADADA" opacity="1.000000" stroke="none" 
	d="
M612.060242,372.412170 
	C612.703796,371.106354 613.327759,370.248779 614.932190,368.043579 
	C614.932190,372.810577 614.991882,376.132782 614.835449,379.444763 
	C614.820557,379.760071 613.453369,380.011505 612.386963,380.157104 
	C612.053528,377.634552 612.047058,375.247498 612.060242,372.412170 
z"/>
<path fill="#E1E1E1" opacity="1.000000" stroke="none" 
	d="
M157.291672,7.291247 
	C158.646179,6.221845 160.294174,5.436903 161.969879,4.329625 
	C162.743134,3.987406 163.488708,3.967524 164.606476,3.951328 
	C166.066559,4.635074 167.154449,5.315133 168.621155,5.997606 
	C169.000000,6.000021 169.003067,6.003319 169.003067,6.003319 
	C169.003067,6.003319 169.003098,6.482286 169.001709,6.721370 
	C165.195267,7.165538 161.390228,7.370623 157.291672,7.291247 
z"/>
<path fill="#E1E1E1" opacity="1.000000" stroke="none" 
	d="
M612.581177,166.032028 
	C612.835388,168.416733 612.724976,170.915695 612.337646,173.696671 
	C612.112549,171.367889 612.164490,168.757080 612.581177,166.032028 
z"/>
<path fill="#E1E1E1" opacity="1.000000" stroke="none" 
	d="
M611.736328,337.275330 
	C612.202209,339.488129 612.391663,341.972260 612.301392,344.724548 
	C611.834473,342.510681 611.647217,340.028656 611.736328,337.275330 
z"/>
<path fill="#DADADA" opacity="1.000000" stroke="none" 
	d="
M611.997070,385.377319 
	C616.560730,385.243469 614.815796,388.065887 614.498169,391.651855 
	C613.431152,389.897736 612.984619,389.163696 612.280518,388.220428 
	C612.011658,387.258575 612.000488,386.505981 611.997070,385.377319 
z"/>
<path fill="#E1E1E1" opacity="1.000000" stroke="none" 
	d="
M616.270508,129.736130 
	C615.802185,127.847450 615.604309,125.694908 615.674927,123.280899 
	C616.142578,125.170372 616.341797,127.321320 616.270508,129.736130 
z"/>
<path fill="#E1E1E1" opacity="1.000000" stroke="none" 
	d="
M612.578003,206.018616 
	C612.813354,208.091995 612.690735,210.278595 612.276855,212.735046 
	C612.063660,210.713867 612.141785,208.422867 612.578003,206.018616 
z"/>
<path fill="#E1E1E1" opacity="1.000000" stroke="none" 
	d="
M616.256226,146.785217 
	C615.833313,145.805649 615.660828,144.609451 615.752258,143.204025 
	C616.179688,144.186050 616.343140,145.377335 616.256226,146.785217 
z"/>
<path fill="#E1E1E1" opacity="1.000000" stroke="none" 
	d="
M616.222656,182.808563 
	C615.818298,182.118652 615.657654,181.243439 615.744324,180.185333 
	C616.149902,180.876053 616.308167,181.749649 616.222656,182.808563 
z"/>
<path fill="#E1E1E1" opacity="1.000000" stroke="none" 
	d="
M611.803833,137.153870 
	C612.174866,137.569473 612.325500,138.132294 612.258423,138.841766 
	C611.888184,138.425980 611.735779,137.863541 611.803833,137.153870 
z"/>
<path fill="#E1E1E1" opacity="1.000000" stroke="none" 
	d="
M611.752136,126.146614 
	C612.137634,126.555252 612.310425,127.120461 612.263977,127.836349 
	C611.876343,127.425751 611.707886,126.864464 611.752136,126.146614 
z"/>
<path fill="#E1E1E1" opacity="1.000000" stroke="none" 
	d="
M32.427841,9.957739 
	C32.803581,9.729726 33.175480,9.735168 33.547379,9.740612 
	C33.545094,9.894807 33.549717,10.183271 33.539528,10.183795 
	C33.168541,10.202883 32.796173,10.195194 32.427841,9.957739 
z"/>
<path fill="#E1E1E1" opacity="1.000000" stroke="none" 
	d="
M168.999023,5.998523 
	C169.656693,5.700505 170.315369,5.403985 170.974030,5.107465 
	C171.042938,5.320515 171.111832,5.533565 171.180740,5.746615 
	C170.653412,5.831788 170.126083,5.916960 169.300903,6.002726 
	C169.003067,6.003319 169.000000,6.000021 168.999023,5.998523 
z"/>
<path fill="#FFFFFF" opacity="1.000000" stroke="none" 
	d="
M67.841446,239.238968 
	C66.908531,249.782074 63.227089,253.168015 53.785652,253.001099 
	C51.092934,252.953491 49.841389,252.258911 49.912914,249.329330 
	C50.067364,243.003067 50.045189,236.668900 49.924854,230.341217 
	C49.873730,227.652786 51.075726,227.033142 53.529633,226.917480 
	C62.865841,226.477448 65.165825,228.317917 67.841446,239.238968 
z"/>
<path fill="#FFFFFF" opacity="1.000000" stroke="none" 
	d="
M130.518188,236.332932 
	C135.895660,235.695984 138.149323,239.070374 138.260300,243.013947 
	C138.358017,246.486710 137.427597,250.641342 135.410980,253.346741 
	C133.156845,256.370758 128.866898,255.008209 126.766052,251.507767 
	C123.424164,245.939468 124.758179,240.024124 130.518188,236.332932 
z"/>
<path fill="#FFFFFF" opacity="1.000000" stroke="none" 
	d="
M269.251221,254.875351 
	C262.535492,251.547409 260.783966,243.149521 265.333466,238.148712 
	C268.011993,235.204498 271.590271,234.986786 273.573883,237.695465 
	C275.514374,240.345291 276.441406,244.333069 276.367523,247.701859 
	C276.286804,251.382645 274.333130,254.820740 269.251221,254.875351 
z"/>
<path fill="#FFFFFF" opacity="1.000000" stroke="none" 
	d="
M160.426575,250.509247 
	C163.705200,248.941132 166.803711,247.711884 169.979980,246.451813 
	C171.526260,252.156433 169.988663,255.415588 165.831558,255.734680 
	C162.693924,255.975540 159.703125,255.212753 160.426575,250.509247 
z"/>
<path fill="#FFFFFF" opacity="1.000000" stroke="none" 
	d="
M404.054321,236.719818 
	C405.335266,238.137466 406.295502,239.328796 408.018890,241.466888 
	C403.006287,241.466888 399.282623,241.466888 395.123047,241.466888 
	C396.537140,236.755066 399.374573,235.332840 404.054321,236.719818 
z"/>
<path fill="#FFFFFF" opacity="1.000000" stroke="none" 
	d="
M309.295746,241.916443 
	C305.767639,241.965485 302.653748,241.965485 299.539856,241.965485 
	C299.249939,241.487762 298.960022,241.010056 298.670074,240.532333 
	C300.298370,239.127579 301.739349,237.029297 303.610565,236.524002 
	C305.293304,236.069580 307.630005,237.054611 309.304169,238.040161 
	C309.962341,238.427582 309.604919,240.540329 309.295746,241.916443 
z"/>
<path fill="#FFFFFF" opacity="1.000000" stroke="none" 
	d="
M101.161362,241.935120 
	C97.456314,241.972458 94.153191,241.972458 90.500092,241.972458 
	C90.889969,237.087570 93.805077,235.846924 97.578651,236.158966 
	C101.080345,236.448532 102.419357,238.641098 101.161362,241.935120 
z"/>
<path fill="#FFFFFF" opacity="1.000000" stroke="none" 
	d="
M221.523163,237.336685 
	C225.521133,241.992874 226.399780,246.894257 222.974976,251.646454 
	C221.776886,253.308899 218.876755,254.787018 216.888992,254.630753 
	C212.097946,254.254074 209.509491,247.705856 211.264816,241.688187 
	C212.672729,236.861511 216.139236,235.268280 221.523163,237.336685 
z"/>
<path fill="#FFFFFF" opacity="1.000000" stroke="none" 
	d="
M573.039429,236.703003 
	C577.233215,240.998703 578.586060,246.898163 575.897644,250.900452 
	C574.682251,252.709869 572.136597,254.673340 570.206970,254.660629 
	C568.278809,254.647964 565.815063,252.635727 564.561890,250.824814 
	C561.952881,247.054810 562.582092,242.925781 564.978943,239.131561 
	C566.814514,236.225800 569.465027,235.401566 573.039429,236.703003 
z"/>
</svg>