<svg version="1.1" id="Layer_1" xmlns="http://www.w3.org/2000/svg" xmlns:xlink="http://www.w3.org/1999/xlink" x="0px" y="0px"
	 width="100%" viewBox="0 0 618 476" enable-background="new 0 0 618 476" xml:space="preserve">
<path fill="#FFFFFF" opacity="1.000000" stroke="none" 
	d="
M618.626099,381.788635 
	C619.000000,412.493896 618.949951,442.988007 619.080261,473.481354 
	C619.092896,476.411438 618.554382,477.086334 615.519653,477.084930 
	C411.893799,476.991150 208.267853,476.988861 4.641973,477.095764 
	C1.253621,477.097534 0.941403,476.009430 0.942592,473.143402 
	C1.007358,317.007996 1.011293,160.872574 0.919818,4.737186 
	C0.917971,1.584115 1.668036,0.923241 4.761391,0.924511 
	C208.220642,1.008039 411.679932,1.013944 615.139160,0.890383 
	C618.845093,0.888133 619.075806,2.009892 619.073608,5.137691 
	C618.987122,129.445969 619.000000,253.754333 619.000000,378.531342 
	C615.692688,379.955231 615.847229,377.335999 615.740417,375.533722 
	C615.514954,371.729645 615.387512,367.908203 615.561035,363.615540 
	C615.322693,351.310669 615.625305,339.477875 615.430176,327.649597 
	C615.150330,310.691345 613.897339,293.717438 614.682190,276.784302 
	C615.205933,265.486145 614.396545,254.189987 615.358459,242.927048 
	C615.703796,238.883240 614.401672,234.952347 614.572815,230.987289 
	C615.233398,215.679916 613.978394,200.376328 614.707275,184.624374 
	C615.012390,182.744370 615.532837,181.329269 614.896973,179.421036 
	C614.276978,168.999512 614.468567,159.011902 614.728821,148.589310 
	C615.070740,146.521240 615.885925,144.925522 615.032043,142.808609 
	C614.392883,138.727982 614.481812,135.050171 614.862305,130.955322 
	C615.678467,128.149979 615.954529,125.744545 615.037964,122.898087 
	C614.584717,117.631195 613.294373,112.850616 613.763672,107.497940 
	C614.639343,98.015068 615.883606,88.987915 614.065491,79.881317 
	C613.017151,74.630669 614.149780,69.316864 614.313904,64.038948 
	C614.499695,58.067657 614.289856,52.141945 614.049316,46.177227 
	C613.730225,38.263172 610.488037,31.837162 605.847961,25.308870 
	C600.172729,13.470163 589.959961,9.070962 578.441467,6.992268 
	C572.734802,5.962403 566.908020,5.522896 561.049927,5.531454 
	C515.930237,5.597362 470.798492,6.227520 425.693390,5.413470 
	C357.636200,4.185183 289.583344,4.797008 221.529083,4.622427 
	C203.258438,4.575558 184.996216,5.859539 166.246887,5.403859 
	C164.863144,5.385810 163.943466,5.441698 162.585785,5.278378 
	C159.264114,4.313218 156.377853,4.410331 153.444290,5.007793 
	C150.350449,5.637898 147.268845,5.332641 143.796356,4.510343 
	C124.225891,5.147939 105.084175,3.387722 85.951317,4.534983 
	C85.308495,4.851963 86.256889,5.718186 85.876793,5.170494 
	C85.754501,4.994268 85.914894,4.945651 86.167496,4.762253 
	C86.745926,4.342273 87.446350,4.322422 88.037140,4.347791 
	C99.466270,4.838571 110.892067,3.396789 122.336433,4.520740 
	C130.886765,5.360469 139.482025,5.813271 148.519562,5.890257 
	C151.309387,5.617596 153.662704,5.580759 156.451538,5.885540 
	C160.905304,6.967278 164.928757,6.877029 169.406403,5.909250 
	C177.370056,4.705693 184.793030,6.485951 192.290436,6.480448 
	C316.720490,6.389122 441.150635,6.415510 565.580750,6.412983 
	C574.332947,6.412806 582.764099,7.566610 590.770630,11.583944 
	C596.312317,14.364511 600.658813,18.239676 604.513428,23.513721 
	C610.327759,32.208981 612.434753,41.379101 612.574646,51.329254 
	C612.742615,63.275181 613.619446,75.224487 613.176758,87.168625 
	C612.893738,94.805382 612.056213,102.417992 612.886780,110.492065 
	C613.716309,115.223351 613.479431,119.551872 613.241821,124.289749 
	C613.052307,125.740540 612.729980,126.764702 612.974976,128.217545 
	C613.379944,130.930634 613.380188,133.265762 613.097168,135.993103 
	C612.865662,137.419144 612.809509,138.456772 613.121277,139.902283 
	C613.050293,148.376892 614.628113,156.376221 614.046753,164.860718 
	C612.350464,167.859451 611.799194,170.589935 613.001709,173.912689 
	C614.275024,181.781387 613.805542,189.348694 614.154602,196.874146 
	C614.274658,199.461212 613.884277,202.131760 613.797974,205.174957 
	C612.168335,208.017883 612.031067,210.587830 613.100952,213.682281 
	C613.914978,224.711075 613.340332,235.302231 612.785950,245.892502 
	C612.725342,247.050980 612.463989,248.217072 612.573181,249.367386 
	C613.763611,261.916687 612.737793,274.502960 613.169495,287.082184 
	C613.720032,303.122192 613.969604,319.230225 613.241699,335.749756 
	C612.326721,338.995819 611.986389,341.815887 612.998657,345.103455 
	C613.755066,351.129364 613.559387,356.738617 613.213623,362.772430 
	C612.479248,365.855194 612.024841,368.525177 612.858948,371.646606 
	C613.388489,374.169800 613.403564,376.312775 613.101196,378.850159 
	C612.506714,380.957520 612.406616,382.690613 612.963745,384.825378 
	C613.114441,386.009186 613.075745,386.805267 612.909912,388.004883 
	C611.453064,394.660126 612.549316,401.041351 612.814636,407.218689 
	C613.179749,415.720520 612.199585,424.101318 612.252563,432.546631 
	C612.351807,448.354065 598.218018,465.131897 582.745178,468.487701 
	C580.151489,469.050262 577.593994,469.768982 574.565430,470.460388 
	C571.057007,471.521332 567.889343,471.631866 564.719788,471.580566 
	C552.900635,471.389343 541.095581,471.696472 529.259827,470.796234 
	C515.977295,469.785919 502.665619,471.718781 489.323151,471.694153 
	C389.507599,471.509827 289.691559,471.591064 189.875671,471.603973 
	C180.059448,471.605255 170.249084,471.812683 160.425919,471.669434 
	C129.275116,471.214966 98.139648,473.365051 66.985779,472.531677 
	C54.728683,472.203766 42.236591,472.807343 30.915720,466.543457 
	C29.754925,465.901215 28.480555,465.467194 27.094376,464.277618 
	C15.678667,454.768768 9.832417,443.462585 9.182478,428.602509 
	C8.285875,408.102875 8.368466,387.619141 8.787398,367.158051 
	C8.984442,357.534241 8.842743,347.873749 9.392041,338.240814 
	C9.685561,333.093384 9.507702,327.937408 8.855659,322.778381 
	C8.208507,317.658051 8.147231,312.472565 9.240240,307.356171 
	C9.449438,306.376923 9.745908,305.358215 9.569195,304.387390 
	C7.553462,293.313599 9.103595,282.141388 8.918754,271.037048 
	C8.581108,250.752991 7.763959,230.440659 8.900648,210.145401 
	C9.245662,203.985291 8.380469,197.858490 8.466554,191.688141 
	C8.915033,159.542099 8.266983,127.392792 8.677542,95.242531 
	C8.811424,84.758392 8.696654,74.249184 8.436984,63.757778 
	C8.246564,56.064240 10.080797,48.549660 10.059722,40.877239 
	C10.053391,38.571960 10.847835,36.287437 11.746361,34.868591 
	C7.209558,38.872780 9.905089,45.061993 8.963786,50.463715 
	C7.165663,60.782356 7.487059,71.290649 7.931595,81.827904 
	C8.315120,90.918915 8.295966,100.078323 8.384199,109.206932 
	C8.637050,135.366730 9.357255,161.569275 8.194964,187.680466 
	C7.304615,207.682434 9.079832,227.586502 8.337031,247.574173 
	C7.895254,259.461792 8.450403,271.533508 8.247191,283.476501 
	C7.969916,299.772125 9.059680,316.049316 8.029041,332.378448 
	C7.405813,342.252686 8.483709,352.313843 8.466221,362.292358 
	C8.428265,383.950012 8.386189,405.607819 8.548800,427.264465 
	C8.660235,442.105347 14.145743,454.474640 26.436119,463.969482 
	C32.218761,467.960480 38.053513,470.731537 44.613327,471.518646 
	C53.363987,472.568604 62.135532,473.383484 70.979065,472.593964 
	C77.316223,472.028259 83.605850,473.242126 89.917671,473.364410 
	C99.733047,473.554565 109.544022,473.547424 119.360374,472.603455 
	C131.502930,471.435760 143.620972,473.762115 155.782501,473.456665 
	C164.265808,473.243561 172.749435,473.680267 181.228363,472.609619 
	C190.041672,471.496765 198.827133,473.463989 207.653427,473.459473 
	C278.619110,473.423218 349.584961,473.512970 420.550476,473.400818 
	C446.850403,473.359253 473.150238,473.598602 499.453033,473.030914 
	C521.065918,472.564453 542.686890,473.654999 564.309143,473.443726 
	C569.979248,473.388336 575.580139,472.814911 581.138062,471.657471 
	C584.453674,470.966980 587.479187,469.706238 590.674683,467.622253 
	C602.642029,462.594757 609.876099,454.023376 613.008423,441.961395 
	C614.686829,435.497986 615.607971,428.927979 615.592224,422.223877 
	C615.564819,410.574951 615.458496,398.924591 615.692749,387.277588 
	C615.735962,385.131561 614.988708,382.383240 618.626099,381.788635 
z"/>
<path fill="#E1E1E1" opacity="1.000000" stroke="none" 
	d="
M574.779419,469.404541 
	C585.867432,467.423584 595.294861,463.189270 602.298645,454.292419 
	C607.249390,448.003387 610.674927,441.136078 610.991577,433.040314 
	C611.403931,422.499847 611.887268,411.949036 611.785400,401.408051 
	C611.744263,397.154358 610.529358,392.904144 611.736450,388.302551 
	C614.565857,387.581604 613.388000,386.497772 612.238159,385.230560 
	C611.337769,383.535431 610.524170,382.084900 611.795349,380.233276 
	C614.472229,377.572601 614.595703,374.942200 612.381836,372.057190 
	C610.230408,369.629547 611.052124,367.072632 611.738770,364.277985 
	C613.384827,363.285156 614.727783,362.484650 616.624329,362.771484 
	C616.921509,366.779022 616.889832,370.582825 617.025574,374.380646 
	C617.080444,375.918030 616.307617,377.763367 618.598022,378.926910 
	C619.000000,379.750000 619.000000,380.500000 619.000000,381.625000 
	C615.888550,382.591980 617.043091,385.098511 617.030273,386.833862 
	C616.934326,399.824188 617.285095,412.825378 616.871643,425.803284 
	C616.553955,435.773926 615.100891,445.744568 609.245422,454.225555 
	C605.092041,460.241150 600.254395,465.778809 592.446045,468.065186 
	C587.673462,468.797241 583.835571,471.469452 579.308350,471.764709 
	C577.377991,471.890594 575.229187,472.590271 574.779419,469.404541 
z"/>
<path fill="#DADADA" opacity="1.000000" stroke="none" 
	d="
M574.566406,469.055511 
	C578.142944,473.171936 581.428284,469.314819 584.592529,469.057922 
	C586.922241,468.868774 588.952026,466.697968 591.845703,467.803284 
	C585.317383,473.955841 576.830017,474.435425 568.644470,474.793274 
	C556.178040,475.338318 543.653137,475.357727 531.185486,474.831177 
	C518.892578,474.312042 506.629639,475.193939 494.372284,474.851288 
	C479.646057,474.439606 464.883148,474.420319 450.201813,474.583466 
	C367.958893,475.497345 285.718353,474.516174 203.478745,474.905182 
	C199.188858,474.925476 194.880020,473.913086 190.607513,474.081024 
	C176.659317,474.629333 162.718246,475.108826 148.753922,474.975220 
	C141.278488,474.903748 133.886093,473.672791 126.375969,473.945282 
	C115.094681,474.354584 103.833611,475.311554 92.517975,475.003052 
	C85.053802,474.799561 77.632896,473.234680 70.154335,474.075104 
	C60.700928,475.137451 51.353233,474.005402 42.060001,472.705444 
	C36.264633,471.894775 31.100489,469.017456 26.140427,465.336578 
	C25.413834,464.258942 25.475430,463.554230 26.626547,462.947266 
	C35.068058,466.834717 43.049599,469.789490 52.382214,470.339600 
	C73.857384,471.605469 95.327103,471.322906 116.742722,470.748688 
	C132.869476,470.316284 148.990616,470.111877 165.109818,470.091187 
	C258.824280,469.970947 352.538910,470.009186 446.253479,469.992767 
	C466.506195,469.989227 486.765839,470.285828 507.008118,469.823517 
	C514.959229,469.641937 522.993042,468.394928 530.875061,469.242767 
	C542.360901,470.478241 553.814026,469.556580 565.269287,469.986694 
	C568.286133,470.099976 571.234070,469.814026 574.566406,469.055511 
z"/>
<path fill="#DADADA" opacity="1.000000" stroke="none" 
	d="
M604.440918,25.201336 
	C595.675842,13.366124 583.869507,8.052778 569.987305,8.034266 
	C465.676270,7.895159 361.364960,7.982676 257.053711,7.992857 
	C243.390320,7.994191 229.701447,8.446814 216.074310,7.734663 
	C209.259476,7.378521 202.558105,7.385846 195.800980,7.921194 
	C187.142960,8.607142 178.573669,6.664837 169.462677,6.978919 
	C168.895828,6.827035 168.791351,6.693634 168.757263,6.395845 
	C168.575363,6.187123 168.502548,6.451169 168.006500,6.662043 
	C166.056549,6.910279 164.658112,6.685668 164.775574,4.276637 
	C176.274368,3.632783 187.585968,3.476187 198.871338,3.275100 
	C234.612900,2.638246 270.372772,3.020739 306.125580,3.023236 
	C334.120087,3.025192 362.130646,2.443440 390.105713,3.187609 
	C448.636444,4.744591 507.167999,3.579008 565.695923,4.083273 
	C576.602783,4.177244 587.190552,6.370911 596.674866,11.736506 
	C601.382202,14.399569 604.629211,19.184828 606.998657,24.663879 
	C606.471924,25.649546 605.685608,25.800011 604.440918,25.201336 
z"/>
<path fill="#E1E1E1" opacity="1.000000" stroke="none" 
	d="
M26.876345,462.674591 
	C26.700634,463.450867 26.367634,463.935455 26.005611,464.727783 
	C15.495552,458.545685 10.325960,448.586060 8.048084,436.938049 
	C5.825208,425.571259 7.201658,414.032379 7.041735,402.574371 
	C6.819210,386.631042 7.298475,370.674805 6.912105,354.737793 
	C6.495342,337.547089 7.830228,320.333801 6.746758,303.206696 
	C6.193533,294.461456 8.387534,285.743195 6.222187,277.021942 
	C5.532317,274.243378 7.084558,271.213654 7.058490,268.171844 
	C6.920637,252.086121 6.986552,235.998642 6.986864,219.911758 
	C6.987596,182.161911 7.382110,144.405884 6.785408,106.665504 
	C6.571359,93.127205 6.674453,79.568092 6.177493,66.021324 
	C5.933877,59.380550 5.937008,52.569382 8.666746,46.179993 
	C9.530966,44.157154 6.119886,43.049816 7.250136,40.773209 
	C9.325035,36.593834 11.337445,32.383438 13.812988,28.352585 
	C14.644694,32.254684 12.369604,35.476803 11.803887,39.043026 
	C10.709532,45.941750 10.163187,52.914825 10.111596,59.806301 
	C9.841319,95.910149 10.004523,132.017227 10.010887,168.123184 
	C10.012726,178.553436 9.989267,188.983673 9.985880,199.413925 
	C9.980223,216.829544 9.462561,234.267471 10.210173,251.650864 
	C10.556440,259.702271 9.122255,267.785553 10.866260,275.824951 
	C11.639931,279.391357 10.598749,283.072449 10.064131,286.692932 
	C9.252592,292.188660 10.593440,297.650665 11.250970,303.031036 
	C11.702579,306.726379 9.776505,309.586304 9.850354,313.088531 
	C10.032544,321.728699 11.321939,330.293427 11.010818,338.970856 
	C10.077154,365.011688 9.687753,391.065735 10.006184,417.125275 
	C10.087303,423.763855 10.359697,430.507751 11.323132,436.961365 
	C12.432447,444.392181 15.867002,451.457489 21.488390,457.017822 
	C23.263813,458.773956 24.977249,460.592773 26.876345,462.674591 
z"/>
<path fill="#DADADA" opacity="1.000000" stroke="none" 
	d="
M616.913696,362.511597 
	C615.266235,362.759918 614.598633,365.770386 612.304199,364.124786 
	C612.009216,357.980591 612.002991,351.955200 612.009277,345.461243 
	C611.994019,342.571899 612.013184,340.151031 612.010559,337.367126 
	C611.843567,295.983063 610.692505,254.962509 611.974243,213.472931 
	C612.165344,210.865021 611.633057,208.669556 612.711548,206.243866 
	C612.854248,197.304901 611.948486,188.700974 612.828735,180.109680 
	C613.026489,178.179474 611.986389,176.599609 612.057495,174.382507 
	C612.132263,171.517151 611.610779,169.021362 612.716064,166.262039 
	C613.065491,157.238205 611.388916,148.623001 612.027405,139.456863 
	C612.027893,138.548141 612.020813,138.107758 612.021423,137.336975 
	C612.022766,134.300735 612.021301,131.594788 612.032349,128.437927 
	C612.028625,127.543182 612.012268,127.099358 611.980225,126.322807 
	C611.969910,121.303940 611.974915,116.617821 611.990234,111.465698 
	C612.237488,109.237671 611.405029,106.914757 614.678162,106.776413 
	C615.339661,112.034019 615.651306,117.077011 615.953125,122.569717 
	C616.031128,125.112991 615.971558,127.207794 615.998169,129.650940 
	C616.010132,134.023041 616.020264,138.046097 616.023254,142.531952 
	C615.986084,144.107712 615.989746,145.220840 616.001160,146.667908 
	C616.007996,157.689560 616.010193,168.377274 616.002014,179.533722 
	C615.986145,180.800156 615.990967,181.597900 615.980835,182.694748 
	C616.299744,242.677795 616.620605,302.361694 616.913696,362.511597 
z"/>
<path fill="#D7D7D7" opacity="1.000000" stroke="none" 
	d="
M91.182236,259.397095 
	C79.847198,265.257507 65.785309,261.504730 61.345554,249.216522 
	C56.195339,234.961945 62.796947,221.151703 76.039749,217.558182 
	C84.726067,215.201080 94.610580,219.474411 97.999596,227.077438 
	C98.804085,228.882248 100.143394,231.546921 98.082726,232.409164 
	C95.403267,233.530365 91.251053,234.519547 89.402359,231.696823 
	C86.688400,227.552902 83.704994,225.379700 78.789230,226.181274 
	C73.150978,227.100662 71.616241,231.500275 70.416969,236.147293 
	C68.238861,244.587189 73.049370,252.664154 80.270721,253.103027 
	C84.576065,253.364685 87.179901,251.353851 88.947472,247.786026 
	C90.504456,244.643280 95.851364,242.657227 98.746025,244.209122 
	C100.331383,245.059067 99.920639,246.372879 99.545982,247.675079 
	C98.177338,252.432175 96.111977,256.704926 91.182236,259.397095 
z"/>
<path fill="#D7D7D7" opacity="1.000000" stroke="none" 
	d="
M240.843109,229.278412 
	C243.548050,229.190903 246.244705,228.474518 248.109818,229.412201 
	C253.687485,232.216293 252.940414,228.749130 253.176819,225.239227 
	C253.369232,222.382645 250.845413,217.841110 257.284332,217.911713 
	C261.576416,217.958801 263.160217,219.162659 263.045105,223.607544 
	C262.774139,234.071793 262.962097,244.547806 262.956818,255.019058 
	C262.953796,260.952881 260.827271,262.631866 255.109497,260.687866 
	C253.653381,260.192780 252.643295,259.568024 251.128647,260.381622 
	C242.426544,265.055908 233.475739,259.503693 231.338058,250.440643 
	C229.229721,241.502014 232.551804,233.678848 240.843109,229.278412 
z"/>
<path fill="#D7D7D7" opacity="1.000000" stroke="none" 
	d="
M408.527222,239.883209 
	C407.811859,245.871262 406.574280,251.442459 407.070618,257.105133 
	C407.394714,260.803162 405.365143,261.044281 402.498932,261.070282 
	C399.544220,261.097046 397.895691,260.643280 397.955811,257.039062 
	C398.150421,245.378860 398.145935,233.711472 397.957214,222.051071 
	C397.900024,218.517151 399.419800,217.899323 402.447693,217.966110 
	C405.264435,218.028229 407.525116,218.165695 407.049561,221.894577 
	C406.924103,222.878220 407.028717,223.891617 407.032745,224.891327 
	C407.056458,230.786072 407.057007,230.786057 412.860779,229.264709 
	C421.639221,226.963593 427.250061,231.845581 427.875519,242.652283 
	C428.163849,247.634308 427.800903,252.650955 427.970398,257.643860 
	C428.112671,261.835571 425.200195,260.888336 422.851471,260.999908 
	C420.247833,261.123596 417.813477,261.310791 418.000946,257.353485 
	C418.237152,252.366409 418.002289,247.358612 418.057190,242.360703 
	C418.083374,239.977875 417.477844,237.845612 415.049377,237.207657 
	C412.610596,236.566986 409.979279,236.430054 408.527222,239.883209 
z"/>
<path fill="#D7D7D7" opacity="1.000000" stroke="none" 
	d="
M207.183121,258.237000 
	C199.063614,263.883270 189.256195,262.993469 183.987427,256.422424 
	C178.754456,249.896027 179.409683,239.006851 185.387253,233.159286 
	C189.574432,229.063156 197.006424,227.722260 202.605087,230.052811 
	C207.573074,232.120804 212.038803,239.385483 211.977112,244.912277 
	C211.949432,247.392120 210.821808,248.035049 208.595978,248.000870 
	C203.432144,247.921555 198.266113,247.963470 193.101196,247.994949 
	C191.988037,248.001724 190.617126,247.720917 190.215363,249.255768 
	C189.931702,250.339386 190.654373,251.151581 191.336746,251.895081 
	C193.555161,254.312241 196.184143,255.316467 199.366959,254.039352 
	C200.269516,253.677185 201.202682,253.208878 201.901581,252.554184 
	C204.482208,250.136642 208.227219,249.999619 210.099518,251.706757 
	C211.676559,253.144669 208.944031,256.025726 207.183121,258.237000 
z"/>
<path fill="#D7D7D7" opacity="1.000000" stroke="none" 
	d="
M363.006042,243.347351 
	C364.999054,233.078018 371.071198,228.247543 380.462494,229.033585 
	C388.121887,229.674667 393.771149,235.955353 394.050201,243.721329 
	C394.167450,246.984863 393.148132,248.193192 389.825928,248.036835 
	C385.004059,247.809891 380.158295,248.117691 375.332672,247.934555 
	C371.680450,247.795959 372.480499,249.779037 373.413635,251.635864 
	C374.949066,254.691055 379.965363,255.677719 382.953796,253.392929 
	C384.715881,252.045731 386.253296,250.575195 388.672516,251.000290 
	C390.049255,251.242172 391.940369,250.247681 392.659546,252.074112 
	C393.258911,253.596207 392.070709,254.932709 391.213043,256.123566 
	C387.576782,261.172546 380.219727,263.314880 373.692352,261.297607 
	C367.386414,259.348755 363.350647,254.258163 363.016174,247.777679 
	C362.947571,246.448013 363.002319,245.111969 363.006042,243.347351 
z"/>
<path fill="#D7D7D7" opacity="1.000000" stroke="none" 
	d="
M287.288818,253.189484 
	C290.315491,250.200378 294.421082,249.689560 296.330597,252.079193 
	C298.097504,254.290421 294.736267,257.140381 292.550018,258.776825 
	C287.153717,262.816132 281.105347,263.082336 275.099182,260.394257 
	C269.518402,257.896545 267.322784,253.064682 266.970856,247.138779 
	C266.553741,240.116119 268.414215,234.153625 274.994019,230.781036 
	C280.727753,227.842102 286.464264,228.233475 291.959564,231.929260 
	C294.195526,233.433044 295.352356,235.536392 296.348816,237.819733 
	C299.945862,246.062286 298.732391,247.978912 290.009735,247.979980 
	C286.181213,247.980438 282.352600,248.001480 278.524170,247.983902 
	C276.294891,247.973663 276.023193,248.945358 276.867615,250.811264 
	C278.472015,254.356552 282.528168,255.453629 287.288818,253.189484 
z"/>
<path fill="#D7D7D7" opacity="1.000000" stroke="none" 
	d="
M502.056946,237.089813 
	C502.078613,229.606491 502.079773,229.768478 508.398102,229.923080 
	C511.387207,229.996231 512.015076,231.269531 511.976410,233.894211 
	C511.868439,241.222794 511.999969,248.554871 511.894135,255.883514 
	C511.869995,257.554199 512.910767,260.051147 510.568756,260.672729 
	C508.288300,261.277924 505.064789,262.165833 503.545258,260.132294 
	C501.903168,257.934723 501.436462,259.406281 500.267365,260.078247 
	C491.066956,265.366364 482.220947,260.345947 482.052490,249.730209 
	C481.967926,244.400497 482.222687,239.059357 481.968292,233.740387 
	C481.783936,229.885437 484.014465,229.970932 486.717102,229.949142 
	C489.358398,229.927826 491.212555,230.153259 491.090210,233.611389 
	C490.908569,238.747253 490.947906,243.880280 491.834137,249.014832 
	C492.368225,252.108856 493.370392,254.118134 496.736023,254.000443 
	C500.150360,253.881027 501.882629,251.883102 501.987122,248.567612 
	C502.102600,244.905807 502.041229,241.238419 502.056946,237.089813 
z"/>
<path fill="#D7D7D7" opacity="1.000000" stroke="none" 
	d="
M543.745850,229.271576 
	C558.752014,228.522079 567.181030,238.255798 563.091614,251.023697 
	C560.460510,259.238739 551.828796,263.802216 543.224426,261.527161 
	C534.867249,259.317474 529.722229,251.297852 531.225708,242.946564 
	C532.491089,235.917679 536.328247,231.251099 543.745850,229.271576 
z"/>
<path fill="#D7D7D7" opacity="1.000000" stroke="none" 
	d="
M104.592293,238.920135 
	C109.296249,229.589462 118.508377,226.369324 127.324959,230.677521 
	C135.272858,234.561264 138.386475,244.794113 134.237701,253.396103 
	C130.488876,261.168823 120.380989,264.319641 111.882645,260.364594 
	C106.454170,257.838226 102.556190,250.326767 103.504150,244.151581 
	C103.755074,242.517029 104.116592,240.899475 104.592293,238.920135 
z"/>
<path fill="#D7D7D7" opacity="1.000000" stroke="none" 
	d="
M475.388794,256.299164 
	C470.118866,262.202698 461.847015,263.628540 455.206238,260.052429 
	C448.856659,256.633148 445.893036,248.904984 447.649078,241.635315 
	C449.212860,235.161850 452.995239,230.654663 459.287170,229.312973 
	C465.087189,228.076218 470.982239,228.899048 475.306610,233.883942 
	C476.924713,235.749207 479.418213,238.492645 477.202545,240.233276 
	C475.041138,241.931290 470.983093,242.325424 468.574341,239.597794 
	C466.409088,237.145889 464.561981,235.066925 461.089203,236.927734 
	C456.547943,239.361053 456.727295,243.648300 457.025452,247.848251 
	C457.257385,251.115570 458.986176,253.682587 462.200500,254.470123 
	C464.507843,255.035431 467.040039,254.328842 468.043030,251.827850 
	C469.741364,247.592972 473.229736,249.188538 476.157349,249.066101 
	C477.715027,249.000931 478.109070,250.148483 477.630463,251.489426 
	C477.077362,253.039124 476.878113,254.761307 475.388794,256.299164 
z"/>
<path fill="#D7D7D7" opacity="1.000000" stroke="none" 
	d="
M344.835388,244.000458 
	C345.360291,245.608734 345.784515,246.852356 346.528625,249.033783 
	C348.266418,243.386063 349.698395,238.573441 351.234436,233.794266 
	C352.314972,230.432266 357.017670,228.522827 359.896484,230.206543 
	C361.417786,231.096283 361.009491,232.432938 360.580048,233.716187 
	C357.841217,241.900345 354.961304,250.040482 352.410553,258.282623 
	C351.513916,261.179901 349.607300,261.190369 347.416840,260.979065 
	C344.826324,260.729248 341.568024,262.278381 340.246887,258.360870 
	C337.436768,250.028061 334.620575,241.696289 331.679657,233.409241 
	C330.835266,231.029892 331.280609,230.202499 333.893921,229.931030 
	C338.414246,229.461472 341.573090,230.299973 342.336945,235.546417 
	C342.737976,238.300858 343.910583,240.942963 344.835388,244.000458 
z"/>
<path fill="#D7D7D7" opacity="1.000000" stroke="none" 
	d="
M152.179901,228.821991 
	C153.916672,230.565140 157.901642,229.245407 157.021332,233.431015 
	C156.818314,234.396301 156.920059,235.766037 155.700378,235.768677 
	C150.738556,235.779434 152.000183,239.378418 151.952682,242.119629 
	C151.863495,247.266876 151.776703,252.422195 151.968338,257.563751 
	C152.121811,261.681396 149.349930,260.965027 146.938965,260.997833 
	C144.458817,261.031616 141.842102,261.539215 141.993286,257.480774 
	C142.209534,251.675781 142.029572,245.856537 142.051697,240.043503 
	C142.059586,237.974197 142.210587,235.946640 139.180725,235.954208 
	C137.027985,235.959579 137.066376,234.299561 137.059128,232.754654 
	C137.052216,231.282745 137.380371,230.020660 139.172455,230.048950 
	C141.309097,230.082703 141.735535,228.956879 142.156647,227.025803 
	C143.644379,220.203568 147.228546,217.726852 154.295731,218.021133 
	C156.234665,218.101883 158.070541,218.061890 157.951981,220.785812 
	C157.860596,222.885254 158.472397,225.375137 155.351135,225.836517 
	C153.687302,226.082474 151.853790,225.909531 152.179901,228.821991 
z"/>
<path fill="#D7D7D7" opacity="1.000000" stroke="none" 
	d="
M526.933716,237.000504 
	C526.932251,244.160934 526.778076,250.826218 526.986084,257.480194 
	C527.113525,261.553833 524.495911,261.020294 522.015991,260.999268 
	C519.580200,260.978607 516.945801,261.642639 517.001099,257.528351 
	C517.162292,245.541580 517.164612,233.549744 516.998352,221.563110 
	C516.942017,217.502731 519.483032,218.015732 521.970215,218.036301 
	C524.413757,218.056488 527.147644,217.407669 526.978516,221.516449 
	C526.773193,226.503326 526.932312,231.505203 526.933716,237.000504 
z"/>
<path fill="#D7D7D7" opacity="1.000000" stroke="none" 
	d="
M311.927307,255.821335 
	C312.753357,261.176605 309.655365,260.949310 306.223969,261.099792 
	C302.353027,261.269501 301.964508,259.377197 301.997589,256.265350 
	C302.117584,244.973312 302.177429,233.676773 301.968658,222.387329 
	C301.901398,218.749969 303.276123,217.864868 306.611877,217.955170 
	C309.831726,218.042313 312.047455,218.345535 311.983429,222.461945 
	C311.813019,233.420441 311.926727,244.383362 311.927307,255.821335 
z"/>
<path fill="#D7D7D7" opacity="1.000000" stroke="none" 
	d="
M173.573120,230.206863 
	C180.197418,227.964539 181.695084,228.994537 180.940384,234.741302 
	C180.722275,236.402252 180.188782,237.452652 178.403412,237.919006 
	C170.548843,239.970703 169.335358,241.454086 169.045288,249.178162 
	C168.945312,251.840240 168.829788,254.527084 169.071609,257.170563 
	C169.416336,260.939270 167.214813,260.996185 164.429535,261.069275 
	C161.388733,261.149109 159.841522,260.502136 159.952652,256.975586 
	C160.183441,249.652023 160.005737,242.316071 160.026688,234.985291 
	C160.039734,230.423691 164.322205,227.500061 167.715652,230.457184 
	C170.408768,232.804031 171.430145,231.252380 173.573120,230.206863 
z"/>
<path fill="#E1E1E1" opacity="1.000000" stroke="none" 
	d="
M615.187744,106.608231 
	C612.533386,107.014099 613.356628,109.360687 612.266724,110.776802 
	C610.126648,104.492737 611.489746,97.892815 611.340210,91.332344 
	C611.130310,82.119987 612.917908,72.938835 611.496399,63.707405 
	C610.994141,60.445595 610.942322,57.070641 611.075012,53.763004 
	C611.477905,43.721310 609.721069,34.248486 604.198486,25.296354 
	C604.848511,24.975401 605.614929,24.984421 606.769653,24.986755 
	C617.250427,36.402760 615.999146,50.308960 615.829773,64.031410 
	C615.759644,69.715462 614.442078,75.305305 615.714355,81.120316 
	C617.531677,89.426292 615.953247,97.857117 615.187744,106.608231 
z"/>
<path fill="#D7D7D7" opacity="1.000000" stroke="none" 
	d="
M439.813324,230.001816 
	C442.571869,229.927505 442.943756,231.374695 442.937744,233.249557 
	C442.911713,241.372345 442.812256,249.497589 442.976135,257.617157 
	C443.059723,261.757385 440.282135,260.933960 437.912781,260.996368 
	C435.408478,261.062317 432.894897,261.476837 432.997620,257.458069 
	C433.200897,249.506149 433.158844,241.543640 433.022247,233.588882 
	C432.929993,228.219696 436.872742,230.519135 439.813324,230.001816 
z"/>
<path fill="#E1E1E1" opacity="1.000000" stroke="none" 
	d="
M149.349091,6.756845 
	C141.279343,8.508819 133.666656,6.595443 126.106178,5.774686 
	C114.310760,4.494189 102.547333,5.351231 90.778259,5.004551 
	C88.957558,4.950919 87.133911,4.997059 85.297371,4.368817 
	C104.537476,2.609770 123.877510,4.323452 143.592880,3.126037 
	C146.935562,5.918589 151.030670,3.333303 154.237564,5.282272 
	C152.974121,7.302904 151.131836,6.106190 149.349091,6.756845 
z"/>
<path fill="#D7D7D7" opacity="1.000000" stroke="none" 
	d="
M448.534698,215.387054 
	C446.163971,218.136520 443.797180,220.462860 441.615448,222.951462 
	C439.708038,225.127182 436.978638,226.033035 434.996155,224.555771 
	C432.606232,222.774872 435.332733,220.806335 436.344208,219.141602 
	C439.792725,213.466080 442.443359,212.627075 448.534698,215.387054 
z"/>
<path fill="#DADADA" opacity="1.000000" stroke="none" 
	d="
M149.445831,6.994774 
	C149.870193,5.395785 151.832870,6.589468 153.009323,5.409052 
	C150.148132,4.063852 146.767044,6.333644 144.142151,3.535227 
	C147.884201,4.084239 151.656403,4.279821 155.547470,3.193970 
	C157.342880,2.692934 159.425949,2.711361 161.626602,3.851975 
	C163.106567,8.631591 159.656815,6.738787 157.356888,7.004670 
	C154.628555,7.008548 152.258957,7.010330 149.445831,6.994774 
z"/>
<path fill="#E1E1E1" opacity="1.000000" stroke="none" 
	d="
M26.578087,15.624260 
	C22.170965,18.351297 19.479637,22.398403 15.841075,26.192701 
	C16.782778,20.711754 23.210608,14.026704 29.450209,11.581441 
	C29.759800,13.694952 27.829212,14.249686 26.578087,15.624260 
z"/>
<path fill="#DADADA" opacity="1.000000" stroke="none" 
	d="
M612.060242,372.412170 
	C613.179993,371.499695 612.694275,369.705414 614.490234,369.458710 
	C615.512207,372.740265 614.922791,376.129059 614.880249,379.448578 
	C614.862915,380.804871 613.744873,380.777924 612.387085,380.157043 
	C612.053528,377.634552 612.047058,375.247498 612.060242,372.412170 
z"/>
<path fill="#E1E1E1" opacity="1.000000" stroke="none" 
	d="
M157.291672,7.291227 
	C157.926849,4.711576 161.590134,8.157861 161.969849,4.329638 
	C162.743118,3.987420 163.488693,3.967539 164.606476,3.951346 
	C165.143036,6.112452 166.729874,5.994328 168.622696,5.999258 
	C169.003067,6.003319 169.003098,6.482278 169.001709,6.721357 
	C165.286469,8.857437 161.418076,7.887479 157.291672,7.291227 
z"/>
<path fill="#E1E1E1" opacity="1.000000" stroke="none" 
	d="
M612.581116,166.032059 
	C612.880859,168.418747 613.386353,170.944931 612.337524,173.696655 
	C610.511047,171.336014 610.377625,168.721542 612.581116,166.032059 
z"/>
<path fill="#E1E1E1" opacity="1.000000" stroke="none" 
	d="
M611.736328,337.275330 
	C613.770081,339.368561 613.022339,341.924194 612.301392,344.724548 
	C610.289795,342.627197 611.026794,340.075470 611.736328,337.275330 
z"/>
<path fill="#DADADA" opacity="1.000000" stroke="none" 
	d="
M611.997070,385.377319 
	C614.927185,384.732697 615.165100,386.590790 614.970093,388.767029 
	C614.900757,389.541107 614.910950,390.669281 613.801758,390.357880 
	C613.244080,390.201263 612.950928,389.102386 612.280518,388.220398 
	C612.011658,387.258575 612.000488,386.505981 611.997070,385.377319 
z"/>
<path fill="#E1E1E1" opacity="1.000000" stroke="none" 
	d="
M612.578003,206.018646 
	C612.874268,208.095444 613.408264,210.318863 612.276855,212.735046 
	C610.604370,210.664108 610.223694,208.357452 612.578003,206.018646 
z"/>
<path fill="#E1E1E1" opacity="1.000000" stroke="none" 
	d="
M616.270508,129.736115 
	C614.284607,127.986931 614.963867,125.753769 615.674927,123.280899 
	C617.690125,125.027039 616.990967,127.261185 616.270508,129.736115 
z"/>
<path fill="#E1E1E1" opacity="1.000000" stroke="none" 
	d="
M616.256226,146.785217 
	C614.691040,145.970413 614.809875,144.732193 615.752197,143.204025 
	C617.239319,144.040665 617.142029,145.267715 616.256226,146.785217 
z"/>
<path fill="#E1E1E1" opacity="1.000000" stroke="none" 
	d="
M616.222656,182.808594 
	C614.943420,182.279236 614.814758,181.398117 615.744263,180.185303 
	C617.011292,180.720032 617.139404,181.599091 616.222656,182.808594 
z"/>
<path fill="#E1E1E1" opacity="1.000000" stroke="none" 
	d="
M611.803833,137.153900 
	C612.711548,137.425781 613.023682,137.945358 612.258423,138.841751 
	C611.346069,138.572906 611.020996,138.057281 611.803833,137.153900 
z"/>
<path fill="#E1E1E1" opacity="1.000000" stroke="none" 
	d="
M611.752136,126.146622 
	C612.671631,126.392029 613.030151,126.900436 612.263977,127.836334 
	C611.342224,127.586044 611.012817,127.073067 611.752136,126.146622 
z"/>
<path fill="#E1E1E1" opacity="1.000000" stroke="none" 
	d="
M168.999023,5.998523 
	C169.438660,5.285694 170.054031,4.948234 170.885101,5.187318 
	C170.950073,5.206008 170.954163,5.772689 170.909439,5.784167 
	C170.482040,5.893838 170.038010,5.938682 169.300903,6.002726 
	C169.003067,6.003319 169.000000,6.000021 168.999023,5.998523 
z"/>
<path fill="#FFFFFF" opacity="1.000000" stroke="none" 
	d="
M249.899292,254.035141 
	C244.332626,255.412430 241.236343,253.262451 240.120636,247.656036 
	C239.076462,242.409119 242.073639,236.664200 246.238632,236.138702 
	C249.000015,235.790314 251.121109,237.157791 252.528275,239.388092 
	C255.280991,243.751053 254.228104,249.973633 249.899292,254.035141 
z"/>
<path fill="#FFFFFF" opacity="1.000000" stroke="none" 
	d="
M200.295166,241.915787 
	C197.728638,241.971313 195.573456,242.046036 193.424973,241.957504 
	C192.224670,241.908051 190.505524,242.518799 190.248169,240.556320 
	C190.052246,239.062378 191.218262,238.126801 192.343231,237.429565 
	C194.710083,235.962601 197.262848,235.044327 199.632874,237.247559 
	C200.883362,238.410080 203.301254,239.659363 200.295166,241.915787 
z"/>
<path fill="#FFFFFF" opacity="1.000000" stroke="none" 
	d="
M372.458557,240.477112 
	C375.552673,235.573654 380.520264,234.604477 382.952301,238.144485 
	C384.343048,240.168823 384.559906,242.145294 381.251770,241.912613 
	C378.291840,241.704407 375.089874,243.156967 372.458557,240.477112 
z"/>
<path fill="#FFFFFF" opacity="1.000000" stroke="none" 
	d="
M279.884216,236.616028 
	C281.680664,235.909897 283.141846,235.841705 284.588531,236.389755 
	C286.424194,237.085098 287.919037,238.383377 287.744995,240.362885 
	C287.522064,242.898331 285.228394,241.730011 283.784943,241.956589 
	C282.818207,242.108353 281.786743,242.115906 280.822876,241.955643 
	C279.324585,241.706543 276.984528,242.959396 276.529755,240.860840 
	C276.150085,239.109024 277.678467,237.538300 279.884216,236.616028 
z"/>
<path fill="#FFFFFF" opacity="1.000000" stroke="none" 
	d="
M540.980225,243.411240 
	C541.985352,239.017563 543.782349,235.347305 548.530151,236.227554 
	C553.102783,237.075302 554.335632,241.318619 554.746765,245.351044 
	C555.161987,249.425018 551.601624,254.551834 548.360352,254.885315 
	C543.982422,255.335754 542.217773,252.228653 541.151550,248.768616 
	C540.682861,247.247742 541.004639,245.483261 540.980225,243.411240 
z"/>
<path fill="#FFFFFF" opacity="1.000000" stroke="none" 
	d="
M118.389877,254.879852 
	C112.265045,250.657135 111.055786,242.765442 115.361778,238.092957 
	C118.050713,235.175156 121.229401,235.204269 123.689491,237.638306 
	C126.593109,240.511154 127.626411,244.283707 126.331718,248.587402 
	C125.147621,252.523529 123.251686,255.141998 118.389877,254.879852 
z"/>
</svg>