<?xml version="1.0" encoding="UTF-8"?>
<svg id="Capa_1" data-name="Capa 1" xmlns="http://www.w3.org/2000/svg" viewBox="0 0 368.54 112.51">
  <path d="m274.32,60.23c-6.47,5.09-8.87,12.23-9.7,19.99-.58,5.37-.61,10.81-.95,17.55-53.11-.13-106.26.73-158.72-1.13-.44-8.43.16-16.23-1.43-23.56-3.76-17.3-19.44-27.08-39.02-25.4-15.02,1.29-26.83,14.14-28.19,30.73-.3,3.65-.45,7.3-.7,11.56-10.55.84-21.22,2.24-30.02-6.31-.53-.51-1.39-.83-2.14-.94-4.31-.66-3.55-3.39-3.05-6.45.44-2.71-.09-5.57.19-8.32.31-3,.25-6.54,1.83-8.8,2.53-3.62,3.11-6.89,2.35-11.13-.78-4.34-.92-8.92-.46-13.3.16-1.49,2.8-3.51,4.61-3.92,11-2.51,22.01-5.46,33.18-6.7,19.79-2.21,39.7-3.26,59.55-4.94,1.3-.11,2.86-1.12,3.66-2.19,1.69-2.29,2.92-4.93,4.41-7.38,2.42-4,5.98-5.17,10.12-3.6,1.98.75,4.15,1.76,6.14,1.58,4.4-.41,5.71,1.94,5.97,5.54.21,3.02.34,6.07.2,9.09-.13,2.79.8,4.17,3.71,4.25,15.8.42,31.6.96,47.41,1.24,1.25.02,2.66-1.52,3.73-2.61.8-.81,1.18-2.05,1.74-3.1.41.09.82.18,1.23.27-.12,1.66-.23,3.32-.4,5.63,2.05.12,4.32.25,6.59.39,1.24-2.64,2.37-5.05,3.81-8.13-8.95-4.02-17.98-8.09-27.01-12.15,1.88-6.53,9.74-9.99,16.54-6.75,15.81,7.55,31.38,15.6,47.26,22.98,4.59,2.13,9.88,3.52,14.93,3.82,27.71,1.67,55.43,3.13,82.23,11.28,11.33,3.44,22.27,7.72,31.41,15.66,2.39,2.08,3.58,4.24,3.09,7.45-1.05,6.91-2.02,13.84-2.81,20.78-.17,1.53.02,3.68.96,4.65,2.77,2.83,1.17,4.42-1.34,5.31-2.82,1-5.86,1.42-8.84,1.87-8.32,1.26-16.65,2.4-25.41,3.66,0-7.03.62-13.58-.12-19.98-1.95-16.91-16.75-32.11-38.54-28.8-.34.05-.6.62-.9.94-5.7,3.13-11.41,6.25-17.11,9.38Zm46.21-18.1c9.73,4.62,19.57,9.51,29.61,13.92,2.92,1.28,6.45,1.18,10.93,1.91-7.55-8.43-35.04-18.44-40.54-15.83Zm-280.15.76c-1.53-1.14-2.4-2.03-3.45-2.55-9.53-4.7-19.96-2.82-29.98-3.9-.6-.06-1.98,2.01-1.98,3.08,0,.86,1.51,2.36,2.46,2.45,5.38.5,10.78.76,16.19.9,5.32.14,10.65.03,16.77.03Zm88.44-.85c-.1.79-.2,1.57-.29,2.36,3.77.21,7.55.42,11.32.63.09-.65.18-1.3.26-1.96-3.52-1.89-7.54-.63-11.29-1.03Z"/>
  <g>
    <g>
      <path d="m70.22,111.12c-16.75-.08-30-13.47-29.9-30.2.1-16.95,13.6-30.26,30.55-30.12,16.5.13,29.85,13.83,29.75,30.52-.1,16.54-13.71,29.89-30.4,29.81Zm-6.83-35.43c.75,2.46.49,4.2-2.59,4.75-4.56.82-9.07,1.93-13.7,2.94.04.7.07,1.33.1,1.95,5.3-.65,10.6-1.31,16.89-2.08-1.27,1.67-1.98,2.61-2.68,3.54,5.27-1.2,6.53.08,5.52,5.38-.62,3.26-1.18,6.55-1.39,9.85-.05.81,1.33,1.71,2.45,3.04.69-6.52,1.22-11.58,1.75-16.64.52,0,1.04,0,1.56,0,.41,1.24.82,2.48.91,2.78,1.05-1.29,2.99-4.64,3.7-4.4,4.91,1.69,9.55,4.13,14.43,6.4.35-.65,1.07-1.99,1.82-3.38-4.23-1.63-8.21-3.05-12.08-4.73-.92-.4-1.48-1.63-2.2-2.48,2.93-2.2-1.55-2.78-.61-5.53,3.12-3.38,6.94-7.53,10.9-11.81-1.2-1.01-2.22-1.87-2.93-2.46-3.34,4.16-6.49,8.1-9.18,11.45-10.29-.06-11.14-8.86-15.4-14.64-1.25.74-2.59,1.53-3.92,2.32.14,1.98-.34,4.31.54,5.87,1.62,2.86,4.03,5.27,6.12,7.87Z"/>
      <path d="m56.73,61.95c1.34-.79,2.67-1.58,3.92-2.32,4.27,5.78,5.12,14.59,15.4,14.64,2.69-3.35,5.85-7.29,9.18-11.45.7.59,1.72,1.45,2.93,2.46-3.95,4.29-7.78,8.43-10.9,11.81-.94,2.75,3.53,3.34.61,5.53.72.85,1.28,2.08,2.2,2.48,3.87,1.67,7.85,3.1,12.08,4.73-.75,1.39-1.47,2.73-1.82,3.38-4.88-2.27-9.53-4.71-14.43-6.4-.7-.24-2.65,3.11-3.7,4.4-.1-.3-.51-1.54-.91-2.78-.52,0-1.04,0-1.56,0-.53,5.06-1.06,10.12-1.75,16.64-1.12-1.33-2.5-2.23-2.45-3.04.22-3.3.77-6.59,1.39-9.85,1.01-5.3-.25-6.59-5.52-5.38.7-.92,1.41-1.86,2.68-3.54-6.29.78-11.59,1.43-16.89,2.08-.03-.63-.06-1.25-.1-1.95,4.63-1.01,9.14-2.12,13.7-2.94,3.08-.55,3.34-2.29,2.59-4.75.9-.64,1.79-1.28,2.69-1.92-3.12-3.94-6.23-7.88-9.35-11.81Z"/>
    </g>
    <path d="m56.73,61.95c3.12,3.94,6.23,7.88,9.35,11.81-.9.64-1.79,1.28-2.69,1.92-2.08-2.6-4.5-5.01-6.12-7.87-.88-1.56-.4-3.89-.54-5.87Z"/>
  </g>
  <g>
    <g>
      <path d="m297.11,112.51c-16.75-.08-30-13.47-29.9-30.2.1-16.95,13.6-30.26,30.55-30.12,16.5.13,29.85,13.83,29.75,30.52-.1,16.54-13.71,29.89-30.4,29.81Zm-6.83-35.43c.75,2.46.49,4.2-2.59,4.75-4.56.82-9.07,1.93-13.7,2.94.04.7.07,1.33.1,1.95,5.3-.65,10.6-1.31,16.89-2.08-1.27,1.67-1.98,2.61-2.68,3.54,5.27-1.2,6.53.08,5.52,5.38-.62,3.26-1.18,6.55-1.39,9.85-.05.81,1.33,1.71,2.45,3.04.69-6.52,1.22-11.58,1.75-16.64.52,0,1.04,0,1.56,0,.41,1.24.82,2.48.91,2.78,1.05-1.29,2.99-4.64,3.7-4.4,4.91,1.69,9.55,4.13,14.43,6.4.35-.65,1.07-1.99,1.82-3.38-4.23-1.63-8.21-3.05-12.08-4.73-.92-.4-1.48-1.63-2.2-2.48,2.93-2.2-1.55-2.78-.61-5.53,3.12-3.38,6.94-7.53,10.9-11.81-1.2-1.01-2.22-1.87-2.93-2.46-3.34,4.16-6.49,8.1-9.18,11.45-10.29-.06-11.14-8.86-15.4-14.64-1.25.74-2.59,1.53-3.92,2.32.14,1.98-.34,4.31.54,5.87,1.62,2.86,4.03,5.27,6.12,7.87Z"/>
      <path d="m283.62,63.35c1.34-.79,2.67-1.58,3.92-2.32,4.27,5.78,5.12,14.59,15.4,14.64,2.69-3.35,5.85-7.29,9.18-11.45.7.59,1.72,1.45,2.93,2.46-3.95,4.29-7.78,8.43-10.9,11.81-.94,2.75,3.53,3.34.61,5.53.72.85,1.28,2.08,2.2,2.48,3.87,1.67,7.85,3.1,12.08,4.73-.75,1.39-1.47,2.73-1.82,3.38-4.88-2.27-9.53-4.71-14.43-6.4-.7-.24-2.65,3.11-3.7,4.4-.1-.3-.51-1.54-.91-2.78-.52,0-1.04,0-1.56,0-.53,5.06-1.06,10.12-1.75,16.64-1.12-1.33-2.5-2.23-2.45-3.04.22-3.3.77-6.59,1.39-9.85,1.01-5.3-.25-6.59-5.52-5.38.7-.92,1.41-1.86,2.68-3.54-6.29.78-11.59,1.43-16.89,2.08-.03-.63-.06-1.25-.1-1.95,4.63-1.01,9.14-2.12,13.7-2.94,3.08-.55,3.34-2.29,2.59-4.75.9-.64,1.79-1.28,2.69-1.92-3.12-3.94-6.23-7.88-9.35-11.81Z"/>
    </g>
    <path d="m283.62,63.35c3.12,3.94,6.23,7.88,9.35,11.81-.9.64-1.79,1.28-2.69,1.92-2.08-2.6-4.5-5.01-6.12-7.87-.88-1.56-.4-3.89-.54-5.87Z"/>
  </g>
</svg>