<?xml version="1.0" encoding="UTF-8"?>
<svg id="Capa_1" data-name="Capa 1" xmlns="http://www.w3.org/2000/svg" viewBox="0 0 355.55 106.59">
  <path d="m43.46,90.52c-10.81-1.64-21-2.48-30.81-4.89-8.41-2.07-14.18-14.81-12.3-25.09.59-3.22,2.14-6.27,3.36-9.35,2.24-5.65,4.64-11.23,6.82-16.9,1.71-4.45,4.65-6.94,9.55-7.13,5.94-.23,11.91-.33,17.78-1.1,4.44-.58,9.07-1.43,13.07-3.31C86.36,6.09,123.37-2.24,162.6.52c21.67,1.53,41.55,8.91,60.67,18.75,1.9.98,3.98,1.67,5.71,2.86,10.5,7.22,22.35,7.31,34.5,7.66,23.64.68,47.11,3.51,69.52,11.55,17.75,6.37,26.25,23.36,21.02,43.51-.57,2.2-3.21,5.03-5.32,5.46-7.81,1.6-15.81,2.31-24.08,3.4,5.07-18.42,1.37-31.27-11.13-40.33-10.25-7.43-25.23-7.68-36.17-.6-12.73,8.24-16.49,20.51-12.27,40.6H104.05c5.28-16.33,2.38-30.48-12.18-40.27-11.03-7.42-23.17-7.52-34.46-.33-13.38,8.53-17.38,21.27-13.95,37.74ZM213.19,22.99C175.53-.23,110.35,4.34,82.79,21.95c2.73,6.15,7.31,8.03,14.14,7.96,36.18-.36,72.36-.17,108.54-.17,1.66,0,3.32,0,4.89,0,1-2.39,1.88-4.47,2.84-6.75Z"/>
  <path d="m268.47,79.76c.42-14.13,10.21-26.4,26.49-26.42,15.74-.02,26.84,11.62,26.44,27.28-.38,15-11.38,25.51-26.64,25.83-14.42.3-26.59-12.61-26.29-26.69Zm37.9-13.1c-3.8-1.5-6.13-2.42-8.46-3.34-.39.31-.77.63-1.16.94.55,2.43,1.11,4.86,1.66,7.29,2.23-1.38,4.47-2.75,7.95-4.9Zm-24.58,24.57c2.09-3.44,3.47-5.72,4.86-8-2.6-.45-5.2-.89-9.01-1.54,1.56,3.59,2.55,5.85,4.16,9.54Zm30.46-9.68c-3.74.77-6.35,1.3-8.96,1.84,1.44,2.22,2.87,4.45,5.01,7.75,1.55-3.77,2.5-6.07,3.95-9.59Zm-4.02-12.96c-2.1,3.38-3.5,5.63-4.9,7.88,2.58.49,5.16.98,8.93,1.69-1.51-3.6-2.47-5.86-4.03-9.57Zm-23.34,23.8c.13.52.27,1.03.4,1.55,2.22.82,4.45,1.64,7.88,2.91-.73-3.79-1.21-6.26-1.69-8.73-2.2,1.42-4.4,2.84-6.6,4.27Zm8.09-29.57c-3.47,1.45-5.75,2.4-8.02,3.35-.03.47-.07.93-.1,1.4,2.26,1.31,4.51,2.61,6.77,3.92.39-2.49.78-4.98,1.36-8.66Zm11.65,30.92c.11-.47.23-.94.34-1.41-2.21-1.37-4.42-2.74-6.63-4.11-.44,2.52-.89,5.05-1.56,8.88,3.66-1.56,5.75-2.46,7.85-3.36Zm-26.39-17.05c.29.43.58.85.88,1.28,2.5-.47,5.01-.94,7.51-1.41-1.38-2.26-2.77-4.52-4.84-7.91-1.58,3.59-2.56,5.81-3.54,8.04Z"/>
  <path d="m100.79,80c.08,14.24-12.45,26.8-26.53,26.58-14.2-.21-26.27-12.3-26.36-26.37-.09-14.48,11.87-26.55,26.36-26.59,14.58-.04,26.45,11.76,26.53,26.38Zm-16.7,13.92c.12-.49.24-.99.36-1.48-2.23-1.38-4.46-2.76-6.69-4.14-.59,2.54-1.19,5.08-2.1,8.97,3.87-1.53,6.15-2.44,8.44-3.34Zm-6.76-30.53c-.49.32-.99.65-1.48.97.65,2.45,1.3,4.91,1.95,7.36,2.23-1.45,4.46-2.9,7.71-5.02-3.62-1.46-5.9-2.39-8.18-3.31Zm-4.43,1.08c-.44-.37-.87-.74-1.31-1.1-2.4.96-4.81,1.93-8.49,3.4,3.34,2.18,5.53,3.61,7.71,5.03l2.08-7.33Zm14.7,26.81c1.55-3.7,2.49-5.95,3.94-9.42-3.81.64-6.36,1.07-8.91,1.51,1.42,2.26,2.83,4.51,4.97,7.92Zm-27.15-1.6c.47.12.95.23,1.42.35,1.4-2.13,2.8-4.27,4.2-6.4-2.58-.54-5.15-1.08-8.85-1.86,1.45,3.56,2.33,5.74,3.22,7.91Zm4.02,2.77c.11.5.22,1.01.33,1.51,2.3.89,4.61,1.79,8.42,3.27-1.04-3.89-1.73-6.44-2.41-8.99-2.12,1.41-4.23,2.81-6.35,4.22Zm-2.49-22.55c-.45.09-.91.18-1.36.27-.96,2.33-1.92,4.66-3.42,8.29,3.74-.74,6.24-1.23,8.75-1.73-1.32-2.28-2.65-4.56-3.97-6.83Zm25.57-1.01c-2.06,3.32-3.47,5.57-4.87,7.83,2.57.45,5.13.9,9.04,1.58-1.64-3.7-2.62-5.93-4.17-9.42Z"/>
</svg>