<?xml version="1.0" encoding="UTF-8"?>
<svg id="Capa_1" data-name="Capa 1" xmlns="http://www.w3.org/2000/svg" viewBox="0 0 332.28 136.31">
  <path d="m31.97,7.08c-.44-.55-1.38-1.7-2.3-2.88-1.54-1.99-1.03-3.96,1.33-3.94,8.76.08,17.86-1.86,25.83,3.94,1.15.84,3.06.88,4.62.88,38.08.04,76.16.02,114.24.04,8.94,0,17.64,1.66,25.17,6.52,5.67,3.66,10.68,8.36,15.85,12.76,7.51,6.4,14.86,12.98,22.37,19.38,1.05.9,2.62,1.57,3.99,1.64,9.74.53,19.6.1,29.22,1.46,13.75,1.94,27.75,3.13,40.81,8.59,5.24,2.18,8.7,5.73,10.52,11.17,2.27,6.81,5.19,13.42,7.3,20.27,1.64,5.33,2.1,11-.29,16.26-1.16,2.56-2.97,5.19-5.2,6.83-4.68,3.45-10.07,5.21-16.09,4.62-2.6-.26-3.35-1.6-3.15-3.84,1.04-11.67-3.37-20.86-11.66-29.01-9.86-9.69-28.42-10.87-39.55-2.3-9.63,7.41-15.24,17.29-14.55,29.99.2,3.79-1.06,5.02-4.89,5.02-43.4,0-86.79,0-130.19,0-4.26,0-5.25-1.04-5.15-5.41.25-10.86-4.04-19.49-11.73-27.14-9.86-9.81-28.05-10.83-38.72-3.16-10.21,7.34-16.26,17.32-15.43,30.41.24,3.75-2.01,6.22-5.96,5.06-2.26-.66-4.51-1.38-6.75-2.13-13.28-4.41-18.98-14.59-20.88-27.6-1.56-10.68-.37-21.2,1.92-31.66.14-.63.31-1.28.61-1.84,4.57-8.69,8.64-17.71,13.9-25.96,4.07-6.38,9.64-11.8,14.84-17.99Zm84.32,38.4c8.67,0,17.34-.04,26.02.03,2.03.02,2.93-.59,2.95-2.76.1-9.11.29-18.21.52-27.32.06-2.19-.74-3.2-2.99-3.2-14.85.03-29.7.02-44.55.03-1.83,0-2.86.68-3.35,2.7-2.19,8.93-4.62,17.8-6.9,26.71-.87,3.42-.53,3.8,2.94,3.81,8.46.02,16.91,0,25.37,0Zm73.43,0c10.73,0,21.45.05,32.18-.06,1.31-.01,2.6-.89,3.9-1.37-.6-1.17-.94-2.62-1.85-3.45-6.56-5.98-13.11-11.99-19.91-17.7-6.8-5.71-14.68-9.62-23.58-10.31-8.19-.64-16.45-.27-24.68-.34-2.34-.02-2.45,1.58-2.42,3.35.13,8.89.3,17.77.3,26.66,0,2.65,1.14,3.28,3.55,3.26,10.83-.09,21.67-.04,32.5-.04Zm-129.54-.01c4.76,0,9.54.15,14.29-.1,1.17-.06,2.93-1.18,3.3-2.22,3.26-9.05,6.27-18.19,9.34-27.31.79-2.36.28-3.68-2.61-3.62-6.39.13-12.78-.05-19.16.12-2.34.06-5.1.13-6.91,1.33-4.98,3.32-9.95,6.85-14.16,11.07-2.61,2.61-4.5,6.44-5.49,10.05-1.64,6.02,2.5,10.64,8.74,10.68,4.22.03,8.45,0,12.67,0Zm247.71,17.04c-.97,0-1.98-.17-2.91.04-1.88.43-5.09.78-5.28,1.68-.43,2.04.34,4.53,1.22,6.57.52,1.21,2.08,2.44,3.39,2.75,5.1,1.23,10.28,2.18,15.46,3.07,1.98.34,2.95-.94,2.36-2.77-2.74-8.58-2.45-11.83-13.27-11.34-.32.01-.65,0-.97,0Zm-297.02-.02s0,.04,0,.07c-1.29,0-2.71-.33-3.85.09-1.15.42-2.67,1.44-2.89,2.45-.58,2.6-.65,5.34-.71,8.03-.05,2.14,1.25,3.39,3.33,2.76,2.64-.79,5.33-1.73,7.66-3.16,2.6-1.6,3.92-5.76,2.97-8-1.23-2.87-3.88-2.15-6.18-2.24-.11,0-.22,0-.32,0Z"/>
  <path d="m38.97,107.22c-.7-15.4,14.64-28.92,28.35-28.82,13.49.1,28.36,13.25,28.17,28.83-.2,16.3-12.48,29.03-28.33,29.08-15.79.05-28.25-12.82-28.18-29.09Zm45.11,0c-.04-9.51-7.45-16.87-16.98-16.86-9.44.01-16.95,7.51-16.95,16.94,0,10.28,7.26,17.75,17.19,17.67,9.79-.08,16.78-7.5,16.74-17.75Z"/>
  <path d="m273.41,78.47c13.43-.35,28.62,13.13,28.29,28.93-.34,16.08-12.32,28.76-28.13,28.9-15.79.15-28.16-12.6-28.45-28.91-.28-15.7,14.53-29.2,28.3-28.93Zm-.1,46.49c9.69.11,17.01-7.33,17.08-17.36.07-9.53-7.18-17.1-16.54-17.26-9.5-.16-17.23,7.11-17.4,16.38-.19,10.56,6.8,18.12,16.85,18.24Z"/>
  <path d="m221.78,43.29c-5.44,0-10.87.03-16.31-.04-.54,0-1.51-.62-1.53-.98-.11-3.19-.12-6.38.06-9.56.02-.37,1.44-1.01,2.12-.91,1.57.23,3.37.47,4.58,1.36,3.93,2.91,7.64,6.12,11.43,9.21-.12.31-.24.61-.35.92Z"/>
  <path d="m55.25,107.31c0-6.69,5.26-11.88,12.02-11.86,6.5.02,11.79,5.25,11.85,11.72.08,7.12-5.22,12.82-11.9,12.79-6.91-.02-11.98-5.38-11.97-12.65Z"/>
  <path d="m273.32,95.46c6.58-.05,11.87,5.04,11.98,11.51.12,7.29-4.85,12.86-11.63,12.99-6.8.14-12.1-5.29-12.19-12.48-.09-6.66,5.14-11.97,11.84-12.03Z"/>
</svg>