<?xml version="1.0" encoding="UTF-8"?>
<svg id="Capa_1" data-name="Capa 1" xmlns="http://www.w3.org/2000/svg" viewBox="0 0 326.78 126.26">
  <path d="m305.97,104.85c-1.8-23.05-13.44-35.81-32.27-35.37-18.26.42-29.28,13.73-30.13,36.8H87.97c1.08-11.24-1.78-21.2-10.42-28.89-6.28-5.59-13.76-8.21-22.14-7.86-18.25.75-28.92,14.18-29.48,36.92C13.34,104.94.82,90.68.07,77.34c-.31-5.47.16-10.3,5.12-13.84,1.07-.76,1.81-2.97,1.63-4.37-1.73-12.97,2.43-23.47,12.36-31.95,2.87-2.45,5.26-5.52,7.64-8.48,1.26-1.57,2.26-3.44,3.01-5.32,1.62-4.03,4.84-5.8,8.78-6.4,10.43-1.6,20.85-3.64,31.35-4.4C88.64,1.23,107.38-.07,126.09,0c24.04.1,47.78,3.66,70.34,12.4,16.38,6.35,32.24,14.06,48.61,20.44,6.31,2.46,13.41,2.84,20.12,4.28,13.77,2.97,27.34,6.47,40.23,12.41,12.6,5.8,18.55,15.66,20.98,29.02,2.56,14.08-7.45,25.77-20.4,26.29ZM116.19,9.4c0,9.03-.07,17.6.11,26.17.02.85,1.54,2.29,2.48,2.39,6.44.7,12.9,1.12,19.36,1.63,14.46,1.13,28.92,2.27,43.38,3.39,10.63.82,21.27,1.62,31.61,2.4.98-3.43,1.93-6.34,2.63-9.3.82-3.47-2.76-10.24-6.2-11.59-5.1-2-10.23-3.99-15.46-5.62-17.68-5.54-35.89-8.3-54.33-9.39-7.69-.45-15.42-.08-23.58-.08Zm-10.51.4c-6.24.7-12.25,1.14-18.18,2.1-9.84,1.59-19.63,3.46-29.42,5.34-3.33.64-5.84,2.41-5.43,6.31.42,3.94,7.48,10.04,11.46,10.3,6.87.44,13.73,1.03,20.59,1.54,6.94.52,13.88,1.03,20.97,1.56V9.8Z"/>
  <path d="m56.84,75.04c14.11-.14,25.59,11.24,25.88,25.67.27,13.25-11.52,25.42-24.75,25.54-14.82.14-26.67-11.04-26.74-25.24-.07-14.22,11.36-25.82,25.6-25.97Zm16.4,28.38c-.26-.39-.53-.78-.79-1.17-2.48.58-4.95,1.16-7.43,1.74,1.41,2.18,2.81,4.36,4.88,7.56,1.52-3.7,2.43-5.92,3.34-8.13Zm-29.75,6.76l1.6.29c1.26-2.23,2.52-4.46,3.79-6.7-2.5-.47-5.01-.94-8.65-1.62,1.47,3.6,2.37,5.82,3.26,8.03Zm2.69-22.25c3.07,1.94,5.24,3.31,7.4,4.68.43-2.52.85-5.04,1.47-8.68-3.45,1.55-5.54,2.5-8.87,4Zm20.27-.63c-2.12-.92-4.32-1.88-7.82-3.39.74,3.69,1.24,6.2,1.74,8.71,1.97-1.48,3.93-2.97,5.89-4.46.08-.06.07-.26.2-.85Zm5.86,11.68c.3-.46.61-.92.91-1.39-.99-2.14-1.99-4.29-3.55-7.66-2.02,3.2-3.35,5.3-4.67,7.4,2.44.55,4.87,1.1,7.31,1.65Zm-16.88,18.41c-.83-3.7-1.39-6.23-1.95-8.77-2.12,1.49-4.24,2.99-7.15,5.05,3.43,1.4,5.6,2.29,9.1,3.72Zm-14.59-19.7c.28.42.56.84.83,1.26,2.44-.53,4.88-1.06,7.31-1.6-1.44-2.14-2.88-4.28-4.96-7.36-1.43,3.45-2.31,5.57-3.19,7.69Zm25.52,16.46c.07-.51.14-1.02.22-1.53-2.12-1.27-4.24-2.55-6.35-3.82-.45,2.49-.91,4.98-1.54,8.42,3.24-1.3,5.45-2.19,7.67-3.08Z"/>
  <path d="m274.71,75.03c14.31.06,25.55,11.46,25.52,25.89-.02,14.19-11.55,25.38-26.09,25.33-13.71-.05-25.13-11.62-25.12-25.45.01-14.37,11.44-25.83,25.69-25.76Zm-11.05,12.9c3.31,1.99,5.49,3.3,7.67,4.61.6-2.46,1.19-4.93,1.79-7.39-.38-.25-.77-.51-1.15-.76-2.3.98-4.6,1.96-8.3,3.54Zm27.21,15.52c-.34-.48-.67-.96-1.01-1.44-2.44.75-4.88,1.51-7.32,2.26,1.48,2.08,2.97,4.17,5.08,7.13,1.42-3.48,2.33-5.72,3.25-7.95Zm-29.71,6.71c.53.1,1.05.2,1.58.3,1.26-2.23,2.52-4.47,3.79-6.7-2.51-.47-5.02-.94-8.59-1.61,1.44,3.57,2.33,5.79,3.23,8.02Zm12.21,7.16c-.84-3.58-1.43-6.08-2.02-8.58-2.2,1.44-4.39,2.89-7.57,4.98,3.75,1.41,6.03,2.26,9.59,3.6Zm14.61-26.2l-1.35-.34c-1.23,2.31-2.47,4.61-3.7,6.92,2.48.3,4.96.6,8.44,1.03-1.53-3.43-2.45-5.52-3.38-7.61Zm-3.48-2.63c-.15-.47-.31-.93-.46-1.4-2.23-.85-4.46-1.7-7.89-3.01.76,3.62,1.28,6.05,1.79,8.49,2.19-1.36,4.38-2.72,6.56-4.08Zm-26.54,10.61c3.56-.72,6.11-1.24,8.66-1.76-1.41-2.14-2.81-4.27-4.89-7.43-1.46,3.55-2.37,5.76-3.78,9.18Zm26.07,15.03c.08-.5.15-1,.23-1.51-2.13-1.29-4.26-2.58-6.39-3.87-.48,2.48-.97,4.97-1.65,8.48,3.35-1.33,5.58-2.22,7.81-3.11Z"/>
</svg>