<?xml version="1.0" encoding="UTF-8"?>
<svg id="Capa_1" data-name="Capa 1" xmlns="http://www.w3.org/2000/svg" viewBox="0 0 357.15 139.21">
  <path d="m318.57,120.13c2.65-21.61-9.72-38.13-28.3-38.86-11.2-.44-20.34,3.47-27.02,12.51-6.5,8.79-7.61,18.62-4.25,29.7-57.98-1.55-115.25-3.08-173.01-4.63,1.52-11.3-.82-21.14-8.85-28.92-5.53-5.37-12.22-8.49-20.11-8.65-19.51-.4-30.08,10.62-33.04,34.93-5.33-1.17-10.78-1.87-15.87-3.61C2.48,110.66-.15,105.87,0,100.03c.37-13.43.59-26.9,1.81-40.27.48-5.25,2.9-10.56,5.39-15.35,5.27-10.15,11.38-19.85,16.72-29.96C28.39,5.98,35.2,2.04,44.56,1.83,72.03,1.2,99.49.1,126.96,0c20.12-.07,40.25.95,60.35,1.87,14.12.64,27.19,5.27,39.38,12.26,15.61,8.95,31.41,17.65,46.47,27.46,7.44,4.84,15.63,5.56,23.57,7.85,14.55,4.2,29.35,8.27,41.18,18.04,6.65,5.49,12.59,12.55,16.88,20.03,6.75,11.76-1.82,27.13-15.13,29.2-6.89,1.07-13.77,2.23-21.09,3.42ZM155.68,8.37h-56.4c-1.31,13.14-2.59,25.95-3.92,39.21,20.28.85,40.23,1.69,60.32,2.53V8.37Zm81.79,34.99c0-2.79-.27-5.11.06-7.34.56-3.78-1.12-5.83-4.33-7.47-7.72-3.95-15.25-8.26-22.96-12.21-11.79-6.04-24.55-7.15-37.56-7.35v41.77c16.59.7,32.86,1.42,49.14,2.01.97.04,2.56-.68,2.87-1.44,2.27-5.57,6.88-7.38,12.78-7.96Zm-158.67,3.73c1.3-13.03,2.54-25.47,3.68-36.95-13.55,0-26.48-.29-39.37.23-2.84.12-6.4,2.53-8.14,4.95-3.26,4.52-5.71,9.7-7.97,14.84-2.81,6.37.75,14.04,7.15,14.55,14.69,1.16,29.44,1.61,44.65,2.38Zm168.01-9.72c0,3.02,0,4.81,0,6.59.04,5.98,4.31,9.93,10.24,9.1,1.41-.2,3.37-1.39,3.77-2.56.38-1.14-.51-3.36-1.56-4.22-3.64-2.95-7.6-5.5-12.44-8.91Z"/>
  <path d="m55.32,85.21c14.9-.04,27.04,12.07,27.11,27.04.07,14.41-12.25,26.78-26.86,26.96-14.31.17-27.02-12.33-27.15-26.7-.13-14.84,12.11-27.25,26.89-27.3Zm3.1,9.96c-.42.29-.84.58-1.25.86.63,2.55,1.26,5.1,1.88,7.65,2.23-1.43,4.46-2.86,7.78-4.98-3.68-1.55-6.04-2.54-8.41-3.54Zm-20.47,15.27c3.84-.71,6.44-1.19,9.04-1.67-1.47-2.28-2.95-4.57-5.09-7.89-1.54,3.72-2.47,5.97-3.95,9.56Zm3.99,12.93c2.18-3.16,3.71-5.37,5.23-7.58-2.73-.56-5.45-1.12-9.38-1.93,1.62,3.7,2.61,5.97,4.15,9.5Zm3.41,1.44c.11.51.22,1.02.33,1.54,2.28.9,4.56,1.8,8.14,3.22-.77-3.8-1.3-6.41-1.83-9.01-2.21,1.42-4.43,2.84-6.64,4.26Zm23.74-23.82c-2.14,3.03-3.68,5.22-5.22,7.41,2.65.64,5.3,1.27,9.15,2.19-1.53-3.75-2.48-6.07-3.92-9.6Zm-15.44-5.04c-.45-.26-.89-.52-1.34-.77-2.26.97-4.53,1.93-8.18,3.49,3.29,2.14,5.51,3.59,7.73,5.03.6-2.58,1.19-5.16,1.79-7.75Zm18.77,19.27c-.28-.42-.57-.84-.85-1.26-2.58.64-5.16,1.28-7.74,1.92,1.52,2.18,3.05,4.36,5.22,7.47,1.48-3.57,2.43-5.85,3.37-8.14Zm-15.51,14.38c3.7-1.45,6.06-2.38,9.85-3.87-3.33-2.24-5.53-3.72-7.73-5.2-.61,2.59-1.21,5.19-2.12,9.07Z"/>
  <path d="m288.62,85.21c14.81.17,26.94,12.77,26.54,27.56-.4,14.63-12.76,26.57-27.38,26.42-14.42-.15-26.68-12.73-26.52-27.23.16-14.93,12.43-26.92,27.36-26.75Zm-1.98,9.29c-3.7,1.6-6.08,2.63-9.81,4.24,3.36,2.06,5.65,3.47,7.94,4.87.54-2.62,1.08-5.24,1.87-9.11Zm-16,15.8c3.81-.62,6.43-1.05,9.04-1.47-1.44-2.35-2.88-4.69-4.93-8.04-1.59,3.67-2.57,5.94-4.11,9.51Zm35.1.36c-1.49-3.68-2.46-6.08-3.99-9.87-2.18,3.33-3.64,5.58-5.11,7.82,2.52.57,5.03,1.13,9.1,2.05Zm-31.02,12.76c2.13-3.16,3.64-5.39,5.14-7.62-2.69-.57-5.38-1.15-9.35-2,1.65,3.77,2.65,6.04,4.21,9.62Zm31.03-9.77c-3.87.97-6.58,1.65-9.3,2.33,1.63,2.14,3.26,4.28,5.49,7.2,1.4-3.5,2.33-5.82,3.81-9.53Zm-20.68,15.39c.46-.3.93-.61,1.39-.91-.63-2.56-1.25-5.12-1.88-7.68-2.18,1.5-4.36,3-7.53,5.18,3.54,1.5,5.78,2.45,8.02,3.4Zm13.29-29.52c-.07-.52-.15-1.04-.22-1.57-2.37-.89-4.75-1.79-8.51-3.21,1.03,3.92,1.7,6.47,2.37,9.01,2.12-1.41,4.24-2.82,6.36-4.24Zm-8.3,28.47c.37.37.75.75,1.12,1.12,2.35-1,4.7-2.01,8.27-3.53-3.31-2.23-5.46-3.68-7.61-5.13-.6,2.51-1.19,5.02-1.79,7.53Z"/>
</svg>