<?xml version="1.0" encoding="UTF-8"?>
<svg id="Capa_1" data-name="Capa 1" xmlns="http://www.w3.org/2000/svg" viewBox="0 0 357.71 191.17">
  <path d="m51.68,54.22c5.39-5.72,10.59-11.22,15.77-16.74,5.57-5.93,11.08-11.92,16.73-17.78,1.26-1.3,1.45-2.39.84-4-1.24-3.24-2.29-6.54-3.45-9.81-.85-2.4-.95-4.72,1.89-5.65,2.86-.94,4.07,1.08,4.88,3.44,7.38,21.5,14.8,43,22.13,64.52.96,2.82,1.73,5.53,5.89,4.75-1.42-5.12-2.98-10.46-4.37-15.86-1.43-5.57,2.29-10.12,7.68-9.58,3.16.32,5.33,2.46,6.43,6.43,3.49,12.63,6.96,25.26,10.46,37.89.34,1.23.76,2.44,1.18,3.78,12.55-1.41,24.92-2.86,37.31-4.14,2.08-.22,4.47-.24,6.32.56,4.34,1.89,5.59,7.77,2.07,10.87-3.07,2.7-2.33,5.62-2.37,8.92,8.06,0,15.94.18,23.8-.13,1.93-.07,3.79-1.72,6.01-2.8-4.35-7.26-8.68-13.87-12.35-20.83-2.28-4.31-4.83-6.41-9.85-5.04-2.49.68-5.27-.13-7.52,2.13-.6.6-3.36.08-4.14-.8-.8-.9-.94-3.17-.34-4.29.51-.96,3.05-1.99,3.7-1.54,4.27,2.94,8.78,1.36,13.17,1.07,2.25-.15,3.57.4,4.72,2.38,4.53,7.76,9.22,15.42,14.59,23.14.35-2.12.94-4.22,1-6.35.15-5.31.16-10.64-.02-15.95-.04-1.19-.81-2.7-1.73-3.44-5.06-4.09-10.12-8.21-15.48-11.89-4.83-3.31-10.04-6.07-15.26-9.18-2.31,2.99-4.76,6.45-7.55,9.6-.84.94-3.03,1.82-3.91,1.37-2.16-1.11-.99-2.91.11-4.34,6.61-8.59,13.25-17.17,19.86-25.77,1.11-1.44,2.58-2.56,4-1.04.65.69.51,2.91-.12,3.86-2.4,3.59-5.15,6.94-7.72,10.32.18.35.24.59.39.72,8.46,7.14,16.92,14.28,25.39,21.41.47.4,1.02.7,1.52,1.04,2.02-2.69-1.6-7.01,3.07-9.05-2.35-10.08-4.75-20.4-7.16-30.72-2.14-9.18-4.25-18.36-6.46-27.52-.46-1.91-.59-3.82,1.66-4.02.91-.08,2.62,1.75,2.91,2.97,4.49,18.63,8.9,37.28,13.08,55.99.76,3.38,2.14,4.44,5.54,4.68,12.98.94,25.92,2.25,38.88,3.44.96.09,1.9.3,3.01.49v15.87c-1.12.06-2.2.31-3.21.14-4.39-.76-7.06,1.38-9.78,4.62-12.12,14.46-24.49,28.72-36.85,42.99-.81.94-2.25,1.88-3.4,1.88-22.14.1-44.27.07-66.41.05-.31,0-.63-.13-.93-.19-6.08-34.07-35.21-52.27-59.03-51.65-16.06.41-29.76,6.27-40.97,17.74-11.12,11.37-16.76,25.28-17.95,41.14-7.31-3.52-9.65-9.22-8.31-19.97,1.85-.08,3.76-.17,6.03-.27v-51.82c1.61,0,2.86,0,4.1,0,1.91-.01,3.58.02,5.31-1.55,3.07-2.78,4.03-5.57,2.16-9.34-.62-1.24-.85-2.68-1.23-4.04-1.21-4.42.55-8.16,4.46-9.5,3.75-1.28,7.34.53,9.13,4.63.2.46.37.94.71,1.77Zm52.69,17.92c-5.41-15.71-10.65-30.92-16.03-46.55-11.49,12.23-22.63,24.07-33.73,35.95-.4.43-.54,1.4-.38,2.01.75,2.9,1.64,5.76,2.47,8.59h47.67Zm-64.36,7.59c-4.2-.05-7.41,2.58-6.86,5.55.41,2.19.85,4.38,1.03,6.59.28,3.48,2.4,5.8,5.63,5.85,3.3.05,5.55-2.13,5.79-5.65.11-1.61-.11-3.29.27-4.83,1.23-4.89-.69-7.46-5.86-7.52Z"/>
  <path d="m274.28,185.53c2.17-3.41-.04-4.47-2.5-5.55-.75.61-1.56,1.26-2.3,1.87-2.57-2.66-5.04-5.2-7.67-7.92.43-.54,1.08-1.35,1.83-2.29-.93-1.44-1.85-2.87-2.85-4.42-1.08.34-2.07.64-3.29,1.03-1.38-3.42-2.7-6.69-4.09-10.11,1.1-.62,2-1.12,3.05-1.71-.27-1.3-.52-2.56-.81-3.97-.99-.19-2.02-.38-3.25-.62v-10.83c1.02-.18,2.04-.36,3.03-.54q1.45-4.81-1.66-6.79c.66-1.63,1.32-3.32,2.02-4.98.67-1.59,1.39-3.16,2.17-4.92,1.05.3,2.05.59,3.25.94.78-1.09,1.58-2.21,2.47-3.46-.68-.87-1.33-1.7-1.98-2.53-.26-.26-.51-.52-.77-.77,1.46-1.11,3.01-2.12,4.37-3.34,1.29-1.15,2.38-2.51,3.69-3.9,1.08.79,1.92,1.39,2.99,2.17,1.33-.87,2.75-1.79,4.28-2.79-.32-1.13-.6-2.13-.94-3.33,3.37-1.36,6.65-2.69,10.14-4.1,1.05,3.45,3.26,3.31,5.91,2.01.1-.9.21-1.85.33-2.97h10.65q.67,3.23,5.67,4.19c.5-.85,1.04-1.76,1.74-2.94,3.29,1.41,6.6,2.82,10.06,4.3-.38,1.19-.66,2.09-1.03,3.23,1.1.78,2.22,1.58,3.46,2.46.89-.69,1.72-1.33,2.36-1.83,2.59,2.59,5.14,5.15,7.83,7.84-.48.57-1.15,1.38-1.87,2.24,1.02,1.52,1.97,2.94,2.95,4.4.99-.33,1.9-.63,3.2-1.06,1.38,3.35,2.74,6.69,4.17,10.16-1.12.58-2.04,1.06-3.09,1.6.28,1.41.54,2.76.82,4.2,1.12.14,2.15.27,3.35.42v10.91c-1.13.18-2.16.34-3.39.53-.08,2.41-2.73,5.31,2.04,6.5-1.47,3.49-2.84,6.75-4.3,10.23-1.1-.37-2.07-.69-3.22-1.07-.8,1.12-1.61,2.24-2.52,3.51.65.83,1.29,1.65,1.8,2.3-2.61,2.56-5.2,5.1-7.93,7.77-.37-.31-1.18-1-2.08-1.76-1.46.98-2.88,1.92-4.35,2.91.31,1.08.57,2,.94,3.29-3.26,1.33-6.53,2.66-10,4.07-.57-.94-1.11-1.81-1.73-2.82-2.44.12-5.19-.2-4.58,3.9h-11.01c.8-4.66-2.97-3.44-5.31-4.4-.58.98-1.12,1.88-1.82,3.05-3.24-1.36-6.49-2.73-10.22-4.29Zm-2.43-39.18c-.02,14.11,11.33,25.49,25.39,25.44,13.87-.05,25.18-11.43,25.2-25.35.02-13.95-11.26-25.37-25.11-25.42-14.15-.05-25.46,11.19-25.48,25.32Z"/>
  <path d="m116.11,181.86c-.71-.6-1.44-1.22-2.33-1.98-1.45.94-2.87,1.87-4.41,2.86.34,1.11.64,2.11,1,3.29-3.36,1.36-6.65,2.69-10.12,4.09-.57-1.01-1.08-1.91-1.59-2.82-2.56.01-5.11-.13-4.49,3.81h-11c.52-4.07-2.72-3.68-5.46-4.26-.48.8-1.01,1.68-1.77,2.95-3.25-1.36-6.57-2.74-10.11-4.22.39-1.18.71-2.15,1.07-3.25-1.18-.83-2.31-1.64-3.54-2.5-.85.69-1.68,1.36-2.52,2.05-2.6-2.59-5.16-5.15-7.79-7.78.65-.78,1.26-1.53,2.03-2.46-.89-1.38-1.81-2.79-2.84-4.39-.99.28-1.99.56-3.31.93-1.36-3.3-2.7-6.56-4.12-10.03.97-.57,1.87-1.09,2.96-1.72-.2-1.27-.41-2.61-.64-4.05-1.18-.18-2.21-.34-3.4-.52v-10.94c1.08-.14,2.11-.28,3.3-.44.34-1.59.67-3.15,1.04-4.89-.89-.56-1.76-1.12-2.94-1.88,1.36-3.25,2.72-6.5,4.18-9.98,1.11.33,2.08.62,3.27.98.78-1.05,1.59-2.16,2.52-3.41-.64-.83-1.28-1.66-1.83-2.38,2.63-2.54,5.25-5.06,7.98-7.7.29.25,1.1.94,2.04,1.74,1.48-.99,2.89-1.93,4.37-2.92-.31-1.08-.58-1.99-.95-3.27,3.27-1.34,6.53-2.67,9.79-4.01-.05.27-.1.54-.15.81,1.54.58,3.12,1.69,4.59,1.55.99-.09,1.81-1.95,3.11-3.49h10c.09,1.07.17,2,.27,3.18,1.67.38,3.32.75,5.11,1.15.54-.97,1.05-1.88,1.7-3.06,3.28,1.4,6.52,2.78,9.98,4.25-.28,1.07-.54,2.07-.87,3.31,1.05.75,2.17,1.56,3.42,2.46.9-.72,1.72-1.37,2.64-2.12,2.47,2.66,4.88,5.26,7.5,8.07-.32.4-.95,1.21-1.75,2.22.86,1.37,1.77,2.81,2.78,4.41,1.01-.3,2-.6,3.3-.99,1.34,3.26,2.68,6.53,4.12,10.03-2.99,1.14-3.63,3.12-1.94,5.92.76.11,1.71.24,2.9.4v10.82q-3.53.78-3.98,5.71c.78.45,1.61.93,2.76,1.6-1.4,3.29-2.82,6.62-4.3,10.11-1.18-.41-2.17-.76-3.24-1.13-.82,1.2-1.61,2.34-2.46,3.59.71.9,1.36,1.73,2.1,2.67-2.57,2.45-5.15,4.91-7.98,7.61Zm-2.26-35.21c.07-14.16-11.16-25.58-25.21-25.63-14-.05-25.5,11.44-25.47,25.44.03,13.86,11.34,25.19,25.28,25.33,13.77.13,25.34-11.31,25.4-25.14Z"/>
  <path d="m270.67,87.77v-16.19c1.08,0,2.11,0,3.15,0,19.09,0,38.18,0,57.28,0,4.48,0,5.19.74,5.2,5.34,0,3.33,0,6.67,0,10.19,1.71.08,3.08.14,4.67.22.08,1.04.14,1.95.22,3.07-1.66.19-3.11.36-4.86.56v22.98c-3.07-2.86-5.67-5.58-8.56-7.93-29.22-23.76-74.09-6.6-79.94,30.59-.46,2.95-1.61,4.21-4.59,5.03-7.06,1.95-14.12,2.83-21.46,2.77-23.32-.19-46.64-.07-69.97-.07-1.28,0-2.56,0-4.04,0-.09-1.67-.17-3.03-.26-4.79,1.57,0,2.85,0,4.12,0,20.94,0,41.87-.03,62.81.04,2.11,0,3.55-.54,4.98-2.23,12.92-15.2,25.91-30.35,39.01-45.4.96-1.1,2.87-1.93,4.35-1.94,23.21-.12,46.43-.08,69.64-.08.87,0,1.76.1,2.59-.06.49-.1.9-.63,1.34-.97-.42-.37-.79-.96-1.26-1.06-.83-.18-1.73-.07-2.59-.07-19.31,0-38.62,0-57.93,0-1.18,0-2.35,0-3.9,0Zm25.99-5.53h14.39c-1.58-2.27-12.28-2.38-14.39,0Zm14.47-2.72c-1.82-2.3-12.61-2.29-14.33,0h14.33Zm-.22-2.76c-3.56-2.51-7.81-1.22-11.83-1.45-.83-.05-1.71.77-3.09,1.45h14.92Z"/>
  <path d="m24.74,82.75c0,8.88-.02,17.77,0,26.65.01,4.27-1.02,8.15-4.03,11.32-4.57,4.82-11.15,4.94-15.26-.28-1.9-2.42-3.46-5.72-3.69-8.73C.83,99.34.1,86.93,0,74.54c-.06-7.51.98-15.05,1.9-22.53.74-6.05,5.59-10.73,10.7-11,5.16-.27,9.75,3.49,11.47,9.64.49,1.74.63,3.62.64,5.44.06,8.88.03,17.77.03,26.65Z"/>
  <path d="m144.91,144.23h-6.77c-.89-17.05-7.98-30.84-22.09-40.61-9.01-6.23-19.17-9.04-30.12-8.47-13.1.68-24.36,5.7-33.5,15.17-9.04,9.37-13.54,20.72-14.03,33.81h-6c-.14-24.3,20.73-55.08,54.99-55.85,33.5-.75,56.89,28.15,57.52,55.95Z"/>
  <path d="m137.98,152.01v-5.3h109.49v5.3h-109.49Z"/>
  <path d="m357.71,140.55h-6.3c-.15-1.85-.29-3.62-.44-5.49-2.64-.28-5.98.35-7.46-1.03-1.92-1.78-2.37-5.15-3.65-8.33h11.31v-21.89h6.54v36.74Z"/>
  <path d="m337.93,103.58c0-2.71-.09-5.42.06-8.12.05-.84.74-1.64,1.14-2.46.78.4,1.71.65,2.31,1.23,4.98,4.89,4.74,14.95-.47,19.45-.47.4-1.59.74-1.91.48-.58-.47-1.05-1.39-1.08-2.15-.12-2.81-.05-5.63-.05-8.44Z"/>
  <path d="m22.76,146.56h15.81v5.49h-15.81v-5.49Z"/>
  <path d="m297.23,126.29c11.01.03,20.08,9.1,20.05,20.06-.03,11.18-9.16,20.28-20.28,20.2-11.06-.08-19.97-9.05-19.99-20.11-.02-11.24,8.96-20.18,20.22-20.15Zm4.29,20.09c-.01-2.57-2-4.56-4.49-4.5-2.48.06-4.46,2.16-4.32,4.67.15,2.7,1.8,4.11,4.34,4.33,2.43.22,4.49-1.99,4.48-4.5Z"/>
  <path d="m108.61,146.48c-.05,11.08-9.02,20.09-20,20.07-11.15-.02-20.39-9.25-20.27-20.25.12-11.17,9.24-20.1,20.45-20.02,11.05.08,19.87,9.06,19.82,20.2Zm-20.45,4.43c2.38.23,4.73-1.77,4.83-4.22.1-2.7-1.41-4.26-3.92-4.75-2.39-.47-4.69,1.47-4.98,4-.28,2.43,1.61,4.73,4.07,4.97Z"/>
</svg>