<?xml version="1.0" encoding="UTF-8"?>
<svg id="Capa_1" data-name="Capa 1" xmlns="http://www.w3.org/2000/svg" viewBox="0 0 344.09 119.83">
  <path d="m322.55,92.18c.03-8.48-1.38-16.09-6.15-22.68-7.71-10.67-18.53-14.53-31.01-12.31-11.65,2.08-19.51,9.59-23.59,20.76-.95,2.61-1.82,5.41-1.91,8.15-.14,4.48-1.55,6.13-6.45,6.1-41.73-.22-83.46-.19-125.18-.03-4.06.02-5.62-1.17-6.63-5.11-3.32-12.96-8.22-25.62-10.38-38.74-1.67-10.18-.24-20.88.02-31.34.07-2.78,1.02-5.52,1.37-8.3C113.57,1.52,115.12.08,122.51.06c12.01-.03,24.03-.13,36.04.02,13.58.18,27.18.17,40.72,1.06,10.63.69,20.07,5.69,29.16,10.9,7.99,4.58,15.57,9.89,23.49,14.6,2.34,1.39,5.19,2.37,7.89,2.6,10.66.91,21.43.85,32.01,2.29,10.94,1.49,21.89,3.64,32.46,6.76,8.7,2.57,14.94,8.47,15.35,18.63.07,1.78.75,3.76,1.75,5.25,4.29,6.42,2.8,12.97.39,19.33-2.19,5.78-6.25,9.65-13.02,9.69-1.85.01-3.7.57-6.19.99Zm-77.08-58.27l.04-2.21c-18.43-15.58-38.35-27.42-64.54-24.88.85,8.39,1.66,16.76,2.55,25.11.36,3.41,3.28,3.03,5.44,3.09,15.12.45,30.24.89,45.37.97,3.71.02,7.42-1.35,11.14-2.08Zm-74.88-.02c0-8.78.09-17.13-.13-25.47-.02-.92-1.82-2.55-2.82-2.57-12.95-.16-25.91-.21-38.86.07-1.55.03-4.01,1.81-4.42,3.25-1.42,4.92-2.47,10.01-3.01,15.11-.6,5.59.54,6.67,6.12,7.03,14.13.9,28.27,1.71,43.12,2.59Zm167.83,24.6c-.84-12.29-13.83-20.68-25.28-16.81,5.58,9.68,15.66,12.69,25.28,16.81Zm-6.86,18.85c5.15,1.54,7.45-1.13,7.59-4.57.07-1.66-3.06-3.44-4.74-5.17-.45.3-.9.61-1.35.91-.49,2.86-.97,5.73-1.49,8.82Z"/>
  <path d="m.07,72.32c2-.14,3.71-.26,5.31-.38-.91-7.83-2.23-15.59-2.56-23.4-.21-4.77.95-9.64,1.84-14.4.19-1.01,1.77-2.05,2.93-2.51,1.1-.44,2.49-.15,3.75-.15,30.49,0,60.98,0,91.47,0,1.54,0,3.09,0,3.32,0,5.14,20.46,10.08,40.17,15.12,60.23h-12.14c.4-11.86-4.34-21.39-13.61-28.44-5.63-4.28-12.46-6.54-19.38-6.03-17.43,1.28-29.52,13.65-30.08,32.18-4.61-.71-9.13-1.47-13.67-2.08-7.74-1.04-15.5-1.88-23.23-2.98-7.89-1.12-9.52-3.32-9.07-12.06Zm5.48-34.09c-2.24,9.4-3.01,18.44,1.21,27.32,4.09-1.15,6.62-2.86,6.52-7.19-.05-2.12.84-4.26,1.23-6.41,1.93-10.75,4.3-10.79-8.95-13.72Z"/>
  <path d="m78.22,65.48c15.5-.83,27.47,14.17,27.01,27.74-.44,13.2-12.01,27.16-28.44,26.48-13.94-.57-26.71-12.96-26.4-27.17.35-15.89,13.81-28.18,27.83-27.05Zm-16.89,31.99c1.27,2.3,2.54,4.59,3.82,6.89,1.09,1.01,2.18,2.01,3.24,3,9.94-9.65,10.61-9.7,17.57-1.45.34.4.48.97,1.01,2.09,1.24-1.52,2.07-2.54,2.91-3.56,4.32-4.28,6.75-9.14,4.74-15.37-.69-1.56-1.38-3.13-2.07-4.69-3.49-2.86-6.98-5.72-10.47-8.57-2.33-.35-4.66-.69-5.72-.85-.52,3.51-.2,6.97-1.57,9.5-3.33,6.15-8.55.83-13.45,1.79v11.22Z"/>
  <path d="m318.73,92.78c.99,12.67-11.62,28.12-29.11,26.99-12.3-.79-25.71-12.65-25.29-28.15.31-11.62,11.23-27.23,29.06-26.29,12.21.64,26.33,12.64,25.33,27.45Zm-12.4-9.13c-3.58-2.61-7.16-5.22-10.74-7.83-2.72-.05-5.44-.09-8.16-.14-3.54,2.63-7.09,5.27-10.63,7.9-.62,1.95-1.25,3.89-1.87,5.84.97,4.39,1.95,8.77,2.92,13.16,1.75,2,3.51,4,5.79,6.6.16-3.97,5.08-9.29,7.75-9.47,2.77-.19,7.96,5.07,8.26,8.78,1.82-1.52,3.45-2.88,5.08-4.24,1.17-2.51,2.33-5.02,3.5-7.53,1.88-4.72,1.11-9.06-1.89-13.07Z"/>
  <path d="m89.89,104.44c-.83,1.02-1.67,2.04-2.91,3.56-.53-1.12-.68-1.69-1.01-2.09-6.96-8.26-7.63-8.21-17.57,1.45-1.07-.99-2.16-1.99-3.24-3,.88-.14,2.38-.05,2.53-.47,1.16-3.12,3.55-6.88,2.63-9.37-.96-2.59-5.18-3.97-8.98-6.58v9.53-11.22c4.9-.97,10.13,4.36,13.45-1.79,1.37-2.54,1.05-5.99,1.57-9.5,1.05.16,3.38.5,5.72.85-.85.76-2.44,1.54-2.42,2.29.05,2.29.25,4.82,1.31,6.76.7,1.28,3.17,2.56,4.52,2.28,2.4-.5,5.85.91,7.06-2.76.69,1.56,1.38,3.13,2.07,4.69-1.88.69-3.98,1.04-5.57,2.15-1.79,1.24-4.68,3.68-4.35,4.68,1.02,3.08,3.36,5.72,5.18,8.54Z"/>
  <path d="m89.89,104.44c-1.83-2.81-4.16-5.46-5.18-8.54-.33-1.01,2.56-3.44,4.35-4.68,1.59-1.1,3.69-1.46,5.57-2.15,2.01,6.23-.41,11.09-4.74,15.37Z"/>
  <path d="m92.56,84.38c-1.21,3.67-4.66,2.26-7.06,2.76-1.35.28-3.82-1.01-4.52-2.28-1.06-1.93-1.26-4.47-1.31-6.76-.02-.74,1.57-1.52,2.42-2.29,3.49,2.86,6.98,5.72,10.47,8.57Z"/>
  <path d="m61.34,97.47v-9.53c3.81,2.6,8.03,3.99,8.98,6.58.92,2.48-1.47,6.25-2.63,9.37-.15.41-1.65.32-2.53.47-1.27-2.3-2.54-4.59-3.82-6.89Z"/>
  <path d="m274.92,89.41c.62-1.95,1.25-3.89,1.87-5.84.37,4.86,4.49,3.16,6.99,3.55,1.49.23,4.23-1.19,4.74-2.51,1.01-2.59.88-5.63,1.08-8.49,0-.1-1.42-.3-2.18-.45,2.72.05,5.44.09,8.16.14-.84.45-2.45.99-2.41,1.32.33,2.59.32,5.63,1.74,7.55,1.15,1.56,4.28,2.63,6.26,2.3,1.65-.27,5.7,1.05,5.14-3.35,3,4.01,3.77,8.35,1.89,13.07v-8.54c-3.33,1.96-6.1,2.95-7.88,4.87-1.13,1.22-1.58,4.17-.9,5.7.98,2.23.71,6.46,5.27,5.5-1.63,1.36-3.26,2.72-5.08,4.24-.31-3.71-5.49-8.96-8.26-8.78-2.67.18-7.59,5.5-7.75,9.47-2.28-2.6-4.03-4.6-5.79-6.6.97.68,1.95,1.36,2.93,2.04,5.81-9.58,3.9-14.32-5.85-15.2Z"/>
  <path d="m304.72,104.25c-4.56.96-4.29-3.27-5.27-5.5-.68-1.54-.23-4.48.9-5.7,1.77-1.92,4.55-2.91,7.88-4.87v8.54c-1.17,2.51-2.33,5.02-3.5,7.53Z"/>
  <path d="m306.33,83.65c.56,4.39-3.49,3.07-5.14,3.35-1.98.33-5.11-.74-6.26-2.3-1.42-1.92-1.41-4.96-1.74-7.55-.04-.33,1.56-.88,2.41-1.32,3.58,2.61,7.16,5.22,10.74,7.83Z"/>
  <path d="m287.42,75.68c.76.15,2.19.35,2.18.45-.21,2.86-.08,5.9-1.08,8.49-.51,1.32-3.25,2.74-4.74,2.51-2.5-.39-6.62,1.31-6.99-3.55,3.54-2.63,7.09-5.27,10.63-7.9Z"/>
  <path d="m274.92,89.41c9.75.89,11.66,5.63,5.85,15.2-.99-.69-1.96-1.37-2.93-2.04-.97-4.39-1.95-8.77-2.92-13.16Z"/>
</svg>