<?xml version="1.0" encoding="UTF-8"?>
<svg id="Capa_1" data-name="Capa 1" xmlns="http://www.w3.org/2000/svg" viewBox="0 0 302.17 107.57">
  <path d="m277.32,90.26c-1.7-22.44-12.74-34.08-29.91-32.71-12.93,1.03-28.21,12.88-24.55,34.51-45.12-.91-90.15-1.81-135.57-2.72.95-9.64-1.51-17.83-8.36-24.36-4.9-4.67-10.82-7.08-17.55-7.43-14.98-.79-24.65,8.17-29.22,27.33-6.16-1.12-12.32-2.95-18.54-3.21-11.75-.49-17.58-19.73-10.61-28.51,1.78-2.24,2.36-4.41,2.26-7.11-.13-3.77-.07-7.54-.02-11.32.05-3.69,1.64-6.44,5.53-6.82,17.83-1.73,34.13-8.57,50.49-15.09,15.32-6.11,31.26-9.44,47.52-11.39,19.87-2.39,39.77-2.24,58.94,3.9,12.66,4.06,24.76,9.91,37.03,15.13,9.19,3.91,18.11,8.53,27.45,11.99,5.76,2.13,12.18,2.36,18.16,4,13.49,3.69,26.89,7.7,40.31,11.65,4.74,1.4,7.15,4.77,8.88,9.42,2.83,7.6,3.72,14.97.82,22.69-1.16,3.09-2.67,5.61-6.12,6.37-5.54,1.22-11.08,2.42-16.94,3.7ZM134.01,7.34c.14,1.38.12,2.27.32,3.1,1.63,6.67,3.56,13.29,4.84,20.02.64,3.36,2.15,4.03,5.2,4.07,9.35.12,18.69.62,28.04.83,6.18.14,12.36.03,18.4.03.34-1.86.43-3.59,1.01-5.14.55-1.48,1.62-2.77,2.61-4.4-17.94-13.74-38.75-16.88-60.43-18.51Zm-4.37,25.95c-1.43-8.79-2.8-17.25-4.18-25.75-11.52-.29-22.33.71-32.93,3.45-7.75,2-12.66,10.99-9.99,18.45.39,1.09,1.97,2.44,3.07,2.5,10.89.59,21.79.97,32.69,1.33,3.6.12,7.21.02,11.34.02Zm-47.25-18.3c-.19-.3-.39-.6-.58-.91-7.37,3.57-14.83,6.97-22.06,10.81-2.29,1.22-3.33,3.81-2.33,6.95,3.74,0,7.34.08,10.94-.06.89-.04,2.05-.58,2.58-1.27,3.89-5.12,7.64-10.34,11.44-15.52Z"/>
  <path d="m272.28,84.98c.03,12.44-10.11,22.54-22.52,22.58-11.12.03-22.37-8.24-22.75-22.48-.34-12.43,10.17-22.72,22.44-22.85,12.55-.14,22.79,10.07,22.83,22.75Zm-11.31-9.62c-1.75,2.84-2.96,4.8-4.17,6.75,2.21.36,4.43.72,7.75,1.26-1.41-3.15-2.26-5.05-3.58-8.01Zm-20.95,21c3.24,1.24,5.25,2.01,8.5,3.25-.78-3.38-1.27-5.47-1.76-7.57-1.91,1.22-3.83,2.45-6.75,4.31Zm1.21-23.2c-.05.45-.1.9-.15,1.35,2,1.04,4,2.09,6,3.13.3-2.15.6-4.3,1.04-7.48-3,1.31-4.94,2.15-6.89,3Zm-1.97,3.21l-1.38.05c-.81,1.94-1.63,3.88-2.87,6.83,3.05-.37,5.22-.64,7.39-.91l-3.14-5.97Zm19.93,19.96c-2.74-1.85-4.57-3.1-6.4-4.34-.18,2.26-.36,4.53-.57,7.23,2.04-.84,3.89-1.61,6.98-2.89Zm-6.61-25.64l-1.12.63c.48,2.19.95,4.37,1.43,6.56,1.69-1.39,3.39-2.78,5.07-4.17.04-.03-.04-.21-.15-.71-1.6-.7-3.41-1.5-5.23-2.3Zm11.37,17.13c-.25-.37-.5-.74-.75-1.11-2.15.42-4.3.84-6.45,1.27,1.27,1.88,2.53,3.75,4.33,6.41,1.28-2.92,2.07-4.74,2.87-6.57Zm-25.63,6.76c1.88-2.85,3.09-4.68,4.3-6.51-2.22-.46-4.44-.93-7.62-1.59,1.23,3,2.03,4.94,3.33,8.1Z"/>
  <path d="m82.63,84.71c.13,12.52-9.67,22.67-22.13,22.85-11.59.18-22.7-8.31-23.08-22.43-.34-12.62,10.22-22.9,22.65-22.9,12.4,0,22.42,9.99,22.56,22.48Zm-10.68-8.16c-.41-.04-.83-.08-1.24-.12-1.2,1.83-2.41,3.66-3.61,5.49,2.19.47,4.38.94,7.75,1.67-1.33-3.23-2.12-5.13-2.9-7.04Zm-20.23-3.52c-.07.44-.13.89-.2,1.33,1.87,1.15,3.74,2.3,5.6,3.44.49-2.18.99-4.35,1.48-6.53-.35-.22-.7-.43-1.05-.65-1.94.8-3.89,1.6-5.83,2.4Zm5.95,26.15c.34-.24.68-.47,1.01-.71l-1.69-6.47c-1.84,1.29-3.67,2.58-6.35,4.46,3.14,1.22,5.08,1.97,7.03,2.72Zm-8.95-4.67c1.78-2.68,3.05-4.58,4.31-6.47-2.26-.45-4.52-.89-7.64-1.51,1.24,2.97,2.06,4.93,3.33,7.98Zm-.05-19.05c-1.26,3.07-2.1,5.1-3.37,8.2,3.24-.74,5.46-1.25,7.68-1.76-1.26-1.88-2.52-3.76-4.31-6.43Zm14.21-4.79l-1.29.69c.56,2.16,1.13,4.33,1.69,6.49,1.83-1.28,3.65-2.55,6.23-4.35-2.96-1.26-4.79-2.05-6.63-2.83Zm11.46,16.97l-.8-1.07c-2.17.57-4.35,1.13-6.52,1.7,1.4,1.78,2.8,3.56,4.66,5.92,1.15-2.84,1.91-4.7,2.66-6.55Zm-4.62,8.62c-2.9-1.76-4.84-2.93-6.78-4.11-.39,2.16-.78,4.31-1.36,7.5,3.03-1.26,4.97-2.08,8.14-3.4Z"/>
</svg>