<?xml version="1.0" encoding="UTF-8"?>
<svg id="Capa_1" data-name="Capa 1" xmlns="http://www.w3.org/2000/svg" viewBox="0 0 288.96 107.28">
  <path d="m29.91,5.13c7.35-.77,14.18-1.84,21.04-2.13C77.67,1.87,104.4.87,131.13.05c23.24-.71,44.57,5.91,64.56,17.47,6.94,4.01,14.28,7.31,21.17,11.39,6.04,3.57,12.79,3.53,19.28,4.85,11.26,2.3,22.55,4.46,33.83,6.66,3.86.75,6.89,2.7,9.15,5.93,4.68,6.68,9.85,13.17,9.83,21.87,0,1.76-.93,3.91-2.16,5.2-6.27,6.56-12.83,12.81-22.11,16.59,1.34-12.57-2.11-22.85-11.95-30.46-6.72-5.19-14.36-6.76-22.69-5.95-16.24,1.59-26.65,15.65-26.36,36.49-38.11-3.95-76.22-1.48-114.71-.61,1.05-11.21-1.77-20.76-10-28.22-5.43-4.93-11.83-7.6-19.25-7.87-9.25-.33-17.03,2.88-23.45,9.42-6.43,6.55-8.86,14.7-8.61,24.44-7.94-2.98-15.33-5.57-22.52-8.62-1.33-.56-2.12-2.91-2.7-4.58-.91-2.63-1.51-5.39-2.11-8.12-.86-3.91-.16-7.4,2.99-10.17,2.67-2.34,3.38-5.42,2.8-8.74-1.84-10.53,1.63-18.07,11.48-22.98,4.85-2.42,8.99-6.24,13.5-9.36,4.85-3.35,4.88-4.42.04-8.11-.29-.22-.49-.55-1.23-1.42Zm158.77,15.7c-16.49-9.72-34.64-16.09-55.35-13.47,1.08,7.25,2.28,14.22,3.09,21.24.36,3.12,1.43,4.25,4.7,4.31,16.32.29,32.63.84,48.95,1.28,1.21.03,2.42-.18,4.7-.38-3.79-2.37-8.95-1.58-8.33-6.89.22-1.91,1.33-3.71,2.24-6.09Zm-62.63-14.06c-14.19.2-27.84.95-41.13,4.96-.58.17-1.32.63-1.51,1.13-2.16,5.82-4.22,11.68-6.61,18.36,2.66,0,4.49-.04,6.31,0,13.09.36,26.18.79,39.27,1.03,1.21.02,3.48-1.14,3.5-1.81.25-7.7.16-15.42.16-23.68ZM42.99,23.96c.12.59.24,1.18.36,1.77,6.73,3.91,14.07,5.23,21.8,4.9.6-.03,1.4-.36,1.73-.82,3.73-5.14,7.39-10.33,11.07-15.51-.22-.34-.45-.68-.67-1.02-11.43,3.56-22.86,7.13-34.29,10.69Zm236.57,32.45c-2.45-10.03-10.64-15.02-22.55-14.13,5.42,8.03,14.17,10.4,22.55,14.13ZM28.83,33.77c-.1-.38-.2-.76-.29-1.13-5.13.29-10.26.5-15.37.95-.75.07-1.94,1.21-2,1.92-.23,2.96-.1,5.95-.1,9.97,6.52-4.3,12.14-8,17.76-11.7Z"/>
  <path d="m58.14,107.28c-12.84-.16-23.24-10.75-23.03-23.42.22-13.1,10.73-23.25,23.82-23.01,12.86.24,22.96,10.69,22.8,23.6-.16,12.74-10.75,22.99-23.59,22.82Zm-3.97-38.42c-.46.22-.91.44-1.37.66,1.32,2.81,2.51,5.69,4.08,8.35.29.48,2.56.53,3.14-.03,2.44-2.31,3.09-5.41,3.59-8.47l-.95-.42c-.74.8-1.49,1.61-2.08,2.25-.71-1.09-1.37-2.1-2.03-3.1-.8,1.11-1.6,2.22-2.34,3.27-.52-.64-1.28-1.58-2.03-2.51Zm19.97,19.57c-2.24-2.6-7.65-4.06-9.53-2.66-.87.64-1.79,2.36-1.51,3.19,1.01,3.03,3.04,5.34,6.55,6.04-.65-1.01-1.3-2.01-1.87-2.89h4.46c-.67-1.37-1.34-2.73-1.96-3.99,1,.08,2.2.18,3.87.32Zm-30.96-8.57c-.07.56-.14,1.12-.21,1.68,2.88.35,5.78.97,8.64.87.8-.03,2.45-2.73,2.12-3.3-1.45-2.57-3.47-4.8-5.29-7.16-.38.3-.75.6-1.13.9.58,1.13,1.16,2.26,1.54,3.01-1.47.1-2.85.19-4.23.28.54,1.14,1.07,2.29,1.63,3.5-.9.07-1.99.15-3.08.23Zm26.45-6.97c-.43-.33-.87-.66-1.3-.99-1.81,2.5-3.76,4.93-5.32,7.57-.29.5.72,2.52,1.47,2.76,3.34,1.06,6.51.37,9.26-2.26-1.07-.15-2.14-.3-2.99-.42.48-1.2.95-2.36,1.41-3.52h-4.38c.64-1.09,1.24-2.11,1.84-3.14Zm-13.39,23.65c.78,1.26,1.46,2.37,2.15,3.48.73-1.1,1.46-2.2,2.16-3.25.66.74,1.46,1.64,2.26,2.54.39-.2.79-.41,1.18-.61-1.12-2.67-2.02-5.49-3.52-7.92-.42-.68-3.55-.77-3.91-.19-1.55,2.51-2.54,5.38-3.73,8.11.45.21.9.43,1.35.64.71-.95,1.41-1.9,2.06-2.79Zm-8.94-1.4c.41.31.81.61,1.22.92,1.74-2.2,3.74-4.25,5.07-6.67.42-.76-.7-3.36-1.59-3.65-3.19-1.04-6.25-.04-9.05,1.45.05.34.11.69.16,1.03h3.99c-1.31,1.24-2.15,2.03-2.98,2.82.05.33.11.66.16,1h4.69c-.53.97-1.1,2.04-1.68,3.11Z"/>
  <path d="m234.09,107.28c-12.67-.03-23-10.29-23.07-22.91-.07-13.16,10.26-23.6,23.25-23.51,12.99.09,23.25,10.25,23.31,23.1.06,12.98-10.39,23.36-23.49,23.33Zm9.66-15.18h4.3c-.67-1.37-1.34-2.74-2.01-4.1h3.57c.05-.45.09-.89.14-1.34-2.76-.45-5.53-1.22-8.28-1.17-.94.01-2.87,2.63-2.62,3.07,1.51,2.67,3.52,5.04,5.36,7.52l1.16-.92c-.56-1.06-1.11-2.11-1.61-3.06Zm-13.65-23.19c-.44.18-.89.36-1.33.54,1.05,2.59,1.82,5.34,3.23,7.72,1.18,2,3.43,1.97,4.59-.01,1.39-2.37,2.12-5.12,3.14-7.71-.36-.17-.72-.35-1.07-.52-.79.87-1.57,1.73-2.12,2.33-.79-1.07-1.57-2.12-2.35-3.16-.71.94-1.42,1.89-2.21,2.93-.52-.59-1.2-1.35-1.88-2.12Zm15.32,3.98c-.38-.3-.77-.61-1.15-.91-1.72,2.09-3.75,4.01-5,6.35-.48.89.53,3.72,1.37,3.98,3.15.95,6.3.33,10.1-2.1-2.25-.36-3.33-.54-4.11-.66.45-1.23.88-2.4,1.31-3.57-1.48.08-2.96.16-4.41.24.57-1,1.23-2.16,1.89-3.32Zm-15.71,26.47c.86-.91,1.67-1.75,2.34-2.46.76,1.02,1.52,2.05,2.28,3.07.71-1.12,1.43-2.23,2.11-3.3.61.75,1.41,1.72,2.64,3.22-.03-5.79-2.32-10.24-4.82-10.26-2.43-.02-4.76,4.17-5.01,9.04,0,.11.14.22.46.69Zm-5.38-27.43c-.43.33-.85.66-1.28,1,.65,1.12,1.31,2.24,1.82,3.12-1.57,0-2.96,0-4.35,0,.5,1.16,1,2.32,1.53,3.54-.86.1-1.93.22-3.21.37,2.05,2.32,7.63,3.71,9.45,2.26.82-.65,1.62-2.6,1.23-3.26-1.46-2.5-3.42-4.71-5.19-7.03Zm-1.69,16.12c-.7,1.28-1.43,2.61-2.16,3.94,1.47,0,2.95,0,4.43-.01-.61,1.11-1.21,2.21-1.82,3.32.5.32,1.01.63,1.51.95,1.73-2.74,3.58-5.42,5.04-8.3.17-.33-1.81-2.53-2.8-2.53-2.72,0-5.75-.09-7.58,2.97,1.2-.12,2.39-.24,3.36-.34Z"/>
</svg>