<?xml version="1.0" encoding="UTF-8"?>
<svg id="Capa_1" data-name="Capa 1" xmlns="http://www.w3.org/2000/svg" viewBox="0 0 357.48 151.24">
  <path d="m320.21,130.28c-2.56-27.12-12.65-39.1-33.04-38.77-14.35.23-29.09,10.36-31.45,36.34-52.61-.81-105.26-1.63-158.24-2.45-.76-11.29-4.37-21.16-13.79-28.09-7.51-5.53-16.14-6.95-25.06-5.9-14.62,1.71-27.03,11.97-28.17,30.01-9.59,1.23-18.95-.49-28.25-2.63-2.14-.49-2.84-6.27-1.58-9.33.73-1.79,1.43-3.76,1.44-5.66.11-15.5.05-30.99.06-46.49.01-17.86,3.87-35.08,8.94-52.05.52-1.76,3.13-3.83,4.99-4.08C22.14.39,28.33.09,34.49.09c52.93-.07,105.85-.17,158.78.05,13.57.06,27.27.24,40.64,2.21,7.22,1.06,14.42,5.2,20.68,9.37,16.57,11.04,32.44,23.12,48.98,34.19,5.61,3.75,12.49,5.57,18.66,8.52,6.91,3.3,13.85,6.58,20.48,10.41,7.61,4.4,11.67,11.05,11.47,20.21-.09,4.08.39,7.95,1.96,12.26,2.23,6.13,1.39,14.04-.3,20.63-.81,3.16-6.26,6.16-10.16,7.28-8.17,2.35-16.72,3.41-25.46,5.07Zm-51.31-74.67c.48-8.02,1.05-15.24,1.23-22.47.04-1.41-1.05-3.31-2.21-4.22-3.68-2.88-7.62-5.45-11.51-8.05-14.71-9.82-30.95-14.03-48.58-13.22-4.15.19-6.58,1.53-6.04,6.25.5,4.38.69,8.79,1,13.19.86,12.23,7.57,20.52,19.4,22.99,6.12,1.28,12.64.82,18.62,2.47,6.77,1.86,10.13-1.31,13.22-6.22.83-1.32,1.69-2.81,2.93-3.64,1.62-1.09,3.63-1.6,5.47-2.36-.13,2.08.33,4.45-.52,6.16-1.29,2.58-3.5,4.7-5.77,7.6,4.65.56,8.59,1.03,12.76,1.53Zm44.05,2.6c5.78,7.18,11.44,14.24,17.16,21.23.54.66,1.5,1.21,2.34,1.36,5.86,1.03,11.74,1.93,17.7,2.89.5-5.81-1.95-10.36-6.63-13.91-9.06-6.88-19.57-9.83-30.58-11.58Z"/>
  <path d="m89.61,125.21c0,14.32-11.64,26.02-25.89,26.03-14.29.01-26.67-12.24-26.36-26.42.33-15,12.93-26.2,26.71-25.97,13.18.22,26.19,11.24,25.54,26.36Zm-25.8,14.67c8.28-.03,14.91-6.48,15.16-14.75.23-7.65-7.5-15.41-15.38-15.44-8.36-.04-14.92,6.74-14.9,15.39.02,8.98,5.99,14.82,15.12,14.79Z"/>
  <path d="m314.05,125.21c0,14.26-11.78,26.01-26.08,26.03-14.33.02-26.26-12.02-26.21-26.48.05-14.18,12.68-26.31,26.76-25.91,13.79.39,26.09,11.89,25.54,26.35Zm-26.38,14.67c8.76.05,15.58-6.38,15.7-14.77.11-7.81-7.62-15.51-15.49-15.44-8.24.08-14.73,6.76-14.75,15.2-.03,8.93,5.82,14.96,14.54,15.01Z"/>
</svg>