<?xml version="1.0" encoding="UTF-8"?>
<svg id="Capa_1" data-name="Capa 1" xmlns="http://www.w3.org/2000/svg" viewBox="0 0 353.8 111.32">
  <path d="m36.31,13.72c-.96-1.2-1.92-2.4-3.61-4.5,3.77-.81,7.03-1.59,10.32-2.19,2.33-.42,4.91-.08,5.01-3.75.02-.67,2.89-2.15,3.48-1.77,9.29,5.96,19.1,1.53,28.58,1.38,11.23-.18,22.43-2.15,33.66-2.41,19.49-.45,39.01-.82,58.47-.03,19.42.79,36.79,8.84,53.48,18.25,6.56,3.7,13.05,7.51,19.65,11.14,1.33.73,3.06,1.45,4.47,1.23,14.66-2.24,29.21-.66,43.56,1.92,12.99,2.34,25.92,5.42,38.57,9.2,6.5,1.94,14.08,4.25,16.12,12.19,1.29,5.02,2.59,10.79,1.33,15.54-1.73,6.5-1.08,11.42,4.38,16.28-8.65,5.04-17.83,4.16-26.58,6.16-.55-5.68-.43-11.17-1.7-16.32-3.41-13.84-16.23-23.69-29.76-23.56-15.53.15-29.84,14.33-30.13,29.9-.06,3.37,0,6.75,0,10.48H100.09c1.83-12.89-.83-24.57-11.17-33.29-5.95-5.01-13.09-7.51-20.96-7.05-16.92.99-27.31,14.31-29.21,37.83-10.82-1.86-22.03-2.61-31.12-9.23-3.46-2.52-6.16-7.7-6.84-12.04-1.05-6.72-2.01-13.92,3.74-20,1.97-2.08,2.36-6.16,2.48-9.37.31-8.48,1.78-10.96,9.9-14.38l-.73,1.69c.19.32.38.64.57.96,7.42-4.12,14.85-8.25,23.09-12.82-1.88-.77-2.71-1.12-3.54-1.46Zm52.66,17.73h63.91c-.8-9.08-1.59-18.12-2.33-26.51-12.37,0-24.04.85-35.52-.25-10.84-1.04-17.18,3.36-22.57,12.02-2.78,4.47-4.93,8.47-3.5,14.74ZM160.85,4.26c1.82,9.68,3.51,18.72,5.28,28.17,17.57.66,34.76,1.31,52.11,1.96-.24-1.36-.39-2.2-.53-3.02,1.97-.23,3.66-.44,5.35-.64-.03-.42-.07-.83-.1-1.25-2.1-.31-4.19-.62-7.23-1.08.87-2.52,1.6-4.62,2.45-7.05-16.95-10.36-35.76-17.11-57.32-17.1ZM36.89,27.37c2.06.7,3.78,1.72,5.56,1.83,8.99.55,18,.92,27,1.21,1.31.04,3.25-.27,3.86-1.14,5.17-7.36,10.09-14.89,15.57-23.1-8.06,1.02-15.03,1.98-22.02,2.76-12.5,1.41-23.36,5.5-29.97,18.45Zm-29.03,14.48c7.53.8,13.49-.93,18.78-4.83.98-.72,1.78-2.37,1.73-3.56-.03-.73-1.77-1.92-2.82-2-4.45-.35-8.93-.52-13.39-.38-1.04.03-2.61,1.37-2.92,2.41-.76,2.54-.92,5.26-1.39,8.35Zm311.36,5.12c-.14.48-.28.96-.42,1.44,6.16,2.93,12.26,5.99,18.51,8.71,1.49.65,3.52.39,5.23.11.86-.14,2.07-1.15,2.22-1.95.21-1.07-.09-3.04-.77-3.36-7.84-3.76-15.76-7.5-24.76-4.95Z"/>
  <path d="m323.75,83.09c1.08,13.1-10.4,28.36-27.88,28.23-16.39-.12-27.68-11.95-28.17-28.09-.46-15.11,12.73-27.49,27.86-27.92,16.39-.46,29.13,14.29,28.19,27.78Zm-13.14,11.77c-3.15-3.25-5.9-6.09-9.2-9.49h13.28c-.07-4.79-.27-4.95-4.22-4.55-2.92.3-5.85.52-8.77.78,1.91-3.2,4.41-5.13,6.46-7.46.86-.98.77-2.79,1.12-4.23-1.43.31-3.25.17-4.23,1-2.41,2.07-4.44,4.59-6.62,6.92-.72-3.64-.57-6.67-.15-9.67.53-3.75-1.11-4.46-4.68-3.56v13.88c-3.64-3.92-6.41-6.9-9.42-10.14-1.25,1.41-2.11,2.4-3.5,3.97,3.4,3.05,6.52,5.86,10.5,9.42-5.34-.42-9.43-.74-13.9-1.08.12,1.91.19,3.23.31,5.07h13.12c-3.65,3.39-6.65,6.17-9.86,9.15,1.48,1.28,2.51,2.18,3.67,3.2,3-3.21,5.78-6.19,9.28-9.93v13.76c1.78-.13,3.13-.24,4.57-.34-.29-4.4-.55-8.44-.88-13.56,3.93,3.96,6.95,6.99,10.1,10.16,1.07-1.16,1.91-2.06,3.04-3.29Z"/>
  <path d="m97.48,83.44c-.09,14.91-11.43,27.83-27.84,27.86-16.81.04-28.29-12.48-28.26-28.46.03-16.11,14.26-28.42,29.6-27.58,14.46.79,26.62,13.07,26.5,28.18Zm-39.11,14.91c3.15-3.21,6.08-6.21,9.04-9.23v12.72c1.57-.09,2.9-.17,4.6-.27-.21-4.4-.4-8.42-.64-13.48,3.69,3.85,6.64,6.93,9.79,10.22,1.19-1.53,2.03-2.61,2.98-3.83-3.13-3.04-5.99-5.83-9.55-9.28h13.45c1.18-3.98-.47-4.9-3.85-4.43-2.99.41-6.02.55-9.03.81,2.19-3.24,4.67-5.29,6.77-7.66.8-.91.75-2.58,1.09-3.9-1.45.23-3.33-.02-4.27.8-2.42,2.13-4.43,4.73-7.53,8.18.31-4.37.6-7.18.69-9.99.17-5.04.11-5.05-4.66-4.05v13.36c-3.42-3.58-6.26-6.56-9.35-9.81-1.18,1.07-2.18,1.96-3.95,3.55,3.45,3.22,6.63,6.19,10.33,9.65-4.83-.36-8.93-.67-13.25-.99v4.85h13.65c-3.86,3.46-6.93,6.21-10.4,9.32,1.22,1.04,2.31,1.96,4.1,3.49Z"/>
  <path d="m301.48,83.37c-2.62,1.83-4.41,3.99-5.6,3.7-1.6-.4-2.74-2.68-4.08-4.16,1.44-1.23,2.81-3.31,4.35-3.44,1.33-.11,2.85,1.97,5.33,3.89Z"/>
  <path d="m69.79,77.62c1.79,2.55,4.01,4.4,3.71,5.62-.4,1.62-2.66,3.54-4.35,3.8-1.08.16-3.71-2.55-3.61-3.8.14-1.67,2.27-3.17,4.25-5.62Z"/>
</svg>