<svg version="1.1" id="Layer_1" xmlns="http://www.w3.org/2000/svg" xmlns:xlink="http://www.w3.org/1999/xlink" x="0px" y="0px"
	 width="100%" viewBox="0 0 618 476" enable-background="new 0 0 618 476" xml:space="preserve">
<path fill="#FFFFFF" opacity="1.000000" stroke="none" 
	d="
M618.625488,381.788666 
	C619.000000,412.493896 618.949951,442.988007 619.080261,473.481354 
	C619.092896,476.411438 618.554382,477.086334 615.519653,477.084930 
	C411.893799,476.991150 208.267853,476.988861 4.641973,477.095764 
	C1.253621,477.097534 0.941403,476.009430 0.942592,473.143402 
	C1.007358,317.007996 1.011293,160.872574 0.919818,4.737186 
	C0.917971,1.584115 1.668036,0.923241 4.761391,0.924511 
	C208.220642,1.008039 411.679932,1.013944 615.139160,0.890383 
	C618.845093,0.888133 619.075806,2.009892 619.073608,5.137691 
	C618.987122,129.445969 619.000000,253.754333 619.000000,378.531342 
	C615.692688,379.955200 615.847412,377.336060 615.740540,375.533691 
	C615.515076,371.729553 615.387634,367.908173 615.561157,363.615479 
	C615.322754,351.143951 615.655945,339.143585 615.422485,327.149841 
	C615.095520,310.358826 613.921387,293.550140 614.684875,276.784210 
	C615.199341,265.486389 614.396912,254.189926 615.358643,242.926971 
	C615.703918,238.883163 614.401550,234.952194 614.573181,230.987244 
	C615.236023,215.679840 613.977112,200.376251 614.707520,184.624298 
	C615.012573,182.744278 615.533142,181.329163 614.897217,179.420898 
	C614.276978,168.998306 614.468506,159.009644 614.729370,148.585724 
	C615.073547,146.515488 615.885071,144.917023 615.028870,142.797852 
	C614.389709,138.705338 614.478088,135.016785 614.862427,130.910034 
	C615.751465,127.825005 615.961243,125.137543 615.054443,122.013077 
	C614.543945,117.060661 613.204224,112.593231 613.877014,107.538132 
	C614.489929,98.213287 616.012329,89.319366 614.137756,80.405579 
	C613.131836,75.622185 614.062500,70.787979 614.263611,66.061279 
	C614.610718,57.899685 614.366516,49.839462 613.568115,41.745041 
	C612.951965,35.497978 609.332764,30.701620 605.855469,25.320534 
	C601.706238,16.774052 595.114746,11.850448 586.669678,9.072190 
	C579.320190,6.654333 571.788269,5.565492 564.071838,5.565574 
	C516.784668,5.566077 469.484802,6.266218 422.213440,5.396597 
	C355.316650,4.165941 288.425629,4.840642 221.532852,4.624162 
	C203.261292,4.565031 184.997635,5.859515 166.247101,5.403765 
	C164.863327,5.385719 163.943634,5.441500 162.585922,5.278185 
	C159.264084,4.313278 156.377670,4.410001 153.443970,5.007648 
	C150.349976,5.637949 147.268265,5.332038 143.795380,4.510238 
	C124.216713,5.034282 105.066521,3.495593 85.926048,4.521908 
	C85.286263,4.904212 86.240845,5.753027 85.865898,5.201791 
	C85.731827,5.004687 85.883102,4.946001 86.123863,4.765100 
	C86.697327,4.334213 87.393158,4.340599 87.984009,4.360979 
	C99.409210,4.755084 110.820564,3.666302 122.279480,4.612023 
	C130.820923,5.316960 139.398636,5.996653 148.414566,6.087791 
	C151.206772,5.547153 153.581741,5.604145 156.398407,5.870358 
	C160.866852,6.968039 164.903595,6.875364 169.396255,5.911077 
	C177.360168,4.703816 184.782852,6.486249 192.279892,6.480750 
	C316.705353,6.389479 441.130920,6.424019 565.556458,6.395624 
	C574.171143,6.393658 582.402405,7.723598 590.307068,11.391817 
	C596.097961,14.079117 600.567200,18.084011 604.513794,23.514484 
	C610.328369,32.209961 612.407349,41.382149 612.581360,51.330303 
	C612.790283,63.274799 613.553711,75.226433 613.098083,87.163239 
	C612.806396,94.805618 612.154968,102.422623 612.887817,110.494781 
	C613.716736,115.233093 613.480469,119.568108 613.240479,124.314560 
	C613.048401,125.775879 612.737122,126.810745 612.991211,128.276337 
	C613.394165,131.036285 613.416870,133.410568 613.052856,136.179474 
	C612.472473,138.110123 612.345215,139.652039 613.045532,141.605164 
	C613.140381,149.203400 614.559021,156.331421 614.021606,163.948639 
	C612.100952,167.222427 611.896912,170.278061 612.995483,173.852020 
	C614.200928,181.738846 613.821838,189.315384 614.158447,196.853958 
	C614.274231,199.447083 613.882690,202.120697 613.799316,205.169067 
	C612.171692,208.013794 612.028687,210.584641 613.100525,213.681030 
	C613.914307,224.710007 613.340820,235.301285 612.785889,245.891663 
	C612.725159,247.050140 612.463867,248.216217 612.572998,249.366577 
	C613.762939,261.916016 612.737793,274.502411 613.169189,287.081726 
	C613.719360,303.121918 613.969360,319.230103 613.241455,335.749786 
	C612.326294,338.995850 611.986450,341.815979 612.998535,345.103516 
	C613.754883,351.129456 613.559387,356.738739 613.213318,362.772552 
	C612.478943,365.855499 612.024658,368.525696 612.859009,371.647430 
	C613.388733,374.172150 613.403381,376.316437 613.100464,378.855804 
	C612.501282,380.969696 612.413879,382.708466 612.969238,384.850098 
	C613.118103,386.042419 613.078125,386.844513 612.909790,388.054413 
	C612.122131,390.743347 612.433228,393.093201 612.414734,395.411316 
	C612.324585,406.701538 612.340454,418.016937 612.624451,429.277008 
	C613.066895,446.828339 598.069214,466.514191 580.945801,468.968903 
	C578.967529,469.252502 577.077759,469.951141 574.675903,470.440735 
	C561.639343,472.506958 548.994263,471.627960 536.369873,471.119781 
	C533.221008,470.992981 530.071472,470.500763 526.905212,470.600769 
	C507.801422,471.204041 488.681427,471.425110 469.579956,471.476318 
	C375.812134,471.727692 282.043304,471.570068 188.274841,471.623627 
	C179.291443,471.628784 170.310883,471.739044 161.324554,471.628815 
	C129.853256,471.242767 98.400642,473.371948 66.928505,472.526489 
	C54.678688,472.197418 42.187965,472.809479 30.877457,466.529633 
	C29.718512,465.886139 28.448061,465.447205 27.066299,464.255249 
	C15.591194,454.562317 9.759560,443.106171 9.172750,428.051483 
	C8.393460,408.058746 8.172819,388.069946 8.760872,368.125549 
	C9.227245,352.308044 9.602743,336.496674 9.382895,320.691376 
	C9.147385,303.760193 9.106355,286.820312 8.943168,269.893768 
	C8.742913,249.122574 8.688494,228.323761 8.793275,207.540878 
	C8.958545,174.760483 8.621962,141.960938 8.550300,109.170021 
	C8.515722,93.348030 8.009834,77.510857 8.624922,61.708046 
	C8.990376,52.318840 8.995834,42.761044 11.781898,33.611355 
	C8.257233,44.143703 7.710955,55.225101 7.693507,66.096573 
	C7.636635,101.530670 8.806054,136.961899 8.474061,172.402969 
	C8.388339,181.553986 8.857806,190.709625 7.661915,199.847336 
	C6.725865,206.999634 8.599448,214.128799 8.436493,221.277817 
	C8.023259,239.406784 8.427988,257.537659 8.062435,275.673553 
	C7.805346,288.428314 8.598435,301.274689 8.359917,314.043701 
	C7.955939,335.670532 8.861527,357.282379 8.437254,378.895905 
	C8.120336,395.040436 8.575056,411.177032 8.577488,427.317596 
	C8.579723,442.162323 14.208714,454.502197 26.476282,464.000793 
	C32.288738,467.942535 38.105362,470.773071 44.679588,471.521606 
	C53.437298,472.518799 62.202797,473.350708 71.059807,472.603027 
	C80.223114,471.829559 89.332108,473.517426 98.506912,473.536560 
	C110.346413,473.561249 122.136467,471.509888 133.948593,472.523193 
	C144.934357,473.465576 155.913666,473.287872 166.902908,473.461731 
	C175.080978,473.591125 183.164398,471.858673 191.352844,472.442810 
	C220.648849,474.532867 249.985886,473.272552 279.301239,473.356964 
	C352.466644,473.567596 425.633881,473.615417 498.798645,473.312653 
	C521.112976,473.220337 543.424500,473.891327 565.731873,473.365723 
	C574.194580,473.166260 582.746704,472.793945 590.633057,467.714600 
	C602.805481,462.601440 610.028992,453.818024 613.115234,441.549561 
	C614.705017,435.230011 615.607300,428.817719 615.592041,422.274506 
	C615.564880,410.611847 615.458008,398.947723 615.692505,387.286987 
	C615.735657,385.138550 614.985229,382.387329 618.625488,381.788666 
z"/>
<path fill="#E1E1E1" opacity="1.000000" stroke="none" 
	d="
M616.624329,362.771484 
	C616.921570,366.779022 616.889954,370.582794 617.025635,374.380615 
	C617.080566,375.917969 616.307678,377.763275 618.598022,378.926910 
	C619.000000,379.750000 619.000000,380.500000 619.000000,381.625000 
	C615.887817,382.592621 617.043152,385.099884 617.030334,386.835602 
	C616.934326,399.829590 617.286926,412.834564 616.871033,425.815979 
	C616.551575,435.788849 615.139526,445.795837 609.219971,454.232422 
	C605.047729,460.178619 600.487610,466.066803 592.447754,468.065002 
	C587.671753,468.790771 583.836243,471.470001 579.309021,471.764465 
	C577.378479,471.890015 575.229492,472.590485 574.779419,469.404510 
	C584.938538,467.228668 593.950012,463.947510 600.933411,455.853912 
	C605.194397,450.915558 608.606445,445.671783 609.829956,439.479370 
	C611.715393,429.937256 611.597595,420.196838 611.206543,410.463318 
	C610.914307,403.189758 610.608948,395.882660 611.733276,388.308655 
	C614.566345,387.581726 613.388000,386.497803 612.238159,385.230591 
	C611.337646,383.535461 610.524170,382.084900 611.795288,380.233276 
	C614.472290,377.572571 614.596130,374.942200 612.381714,372.057159 
	C610.230469,369.629547 611.052185,367.072632 611.738647,364.277985 
	C613.384766,363.285248 614.727844,362.485016 616.624329,362.771484 
z"/>
<path fill="#DADADA" opacity="1.000000" stroke="none" 
	d="
M574.566406,469.055481 
	C578.142883,473.172302 581.428284,469.314667 584.592529,469.057953 
	C586.922241,468.868896 588.952087,466.698090 591.845703,467.803284 
	C585.245605,474.247406 576.530273,474.395203 568.231323,474.784943 
	C555.769226,475.370209 543.259705,474.947723 530.770325,474.947540 
	C436.157898,474.946259 341.545441,474.942413 246.932999,474.942413 
	C232.112427,474.942413 217.204727,475.970337 202.493835,474.704376 
	C184.991531,473.198120 167.666428,475.848328 150.241837,475.052979 
	C142.290939,474.690063 134.378738,473.650543 126.371223,473.944977 
	C115.090874,474.359680 103.830170,475.313385 92.515007,475.003174 
	C85.051323,474.798553 77.630722,473.234863 70.152557,474.075165 
	C60.699642,475.137299 51.352432,474.005219 42.059677,472.705475 
	C36.264397,471.894897 31.100418,469.017303 26.140369,465.336670 
	C25.413877,464.258972 25.475405,463.554230 26.626614,462.947205 
	C35.070709,466.837433 43.056774,469.786713 52.391724,470.339691 
	C74.041313,471.622131 95.686317,471.326874 117.274925,470.741058 
	C133.574921,470.298737 149.868362,470.118073 166.159485,470.095612 
	C259.579559,469.966766 353.000183,470.113617 446.419708,469.841553 
	C456.515411,469.812164 466.613220,470.673279 476.697479,469.957428 
	C494.078522,468.723572 511.496368,469.258057 528.877197,469.308807 
	C540.987427,469.344177 553.129517,469.942139 565.266418,470.001160 
	C568.281311,470.015808 571.232971,469.814514 574.566406,469.055481 
z"/>
<path fill="#DADADA" opacity="1.000000" stroke="none" 
	d="
M164.775513,4.276583 
	C176.274414,3.632715 187.586136,3.476133 198.871613,3.275051 
	C234.613510,2.638210 270.373718,3.020606 306.126862,3.023208 
	C334.288269,3.025257 362.465942,2.438466 390.607697,3.189169 
	C449.472260,4.759426 508.337555,3.592825 567.199646,4.062990 
	C577.682617,4.146723 587.611084,6.832501 596.668518,11.754668 
	C601.403198,14.327709 604.629822,19.184265 606.998779,24.663860 
	C606.472046,25.649546 605.685669,25.800062 604.440918,25.201340 
	C595.695190,13.300455 583.775269,8.076118 569.955322,8.053141 
	C465.652740,7.879727 361.349640,7.982746 257.046722,7.992966 
	C243.384430,7.994305 229.696640,8.446692 216.070587,7.734767 
	C209.256332,7.378741 202.555405,7.386721 195.798904,7.921419 
	C187.141525,8.606546 178.572983,6.664731 169.462677,6.979003 
	C168.895844,6.827121 168.791382,6.693719 168.757248,6.395905 
	C168.575516,6.187376 168.502426,6.450879 168.006577,6.661979 
	C166.056625,6.910228 164.658157,6.685656 164.775513,4.276583 
z"/>
<path fill="#E1E1E1" opacity="1.000000" stroke="none" 
	d="
M26.876400,462.674561 
	C26.700701,463.450867 26.367661,463.935455 26.005577,464.727844 
	C15.494824,458.544342 10.296955,448.589050 8.054783,436.932709 
	C5.804562,425.234558 7.210756,413.358765 7.042325,401.566040 
	C6.817346,385.813995 7.504553,370.035034 6.853259,354.306854 
	C6.182297,338.103699 7.904607,321.912781 6.801768,305.783478 
	C6.135817,296.043732 8.245104,286.319702 6.180083,276.607086 
	C5.505806,273.435699 7.108206,270.125549 7.065338,266.747986 
	C6.890800,252.996017 6.794499,239.236694 7.072746,225.488235 
	C7.197971,219.300751 5.753942,213.237610 6.085376,207.103470 
	C7.721582,176.820526 6.764233,146.516251 6.950307,116.222282 
	C6.995148,108.922081 5.244790,101.632668 6.122290,94.342407 
	C7.320139,84.390732 5.304796,74.480881 6.122184,64.582832 
	C6.629471,58.439899 5.907482,52.099716 8.651377,46.224701 
	C9.599774,44.194069 6.131608,43.089638 7.236163,40.819118 
	C9.418400,36.333321 11.540887,31.818449 14.089945,27.477592 
	C14.914380,31.299973 12.614431,34.363796 11.954108,37.788170 
	C10.502794,45.314537 10.219459,52.994556 10.144569,60.540844 
	C9.791212,96.147705 9.793297,131.762207 10.139242,167.369400 
	C10.243828,178.134247 9.786302,188.879135 9.926933,199.639694 
	C10.148000,216.554657 9.391820,233.504700 10.242773,250.379700 
	C10.666170,258.776001 10.193117,267.151855 10.752678,275.551361 
	C11.419888,285.566772 11.679813,295.759674 11.093549,305.691559 
	C10.776183,311.067993 11.080174,316.418549 11.099392,321.709686 
	C11.213680,353.176361 9.199759,384.615936 10.010702,416.084473 
	C10.190248,423.051636 10.367057,430.119324 11.309626,436.928284 
	C12.344357,444.403076 16.093689,451.329803 21.495955,457.008453 
	C23.217661,458.818329 24.976952,460.592407 26.876400,462.674561 
z"/>
<path fill="#DADADA" opacity="1.000000" stroke="none" 
	d="
M616.913696,362.511597 
	C615.266235,362.759674 614.598633,365.770569 612.304138,364.124756 
	C612.009094,357.980591 612.002869,351.955200 612.009155,345.461243 
	C611.994202,342.571808 612.013123,340.150848 612.010498,337.366791 
	C611.842529,295.982849 610.692810,254.962402 611.974182,213.472931 
	C612.165527,210.865021 611.633057,208.669525 612.711426,206.243805 
	C612.854370,197.304840 611.948242,188.700958 612.828735,180.109680 
	C613.026550,178.179550 611.986694,176.599548 612.057312,174.382477 
	C612.145630,171.189667 611.583435,168.368134 612.712158,165.267502 
	C613.085510,157.231689 611.406616,149.621536 612.034546,141.451752 
	C612.007385,139.879776 612.009766,138.774918 612.020264,137.338593 
	C612.022095,134.301071 612.020935,131.595001 612.032227,128.437973 
	C612.028564,127.543190 612.012146,127.099350 611.980164,126.322769 
	C611.969849,121.303909 611.974792,116.617798 611.990112,111.465698 
	C612.258911,109.264999 611.362000,106.920296 614.677002,106.804573 
	C615.337219,111.714043 615.638489,116.428612 615.922974,121.588097 
	C616.068726,124.445534 615.956360,126.861504 615.998413,129.637787 
	C616.010132,134.023041 616.020325,138.046097 616.023438,142.531952 
	C615.986084,144.107697 615.989746,145.220825 616.001221,146.667908 
	C616.008057,157.689560 616.010193,168.377274 616.002075,179.533722 
	C615.986267,180.800171 615.990784,181.597931 615.980957,182.694794 
	C616.299866,242.677826 616.620728,302.361694 616.913696,362.511597 
z"/>
<path fill="#D6D6D6" opacity="1.000000" stroke="none" 
	d="
M214.729874,217.317383 
	C223.751312,216.676788 231.480621,218.150833 235.835602,226.776566 
	C236.779083,228.645279 238.355301,231.511200 235.948959,232.478958 
	C233.347137,233.525375 229.232025,234.590805 227.302353,231.575378 
	C224.743774,227.577148 221.819504,225.449097 217.120453,226.117325 
	C211.809799,226.872543 209.935150,230.702988 208.659363,235.348099 
	C206.162689,244.438553 210.704971,252.730576 218.432800,253.104568 
	C222.757828,253.313889 225.282776,251.227173 226.995804,247.633331 
	C228.435623,244.612671 234.285767,242.569839 236.887726,244.276413 
	C238.572128,245.381195 237.715042,246.869171 237.319412,248.299835 
	C235.098343,256.331696 229.307693,261.318024 221.385590,261.967896 
	C211.277023,262.797119 203.011353,258.638397 199.799652,250.199570 
	C195.284302,238.335297 197.660187,221.640640 214.729874,217.317383 
z"/>
<path fill="#D6D6D6" opacity="1.000000" stroke="none" 
	d="
M402.580872,239.985519 
	C400.177551,239.586761 397.319061,241.223038 396.357147,238.689316 
	C395.371094,236.091949 397.448639,233.998520 399.334167,232.306244 
	C403.628784,228.451752 415.423218,227.618301 420.175934,230.839447 
	C423.457001,233.063171 424.904724,236.302216 424.920135,240.211777 
	C424.939819,245.206940 424.925781,250.202255 424.941772,255.197449 
	C424.960785,261.148041 424.123871,262.278412 418.454987,260.801941 
	C415.133972,259.936981 412.596130,260.717957 409.662994,261.528442 
	C402.006378,263.644104 395.445435,259.798798 395.031982,253.183304 
	C394.734772,248.427536 397.675507,244.248047 402.273224,243.187683 
	C404.685486,242.631348 407.162964,242.237686 409.630890,242.077774 
	C411.948822,241.927567 414.004242,241.552826 414.797607,239.075195 
	C415.201935,237.812485 414.567444,236.622528 413.302826,236.312851 
	C411.052216,235.761765 408.617371,235.236969 406.680328,237.021866 
	C405.510864,238.099472 405.083771,240.031570 402.580872,239.985519 
z"/>
<path fill="#D6D6D6" opacity="1.000000" stroke="none" 
	d="
M278.070984,255.823761 
	C278.070892,248.525146 278.027985,241.705780 278.103088,234.887711 
	C278.120270,233.327560 277.289001,231.084015 279.187378,230.410934 
	C281.470703,229.601349 284.536682,229.040771 286.304443,230.679306 
	C287.725189,231.996201 287.990936,232.280426 289.538757,231.117355 
	C293.881744,227.854004 298.571655,228.299835 303.145660,230.618988 
	C307.323486,232.737274 307.770294,236.865631 307.916687,240.860428 
	C308.117554,246.341537 307.788513,251.843719 308.037811,257.320862 
	C308.215820,261.231659 305.879303,260.988129 303.243988,261.045166 
	C300.563599,261.103119 298.876648,260.757294 298.898712,257.356293 
	C298.934021,251.904205 299.320679,246.452271 298.222504,240.975021 
	C297.576538,237.753220 296.183319,236.915405 293.237701,236.893250 
	C289.781250,236.867249 288.288055,238.872299 288.112091,241.761047 
	C287.819336,246.567383 287.856567,251.404694 287.992035,256.222290 
	C288.078552,259.300079 287.717316,261.278381 283.797791,261.097565 
	C280.378601,260.939819 277.246063,261.206085 278.070984,255.823761 
z"/>
<path fill="#D6D6D6" opacity="1.000000" stroke="none" 
	d="
M348.042969,256.918365 
	C341.221680,246.999069 343.450195,235.173874 352.730316,230.649292 
	C360.076843,227.067444 368.962280,229.051804 373.767029,235.347397 
	C378.086975,241.007797 377.440155,251.500000 372.429413,257.044281 
	C367.470245,262.531494 358.165375,263.696045 351.416199,259.621094 
	C350.289154,258.940582 349.300598,258.030762 348.042969,256.918365 
z"/>
<path fill="#D6D6D6" opacity="1.000000" stroke="none" 
	d="
M327.829590,261.962036 
	C322.041779,262.165924 317.079010,261.134674 313.584351,256.713043 
	C312.181519,254.938049 310.649597,251.885147 313.060913,250.649445 
	C315.221985,249.541946 318.785980,248.568954 321.020905,251.767883 
	C321.582336,252.571487 322.012634,253.572159 322.767303,254.115112 
	C324.831848,255.600510 327.197327,255.297043 329.444977,254.620010 
	C330.688873,254.245331 331.204132,253.016632 330.951752,251.785690 
	C330.437103,249.275345 328.199860,249.320663 326.297821,248.840439 
	C323.731201,248.192413 321.133759,247.590775 318.658356,246.675049 
	C314.927795,245.295013 312.821960,242.904495 312.864380,238.453293 
	C312.906677,234.016357 315.084381,231.711670 318.759064,230.241714 
	C325.815216,227.419098 333.384186,228.669769 337.735260,233.222382 
	C339.431366,234.997055 341.322784,237.336273 339.263214,239.169220 
	C337.407501,240.820755 334.246124,240.534012 331.817749,239.017929 
	C331.170654,238.613937 330.943024,237.588013 330.339874,237.054474 
	C328.351257,235.295486 325.990997,235.830566 323.723663,236.260941 
	C322.894287,236.418365 322.130432,237.168930 322.367279,238.070892 
	C323.012207,240.526871 325.456665,240.252258 327.209198,240.872665 
	C329.692230,241.751663 332.379822,242.072754 334.829712,243.020691 
	C338.595062,244.477600 341.349243,246.704727 341.059143,251.479492 
	C340.781006,256.058197 338.525513,258.918732 334.534424,260.583588 
	C332.563049,261.405945 330.502441,262.167175 327.829590,261.962036 
z"/>
<path fill="#D6D6D6" opacity="1.000000" stroke="none" 
	d="
M242.294220,251.342499 
	C241.237228,246.716522 241.115341,242.501984 242.835709,238.389526 
	C246.433075,229.790146 256.527191,226.364105 265.409424,230.723450 
	C273.589111,234.738022 276.590790,245.734833 271.834808,254.255630 
	C268.537964,260.162292 263.158722,262.077759 256.811096,261.946533 
	C249.740051,261.800385 244.984100,258.268921 242.294220,251.342499 
z"/>
<path fill="#D6D6D6" opacity="1.000000" stroke="none" 
	d="
M387.805359,218.041916 
	C390.987213,217.977997 390.936096,219.878998 390.934845,221.781555 
	C390.927094,233.557159 390.783783,245.335587 391.009949,257.106842 
	C391.090515,261.300690 388.704651,260.983063 385.921112,261.046539 
	C382.962494,261.113922 380.887817,260.979980 380.973022,256.966248 
	C381.205292,246.024857 381.374207,235.061691 380.913330,224.134781 
	C380.689941,218.838394 382.502960,217.225418 387.805359,218.041916 
z"/>
<path fill="#E1E1E1" opacity="1.000000" stroke="none" 
	d="
M615.316528,106.695541 
	C612.529053,107.006218 613.358948,109.362915 612.266724,110.776604 
	C610.065125,104.158569 611.605713,97.214142 611.312500,90.335953 
	C610.933289,81.444260 613.007202,72.610435 611.504517,63.705780 
	C610.956238,60.457104 610.942200,57.071156 611.074951,53.763500 
	C611.477966,43.721592 609.720947,34.248684 604.198425,25.296360 
	C604.848511,24.975401 605.615051,24.984417 606.769775,24.986734 
	C617.222046,36.338493 615.961304,50.201584 615.873108,63.856102 
	C615.834473,69.840324 614.669556,75.779182 615.867432,81.831635 
	C617.480835,89.983727 615.679382,98.199570 615.316528,106.695541 
z"/>
<path fill="#E1E1E1" opacity="1.000000" stroke="none" 
	d="
M149.349030,6.756879 
	C144.173447,7.127446 139.476990,7.898068 134.497818,6.721601 
	C128.780365,5.370695 122.719543,5.193967 116.795288,5.058720 
	C106.233566,4.817602 95.662384,4.990902 85.095154,4.990902 
	C85.088959,4.535713 85.082764,4.080523 85.076561,3.625334 
	C104.425949,3.444801 123.775330,3.264268 143.590912,3.125891 
	C146.935501,5.918670 151.030685,3.333259 154.237564,5.282324 
	C152.974045,7.302845 151.131775,6.106202 149.349030,6.756879 
z"/>
<path fill="#E1E1E1" opacity="1.000000" stroke="none" 
	d="
M19.263954,19.298580 
	C22.464914,16.183838 25.049255,12.860151 29.480610,11.739470 
	C25.628605,16.963903 19.778364,20.316082 16.028347,25.703470 
	C15.795938,22.954926 17.454910,21.278431 19.263954,19.298580 
z"/>
<path fill="#DADADA" opacity="1.000000" stroke="none" 
	d="
M149.445801,6.994856 
	C149.870163,5.395665 151.832916,6.589479 153.009506,5.409055 
	C150.148209,4.063835 146.767044,6.333691 144.142120,3.535190 
	C147.884186,4.084204 151.656403,4.279721 155.547485,3.193909 
	C157.342896,2.692897 159.425980,2.711296 161.626617,3.851915 
	C163.106613,8.631495 159.656799,6.738750 157.356888,7.004737 
	C154.628555,7.008638 152.258942,7.010413 149.445801,6.994856 
z"/>
<path fill="#DADADA" opacity="1.000000" stroke="none" 
	d="
M612.060181,372.412170 
	C613.180176,371.499908 612.694153,369.705292 614.490417,369.458893 
	C615.512024,372.740448 614.922852,376.129303 614.880310,379.448883 
	C614.862915,380.805054 613.744812,380.778107 612.387024,380.157104 
	C612.053528,377.634552 612.047058,375.247498 612.060181,372.412170 
z"/>
<path fill="#E1E1E1" opacity="1.000000" stroke="none" 
	d="
M157.291656,7.291326 
	C157.926743,4.711449 161.590271,8.157921 161.969894,4.329586 
	C162.743118,3.987352 163.488678,3.967466 164.606430,3.951270 
	C165.142944,6.112469 166.729813,5.994362 168.622681,5.999258 
	C169.003052,6.003319 169.003082,6.482320 169.001709,6.721422 
	C165.286453,8.857430 161.418060,7.887438 157.291656,7.291326 
z"/>
<path fill="#E1E1E1" opacity="1.000000" stroke="none" 
	d="
M612.574646,165.034271 
	C612.873413,167.746994 613.402527,170.602036 612.338745,173.692596 
	C610.449707,171.009613 610.286194,168.064438 612.574646,165.034271 
z"/>
<path fill="#E1E1E1" opacity="1.000000" stroke="none" 
	d="
M616.274414,129.726196 
	C614.206665,127.660233 615.024170,125.101631 615.642212,122.307449 
	C617.793152,124.361237 616.938782,126.926926 616.274414,129.726196 
z"/>
<path fill="#E1E1E1" opacity="1.000000" stroke="none" 
	d="
M611.736328,337.275024 
	C613.770081,339.368347 613.022400,341.924103 612.301392,344.724579 
	C610.289673,342.627136 611.026855,340.075287 611.736328,337.275024 
z"/>
<path fill="#DADADA" opacity="1.000000" stroke="none" 
	d="
M611.997070,385.377319 
	C614.927490,384.732544 615.164795,386.591095 614.970154,388.767120 
	C614.900879,389.541229 614.910950,390.669464 613.801697,390.357910 
	C613.243958,390.201263 612.950928,389.102356 612.280518,388.220306 
	C612.011658,387.258484 612.000488,386.505951 611.997070,385.377319 
z"/>
<path fill="#E1E1E1" opacity="1.000000" stroke="none" 
	d="
M612.577881,206.018570 
	C612.874329,208.095398 613.408264,210.318832 612.276794,212.735077 
	C610.604614,210.664093 610.223450,208.357407 612.577881,206.018570 
z"/>
<path fill="#E1E1E1" opacity="1.000000" stroke="none" 
	d="
M616.256287,146.785248 
	C614.691040,145.970367 614.809814,144.732162 615.752441,143.203995 
	C617.239380,144.040710 617.142151,145.267761 616.256287,146.785248 
z"/>
<path fill="#E1E1E1" opacity="1.000000" stroke="none" 
	d="
M611.768311,137.220490 
	C613.291077,138.028397 613.177856,139.255020 612.300293,140.771088 
	C610.752625,139.969482 610.865295,138.742050 611.768311,137.220490 
z"/>
<path fill="#E1E1E1" opacity="1.000000" stroke="none" 
	d="
M616.222778,182.808594 
	C614.943481,182.279343 614.814453,181.398254 615.744385,180.185303 
	C617.011658,180.719986 617.139343,181.599121 616.222778,182.808594 
z"/>
<path fill="#E1E1E1" opacity="1.000000" stroke="none" 
	d="
M611.752136,126.146576 
	C612.671814,126.391968 613.030029,126.900505 612.263855,127.836357 
	C611.342163,127.585999 611.012756,127.073006 611.752136,126.146576 
z"/>
<path fill="#E1E1E1" opacity="1.000000" stroke="none" 
	d="
M32.953594,10.572865 
	C32.248585,10.191493 32.252068,9.807486 32.747101,9.468597 
	C32.851616,9.397049 33.093140,9.398205 33.194969,9.471800 
	C33.685219,9.826123 33.661690,10.210008 32.953594,10.572865 
z"/>
<path fill="#E1E1E1" opacity="1.000000" stroke="none" 
	d="
M168.999023,5.998523 
	C169.438675,5.285649 170.054077,4.948188 170.885193,5.187287 
	C170.950180,5.205983 170.954254,5.772697 170.909546,5.784169 
	C170.482117,5.893832 170.038055,5.938683 169.300903,6.002725 
	C169.003052,6.003319 169.000000,6.000021 168.999023,5.998523 
z"/>
<path fill="#FFFFFF" opacity="1.000000" stroke="none" 
	d="
M408.983429,255.887421 
	C406.330719,255.258667 403.830444,254.672729 404.164825,251.597275 
	C404.449219,248.981293 406.760162,248.253586 408.893433,248.072556 
	C411.082458,247.886810 414.284485,245.064087 415.283447,248.300415 
	C416.157227,251.131241 414.443542,254.430557 410.797638,255.519547 
	C410.327271,255.660034 409.846802,255.766632 408.983429,255.887421 
z"/>
<path fill="#FFFFFF" opacity="1.000000" stroke="none" 
	d="
M367.026123,246.751633 
	C366.578217,251.100433 365.046478,254.472122 360.727539,254.862503 
	C355.850647,255.303299 354.467499,251.488037 353.374420,247.649094 
	C352.370148,244.122009 353.467529,241.011398 355.524841,238.328491 
	C358.418793,234.554520 363.580109,235.525131 366.058807,240.039490 
	C367.165009,242.054199 367.015594,244.187866 367.026123,246.751633 
z"/>
<path fill="#FFFFFF" opacity="1.000000" stroke="none" 
	d="
M250.973679,245.922546 
	C250.788452,242.754440 251.333374,240.260300 253.294891,238.174454 
	C255.937897,235.363953 260.095093,235.199600 262.364044,238.185852 
	C264.178772,240.574295 265.190857,243.465027 264.855774,246.548965 
	C264.293549,251.722977 261.199493,255.371124 257.426300,254.885208 
	C252.631882,254.267776 251.131073,250.705521 250.973679,245.922546 
z"/>
</svg>