<svg xmlns="http://www.w3.org/2000/svg" viewBox="0 0 113.92 85.19"><defs><style>.cls-1{fill:#d6d5d8;}.cls-2{fill:#d3d2d8;}.cls-3{fill:#d6d6d6;}.cls-4{fill:#adafb4;}.cls-5{fill:#afb1b6;}.cls-6{fill:#bdbdbe;}.cls-7{fill:#c3c3c5;}.cls-8{fill:#d8dadb;}.cls-9{fill:#d6d5d7;}.cls-10{fill:#ececed;}.cls-11{fill:#e1e1e1;}.cls-12{fill:#b5b6bb;}.cls-13{fill:#c9c8c9;}.cls-14{fill:#d1d1d2;}.cls-15{fill:#e6e6e6;}.cls-16{fill:#d5d5d9;}.cls-17{fill:#fcfcfc;}.cls-18{fill:#fefefe;}.cls-19{fill:#fdfdfd;}</style></defs><title>Recurso 9</title><g id="Capa_2" data-name="Capa 2"><g id="Capa_1-2" data-name="Capa 1"><path class="cls-1" d="M106.91.53a7,7,0,0,1,5.84,3.88,10.92,10.92,0,0,1,1.14,5.15c0,22.18-.1,44.35,0,66.53a9,9,0,0,1-9.17,9.1q-47.41-.1-94.82,0c-.54,0-1.08,0-1.61,0v-.76H10.6q46.94,0,93.88,0a8.24,8.24,0,0,0,8.57-8.55q0-33.46,0-66.92a7.77,7.77,0,0,0-2.58-5.79A19.67,19.67,0,0,0,106.89.87Z"/><path class="cls-2" d="M106.91.53l0,.34c-.45,0-.89,0-1.34,0L9.85.81a14.2,14.2,0,0,0-4.21.55V.8A5.25,5.25,0,0,1,8.93,0H69.2c11.48,0,23,0,34.42,0,1,0,1.91.45,2.89.1C106.76,0,106.86.31,106.91.53Z"/><path class="cls-3" d="M5.63.8v.56c-.11.14-.2.33-.34.4C2,3.5.8,6.37.8,10c0,21.84.07,43.68,0,65.52a8.68,8.68,0,0,0,7.54,8.85v.76C5.14,85.29,1.83,82.7.7,79.87a10.67,10.67,0,0,1-.7-4q0-33.48,0-67A8.53,8.53,0,0,1,4.26,1.22,2.45,2.45,0,0,1,5.63.8Z"/><path class="cls-4" d="M70.24,45.63c.49,3.29,1,6.59,1.49,9.87.27,1.64,1.4,2.84,2.34,4.13a63.78,63.78,0,0,0,6.35,7.28,2.38,2.38,0,0,1-2.32-1c-1.57-1.75-3.11-3.54-4.57-5.38-.61-.77-1-.88-1.86-.33a23.64,23.64,0,0,1-4.15,2.63L67.25,62c1-1.22,2.51-1.8,3.72-2.77.64-.51,1-.92.38-1.73-.82-1.08-.79-2.48-1.07-4.16A10.2,10.2,0,0,1,69,55.42c-4.12,3.76-8.7,6.58-14.48,6.77a10.27,10.27,0,0,1-4.93-1.53c-3.64-1.84-7.24-3.79-10.87-5.66-1-.51-2-.89-3-1.33v-.33a5.77,5.77,0,0,1,1.92.48c2.33.89,4.46,2.19,6.71,3.23.53.25,1.08.73,1.68.1h0a1.28,1.28,0,0,0,.58,1c3.36,1.86,6.68,3.92,10.81,3l.28-.15.77-.14a48.05,48.05,0,0,0,7.93-4,6.42,6.42,0,0,0,3.11-4.7,25.64,25.64,0,0,0,.24-4.1l-.54-5.9h.55c.1.94.2,1.88.31,2.82C69.92,45.26,69.93,45.51,70.24,45.63Z"/><path class="cls-5" d="M45.94,57.15h0c-2.19-1.17-4.14-2.74-6.39-3.8l-.71-.76.38-.35.69.35c.48.37.87.92,1.6.82h0c0,.39.25.5.53.62l.25.18.83.53h0a.81.81,0,0,0,.81.28h0a4.31,4.31,0,0,0,2.42,1.32,1.66,1.66,0,0,0,1.86-.2c2.5-1.7,5.13-3.2,7.52-5.07a4.94,4.94,0,0,0,1.38-1.43A1.92,1.92,0,0,0,56.66,47a12.49,12.49,0,0,0-2.73-1.9,34.51,34.51,0,0,1-6.19-3.9,11.76,11.76,0,0,0-8.89-2.53v-.52c2.76-.48,5.39-.34,7.71,1.47a1.08,1.08,0,0,0,.83.34l.81.6c2.92,2.24,6.45,3.53,9.27,5.92a5.41,5.41,0,0,1,2,4.19,12,12,0,0,1-1,6.23c-.24.45-.31,1.05-1,1.15l-.22-.16a15.23,15.23,0,0,0,1-8.41,7.12,7.12,0,0,1-2.1,2.38c-2,1.38-4,2.75-6.1,4-1.06.66-2,1.65-3.47,1.42Z"/><path class="cls-6" d="M74,29.59a9,9,0,0,1-1.25-3.06,38.61,38.61,0,0,0-4.14-8.91c-.14-.22-.37-.41-.08-.79a14.6,14.6,0,0,1,2.35,3.62,34.13,34.13,0,0,1,2.79,6.91c.29,1.08.77,1.31,1.78,1.08,3.86-.84,7.73-1.63,11.59-2.44a5,5,0,0,1,.65-.13c.34,0,.76-.13.88.36s-.23.6-.59.71a23.45,23.45,0,0,1-4.68,1c-1.69-.38-3.21.26-4.75.79,0,0,0,.25-.06.38l-.78.2c-.79-.77-1.61.25-2.41,0-.36-.41-.65-.45-.85.13Z"/><path class="cls-4" d="M68.34,24.39a14.9,14.9,0,0,1,2.35,4.94c.25,1,.39,2.13,1.89,1.86,3.39.92,6.84,1.63,10.18,2.73,0,.24,0,.48,0,.73C79.18,33.83,75.59,33,72,32.2a2.48,2.48,0,0,1-2.1-1.92C69.38,28.5,68.66,26.77,68,25A.74.74,0,0,0,68.34,24.39Z"/><path class="cls-5" d="M50.27,72.49c-1.42-.74-2.47-2-3.94-2.7-.13-.41-.48-.3-.78-.33a17.69,17.69,0,0,0-9.33,0,8.2,8.2,0,0,1-1.32.11c-.23,0-.48-.07-.6-.32,3.93-1.51,7.91-2.27,12-.53a7.36,7.36,0,0,1,4.15,3.7Z"/><path class="cls-7" d="M45.55,69.46c.3,0,.65-.08.78.33-.06.91.78,1.47.91,2.32.06.4.25.78-.09,1.12s-.76.14-1.1-.06c-4-2.32-8.34-2-12.69-1.37a1.18,1.18,0,0,1-1.09-.15c.51-.71,1.34-.67,2-.76,3.81-.47,7.62-.68,11.21,1.12.24.12.51.25.74,0a.69.69,0,0,0,0-.87A3.34,3.34,0,0,1,45.55,69.46Z"/><path class="cls-8" d="M69.66,48.05a25.64,25.64,0,0,1-.24,4.1,6.42,6.42,0,0,1-3.11,4.7,48.05,48.05,0,0,1-7.93,4c-.33-.36-.59-.34-.77.14l-.28.15c-.19-.34-.55-.24-.84-.33a1.1,1.1,0,0,1,0-.18.57.57,0,0,0,.28-.58h0a4.5,4.5,0,0,0,2.6-.39,44.56,44.56,0,0,0,6.55-3.46,6.83,6.83,0,0,0,2.92-5.78c0-.8,0-1.6,0-2.4,0-.28,0-.55,0-.83s0-.54,0-.81C69.45,46.79,68.79,47.81,69.66,48.05Z"/><path class="cls-9" d="M45.55,27.15c-.47-1.15-.83-2.15.09-3.44.65-.91.09-2.31.14-3.5l0-.05c.9,0,1.11-.88,1.44-1.41a2.51,2.51,0,0,1,2.84-1.21,3,3,0,0,1,2.34,2.14,3.22,3.22,0,0,1,0,2.58A9.63,9.63,0,0,0,52,23.65l-1.1-.24c1.75-2.13,1.35-4.24-.81-5.12a.68.68,0,0,0-1.05,0,3.76,3.76,0,0,0-2.17,2.34,2.2,2.2,0,0,0,.83,3.11l0,.4c-2.12.24-2.12.24-1.89,2.47A.61.61,0,0,1,45.55,27.15Z"/><path class="cls-8" d="M63.28,25.54c.66.44.71,1.21,1,1.85A72.45,72.45,0,0,1,68,39.27c.16.68-.09,1.43.32,2.08a4,4,0,0,1,.15.89c0,1,.81,2.06.12,3.13l-.26,0a11.5,11.5,0,0,0-.2-1.84,71.22,71.22,0,0,0-5.46-17.93Z"/><path class="cls-10" d="M39.56,53.35c2.25,1.06,4.2,2.63,6.39,3.8-.6.63-1.15.15-1.68-.1-2.25-1-4.38-2.34-6.71-3.23a5.77,5.77,0,0,0-1.92-.48,9.23,9.23,0,0,0-3.44-.7c-.38-.62-.18-.85.53-.85,1.46,0,2.76.65,4.15.91C37.78,52.86,38.58,53.47,39.56,53.35Z"/><path class="cls-8" d="M69.37,36.27c-.25-.85,0-1.4.95-1.33a9.83,9.83,0,0,1,2.36.35c5.07,1.72,10.13,3.48,15.19,5.23.33.11.72.16.63.84-1.56-.51-3.12-.93-4.61-1.54q-4.64-1.87-9.4-3.3c-1.15-.34-2.29-.69-3.44-1-.63-.17-1.18-.11-1.19.75Z"/><path class="cls-5" d="M41.26,17.94c-2.65.87-5.4,1.42-8,2.55-.35.16-.79.45-1-.11s.1-.74.53-.92a48.76,48.76,0,0,1,8-2.46c.63-.15.79.22.68.78Z"/><path class="cls-9" d="M69.37,36.27h.49c0,.44,0,.89,0,1.33,0,1.15,0,1.14,1.14.87a1,1,0,0,1,.5.09c1,.31,1.87.45,1.6-1.1-.05-.27,0-.58.38-.58s.38.31.39.59a1.83,1.83,0,0,1,0,.66c-.62,1.81.55,2.19,1.92,2.61a29.84,29.84,0,0,1,4.87,2c-3.81-1.09-7.52-2.47-11.32-3.56l-.06-.48c.24-.64,0-1.3,0-1.94Zm3.84,3.31s-.07,0-.1,0-.12.08,0,.13.07,0,.1,0S73.21,39.61,73.21,39.58Z"/><path class="cls-11" d="M35.62,29.59c2.5-.27,5-.58,7.5-.8.76-.07,1.2-.06.76-1a16.84,16.84,0,0,1-.74-2.54l.33-.21a61.5,61.5,0,0,1,2.9,8l-.33,0c-.94-.68-.87-1.84-1.26-2.77-.32-.76-.66-1.09-1.44-1-1.78.2-3.58.33-5.34.63a14.63,14.63,0,0,1-2.38.15Z"/><path class="cls-12" d="M67.25,62l.27.81A48.88,48.88,0,0,1,59.78,68l-.11-.49A54.22,54.22,0,0,1,67.25,62Z"/><path class="cls-11" d="M45.55,27.15a.61.61,0,0,0,.28-.55c.84.37.64,1.28.94,1.92,1.37,3,3.48,5.64,4.14,9,.14.7.78.92,1.32,1.2l-.26.26h-.54l-.51-.27C49.55,34.63,47.06,31.12,45.55,27.15Z"/><path class="cls-7" d="M66.34,29.12c-.93-1.33-1.1-2.95-1.75-4.39-.84-1.85-1.61-3.74-2.4-5.61h.49a12,12,0,0,1,1.88,3.65c.83,1.95,2,3.81,2.15,6Z"/><path class="cls-13" d="M63.28,25.54l-.62,0a25,25,0,0,1-5.33-.28L57,25c.14-.24.61-.27.46-.67s-.42-.39-.74-.39h-1v-.49a1.77,1.77,0,0,0,2.09-1.68,4.24,4.24,0,0,1,1.39-2.65l.31.32a23.53,23.53,0,0,0-1.17,3.1c-.14.85-.46,1.68.46,2.27a4,4,0,0,0,3.71,0l.43-.27Z"/><path class="cls-5" d="M75.32,29.31c.8.29,1.62-.73,2.41,0a16.9,16.9,0,0,1-3,.83.48.48,0,0,0-.57.19l-1.57.35c-1.26.09-.92-1.1-1.34-1.69a21,21,0,0,1-.92-3.91l.37-.39A1.62,1.62,0,0,1,71,25.8l.21.28c.3,1.05.59,2.11.88,3.16,0,.27-.07.58.37.54L74,29.59l.45-.15Z"/><path class="cls-4" d="M39.92,25.54l-6.5.65c-.48,0-1.08.27-1.13-.47s.52-.59,1-.61l6.65-.31Z"/><path class="cls-9" d="M40.2,45.37c-1,.6-2.08,1.19-3.1,1.81-.71.44-1.2.22-1.73-.34A13,13,0,0,1,34.15,45a.86.86,0,0,1,.2-1.1,5.86,5.86,0,0,1,2.9-1.77,5.05,5.05,0,0,1-1.77,1.57c-.6.45-.89.88-.42,1.53s.71,1.93,2,1.34c1-.43,1.88-1,2.81-1.45Z"/><path class="cls-10" d="M52,38.94l.26-.26a29.36,29.36,0,0,0,3.51,1.74c.21.07.43.18.6,0s0-.38-.11-.57a3,3,0,0,1-.46-2l.48,0a9.3,9.3,0,0,1,.81,4.56.48.48,0,0,0-.53.53c-.64-.2-1.38-.24-1.61-1.06h0c.42-.2,1,.55,1.26-.1.27-.86-.66-.73-1.1-1A11.51,11.51,0,0,1,52,38.94Z"/><path class="cls-14" d="M62.93,24.49l-.43.27c-.62-1.54-1.21-3.09-1.88-4.61-.18-.41-.21-1.32-1.12-.72l-.31-.32a1.29,1.29,0,0,0,.09-1.48c-.13-.24-.46-.6-.08-.81s.62.26.75.54a50.1,50.1,0,0,1,2.48,5.49C62.6,23.4,62.77,23.94,62.93,24.49Z"/><path class="cls-6" d="M39.23,52.24l-.38.35a38.35,38.35,0,0,1-6.53-4.82A38.69,38.69,0,0,1,39.23,52.24Z"/><path class="cls-6" d="M55.71,23.44v.49c-1.17.1-2.33.26-3.5.28S52,24.73,52,25a13.92,13.92,0,0,0-4.27-.9l0-.4,3.2-.32,1.1.24A30.65,30.65,0,0,1,55.71,23.44Z"/><path class="cls-12" d="M69.33,38.73l.06.48c0,1,.55,1.93.28,2.95h-.55l-.38-.78-.93-5.65c.11-.15.22-.29.32-.44l.24.36a.52.52,0,0,0,.2.62l.24.58C69,37.46,68.4,38.3,69.33,38.73Z"/><path class="cls-11" d="M78.12,55a4.27,4.27,0,0,1-2.61-2.51c-.83-1.83,0-3.1,2.2-3.56.09.34-.2.46-.39.6C75.43,51,75.38,51.67,77,53.38c.5.55,1.26.85,1.52,1.62Z"/><path class="cls-8" d="M46,33.06l.33,0a12.52,12.52,0,0,1,1.83,7.52l-.81-.6c.43-2.08-.7-3.88-1-5.82a.57.57,0,0,0-.26-.56Z"/><path class="cls-15" d="M41.24,51c.51-.86,1.48-1,2.24-1.53,1.29-.83,2.38-2,3.86-2.53a1,1,0,0,1,1,0l-6.57,4.28C41.67,51,41.46,51,41.24,51Z"/><path class="cls-6" d="M59.67,67.46l.11.49a24.16,24.16,0,0,1-5.06,3.44l-.35-.33A28.44,28.44,0,0,1,59.67,67.46Z"/><path class="cls-12" d="M86.26,69.18c-1.9-.59-4-.65-5.68-1.84.24,0,.48,0,.6-.3,1.11.07,2.15.88,3.34.29.26-.13.39-.1.31.42-.13.88.87.71,1.42.93Z"/><path class="cls-15" d="M68.84,47.23c0,.28,0,.55,0,.83a25.55,25.55,0,0,1-6.22-2.61.69.69,0,0,1-.46-.59l0,0a4.36,4.36,0,0,1,1.75.54C65.54,46.05,67,47.21,68.84,47.23Z"/><path class="cls-6" d="M82.77,34.65c0-.25,0-.49,0-.73,1.94.55,4,.73,5.82,1.62l-.1.41Z"/><path class="cls-6" d="M68.34,24.39A.74.74,0,0,1,68,25q-1.23-2.52-2.45-5l.33-.33A10,10,0,0,1,68.34,24.39Z"/><path class="cls-13" d="M82.29,54.79C82,55.53,81.17,56,81.12,57c0,.5-.44.38-.68.19-.7-.57-1.65-.88-2-1.83l.1-.09c.21.06.48.05.62.18C80,56.2,80.71,56.66,81,55c.08-.47.56-.49,1-.54Z"/><path class="cls-11" d="M41.26,17.94l.24-.16c.78.51.6,1.44.84,2.15a36.26,36.26,0,0,1,1,4.58l-.5,0Z"/><path class="cls-7" d="M69,21.89a22.54,22.54,0,0,1-2.45-4.33c-.08-.15-.18-.33,0-.47s.39-.1.45.07c.55,1.58,2.07,2.63,2.35,4.36Z"/><path class="cls-9" d="M50.69,52.88a8.71,8.71,0,0,1-4.32,2.7A2,2,0,0,1,44.73,55l.05-.05c1.55.47,2.65-.5,3.83-1.2.57-.33,1.16-.61,1.74-.92Z"/><path class="cls-14" d="M38.3,35.33a3.37,3.37,0,0,1,.67-.81.87.87,0,0,1,1.19.24c.37.42.14.72-.16,1a2.69,2.69,0,0,1-2.19.76l-.3-.28C37.72,35.91,38.46,36,38.3,35.33Z"/><path class="cls-10" d="M50.92,38.67l.51.27c.06,1,.84,1.23,1.56,1.57s1.57.52,1.93,1.38h0a5.54,5.54,0,0,1-3.69-1.72A1,1,0,0,1,50.92,38.67Z"/><path class="cls-15" d="M68.74,41.37l.38.78.54,5.9c-.87-.24-.21-1.26-.83-1.63a.57.57,0,0,1,0-.13.6.6,0,0,0-.27-.68c0-.08,0-.16,0-.24.69-1.07-.17-2.08-.12-3.13a4,4,0,0,0-.15-.89Z"/><path class="cls-15" d="M50.69,52.88l-.34,0a15.24,15.24,0,0,1,4.84-3.2h0A9.51,9.51,0,0,1,50.69,52.88Z"/><path class="cls-12" d="M66.34,29.12l.37-.36a30.19,30.19,0,0,1,1.42,6.5l-.52-.33Z"/><path class="cls-9" d="M76.34,59.56c.2.11.41.19.59.31,1.36.9,1.37.9,1.58-.74,0-.32,0-.71.41-.75s.37.41.37.68c0,.78.22,1.81-.81,2a1.84,1.84,0,0,1-2.13-1.52Z"/><path class="cls-13" d="M54.37,71.06l.35.33a6.88,6.88,0,0,1-2.61,1.92,1,1,0,0,1-1.49-.26l.06-.42c.42.28.72.52,1.3,0A7,7,0,0,1,54.37,71.06Z"/><path class="cls-7" d="M38.85,38.15v.52l-4.21,2-.16-.18A7.51,7.51,0,0,1,38.85,38.15Z"/><path class="cls-12" d="M79.56,52.85a4,4,0,0,0,3.17-.57c.22-.16.52-.26.7,0a.43.43,0,0,1-.25.65c-1.2.28-2.36,1.25-3.63.21C79.55,53.06,79.56,53,79.56,52.85Z"/><path class="cls-6" d="M69,21.89l.37-.37a6.35,6.35,0,0,1,1.33,3.21l-.37.39A9,9,0,0,1,69,21.89Z"/><path class="cls-5" d="M78.51,29.15c0-.13,0-.36.06-.38,1.54-.53,3.06-1.17,4.75-.79A23.3,23.3,0,0,1,78.51,29.15Z"/><path class="cls-6" d="M82.29,54.79,82,54.45c.59-.7,1.52-.87,2.23-1.4a.42.42,0,1,1,.4.71A9.15,9.15,0,0,1,82.29,54.79Z"/><path class="cls-16" d="M37.51,36.27l.3.28c-.88.25-1.74.53-2.63.73-.38.09-.82.1-.88-.49h0c.36,0,.55-.18.55-.54C35.73,36.47,36.62,35.86,37.51,36.27Z"/><path class="cls-7" d="M56.51,60.66a1.1,1.1,0,0,0,0,.18l-1.26,0a1.43,1.43,0,0,1,0-.22c1.1-.35.87-1.75,1.77-2.26l.37.38a1,1,0,0,1-.55,1.33h0C56.54,60.2,56.52,60.42,56.51,60.66Z"/><path class="cls-12" d="M42.88,24.49l.5,0,.09.5-.33.21-3.22.32V24.8Z"/><path class="cls-13" d="M65.92,19.65l-.33.33a3.53,3.53,0,0,1-1.41-2.8A5.81,5.81,0,0,1,65.92,19.65Z"/><path class="cls-7" d="M85.18,59a11.76,11.76,0,0,1,2.47,1.51c.19.17.49.29.26.6s-.47.21-.68,0c-.64-.66-1.55-1-2.08-1.81Z"/><path class="cls-11" d="M45.78,20.21c-1-.74-.9-1.92-1.27-2.92a.48.48,0,0,1,.2-.41.36.36,0,0,1,.48.32c.15,1,.77,1.91.64,3Z"/><path class="cls-13" d="M60.28,45.36c-.54,0-1.13.17-1.59-.28l.27-.27c.57,0,1.16.09,1.08-.78h.49c0,.25.26.65.43.45.72-.81.91-.1,1.21.34l0,0a2.59,2.59,0,0,0-1.31.28A.55.55,0,0,0,60.28,45.36Z"/><path class="cls-8" d="M59,44.81l-.27.27c-1.65-.25-2.11-.71-2.16-2.13a.48.48,0,0,1,.53-.53C56.91,43.84,57.92,44.33,59,44.81Z"/><path class="cls-14" d="M62.68,19.12h-.49c-.1-.09-.23-.16-.27-.27-.25-.64-.81-1.16-.74-1.91,0-.07.25-.19.31-.16.72.39.8,1.2,1.14,1.83A1.22,1.22,0,0,1,62.68,19.12Z"/><path class="cls-15" d="M40.2,45.37l-.3-.3A10.44,10.44,0,0,1,43,43.15,7.61,7.61,0,0,1,40.2,45.37Z"/><path class="cls-10" d="M37.78,41.86c.47-1,1.58-1,2.38-1.52a.28.28,0,0,1,.42.17c0,.14-.13.42-.21.42-1,0-1.57,1.17-2.6,1.21A2.62,2.62,0,0,1,37.78,41.86Z"/><path class="cls-15" d="M88.62,65.31c0,.36-1.54,1.53-1.93,1.46-.2,0-.4-.22-.3-.33A4.87,4.87,0,0,1,88.27,65C88.46,65,88.6,65.1,88.62,65.31Z"/><path class="cls-12" d="M37.51,36.27c-.89-.41-1.78.2-2.67,0h-.53c.93-.64,2.1-.36,3.09-.78a3.76,3.76,0,0,1,.9-.14C38.46,36,37.72,35.91,37.51,36.27Z"/><path class="cls-11" d="M85.45,44.57l3.13,1.2-.13.35a5.65,5.65,0,0,1-3-1.25Z"/><path class="cls-7" d="M86.26,69.18v-.5c.6.11,1.2.2,1.79.32.24,0,.57.15.46.49s-.44.27-.67.2C87.31,69.53,86.7,69.6,86.26,69.18Z"/><path class="cls-11" d="M71.29,29c.42.59.08,1.78,1.34,1.69,0,.16,0,.31,0,.47-1.5.27-1.64-.84-1.89-1.86Z"/><path class="cls-9" d="M41.24,51c.22,0,.43.05.54.27-.51.4-1,.79-.15,1.35a1.07,1.07,0,0,1,.48.75l-.06.07h-.53a2.61,2.61,0,0,0-1-1.08C40.34,51.66,40.74,51.29,41.24,51Z"/><path class="cls-9" d="M85.45,44.57v.3c-1.13.05-2-.58-3-1.33A6.44,6.44,0,0,1,85.45,44.57Z"/><path class="cls-6" d="M32.2,52.64a9.23,9.23,0,0,1,3.44.7v.33C34.46,53.43,33.2,53.47,32.2,52.64Z"/><path class="cls-13" d="M35.62,29.59v.49c-1.09-.1-2.17.6-3.28-.12Z"/><path class="cls-7" d="M34.3,69.2c.12.25.37.27.6.32a3.6,3.6,0,0,1-1.77.54c-.24,0-.56.24-.64-.17s.25-.46.49-.51C33.41,69.28,33.86,69.26,34.3,69.2Z"/><path class="cls-14" d="M86.57,17c.11-.11.14-.17.17-.17a2.24,2.24,0,0,1,1.86,1c0,.06-.09.32-.14.32C87.54,18.24,87.23,17.39,86.57,17Z"/><path class="cls-9" d="M42.3,54.21,42.05,54v-.61l.06-.07c.91.51,2,.74,2.67,1.62l-.05.05h-.79c-.19-.34-.51-.27-.81-.28h0C43.11,54.17,42.69,54.2,42.3,54.21Z"/><path class="cls-14" d="M34.31,40.88c-.72.93-1.38.15-2-.17-.28-.17.11-.43.38-.4a3.78,3.78,0,0,0,1.53.2C34.29,40.63,34.3,40.76,34.31,40.88Z"/><path class="cls-10" d="M43.93,55h.8a2,2,0,0,0,1.64.56c0,.25,0,.51,0,.76A4.31,4.31,0,0,1,43.93,55Z"/><path class="cls-11" d="M85.18,59l0,.29c-.77,0-1.24-.44-1.57-1.36A3,3,0,0,1,85.18,59Z"/><path class="cls-13" d="M79.56,52.85c0,.1,0,.21,0,.31a2.46,2.46,0,0,1-1.6-1.1l.28-.28A3,3,0,0,1,79.56,52.85Z"/><path class="cls-9" d="M76.35,59.55c-.86,0-.81-.9-1.2-1.37a1.3,1.3,0,0,1,1.19,1.38Z"/><path class="cls-8" d="M69.33,38.73c-.93-.43-.31-1.27-.52-1.89l.57-.05C69.28,37.43,69.57,38.09,69.33,38.73Z"/><path class="cls-11" d="M78.23,51.78l-.28.28c-.92-.8-.92-.8-.16-1.62A2,2,0,0,0,78.23,51.78Z"/><path class="cls-10" d="M40.49,52.33a2.61,2.61,0,0,1,1,1.08c-.73.1-1.12-.45-1.6-.82A.62.62,0,0,1,40.49,52.33Z"/><path class="cls-9" d="M82.21,43.33a1.67,1.67,0,0,1-.44.13c-.22,0-.43-.12-.41-.39A.46.46,0,0,1,81.7,43,2.34,2.34,0,0,1,82.21,43.33Z"/><path class="cls-7" d="M67.61,34.93l.52.33v0c-.1.15-.21.29-.32.44A.65.65,0,0,1,67.61,34.93Z"/><path class="cls-11" d="M46.08,33.58a.57.57,0,0,1,.26.56C46,34.05,45.68,34,46.08,33.58Z"/><path class="cls-11" d="M74.2,30.37a.48.48,0,0,1,.57-.19C74.66,30.48,74.55,30.77,74.2,30.37Z"/><path class="cls-12" d="M70.24,45.63c-.31-.12-.32-.37-.26-.65C70.2,45.14,70.46,45.29,70.24,45.63Z"/><path class="cls-15" d="M55.19,49.65c0-.17,0-.36.25-.4,0,0,.15.11.14.15,0,.23-.23.22-.4.25Z"/><path class="cls-6" d="M72.46,29.78c-.44,0-.37-.27-.37-.54C72.33,29.34,72.53,29.47,72.46,29.78Z"/><path class="cls-15" d="M60.28,45.36a.55.55,0,0,1,.56-.22C60.74,45.45,60.66,45.77,60.28,45.36Z"/><path class="cls-16" d="M34.3,36.79c-.14-.07-.37-.12-.39-.21-.06-.29.22-.27.4-.33h0v.55Z"/><path class="cls-7" d="M68.57,36.26a.52.52,0,0,1-.2-.62C68.6,35.79,68.92,35.91,68.57,36.26Z"/><path class="cls-5" d="M57.33,58.76,57,58.39l.29-.5.22.16C57.42,58.29,57.38,58.52,57.33,58.76Z"/><path class="cls-4" d="M81.18,67c-.12.25-.36.28-.6.3C80.64,67,80.91,67,81.18,67Z"/><path class="cls-5" d="M50.68,72.63l-.06.42a.67.67,0,0,1-.35-.56l.15-.12Z"/><path class="cls-13" d="M78.12,55l.37,0a1.89,1.89,0,0,1,.05.23l-.1.09Z"/><path class="cls-9" d="M37.78,41.86a2.62,2.62,0,0,0,0,.28C37.53,42,37.61,42,37.78,41.86Z"/><path class="cls-6" d="M71.21,26.08,71,25.8Z"/><path class="cls-7" d="M34.31,40.88c0-.12,0-.25,0-.37l.21-.06.16.18Z"/><path class="cls-10" d="M55.23,60.86l1.26,0c.29.09.65,0,.84.33-4.13.9-7.45-1.16-10.81-3a1.28,1.28,0,0,1-.58-1l.69.16a.7.7,0,0,0,.47.6c1.39.4,2.57,1.42,4.11,1.39.38,0,.71.05.77.52l-.31.16.58.11h0c.28.4.71.23,1.08.27h0A3.52,3.52,0,0,0,55.23,60.86Z"/><path class="cls-10" d="M57.61,61c.18-.48.44-.5.77-.14Z"/><path class="cls-17" d="M52,59.82c-.06-.47-.39-.53-.77-.52-1.54,0-2.72-1-4.11-1.39a.7.7,0,0,1-.47-.6c1.44.23,2.41-.76,3.47-1.42,2.07-1.28,4.09-2.65,6.1-4a7.12,7.12,0,0,0,2.1-2.38,15.23,15.23,0,0,1-1,8.41l-.29.5c-.9.5-.67,1.9-1.77,2.25-.56-.53-1.25-.18-1.88-.28h0c-.28-.39-.71-.23-1.08-.27h0Z"/><path class="cls-10" d="M42.05,53.42V54c-.28-.12-.57-.23-.53-.62Z"/><path class="cls-10" d="M42.3,54.21c.39,0,.81,0,.83.53Z"/><path class="cls-10" d="M43.13,54.74c.3,0,.62-.06.81.28A.81.81,0,0,1,43.13,54.74Z"/><path class="cls-18" d="M75.32,29.31l-.85.13C74.67,28.86,75,28.9,75.32,29.31Z"/><path class="cls-17" d="M62.17,44.83c-.3-.44-.49-1.15-1.21-.34-.17.2-.38-.2-.43-.45-.37-.9-.22-2-1.06-2.7v-.26c-.55-1-1.41-1.9-1.06-3.2l.27-.23c.89-.19,1.22.28,1.52,1.06s0,1.95.84,2.62c.66,0,.88.44.84,1-.23-.09-.61-.32-.67-.26-.26.28-.11.67-.05,1s.25.29.48.1c.41-.36.63.13.92.25,2.12.87,4,2.29,6.28,2.83a.57.57,0,0,0,0,.13c0,.27,0,.54,0,.81-1.87,0-3.3-1.18-4.92-1.86A4.36,4.36,0,0,0,62.17,44.83Z"/><path class="cls-18" d="M56.51,60.66c0-.24,0-.46.28-.58A.57.57,0,0,1,56.51,60.66Z"/><path class="cls-19" d="M47.72,24.13A13.92,13.92,0,0,1,52,25h0c.26.91,1.12,1.17,1.79,1.65l.31.52c.21.52.42.53.62,0h.75a17.78,17.78,0,0,0,2.67,7.45c-1.15.32-2.59.21-2.88,1.86a.72.72,0,0,0,.48.84l.06.5a3,3,0,0,0,.46,2c.1.19.32.35.11.57s-.39.09-.6,0a29.36,29.36,0,0,1-3.51-1.74c-.54-.28-1.18-.5-1.32-1.2-.66-3.32-2.77-6-4.14-9-.3-.64-.1-1.55-.94-1.92C45.6,24.37,45.6,24.37,47.72,24.13Zm5.05,7.11A11.37,11.37,0,0,0,50,25.9c-.2-.23-.5-.5-.79-.23s.06.54.24.74a15.21,15.21,0,0,1,2.45,4C52.12,30.77,52.18,31.18,52.77,31.24Z"/><path class="cls-17" d="M50.9,23.41l-3.2.32a2.2,2.2,0,0,1-.83-3.11A3.76,3.76,0,0,1,49,18.28c-.18,1.46-.92,2.9-.22,4.42a10.41,10.41,0,0,1,1.27-4.41C52.25,19.17,52.65,21.28,50.9,23.41Z"/><path class="cls-11" d="M50.09,18.29a10.41,10.41,0,0,0-1.27,4.41c-.7-1.52,0-3,.22-4.42A.68.68,0,0,1,50.09,18.29Z"/><path class="cls-19" d="M61.88,42.37c0-.6-.18-1-.84-1a7.58,7.58,0,0,0-1.18-4.83c-1.82-3.16-3.65-6.34-3.68-10.15l.62-1.07h.53a25,25,0,0,0,5.33.28,71.42,71.42,0,0,1,5.46,17.94,11.5,11.5,0,0,1,.2,1.84l-.07.09C65.94,44.81,64,43.42,61.88,42.37Z"/><path class="cls-19" d="M68.58,45.37c0,.08,0,.16,0,.25l-.32-.18.07-.09Z"/><path class="cls-18" d="M73.21,39.58s0,.08,0,.08-.07,0-.1,0-.11-.1,0-.13S73.18,39.57,73.21,39.58Z"/><path class="cls-19" d="M54.92,41.89c-.36-.86-1.2-1-1.93-1.38s-1.5-.59-1.56-1.57H52a11.51,11.51,0,0,0,3.11,1.89c.44.23,1.37.1,1.1,1C56,42.44,55.34,41.69,54.92,41.89Z"/><path class="cls-17" d="M59.5,19.43c.91-.6.94.31,1.12.72.67,1.52,1.26,3.07,1.88,4.61a4,4,0,0,1-3.71,0c-.92-.59-.6-1.42-.46-2.27A23.53,23.53,0,0,1,59.5,19.43Z"/><path class="cls-17" d="M52,25c0-.3-1-.8.23-.82s2.33-.18,3.5-.28h1c.32,0,.62.06.74.39s-.32.43-.46.67l-.23.3h0c-.79-.11-1.08.49-1.44,1l-1.5.13A2.54,2.54,0,0,0,52,25Z"/><path class="cls-7" d="M56.79,25.29,57,25l.31.3Z"/><path class="cls-19" d="M59,44.81c-1-.48-2.05-1-1.9-2.39a9.3,9.3,0,0,0-.81-4.56l1.33,0c.05,1.3.1,2.61,1.61,3.17l.29.28v0c.29.88.06,1.87.57,2.69C60.12,44.9,59.53,44.84,59,44.81Z"/><path class="cls-14" d="M57.58,37.91l-1.33,0-.48,0-.06-.5H56a3.72,3.72,0,0,0,2.67,0v.3l-.27.23Z"/><path class="cls-7" d="M68.25,45.44l.32.18a.58.58,0,0,1,.27.67c-2.28-.54-4.16-2-6.28-2.83-.29-.12-.51-.61-.92-.25-.23.19-.43.19-.48-.1s-.21-.72.05-1c.06-.06.44.17.67.26C64,43.42,65.94,44.81,68.25,45.44Z"/><path class="cls-18" d="M34.29,36.8v-.55h.54C34.84,36.62,34.65,36.79,34.29,36.8Z"/><path class="cls-11" d="M53.31,60.36c.63.1,1.32-.25,1.88.28a1.43,1.43,0,0,0,0,.22A3.52,3.52,0,0,1,53.31,60.36Z"/><path class="cls-8" d="M60,44c-.51-.82-.28-1.81-.57-2.69.84.71.69,1.8,1.06,2.7Z"/><path class="cls-11" d="M52.24,60.09c.37,0,.8-.12,1.08.27C53,60.32,52.52,60.49,52.24,60.09Z"/><path class="cls-11" d="M52,59.82l.27.27L51.67,60Z"/><path class="cls-13" d="M58.68,37.65v-.3c.26-.08.7.08.67-.39,0-.27-.29-.41-.57-.4s-.6,0-.91.06v-.35c.32-.06.74,0,.79-.48a.59.59,0,0,0-.51-.65l0-.51a17.78,17.78,0,0,1-2.67-7.45.78.78,0,0,0,.53-.82h.21c0,3.81,1.86,7,3.68,10.15A7.58,7.58,0,0,1,61,41.33c-.88-.67-.52-1.76-.84-2.62S59.57,37.46,58.68,37.65Z"/><path class="cls-10" d="M57.58,37.91l.83,0c-.35,1.3.51,2.2,1.06,3.2h-.28C57.68,40.52,57.63,39.21,57.58,37.91Z"/><path class="cls-8" d="M59.19,41.08h.28v.28Z"/><path class="cls-10" d="M52.77,31.24c-.59-.06-.65-.47-.83-.81a15.21,15.21,0,0,0-2.45-4c-.18-.2-.6-.42-.24-.74s.59,0,.79.23A11.37,11.37,0,0,1,52.77,31.24Z"/><path class="cls-9" d="M58.11,34.63c0,.17,0,.34,0,.51a2.57,2.57,0,0,0-1.7.76,2,2,0,0,0,1.42.37c0,.12,0,.23,0,.35-.65.46-1.25,0-1.87-.09l-.76,0C55.52,34.84,57,35,58.11,34.63Z"/><path class="cls-4" d="M56,26.36a.78.78,0,0,1-.53.82H54.07l-.31-.52c0-.09.07-.18.1-.26l1.5-.13Z"/><path class="cls-8" d="M53.86,26.41c0,.08-.07.17-.1.26-.67-.48-1.53-.74-1.79-1.65A2.54,2.54,0,0,1,53.86,26.41Z"/><path class="cls-10" d="M55.23,36.49l.76,0v.79h-.29A.72.72,0,0,1,55.23,36.49Z"/><path class="cls-13" d="M54.07,27.19h.62C54.49,27.72,54.28,27.71,54.07,27.19Z"/><path class="cls-7" d="M56,26.36l-.61-.08c.36-.51.65-1.11,1.44-1l-.62,1.07Z"/><path class="cls-17" d="M56,37.32v-.79c.62,0,1.22.55,1.87.09.31,0,.61-.06.91-.06s.56.13.57.4c0,.47-.41.31-.67.39A3.72,3.72,0,0,1,56,37.32Z"/><path class="cls-17" d="M57.87,36.27a2,2,0,0,1-1.42-.37,2.57,2.57,0,0,1,1.7-.76.59.59,0,0,1,.51.65C58.61,36.3,58.19,36.21,57.87,36.27Z"/></g></g></svg>