<svg xmlns="http://www.w3.org/2000/svg" viewBox="0 0 117.99 89.76"><defs><style>.cls-1{fill:#d6d5d8;}.cls-2{fill:#d3d2d8;}.cls-3{fill:#d6d6d6;}.cls-4{fill:#fff;}.cls-5{fill:#fcfcfd;}.cls-6{fill:#adafb5;}.cls-7{fill:#bebec1;}.cls-8{fill:#e9ebef;}.cls-9{fill:#b4b6ba;}.cls-10{fill:#d5d6d6;}.cls-11{fill:#d8d8d9;}.cls-12{fill:#d0cfd1;}.cls-13{fill:#dddede;}.cls-14{fill:#c2c3c7;}.cls-15{fill:#c7c8cc;}.cls-16{fill:#f0f2f5;}.cls-17{fill:#f7f8f9;}.cls-18{fill:#a6a7af;}.cls-19{fill:#d2d4dc;}</style></defs><title>Recurso 8</title><g id="Capa_2" data-name="Capa 2"><g id="Capa_1-2" data-name="Capa 1"><path class="cls-1" d="M106.91.53a7,7,0,0,1,5.84,3.88,10.92,10.92,0,0,1,1.14,5.15c0,22.18-.1,44.35,0,66.53a9,9,0,0,1-9.17,9.1q-47.41-.1-94.82,0c-.54,0-1.08,0-1.61,0v-.76H10.6q46.94,0,93.88,0a8.24,8.24,0,0,0,8.57-8.55q0-33.46,0-66.92a7.77,7.77,0,0,0-2.58-5.79A19.67,19.67,0,0,0,106.89.87Z"/><path class="cls-2" d="M106.91.53l0,.34c-.45,0-.89,0-1.34,0L9.85.81a14.2,14.2,0,0,0-4.21.55V.8A5.25,5.25,0,0,1,8.93,0H69.2c11.48,0,23,0,34.42,0,1,0,1.91.45,2.89.1C106.76,0,106.86.31,106.91.53Z"/><path class="cls-3" d="M5.63.8v.56c-.11.14-.2.33-.34.4C2,3.5.8,6.37.8,10c0,21.84.07,43.68,0,65.52a8.68,8.68,0,0,0,7.54,8.85v.76C5.14,85.29,1.83,82.7.7,79.87a10.67,10.67,0,0,1-.7-4q0-33.48,0-67A8.53,8.53,0,0,1,4.26,1.22,2.45,2.45,0,0,1,5.63.8Z"/><path class="cls-4" d="M81.28,23.09c.29-.06.66.06.75-.36,0-.18-.06-.38-.27-.35s-.42.28-.48.7h-.51l0-.45c-.14-.39-.32-.35-.52,0a6.13,6.13,0,0,1-2.66.15c-.26-.66-.65-.56-1.08-.17H74.32c0-.22-.06-.46-.34-.49s-.43.22-.46.5l-2.39,0c-.18-.36-.51-.32-.83-.33-.79.19-2.14-.53-2.25.71a2,2,0,0,1-1.79,2H64.68c0-.21.41-.49.21-.52a7.91,7.91,0,0,0-2.9.22c-.67.12-.46.66-.58,1a.79.79,0,0,1-.68.55,1.65,1.65,0,0,1-2-1.15c-.36-.78-.73-.85-1.13,0a1.22,1.22,0,0,1-.75-.6c.07-.25.15-.5.22-.75.19-.75,0-1.41-.77-1.58s-1.62-.71-2.11.44l-1.37-.74c.16-2.73.08-2.81-2.63-2.81-1.21,0-2.41,0-3.62,0a4.49,4.49,0,0,0-2,.31,10.39,10.39,0,0,1-3.66,1c-.34,0-.65.1-.65.5,0,1.39-1,1.09-1.81,1.1s-1.66.62-2.43-.12c-.09-.09-.23-.2-.24-.31C35.69,20,34.63,20,33.5,20.17l-.63-.27c-1.15-.25-1.51.23-1.43,1.35s0,2.41,0,3.61c0,.49-.23,1.27.54,1.28.61,0,.71-.7.77-1.23a6.57,6.57,0,0,0,0-1.47,1.82,1.82,0,0,1,.61-1.54l.28.53c-.09,1.18-.08,2.38-.16,3.56s-.33,2.63.43,3.82l-.29.77H32.18c-.76,0-1.14.44-1,1.1.31,1.16-.17,2.34.18,3.52a5.91,5.91,0,0,1,.14,2.2,20.09,20.09,0,0,0-.09,5.14c.08.43.15.83.66.84s.63-.36.69-.81-.21-.88.41-1.2a7.51,7.51,0,0,0,.14.83,6.59,6.59,0,0,0,1.58,3.24c.45.4.9.58.81,1.24-.11.85.31,1.1,1.09,1s1.48,0,1.1,1.15a.51.51,0,0,0,.67.68c1.47-.52,1.52.32,1.43,1.38a.78.78,0,0,0,.33.81l-.36.51c-1.32-.64-2.69-.13-3.86.25-.89.29-.24,1.68-.4,2.57v.13c.1.8-.22,1.18-1.05,1.08s-1.3.25-1,1.14c.2.64,0,.84-.62,1A2.42,2.42,0,0,0,31.5,62c.63,1.39,1.79.59,2.75.36a3.15,3.15,0,0,0,1-.48c.31-.2.61-.59.43-.88-.51-.77-.11-1.54-.16-2.31l.28-.26a19.21,19.21,0,0,1,2.51.15,3.58,3.58,0,0,0,3.94-2.36c.21,0,.4-.05.48-.28l1.1-.17a.72.72,0,0,0,1.06,0,5.92,5.92,0,0,1,2.68,0c0,.27.09.53.44.56s.6-.1.64-.49l1.09-.08a2.21,2.21,0,0,0,2.13.07l5.08.56c0,1.85,0,1.84,1.76,1.58a1.81,1.81,0,0,1,.52,0c.86.15.75-.41.69-.94l.52.09c0,.37-.17.83.32,1.06.32.15.76.24.62.7s-.63.4-1,.42a7.71,7.71,0,0,0-2.25.13c-.35.12-.85.24-.75.77s.51.44.87.44c.71,0,1.43-.05,2.14,0a2,2,0,0,0,2.12-1.45c.16-.36.29-.74.43-1.11.28.08.58.12.74.41-.51,1.93,0,3.13,1.56,3.81.31.14.25.42.35.65.55,1.31-.26,2.6-.05,3.91.09.57,0,1.19.81,1.27l0,1.07c-1,.6-1,1.12,0,2.16l.08,0-.08,3.48c-.64.29-.62.6,0,.78.89.24,1.24-.37,1.52-1.06.36-.9-.17-1.18-.9-1.33v-.53c.77-.25.57-1.08.92-1.59s-.11-.86-.72-.82l.06-1.34c.44,0,.87,0,1.13-.47.4-.81.16-4-.4-4.67a.55.55,0,0,1,0-.22,3,3,0,0,1,2,2.94c-.1.53-.46,1.14.43,1.35l0,1.07a1.43,1.43,0,0,0-1.56,1.47c-.11,1-.35,2.08.5,2.9a.68.68,0,0,0,1.06-.1h.52c.85.5,1.78.13,2.67.2.48,0,.8-.5.81-1.06s0-1.16,0-1.74c0-.85-.34-1.36-1.24-1.4-.34,0-.79.07-.86-.42-.13-.92-.22-1.85-.3-2.77,0-.34.13-.71.46-.73a19.86,19.86,0,0,1,2.41-.46c1.39.11,2.76,0,4.14.08.39.67.17,1.42.28,2.12-.48.37-.23.5.18.57l0,.54c-.82.06-.8.65-.82,1.26-.06,1.65.65,3.28.2,5-.13.51-.33,1.06.33,1.2s1.55.42,2-.29c.29-.51.63-1.36-.37-1.76l-.24,0L80.21,73v-.53l.06-2.82c.17,0,.36-.06.35-.27s-.2-.24-.36-.28l-.1,0,0-1.61c.48,0,.9-.17.85-.73s-.27-.92-.89-.89a2.72,2.72,0,0,1,0-1.33c1.07-.34,1-.8.14-1.34a9.37,9.37,0,0,1,.52-2.68c.72-.16,2.06.39,2-.53a14.79,14.79,0,0,1,.69-3.28.3.3,0,0,1,.22-.06c.15.31.3.68.72.54s.4-.58.41-1a16.48,16.48,0,0,1,3.71-.34c.4.51.5.2.57-.21-.24-1-1.12-.23-1.6-.56,0-.6.18-1.37-.63-1.58a6.91,6.91,0,0,0-4.79.08c-1.07.53-1.15.2-1.42-.59-.35-1,.08-1.92.2-2.87a.41.41,0,0,1,.51-.33c.65.14,1-.44,1.58-.56a36.78,36.78,0,0,0,5,.27c.3,0,.89.2.59-.53.1-.93-.25-1.44-1.27-1.35a3.64,3.64,0,0,1-1.3-.17,3.55,3.55,0,0,0-3,.46c-.81.65-1.23.39-1.8-.06-.28-.21-.51-.5-.9-.49v-.53c.77-1.49,2-1.74,3.51-1.37.15,0,.34-.07.52-.11a5,5,0,0,1,2.63,0c1.17.37,1.78,0,1.9-1.21.73-.2.51-.56,0-.7a1.75,1.75,0,0,0-1.64.13h-4A5.27,5.27,0,0,1,86.52,39a16.61,16.61,0,0,1,2.22-.38c.3,0,.54-.12.5-.48s-.28-.57-.53-.48c-1.62.55-3.58.35-4.71,2a11.43,11.43,0,0,0-1.66,3.17c-.08.29-.19.61-.67.46-.1-.47.2-.92.3-1.31.44-1.81.45-3.68,1-5.47,1.64.15,3.19-.41,4.79-.59.58.38,1.05.05,1.51-.24a.42.42,0,0,0-.06-.35,1.3,1.3,0,0,0-1.47.13,15.75,15.75,0,0,0-2.66.23c-.28-.32-.54-.33-.79,0-.48-.09-1.06.19-1.43-.33.5-.82.38-2.18,1.88-2.12,1.32,0,1.93-.54,2.14-1.94a11.37,11.37,0,0,0-.19-5.82c.4-1.25-.22-1.44-1.29-1.35-3.07.25-2.49,0-2.2,2.05a.93.93,0,0,0,.91.93.9.9,0,0,1,.85,1c-.79-.29-1.68-1.4-2,.28-.76.4-2.5,3.52-2.4,4.32a1,1,0,0,0,.17.49c.65.71.25,1.3-.18,1.89a2.32,2.32,0,0,0-1.6,0l-.54-.27V33c1.7-.18.51-1.44.8-2.14a.57.57,0,0,0-.54-.27c0-.29.05-.61-.27-.8-.1-1.07.26-2.18-.27-3.21.38-.12.61-.67,1.16-.37s.9.64,1.3.1a1.2,1.2,0,0,0-.11-1.66l.38-.75C81.31,23.83,81.28,23.44,81.28,23.09ZM117.19,82c-.25.62-.55,1.22-.75,1.85a8.11,8.11,0,0,1-7.27,5.11H13.43a9.82,9.82,0,0,1-4-.92C8,87.36,7.12,86,5.91,85a1.81,1.81,0,0,0,.45,2,9.22,9.22,0,0,0,3.43,2.25,6.33,6.33,0,0,0,2.73.52q48.54,0,97.08,0A8.53,8.53,0,0,0,118,82V13.44a8.7,8.7,0,0,0-8.82-9.13q-48.21.08-96.42,0A9.52,9.52,0,0,0,7.08,6.43a2.14,2.14,0,0,0-1,2.71c2.14-3.29,5.29-4,8.94-4q46.8.08,93.61,0a8.5,8.5,0,0,1,8.58,8.33Q117.2,47.7,117.19,82ZM60.3,64.39c0-.27.21-.7-.26-.72-.3,0-.39.3-.43.58,0,.49-.09,1-.17,1.45-.3,2-.64,3.93-.9,5.9,0,.37-.3,1.05.32,1.11s.39-.58.47-1A49.44,49.44,0,0,0,60.3,64.39ZM39.18,62.9a82.51,82.51,0,0,0-.74,9c0,.27,0,.6.36.61s.42-.4.41-.69c-.13-2.44.26-4.86.26-7.3A2.23,2.23,0,0,0,39.18,62.9Zm41.5-34.17.29.38c.08-.06.22-.11.25-.2s0-.35-.22-.34S80.79,28.67,80.68,28.73Z"/><path class="cls-5" d="M40.36,51.74a.78.78,0,0,1-.33-.81c.09-1.06,0-1.9-1.43-1.38a.51.51,0,0,1-.67-.68c.38-1.14-.31-1.21-1.1-1.15s-1.2-.2-1.09-1c.09-.66-.36-.84-.81-1.24a6.59,6.59,0,0,1-1.58-3.24,7.51,7.51,0,0,1-.14-.83c-.62.32-.36.82-.41,1.2s-.19.83-.69.81-.58-.41-.66-.84a20.09,20.09,0,0,1,.09-5.14,5.91,5.91,0,0,0-.14-2.2c-.35-1.18.13-2.36-.18-3.52-.18-.66.2-1.11,1-1.1h1.47a15.24,15.24,0,0,0,0,9.42c2.31,6.64,7.62,10.42,14.64,10,5-.27,8.72-2.94,11.31-7.2,2.25.06,4.46.64,6.73.58h0c0,.67.51.8,1,.85l.6.48a29.06,29.06,0,0,0,1,8,2.11,2.11,0,0,0-1.23,1.46,10,10,0,0,0-.2,4.22c.18,1.48,1.06,3-.19,4.4-.63-3.3-2.28-5.94-5.66-6.72-7.33-1.67-14.73-2.29-22.12-.22-.6-.38-1.1.86-1.72.09a.72.72,0,0,0,.12-.21,19,19,0,0,0,3.49-4.44C40.81,51.16,40.68,51.65,40.36,51.74Z"/><path class="cls-6" d="M59.56,42.85c-2.59,4.26-6.28,6.93-11.31,7.2-7,.37-12.33-3.41-14.64-10a15.24,15.24,0,0,1,0-9.42c.1-.26.19-.52.29-.77.43-1.35,1.6-2.34,1.81-3.79H36c.46.18.49-.29.66-.48a14.62,14.62,0,0,1,5.65-3.87,14.92,14.92,0,0,1,10.55.19l1.37.74,2.66,1.89a1.22,1.22,0,0,0,.75.6,16.94,16.94,0,0,1,3.85,11.62l-.06.76a27,27,0,0,1-1.53,4.87A.56.56,0,0,0,59.56,42.85ZM41.9,48c.57.09,1,.67,1.61.56l.79.26a9.12,9.12,0,0,0,3.8.44,13.37,13.37,0,0,0,11.15-7.84A14,14,0,0,0,53,23,13.41,13.41,0,0,0,33.9,35.93a16.19,16.19,0,0,0,.57,3.73A12.62,12.62,0,0,0,41.9,48Z"/><path class="cls-5" d="M61.47,36.72A16.94,16.94,0,0,0,57.62,25.1c.4-.82.77-.75,1.13,0a1.65,1.65,0,0,0,2,1.15.79.79,0,0,0,.68-.55c.12-.38-.09-.92.58-1a7.91,7.91,0,0,1,2.9-.22c.2,0-.18.31-.21.52A2.25,2.25,0,0,0,63,27.64c.09.92,0,1.86,0,2.8,0,1.92.19,2.17,2,2.62a13.87,13.87,0,0,0,1.44.21,3.75,3.75,0,0,0,0,.67c.2,1.11-.15,1.48-1.33,1.23a6.67,6.67,0,0,0-3.05-.1c1.07.37,2.18.59,3.27.86.52.13,1.2,0,1.37.8,0,1.14.11,2.29.19,3.43s.85,2.33.33,3.56a1.75,1.75,0,0,0-1.06-.3h0a6.39,6.39,0,0,0-.8-3.76C64.85,37.54,64.06,37,61.47,36.72Z"/><path class="cls-5" d="M78.93,64.83c-1.38,0-2.75,0-4.14-.08a19.86,19.86,0,0,0-2.41.46c-.33,0-.49.39-.46.73.08.92.17,1.85.3,2.77.07.49.52.4.86.42.9,0,1.26.55,1.24,1.4,0,.58,0,1.16,0,1.74s-.33,1.09-.81,1.06c-.89-.07-1.82.3-2.67-.2.72-2.26-.13-4.52.23-7-.71.66-.24,1.34-.73,1.71-.89-.21-.53-.82-.43-1.35a3,3,0,0,0-2-2.94c.26-1.84.49-2.08,1.5-1.55a8.85,8.85,0,0,0,6.63.79c.8-.21,1.4-1.08,2.1-1,.93.15.14,1.5.92,2Z"/><path class="cls-5" d="M82.9,49.31c-.55.12-.93.7-1.58.56a.41.41,0,0,0-.51.33c-.12.95-.55,1.87-.2,2.87.27.79.35,1.12,1.42.59a6.91,6.91,0,0,1,4.79-.08c.81.21.6,1,.63,1.58l-2.14.09a5,5,0,0,0-4.85,3.09,10.48,10.48,0,0,0-1,4.37c-1.09-.55-.53-1.49-.46-2.26s.53-1.65.23-2.53c.83-1.54.44-3.06-.08-4.57a22.88,22.88,0,0,0,1.12-5.91c.39,0,.62.28.9.49.57.45,1,.71,1.8.06a3.55,3.55,0,0,1,3-.46,3.64,3.64,0,0,0,1.3.17c1-.09,1.37.42,1.27,1.35-1.82,0-3.6-.4-5.43-.29C82.36,48.81,82.66,49,82.9,49.31Z"/><path class="cls-6" d="M39.54,55.92c7.39-2.07,14.79-1.45,22.12.22,3.38.78,5,3.42,5.66,6.72,0,.31-.06.67.25.91l-.44,5.09-.06,1.34c-.31.31-.17.72-.23,1.09l-.55,0-.08,0,0-2.16,0-1.07a9.57,9.57,0,0,0,.19-4,7.94,7.94,0,0,0-2.86-5.66c-.16-.29-.46-.33-.74-.41a4.16,4.16,0,0,0-2.47-1L59.87,57a15,15,0,0,0-3-.64l-5.08-.56a2.13,2.13,0,0,0-2.13-.07l-1.09.08c-.36,0-.7-.31-1.08-.07a5.92,5.92,0,0,0-2.68,0,.66.66,0,0,0-1.06,0l-1.1.18c-.18-.23-.35-.2-.5,0l-2.06.36C39.88,56.27,39.58,56.28,39.54,55.92Z"/><path class="cls-5" d="M79.14,30.84c-.29.7.9,2-.8,2.14.1-.87-.14-1.19-1.16-1.41-1.77-.37-3.44.23-5.15.08-.44,0-.87.15-.87.62,0,.95-.32,1.94.2,2.85v2.16c0,.38,0,.78.53.79v.8c-1.08.59-.27,1.63-.57,2.41-.64-.53-1.24-1.43-2.11-.28-.68,0-.81.52-.83,1.08h-.51c-.14-2-.69-3.9-.57-5.9a7.75,7.75,0,0,1-.19-2.67c1.07.17.73,1.51,1.56,1.87l-.26.81a1.21,1.21,0,0,0,2.4.27c.2-.88-.6-1-1.07-1.34.12-.45.85-.51.77-1a12.4,12.4,0,0,0-.75-3.3,3.05,3.05,0,0,1,1.6-4.26c0,.84,0,1.69,0,2.53s.24,1.28,1.19,1.23c1.56-.06,3.11,0,4.67,0v.37H71v.43c1.7,0,3.4,0,5.1,0C77.13,31.07,78.17,31.35,79.14,30.84Z"/><path class="cls-5" d="M52.84,21.87a14.92,14.92,0,0,0-10.55-.19,14.62,14.62,0,0,0-5.65,3.87c-.17.19-.2.66-.66.48a11.6,11.6,0,0,0-2.48-5.85c1.13-.14,2.19-.15,2.34,1.39,0,.11.15.22.24.31.77.74,1.62.13,2.43.12s1.81.29,1.81-1.1c0-.4.31-.48.65-.5a10.39,10.39,0,0,0,3.66-1,4.49,4.49,0,0,1,2-.31c1.21,0,2.41,0,3.62,0C52.92,19.06,53,19.14,52.84,21.87Z"/><path class="cls-5" d="M66.26,25a2,2,0,0,0,1.79-2c.11-1.24,1.46-.52,2.25-.71v.56c-.44,0-.91,0-1,.58-.08.39,0,.7.49.74l.26.28c0,.35.23.49.55.52v.27l-.35.13.35.14c0,.47.06,1.08-.74.93-1.74-.35-2.37.25-2.06,2,.12.66,0,1.15-.7,1.32a2.58,2.58,0,0,0-.78-2.06,21.94,21.94,0,0,0,.24,5c-1.55,0-2.85-.57-2.89-1.52a15.26,15.26,0,0,1,.16-4.1c.19-.8.48-1.29,1.36-1.33C65.64,25.71,66.15,25.63,66.26,25Z"/><path class="cls-5" d="M35.47,58.68c.05.77-.35,1.54.16,2.31.18.29-.12.68-.43.88a3.15,3.15,0,0,1-1,.48c-1,.23-2.12,1-2.75-.36a2.42,2.42,0,0,1,1.56-3.55c.6-.18.82-.38.62-1-.29-.89.14-1.25,1-1.14s1.15-.28,1.05-1.08v-.13c.16-.89-.49-2.28.4-2.57,1.17-.38,2.54-.89,3.86-.25-.72,1.13-1.91,1.9-2.45,3.17-.92.62-1.2,1.8-2.12,2.43-1.68,1-2.75,2.91-2.38,4.47C33.64,60.88,34.18,59.51,35.47,58.68Z"/><path class="cls-5" d="M80.48,35.13c.43-.59.83-1.18.18-1.89a1,1,0,0,1-.17-.49c-.1-.8,1.64-3.92,2.4-4.32l0,0-.57,6.4-.24,1.58c-.12,1.7-.61,3.36-.58,5.08-.31-.11-.41-.42-.61-.64a1.35,1.35,0,0,0-2.34.64c-.66-.09-.49-.61-.5-1,0-1.18,0-2.35,0-3.52h.54c.29.48.7.83,1.27.66a1.28,1.28,0,0,0,.86-1.45Z"/><path class="cls-5" d="M82.89,28.43c.34-1.68,1.23-.57,2-.28a.9.9,0,0,0-.85-1,.93.93,0,0,1-.91-.93c-.29-2.06-.87-1.8,2.2-2.05,1.07-.09,1.69.1,1.29,1.35-.89-.26-1.76-.77-3.07-.19,1.21.33,2.47.16,2.65,1.14a9.19,9.19,0,0,1-.28,5.37,1.71,1.71,0,0,1-2.06.87c-.85-.25-.42-1.05-.44-1.6a13.07,13.07,0,0,1,.24-1.84c.06-.54-.13-.87-.75-.77Z"/><path class="cls-7" d="M67.57,63.77c-.31-.24-.21-.6-.25-.91,1.25-1.41.37-2.92.19-4.4a10,10,0,0,1,.2-4.22,2.11,2.11,0,0,1,1.23-1.46c.2-.06.43-.21.58-.15s0,.27,0,.41a2.09,2.09,0,0,0-1.09,1.29,10.29,10.29,0,0,0,.17,5.53A2,2,0,0,0,69.25,61a8.14,8.14,0,0,0,6.79.91c2-.51,2.43-2.16,2.67-3.9a2,2,0,0,1,.14-.38l.33.32c.3.88-.16,1.69-.23,2.53s-.63,1.71.46,2.26c-.07.37.22.87-.39,1-.78-.47,0-1.82-.92-2-.7-.12-1.3.75-2.1,1A8.85,8.85,0,0,1,69.37,62c-1-.53-1.24-.29-1.5,1.55a.55.55,0,0,0,0,.22Z"/><path class="cls-8" d="M79.14,30.84c-1,.51-2,.23-3,.26-1.7,0-3.4,0-5.1,0v-.43h6.21v-.37c-1.56,0-3.11,0-4.67,0-1,.05-1.26-.32-1.19-1.23s0-1.69,0-2.53h.8v.25a5.48,5.48,0,0,0-.27,2.09c.11,1.13,1,.93,1.62.81.91-.16.11-.62,0-.95-.09-.56-.21-1.12-.32-1.69a1.9,1.9,0,0,1,2.39-.28c.26.64.72,1.2.55,2-.08.34-.53.89.31,1,.68.09,1.14-.15,1.25-.85a1.61,1.61,0,0,0-1.3-2.09v-.28l1.6,0c.53,1,.17,2.14.27,3.21-.43.44-.31.7.27.8A.57.57,0,0,1,79.14,30.84Zm-4.21-1.93c.24-.18.66-.32.62-.8s-.34-.46-.67-.46-.57.3-.56.69S74.42,28.94,74.93,28.91Z"/><path class="cls-9" d="M79,63.75c.61-.17.32-.67.39-1a10.48,10.48,0,0,1,1-4.37,5,5,0,0,1,4.85-3.09l2.14-.09c.48.33,1.36-.46,1.6.56l-.57.21a16.48,16.48,0,0,0-3.71.34,1.16,1.16,0,0,0-1.13.42.3.3,0,0,0-.22.06c-2,.52-2.22,2.25-2.71,3.81a9.37,9.37,0,0,0-.52,2.68,1.74,1.74,0,0,0-.14,1.34,2.72,2.72,0,0,0,0,1.33,3,3,0,0,0,0,1.62c0,.54,0,1.07,0,1.61h-.51c-.31-.31-.16-.72-.24-1.08l0-.54a.57.57,0,0,0-.18-.57c-.11-.7.11-1.45-.28-2.12Z"/><path class="cls-5" d="M88.78,44.23c-.12,1.21-.73,1.58-1.9,1.21a5,5,0,0,0-2.63,0c-.18,0-.37.15-.52.11-1.5-.37-2.74-.12-3.51,1.37l-.06-1.65c0-.42.53-.37.62-.75a6,6,0,0,0-2.71.27l-2.43,0a5.67,5.67,0,0,0,2.71-2.9C79,43.38,80,43.16,81,43.16c-.16,1.16.56,1.14,1.37,1h4.75Z"/><path class="cls-10" d="M82.93,28.47c.62-.1.81.23.75.77a13.07,13.07,0,0,0-.24,1.84c0,.55-.41,1.35.44,1.6a1.71,1.71,0,0,0,2.06-.87,9.19,9.19,0,0,0,.28-5.37c-.18-1-1.44-.81-2.65-1.14,1.31-.58,2.18-.07,3.07.19a11.37,11.37,0,0,1,.19,5.82c-.21,1.4-.82,2-2.14,1.94-1.5-.06-1.38,1.3-1.88,2.12l-.45-.5Z"/><path class="cls-11" d="M82.39,44.18c-.81.12-1.53.14-1.37-1h0c.33-.19.27-.5.27-.8l.26-.83c0-1.72.46-3.38.58-5.08l.8,0c-.5,1.79-.51,3.66-1,5.47-.1.39-.4.84-.3,1.31.48.15.59-.17.67-.46A11.43,11.43,0,0,1,84,39.64c1.13-1.67,3.09-1.47,4.71-2,.25-.09.49.19.53.48s-.2.44-.5.48a16.61,16.61,0,0,0-2.22.38,5.27,5.27,0,0,0-3.33,4.69C82.87,43.74,82.39,43.59,82.39,44.18Z"/><path class="cls-5" d="M63.6,58.42a7.94,7.94,0,0,1,2.86,5.66,9.57,9.57,0,0,1-.19,4c-.82-.08-.72-.7-.81-1.27-.21-1.31.6-2.6.05-3.91-.1-.23,0-.51-.35-.65C63.58,61.55,63.09,60.35,63.6,58.42Z"/><path class="cls-8" d="M78.61,37h-.8c.28-1.15-.55-1.34-1.35-1.57V35.1c.11-.07.22-.21.32-.2,1.13.1,1-.67,1-1.39s-.21-1.2-1.21-1.22-1.84-.09-2.76-.1c-2,0-2.45.65-1.64,2.7-.22.28-.53.22-.83.23-.52-.91-.2-1.9-.2-2.85,0-.47.43-.65.87-.62,1.71.15,3.38-.45,5.15-.08,1,.22,1.26.54,1.16,1.41v1.88c-.14.48-.7,1,.26,1.33Z"/><path class="cls-5" d="M79.42,68.06c.08.36-.07.77.24,1.08a6.42,6.42,0,0,0,.56,3.34V74c.08.32-.19.8.39.93a3.58,3.58,0,0,0,.14-1.47c1,.4.66,1.25.37,1.76-.42.71-1.31.43-2,.29s-.46-.69-.33-1.2c.45-1.67-.26-3.3-.2-5C78.62,68.71,78.6,68.12,79.42,68.06Z"/><path class="cls-5" d="M60.39,57a4.16,4.16,0,0,1,2.47,1c-.14.37-.27.75-.43,1.11a2,2,0,0,1-2.12,1.45c-.71-.06-1.43,0-2.14,0-.36,0-.78,0-.87-.44s.4-.65.75-.77a7.71,7.71,0,0,1,2.25-.13c.4,0,.88.05,1-.42s-.3-.55-.62-.7C60.22,57.87,60.44,57.41,60.39,57Z"/><path class="cls-5" d="M35.75,26c-.21,1.45-1.38,2.44-1.81,3.79-.76-1.19-.5-2.62-.43-3.82s.07-2.38.16-3.56c.57.21.67.78.93,1.23C35,24.42,35.07,25.38,35.75,26Z"/><path class="cls-12" d="M69.76,24.15c-.48,0-.57-.35-.49-.74.12-.58.59-.56,1-.58s.6,0,.83-.23l2.39-.05h2.94c.31.34.7.22,1.08.17a6,6,0,0,0,2.66-.16l.52.05c0,.15,0,.3,0,.45s0,.54,0,.81-.26.5-.38.75a15.15,15.15,0,0,1-3.15.37l-.8-.05v-.32c1-.51,2.14,0,3.12-.49.23-.13.53-.19.5-.52s-.32-.25-.53-.28a36.94,36.94,0,0,0-9.16,0c-.56.06-.64.37-.62.82Z"/><path class="cls-5" d="M33.39,21.9a1.82,1.82,0,0,0-.61,1.54,6.57,6.57,0,0,1,0,1.47c-.06.53-.16,1.24-.77,1.23-.77,0-.53-.79-.54-1.28,0-1.2.05-2.41,0-3.61s.28-1.6,1.43-1.35C32.56,20.69,33.11,21.26,33.39,21.9Z"/><path class="cls-5" d="M40.12,56.34,42.18,56c0,.07,0,.15,0,.23a3.58,3.58,0,0,1-3.94,2.36,19.21,19.21,0,0,0-2.51-.15c0-.08,0-.16,0-.24.55-.5,1.4-.45,1.89-1A3.77,3.77,0,0,0,40.12,56.34Z"/><path class="cls-10" d="M66.26,25c-.11.64-.62.72-1.1.74-.88,0-1.17.53-1.36,1.33a15.26,15.26,0,0,0-.16,4.1c0,.95,1.34,1.56,2.89,1.52,0,.2,0,.4,0,.59a13.87,13.87,0,0,1-1.44-.21c-1.86-.45-2-.7-2-2.62,0-.94.08-1.88,0-2.8A2.25,2.25,0,0,1,64.68,25Z"/><path class="cls-13" d="M60.3,64.39a49.44,49.44,0,0,1-1,7.36c-.08.38,0,1-.47,1s-.37-.74-.32-1.11c.26-2,.6-3.93.9-5.9.08-.48.12-1,.17-1.45,0-.28.13-.6.43-.58C60.51,63.69,60.32,64.12,60.3,64.39Z"/><path class="cls-11" d="M39.18,62.9a2.23,2.23,0,0,1,.29,1.62c0,2.44-.39,4.86-.26,7.3,0,.29,0,.7-.41.69s-.36-.34-.36-.61A82.51,82.51,0,0,1,39.18,62.9Z"/><path class="cls-5" d="M70.31,73.13a.68.68,0,0,1-1.06.1c-.85-.82-.61-1.92-.5-2.9a1.43,1.43,0,0,1,1.56-1.47Z"/><path class="cls-5" d="M77.26,25a15.15,15.15,0,0,0,3.15-.37,1.2,1.2,0,0,1,.11,1.66c-.4.54-.9.11-1.3-.1s-.78.25-1.16.37l-1.6,0C76.2,25.75,77.5,25.77,77.26,25Z"/><path class="cls-7" d="M33.39,21.9c-.28-.64-.83-1.21-.52-2l.63.27A11.67,11.67,0,0,1,36,26h-.23c-.68-.64-.71-1.6-1.15-2.36-.26-.45-.36-1-.93-1.23Z"/><path class="cls-5" d="M80.71,60.56c.49-1.56.74-3.29,2.71-3.81A14.79,14.79,0,0,0,82.73,60C82.77,61,81.43,60.4,80.71,60.56Z"/><path class="cls-5" d="M67.57,63.77l.29-.05c.56.66.8,3.86.4,4.67-.26.51-.69.46-1.13.47C67.28,67.16,67.42,65.47,67.57,63.77Z"/><path class="cls-13" d="M80.16,45.26l.06,1.65v.53a23.29,23.29,0,0,1-1.11,5.91l-.51-.28a30.13,30.13,0,0,0,1.05-7.73Z"/><path class="cls-13" d="M70.31,73.13V68.86c0-.35,0-.71,0-1.07.49-.37,0-1.05.73-1.71-.36,2.53.49,4.79-.23,7Z"/><path class="cls-5" d="M56.87,24.5l-2.66-1.89c.49-1.15,1.41-.6,2.11-.44s1,.83.77,1.58C57,24,56.94,24.25,56.87,24.5Z"/><path class="cls-7" d="M37.55,55.42c.54-1.27,1.73-2,2.45-3.17l.36-.51c.32-.09.45-.58,1.07-.38a19,19,0,0,1-3.49,4.44Z"/><path class="cls-14" d="M82.92,36.49l-.8,0,.24-1.58.45.5c.37.52,1,.24,1.43.33.28.29.54.29.79,0a15.75,15.75,0,0,1,2.66-.23c0,.15,0,.31,0,.46C86.11,36.08,84.56,36.64,82.92,36.49Z"/><path class="cls-5" d="M56.9,56.32a15,15,0,0,1,3,.64c.06.52.17,1.08-.69.93a1.81,1.81,0,0,0-.52,0C56.92,58.16,56.92,58.17,56.9,56.32Z"/><path class="cls-11" d="M82.9,49.31c-.24-.29-.54-.5.19-.55,1.83-.11,3.61.33,5.43.29.3.73-.29.51-.59.53A36.78,36.78,0,0,1,82.9,49.31Z"/><path class="cls-15" d="M35.77,58.18c0,.08,0,.16,0,.24l-.28.26c-1.29.83-1.83,2.2-2.42,3.64-.37-1.56.7-3.49,2.38-4.47Z"/><path class="cls-5" d="M66.86,73.14c.73.15,1.26.43.9,1.33-.28.69-.63,1.3-1.52,1.06-.65-.18-.67-.49,0-.78C67.34,74.58,66.52,73.63,66.86,73.14Z"/><path class="cls-16" d="M80.48,35.13c.09.36.17.72.26,1.08-1.24,1.13-1.27,1.12-1.77-.46,0,0-.07-.06-.1-.09v-.53A2.32,2.32,0,0,1,80.48,35.13Z"/><path class="cls-7" d="M82.39,44.18c0-.59.48-.44.8-.53h4c0,.17,0,.34,0,.51Z"/><path class="cls-15" d="M66.86,73.14c-.34.49.48,1.44-.65,1.61,0-1.16.05-2.32.08-3.48l.55,0,0,1.32Z"/><path class="cls-5" d="M66.87,72.61l0-1.32c.06-.37-.08-.78.23-1.09.61,0,1.07.3.72.82S67.64,72.36,66.87,72.61Z"/><path class="cls-11" d="M87.14,44.17c0-.17,0-.34,0-.51a1.75,1.75,0,0,1,1.64-.13c.47.14.69.5,0,.7Z"/><path class="cls-5" d="M80.12,67.53a3,3,0,0,1,0-1.62c.62,0,.84.4.89.89S80.6,67.51,80.12,67.53Z"/><path class="cls-14" d="M80.22,72.48a6.42,6.42,0,0,1-.56-3.34h.51l.09,0c0,.19,0,.37,0,.55Z"/><path class="cls-5" d="M66.24,69.13l0,2.16C65.24,70.25,65.25,69.73,66.24,69.13Z"/><path class="cls-13" d="M87.71,35.9c0-.15,0-.31,0-.46a1.3,1.3,0,0,1,1.47-.13.42.42,0,0,1,.06.35C88.76,36,88.29,36.28,87.71,35.9Z"/><path class="cls-7" d="M49.69,55.69a2.13,2.13,0,0,1,2.13.07A2.21,2.21,0,0,1,49.69,55.69Z"/><path class="cls-5" d="M80.05,64.58a1.74,1.74,0,0,1,.14-1.34C81,63.78,81.12,64.24,80.05,64.58Z"/><path class="cls-5" d="M83.64,56.69a1.16,1.16,0,0,1,1.13-.42c0,.38,0,.81-.41,1S83.79,57,83.64,56.69Z"/><path class="cls-5" d="M78.88,35.13v.53l-.27.53c-1-.28-.4-.85-.26-1.33Z"/><path class="cls-10" d="M80.73,73.42a3.58,3.58,0,0,1-.14,1.47c-.58-.13-.31-.61-.39-.93.23-.12.26-.34.29-.57Z"/><path class="cls-5" d="M47.52,55.7c.38-.24.72,0,1.08.07,0,.39-.27.52-.64.49S47.55,56,47.52,55.7Z"/><path class="cls-7" d="M43.78,55.76a.66.66,0,0,1,1.06,0A.72.72,0,0,1,43.78,55.76Z"/><path class="cls-5" d="M81.28,23.09c.06-.43.18-.67.48-.71s.31.17.27.35C81.94,23.15,81.57,23,81.28,23.09Z"/><path class="cls-17" d="M77.54,22.73c-.38.05-.77.17-1.08-.17C76.89,22.17,77.28,22.07,77.54,22.73Z"/><path class="cls-5" d="M80.79,23.88c0-.27,0-.54,0-.81h.51C81.28,23.44,81.31,23.83,80.79,23.88Z"/><path class="cls-10" d="M85,35.67c-.25.32-.51.32-.79,0C84.49,35.34,84.75,35.35,85,35.67Z"/><path class="cls-17" d="M71.13,22.6c-.23.27-.53.22-.83.23v-.56C70.62,22.28,71,22.24,71.13,22.6Z"/><path class="cls-5" d="M74.32,22.55h-.8c0-.27.09-.54.46-.49S74.28,22.33,74.32,22.55Z"/><path class="cls-5" d="M80.68,28.73c.11-.06.21-.16.32-.16s.27.18.22.34-.17.14-.25.2Z"/><path class="cls-5" d="M78.6,30.57c-.58-.1-.7-.36-.27-.8C78.65,30,78.59,30.28,78.6,30.57Z"/><path class="cls-7" d="M42.2,56.21c0-.08,0-.16,0-.23.15-.24.32-.27.5,0C42.6,56.16,42.41,56.2,42.2,56.21Z"/><path class="cls-5" d="M79.21,67a.57.57,0,0,1,.18.57C79,67.45,78.73,67.32,79.21,67Z"/><path class="cls-5" d="M80.28,69.66c0-.18,0-.36,0-.55.17,0,.37.07.37.28S80.45,69.63,80.28,69.66Z"/><path class="cls-5" d="M88.48,55.93l.57-.21C89,56.13,88.88,56.44,88.48,55.93Z"/><path class="cls-14" d="M80.49,73.39c0,.23-.06.45-.29.57,0-.32,0-.64,0-.95Z"/><path class="cls-5" d="M80.72,22.62l-.52-.05C80.4,22.27,80.58,22.23,80.72,22.62Z"/><path class="cls-13" d="M69.48,53c0-.14.25-.33,0-.41s-.38.09-.58.15a29.06,29.06,0,0,1-1-8l.79.31A22.68,22.68,0,0,0,69,49.93c.35,2.1.45,2.19,2.55,2.07h.4a.5.5,0,0,1,.22.55Z"/><path class="cls-12" d="M65.49,39.67a6.39,6.39,0,0,1,.8,3.76c-2.27.06-4.48-.52-6.73-.58a.56.56,0,0,1,.32-.5,31.11,31.11,0,0,1,3.85.25c2.14.21,2.14.14,1.61-1.87-.09-.34-.13-.7-.19-1Z"/><path class="cls-6" d="M35.77,58.18l-.34-.33c.92-.63,1.2-1.81,2.12-2.43l.39.38a.72.72,0,0,1-.12.21c-.58.31-.41.71-.16,1.13C37.17,57.73,36.32,57.68,35.77,58.18Z"/><path class="cls-7" d="M37.66,57.14c-.25-.42-.42-.82.16-1.13.62.77,1.12-.47,1.72-.09,0,.36.34.35.58.42A3.77,3.77,0,0,1,37.66,57.14Z"/><path class="cls-7" d="M68.71,45.06l-.79-.31-.6-.48,0-.31.79,0,1.63.81v.41Z"/><path class="cls-12" d="M67.35,44l0,.31c-.53-.05-1-.18-1-.85a1.75,1.75,0,0,1,1.06.3A1.93,1.93,0,0,1,67.35,44Z"/><path class="cls-16" d="M33.9,35.93A13.41,13.41,0,0,1,53,23a14,14,0,0,1,6.25,18.39A13.37,13.37,0,0,1,48.1,49.25a9.12,9.12,0,0,1-3.8-.44.55.55,0,0,1,.59-.58A9.33,9.33,0,0,1,48.3,48c.4,0,.8.5,1.21,0a1.66,1.66,0,0,0,1.8-.81c.39.37,1,.92,1.31.29.85-1.66,2.68-2.21,3.75-3.61.84-1.1,1.43-2.34,2.29-3.41.2-.25.7-.29.5-.8a1.07,1.07,0,0,0-.92-.68,11.73,11.73,0,0,0-1.33,0v-.32c1.73-.06,1.81-.17,1.17-1.7-.18-.44-.42-.85-.64-1.27v-.52c.31.17.63.33.93.52s.86.47,1.24.18.09-.75-.12-1.15a2.86,2.86,0,0,1-.18-1c-.9-7.64-9.17-12.73-16.31-10-5.58,2.14-7.54,6.85-8.52,12.22Z"/><path class="cls-17" d="M51.31,47.17a1.66,1.66,0,0,1-1.8.81c0-.28,0-.56,0-.84.3-.45.38-.85-.28-1-.17-2.46-.17-2.46-2.56-2.43a2.67,2.67,0,0,1-.4,0,.85.85,0,0,0-1,.89c-.11,1.22-.2,2.45-.29,3.67a.55.55,0,0,0-.59.58l-.79-.26c.05-.5-.41-.75-.55-1.15a10.22,10.22,0,0,0,.45-7.22c1.76,1.2,3.53,2.15,5.76,1.13.56-.25.89-1,1.64-.83A11.18,11.18,0,0,0,51.31,47.17Z"/><path class="cls-17" d="M33.9,35.93l.58,0a2.05,2.05,0,0,0,1.82-.5,18,18,0,0,1,9.12-3.56c-1.05.92-2.34,1.62-2.81,3.09-.09.28-.47.19-.72.23l-3.19.27a4.65,4.65,0,0,0-1.18,0c-1.15.32-1.32,1.37-1.43,2.3s.74.6,1.24.69l0,.49-.83.12h-.24c-.45.1-1,0-1.18.64h-.64A16.19,16.19,0,0,1,33.9,35.93Z"/><path class="cls-5" d="M65.15,39.68c.06.35.1.71.19,1,.53,2,.53,2.08-1.61,1.87a31.11,31.11,0,0,0-3.85-.25,27,27,0,0,0,1.53-4.87A3.62,3.62,0,0,1,65.15,39.68Z"/><path class="cls-8" d="M34.47,39.66h.64c.29.64,1,.86,1.31,1.56A11,11,0,0,0,40.64,46a3.11,3.11,0,0,1,1.27,1.44V48A12.62,12.62,0,0,1,34.47,39.66Z"/><path class="cls-11" d="M65.15,39.68a3.62,3.62,0,0,0-3.74-2.2l.06-.76c2.59.24,3.38.82,4,3Z"/><path class="cls-16" d="M41.9,48v-.51L43,47.4c.14.4.6.65.55,1.15C42.87,48.66,42.47,48.08,41.9,48Z"/><path class="cls-12" d="M66.54,33.27c0-.19,0-.39,0-.59a21.94,21.94,0,0,1-.24-5,2.58,2.58,0,0,1,.78,2.06c0,.27,0,.54,0,.8l0,2.15v.8a7.75,7.75,0,0,0,.19,2.67l-.5.54c-.17-.76-.85-.67-1.37-.8-1.09-.27-2.2-.49-3.27-.86a6.67,6.67,0,0,1,3.05.1c1.18.25,1.53-.12,1.33-1.23A3.75,3.75,0,0,1,66.54,33.27Z"/><path class="cls-13" d="M66.82,36.73l.5-.54c-.12,2,.43,3.93.57,5.9A5.79,5.79,0,0,0,68.14,44l-.79,0a1.93,1.93,0,0,0,0-.24c.52-1.23-.25-2.37-.33-3.56S66.84,37.87,66.82,36.73Z"/><path class="cls-12" d="M78.6,53.07l.51.28c.51,1.51.9,3,.07,4.57l-.33-.32c0-.43.07-.87.12-1.31a3.12,3.12,0,0,0-1.71-3.22l.3-.32Z"/><path class="cls-4" d="M76.46,35.43c.8.23,1.63.42,1.35,1.57a38.06,38.06,0,0,1-.28,4.65,2.88,2.88,0,0,1-2.68,2.53,3,3,0,0,1-2.68-2,10.79,10.79,0,0,1-.26-3.3v-.8l0-.79,0-1.85Z"/><path class="cls-4" d="M67.08,30.57c0-.26,0-.53,0-.8.74-.17.82-.66.7-1.32-.31-1.78.32-2.38,2.06-2,.8.15.69-.46.74-.93V25h5.89l.8.05c.24.77-1.06.75-.8,1.54v0c-1.13-.53-2.32-.16-3.48-.27-.42-.41-.48-.08-.54.26l-.26,0h-.8a3.05,3.05,0,0,0-1.6,4.26,12.4,12.4,0,0,1,.75,3.3c.08.5-.65.56-.77,1l-1.07.26c-.83-.36-.49-1.7-1.56-1.87v-.8c.89-.12.73-.81.76-1.41S67.61,30.54,67.08,30.57Z"/><path class="cls-17" d="M68.14,44a5.79,5.79,0,0,1-.25-1.89h.51c.11.25.19.51.32.74.45.76,1.22.7,1.9.56s.43-.8.47-1.68c-.39,1-.8,1.44-1.54,1s-.45-1.12-.32-1.75c.87-1.15,1.47-.25,2.11.28.22,1.53.77,2.8,2.43,3.28.11,0,.17.27.25.41l-4.25-.18Z"/><path class="cls-11" d="M74,45c-.08-.14-.14-.38-.25-.41-1.66-.48-2.21-1.75-2.43-3.28.3-.78-.51-1.82.57-2.41a10.79,10.79,0,0,0,.26,3.3,3,3,0,0,0,2.68,2,2.88,2.88,0,0,0,2.68-2.53A38.06,38.06,0,0,0,77.81,37h.26c0,1.17,0,2.34,0,3.52,0,.4-.16.92.5,1l.29,0c.33,1.2.7,1.31,1.87.54l.28.28,0,.79h0c-1,0-2.07.22-2.67-1.23a5.67,5.67,0,0,1-2.71,2.9C75.13,45.19,74.56,45,74,45Z"/><path class="cls-16" d="M68.69,35.39l1.07-.26c.47.36,1.27.46,1.07,1.34a1.68,1.68,0,0,1-2.4-.27Z"/><path class="cls-13" d="M69.23,41c-.13.63-.53,1.31.32,1.75s1.15,0,1.54-1c0,.88.28,1.52-.47,1.68s-1.45.2-1.9-.56c-.13-.23-.21-.49-.32-.74C68.42,41.52,68.55,41.05,69.23,41Z"/><path class="cls-10" d="M76.46,35.43H71.93l-.56,0v-.27c.3,0,.61.05.83-.23,1.44-.19,2.84.33,4.28.21Z"/><path class="cls-13" d="M68.43,36.2a1.68,1.68,0,0,0,2.4.27,1.21,1.21,0,0,1-2.4-.27Z"/><path class="cls-8" d="M71.37,35.39l.56,0c0,.62,0,1.23,0,1.85h-.51Z"/><path class="cls-11" d="M71.38,37.28h.51c0,.27,0,.53,0,.79C71.35,38.06,71.38,37.66,71.38,37.28Z"/><path class="cls-12" d="M72.18,24.94H70.57c-.32,0-.54-.17-.55-.52l0,0c.71.09,1.47-.2,2.14.24Z"/><path class="cls-17" d="M70.57,25.22v.27l-.35-.14Z"/><path class="cls-12" d="M70,24.43l-.26-.28h0l.28.26Z"/><path class="cls-8" d="M81,42.37l-.28-.28c-.29-1.28-.45-1.33-1.87-.54l-.29,0a1.35,1.35,0,0,1,2.34-.64c.2.22.3.53.61.64-.09.28-.18.55-.26.83Z"/><path class="cls-13" d="M78.6,36.19l.27-.53s.08.05.1.09c.5,1.58.53,1.59,1.77.46a1.28,1.28,0,0,1-.86,1.45c-.57.17-1-.18-1.27-.66Z"/><path class="cls-5" d="M77.26,53.07A3.12,3.12,0,0,1,79,56.29c0,.44-.08.88-.12,1.31a2,2,0,0,0-.14.38c-.24,1.74-.71,3.39-2.67,3.9A8.14,8.14,0,0,1,69.25,61a2,2,0,0,1-.69-1.11,10.29,10.29,0,0,1-.17-5.53A2.09,2.09,0,0,1,69.48,53l2.66-.49c.08.24,0,.65.28.65s.22-.35.22-.6a7.84,7.84,0,0,0-.35-2.2c-.18-.63-.24-1.27.38-1.68a1.8,1.8,0,0,1,1.91,0c.72.39.64,1.11.5,1.77a14.72,14.72,0,0,0-.54,2.86,1.92,1.92,0,0,0-.2,1.89l.51-1.6a1.14,1.14,0,0,1,.5-.86ZM76.2,58.42l.24-1.32c0-.4.2-.87-.27-1.25-.39.38-.19.84-.23,1.24v1.33c-.4.28-.24.7-.26,1.08-.12,1.27-.73,1.86-1.92,1.84a2.5,2.5,0,0,1-2.66-2,5.09,5.09,0,0,0-.24-2.27,3.48,3.48,0,0,0-.27,2c0,1.79,1.2,2.82,3.31,2.83,1.59,0,2.29-.81,2.31-2.67Z"/><path class="cls-5" d="M73.26,27.08c.11.57.23,1.13.32,1.69.06.33.86.79,0,.95-.63.12-1.51.32-1.62-.81a5.48,5.48,0,0,1,.27-2.09C72.54,26.87,73,26.71,73.26,27.08Z"/><path class="cls-5" d="M76.46,26.82a1.61,1.61,0,0,1,1.3,2.09c-.11.7-.57.94-1.25.85-.84-.1-.39-.65-.31-1,.17-.77-.29-1.33-.55-2Z"/><path class="cls-5" d="M74.93,28.91c-.51,0-.6-.23-.61-.57s.09-.7.56-.69.64.11.67.46S75.17,28.73,74.93,28.91Z"/><path class="cls-13" d="M76.46,26.82l-.81,0a1.9,1.9,0,0,0-2.39.28c-.29-.37-.72-.21-1.08-.26v-.25l.26,0a.53.53,0,0,0,.54-.26c1.16.11,2.35-.26,3.48.27Z"/><path class="cls-9" d="M74,45c.54,0,1.11.22,1.62-.14l2.43,0v.52a23.38,23.38,0,0,1-8.3-.1v-.41Z"/><path class="cls-7" d="M78.07,45.3v-.52a6,6,0,0,1,2.71-.27c-.09.38-.65.33-.62.75l-.51.08Z"/><path class="cls-5" d="M81,42.37h.25c0,.3.06.61-.27.8Z"/><path class="cls-4" d="M76.47,35.1c-1.44.12-2.84-.4-4.28-.21-.81-2-.41-2.72,1.64-2.7.92,0,1.84.07,2.76.1s1.2.41,1.21,1.22.12,1.49-1,1.39C76.69,34.89,76.58,35,76.47,35.1Z"/><path class="cls-17" d="M70,24.41l-.28-.26c0-.45.06-.76.62-.82a36.94,36.94,0,0,1,9.16,0c.21,0,.49,0,.53.28s-.27.39-.5.52c-1,.53-2.13,0-3.12.49l-4.27,0C71.51,24.21,70.75,24.5,70,24.41Z"/><path class="cls-9" d="M72.18,24.65l4.27,0V25H72.18Z"/><path class="cls-5" d="M78.07,45.3l1.58,0a30.13,30.13,0,0,1-1.05,7.73l-1-.32c-.57-.8-1.43-.38-2.16-.5a3.82,3.82,0,0,1,.38-1.5c.25-.93.47-2-.51-2.68a2.77,2.77,0,0,0-3.14,0c-.92.58-.86,1.55-.55,2.51A13.35,13.35,0,0,1,71.92,52h-.4c-2.1.12-2.2,0-2.55-2.07a22.68,22.68,0,0,1-.26-4.87l1.06.14A23.38,23.38,0,0,0,78.07,45.3Z"/><path class="cls-14" d="M71.92,52a13.35,13.35,0,0,0-.34-1.42c-.31-1-.37-1.93.55-2.51a2.77,2.77,0,0,1,3.14,0c1,.67.76,1.75.51,2.68a3.82,3.82,0,0,0-.38,1.5c0,.16,0,.32-.05.48a1.14,1.14,0,0,0-.5.86l-.31-.29a14.72,14.72,0,0,1,.54-2.86c.14-.66.22-1.38-.5-1.77a1.8,1.8,0,0,0-1.91,0c-.62.41-.56,1.05-.38,1.68a7.84,7.84,0,0,1,.35,2.2c0,.25.18.61-.22.6s-.2-.41-.28-.65A.5.5,0,0,0,71.92,52Z"/><path class="cls-6" d="M45.43,31.83a18,18,0,0,0-9.13,3.56,2.05,2.05,0,0,1-1.82.5c1-5.38,2.94-10.09,8.52-12.23,7.14-2.74,15.41,2.35,16.31,10a2.86,2.86,0,0,0,.18,1c.21.4.62.77.12,1.15s-.84.08-1.24-.18-.62-.35-.93-.52a18.38,18.38,0,0,0-8.32-3.25,1,1,0,0,0-1.59.31H47C46.55,31.75,46.07,31.42,45.43,31.83Zm9.61.09h0c1.12-.83,1.12-1.74,0-3a2.1,2.1,0,0,0-2.75-.41,2.29,2.29,0,0,0-1.28,2c0,.28-.11.7.3.77.58.09.43-.4.48-.72h.25c0,1.59,1.13,1.4,2.17,1.33.11.57.36.71.81.29Zm-6.69-1.38,0-.39.76-.38.47,0c.64.44.74.4.87-.36a2.94,2.94,0,1,0-5.8-.92c-.06.65-.38,1.72,1,1.7l0,.36a8.79,8.79,0,0,0,4.11.3A2.39,2.39,0,0,0,48.35,30.54Zm-5.6.59.54-.06a.48.48,0,0,0,.49-.5A2.22,2.22,0,0,0,42.36,28a2.53,2.53,0,0,0-3,1A2.3,2.3,0,0,0,40,32.18a.46.46,0,0,0,.52-.49C41.33,31.64,42.17,31.89,42.75,31.13ZM56.1,28.44a2.73,2.73,0,0,0-1.35-1.59c-2.66-2.73-6-3.41-9.58-2.83-2.86.46-5.11,1.9-6.06,3.53.14,0,.29.08.39,0a3.56,3.56,0,0,1,3.91.09c.47.33.59,0,.8-.33,1.88-2.74,4.15-2.91,6.52-.52a.72.72,0,0,0,.49.64.19.19,0,0,0,0,.18c.08.13.13.35.25.38s.33-.16.43-.35a6.08,6.08,0,0,1,2.81-.18,2,2,0,0,0,1.39.92,5.77,5.77,0,0,1,0,3.65c-.42.88-.13,1.31.66,1.63a4.32,4.32,0,0,1,.94.52c.62.46.92.3.81-.44A8.87,8.87,0,0,0,56.1,28.44ZM35.83,34.66c.6-.36,1-.61,1.35-.81,1.17-.6,2.45-1.12,1.19-2.8-.57-.75.33-1.68-.14-2.76A12.76,12.76,0,0,0,35.83,34.66Z"/><path class="cls-6" d="M51.31,47.17a11.18,11.18,0,0,1-.5-6.69c.32-.34.28-.62-.16-.82L51,39.1h.63c1.77-.07,3.56.23,5.32-.16a11.73,11.73,0,0,1,1.33,0,1.07,1.07,0,0,1,.92.68c.2.51-.3.55-.5.8-.86,1.07-1.45,2.31-2.29,3.41-1.07,1.4-2.9,1.95-3.75,3.61C52.29,48.09,51.7,47.54,51.31,47.17Zm3.48-7.25c-3.27,0-3.32.06-3.29,3.45a16.5,16.5,0,0,0,.17,1.71c.11.82.52.9,1.19.51a12,12,0,0,0,3.87-3.77c.34-.49.93-1.06.6-1.65s-1-.18-1.61-.25C55.42,39.89,55.1,39.92,54.79,39.92Z"/><path class="cls-17" d="M49.12,31.88a18.38,18.38,0,0,1,8.32,3.25v.52h-.27c-.44,0-.87-.47-1.33-.06l-2.68-.24c-.35-.53-1.1.28-1.26-.24C51.43,33.6,50.07,32.93,49.12,31.88Z"/><path class="cls-18" d="M49.47,47.14c0,.28,0,.56,0,.84-.41.47-.81,0-1.21,0a9.33,9.33,0,0,0-3.41.28c.09-1.22.18-2.45.29-3.67a.85.85,0,0,1,1-.89,2.67,2.67,0,0,0,.4,0c2.39,0,2.39,0,2.56,2.43,0,.18,0,.36,0,.55l-.55-.55A1.87,1.87,0,0,1,48.32,45c0-.6-.29-.7-.81-.74-1-.09-1.67.09-1.84,1.27s.27,1.65,1.39,1.84a2.75,2.75,0,0,0,1.51-.28c.06.18,0,.48.28.49s.25-.28.31-.47Z"/><path class="cls-8" d="M56.91,38.94c-1.76.39-3.55.09-5.32.16a3.76,3.76,0,0,1,.59-2c.46.45.45,1.23,1.22,1.2a14.38,14.38,0,0,0,2.93.18l.58.09Z"/><path class="cls-15" d="M56.91,38.62l-.58-.08c0-.17.05-.34.08-.51,1.57,0,1.61-.09.76-1.83v-.55h.27c.22.42.46.83.64,1.27C58.72,38.45,58.64,38.56,56.91,38.62Z"/><path class="cls-6" d="M43,47.4l-1.05.08A3.11,3.11,0,0,0,40.64,46a11,11,0,0,1-4.22-4.81c-.3-.7-1-.92-1.31-1.56.18-.61.73-.54,1.18-.64l.12,0,.12,0,.83-.12a6.54,6.54,0,0,0,2.37.2l.62,0h2.32l.31,0c0,.41,0,.81.43,1A10.22,10.22,0,0,1,43,47.4ZM39.7,39.92H37.56c-.63,0-.83.24-.5.81a11.7,11.7,0,0,0,3.33,4.09c.65.43,1.35,1.3,2.06.88s.51-1.43.52-2.23C43,40.28,42.69,39.92,39.7,39.92Z"/><path class="cls-15" d="M43.41,40.18c-.43-.23-.43-.63-.43-1h0l.27-.27.09-.07c2.56,2.75,3.88,2.92,7.06.92a1,1,0,0,1,.26-.06c.44.2.48.48.16.82-.75-.14-1.08.58-1.64.83C46.94,42.33,45.17,41.38,43.41,40.18Z"/><path class="cls-16" d="M49.14,46.65c0-.19,0-.37,0-.55.66.19.58.59.28,1l-.31-.06C49.15,46.94,49.15,46.79,49.14,46.65Z"/><path class="cls-15" d="M43,39.14l-.31,0a4.6,4.6,0,0,0-.34-1.91c-.54.4-.62,1.31-1.5,1.15l-.27-.8c.07-.52.42-1,.23-1.55l.58-.06c.05.29-.12.64.2.89.47-.35.3-.8.32-1.21v-.46c.25,0,.63.05.72-.23.47-1.47,1.76-2.17,2.81-3.09.65-.41,1.13-.08,1.57.37a11.43,11.43,0,0,0-2.36,1.09c-1.83,1.53-2,3.42-1.3,5.51l-.09.07-.27.27Z"/><path class="cls-14" d="M37.33,38.42c-.5-.09-1.35.23-1.24-.69s.28-2,1.43-2.3a4.65,4.65,0,0,1,1.18,0c-.13.65.34.84.79,1l-.25.77c-.12,1-.72.2-1.08.31,0-.18,0-.35,0-.53,0-.34.5-.77-.08-1s-.88.14-1.11.63c-.49,1,0,1.24.9,1.21v.48Z"/><path class="cls-18" d="M39.49,36.46c-.45-.2-.92-.39-.79-1l3.19-.27v.46a.53.53,0,0,0-.52.32l-.58.06Z"/><path class="cls-8" d="M37.33,38.42l.56-.09,1.86,0,0,.76a6.54,6.54,0,0,1-2.37-.2Z"/><path class="cls-8" d="M36.53,39l-.12,0-.12,0Z"/><path class="cls-5" d="M67.08,30.57c.53,0,.84.15.81.74s.13,1.29-.76,1.41C67.11,32,67.1,31.29,67.08,30.57Z"/><path class="cls-13" d="M75.35,52.73c0-.16,0-.32.05-.48.73.12,1.59-.3,2.16.5l-.3.32Z"/><path class="cls-17" d="M73,26.29a.53.53,0,0,1-.54.26C72.5,26.21,72.56,25.88,73,26.29Z"/><path class="cls-5" d="M78.88,41.55c1.42-.79,1.58-.74,1.87.54C79.58,42.86,79.21,42.75,78.88,41.55Z"/><path class="cls-13" d="M76.2,59.22c0,1.86-.72,2.68-2.31,2.67-2.11,0-3.34-1-3.31-2.83a3.48,3.48,0,0,1,.27-2,5.09,5.09,0,0,1,.24,2.27,2.5,2.5,0,0,0,2.66,2c1.19,0,1.8-.57,1.92-1.84Z"/><path class="cls-11" d="M74.54,53.3l.31.29-.51,1.6A1.92,1.92,0,0,1,74.54,53.3Z"/><path class="cls-16" d="M75.94,57.09c0-.4-.16-.86.23-1.24.47.38.22.85.27,1.25Z"/><path class="cls-16" d="M76.2,59.22l-.53.28c0-.38-.14-.8.26-1.08h.27Z"/><path class="cls-13" d="M76.2,58.42h-.27c0-.44,0-.88,0-1.33h.5Z"/><path class="cls-5" d="M43.33,38.8c-.65-2.09-.53-4,1.3-5.51A11.43,11.43,0,0,1,47,32.2h.54A9.81,9.81,0,0,1,50,33.4c1.81,1.67,1.67,3.62,1,5.7l-.31.56a1,1,0,0,0-.26.06C47.21,41.72,45.89,41.55,43.33,38.8Z"/><path class="cls-17" d="M51.23,27.65a.19.19,0,0,1,0-.18c.08-.4-.08-.62-.49-.64-2.37-2.39-4.64-2.22-6.52.52-.21.3-.33.66-.8.33a3.56,3.56,0,0,0-3.91-.09c-.1,0-.25,0-.39,0,1-1.63,3.2-3.07,6.06-3.53,3.6-.58,6.92.1,9.58,2.83l0,.65a6.13,6.13,0,0,0-2.82.18Z"/><path class="cls-16" d="M35.83,34.66a12.76,12.76,0,0,1,2.4-6.37c.47,1.08-.43,2,.14,2.76,1.26,1.68,0,2.2-1.19,2.8C36.79,34.05,36.43,34.3,35.83,34.66Z"/><path class="cls-8" d="M56.1,28.44a8.87,8.87,0,0,1,2.4,5.34c.11.74-.19.9-.81.44a4.32,4.32,0,0,0-.94-.52c-.79-.32-1.08-.75-.66-1.63a5.77,5.77,0,0,0,0-3.65Z"/><path class="cls-15" d="M51,39.1c.69-2.08.83-4-1-5.7a9.81,9.81,0,0,0-2.45-1.21,1,1,0,0,1,1.59-.31c1,1.05,2.31,1.72,2.78,3.23.16.52.91-.29,1.26.24l-.06.34c-1,.71-.31,1.32.11,2l0,.09.24.33v.29c-.77,0-.76-.75-1.22-1.2a3.76,3.76,0,0,0-.59,2Z"/><path class="cls-8" d="M45.63,30.22c-1.34,0-1-1-1-1.7a2.94,2.94,0,1,1,5.8.92c-.13.76-.23.8-.87.36a2.7,2.7,0,0,0,.25-.74,2,2,0,0,0-1.48-2.19c-.7-.21-1.54-.69-1.91.5h0C44.77,27.9,45.59,29.18,45.63,30.22Z"/><path class="cls-17" d="M49.13,29.77l-.76.38c-.31,0-.61-.08-.92-.09-1.43-.09-1.8-.66-1.26-2,.1-.24.18-.49.27-.74h0C48.69,27,49.55,27.78,49.13,29.77ZM47.57,28.2c-.39.13-.77.36-.73.79a.77.77,0,0,0,.93.7c.4,0,.57-.37.55-.76A.69.69,0,0,0,47.57,28.2Z"/><path class="cls-8" d="M40,32.18a2.3,2.3,0,0,1-.69-3.13,2.53,2.53,0,0,1,3-1,2.22,2.22,0,0,1,1.42,2.55.48.48,0,0,1-.49.5c.15-.72.24-1.42-.59-1.83h0a1.48,1.48,0,0,0-2.37-.35A1.58,1.58,0,0,0,40,31.38h0Z"/><path class="cls-16" d="M42.75,31.13c-.58.76-1.42.51-2.19.56a.45.45,0,0,0-.53-.32h0c0-.93-.09-1.84,1-2.29.62-.25,1.08.31,1.65.15h0C42.7,29.87,43,30.49,42.75,31.13Zm-.65-.8a.59.59,0,0,0-.57-.55c-.33,0-.64,0-.66.43a.57.57,0,0,0,.54.62C41.75,30.88,42,30.7,42.1,30.33Z"/><path class="cls-16" d="M54.23,31.91c-1,.07-2.15.26-2.17-1.33.4-1.06,1.17-1.48,2.14-.89S54.8,31.16,54.23,31.91Zm-.57-.64a.62.62,0,0,0,.45-.7c0-.44-.38-.55-.77-.51a.42.42,0,0,0-.41.54A.93.93,0,0,0,53.66,31.27Z"/><path class="cls-15" d="M54.23,31.91c.57-.75,1-1.6,0-2.22s-1.74-.17-2.14.89h-.25c-.44-.71.11-1.05.57-1.34A2.76,2.76,0,0,1,55,29.3a3.87,3.87,0,0,1,0,2.62h0c-.22.09-.17.19,0,.28C54.59,32.62,54.34,32.48,54.23,31.91Z"/><path class="cls-8" d="M55,29.3a2.76,2.76,0,0,0-2.63-.07c-.46.29-1,.63-.57,1.34-.05.32.1.81-.48.72-.41-.07-.31-.49-.3-.77a2.29,2.29,0,0,1,1.28-2,2.1,2.1,0,0,1,2.75.41C55,29.05,55,29.17,55,29.3Z"/><path class="cls-14" d="M46.46,27.36c-.09.25-.17.5-.27.74-.54,1.3-.17,1.87,1.26,2,.31,0,.61.06.92.09,0,.13,0,.26,0,.39l-2.68,0c0-.12,0-.24,0-.36C45.59,29.18,44.77,27.9,46.46,27.36Z"/><path class="cls-14" d="M49.13,29.77c.42-2-.44-2.77-2.67-2.4.37-1.19,1.21-.71,1.91-.5a2,2,0,0,1,1.48,2.19,2.7,2.7,0,0,1-.25.74Z"/><path class="cls-13" d="M55,29.3c0-.13,0-.25.05-.37,1.1,1.25,1.1,2.16,0,3A3.87,3.87,0,0,0,55,29.3Z"/><path class="cls-19" d="M45.67,30.58l2.68,0a2.39,2.39,0,0,1,1.43.34A8.79,8.79,0,0,1,45.67,30.58Z"/><path class="cls-8" d="M54.72,27.5l0-.65a2.73,2.73,0,0,1,1.35,1.59v0A2,2,0,0,1,54.72,27.5Z"/><path class="cls-14" d="M42.75,31.13c.28-.64,0-1.26,0-1.89.83.41.74,1.11.59,1.83Z"/><path class="cls-14" d="M40,31.37a.42.42,0,1,1,0,.81C40,31.91,40,31.64,40,31.37Z"/><path class="cls-8" d="M50.73,26.83c.41,0,.57.24.49.64A.72.72,0,0,1,50.73,26.83Z"/><path class="cls-8" d="M51.23,27.65l.67,0c-.09.19-.17.43-.42.35S51.31,27.78,51.23,27.65Z"/><path class="cls-13" d="M55,32.2c-.17-.09-.22-.19,0-.28Z"/><path class="cls-17" d="M54.79,39.92c.31,0,.63,0,.93,0,.56.07,1.31-.28,1.61.25s-.26,1.16-.6,1.65a12,12,0,0,1-3.87,3.77c-.67.39-1.08.31-1.19-.51a16.5,16.5,0,0,1-.17-1.71C51.47,40,51.52,39.93,54.79,39.92Z"/><path class="cls-18" d="M53.17,37.73l0-.09.48-.08c.42,0,1,0,1-.53s-.56-.91-1.22-.77l-.35-.57.06-.34,2.68.24c-.06.16-.08.44-.17.46-.86.23-.54.82-.45,1.34.14.77.76.25,1.13.42a.79.79,0,0,0,.06.22c0,.17-.06.34-.08.51a15.14,15.14,0,0,1-2.93-.19,2.81,2.81,0,0,0,0-.29Z"/><path class="cls-14" d="M56.35,37.81c-.37-.17-1,.35-1.13-.42-.09-.52-.41-1.11.45-1.34.09,0,.11-.3.17-.46.46-.41.89.08,1.33.06v.55c-.83-.3-1.28-.15-1,.85C56.24,37.31,56.29,37.56,56.35,37.81Z"/><path class="cls-16" d="M48.57,47.06a2.75,2.75,0,0,1-1.51.28c-1.12-.19-1.55-.68-1.39-1.84s.84-1.36,1.84-1.27c.52,0,.85.14.81.74a1.87,1.87,0,0,0,.27,1.13C48.58,46.42,48.58,46.74,48.57,47.06Z"/><path class="cls-7" d="M48.57,47.06c0-.32,0-.64,0-1l.55.55c0,.14,0,.29,0,.43s0,.48-.31.47S48.63,47.24,48.57,47.06Z"/><path class="cls-16" d="M56.35,37.81c-.06-.25-.11-.5-.18-.76-.28-1,.17-1.15,1-.85C58,37.94,58,38,56.41,38A.79.79,0,0,1,56.35,37.81Z"/><path class="cls-17" d="M39.7,39.92c3,0,3.32.36,3.27,3.55,0,.8.11,1.86-.52,2.23s-1.41-.45-2.06-.88a11.7,11.7,0,0,1-3.33-4.09c-.33-.57-.13-.82.5-.81Z"/><path class="cls-16" d="M40.83,38.34c.88.16,1-.75,1.5-1.15a4.6,4.6,0,0,1,.34,1.91H40.35l0-.73Z"/><path class="cls-15" d="M40.32,38.36l0,.73-.62,0c0-.26,0-.51,0-.76Z"/><path class="cls-6" d="M43,39.14l.27-.27Z"/><path class="cls-6" d="M40.32,38.36h-.57l-1.86,0c0-.16,0-.32,0-.48l.26-.31c.36-.11,1,.64,1.08-.31a1.82,1.82,0,0,0,1.32.31l.27.8Z"/><path class="cls-16" d="M40.56,37.54a1.82,1.82,0,0,1-1.32-.31c.08-.26.17-.51.25-.77l1.3-.47C41,36.54,40.63,37,40.56,37.54Z"/><path class="cls-19" d="M41.37,35.93a.53.53,0,0,1,.52-.32c0,.41.15.86-.32,1.21C41.25,36.57,41.42,36.22,41.37,35.93Z"/><path class="cls-16" d="M38.16,37.54l-.26.31c-.88,0-1.39-.2-.9-1.21.23-.49.56-.85,1.11-.63s.12.66.08,1C38.17,37.19,38.17,37.36,38.16,37.54Z"/><path class="cls-11" d="M53.68,37.56l-.48.08c-.41-.63-1.11-1.24-.1-2,.11.19.23.38.35.57C53.52,36.69,53.6,37.12,53.68,37.56Z"/><path class="cls-11" d="M53.17,37.73l.24.33Z"/><path class="cls-15" d="M47.57,28.2a.69.69,0,0,1,.75.73c0,.39-.15.72-.55.76a.77.77,0,0,1-.93-.7C46.8,28.56,47.18,28.33,47.57,28.2Z"/><path class="cls-14" d="M42.71,29.24c-.57.16-1-.4-1.65-.15-1.12.45-1.05,1.36-1,2.29a1.58,1.58,0,0,1,.31-2.49A1.48,1.48,0,0,1,42.71,29.24Z"/><path class="cls-14" d="M42.1,30.33c-.13.37-.35.55-.69.5a.57.57,0,0,1-.54-.62c0-.4.33-.47.66-.43A.59.59,0,0,1,42.1,30.33Z"/><path class="cls-14" d="M53.66,31.27a.93.93,0,0,1-.73-.67.42.42,0,0,1,.41-.54c.39,0,.73.07.77.51A.62.62,0,0,1,53.66,31.27Z"/><path class="cls-8" d="M53.68,37.56c-.08-.44-.16-.87-.23-1.3.66-.14,1.18.15,1.22.77S54.1,37.54,53.68,37.56Z"/></g></g></svg>