<svg xmlns="http://www.w3.org/2000/svg" viewBox="0 0 113.91 85.52"><defs><style>.cls-1{fill:#d5d5d6;}.cls-2{fill:#fff;}.cls-3{fill:#b8babe;}.cls-4{fill:#afb1b7;}.cls-5{fill:#b5b6b9;}.cls-6{fill:#a8a9b0;}.cls-7{fill:#eff1f3;}.cls-8{fill:#c0c0c4;}.cls-9{fill:#c3c5ca;}.cls-10{fill:#e5e6e8;}.cls-11{fill:#e1e1e3;}.cls-12{fill:#f6f6f8;}.cls-13{fill:#fbfbfc;}.cls-14{fill:#fdfdfd;}.cls-15{fill:#dadbdd;}</style></defs><title>Recurso 7</title><g id="Capa_2" data-name="Capa 2"><g id="Capa_1-2" data-name="Capa 1"><path class="cls-1" d="M57,85.46c-16,0-32-.11-47.95.06a9.39,9.39,0,0,1-9-9C.12,53.89.07,31.31,0,8.72A8.85,8.85,0,0,1,8.78,0q48.36.06,96.7,0a8.62,8.62,0,0,1,8.43,8.43V77a8.66,8.66,0,0,1-8.44,8.44Zm0-.81c15.89,0,31.78,0,47.67,0a8.25,8.25,0,0,0,8.47-8.5c-.06-22.4,0-44.8,0-67.21A8,8,0,0,0,105,.83H9.12A8,8,0,0,0,.86,9.11c0,22.4.05,44.8,0,67.21a8.32,8.32,0,0,0,8.35,8.35C25.11,84.63,41.05,84.65,57,84.65Z"/><path class="cls-2" d="M75.87,66.42H74.53l-3.48,0a3.08,3.08,0,0,0-2.42,0H64.09c-.34-.31-.76-.21-1.15-.21H43.53c-.4,0-.82-.1-1.15.21H36a24.34,24.34,0,0,0-6.09-.19,3.39,3.39,0,0,1-3.16-1.76c-.32-.5-.47-1.27-1.51-1.44.72,1.54,1.13,3.28,2.72,3.68A11.47,11.47,0,0,0,33.8,67l3.68,0a2.56,2.56,0,0,0,2.75.16l10.7.06c.11.13.21.14.31,0,6.21.24,12.43.19,18.64.13,1.55,0,3.09-.22,4.64-.33a1.37,1.37,0,0,0,1.37,0l.77,0a18.47,18.47,0,0,0,5.25,0c1-.13,2.07.13,2.81-.82,1.57-.23,2-1.81,3-2.65.19-.16.48-.41.28-.66s-.55-.06-.77.16l-2.83,2.81a4.83,4.83,0,0,1-1.65.36c-2,0-4,.14-6.07.22ZM47.92,56.35l.4.44c.79.94,1.72.48,2.63.26,4,.05,8,.13,12.07,0,.16.27.35.21.55.07,1.61-1.07,1.28-3.85-.55-4.76a1.71,1.71,0,0,0-1.18.06c-.28-.5-.59-.44-.9,0l-1.42-.08H59c-.21-.84.14-1.13,1-1.1a12.91,12.91,0,0,0,4-.31,4.91,4.91,0,0,1,3.21,0,2.25,2.25,0,0,0,2.19-.17,3.44,3.44,0,0,1,3-.5c.15,1.31,1.31,1.14,2.06,1.17,4.22.2,8.44-.1,12.66.29.37,0,.93.09.92-.47s-.55-.46-.93-.46c-3.73-.06-7.46,0-11.19-.25-1.24-.09-2.48,0-3.47-1-.86-.79-1.8-.12-2.7-.12V48.5c.55,0,1.08-.06.52-.81l.81-1.87c1,.17,1.89.38,2.85.51a2.16,2.16,0,0,0,2.52-1.44c.58,0,1.16-.09,1.73-.09,2.81,0,5.61.08,8.42.12A1.34,1.34,0,0,0,87,45c.36-.05,1,.21,1-.28s-.63-.44-1.06-.43c-.11,0-.22.13-.34.19-2.06,0-4.1-.4-6.17-.23a48.77,48.77,0,0,0-10.32-.06s-.06.06-.09.1a2.66,2.66,0,0,0-2.66,1.63A28.91,28.91,0,0,0,65.79,49c-.21.48-.4,1-1,.82s-.17-.74-.09-1.07c.35-1.28.82-2.53,1.16-3.82.16-.62.37-1.46-.53-1.68a3.37,3.37,0,0,0-2-.08c-4.74-.11-9.48-.15-14.21,0-1.75-.06-2,.28-1.51,1.91s.88,3.07,1.32,4.6l-.15.18c-1,.21-.6-1-1.26-1.18-.33-2.15-1.91-4.75-3.87-4.87a54.38,54.38,0,0,0-9.29,0c-2.76.1-5.55-.2-8.29.32l0,.35h3.45c.08.67.29,1.37,1.12,1.05,2.24-.84,4.53.17,6.82-.24,1.34-.24,2.83.55,4.27,0,.36-.14.71,0,.72.36,0,1.08.81,1.75,1.3,2.57a.36.36,0,0,1-.14.56c-.91,0-2-.4-2.67.3a4.92,4.92,0,0,1-3.38,1.19l-11.43.09c-.26,0-.59.06-.49.43s.51.28.8.28l10.93,0a.9.9,0,0,0,.73-.24,3.23,3.23,0,0,0,2.3-.34c1.41-1.16,2.71-.86,4.1-.16a1.52,1.52,0,0,0,2.27,0l.43,0a23.46,23.46,0,0,0,7.46.76c.65,0,1.31,0,1.16.93a36.57,36.57,0,0,0-6.78.13c-.65.11-1.23.29-1.17,1.14l-.21,1.21c-.24.16-.54.29-.2.63C47.46,55.64,47.42,56.11,47.92,56.35Zm-14.11-9.2c-.06-.74-.58-.83-1.15-.79-1.69.1-3.39.11-5,.37a7.3,7.3,0,0,0-2.62.48,12.41,12.41,0,0,0,3.5.1c1.76-.05,3.57-1,5.3.12,0,.56-.36.7-.86.82a20.41,20.41,0,0,1-3.58.27c-1.59.08-3.17.24-4.88.38.19.23.24.34.3.34A55.42,55.42,0,0,0,33.42,49C34.41,48.91,34.55,48.05,33.81,47.15ZM79.88,48a1.44,1.44,0,0,1,1.28-.54c1.89.16,3.8.24,5.69.43a2.4,2.4,0,0,0,1.84-.61c-2.58-.23-4.76-.43-7-.61-1.08-.09-2.08,0-2.4,1.31-.55,1.06.2,1.23.94,1.35,2.54.4,5.13.11,7.67.52.34.06.94.2,1-.4s-.53-.38-.86-.36c-2.09.14-4.16-.26-6.24-.31C81.12,48.72,80.28,48.82,79.88,48ZM44,24.75c0,.31,0,.62.1.93.66,3.26,1.19,3.71,4.52,3.72,5,0,10,.05,14.94,0a16.92,16.92,0,0,0,4.59-.44.86.86,0,0,0,.76-.65,70.23,70.23,0,0,0,2.38-7.5c.28-1.4-.21-2-1.7-2h-9.1c-5.36,0-10.72,0-16.08,0-1,0-1.89.34-1.78,1.31A8.93,8.93,0,0,0,44,24.75Zm28.16,24,.11-.06s-.06-.07-.1-.07a.24.24,0,0,0-.1,0Z"/><path class="cls-3" d="M69.71,49.39c.9,0,1.84-.67,2.7.13,0,.22,0,.44,0,.66a3.44,3.44,0,0,0-3,.5,2.25,2.25,0,0,1-2.19.17,4.91,4.91,0,0,0-3.21,0,12.91,12.91,0,0,1-4,.31c-.83,0-1.18.26-1,1.1a.49.49,0,0,0-.28.46h-.77l-.06-.52c-.14-.68.45-1.91-.36-1.93s-.59,1.22-.66,2l0,.48h-1l0-.62c.15-1-.51-.93-1.16-.93a23.46,23.46,0,0,1-7.46-.76,3,3,0,0,0,.3-1.67c.66.14.28,1.39,1.26,1.18.12.12.3.25.4.1s-.14-.21-.25-.28c-.44-1.53-.87-3.07-1.32-4.6s-.24-2,1.51-1.91v.71c-.89,0-1.22.21-.8,1.16a20.58,20.58,0,0,1,1.06,3.16c.23.91.73,1.11,1.62,1.12,3.65,0,7.3-.15,10.94.09,1.14.07,2.18-.12,2.34-1.67a9.13,9.13,0,0,1,.82-2.53c.47-1.08.13-1.44-1-1.29.07-.59-.57-.48-.79-.79a3.37,3.37,0,0,1,2,.08c.9.22.69,1.06.53,1.68-.34,1.29-.81,2.54-1.16,3.82-.08.33-.63.86.09,1.07s.78-.34,1-.82a28.91,28.91,0,0,1,1.55-3.1A2.66,2.66,0,0,1,70,44.28c.3.28.67.19,1,.19h8.27c.39,0,.81.12,1.13-.23,2.07-.17,4.11.27,6.17.23v.45c-2.81,0-5.61-.09-8.42-.12-.57,0-1.15.06-1.73.09A23.05,23.05,0,0,0,71,45c-1.18-.07-2.36-.07-3,1.13-.58,1-1.09,2.12-1.62,3.18-.19.39-.16.69.33.79C67.82,50.32,68.92,50.52,69.71,49.39ZM51.22,50a9.68,9.68,0,0,0,4.37.69c.25,0,.6,0,.57-.36s-.3-.35-.6-.34C54.11,50,52.67,50,51.22,50Zm7.67.39c1.22.53,2.38-.12,3.58-.12A8.48,8.48,0,0,0,58.89,50.35Z"/><path class="cls-4" d="M68.1,28.94a16.92,16.92,0,0,1-4.59.44c-5,.07-10,0-14.94,0-3.33,0-3.86-.46-4.52-3.72-.06-.31-.07-.62-.1-.93,0-.49-.3-1.05.3-1.42A13.8,13.8,0,0,1,45.38,27c.2.86.64,1.05,1.43.82a7.59,7.59,0,0,1,2.37-.62c-.35.69-1.19.49-1.63,1.21h4.74c.33,0,.76.07.81-.44a1,1,0,0,0-.45-.91c-.34-.3-.77-.17-1.15-.24v-.5l11.26,0c-.14.95-.89.49-1.37.55-.67.1-.85.58-1,1.08-.09.25.08.42.35.43a50.58,50.58,0,0,0,5.65,0c-.46-.64-1.31-.39-1.63-1.13a18.13,18.13,0,0,1,3.37.68ZM56.75,26.83h0c-.58,0-1.16,0-1.73,0-.38,0-1-.27-1.05.41a1.05,1.05,0,0,0,.82,1.08,27.83,27.83,0,0,0,4,0,1.06,1.06,0,0,0,.86-1.19c-.06-.51-.66-.25-1-.27C58,26.8,57.37,26.83,56.75,26.83Z"/><path class="cls-5" d="M44.25,23.33c-.6.37-.26.93-.3,1.42a8.93,8.93,0,0,1-1.37-4.63c-.11-1,.79-1.31,1.78-1.31,5.36,0,10.72,0,16.08,0h9.1c1.49,0,2,.56,1.7,2a70.23,70.23,0,0,1-2.38,7.5.86.86,0,0,1-.76.65v-1c.76-2.32,1.5-4.64,2.29-6.94.29-.87-.21-1-.78-.82-1.23.39-2.48.09-3.7.25a3.38,3.38,0,0,1,2.16-.58c.13,0,.31.08.34-.14a1.67,1.67,0,0,0-.3-.11c-.68-.5-1.38,0-2.06,0-5.66,0-11.31,0-17,0a21.49,21.49,0,0,0-2.52-.13c-.64.08-.27.34.08.45l0,.55a10.45,10.45,0,0,0-3.31-.23C43.33,21.33,44.38,22.17,44.25,23.33Z"/><path class="cls-6" d="M71.05,66.41l3.48,0v.63c-1.55.11-3.09.31-4.64.33-6.21.06-12.43.11-18.64-.13h-.31l-10.7-.06A5.7,5.7,0,0,0,37.48,67L33.8,67c.58-.71,1.57.1,2.16-.58h6.42c.25.35.63.28,1,.28H63.11c.35,0,.72.07,1-.28h4.54A2.32,2.32,0,0,0,71.05,66.41Z"/><path class="cls-7" d="M43.6,48.86a.36.36,0,0,0,.14-.56c-.49-.82-1.27-1.49-1.3-2.57,0-.33-.36-.5-.72-.36-1.44.57-2.93-.22-4.27,0-2.29.41-4.58-.6-6.82.24-.83.32-1-.38-1.12-1.05l4.84-.1c2.35,0,4.71.13,7.06,0,2.61-.13,4.13,1.17,5.06,3.4.23.54.81,1.18.26,1.7a2.11,2.11,0,0,1-2.15.14A1.66,1.66,0,0,1,43.6,48.86Z"/><path class="cls-4" d="M43.6,48.86a1.66,1.66,0,0,0,1,.86,2.11,2.11,0,0,0,2.15-.14c.55-.52,0-1.16-.26-1.7-.93-2.23-2.45-3.53-5.06-3.4-2.35.13-4.71,0-7.06,0l0-.57a54.38,54.38,0,0,1,9.29,0c2,.12,3.54,2.72,3.87,4.87a3,3,0,0,1-.3,1.67l-.43,0-2.27,0c-1.39-.7-2.69-1-4.1.16a3.23,3.23,0,0,1-2.3.34l-.54-.54a4.92,4.92,0,0,0,3.38-1.19C41.64,48.46,42.69,48.82,43.6,48.86Z"/><path class="cls-4" d="M63.3,43.18c.22.31.86.2.79.79A108.53,108.53,0,0,1,51,44c-.13-.32-.3-.44-.54-.09l-1.34,0v-.71C53.82,43,58.56,43.07,63.3,43.18Z"/><path class="cls-8" d="M72.36,50.18c0-.22,0-.44,0-.66,1,.94,2.23.85,3.47.94,3.73.26,7.46.19,11.19.25.38,0,.93-.09.93.46s-.55.51-.92.47c-4.22-.39-8.44-.09-12.66-.29C73.67,51.32,72.51,51.49,72.36,50.18Z"/><path class="cls-9" d="M64.09,66.41c-.26.35-.63.28-1,.28H43.36c-.35,0-.73.07-1-.28.33-.31.75-.21,1.15-.21H62.94C63.33,66.2,63.75,66.1,64.09,66.41Z"/><path class="cls-10" d="M69.71,49.39c-.79,1.13-1.89.93-3,.71-.49-.1-.52-.4-.33-.79.53-1.06,1-2.14,1.62-3.18.68-1.2,1.86-1.2,3-1.13,0,.27,0,.55,0,.82l-.81,1.87c-.18.27-.35.54-.52.81Zm-2-.27c1.6,0,1.46-1.64,2.22-2.38.18-.16.49-.53.14-.8s-.73,0-.94.25A5.54,5.54,0,0,0,67.66,49.12Z"/><path class="cls-8" d="M37.55,50.35l.54.54a.9.9,0,0,1-.73.24l-10.93,0c-.29,0-.69.12-.8-.28s.23-.43.49-.43Z"/><path class="cls-8" d="M36,66.42c-.59.68-1.58-.13-2.16.58a11.47,11.47,0,0,1-5.88-.29c-1.59-.4-2-2.14-2.72-3.68,1,.17,1.19.94,1.51,1.44a3.39,3.39,0,0,0,3.16,1.76A24.34,24.34,0,0,1,36,66.42Z"/><path class="cls-6" d="M63,57c-4,.18-8,.1-12.07,0l0-.69,12.31-.08Z"/><path class="cls-11" d="M79.88,48c.4.86,1.24.76,1.92.78,2.08,0,4.15.45,6.24.31.33,0,.86-.12.86.36s-.61.46-1,.4c-2.54-.41-5.13-.12-7.67-.52-.74-.12-1.49-.29-.94-1.35Z"/><path class="cls-7" d="M79.88,48l-.54,0c.32-1.3,1.32-1.4,2.4-1.31,2.19.18,4.37.38,7,.61a2.4,2.4,0,0,1-1.84.61c-1.89-.19-3.8-.27-5.69-.43A1.44,1.44,0,0,0,79.88,48Z"/><path class="cls-11" d="M33.81,47.15c.74.9.6,1.76-.39,1.82a55.42,55.42,0,0,1-8.64.27c-.06,0-.11-.11-.3-.34,1.71-.14,3.29-.3,4.88-.38a20.41,20.41,0,0,0,3.58-.27c.5-.12.84-.26.86-.82Z"/><path class="cls-12" d="M71.05,45.82c0-.27,0-.55,0-.82a23.05,23.05,0,0,1,5.38-.11,2.16,2.16,0,0,1-2.52,1.44C72.94,46.2,72,46,71.05,45.82Z"/><path class="cls-4" d="M84.72,66.19c-.74,1-1.84.69-2.81.82a18.47,18.47,0,0,1-5.25,0v-.59c2-.08,4-.18,6.07-.22a4.83,4.83,0,0,0,1.65-.36Z"/><path class="cls-9" d="M55.81,52.09l0,.62-3.88.07c-1.19,0-2.41-.18-3.49.57h-.56c-.06-.85.52-1,1.17-1.14A36.57,36.57,0,0,1,55.81,52.09Z"/><path class="cls-9" d="M80.41,44.24c-.32.35-.74.23-1.13.23H71c-.34,0-.71.09-1-.19,0,0,0-.1.09-.1A48.77,48.77,0,0,1,80.41,44.24Z"/><path class="cls-7" d="M33.81,47.15v.28c-1.73-1.1-3.54-.17-5.3-.12a12.41,12.41,0,0,1-3.5-.1,7.3,7.3,0,0,1,2.62-.48c1.65-.26,3.35-.27,5-.37C33.23,46.32,33.75,46.41,33.81,47.15Z"/><path class="cls-3" d="M63,57l.26-.72c.94-1.24,0-2.31-.31-3.43l.05-.54c1.83.91,2.16,3.69.55,4.76C63.37,57.21,63.18,57.27,63,57Z"/><path class="cls-3" d="M34.33,43.91l0,.57-4.84.1H26.06l0-.35C28.78,43.71,31.57,44,34.33,43.91Z"/><path class="cls-9" d="M84.72,66.19l-.33-.34L87.22,63c.22-.22.5-.5.77-.16s-.09.5-.28.66C86.68,64.38,86.29,66,84.72,66.19Z"/><path class="cls-3" d="M51,56.36l0,.69c-.91.22-1.84.68-2.63-.26.3,0,.48-.16.48-.48Z"/><path class="cls-9" d="M63,52.31c0,.18,0,.36-.05.54l-4.26-.14a.49.49,0,0,1,.28-.46h.28c.08.15.17.14.25,0l1.42.08a.74.74,0,0,0,.9,0A1.71,1.71,0,0,1,63,52.31Z"/><path class="cls-8" d="M37.48,67a5.7,5.7,0,0,1,2.75.16A2.56,2.56,0,0,1,37.48,67Z"/><path class="cls-6" d="M47.86,53.36h.56c-.09.91-.63,1.78-.23,2.73l-.27.27c-.5-.24-.46-.71-.47-1.15a.47.47,0,0,0,.2-.63Z"/><path class="cls-9" d="M71.05,66.41a2.32,2.32,0,0,1-2.42,0A3.08,3.08,0,0,1,71.05,66.41Z"/><path class="cls-9" d="M86.57,44.92v-.45c.12-.06.23-.18.34-.19.43,0,1.08-.17,1.06.43s-.66.23-1,.28A1.34,1.34,0,0,1,86.57,44.92Z"/><path class="cls-3" d="M44.49,50.39l2.27,0A1.52,1.52,0,0,1,44.49,50.39Z"/><path class="cls-4" d="M74.52,67.06v-.63h1.34l0,.62A1.37,1.37,0,0,1,74.52,67.06Z"/><path class="cls-3" d="M61.84,52.37a.74.74,0,0,1-.9,0C61.25,51.93,61.56,51.87,61.84,52.37Z"/><path class="cls-12" d="M69.72,48.5c.17-.27.34-.54.52-.81C70.8,48.44,70.27,48.48,69.72,48.5Z"/><path class="cls-6" d="M75.89,67l0-.62h.8V67Z"/><path class="cls-6" d="M48.8,56.31c0,.32-.18.46-.48.48l-.4-.44.27-.26Z"/><path class="cls-9" d="M47.65,54.57a.47.47,0,0,1-.2.63C47.11,54.86,47.41,54.73,47.65,54.57Z"/><path class="cls-12" d="M72.11,48.7,72,48.62a.24.24,0,0,1,.1,0s.07,0,.1.07Z"/><path class="cls-8" d="M50.93,67.26h.31C51.14,67.4,51,67.39,50.93,67.26Z"/><path class="cls-3" d="M59.52,52.26c-.08.14-.17.15-.25,0Z"/><path class="cls-13" d="M51,44A108.53,108.53,0,0,0,64.09,44c1.1-.15,1.44.21,1,1.29a9.13,9.13,0,0,0-.82,2.53c-.16,1.55-1.2,1.74-2.34,1.67-3.64-.24-7.29-.07-10.94-.09-.89,0-1.39-.21-1.62-1.12a20.58,20.58,0,0,0-1.06-3.16c-.42-1-.09-1.2.8-1.16l1.34,0A.38.38,0,0,0,51,44Z"/><path class="cls-13" d="M48.8,56.31l-.61-.22c-.4-1,.14-1.83.23-2.74,1.08-.75,2.3-.55,3.49-.57l3.88-.07h2.92l4.26.14c.34,1.12,1.25,2.19.31,3.43L51,56.36Z"/><path class="cls-10" d="M51.22,50c1.45,0,2.89,0,4.34,0,.3,0,.57,0,.6.34s-.32.35-.57.36A9.68,9.68,0,0,1,51.22,50Z"/><path class="cls-7" d="M56.86,52.23c.07-.75-.27-2,.66-2s.22,1.25.36,1.93Z"/><path class="cls-7" d="M58.89,50.35a8.48,8.48,0,0,1,3.58-.12C61.27,50.23,60.11,50.88,58.89,50.35Z"/><path class="cls-9" d="M56.86,52.23l1,0,.06.52H56.83Z"/><path class="cls-2" d="M48.9,49.73c.11.07.37.08.25.28s-.28,0-.4-.1Z"/><path class="cls-14" d="M62.75,26.27l-11.26,0-1.08-4c-.46-1.49.25-1.68,1.57-1.65,3.5.09,7,0,10.51,0,1-.07,1.16.29.95,1.26a13.77,13.77,0,0,0-.71,3.59v.82Z"/><path class="cls-13" d="M65.91,20.4c1.22-.16,2.47.14,3.7-.25.57-.19,1.07,0,.78.82-.79,2.3-1.53,4.62-2.29,6.94a18.13,18.13,0,0,0-3.37-.68c.32.74,1.17.49,1.63,1.13a50.58,50.58,0,0,1-5.65,0c-.27,0-.44-.18-.35-.43.17-.5.35-1,1-1.08.48-.06,1.23.4,1.37-.55h0c.38-.14.27-.53.4-.8a6.26,6.26,0,0,0,.71-2.42c.37-.07.64-.19.2-.55l.12-1.59A2.9,2.9,0,0,0,65.91,20.4Z"/><path class="cls-13" d="M44.25,23.33c.13-1.16-.92-2-.88-3.15a10.45,10.45,0,0,1,3.31.23c.75.51,1.59.1,2.38.23h.52a2.65,2.65,0,0,0,.51,1.89,3.67,3.67,0,0,0,.11,1.17c.48,1,0,2.43,1.3,3.08.38.07.81-.06,1.15.24a1,1,0,0,1,.45.91c-.05.51-.48.44-.81.44H47.55c.44-.72,1.28-.52,1.63-1.21a7.59,7.59,0,0,0-2.37.62c-.79.23-1.23,0-1.43-.82A13.8,13.8,0,0,0,44.25,23.33Z"/><path class="cls-7" d="M56.75,26.83c.62,0,1.24,0,1.86,0,.36,0,1-.24,1,.27a1.06,1.06,0,0,1-.86,1.19,27.83,27.83,0,0,1-4,0A1.05,1.05,0,0,1,54,27.24c0-.68.67-.38,1.05-.41.57,0,1.15,0,1.73,0Z"/><path class="cls-9" d="M51.5,26.79c-1.32-.65-.82-2.07-1.3-3.08a3.67,3.67,0,0,1-.11-1.17l.32-.28,1.08,4Z"/><path class="cls-12" d="M49.58,20.65h-.52a3.05,3.05,0,0,0-2.41-.78c-.35-.11-.72-.37-.08-.45a21.49,21.49,0,0,1,2.52.13c5.65,0,11.3,0,17,0,.68,0,1.38-.5,2.06,0,0,.08,0,.17,0,.25a3.38,3.38,0,0,0-2.16.58,2.9,2.9,0,0,1-1.74.52c-.23-1-1-.79-1.68-.79-3.88,0-7.76,0-11.64,0C50.33,20.1,49.86,20.12,49.58,20.65Z"/><path class="cls-1" d="M46.65,19.86a3.05,3.05,0,0,1,2.41.78c-.79-.13-1.63.28-2.38-.23Z"/><path class="cls-9" d="M68.07,19.82c0-.08,0-.17,0-.25a1.67,1.67,0,0,1,.3.11C68.38,19.9,68.2,19.81,68.07,19.82Z"/><path class="cls-3" d="M51,44a.38.38,0,0,1-.54-.09C50.66,43.6,50.83,43.72,51,44Z"/><path class="cls-14" d="M67.66,49.12a5.54,5.54,0,0,1,1.42-2.93c.21-.25.6-.51.94-.25s0,.64-.14.8C69.12,47.48,69.26,49.08,67.66,49.12Z"/><path class="cls-15" d="M49.58,20.65c.28-.53.75-.55,1.27-.55,3.88,0,7.76,0,11.64,0v.48c-3.5,0-7,.09-10.51,0-1.32,0-2,.16-1.57,1.65l-.32.28A2.65,2.65,0,0,1,49.58,20.65Z"/><path class="cls-9" d="M62.49,20.61v-.48c.68,0,1.45-.19,1.68.79l-.12,1.59a.51.51,0,0,0-.2.55,6.26,6.26,0,0,1-.71,2.42l-.41,0a13.77,13.77,0,0,1,.71-3.59C63.65,20.9,63.47,20.54,62.49,20.61Z"/><path class="cls-4" d="M62.73,25.46l.41,0c-.13.27,0,.66-.4.8Z"/><path class="cls-12" d="M63.85,23.06a.51.51,0,0,1,.2-.55C64.49,22.87,64.22,23,63.85,23.06Z"/></g></g></svg>