<svg version="1.1" id="Layer_1" xmlns="http://www.w3.org/2000/svg" xmlns:xlink="http://www.w3.org/1999/xlink" x="0px" y="0px"
	 width="100%" viewBox="0 0 618 476" enable-background="new 0 0 618 476" xml:space="preserve">
<path fill="#FFFFFF" opacity="1.000000" stroke="none" 
	d="
M619.000000,382.000000 
	C619.000000,413.660492 619.000000,445.320984 619.000000,476.986084 
	C413.046387,476.990723 207.092758,476.990723 1.069569,476.990723 
	C1.069569,318.410706 1.069569,159.821365 1.069569,1.116014 
	C206.882416,1.116014 412.764893,1.116014 619.000000,1.116014 
	C619.000000,126.690529 619.000000,252.381378 618.598022,378.463013 
	C617.794983,377.363098 617.123779,375.886383 617.045837,374.379028 
	C616.849915,370.585938 616.921570,366.779022 616.913696,362.511597 
	C616.620667,302.361694 616.299805,242.677826 616.222778,182.808594 
	C616.308228,181.749649 616.150024,180.876038 616.002075,179.533722 
	C616.010132,168.377274 616.007996,157.689560 616.256287,146.785248 
	C616.343201,145.377350 616.179749,144.186066 616.023315,142.531952 
	C616.020264,138.046097 616.010132,134.023041 616.274414,129.726196 
	C616.334656,126.979263 616.120361,124.506142 615.922913,121.588066 
	C615.635864,116.425758 615.332031,111.708389 615.187866,106.608215 
	C615.508911,97.848022 615.716064,89.471176 615.815613,81.093063 
	C615.883118,75.407471 615.699890,69.718254 615.803589,64.033852 
	C616.053894,50.311066 617.250671,36.403736 606.998779,24.663841 
	C603.482788,20.088318 600.941345,14.485822 596.599060,11.850120 
	C587.640747,6.412579 577.316284,4.139072 566.697144,4.075736 
	C507.834778,3.724660 448.972473,3.352073 390.109680,3.081638 
	C362.115601,2.953024 334.120605,3.025160 306.126007,3.023203 
	C270.373108,3.020705 234.619949,2.964218 198.867416,3.084014 
	C187.570328,3.121867 176.274857,3.650798 164.606461,3.951296 
	C163.488693,3.967490 162.743134,3.987375 161.626617,3.851936 
	C159.345200,3.501293 157.437241,3.175262 155.523697,3.138241 
	C151.703125,3.064324 147.879501,3.148928 143.590912,3.125909 
	C123.844208,3.270906 104.563705,3.458061 85.283211,3.645215 
	C85.293114,4.095970 85.303024,4.546726 85.312935,4.997481 
	C86.968956,4.997481 88.625954,4.960253 90.280853,5.003463 
	C101.884529,5.306440 113.489334,5.578401 125.090630,5.956728 
	C133.063797,6.216738 141.031921,6.631758 149.445831,6.994828 
	C152.258957,7.010385 154.628555,7.008607 157.291656,7.291298 
	C161.390213,7.370675 165.195267,7.165584 169.462631,6.978972 
	C178.552948,7.307707 187.178970,7.708616 195.809616,7.899173 
	C202.560287,8.048223 209.316742,7.933246 216.070618,7.941202 
	C229.733765,7.957296 243.396912,7.994176 257.060059,7.992844 
	C361.369415,7.982672 465.678833,7.895136 569.987976,8.034335 
	C583.869812,8.052860 595.676147,13.366153 604.198486,25.296352 
	C609.721008,34.248680 611.478027,43.721622 611.075073,53.763523 
	C610.942322,57.071186 611.399963,60.398087 611.419128,63.717163 
	C611.470459,72.588196 611.356567,81.460541 611.450195,90.330864 
	C611.522888,97.221642 611.809082,104.110168 611.990112,111.465698 
	C611.974854,116.617813 611.969849,121.303925 611.752197,126.146629 
	C611.707886,126.864487 611.876282,127.425758 612.032288,128.437958 
	C612.021118,131.594940 612.022400,134.300980 611.779907,137.193100 
	C611.705994,138.248169 611.875793,139.117157 612.031372,140.454163 
	C612.325989,148.919800 612.634827,156.917419 612.574707,165.034302 
	C612.157349,168.095261 612.108887,171.036942 612.057373,174.382477 
	C612.291870,176.558655 612.710510,178.328369 612.736206,180.103775 
	C612.860657,188.703476 612.879639,197.304688 612.577942,206.018616 
	C612.141785,208.422867 612.063660,210.713867 611.974243,213.472931 
	C611.979553,254.961960 611.996094,295.982910 611.736206,337.275208 
	C611.647095,340.028595 611.834351,342.510651 612.009155,345.461243 
	C612.002869,351.955200 612.009094,357.980591 611.738647,364.278015 
	C611.667969,367.021362 611.873901,369.492645 612.060181,372.412170 
	C612.047058,375.247498 612.053528,377.634552 611.795410,380.233215 
	C611.688782,381.963654 611.846863,383.482422 611.997131,385.377319 
	C612.000488,386.505981 612.011658,387.258545 611.735779,388.303833 
	C611.362732,395.674164 611.408020,402.756409 611.159485,409.828339 
	C610.801270,420.020294 611.135071,430.363312 609.389343,440.329315 
	C608.433289,445.786957 604.180725,450.866974 600.760864,455.649750 
	C594.526245,464.368988 584.957886,467.227386 574.566406,469.055481 
	C571.186829,469.358063 568.223999,469.961426 565.270691,469.917847 
	C554.143005,469.753723 543.019165,469.184631 531.892517,469.147400 
	C523.600403,469.119659 515.307678,469.881256 507.012817,469.934937 
	C486.929657,470.064911 466.845154,469.988220 446.761169,469.991913 
	C353.376129,470.008972 259.990997,469.977966 166.606064,470.085663 
	C150.153091,470.104645 133.700302,470.988922 117.248260,470.961639 
	C95.631142,470.925812 74.010979,470.007751 52.400005,470.231079 
	C42.957989,470.328674 35.067898,466.834625 26.876385,462.674561 
	C24.977173,460.592621 23.218056,458.818787 21.496567,457.009186 
	C16.094736,451.330994 12.667883,444.397522 11.217196,436.932617 
	C9.932562,430.322144 10.012248,423.380981 10.055439,416.589417 
	C10.239589,387.632172 10.605882,358.675964 10.969198,329.720123 
	C11.069582,321.719788 11.578799,313.721710 11.560345,305.723389 
	C11.537132,295.663513 11.215548,285.602966 10.926942,275.545471 
	C10.686362,267.161560 10.104643,258.783386 10.032806,250.399612 
	C9.887865,233.484177 9.983232,216.566666 9.986523,199.650009 
	C9.988615,188.892685 10.012706,178.135345 10.010773,167.378021 
	C10.004313,131.436752 9.892679,95.495026 10.066678,59.554653 
	C10.099364,52.803150 11.057077,46.028999 11.980123,39.319256 
	C12.519816,35.396149 13.836219,31.579893 14.803202,27.715569 
	C11.550484,31.804722 9.137710,36.208549 7.406432,40.865715 
	C6.875061,42.295113 8.763107,44.473114 8.590204,46.213634 
	C7.964035,52.516968 6.445158,58.758579 6.167398,65.063316 
	C5.738614,74.796112 5.938663,84.563560 6.093249,94.312798 
	C6.206338,101.444916 6.976903,108.573288 6.932631,115.700081 
	C6.743419,146.158356 6.284226,176.614975 6.101758,207.073257 
	C6.056075,214.698776 6.818040,222.325821 6.948373,229.956604 
	C7.106383,239.207809 7.100746,248.465561 6.950277,257.716980 
	C6.847868,264.013489 6.093329,270.305756 6.133272,276.596710 
	C6.196008,286.477570 6.909311,296.355438 6.922364,306.235138 
	C6.933980,315.025879 6.147989,323.816833 6.126177,332.608734 
	C6.107841,339.999542 6.912070,347.390564 6.952036,354.783691 
	C7.070576,376.711426 6.922957,398.640594 7.036720,420.568390 
	C7.065914,426.195404 7.048703,431.945557 8.149576,437.418549 
	C10.443793,448.824158 15.611026,458.689209 26.140400,465.336639 
	C31.556063,468.027893 36.612419,471.670197 42.103554,472.527435 
	C51.318974,473.965973 60.810745,473.641815 70.187065,474.039734 
	C77.648453,474.356445 85.112610,474.920959 92.572784,474.879517 
	C103.869247,474.816772 115.162346,474.137634 126.458748,474.078491 
	C133.921402,474.039398 141.385681,474.835571 148.852097,474.894257 
	C166.606949,475.033783 184.363495,474.967529 202.119354,474.966522 
	C287.229919,474.961578 372.340454,474.949402 457.451019,474.942535 
	C482.344666,474.940521 507.238312,474.949280 532.131958,474.949402 
	C544.131714,474.949463 556.147095,475.313477 568.125793,474.809174 
	C576.499390,474.456665 585.142517,474.029297 592.447876,468.065002 
	C600.487549,466.066620 605.047913,460.178619 609.220093,454.232391 
	C615.139648,445.795776 616.551514,435.788757 616.871033,425.815887 
	C617.286865,412.834473 616.906555,399.828949 617.068542,386.836273 
	C617.088745,385.216431 618.326477,383.611725 619.000000,382.000000 
M177.382462,232.226883 
	C174.636322,231.244446 171.890198,230.262009 168.563049,229.071701 
	C168.308624,231.878708 168.094620,233.166748 168.090958,234.455383 
	C168.068253,242.454254 168.021332,250.454895 168.205383,258.449829 
	C168.225113,259.306488 169.616684,260.758179 170.484573,260.848297 
	C172.852142,261.094116 175.280075,260.758728 177.950684,260.641968 
	C177.950684,257.186920 177.930023,254.364578 177.955917,251.542633 
	C177.988037,248.046280 177.487717,244.400986 178.346832,241.115341 
	C178.795502,239.399399 181.500763,237.545303 183.478653,237.124146 
	C186.628479,236.453400 187.105759,239.132965 187.085724,241.694275 
	C187.055740,245.526917 187.085587,249.360016 187.086975,253.192917 
	C187.090012,261.607025 187.833054,262.179779 196.722610,260.258881 
	C196.800278,258.734283 196.940033,257.111115 196.954575,255.486771 
	C196.991852,251.320877 196.878159,247.151474 197.009735,242.989304 
	C197.102859,240.042679 197.668762,237.329529 201.489304,236.934448 
	C205.839035,236.484619 206.329803,239.635193 206.851318,242.588760 
	C207.165771,244.369659 206.967026,246.243896 206.971527,248.076279 
	C206.981644,252.191071 206.974686,256.305908 206.974686,260.516968 
	C210.322937,260.516968 212.997833,260.516968 215.975433,260.516968 
	C215.975433,253.713745 215.997482,247.393341 215.970123,241.073166 
	C215.931747,232.212921 210.373413,227.435883 201.744720,229.189301 
	C199.445847,229.656448 197.383148,231.285797 195.182999,232.396225 
	C189.052200,227.774445 183.998108,227.701981 177.382462,232.226883 
M249.971664,243.589661 
	C249.970261,232.717941 247.566025,229.544098 238.943939,229.031937 
	C228.496368,228.411346 222.519226,231.915863 221.451904,239.775024 
	C225.060684,239.222260 228.975616,242.174789 231.901489,237.184952 
	C232.583847,236.021210 236.108383,236.265671 238.290268,236.405930 
	C238.899292,236.445084 239.986099,239.277618 239.831100,239.387589 
	C238.342133,240.444168 236.711456,241.454941 234.970795,241.967239 
	C232.296371,242.754364 229.441757,242.934326 226.774246,243.738800 
	C222.272354,245.096451 219.770264,248.233475 220.276382,253.030457 
	C220.815964,258.144684 224.406784,261.888580 229.415695,261.827087 
	C236.393951,261.741455 243.362640,260.877747 249.971588,260.374725 
	C249.971588,255.106842 249.971588,249.833588 249.971664,243.589661 
M415.788879,229.024857 
	C406.320435,230.822159 400.682526,237.377045 401.072174,246.135162 
	C401.451843,254.669464 407.398315,261.218048 415.429230,261.945892 
	C424.171234,262.738190 429.669403,259.137756 431.739349,249.865616 
	C427.934174,251.219971 424.998047,252.545135 421.920502,253.270386 
	C419.524200,253.835083 416.771332,254.261993 414.519501,253.594543 
	C412.945496,253.127975 411.949738,250.710587 410.695709,249.164520 
	C411.023407,248.731995 411.351105,248.299484 411.678833,247.866959 
	C418.593109,247.866959 425.507416,247.866959 432.308685,247.866959 
	C433.852966,238.501038 426.563293,227.565277 415.788879,229.024857 
M521.978638,242.820251 
	C519.987061,232.750763 514.284668,228.209991 504.667542,229.035446 
	C496.346771,229.749649 490.904022,236.600739 491.002533,246.236221 
	C491.090515,254.839691 496.592010,261.230988 504.522552,261.942902 
	C513.204773,262.722321 519.382141,258.803772 520.880920,250.100616 
	C517.163696,251.333725 514.205017,252.569427 511.123962,253.255722 
	C508.723389,253.790436 506.013611,254.210129 503.744202,253.583557 
	C502.379791,253.206833 501.596344,250.725830 499.726440,247.977310 
	C506.979034,247.977310 512.440552,247.805923 517.884583,248.040176 
	C521.268738,248.185776 522.442444,246.854630 521.978638,242.820251 
M134.434784,235.075195 
	C129.022873,243.319687 129.957123,252.274933 136.864517,258.365265 
	C142.372879,263.222046 152.469437,263.270020 158.016876,258.465668 
	C165.076035,252.352158 165.985550,240.984207 159.939651,234.433395 
	C153.029129,226.945755 142.605286,226.988724 134.434784,235.075195 
M123.471329,218.034241 
	C115.862839,218.034241 108.254349,218.034241 100.387939,218.034241 
	C100.387939,221.253342 100.387939,223.806793 100.387939,226.989471 
	C104.595604,226.989471 108.501732,226.989471 113.146851,226.989471 
	C113.146851,238.631363 113.146851,249.664337 113.146851,260.568359 
	C116.817513,260.568359 119.715637,260.568359 123.190460,260.568359 
	C123.190460,249.239868 123.190460,238.333923 123.190460,226.829300 
	C127.671654,226.829300 131.575241,226.829300 135.359070,226.829300 
	C136.663208,218.543762 136.263504,218.041046 128.956558,218.034439 
	C127.457527,218.033081 125.958504,218.034302 123.471329,218.034241 
M306.436676,237.286942 
	C306.066284,238.387405 305.493744,239.463684 305.358734,240.592300 
	C304.551605,247.338379 304.280273,254.038025 310.559296,258.686157 
	C316.665894,263.206635 323.281189,263.143097 329.734894,259.688934 
	C335.833527,256.424835 338.253876,249.717102 336.899597,241.544174 
	C335.851715,235.220276 331.714661,230.847748 325.337372,229.323898 
	C317.866364,227.538666 311.197144,230.150513 306.436676,237.286942 
M449.932983,237.110016 
	C455.679962,236.935623 456.904938,238.057297 456.980560,243.882843 
	C457.052979,249.459244 456.996124,255.037308 456.996124,260.622803 
	C460.390961,260.622803 462.952942,260.622803 465.472961,260.622803 
	C465.698883,259.795074 465.934448,259.328461 465.937622,258.860260 
	C465.977020,253.044800 466.022705,247.228836 465.988129,241.413483 
	C465.925720,230.914627 458.547302,226.230927 448.936310,230.451859 
	C447.766937,230.965424 446.282562,231.023209 444.977386,230.909851 
	C442.505219,230.695145 440.057190,230.202988 437.283081,229.777634 
	C437.283081,240.606079 437.283081,250.482498 437.283081,260.545715 
	C440.276978,260.545715 442.944916,260.545715 445.983521,260.545715 
	C445.983521,254.960541 445.647736,249.796692 446.126465,244.709488 
	C446.362732,242.198837 448.102692,239.829697 449.932983,237.110016 
M271.006805,245.563156 
	C271.185028,255.286194 276.793549,261.687317 285.410583,261.956757 
	C294.026337,262.226166 301.728058,257.170135 301.233887,249.435913 
	C295.281677,248.551056 295.281677,248.551071 290.659485,252.883682 
	C287.764648,255.597153 284.127655,255.422089 282.164062,252.212097 
	C279.876953,248.473236 279.214203,244.445145 281.380615,240.365555 
	C283.644623,236.102203 288.533325,234.395660 290.592194,237.631348 
	C293.628265,242.402802 297.406464,240.906128 301.346497,240.726379 
	C300.705719,235.555176 299.338989,233.328293 295.706177,231.348434 
	C283.812317,224.866394 272.386139,231.041931 271.006805,245.563156 
M484.679688,229.908859 
	C483.813049,227.121567 482.946381,224.334274 482.005035,221.306793 
	C479.699890,221.306793 477.137329,221.306793 474.313477,221.306793 
	C474.098236,224.200424 473.905975,226.785568 473.707336,229.456085 
	C472.089447,229.863144 470.701111,230.212448 469.009094,230.638153 
	C469.108612,232.415634 469.196777,233.990234 469.275940,235.404251 
	C471.091675,235.951111 472.459351,236.363007 474.000305,236.827087 
	C474.000305,242.702332 473.985992,248.351608 474.005249,254.000763 
	C474.018463,257.879364 475.897247,260.430969 479.773590,260.883362 
	C482.663300,261.220612 485.623901,260.949829 488.681732,260.949829 
	C488.681732,258.353668 488.681732,256.445465 488.681732,255.777756 
	C486.259033,253.808701 483.456421,252.652969 483.279388,251.181381 
	C482.694824,246.322296 483.059052,241.349060 483.059052,236.460571 
	C485.353455,236.094284 486.947601,235.839798 488.891174,235.529526 
	C488.766083,232.826111 490.208984,229.705185 484.679688,229.908859 
M380.837799,237.972809 
	C385.540100,237.414001 386.025879,236.186691 383.967621,228.466125 
	C380.771118,229.540100 377.634003,230.594116 376.063995,231.121628 
	C371.805817,230.578323 368.738495,230.186981 365.286041,229.746475 
	C365.286041,240.565460 365.286041,250.463013 365.286041,260.537018 
	C368.283722,260.537018 370.959259,260.537018 373.994995,260.537018 
	C373.994995,255.428238 373.889984,250.774185 374.026917,246.127274 
	C374.144592,242.134796 375.806213,239.088837 380.837799,237.972809 
M347.986298,229.996902 
	C346.084717,230.097687 344.183167,230.198486 342.370117,230.294586 
	C342.370117,240.804779 342.370117,250.667130 342.370117,260.656189 
	C345.312927,260.656189 347.867828,260.656189 350.999786,260.656189 
	C350.999786,255.722076 350.918701,251.119827 351.020782,246.521652 
	C351.142181,241.051895 353.723724,238.399841 359.047516,237.923080 
	C359.972290,237.840240 360.872192,237.479309 361.725769,237.261566 
	C361.725769,234.542496 361.725769,232.110855 361.725769,228.364807 
	C357.864532,229.601898 354.635254,230.636505 351.182343,231.742767 
	C350.734711,231.418106 349.764709,230.714539 347.986298,229.996902 
M388.004730,232.805923 
	C388.004730,242.059174 388.004730,251.312424 388.004730,260.638611 
	C391.352142,260.638611 393.916840,260.638611 396.679688,260.638611 
	C396.679688,250.383774 396.679688,240.493637 396.679688,229.168274 
	C393.367737,230.210999 390.711090,231.047424 388.004730,232.805923 
M388.975403,218.328568 
	C388.630310,220.734085 388.285248,223.139603 387.937500,225.563553 
	C391.498444,225.563553 394.051941,225.563553 396.542206,225.563553 
	C397.527618,217.942780 397.527618,217.942780 388.975403,218.328568 
M16.133284,23.411915 
	C15.879506,24.058441 15.625729,24.704966 15.371951,25.351492 
	C15.201474,25.088993 15.030997,24.826496 14.860521,24.563997 
	C19.637283,20.193451 24.414043,15.822906 29.612940,11.066125 
	C23.794043,13.887788 19.943432,18.127918 16.133284,23.411915 
M33.187237,10.574657 
	C33.192345,10.203537 33.197456,9.832417 33.202568,9.461296 
	C33.048336,9.460215 32.760220,9.448176 32.759281,9.459641 
	C32.729076,9.828708 32.726604,10.200044 33.187237,10.574657 
z"/>
<path fill="#E1E1E1" opacity="1.000000" stroke="none" 
	d="
M612.079773,371.963898 
	C611.873901,369.492645 611.667969,367.021362 612.027466,364.396851 
	C614.023926,363.821625 615.454956,363.399628 616.885925,362.977631 
	C616.921570,366.779022 616.849915,370.585938 617.045837,374.379028 
	C617.123779,375.886383 617.794983,377.363098 618.598022,378.926880 
	C619.000000,379.750000 619.000000,380.500000 619.000000,381.625000 
	C618.326477,383.611725 617.088745,385.216431 617.068542,386.836273 
	C616.906555,399.828949 617.286865,412.834473 616.871033,425.815887 
	C616.551514,435.788757 615.139648,445.795776 609.220093,454.232391 
	C605.047913,460.178619 600.487549,466.066620 592.215942,467.782288 
	C589.276672,468.072327 586.955078,468.985260 584.598328,469.087616 
	C581.411011,469.226013 578.142944,473.171967 574.987488,469.059235 
	C584.957886,467.227386 594.526245,464.368988 600.760864,455.649750 
	C604.180725,450.866974 608.433289,445.786957 609.389343,440.329315 
	C611.135071,430.363312 610.801270,420.020294 611.159485,409.828339 
	C611.408020,402.756409 611.362732,395.674164 611.993408,388.513092 
	C612.984619,389.163696 613.431152,389.897736 614.497986,391.651459 
	C614.815918,388.065887 616.560669,385.243561 612.004883,385.001221 
	C611.846863,383.482422 611.688782,381.963654 612.122437,380.368713 
	C613.453491,380.011505 614.820618,379.760101 614.835510,379.444855 
	C614.991943,376.132843 614.932251,372.810638 614.932251,368.043274 
	C613.327637,370.248779 612.703674,371.106354 612.079773,371.963898 
z"/>
<path fill="#DADADA" opacity="1.000000" stroke="none" 
	d="
M574.566406,469.055481 
	C578.142944,473.171967 581.411011,469.226013 584.598328,469.087616 
	C586.955078,468.985260 589.276672,468.072327 591.845825,467.803284 
	C585.142517,474.029297 576.499390,474.456665 568.125793,474.809174 
	C556.147095,475.313477 544.131714,474.949463 532.131958,474.949402 
	C507.238312,474.949280 482.344666,474.940521 457.451019,474.942535 
	C372.340454,474.949402 287.229919,474.961578 202.119354,474.966522 
	C184.363495,474.967529 166.606949,475.033783 148.852097,474.894257 
	C141.385681,474.835571 133.921402,474.039398 126.458748,474.078491 
	C115.162346,474.137634 103.869247,474.816772 92.572784,474.879517 
	C85.112610,474.920959 77.648453,474.356445 70.187065,474.039734 
	C60.810745,473.641815 51.318974,473.965973 42.103554,472.527435 
	C36.612419,471.670197 31.556063,468.027893 26.169437,465.028839 
	C26.367659,463.935455 26.700686,463.450867 27.033710,462.966278 
	C35.067898,466.834625 42.957989,470.328674 52.400005,470.231079 
	C74.010979,470.007751 95.631142,470.925812 117.248260,470.961639 
	C133.700302,470.988922 150.153091,470.104645 166.606064,470.085663 
	C259.990997,469.977966 353.376129,470.008972 446.761169,469.991913 
	C466.845154,469.988220 486.929657,470.064911 507.012817,469.934937 
	C515.307678,469.881256 523.600403,469.119659 531.892517,469.147400 
	C543.019165,469.184631 554.143005,469.753723 565.270691,469.917847 
	C568.223999,469.961426 571.186829,469.358063 574.566406,469.055481 
z"/>
<path fill="#DADADA" opacity="1.000000" stroke="none" 
	d="
M604.082031,24.966381 
	C595.676147,13.366153 583.869812,8.052860 569.987976,8.034335 
	C465.678833,7.895136 361.369415,7.982672 257.060059,7.992844 
	C243.396912,7.994176 229.733765,7.957296 216.070618,7.941202 
	C209.316742,7.933246 202.560287,8.048223 195.809616,7.899173 
	C187.178970,7.708616 178.552948,7.307707 169.464020,6.739879 
	C169.003098,6.482306 169.003067,6.003319 169.300903,6.002725 
	C170.126099,5.916958 170.653427,5.831786 171.180771,5.746614 
	C171.111862,5.533557 171.042969,5.320501 170.974060,5.107445 
	C170.315384,5.403973 169.656708,5.700500 168.620178,5.996111 
	C167.154434,5.315125 166.066544,4.635055 164.978653,3.954985 
	C176.274857,3.650798 187.570328,3.121867 198.867416,3.084014 
	C234.619949,2.964218 270.373108,3.020705 306.126007,3.023203 
	C334.120605,3.025160 362.115601,2.953024 390.109680,3.081638 
	C448.972473,3.352073 507.834778,3.724660 566.697144,4.075736 
	C577.316284,4.139072 587.640747,6.412579 596.599060,11.850120 
	C600.941345,14.485822 603.482788,20.088318 606.610474,24.670540 
	C605.614929,24.984419 604.848511,24.975401 604.082031,24.966381 
z"/>
<path fill="#E1E1E1" opacity="1.000000" stroke="none" 
	d="
M26.876389,462.674561 
	C26.700686,463.450867 26.367659,463.935455 26.005592,464.727844 
	C15.611026,458.689209 10.443793,448.824158 8.149576,437.418549 
	C7.048703,431.945557 7.065914,426.195404 7.036720,420.568390 
	C6.922957,398.640594 7.070576,376.711426 6.952036,354.783691 
	C6.912070,347.390564 6.107841,339.999542 6.126177,332.608734 
	C6.147989,323.816833 6.933980,315.025879 6.922364,306.235138 
	C6.909311,296.355438 6.196008,286.477570 6.133272,276.596710 
	C6.093329,270.305756 6.847868,264.013489 6.950277,257.716980 
	C7.100746,248.465561 7.106383,239.207809 6.948373,229.956604 
	C6.818040,222.325821 6.056075,214.698776 6.101758,207.073257 
	C6.284226,176.614975 6.743419,146.158356 6.932631,115.700081 
	C6.976903,108.573288 6.206338,101.444916 6.093249,94.312798 
	C5.938663,84.563560 5.738614,74.796112 6.167398,65.063316 
	C6.445158,58.758579 7.964035,52.516968 8.590204,46.213634 
	C8.763107,44.473114 6.875061,42.295113 7.406432,40.865715 
	C9.137710,36.208549 11.550484,31.804722 14.803202,27.715569 
	C13.836219,31.579893 12.519816,35.396149 11.980123,39.319256 
	C11.057077,46.028999 10.099364,52.803150 10.066678,59.554653 
	C9.892679,95.495026 10.004313,131.436752 10.010773,167.378021 
	C10.012706,178.135345 9.988615,188.892685 9.986523,199.650009 
	C9.983232,216.566666 9.887865,233.484177 10.032806,250.399612 
	C10.104643,258.783386 10.686362,267.161560 10.926942,275.545471 
	C11.215548,285.602966 11.537132,295.663513 11.560345,305.723389 
	C11.578799,313.721710 11.069582,321.719788 10.969198,329.720123 
	C10.605882,358.675964 10.239589,387.632172 10.055439,416.589417 
	C10.012248,423.380981 9.932562,430.322144 11.217196,436.932617 
	C12.667883,444.397522 16.094736,451.330994 21.496567,457.009186 
	C23.218056,458.818787 24.977173,460.592621 26.876389,462.674561 
z"/>
<path fill="#DADADA" opacity="1.000000" stroke="none" 
	d="
M616.913696,362.511597 
	C615.454956,363.399628 614.023926,363.821625 612.304138,364.124756 
	C612.009094,357.980591 612.002869,351.955200 612.288818,345.193176 
	C612.391602,341.972290 612.202148,339.488068 612.012695,337.003876 
	C611.996094,295.982910 611.979553,254.961960 612.265625,213.203156 
	C612.690796,210.278656 612.813354,208.092010 612.935974,205.905365 
	C612.879639,197.304688 612.860657,188.703476 612.736206,180.103775 
	C612.710510,178.328369 612.291870,176.558655 612.335693,174.096436 
	C612.725952,170.576050 612.834778,167.745529 612.943604,164.915024 
	C612.634827,156.917419 612.325989,148.919800 612.271851,140.268555 
	C612.358887,138.745605 612.191284,137.876312 612.023682,137.007019 
	C612.022400,134.300980 612.021118,131.594940 612.251465,128.287292 
	C612.310425,127.120476 612.137634,126.555260 611.964844,125.990036 
	C611.969849,121.303925 611.974854,116.617813 612.256348,111.242813 
	C613.364624,109.366302 614.196411,108.178665 615.028137,106.991028 
	C615.332031,111.708389 615.635864,116.425758 615.658936,121.862518 
	C615.585449,125.054619 615.792725,127.527313 616.000000,130.000000 
	C616.010132,134.023041 616.020264,138.046097 615.759338,142.741180 
	C615.660828,144.609436 615.833374,145.805634 616.005920,147.001831 
	C616.007996,157.689560 616.010132,168.377274 615.754517,179.716614 
	C615.657532,181.243454 615.818298,182.118698 615.979004,182.993942 
	C616.299805,242.677826 616.620667,302.361694 616.913696,362.511597 
z"/>
<path fill="#D6D6D6" opacity="1.000000" stroke="none" 
	d="
M177.728088,232.209808 
	C183.998108,227.701981 189.052200,227.774445 195.182999,232.396225 
	C197.383148,231.285797 199.445847,229.656448 201.744720,229.189301 
	C210.373413,227.435883 215.931747,232.212921 215.970123,241.073166 
	C215.997482,247.393341 215.975433,253.713745 215.975433,260.516968 
	C212.997833,260.516968 210.322937,260.516968 206.974686,260.516968 
	C206.974686,256.305908 206.981644,252.191071 206.971527,248.076279 
	C206.967026,246.243896 207.165771,244.369659 206.851318,242.588760 
	C206.329803,239.635193 205.839035,236.484619 201.489304,236.934448 
	C197.668762,237.329529 197.102859,240.042679 197.009735,242.989304 
	C196.878159,247.151474 196.991852,251.320877 196.954575,255.486771 
	C196.940033,257.111115 196.800278,258.734283 196.722610,260.258881 
	C187.833054,262.179779 187.090012,261.607025 187.086975,253.192917 
	C187.085587,249.360016 187.055740,245.526917 187.085724,241.694275 
	C187.105759,239.132965 186.628479,236.453400 183.478653,237.124146 
	C181.500763,237.545303 178.795502,239.399399 178.346832,241.115341 
	C177.487717,244.400986 177.988037,248.046280 177.955917,251.542633 
	C177.930023,254.364578 177.950684,257.186920 177.950684,260.641968 
	C175.280075,260.758728 172.852142,261.094116 170.484573,260.848297 
	C169.616684,260.758179 168.225113,259.306488 168.205383,258.449829 
	C168.021332,250.454895 168.068253,242.454254 168.090958,234.455383 
	C168.094620,233.166748 168.308624,231.878708 168.563049,229.071701 
	C171.890198,230.262009 174.636322,231.244446 177.728088,232.209808 
z"/>
<path fill="#D6D6D6" opacity="1.000000" stroke="none" 
	d="
M249.971619,244.075012 
	C249.971588,249.833588 249.971588,255.106842 249.971588,260.374725 
	C243.362640,260.877747 236.393951,261.741455 229.415695,261.827087 
	C224.406784,261.888580 220.815964,258.144684 220.276382,253.030457 
	C219.770264,248.233475 222.272354,245.096451 226.774246,243.738800 
	C229.441757,242.934326 232.296371,242.754364 234.970795,241.967239 
	C236.711456,241.454941 238.342133,240.444168 239.831100,239.387589 
	C239.986099,239.277618 238.899292,236.445084 238.290268,236.405930 
	C236.108383,236.265671 232.583847,236.021210 231.901489,237.184952 
	C228.975616,242.174789 225.060684,239.222260 221.451904,239.775024 
	C222.519226,231.915863 228.496368,228.411346 238.943939,229.031937 
	C247.566025,229.544098 249.970261,232.717941 249.971619,244.075012 
M232.965302,248.172211 
	C232.125534,250.022385 231.285767,251.872574 230.446014,253.722778 
	C232.202194,254.338455 234.176468,255.792953 235.671555,255.404266 
	C239.379028,254.440414 241.251526,251.677734 240.540604,246.965042 
	C238.146164,247.338654 235.953125,247.680832 232.965302,248.172211 
z"/>
<path fill="#D6D6D6" opacity="1.000000" stroke="none" 
	d="
M416.214539,229.018707 
	C426.563293,227.565277 433.852966,238.501038 432.308685,247.866959 
	C425.507416,247.866959 418.593109,247.866959 411.678833,247.866959 
	C411.351105,248.299484 411.023407,248.731995 410.695709,249.164520 
	C411.949738,250.710587 412.945496,253.127975 414.519501,253.594543 
	C416.771332,254.261993 419.524200,253.835083 421.920502,253.270386 
	C424.998047,252.545135 427.934174,251.219971 431.739349,249.865616 
	C429.669403,259.137756 424.171234,262.738190 415.429230,261.945892 
	C407.398315,261.218048 401.451843,254.669464 401.072174,246.135162 
	C400.682526,237.377045 406.320435,230.822159 416.214539,229.018707 
M411.496765,239.247910 
	C412.014465,240.151169 412.473083,241.788300 413.059692,241.835556 
	C416.251617,242.092590 419.475067,241.957718 422.929810,241.957718 
	C420.756317,235.201920 417.594788,234.475189 411.496765,239.247910 
z"/>
<path fill="#D6D6D6" opacity="1.000000" stroke="none" 
	d="
M521.987305,243.252869 
	C522.442444,246.854630 521.268738,248.185776 517.884583,248.040176 
	C512.440552,247.805923 506.979034,247.977310 499.726440,247.977310 
	C501.596344,250.725830 502.379791,253.206833 503.744202,253.583557 
	C506.013611,254.210129 508.723389,253.790436 511.123962,253.255722 
	C514.205017,252.569427 517.163696,251.333725 520.880920,250.100616 
	C519.382141,258.803772 513.204773,262.722321 504.522552,261.942902 
	C496.592010,261.230988 491.090515,254.839691 491.002533,246.236221 
	C490.904022,236.600739 496.346771,229.749649 504.667542,229.035446 
	C514.284668,228.209991 519.987061,232.750763 521.987305,243.252869 
M500.393646,240.853806 
	C504.390900,241.334915 508.388153,241.816025 512.385437,242.297134 
	C512.661194,241.546692 512.936951,240.796249 513.212708,240.045807 
	C511.234589,238.715820 509.197296,236.248810 507.293518,236.347900 
	C504.989685,236.467773 502.798798,238.758850 500.393646,240.853806 
z"/>
<path fill="#D6D6D6" opacity="1.000000" stroke="none" 
	d="
M134.692871,234.805786 
	C142.605286,226.988724 153.029129,226.945755 159.939651,234.433395 
	C165.985550,240.984207 165.076035,252.352158 158.016876,258.465668 
	C152.469437,263.270020 142.372879,263.222046 136.864517,258.365265 
	C129.957123,252.274933 129.022873,243.319687 134.692871,234.805786 
M152.665817,251.850479 
	C153.122116,250.480438 153.875793,249.133591 153.984772,247.736450 
	C154.545715,240.545380 151.825455,235.886139 147.333969,236.025604 
	C142.995804,236.160339 140.223480,240.571945 141.153000,247.544846 
	C141.488785,250.063766 143.582184,252.982742 145.740570,254.375320 
	C146.945572,255.152771 149.930573,253.171326 152.665817,251.850479 
z"/>
<path fill="#D6D6D6" opacity="1.000000" stroke="none" 
	d="
M123.965401,218.034286 
	C125.958504,218.034302 127.457527,218.033081 128.956558,218.034439 
	C136.263504,218.041046 136.663208,218.543762 135.359070,226.829300 
	C131.575241,226.829300 127.671654,226.829300 123.190460,226.829300 
	C123.190460,238.333923 123.190460,249.239868 123.190460,260.568359 
	C119.715637,260.568359 116.817513,260.568359 113.146851,260.568359 
	C113.146851,249.664337 113.146851,238.631363 113.146851,226.989471 
	C108.501732,226.989471 104.595604,226.989471 100.387939,226.989471 
	C100.387939,223.806793 100.387939,221.253342 100.387939,218.034241 
	C108.254349,218.034241 115.862839,218.034241 123.965401,218.034286 
z"/>
<path fill="#D6D6D6" opacity="1.000000" stroke="none" 
	d="
M306.610046,236.938538 
	C311.197144,230.150513 317.866364,227.538666 325.337372,229.323898 
	C331.714661,230.847748 335.851715,235.220276 336.899597,241.544174 
	C338.253876,249.717102 335.833527,256.424835 329.734894,259.688934 
	C323.281189,263.143097 316.665894,263.206635 310.559296,258.686157 
	C304.280273,254.038025 304.551605,247.338379 305.358734,240.592300 
	C305.493744,239.463684 306.066284,238.387405 306.610046,236.938538 
M316.503357,252.932541 
	C319.038055,255.134018 321.808075,255.788528 324.593231,253.602249 
	C328.145020,250.814240 328.886169,246.668549 327.583374,242.866867 
	C326.697998,240.283447 324.245270,237.348236 321.817169,236.495117 
	C320.199493,235.926727 316.496643,238.204742 315.305267,240.167007 
	C312.968140,244.016403 313.518616,248.411713 316.503357,252.932541 
z"/>
<path fill="#D6D6D6" opacity="1.000000" stroke="none" 
	d="
M449.547638,237.253265 
	C448.102692,239.829697 446.362732,242.198837 446.126465,244.709488 
	C445.647736,249.796692 445.983521,254.960541 445.983521,260.545715 
	C442.944916,260.545715 440.276978,260.545715 437.283081,260.545715 
	C437.283081,250.482498 437.283081,240.606079 437.283081,229.777634 
	C440.057190,230.202988 442.505219,230.695145 444.977386,230.909851 
	C446.282562,231.023209 447.766937,230.965424 448.936310,230.451859 
	C458.547302,226.230927 465.925720,230.914627 465.988129,241.413483 
	C466.022705,247.228836 465.977020,253.044800 465.937622,258.860260 
	C465.934448,259.328461 465.698883,259.795074 465.472961,260.622803 
	C462.952942,260.622803 460.390961,260.622803 456.996124,260.622803 
	C456.996124,255.037308 457.052979,249.459244 456.980560,243.882843 
	C456.904938,238.057297 455.679962,236.935623 449.547638,237.253265 
z"/>
<path fill="#D6D6D6" opacity="1.000000" stroke="none" 
	d="
M271.010498,245.128494 
	C272.386139,231.041931 283.812317,224.866394 295.706177,231.348434 
	C299.338989,233.328293 300.705719,235.555176 301.346497,240.726379 
	C297.406464,240.906128 293.628265,242.402802 290.592194,237.631348 
	C288.533325,234.395660 283.644623,236.102203 281.380615,240.365555 
	C279.214203,244.445145 279.876953,248.473236 282.164062,252.212097 
	C284.127655,255.422089 287.764648,255.597153 290.659485,252.883682 
	C295.281677,248.551071 295.281677,248.551056 301.233887,249.435913 
	C301.728058,257.170135 294.026337,262.226166 285.410583,261.956757 
	C276.793549,261.687317 271.185028,255.286194 271.010498,245.128494 
z"/>
<path fill="#D6D6D6" opacity="1.000000" stroke="none" 
	d="
M485.109680,229.944092 
	C490.208984,229.705185 488.766083,232.826111 488.891174,235.529526 
	C486.947601,235.839798 485.353455,236.094284 483.059052,236.460571 
	C483.059052,241.349060 482.694824,246.322296 483.279388,251.181381 
	C483.456421,252.652969 486.259033,253.808701 488.681732,255.777756 
	C488.681732,256.445465 488.681732,258.353668 488.681732,260.949829 
	C485.623901,260.949829 482.663300,261.220612 479.773590,260.883362 
	C475.897247,260.430969 474.018463,257.879364 474.005249,254.000763 
	C473.985992,248.351608 474.000305,242.702332 474.000305,236.827087 
	C472.459351,236.363007 471.091675,235.951111 469.275940,235.404251 
	C469.196777,233.990234 469.108612,232.415634 469.009094,230.638153 
	C470.701111,230.212448 472.089447,229.863144 473.707336,229.456085 
	C473.905975,226.785568 474.098236,224.200424 474.313477,221.306793 
	C477.137329,221.306793 479.699890,221.306793 482.005035,221.306793 
	C482.946381,224.334274 483.813049,227.121567 485.109680,229.944092 
z"/>
<path fill="#E1E1E1" opacity="1.000000" stroke="none" 
	d="
M615.187866,106.608215 
	C614.196411,108.178665 613.364624,109.366302 612.266602,110.776810 
	C611.809082,104.110168 611.522888,97.221642 611.450195,90.330864 
	C611.356567,81.460541 611.470459,72.588196 611.419128,63.717163 
	C611.399963,60.398087 610.942322,57.071186 611.075073,53.763523 
	C611.478027,43.721622 609.721008,34.248680 604.198486,25.296350 
	C604.848511,24.975401 605.614929,24.984419 606.769653,24.986738 
	C617.250671,36.403736 616.053894,50.311066 615.803589,64.033852 
	C615.699890,69.718254 615.883118,75.407471 615.815613,81.093063 
	C615.716064,89.471176 615.508911,97.848022 615.187866,106.608215 
z"/>
<path fill="#D6D6D6" opacity="1.000000" stroke="none" 
	d="
M380.421265,237.990234 
	C375.806213,239.088837 374.144592,242.134796 374.026917,246.127274 
	C373.889984,250.774185 373.994995,255.428238 373.994995,260.537018 
	C370.959259,260.537018 368.283722,260.537018 365.286041,260.537018 
	C365.286041,250.463013 365.286041,240.565460 365.286041,229.746475 
	C368.738495,230.186981 371.805817,230.578323 376.063995,231.121628 
	C377.634003,230.594116 380.771118,229.540100 383.967621,228.466125 
	C386.025879,236.186691 385.540100,237.414001 380.421265,237.990234 
z"/>
<path fill="#D6D6D6" opacity="1.000000" stroke="none" 
	d="
M348.390503,230.003937 
	C349.764709,230.714539 350.734711,231.418106 351.182343,231.742767 
	C354.635254,230.636505 357.864532,229.601898 361.725769,228.364807 
	C361.725769,232.110855 361.725769,234.542496 361.725769,237.261566 
	C360.872192,237.479309 359.972290,237.840240 359.047516,237.923080 
	C353.723724,238.399841 351.142181,241.051895 351.020782,246.521652 
	C350.918701,251.119827 350.999786,255.722076 350.999786,260.656189 
	C347.867828,260.656189 345.312927,260.656189 342.370117,260.656189 
	C342.370117,250.667130 342.370117,240.804779 342.370117,230.294586 
	C344.183167,230.198486 346.084717,230.097687 348.390503,230.003937 
z"/>
<path fill="#D6D6D6" opacity="1.000000" stroke="none" 
	d="
M388.029572,232.344894 
	C390.711090,231.047424 393.367737,230.210999 396.679688,229.168274 
	C396.679688,240.493637 396.679688,250.383774 396.679688,260.638611 
	C393.916840,260.638611 391.352142,260.638611 388.004730,260.638611 
	C388.004730,251.312424 388.004730,242.059174 388.029572,232.344894 
z"/>
<path fill="#E1E1E1" opacity="1.000000" stroke="none" 
	d="
M149.002304,6.977494 
	C141.031921,6.631758 133.063797,6.216738 125.090630,5.956728 
	C113.489334,5.578401 101.884529,5.306440 90.280853,5.003463 
	C88.625954,4.960253 86.968956,4.997481 85.312935,4.997481 
	C85.303024,4.546726 85.293114,4.095970 85.283211,3.645215 
	C104.563705,3.458061 123.844208,3.270906 143.675903,3.493046 
	C147.105896,4.437877 149.984680,4.973413 152.778885,5.493213 
	C151.585709,5.962157 150.294006,6.469826 149.002304,6.977494 
z"/>
<path fill="#D6D6D6" opacity="1.000000" stroke="none" 
	d="
M389.403748,218.215424 
	C397.527618,217.942780 397.527618,217.942780 396.542206,225.563553 
	C394.051941,225.563553 391.498444,225.563553 387.937500,225.563553 
	C388.285248,223.139603 388.630310,220.734085 389.403748,218.215424 
z"/>
<path fill="#E1E1E1" opacity="1.000000" stroke="none" 
	d="
M16.339195,23.150013 
	C19.943432,18.127918 23.794043,13.887788 29.612940,11.066125 
	C24.414043,15.822906 19.637283,20.193451 14.860521,24.563997 
	C15.030997,24.826496 15.201474,25.088993 15.371951,25.351492 
	C15.625729,24.704966 15.879506,24.058441 16.339195,23.150013 
z"/>
<path fill="#DADADA" opacity="1.000000" stroke="none" 
	d="
M149.445831,6.994828 
	C150.294006,6.469826 151.585709,5.962157 152.778885,5.493213 
	C149.984680,4.973413 147.105896,4.437877 144.142120,3.535203 
	C147.879501,3.148928 151.703125,3.064324 155.523697,3.138241 
	C157.437241,3.175262 159.345200,3.501293 161.598938,4.174274 
	C160.294189,5.436900 158.646179,6.221865 156.998169,7.006829 
	C154.628555,7.008607 152.258957,7.010385 149.445831,6.994828 
z"/>
<path fill="#DADADA" opacity="1.000000" stroke="none" 
	d="
M612.060181,372.412170 
	C612.703674,371.106354 613.327637,370.248779 614.932251,368.043274 
	C614.932251,372.810638 614.991943,376.132843 614.835510,379.444855 
	C614.820618,379.760101 613.453491,380.011505 612.387085,380.157074 
	C612.053528,377.634552 612.047058,375.247498 612.060181,372.412170 
z"/>
<path fill="#E1E1E1" opacity="1.000000" stroke="none" 
	d="
M157.291656,7.291297 
	C158.646179,6.221865 160.294189,5.436900 161.969879,4.329597 
	C162.743134,3.987375 163.488693,3.967490 164.606461,3.951295 
	C166.066544,4.635055 167.154434,5.315125 168.621155,5.997608 
	C169.000000,6.000021 169.003067,6.003319 169.003067,6.003319 
	C169.003067,6.003319 169.003098,6.482306 169.001709,6.721400 
	C165.195267,7.165584 161.390213,7.370675 157.291656,7.291297 
z"/>
<path fill="#E1E1E1" opacity="1.000000" stroke="none" 
	d="
M612.574707,165.034302 
	C612.834778,167.745529 612.725952,170.576050 612.338745,173.692596 
	C612.108887,171.036942 612.157349,168.095261 612.574707,165.034302 
z"/>
<path fill="#E1E1E1" opacity="1.000000" stroke="none" 
	d="
M611.736206,337.275208 
	C612.202148,339.488068 612.391602,341.972290 612.301331,344.724579 
	C611.834351,342.510651 611.647095,340.028595 611.736206,337.275208 
z"/>
<path fill="#E1E1E1" opacity="1.000000" stroke="none" 
	d="
M616.274414,129.726196 
	C615.792725,127.527313 615.585449,125.054619 615.642212,122.307465 
	C616.120361,124.506142 616.334656,126.979263 616.274414,129.726196 
z"/>
<path fill="#DADADA" opacity="1.000000" stroke="none" 
	d="
M611.997070,385.377319 
	C616.560669,385.243561 614.815918,388.065887 614.497986,391.651459 
	C613.431152,389.897736 612.984619,389.163696 612.280457,388.220398 
	C612.011658,387.258545 612.000488,386.505981 611.997070,385.377319 
z"/>
<path fill="#E1E1E1" opacity="1.000000" stroke="none" 
	d="
M612.577942,206.018616 
	C612.813354,208.092010 612.690796,210.278656 612.276855,212.735092 
	C612.063660,210.713867 612.141785,208.422867 612.577942,206.018616 
z"/>
<path fill="#E1E1E1" opacity="1.000000" stroke="none" 
	d="
M616.256287,146.785248 
	C615.833374,145.805634 615.660828,144.609436 615.752319,143.204010 
	C616.179749,144.186066 616.343201,145.377350 616.256287,146.785248 
z"/>
<path fill="#E1E1E1" opacity="1.000000" stroke="none" 
	d="
M616.222778,182.808594 
	C615.818298,182.118698 615.657532,181.243454 615.744324,180.185333 
	C616.150024,180.876038 616.308228,181.749649 616.222778,182.808594 
z"/>
<path fill="#E1E1E1" opacity="1.000000" stroke="none" 
	d="
M611.779907,137.193100 
	C612.191284,137.876312 612.358887,138.745605 612.286011,139.800537 
	C611.875793,139.117157 611.705994,138.248169 611.779907,137.193100 
z"/>
<path fill="#E1E1E1" opacity="1.000000" stroke="none" 
	d="
M611.752136,126.146622 
	C612.137634,126.555260 612.310425,127.120476 612.263916,127.836365 
	C611.876282,127.425758 611.707886,126.864487 611.752136,126.146622 
z"/>
<path fill="#E1E1E1" opacity="1.000000" stroke="none" 
	d="
M32.953606,10.572849 
	C32.726604,10.200044 32.729076,9.828708 32.759281,9.459641 
	C32.760220,9.448176 33.048336,9.460215 33.202568,9.461296 
	C33.197456,9.832417 33.192345,10.203537 32.953606,10.572849 
z"/>
<path fill="#E1E1E1" opacity="1.000000" stroke="none" 
	d="
M168.999023,5.998525 
	C169.656708,5.700500 170.315384,5.403973 170.974060,5.107445 
	C171.042969,5.320501 171.111862,5.533557 171.180771,5.746614 
	C170.653427,5.831786 170.126099,5.916958 169.300903,6.002725 
	C169.003067,6.003319 169.000000,6.000021 168.999023,5.998525 
z"/>
<path fill="#FFFFFF" opacity="1.000000" stroke="none" 
	d="
M233.362686,248.097626 
	C235.953125,247.680832 238.146164,247.338654 240.540604,246.965042 
	C241.251526,251.677734 239.379028,254.440414 235.671555,255.404266 
	C234.176468,255.792953 232.202194,254.338455 230.446014,253.722778 
	C231.285767,251.872574 232.125534,250.022385 233.362686,248.097626 
z"/>
<path fill="#FFFFFF" opacity="1.000000" stroke="none" 
	d="
M411.726868,238.929901 
	C417.594788,234.475189 420.756317,235.201920 422.929810,241.957718 
	C419.475067,241.957718 416.251617,242.092590 413.059692,241.835556 
	C412.473083,241.788300 412.014465,240.151169 411.726868,238.929901 
z"/>
<path fill="#FFFFFF" opacity="1.000000" stroke="none" 
	d="
M500.476318,240.482086 
	C502.798798,238.758850 504.989685,236.467773 507.293518,236.347900 
	C509.197296,236.248810 511.234589,238.715820 513.212708,240.045807 
	C512.936951,240.796249 512.661194,241.546692 512.385437,242.297134 
	C508.388153,241.816025 504.390900,241.334915 500.476318,240.482086 
z"/>
<path fill="#FFFFFF" opacity="1.000000" stroke="none" 
	d="
M152.389648,252.141785 
	C149.930573,253.171326 146.945572,255.152771 145.740570,254.375320 
	C143.582184,252.982742 141.488785,250.063766 141.153000,247.544846 
	C140.223480,240.571945 142.995804,236.160339 147.333969,236.025604 
	C151.825455,235.886139 154.545715,240.545380 153.984772,247.736450 
	C153.875793,249.133591 153.122116,250.480438 152.389648,252.141785 
z"/>
<path fill="#FFFFFF" opacity="1.000000" stroke="none" 
	d="
M316.233276,252.650513 
	C313.518616,248.411713 312.968140,244.016403 315.305267,240.167007 
	C316.496643,238.204742 320.199493,235.926727 321.817169,236.495117 
	C324.245270,237.348236 326.697998,240.283447 327.583374,242.866867 
	C328.886169,246.668549 328.145020,250.814240 324.593231,253.602249 
	C321.808075,255.788528 319.038055,255.134018 316.233276,252.650513 
z"/>
</svg>