<svg version="1.1" id="Layer_1" xmlns="http://www.w3.org/2000/svg" xmlns:xlink="http://www.w3.org/1999/xlink" x="0px" y="0px"
	 width="100%" viewBox="0 0 618 476" enable-background="new 0 0 618 476" xml:space="preserve">
<path fill="#FFFFFF" opacity="1.000000" stroke="none" 
	d="
M619.000000,382.000000 
	C619.000000,413.660492 619.000000,445.320984 619.000000,476.986084 
	C413.046387,476.990723 207.092758,476.990723 1.069569,476.990723 
	C1.069569,318.410706 1.069569,159.821365 1.069569,1.116014 
	C206.882416,1.116014 412.764893,1.116014 619.000000,1.116014 
	C619.000000,126.690529 619.000000,252.381378 618.598022,378.463013 
	C617.794983,377.363129 617.123779,375.886414 617.045837,374.379059 
	C616.849915,370.585968 616.921570,366.779022 616.913696,362.511597 
	C616.620605,302.361694 616.299744,242.677795 616.222656,182.808594 
	C616.308167,181.749664 616.149902,180.876053 616.002014,179.533722 
	C616.010193,168.377274 616.007996,157.689560 616.256226,146.785217 
	C616.343079,145.377335 616.179626,144.186050 616.023254,142.531952 
	C616.020264,138.046097 616.010132,134.023041 616.270508,129.736115 
	C616.341797,127.321304 616.142578,125.170372 615.953125,122.569717 
	C615.651306,117.077011 615.339661,112.034019 615.187744,106.608231 
	C615.508606,97.848564 615.715454,89.472229 615.815063,81.094620 
	C615.882690,75.407608 615.700073,69.716988 615.803650,64.031158 
	C616.053711,50.309288 617.250427,36.402744 606.998657,24.663898 
	C603.482727,20.088379 600.937500,14.510533 596.601746,11.842003 
	C587.348145,6.146729 576.602722,4.157873 565.696045,4.086504 
	C507.167328,3.703514 448.638336,3.350240 390.109009,3.081662 
	C362.115021,2.953204 334.120117,3.025189 306.125610,3.023234 
	C270.372803,3.020736 234.619766,2.964245 198.867340,3.084042 
	C187.570282,3.121895 176.274857,3.650837 164.606476,3.951343 
	C163.488693,3.967536 162.743118,3.987418 161.626602,3.851974 
	C159.345184,3.501329 157.437241,3.175301 155.523697,3.138278 
	C151.703140,3.064360 147.879517,3.148961 143.592880,3.126035 
	C123.846466,3.272276 104.564331,3.460579 85.282196,3.648881 
	C85.292000,4.098274 85.301811,4.547668 85.311615,4.997060 
	C87.133896,4.997060 88.957214,4.956886 90.778305,5.003585 
	C102.548531,5.305412 114.319916,5.575343 126.087563,5.958929 
	C133.728760,6.208006 141.364258,6.631880 149.445831,6.994776 
	C152.258957,7.010333 154.628555,7.008551 157.291672,7.291231 
	C161.390228,7.370609 165.195267,7.165524 169.462631,6.978921 
	C178.719620,7.307573 187.512329,7.708730 196.309601,7.898850 
	C203.227127,8.048347 210.150284,7.934519 217.070938,7.942685 
	C230.400803,7.958413 243.730682,7.994210 257.060547,7.992886 
	C361.369781,7.982527 465.679077,7.895104 569.988098,8.034314 
	C583.869873,8.052841 595.676147,13.366179 604.198486,25.296354 
	C609.721069,34.248486 611.477905,43.721310 611.075012,53.763008 
	C610.942322,57.070644 611.401245,60.397541 611.418945,63.716541 
	C611.468018,72.920929 611.354248,82.126534 611.446594,91.330238 
	C611.512390,97.887917 611.807678,104.443291 611.990234,111.465698 
	C611.974915,116.617821 611.969910,121.303940 611.752197,126.146622 
	C611.707886,126.864464 611.876343,127.425743 612.032349,128.437927 
	C612.021301,131.594788 612.022766,134.300735 611.803772,137.153870 
	C611.735779,137.863525 611.888245,138.425980 612.027405,139.456863 
	C612.324646,148.589462 612.635193,157.253632 612.581116,166.032028 
	C612.164490,168.757065 612.112549,171.367874 612.057495,174.382492 
	C612.291870,176.558670 612.710571,178.328384 612.736267,180.103806 
	C612.860718,188.703522 612.879700,197.304733 612.578003,206.018646 
	C612.141785,208.422867 612.063660,210.713882 611.974243,213.472931 
	C611.979553,254.961990 611.996155,295.982971 611.736328,337.275330 
	C611.647217,340.028656 611.834473,342.510681 612.009277,345.461243 
	C612.002991,351.955200 612.009216,357.980591 611.738770,364.277985 
	C611.667969,367.021301 611.873901,369.492615 612.060242,372.412170 
	C612.047058,375.247498 612.053528,377.634552 611.795410,380.233276 
	C611.688782,381.963715 611.846863,383.482452 611.997070,385.377319 
	C612.000488,386.505981 612.011658,387.258575 611.736450,388.302551 
	C611.605652,392.846436 611.953308,397.102356 611.877625,401.350708 
	C611.714050,410.525726 611.100830,419.696594 611.091125,428.869629 
	C611.072693,446.326080 602.595215,458.294525 587.349365,465.714752 
	C583.579224,467.549683 579.126465,467.982117 574.566406,469.055511 
	C571.186829,469.358093 568.223999,469.961304 565.270630,469.918274 
	C553.809570,469.751282 542.352173,469.193512 530.892029,469.146362 
	C522.933167,469.113586 514.973083,469.884613 507.011322,469.934845 
	C486.759369,470.062592 466.506165,469.989258 446.253448,469.992798 
	C352.538879,470.009186 258.824249,469.978119 165.109802,470.084229 
	C148.989655,470.102509 132.869659,470.990997 116.750496,470.962769 
	C95.299484,470.925232 73.845398,470.005920 52.400673,470.231171 
	C42.958233,470.330383 35.068092,466.834625 26.876348,462.674591 
	C24.977526,460.593018 23.264561,458.774323 21.489170,457.018707 
	C15.867766,451.459930 12.754881,444.385376 11.227197,436.969208 
	C9.903981,430.545685 10.012633,423.757385 10.057407,417.134186 
	C10.233505,391.085449 10.736018,365.038818 10.894186,338.990082 
	C10.946551,330.365845 10.203293,321.739349 10.077039,313.110199 
	C10.028236,309.774689 10.989884,306.424866 10.945700,303.088776 
	C10.873382,297.628693 10.163343,292.177002 10.092142,286.716949 
	C10.044915,283.095276 10.946611,279.460510 10.890325,275.839874 
	C10.762586,267.623077 10.094539,259.413147 10.026174,251.197220 
	C9.882679,233.952362 9.980960,216.705444 9.985994,199.459381 
	C9.989184,188.531097 10.010660,177.602814 10.010779,166.674530 
	C10.011003,146.182343 9.995955,125.690163 10.001150,105.197983 
	C10.002193,101.083946 9.984921,96.967415 10.113397,92.856323 
	C10.667882,75.113319 11.146335,57.366051 11.963470,39.634666 
	C12.134818,35.916512 13.621342,32.258957 14.501825,28.573479 
	C14.116856,28.427877 13.731885,28.282274 13.346915,28.136671 
	C11.293615,32.489143 9.003635,36.753906 7.337494,41.249859 
	C6.864338,42.526634 8.768714,44.528366 8.623395,46.109467 
	C7.952909,53.404530 6.296376,60.659607 6.196624,67.945488 
	C6.013576,81.315292 6.979908,94.697868 6.927161,108.072990 
	C6.797215,141.023483 6.292518,173.972351 6.100575,206.922821 
	C6.057136,214.380112 6.820368,221.838730 6.947843,229.301254 
	C7.105865,238.552002 7.100436,247.809219 6.952547,257.060242 
	C6.846586,263.688446 6.116634,270.312561 6.154506,276.935730 
	C6.212897,287.147461 6.905375,297.356476 6.923309,307.567322 
	C6.938160,316.022736 6.137473,324.478790 6.123787,332.935272 
	C6.111557,340.491302 6.865460,348.046173 6.953006,355.605377 
	C7.099628,368.265442 6.851059,380.930298 7.015772,393.589935 
	C7.203858,408.046051 6.815816,422.584320 8.267200,436.926056 
	C9.454856,448.661774 15.496680,458.547516 26.140419,465.336609 
	C31.551519,468.027100 36.603245,471.667877 42.089951,472.525360 
	C51.297855,473.964325 60.782223,473.642151 70.151131,474.040527 
	C77.606659,474.357574 85.065010,474.921112 92.519356,474.879547 
	C103.807014,474.816620 115.091286,474.137573 126.378883,474.078400 
	C133.835678,474.039307 141.297684,474.920685 148.753998,474.872498 
	C162.705505,474.782288 176.653519,474.221863 190.605316,474.062592 
	C194.892639,474.013672 199.188110,474.914825 203.478958,474.906769 
	C285.719025,474.752411 367.958862,474.491180 450.198944,474.350250 
	C464.922150,474.325012 479.645508,474.803406 494.369843,474.925568 
	C506.639313,475.027344 518.910278,474.949707 531.180603,474.947784 
	C543.670593,474.945831 556.178101,475.338318 568.644470,474.793274 
	C576.830017,474.435425 585.317383,473.955841 592.446045,468.065186 
	C600.254395,465.778809 605.092041,460.241150 609.245361,454.225494 
	C615.100830,445.744568 616.553955,435.773926 616.871643,425.803284 
	C617.285095,412.825378 616.906616,399.823608 617.068542,386.834595 
	C617.088745,385.215302 618.326416,383.611176 619.000000,382.000000 
M195.997650,214.488617 
	C195.997650,217.557968 195.997650,220.627319 195.997650,223.569122 
	C199.497437,223.569122 202.059647,223.569122 205.000610,223.569122 
	C205.000610,216.342896 205.093414,209.542511 204.976700,202.745728 
	C204.836609,194.588318 197.212891,189.669662 189.603851,192.781021 
	C187.790100,193.522644 186.111649,194.595123 184.394516,195.502975 
	C178.109253,190.830643 173.562714,190.763474 168.205673,194.206985 
	C164.110886,193.599960 161.391434,193.196838 158.289322,192.736984 
	C158.289322,203.590836 158.289322,213.476486 158.289322,223.541351 
	C161.282974,223.541351 163.954803,223.541351 166.997116,223.541351 
	C166.997116,217.279419 166.858459,211.469742 167.042084,205.670273 
	C167.182495,201.235657 169.918625,198.638351 173.229294,200.219482 
	C175.037842,201.083221 176.632950,204.121399 176.823410,206.309631 
	C177.320618,212.021790 176.990845,217.805908 176.990845,223.638672 
	C180.345612,223.638672 182.905426,223.638672 186.017151,223.638672 
	C186.017151,217.334381 185.889313,211.381577 186.070465,205.438156 
	C186.162598,202.414948 187.252960,199.911865 191.070389,199.930252 
	C194.930817,199.948853 195.760529,202.519547 195.951050,205.533051 
	C196.118698,208.184555 195.993515,210.854568 195.997650,214.488617 
M89.455612,211.864563 
	C86.159447,206.220779 86.393135,200.501572 88.920563,194.643921 
	C91.617790,188.392776 100.724365,186.509094 104.374489,192.198196 
	C107.572411,197.182495 111.293251,195.865707 116.075035,195.760605 
	C115.704750,193.683319 115.683464,191.879654 115.054016,190.321686 
	C112.197578,183.251740 106.174400,180.653961 99.211906,180.119232 
	C90.596321,179.457520 83.787270,183.235489 79.807678,190.732635 
	C75.002571,199.784943 75.463493,209.120819 81.473152,217.570663 
	C86.480057,224.610565 94.067261,226.022690 102.014931,224.710068 
	C111.221840,223.189468 117.446953,215.215973 116.124374,207.125137 
	C112.786583,207.923889 108.592049,204.677353 106.210854,209.808655 
	C102.567276,217.660324 96.626793,218.591782 89.455612,211.864563 
M510.305481,223.915817 
	C510.869995,222.874725 511.915680,221.838196 511.925598,220.791840 
	C512.040771,208.652374 511.947968,196.511017 512.039185,184.371140 
	C512.059631,181.656067 510.844666,180.835709 508.407990,181.029160 
	C506.799377,181.156876 505.185242,181.215195 502.977478,181.337662 
	C502.977478,185.865952 502.977478,190.055969 502.977478,194.426529 
	C489.680023,189.774811 482.467621,193.605713 480.217438,205.967087 
	C478.345703,216.249313 486.416779,226.555679 495.770813,224.666977 
	C500.469879,223.718155 504.886597,224.152908 510.305481,223.915817 
M349.383911,192.011932 
	C341.321198,192.434921 337.216339,196.132111 335.298492,204.698471 
	C332.956146,215.160751 340.001617,225.916733 349.358948,224.673523 
	C354.936279,223.932526 360.443939,224.438629 365.927856,223.687241 
	C366.195129,223.650620 366.416718,223.280823 366.985657,222.777985 
	C366.985657,210.122131 366.927124,197.179962 367.026031,184.238998 
	C367.051331,180.928299 365.050659,180.938324 362.765656,181.037003 
	C360.557007,181.132401 357.833313,180.328278 357.974792,184.174088 
	C358.098511,187.537094 358.000580,190.908249 358.000580,194.431351 
	C354.898834,193.471085 352.557892,192.746353 349.383911,192.011932 
M241.865936,215.030762 
	C241.982742,214.544693 242.089462,214.055939 242.217819,213.572922 
	C244.024536,206.774811 242.745895,200.441422 237.827316,195.585022 
	C233.265137,191.080536 227.551743,190.570068 221.725311,193.773331 
	C221.196365,194.064148 220.315292,193.725906 219.599213,193.662964 
	C216.911652,193.426758 214.224701,193.183594 211.008209,192.895660 
	C211.008209,206.535614 210.941925,219.332001 211.141937,232.124207 
	C211.156921,233.082642 212.937378,234.491379 214.141983,234.836716 
	C215.781036,235.306641 217.655960,234.953842 220.054779,234.953842 
	C220.054779,230.443359 220.054779,226.582916 220.054779,222.541916 
	C232.213806,226.824432 236.953735,225.234619 241.865936,215.030762 
M440.622467,224.965790 
	C446.936829,224.383530 453.251221,223.801270 459.941010,223.184387 
	C459.941010,216.575348 459.978455,209.942688 459.930664,203.310654 
	C459.880890,196.406204 456.735077,192.809875 449.928009,192.106308 
	C447.292542,191.833954 444.576996,191.833786 441.944946,192.128754 
	C435.224487,192.881912 431.440765,196.693100 431.499878,202.723862 
	C435.082611,202.334579 439.042725,205.121841 441.933502,200.101364 
	C442.583679,198.972137 446.165863,199.277924 448.354706,199.456741 
	C448.939758,199.504532 449.946167,202.383408 449.770294,202.502533 
	C448.248047,203.533508 446.567444,204.466660 444.803162,204.972748 
	C442.111542,205.744873 439.279236,206.018066 436.572021,206.746231 
	C432.131012,207.940704 429.917542,211.018509 430.078796,215.575317 
	C430.275848,221.143478 432.842743,223.520538 440.622467,224.965790 
M295.246613,273.981689 
	C297.789215,276.986206 302.297607,276.526306 305.344025,273.879669 
	C306.899414,272.528381 309.728058,272.426422 312.014282,272.281555 
	C312.601868,272.244354 313.314667,274.183807 313.969910,275.215179 
	C312.243011,276.154053 310.602661,277.355286 308.765961,277.961243 
	C306.750031,278.626282 304.515808,278.596497 302.442291,279.126312 
	C296.809937,280.565399 293.668823,284.305817 294.170654,288.755432 
	C294.819244,294.505768 299.167633,298.965485 305.078918,297.698578 
	C311.416016,296.340424 317.600922,297.664642 323.784882,296.780609 
	C324.040436,296.744110 324.246948,296.364258 323.964081,296.635437 
	C323.964081,288.998016 324.252502,281.852509 323.808655,274.752747 
	C323.651947,272.245972 322.354340,269.008514 320.463013,267.553162 
	C312.916809,261.746490 300.109833,264.904388 295.246613,273.981689 
M302.259644,201.745758 
	C306.050079,203.288544 309.554718,204.730057 312.823730,200.231552 
	C313.722839,198.994278 317.053772,199.261002 319.237091,199.387085 
	C319.858582,199.422989 320.976898,202.244919 320.835571,202.345932 
	C319.350677,203.407516 317.735687,204.431839 316.002502,204.970490 
	C312.712250,205.993103 309.166443,206.315674 306.009644,207.615799 
	C301.724091,209.380814 300.447540,212.972839 301.707123,217.427963 
	C303.497650,223.761276 309.088135,226.375916 316.306366,224.370422 
	C318.255646,223.828812 320.296844,223.295563 322.290985,223.313126 
	C325.304291,223.339661 328.313293,223.852859 330.966217,224.122833 
	C330.966217,219.863617 330.966461,216.406708 330.966125,212.949814 
	C330.965759,209.290970 331.307251,205.588211 330.845398,201.988525 
	C330.530243,199.532074 329.742432,196.499741 328.044495,194.967606 
	C320.767029,188.400650 306.403992,191.936447 302.259644,201.745758 
M516.080261,211.047714 
	C518.778625,220.739197 523.997070,225.082993 532.799072,224.964310 
	C540.499695,224.860474 544.630249,221.698578 546.766479,212.948059 
	C542.752991,214.258774 539.596802,215.536697 536.319214,216.277893 
	C533.907410,216.823349 531.164368,217.261261 528.900452,216.604401 
	C527.499390,216.197861 526.719116,213.651642 524.787415,210.759094 
	C533.293030,210.759094 540.007324,210.759094 546.602966,210.759094 
	C547.557373,202.060974 545.106018,196.907974 539.245422,193.611908 
	C530.301941,188.582031 514.744751,194.890549 516.080261,211.047714 
M354.776031,297.060364 
	C364.923798,299.924072 373.177643,295.797272 374.373413,285.817627 
	C370.713074,287.211578 367.533325,288.010498 364.778046,289.562744 
	C359.926727,292.295807 354.993378,290.071564 354.507080,284.580719 
	C354.790710,284.422882 355.072662,284.130585 355.358215,284.127075 
	C361.010345,284.056824 366.669250,284.150177 372.310333,283.873962 
	C373.536743,283.813965 375.745941,282.429077 375.728333,281.696991 
	C375.567719,275.009369 371.508270,265.800598 362.420746,265.034790 
	C353.990662,264.324402 347.312561,268.604340 345.128448,276.155243 
	C342.419006,285.522247 345.419861,292.526337 354.776031,297.060364 
M139.962936,192.058319 
	C138.964508,192.042709 137.966110,192.024338 136.967651,192.011902 
	C126.506943,191.881653 120.422150,198.206940 120.442924,208.504486 
	C120.464157,219.031601 126.722374,225.109604 136.993057,224.964661 
	C146.708176,224.827545 153.271118,217.877533 152.934586,207.832520 
	C152.664627,199.774200 148.558441,194.501907 139.962936,192.058319 
M372.370758,202.445801 
	C372.249420,205.754959 371.793671,209.093857 372.084778,212.366318 
	C372.526978,217.336838 375.318420,221.060181 379.762421,223.262054 
	C388.115448,227.400726 398.311188,224.279602 402.151031,216.583664 
	C406.375275,208.117294 403.369446,197.671127 395.600189,193.817596 
	C386.549042,189.328247 377.278137,192.519302 372.370758,202.445801 
M269.694000,193.009598 
	C268.804932,194.257294 267.249756,195.453720 267.149078,196.762100 
	C266.818481,201.057297 267.100494,205.395325 266.988159,209.712769 
	C266.860107,214.634247 264.630035,217.213791 260.812042,217.031281 
	C256.004761,216.801437 256.078949,213.188553 256.026855,209.831284 
	C255.942703,204.406387 256.004242,198.979233 256.004242,193.477798 
	C252.639114,193.477798 249.966675,193.477798 247.016357,193.477798 
	C247.016357,200.593597 246.941635,207.229752 247.036163,213.863495 
	C247.143005,221.360443 251.881134,226.344803 259.069611,224.661392 
	C264.287964,223.439392 269.192474,224.333542 274.210083,223.903641 
	C274.664978,223.864670 275.096649,223.554047 275.721497,223.293503 
	C275.721497,213.394562 275.721497,203.518707 275.721497,193.269958 
	C273.827332,193.168793 272.215363,193.082687 269.694000,193.009598 
M268.115570,267.401917 
	C266.345337,273.012512 264.575104,278.623108 262.486908,285.241394 
	C260.973145,280.233215 259.844086,276.265442 258.573151,272.343658 
	C256.242004,265.150238 255.533722,264.818604 246.937958,266.809875 
	C250.227646,276.354248 253.375336,285.899933 256.861206,295.320465 
	C257.775635,297.791656 266.944763,297.947418 267.827698,295.541443 
	C271.338776,285.973816 274.531769,276.289490 278.066162,265.997437 
	C275.250854,265.997437 273.282562,265.927307 271.322998,266.027649 
	C270.371918,266.076324 269.437256,266.444305 268.115570,267.401917 
M284.023041,215.170654 
	C284.269867,223.079498 288.646790,225.555939 298.751465,223.279663 
	C298.751465,221.442139 298.751465,219.540710 298.751465,218.794067 
	C296.405640,216.804047 293.613556,215.593124 293.423737,214.060013 
	C292.825378,209.227264 293.203156,204.273666 293.203156,199.510468 
	C295.463989,199.088348 297.051453,198.791977 298.983765,198.431198 
	C298.903015,196.637390 298.832397,195.068954 298.757477,193.405060 
	C296.762817,193.103958 295.173248,192.864029 293.315308,192.583572 
	C293.096863,189.682663 292.892853,186.973785 292.699066,184.400665 
	C289.541840,184.400665 286.983704,184.400665 284.280029,184.400665 
	C284.101715,187.266617 283.949280,189.716843 283.788177,192.306305 
	C282.178528,192.815445 280.685059,193.287842 279.520905,193.656082 
	C277.734558,198.193161 280.321533,199.286240 284.022491,199.534363 
	C284.022491,204.651886 284.022491,209.447037 284.023041,215.170654 
M339.919647,292.361572 
	C339.919220,284.887390 339.722412,277.405975 339.995575,269.941833 
	C340.147797,265.783569 337.779663,265.982941 334.941803,265.949219 
	C332.008698,265.914337 329.830963,265.954590 329.961304,270.020233 
	C330.227325,278.316345 330.104462,286.627960 329.980316,294.930756 
	C329.957550,296.453094 329.448883,299.112335 328.691711,299.295837 
	C323.353912,300.589478 325.217010,304.169739 325.391144,307.317200 
	C332.867065,308.711914 337.928772,306.803833 338.896820,302.158478 
	C339.499695,299.265442 339.595856,296.266846 339.919647,292.361572 
M418.016693,196.196198 
	C415.714935,191.635681 412.102539,192.668900 408.482056,193.649017 
	C408.482056,203.824631 408.482056,213.694290 408.482056,223.578201 
	C411.772858,223.578201 414.648346,223.578201 417.951111,223.578201 
	C417.951111,220.864288 417.947632,218.565125 417.952087,216.265961 
	C417.956879,213.775238 417.797729,211.269363 418.016479,208.797211 
	C418.383148,204.653748 420.072510,201.472595 424.766663,200.969543 
	C426.032867,200.833847 427.295624,200.665878 428.620728,200.505371 
	C428.620728,197.605042 428.620728,195.046402 428.620728,192.543030 
	C423.309265,191.803604 422.905762,191.942795 418.016693,196.196198 
M282.770844,266.071228 
	C282.213257,266.592010 281.174835,267.107910 281.169495,267.634369 
	C281.071747,277.225464 281.098145,286.817810 281.098145,296.519409 
	C284.316803,296.519409 286.988251,296.519409 289.541260,296.519409 
	C289.541260,286.142456 289.541260,276.253265 289.541260,266.008575 
	C287.300232,266.008575 285.488708,266.008575 282.770844,266.071228 
M339.917419,256.579773 
	C338.349762,251.692139 334.444458,254.644272 331.615387,254.422073 
	C331.246521,254.393082 329.774475,258.247498 330.335510,259.725433 
	C330.792480,260.929291 333.468018,261.594421 335.264740,261.920593 
	C338.596741,262.525421 340.284363,260.934753 339.917419,256.579773 
M289.980316,257.561554 
	C290.303467,252.611496 286.587524,254.306122 284.122650,254.046219 
	C280.796112,253.695480 280.994476,256.019531 280.940491,258.266907 
	C280.885223,260.569702 281.328186,262.297760 284.146851,261.971039 
	C286.602875,261.686340 290.331909,263.412567 289.980316,257.561554 
M21.530199,17.026672 
	C19.355980,19.648483 17.181761,22.270294 15.007543,24.892107 
	C14.838122,24.641146 14.668703,24.390184 14.499283,24.139223 
	C19.391346,19.898941 24.283409,15.658659 29.175472,11.418377 
	C29.051863,11.273027 28.928253,11.127679 28.804646,10.982329 
	C26.548029,12.827896 24.291414,14.673463 21.530199,17.026672 
z"/>
<path fill="#E1E1E1" opacity="1.000000" stroke="none" 
	d="
M574.987488,469.059265 
	C579.126465,467.982117 583.579224,467.549683 587.349365,465.714752 
	C602.595215,458.294525 611.072693,446.326080 611.091125,428.869629 
	C611.100830,419.696594 611.714050,410.525726 611.877625,401.350708 
	C611.953308,397.102356 611.605652,392.846436 611.994019,388.511780 
	C612.984619,389.163666 613.431152,389.897705 614.497803,391.651276 
	C614.815918,388.065887 616.560547,385.243652 612.004883,385.001221 
	C611.846863,383.482452 611.688782,381.963715 612.122437,380.368713 
	C613.453491,380.011414 614.820618,379.759979 614.835510,379.444672 
	C614.992004,376.132690 614.932251,372.810516 614.932251,368.043457 
	C613.327698,370.248779 612.703796,371.106323 612.079834,371.963898 
	C611.873901,369.492615 611.667969,367.021301 612.027466,364.396790 
	C614.023926,363.821564 615.454956,363.399597 616.885925,362.977631 
	C616.921570,366.779022 616.849915,370.585968 617.045837,374.379059 
	C617.123779,375.886414 617.794983,377.363129 618.598022,378.926910 
	C619.000000,379.750000 619.000000,380.500000 619.000000,381.625000 
	C618.326416,383.611176 617.088745,385.215302 617.068542,386.834595 
	C616.906616,399.823608 617.285095,412.825378 616.871643,425.803284 
	C616.553955,435.773926 615.100830,445.744568 609.245361,454.225494 
	C605.092041,460.241150 600.254395,465.778809 592.213989,467.782593 
	C589.276489,468.072418 586.955017,468.985229 584.598267,469.087616 
	C581.411011,469.226044 578.142944,473.171967 574.987488,469.059265 
z"/>
<path fill="#DADADA" opacity="1.000000" stroke="none" 
	d="
M574.566406,469.055511 
	C578.142944,473.171967 581.411011,469.226044 584.598267,469.087616 
	C586.955017,468.985229 589.276489,468.072418 591.845703,467.803284 
	C585.317383,473.955841 576.830017,474.435425 568.644470,474.793274 
	C556.178101,475.338318 543.670593,474.945831 531.180603,474.947784 
	C518.910278,474.949707 506.639313,475.027344 494.369843,474.925568 
	C479.645508,474.803406 464.922150,474.325012 450.198944,474.350250 
	C367.958862,474.491180 285.719025,474.752411 203.478958,474.906769 
	C199.188110,474.914825 194.892639,474.013672 190.605316,474.062592 
	C176.653519,474.221863 162.705505,474.782288 148.753998,474.872498 
	C141.297684,474.920685 133.835678,474.039307 126.378883,474.078400 
	C115.091286,474.137573 103.807014,474.816620 92.519356,474.879547 
	C85.065010,474.921112 77.606659,474.357574 70.151131,474.040527 
	C60.782223,473.642151 51.297855,473.964325 42.089951,472.525360 
	C36.603245,471.667877 31.551519,468.027100 26.169437,465.028809 
	C26.367624,463.935425 26.700624,463.450867 27.033636,462.966309 
	C35.068092,466.834625 42.958233,470.330383 52.400673,470.231171 
	C73.845398,470.005920 95.299484,470.925232 116.750496,470.962769 
	C132.869659,470.990997 148.989655,470.102509 165.109802,470.084229 
	C258.824249,469.978119 352.538879,470.009186 446.253448,469.992798 
	C466.506165,469.989258 486.759369,470.062592 507.011322,469.934845 
	C514.973083,469.884613 522.933167,469.113586 530.892029,469.146362 
	C542.352173,469.193512 553.809570,469.751282 565.270630,469.918274 
	C568.223999,469.961304 571.186829,469.358093 574.566406,469.055511 
z"/>
<path fill="#DADADA" opacity="1.000000" stroke="none" 
	d="
M164.978683,3.955029 
	C176.274857,3.650837 187.570282,3.121895 198.867340,3.084042 
	C234.619766,2.964245 270.372803,3.020736 306.125610,3.023234 
	C334.120117,3.025189 362.115021,2.953204 390.109009,3.081662 
	C448.638336,3.350240 507.167328,3.703514 565.696045,4.086504 
	C576.602722,4.157873 587.348145,6.146729 596.601746,11.842003 
	C600.937500,14.510533 603.482727,20.088379 606.610413,24.670588 
	C605.614929,24.984421 604.848511,24.975401 604.082031,24.966381 
	C595.676147,13.366179 583.869873,8.052841 569.988098,8.034314 
	C465.679077,7.895104 361.369781,7.982527 257.060547,7.992886 
	C243.730682,7.994210 230.400803,7.958413 217.070938,7.942685 
	C210.150284,7.934519 203.227127,8.048347 196.309601,7.898850 
	C187.512329,7.708730 178.719620,7.307573 169.464020,6.739841 
	C169.003098,6.482279 169.003067,6.003319 169.300903,6.002725 
	C170.126053,5.916955 170.653381,5.831780 171.180695,5.746606 
	C171.127167,5.526631 171.073654,5.306657 171.020126,5.086683 
	C170.346100,5.390129 169.672058,5.693574 168.620178,5.996106 
	C167.154449,5.315137 166.066574,4.635082 164.978683,3.955029 
z"/>
<path fill="#E1E1E1" opacity="1.000000" stroke="none" 
	d="
M26.876339,462.674591 
	C26.700624,463.450867 26.367624,463.935425 26.005608,464.727783 
	C15.496680,458.547516 9.454856,448.661774 8.267200,436.926056 
	C6.815816,422.584320 7.203858,408.046051 7.015772,393.589935 
	C6.851059,380.930298 7.099628,368.265442 6.953006,355.605377 
	C6.865460,348.046173 6.111557,340.491302 6.123787,332.935272 
	C6.137473,324.478790 6.938160,316.022736 6.923309,307.567322 
	C6.905375,297.356476 6.212897,287.147461 6.154506,276.935730 
	C6.116634,270.312561 6.846586,263.688446 6.952547,257.060242 
	C7.100436,247.809219 7.105865,238.552002 6.947843,229.301254 
	C6.820368,221.838730 6.057136,214.380112 6.100575,206.922821 
	C6.292518,173.972351 6.797215,141.023483 6.927161,108.072990 
	C6.979908,94.697868 6.013576,81.315292 6.196624,67.945488 
	C6.296376,60.659607 7.952909,53.404530 8.623395,46.109467 
	C8.768714,44.528366 6.864338,42.526634 7.337494,41.249859 
	C9.003635,36.753906 11.293615,32.489143 13.346915,28.136671 
	C13.731885,28.282274 14.116856,28.427877 14.501825,28.573479 
	C13.621342,32.258957 12.134818,35.916512 11.963470,39.634666 
	C11.146335,57.366051 10.667882,75.113319 10.113397,92.856323 
	C9.984921,96.967415 10.002193,101.083946 10.001150,105.197983 
	C9.995955,125.690163 10.011003,146.182343 10.010779,166.674530 
	C10.010660,177.602814 9.989184,188.531097 9.985994,199.459381 
	C9.980960,216.705444 9.882679,233.952362 10.026174,251.197220 
	C10.094539,259.413147 10.762586,267.623077 10.890325,275.839874 
	C10.946611,279.460510 10.044915,283.095276 10.092142,286.716949 
	C10.163343,292.177002 10.873382,297.628693 10.945700,303.088776 
	C10.989884,306.424866 10.028236,309.774689 10.077039,313.110199 
	C10.203293,321.739349 10.946551,330.365845 10.894186,338.990082 
	C10.736018,365.038818 10.233505,391.085449 10.057407,417.134186 
	C10.012633,423.757385 9.903981,430.545685 11.227197,436.969208 
	C12.754881,444.385376 15.867766,451.459930 21.489170,457.018707 
	C23.264561,458.774323 24.977526,460.593018 26.876339,462.674591 
z"/>
<path fill="#DADADA" opacity="1.000000" stroke="none" 
	d="
M616.913696,362.511597 
	C615.454956,363.399597 614.023926,363.821564 612.304199,364.124756 
	C612.009216,357.980591 612.002991,351.955200 612.288940,345.193115 
	C612.391663,341.972260 612.202209,339.488129 612.012695,337.003967 
	C611.996155,295.982971 611.979553,254.961990 612.265625,213.203110 
	C612.690857,210.278625 612.813477,208.092026 612.936035,205.905426 
	C612.879700,197.304733 612.860718,188.703522 612.736267,180.103806 
	C612.710571,178.328384 612.291870,176.558670 612.334412,174.100494 
	C612.724915,170.915695 612.835327,168.416748 612.945740,165.917786 
	C612.635193,157.253632 612.324646,148.589462 612.245239,139.310181 
	C612.325562,138.132263 612.174866,137.569458 612.024170,137.006653 
	C612.022766,134.300735 612.021301,131.594788 612.251465,128.287247 
	C612.310425,127.120453 612.137634,126.555252 611.964844,125.990067 
	C611.969910,121.303940 611.974915,116.617821 612.256470,111.242798 
	C613.364624,109.366272 614.196289,108.178642 615.028015,106.991020 
	C615.339661,112.034019 615.651306,117.077011 615.684692,122.831177 
	C615.604309,125.694908 615.802185,127.847450 616.000000,130.000000 
	C616.010132,134.023041 616.020264,138.046097 615.759277,142.741211 
	C615.660767,144.609451 615.833313,145.805649 616.005859,147.001831 
	C616.007996,157.689560 616.010193,168.377274 615.754639,179.716583 
	C615.657593,181.243408 615.818237,182.118652 615.978882,182.993896 
	C616.299744,242.677795 616.620605,302.361694 616.913696,362.511597 
z"/>
<path fill="#D6D6D6" opacity="1.000000" stroke="none" 
	d="
M195.997650,214.002518 
	C195.993515,210.854568 196.118698,208.184555 195.951050,205.533051 
	C195.760529,202.519547 194.930817,199.948853 191.070389,199.930252 
	C187.252960,199.911865 186.162598,202.414948 186.070465,205.438156 
	C185.889313,211.381577 186.017151,217.334381 186.017151,223.638672 
	C182.905426,223.638672 180.345612,223.638672 176.990845,223.638672 
	C176.990845,217.805908 177.320618,212.021790 176.823410,206.309631 
	C176.632950,204.121399 175.037842,201.083221 173.229294,200.219482 
	C169.918625,198.638351 167.182495,201.235657 167.042084,205.670273 
	C166.858459,211.469742 166.997116,217.279419 166.997116,223.541351 
	C163.954803,223.541351 161.282974,223.541351 158.289322,223.541351 
	C158.289322,213.476486 158.289322,203.590836 158.289322,192.736984 
	C161.391434,193.196838 164.110886,193.599960 168.205673,194.206985 
	C173.562714,190.763474 178.109253,190.830643 184.394516,195.502975 
	C186.111649,194.595123 187.790100,193.522644 189.603851,192.781021 
	C197.212891,189.669662 204.836609,194.588318 204.976700,202.745728 
	C205.093414,209.542511 205.000610,216.342896 205.000610,223.569122 
	C202.059647,223.569122 199.497437,223.569122 195.997650,223.569122 
	C195.997650,220.627319 195.997650,217.557968 195.997650,214.002518 
z"/>
<path fill="#D6D6D6" opacity="1.000000" stroke="none" 
	d="
M89.700424,212.165802 
	C96.626793,218.591782 102.567276,217.660324 106.210854,209.808655 
	C108.592049,204.677353 112.786583,207.923889 116.124374,207.125137 
	C117.446953,215.215973 111.221840,223.189468 102.014931,224.710068 
	C94.067261,226.022690 86.480057,224.610565 81.473152,217.570663 
	C75.463493,209.120819 75.002571,199.784943 79.807678,190.732635 
	C83.787270,183.235489 90.596321,179.457520 99.211906,180.119232 
	C106.174400,180.653961 112.197578,183.251740 115.054016,190.321686 
	C115.683464,191.879654 115.704750,193.683319 116.075035,195.760605 
	C111.293251,195.865707 107.572411,197.182495 104.374489,192.198196 
	C100.724365,186.509094 91.617790,188.392776 88.920563,194.643921 
	C86.393135,200.501572 86.159447,206.220779 89.700424,212.165802 
z"/>
<path fill="#D6D6D6" opacity="1.000000" stroke="none" 
	d="
M509.869080,223.950806 
	C504.886597,224.152908 500.469879,223.718155 495.770813,224.666977 
	C486.416779,226.555679 478.345703,216.249313 480.217438,205.967087 
	C482.467621,193.605713 489.680023,189.774811 502.977478,194.426529 
	C502.977478,190.055969 502.977478,185.865952 502.977478,181.337662 
	C505.185242,181.215195 506.799377,181.156876 508.407990,181.029160 
	C510.844666,180.835709 512.059631,181.656067 512.039185,184.371140 
	C511.947968,196.511017 512.040771,208.652374 511.925598,220.791840 
	C511.915680,221.838196 510.869995,222.874725 509.869080,223.950806 
M491.016144,202.891144 
	C490.704681,205.822708 489.865631,208.818893 490.214722,211.669571 
	C490.655121,215.265503 493.341736,218.322678 496.927124,217.631989 
	C499.200043,217.194107 501.289978,214.110733 502.742981,211.767883 
	C503.573425,210.428864 503.538239,207.943497 502.871521,206.421707 
	C501.741608,203.842575 500.260742,200.792587 498.031403,199.556610 
	C496.717163,198.827988 493.677673,201.211212 491.016144,202.891144 
z"/>
<path fill="#D6D6D6" opacity="1.000000" stroke="none" 
	d="
M349.800446,192.016785 
	C352.557892,192.746353 354.898834,193.471085 358.000580,194.431351 
	C358.000580,190.908249 358.098511,187.537094 357.974792,184.174088 
	C357.833313,180.328278 360.557007,181.132401 362.765656,181.037003 
	C365.050659,180.938324 367.051331,180.928299 367.026031,184.238998 
	C366.927124,197.179962 366.985657,210.122131 366.985657,222.777985 
	C366.416718,223.280823 366.195129,223.650620 365.927856,223.687241 
	C360.443939,224.438629 354.936279,223.932526 349.358948,224.673523 
	C340.001617,225.916733 332.956146,215.160751 335.298492,204.698471 
	C337.216339,196.132111 341.321198,192.434921 349.800446,192.016785 
M350.750366,217.940414 
	C357.833496,216.763229 360.842651,207.425873 356.030579,201.556107 
	C353.107574,197.990692 348.556671,198.216858 346.006012,202.054276 
	C342.330780,207.583588 343.795319,213.372391 350.750366,217.940414 
z"/>
<path fill="#D6D6D6" opacity="1.000000" stroke="none" 
	d="
M241.718994,215.395691 
	C236.953735,225.234619 232.213806,226.824432 220.054779,222.541916 
	C220.054779,226.582916 220.054779,230.443359 220.054779,234.953842 
	C217.655960,234.953842 215.781036,235.306641 214.141983,234.836716 
	C212.937378,234.491379 211.156921,233.082642 211.141937,232.124207 
	C210.941925,219.332001 211.008209,206.535614 211.008209,192.895660 
	C214.224701,193.183594 216.911652,193.426758 219.599213,193.662964 
	C220.315292,193.725906 221.196365,194.064148 221.725311,193.773331 
	C227.551743,190.570068 233.265137,191.080536 237.827316,195.585022 
	C242.745895,200.441422 244.024536,206.774811 242.217819,213.572922 
	C242.089462,214.055939 241.982742,214.544693 241.718994,215.395691 
M232.618530,203.491806 
	C228.623337,197.129913 223.481430,197.792618 221.580383,202.506775 
	C220.193695,205.945419 220.212357,210.705856 221.428299,214.251633 
	C223.018753,218.889572 228.729431,219.357315 231.120590,215.082733 
	C232.796844,212.086197 232.379639,207.918610 232.618530,203.491806 
z"/>
<path fill="#D6D6D6" opacity="1.000000" stroke="none" 
	d="
M440.206543,224.960876 
	C432.842743,223.520538 430.275848,221.143478 430.078796,215.575317 
	C429.917542,211.018509 432.131012,207.940704 436.572021,206.746231 
	C439.279236,206.018066 442.111542,205.744873 444.803162,204.972748 
	C446.567444,204.466660 448.248047,203.533508 449.770294,202.502533 
	C449.946167,202.383408 448.939758,199.504532 448.354706,199.456741 
	C446.165863,199.277924 442.583679,198.972137 441.933502,200.101364 
	C439.042725,205.121841 435.082611,202.334579 431.499878,202.723862 
	C431.440765,196.693100 435.224487,192.881912 441.944946,192.128754 
	C444.576996,191.833786 447.292542,191.833954 449.928009,192.106308 
	C456.735077,192.809875 459.880890,196.406204 459.930664,203.310654 
	C459.978455,209.942688 459.941010,216.575348 459.941010,223.184387 
	C453.251221,223.801270 446.936829,224.383530 440.206543,224.960876 
M449.832245,215.120361 
	C450.185913,213.619751 450.539551,212.119141 451.093842,209.767319 
	C447.775024,210.330353 445.174072,210.272034 443.098236,211.287338 
	C441.535828,212.051529 440.646759,214.192474 439.457977,215.720581 
	C441.472626,216.693619 443.422638,218.173660 445.527130,218.441971 
	C446.714203,218.593307 448.155670,216.749222 449.832245,215.120361 
z"/>
<path fill="#D6D6D6" opacity="1.000000" stroke="none" 
	d="
M295.366394,273.617004 
	C300.109833,264.904388 312.916809,261.746490 320.463013,267.553162 
	C322.354340,269.008514 323.651947,272.245972 323.808655,274.752747 
	C324.252502,281.852509 323.964081,288.998016 323.964081,296.635437 
	C324.246948,296.364258 324.040436,296.744110 323.784882,296.780609 
	C317.600922,297.664642 311.416016,296.340424 305.078918,297.698578 
	C299.167633,298.965485 294.819244,294.505768 294.170654,288.755432 
	C293.668823,284.305817 296.809937,280.565399 302.442291,279.126312 
	C304.515808,278.596497 306.750031,278.626282 308.765961,277.961243 
	C310.602661,277.355286 312.243011,276.154053 313.969910,275.215179 
	C313.314667,274.183807 312.601868,272.244354 312.014282,272.281555 
	C309.728058,272.426422 306.899414,272.528381 305.344025,273.879669 
	C302.297607,276.526306 297.789215,276.986206 295.366394,273.617004 
M307.710419,291.741058 
	C313.280640,290.624176 314.730377,288.879333 314.413757,282.977631 
	C312.165436,283.330475 309.836609,283.336395 307.819458,284.132324 
	C306.346466,284.713470 304.479706,286.213287 304.280945,287.529053 
	C304.107269,288.678711 306.016937,290.143036 307.710419,291.741058 
z"/>
<path fill="#D6D6D6" opacity="1.000000" stroke="none" 
	d="
M302.253235,201.364380 
	C306.403992,191.936447 320.767029,188.400650 328.044495,194.967606 
	C329.742432,196.499741 330.530243,199.532074 330.845398,201.988525 
	C331.307251,205.588211 330.965759,209.290970 330.966125,212.949814 
	C330.966461,216.406708 330.966217,219.863617 330.966217,224.122833 
	C328.313293,223.852859 325.304291,223.339661 322.290985,223.313126 
	C320.296844,223.295563 318.255646,223.828812 316.306366,224.370422 
	C309.088135,226.375916 303.497650,223.761276 301.707123,217.427963 
	C300.447540,212.972839 301.724091,209.380814 306.009644,207.615799 
	C309.166443,206.315674 312.712250,205.993103 316.002502,204.970490 
	C317.735687,204.431839 319.350677,203.407516 320.835571,202.345932 
	C320.976898,202.244919 319.858582,199.422989 319.237091,199.387085 
	C317.053772,199.261002 313.722839,198.994278 312.823730,200.231552 
	C309.554718,204.730057 306.050079,203.288544 302.253235,201.364380 
M313.247345,211.490311 
	C312.697937,213.322647 312.148529,215.154999 311.599121,216.987366 
	C313.509979,217.422882 315.669525,218.642868 317.280487,218.132248 
	C320.744568,217.034241 322.294678,214.234818 321.446533,209.869385 
	C318.752350,210.337219 316.362823,210.752151 313.247345,211.490311 
z"/>
<path fill="#D6D6D6" opacity="1.000000" stroke="none" 
	d="
M516.066772,210.622345 
	C514.744751,194.890549 530.301941,188.582031 539.245422,193.611908 
	C545.106018,196.907974 547.557373,202.060974 546.602966,210.759094 
	C540.007324,210.759094 533.293030,210.759094 524.787415,210.759094 
	C526.719116,213.651642 527.499390,216.197861 528.900452,216.604401 
	C531.164368,217.261261 533.907410,216.823349 536.319214,216.277893 
	C539.596802,215.536697 542.752991,214.258774 546.766479,212.948059 
	C544.630249,221.698578 540.499695,224.860474 532.799072,224.964310 
	C523.997070,225.082993 518.778625,220.739197 516.066772,210.622345 
M536.841919,201.718277 
	C531.756958,197.465210 527.729370,198.453751 526.281738,204.928207 
	C529.673157,204.928207 532.940308,205.009384 536.191284,204.817322 
	C536.564453,204.795273 536.847595,203.248077 536.841919,201.718277 
z"/>
<path fill="#D6D6D6" opacity="1.000000" stroke="none" 
	d="
M354.390808,296.967590 
	C345.419861,292.526337 342.419006,285.522247 345.128448,276.155243 
	C347.312561,268.604340 353.990662,264.324402 362.420746,265.034790 
	C371.508270,265.800598 375.567719,275.009369 375.728333,281.696991 
	C375.745941,282.429077 373.536743,283.813965 372.310333,283.873962 
	C366.669250,284.150177 361.010345,284.056824 355.358215,284.127075 
	C355.072662,284.130585 354.790710,284.422882 354.508545,284.583313 
	C354.993378,290.071564 359.926727,292.295807 364.778046,289.562744 
	C367.533325,288.010498 370.713074,287.211578 374.373413,285.817627 
	C373.177643,295.797272 364.923798,299.924072 354.390808,296.967590 
M354.964691,274.613770 
	C355.232727,275.716431 355.432617,277.751526 355.779388,277.776855 
	C359.096100,278.019165 362.437653,277.921692 366.164551,277.921692 
	C363.471497,271.352692 361.191315,270.720398 354.964691,274.613770 
z"/>
<path fill="#D6D6D6" opacity="1.000000" stroke="none" 
	d="
M140.378113,192.107025 
	C148.558441,194.501907 152.664627,199.774200 152.934586,207.832520 
	C153.271118,217.877533 146.708176,224.827545 136.993057,224.964661 
	C126.722374,225.109604 120.464157,219.031601 120.442924,208.504486 
	C120.422150,198.206940 126.506943,191.881653 136.967651,192.011902 
	C137.966110,192.024338 138.964508,192.042709 140.378113,192.107025 
M136.529144,199.021072 
	C134.372925,201.200760 131.144867,203.037720 130.312546,205.640747 
	C129.074249,209.513367 129.274460,214.393723 133.534851,216.663467 
	C135.432159,217.674286 139.340363,217.332993 140.975311,215.971542 
	C146.454102,211.409225 144.127777,201.732758 136.529144,199.021072 
z"/>
<path fill="#D6D6D6" opacity="1.000000" stroke="none" 
	d="
M372.539307,202.071487 
	C377.278137,192.519302 386.549042,189.328247 395.600189,193.817596 
	C403.369446,197.671127 406.375275,208.117294 402.151031,216.583664 
	C398.311188,224.279602 388.115448,227.400726 379.762421,223.262054 
	C375.318420,221.060181 372.526978,217.336838 372.084778,212.366318 
	C371.793671,209.093857 372.249420,205.754959 372.539307,202.071487 
M393.586761,203.133835 
	C391.345123,201.770813 389.028961,199.250244 386.884003,199.388397 
	C384.953491,199.512741 382.404266,202.248840 381.597992,204.387268 
	C380.677246,206.829208 380.606201,210.211655 381.605774,212.576950 
	C382.538971,214.785172 385.271118,217.450882 387.374207,217.598648 
	C389.408264,217.741562 392.723846,215.357635 393.537720,213.312149 
	C394.639008,210.544388 393.890320,207.040543 393.586761,203.133835 
z"/>
<path fill="#D6D6D6" opacity="1.000000" stroke="none" 
	d="
M270.148682,193.003098 
	C272.215363,193.082687 273.827332,193.168793 275.721497,193.269958 
	C275.721497,203.518707 275.721497,213.394562 275.721497,223.293503 
	C275.096649,223.554047 274.664978,223.864670 274.210083,223.903641 
	C269.192474,224.333542 264.287964,223.439392 259.069611,224.661392 
	C251.881134,226.344803 247.143005,221.360443 247.036163,213.863495 
	C246.941635,207.229752 247.016357,200.593597 247.016357,193.477798 
	C249.966675,193.477798 252.639114,193.477798 256.004242,193.477798 
	C256.004242,198.979233 255.942703,204.406387 256.026855,209.831284 
	C256.078949,213.188553 256.004761,216.801437 260.812042,217.031281 
	C264.630035,217.213791 266.860107,214.634247 266.988159,209.712769 
	C267.100494,205.395325 266.818481,201.057297 267.149078,196.762100 
	C267.249756,195.453720 268.804932,194.257294 270.148682,193.003098 
z"/>
<path fill="#D6D6D6" opacity="1.000000" stroke="none" 
	d="
M268.305359,267.034851 
	C269.437256,266.444305 270.371918,266.076324 271.322998,266.027649 
	C273.282562,265.927307 275.250854,265.997437 278.066162,265.997437 
	C274.531769,276.289490 271.338776,285.973816 267.827698,295.541443 
	C266.944763,297.947418 257.775635,297.791656 256.861206,295.320465 
	C253.375336,285.899933 250.227646,276.354248 246.937958,266.809875 
	C255.533722,264.818604 256.242004,265.150238 258.573151,272.343658 
	C259.844086,276.265442 260.973145,280.233215 262.486908,285.241394 
	C264.575104,278.623108 266.345337,273.012512 268.305359,267.034851 
z"/>
<path fill="#D6D6D6" opacity="1.000000" stroke="none" 
	d="
M284.022766,214.706421 
	C284.022491,209.447037 284.022491,204.651886 284.022491,199.534363 
	C280.321533,199.286240 277.734558,198.193161 279.520905,193.656082 
	C280.685059,193.287842 282.178528,192.815445 283.788177,192.306305 
	C283.949280,189.716843 284.101715,187.266617 284.280029,184.400665 
	C286.983704,184.400665 289.541840,184.400665 292.699066,184.400665 
	C292.892853,186.973785 293.096863,189.682663 293.315308,192.583572 
	C295.173248,192.864029 296.762817,193.103958 298.757477,193.405060 
	C298.832397,195.068954 298.903015,196.637390 298.983765,198.431198 
	C297.051453,198.791977 295.463989,199.088348 293.203156,199.510468 
	C293.203156,204.273666 292.825378,209.227264 293.423737,214.060013 
	C293.613556,215.593124 296.405640,216.804047 298.751465,218.794067 
	C298.751465,219.540710 298.751465,221.442139 298.751465,223.279663 
	C288.646790,225.555939 284.269867,223.079498 284.022766,214.706421 
z"/>
<path fill="#D6D6D6" opacity="1.000000" stroke="none" 
	d="
M339.919525,292.838593 
	C339.595856,296.266846 339.499695,299.265442 338.896820,302.158478 
	C337.928772,306.803833 332.867065,308.711914 325.391144,307.317200 
	C325.217010,304.169739 323.353912,300.589478 328.691711,299.295837 
	C329.448883,299.112335 329.957550,296.453094 329.980316,294.930756 
	C330.104462,286.627960 330.227325,278.316345 329.961304,270.020233 
	C329.830963,265.954590 332.008698,265.914337 334.941803,265.949219 
	C337.779663,265.982941 340.147797,265.783569 339.995575,269.941833 
	C339.722412,277.405975 339.919220,284.887390 339.919525,292.838593 
z"/>
<path fill="#D6D6D6" opacity="1.000000" stroke="none" 
	d="
M418.304108,196.011658 
	C422.905762,191.942795 423.309265,191.803604 428.620728,192.543030 
	C428.620728,195.046402 428.620728,197.605042 428.620728,200.505371 
	C427.295624,200.665878 426.032867,200.833847 424.766663,200.969543 
	C420.072510,201.472595 418.383148,204.653748 418.016479,208.797211 
	C417.797729,211.269363 417.956879,213.775238 417.952087,216.265961 
	C417.947632,218.565125 417.951111,220.864288 417.951111,223.578201 
	C414.648346,223.578201 411.772858,223.578201 408.482056,223.578201 
	C408.482056,213.694290 408.482056,203.824631 408.482056,193.649017 
	C412.102539,192.668900 415.714935,191.635681 418.304108,196.011658 
z"/>
<path fill="#E1E1E1" opacity="1.000000" stroke="none" 
	d="
M615.187744,106.608231 
	C614.196289,108.178642 613.364624,109.366272 612.266724,110.776794 
	C611.807678,104.443291 611.512390,97.887917 611.446594,91.330238 
	C611.354248,82.126534 611.468018,72.920929 611.418945,63.716541 
	C611.401245,60.397541 610.942322,57.070644 611.075012,53.763008 
	C611.477905,43.721310 609.721069,34.248486 604.198486,25.296354 
	C604.848511,24.975401 605.614929,24.984421 606.769653,24.986755 
	C617.250427,36.402744 616.053711,50.309288 615.803650,64.031158 
	C615.700073,69.716988 615.882690,75.407608 615.815063,81.094620 
	C615.715454,89.472229 615.508606,97.848564 615.187744,106.608231 
z"/>
<path fill="#D6D6D6" opacity="1.000000" stroke="none" 
	d="
M283.223999,266.039917 
	C285.488708,266.008575 287.300232,266.008575 289.541260,266.008575 
	C289.541260,276.253265 289.541260,286.142456 289.541260,296.519409 
	C286.988251,296.519409 284.316803,296.519409 281.098145,296.519409 
	C281.098145,286.817810 281.071747,277.225464 281.169495,267.634369 
	C281.174835,267.107910 282.213257,266.592010 283.223999,266.039917 
z"/>
<path fill="#E1E1E1" opacity="1.000000" stroke="none" 
	d="
M149.002304,6.977437 
	C141.364258,6.631880 133.728760,6.208006 126.087563,5.958929 
	C114.319916,5.575343 102.548531,5.305412 90.778305,5.003585 
	C88.957214,4.956886 87.133896,4.997060 85.311615,4.997060 
	C85.301811,4.547668 85.292000,4.098274 85.282196,3.648881 
	C104.564331,3.460579 123.846466,3.272276 143.677872,3.493164 
	C147.105896,4.437883 149.984650,4.973412 152.778824,5.493205 
	C151.585495,5.962200 150.293900,6.469818 149.002304,6.977437 
z"/>
<path fill="#DADADA" opacity="1.000000" stroke="none" 
	d="
M339.924438,257.014893 
	C340.284363,260.934753 338.596741,262.525421 335.264740,261.920593 
	C333.468018,261.594421 330.792480,260.929291 330.335510,259.725433 
	C329.774475,258.247498 331.246521,254.393082 331.615387,254.422073 
	C334.444458,254.644272 338.349762,251.692139 339.924438,257.014893 
z"/>
<path fill="#DADADA" opacity="1.000000" stroke="none" 
	d="
M289.980591,258.004730 
	C290.331909,263.412567 286.602875,261.686340 284.146851,261.971039 
	C281.328186,262.297760 280.885223,260.569702 280.940491,258.266907 
	C280.994476,256.019531 280.796112,253.695480 284.122650,254.046219 
	C286.587524,254.306122 290.303467,252.611496 289.980591,258.004730 
z"/>
<path fill="#E1E1E1" opacity="1.000000" stroke="none" 
	d="
M21.782497,16.772850 
	C24.291414,14.673463 26.548029,12.827896 28.804646,10.982329 
	C28.928253,11.127679 29.051863,11.273027 29.175472,11.418377 
	C24.283409,15.658659 19.391346,19.898941 14.499283,24.139223 
	C14.668703,24.390184 14.838122,24.641146 15.007543,24.892107 
	C17.181761,22.270294 19.355980,19.648483 21.782497,16.772850 
z"/>
<path fill="#DADADA" opacity="1.000000" stroke="none" 
	d="
M149.445831,6.994776 
	C150.293900,6.469818 151.585495,5.962200 152.778824,5.493205 
	C149.984650,4.973412 147.105896,4.437883 144.142151,3.535225 
	C147.879517,3.148961 151.703140,3.064360 155.523697,3.138278 
	C157.437241,3.175301 159.345184,3.501329 161.598923,4.174314 
	C160.294174,5.436912 158.646179,6.221842 156.998169,7.006771 
	C154.628555,7.008551 152.258957,7.010333 149.445831,6.994776 
z"/>
<path fill="#DADADA" opacity="1.000000" stroke="none" 
	d="
M612.060242,372.412170 
	C612.703796,371.106323 613.327698,370.248779 614.932251,368.043457 
	C614.932251,372.810516 614.992004,376.132690 614.835510,379.444672 
	C614.820618,379.759979 613.453491,380.011414 612.387085,380.157043 
	C612.053528,377.634552 612.047058,375.247498 612.060242,372.412170 
z"/>
<path fill="#E1E1E1" opacity="1.000000" stroke="none" 
	d="
M157.291672,7.291233 
	C158.646179,6.221842 160.294174,5.436912 161.969864,4.329640 
	C162.743118,3.987418 163.488693,3.967536 164.606476,3.951340 
	C166.066574,4.635082 167.154449,5.315137 168.621155,5.997606 
	C169.000000,6.000021 169.003067,6.003319 169.003067,6.003319 
	C169.003067,6.003319 169.003098,6.482279 169.001709,6.721360 
	C165.195267,7.165524 161.390228,7.370609 157.291672,7.291233 
z"/>
<path fill="#E1E1E1" opacity="1.000000" stroke="none" 
	d="
M611.736328,337.275330 
	C612.202209,339.488129 612.391663,341.972260 612.301392,344.724548 
	C611.834473,342.510681 611.647217,340.028656 611.736328,337.275330 
z"/>
<path fill="#E1E1E1" opacity="1.000000" stroke="none" 
	d="
M612.581116,166.032028 
	C612.835327,168.416748 612.724915,170.915695 612.337524,173.696655 
	C612.112549,171.367874 612.164490,168.757065 612.581116,166.032028 
z"/>
<path fill="#DADADA" opacity="1.000000" stroke="none" 
	d="
M611.997070,385.377319 
	C616.560547,385.243652 614.815918,388.065887 614.497803,391.651276 
	C613.431152,389.897705 612.984619,389.163666 612.280518,388.220398 
	C612.011658,387.258575 612.000488,386.505981 611.997070,385.377319 
z"/>
<path fill="#E1E1E1" opacity="1.000000" stroke="none" 
	d="
M616.270508,129.736115 
	C615.802185,127.847450 615.604309,125.694908 615.674927,123.280899 
	C616.142578,125.170372 616.341797,127.321304 616.270508,129.736115 
z"/>
<path fill="#E1E1E1" opacity="1.000000" stroke="none" 
	d="
M612.578003,206.018646 
	C612.813477,208.092026 612.690857,210.278625 612.276855,212.735046 
	C612.063660,210.713882 612.141785,208.422867 612.578003,206.018646 
z"/>
<path fill="#E1E1E1" opacity="1.000000" stroke="none" 
	d="
M616.256226,146.785217 
	C615.833313,145.805649 615.660767,144.609451 615.752197,143.204025 
	C616.179626,144.186050 616.343079,145.377335 616.256226,146.785217 
z"/>
<path fill="#E1E1E1" opacity="1.000000" stroke="none" 
	d="
M616.222656,182.808594 
	C615.818237,182.118652 615.657593,181.243408 615.744263,180.185303 
	C616.149902,180.876053 616.308167,181.749664 616.222656,182.808594 
z"/>
<path fill="#E1E1E1" opacity="1.000000" stroke="none" 
	d="
M611.803833,137.153870 
	C612.174866,137.569458 612.325562,138.132263 612.258423,138.841736 
	C611.888245,138.425980 611.735779,137.863525 611.803833,137.153870 
z"/>
<path fill="#E1E1E1" opacity="1.000000" stroke="none" 
	d="
M611.752136,126.146622 
	C612.137634,126.555252 612.310425,127.120453 612.263977,127.836334 
	C611.876343,127.425743 611.707886,126.864464 611.752136,126.146622 
z"/>
<path fill="#E1E1E1" opacity="1.000000" stroke="none" 
	d="
M168.999023,5.998521 
	C169.672058,5.693574 170.346100,5.390129 171.020126,5.086683 
	C171.073654,5.306657 171.127167,5.526631 171.180695,5.746606 
	C170.653381,5.831780 170.126053,5.916955 169.300903,6.002725 
	C169.003067,6.003319 169.000000,6.000021 168.999023,5.998521 
z"/>
<path fill="#FFFFFF" opacity="1.000000" stroke="none" 
	d="
M491.215118,202.543030 
	C493.677673,201.211212 496.717163,198.827988 498.031403,199.556610 
	C500.260742,200.792587 501.741608,203.842575 502.871521,206.421707 
	C503.538239,207.943497 503.573425,210.428864 502.742981,211.767883 
	C501.289978,214.110733 499.200043,217.194107 496.927124,217.631989 
	C493.341736,218.322678 490.655121,215.265503 490.214722,211.669571 
	C489.865631,208.818893 490.704681,205.822708 491.215118,202.543030 
z"/>
<path fill="#FFFFFF" opacity="1.000000" stroke="none" 
	d="
M350.373199,217.882843 
	C343.795319,213.372391 342.330780,207.583588 346.006012,202.054276 
	C348.556671,198.216858 353.107574,197.990692 356.030579,201.556107 
	C360.842651,207.425873 357.833496,216.763229 350.373199,217.882843 
z"/>
<path fill="#FFFFFF" opacity="1.000000" stroke="none" 
	d="
M232.757935,203.882904 
	C232.379639,207.918610 232.796844,212.086197 231.120590,215.082733 
	C228.729431,219.357315 223.018753,218.889572 221.428299,214.251633 
	C220.212357,210.705856 220.193695,205.945419 221.580383,202.506775 
	C223.481430,197.792618 228.623337,197.129913 232.757935,203.882904 
z"/>
<path fill="#FFFFFF" opacity="1.000000" stroke="none" 
	d="
M449.657410,215.462173 
	C448.155670,216.749222 446.714203,218.593307 445.527130,218.441971 
	C443.422638,218.173660 441.472626,216.693619 439.457977,215.720581 
	C440.646759,214.192474 441.535828,212.051529 443.098236,211.287338 
	C445.174072,210.272034 447.775024,210.330353 451.093842,209.767319 
	C450.539551,212.119141 450.185913,213.619751 449.657410,215.462173 
z"/>
<path fill="#FFFFFF" opacity="1.000000" stroke="none" 
	d="
M307.358337,291.604706 
	C306.016937,290.143036 304.107269,288.678711 304.280945,287.529053 
	C304.479706,286.213287 306.346466,284.713470 307.819458,284.132324 
	C309.836609,283.336395 312.165436,283.330475 314.413757,282.977631 
	C314.730377,288.879333 313.280640,290.624176 307.358337,291.604706 
z"/>
<path fill="#FFFFFF" opacity="1.000000" stroke="none" 
	d="
M313.610321,211.328705 
	C316.362823,210.752151 318.752350,210.337219 321.446533,209.869385 
	C322.294678,214.234818 320.744568,217.034241 317.280487,218.132248 
	C315.669525,218.642868 313.509979,217.422882 311.599121,216.987366 
	C312.148529,215.154999 312.697937,213.322647 313.610321,211.328705 
z"/>
<path fill="#FFFFFF" opacity="1.000000" stroke="none" 
	d="
M537.007202,202.063141 
	C536.847595,203.248077 536.564453,204.795273 536.191284,204.817322 
	C532.940308,205.009384 529.673157,204.928207 526.281738,204.928207 
	C527.729370,198.453751 531.756958,197.465210 537.007202,202.063141 
z"/>
<path fill="#FFFFFF" opacity="1.000000" stroke="none" 
	d="
M355.234863,274.328491 
	C361.191315,270.720398 363.471497,271.352692 366.164551,277.921692 
	C362.437653,277.921692 359.096100,278.019165 355.779388,277.776855 
	C355.432617,277.751526 355.232727,275.716431 355.234863,274.328491 
z"/>
<path fill="#FFFFFF" opacity="1.000000" stroke="none" 
	d="
M136.920898,199.033844 
	C144.127777,201.732758 146.454102,211.409225 140.975311,215.971542 
	C139.340363,217.332993 135.432159,217.674286 133.534851,216.663467 
	C129.274460,214.393723 129.074249,209.513367 130.312546,205.640747 
	C131.144867,203.037720 134.372925,201.200760 136.920898,199.033844 
z"/>
<path fill="#FFFFFF" opacity="1.000000" stroke="none" 
	d="
M393.761047,203.493164 
	C393.890320,207.040543 394.639008,210.544388 393.537720,213.312149 
	C392.723846,215.357635 389.408264,217.741562 387.374207,217.598648 
	C385.271118,217.450882 382.538971,214.785172 381.605774,212.576950 
	C380.606201,210.211655 380.677246,206.829208 381.597992,204.387268 
	C382.404266,202.248840 384.953491,199.512741 386.884003,199.388397 
	C389.028961,199.250244 391.345123,201.770813 393.761047,203.493164 
z"/>
</svg>