<svg xmlns="http://www.w3.org/2000/svg" viewBox="0 0 113.89 85.44"><defs><style>.cls-1{fill:#d6d5d6;}.cls-2{fill:#d3d2d8;}.cls-3{fill:#feffff;}.cls-4{fill:#afb2b7;}.cls-5{fill:#b7b8bb;}.cls-6{fill:#fafafa;}</style></defs><title>Recurso 6</title><g id="Capa_2" data-name="Capa 2"><g id="Capa_1-2" data-name="Capa 1"><path class="cls-1" d="M8.07,85.4c-4,0-7.94-4-8-8.29C0,74.35,0,71.58,0,68.82,0,48.88.08,28.94,0,9A9.06,9.06,0,0,1,9,0q48,.14,96,0a8.81,8.81,0,0,1,8.86,8.85q0,34.19,0,68.38c0,4.16-4.18,8.24-8.3,8.16,0-.73.87-.32,1.06-.8a3.52,3.52,0,0,1,.59-.28,8.22,8.22,0,0,0,5.88-8.25c-.06-22.35,0-44.71,0-67.06a8,8,0,0,0-8.2-8.17H9.11A8,8,0,0,0,.84,9.1c0,22.35,0,44.7,0,67.06a8.31,8.31,0,0,0,7.27,8.48Z"/><path class="cls-2" d="M8.07,85.4v-.76H24.94l81.7,0c-.19.48-1,.07-1.06.8l-1.6,0H9.67C9.14,85.44,8.6,85.42,8.07,85.4Z"/><path class="cls-3" d="M106.64,84.61l-81.7,0H8.07A8.31,8.31,0,0,1,.8,76.16C.87,53.8.84,31.45.84,9.1A8,8,0,0,1,9.11.85h95.77A8,8,0,0,1,113.08,9c0,22.35,0,44.71,0,67.06a8.22,8.22,0,0,1-5.88,8.25A3.52,3.52,0,0,0,106.64,84.61ZM42.48,24.22c2.75-.25,5.5-.53,8.25-.75a79.11,79.11,0,0,1,14.68.23A92.35,92.35,0,0,1,77.19,26l5.66,2.3c.26.11.54.21.67-.14s-.11-.52-.37-.62a32.41,32.41,0,0,0-6-2.21,31.42,31.42,0,0,0-4.45-1.39,78.13,78.13,0,0,0-13.21-1.68A59.67,59.67,0,0,0,45.84,23c-.35-.18-.5.06-.66.3l-.94,0c-.41-.33-.69-.13-.92.23l-1.22.14A41.49,41.49,0,0,0,31,27.13c-.28.12-.67.24-.48.63s.61.2.92,0a58.86,58.86,0,0,1,9.78-3C41.63,24.67,42.2,24.74,42.48,24.22ZM52.73,30c-5.24,1.84-7.26,6-8,11.11-4.16-6.38-10.64-6.34-14.49-4.3A10.71,10.71,0,0,0,24.8,48.9,10.54,10.54,0,0,0,35,57c5.63.11,9.27-3.25,11-9.93.4,0,.44.4.58.65a12.53,12.53,0,0,0,14.83,5.43,11.94,11.94,0,0,0,5.87-4.23c.21-.27.37-.66.8-.61.27,0,.25.33.28.54.93,5,4,7.82,8.93,8.59a8.72,8.72,0,0,0,7.64-2.27,1.65,1.65,0,0,0,1.33-1.29,10.85,10.85,0,0,0,1.07-1.19,10.2,10.2,0,0,0-.68-11.85,10.48,10.48,0,0,0-11.27-3.49,12.4,12.4,0,0,0-5.42,4c-.13-.83-.2-1.49-.33-2.13-.74-3.44-2.35-6.3-5.54-8.07A1.13,1.13,0,0,0,63,30.37l-.43-.12a2,2,0,0,0-1.47-.82,14.67,14.67,0,0,0-6.72-.18C53.77,29.38,53.11,29.38,52.73,30ZM78.78,63.63a15.6,15.6,0,0,0,8.29-2.43,10.17,10.17,0,0,0,4.78-7.48c.06-.45.25-1.17-.38-1.26s-.51.63-.59,1.07a9.16,9.16,0,0,1-1.4,3.84,12.14,12.14,0,0,1-8.36,5c-5.23.9-11.44-1.31-13.6-6.17-.34-.76-.79-.85-1.42-.2a15.93,15.93,0,0,1-2,1.71c-3.86,2.76-11.75,2.93-15.89-1.58-.76-.82-1.12-1-1.72.22A10.59,10.59,0,0,1,39.22,62c-4.93,1.27-9.48.54-13.33-3a8.52,8.52,0,0,1-2.81-5.74c0-.3,0-.7-.46-.68s-.55.43-.52.78a8.87,8.87,0,0,0,.8,3.22,11.93,11.93,0,0,0,9.65,6.75c5.7.78,10.73-.45,14.21-5.49.47-.68.76-.89,1.5-.23a12.67,12.67,0,0,0,8.58,3.11A12.91,12.91,0,0,0,65.45,58c.5-.41,1-1.22,1.81-.1C70,61.92,74.05,63.41,78.78,63.63Z"/><path class="cls-4" d="M84.93,55.14a8.72,8.72,0,0,1-7.64,2.27c-4.92-.77-8-3.6-8.93-8.59,0-.21,0-.5-.28-.54-.43-.05-.59.34-.8.61a11.94,11.94,0,0,1-5.87,4.23,12.53,12.53,0,0,1-14.83-5.43c-.14-.25-.18-.62-.58-.65-1.69,6.68-5.33,10-11,9.93A10.54,10.54,0,0,1,24.8,48.9a10.71,10.71,0,0,1,5.43-12.1c3.85-2,10.33-2.08,14.49,4.3.75-5.11,2.77-9.27,8-11.11.42.37,1.12-.69,1.41.29a13,13,0,0,0-5.76,3.92,11.49,11.49,0,0,0,17,15.39,10.11,10.11,0,0,0,3.36-8.36c-.26-.86,0-1.8-.41-2.64a2.23,2.23,0,0,0-.24-1.42,12.1,12.1,0,0,0-4.19-5.25,11.92,11.92,0,0,1-2.31-1.54l.95-.13.43.12c.15.59.63.66,1.11.71,3.19,1.77,4.8,4.63,5.54,8.07.13.64.2,1.3.33,2.13a12.4,12.4,0,0,1,5.42-4,10.48,10.48,0,0,1,11.27,3.49,10.2,10.2,0,0,1,.68,11.85,10.85,10.85,0,0,1-1.07,1.19.56.56,0,0,1-.55-.36c.19-.29.4-.59.58-.89,2-3.46,2.4-7,.13-10.44A9,9,0,0,0,76.61,38a9.26,9.26,0,0,0-7.19,7.07,8.91,8.91,0,0,0,3.52,9.55c3.75,2.79,7.64,2.42,11.45,0C84.71,54.66,84.93,54.78,84.93,55.14ZM35.18,56A9.63,9.63,0,0,0,45,46.25a9.48,9.48,0,0,0-9.45-9.67,9.49,9.49,0,0,0-10,9.75A9.7,9.7,0,0,0,35.18,56Z"/><path class="cls-4" d="M78.78,63.63c-4.73-.22-8.79-1.71-11.52-5.77-.76-1.12-1.31-.31-1.81.1a12.91,12.91,0,0,1-8.61,2.74,12.67,12.67,0,0,1-8.58-3.11c-.74-.66-1-.45-1.5.23-3.48,5-8.51,6.27-14.21,5.49a11.93,11.93,0,0,1-9.65-6.75,8.87,8.87,0,0,1-.8-3.22c0-.35,0-.77.52-.78s.44.38.46.68A8.52,8.52,0,0,0,25.89,59c3.85,3.52,8.4,4.25,13.33,3a10.59,10.59,0,0,0,7.23-5.66c.6-1.21,1-1,1.72-.22,4.14,4.51,12,4.34,15.89,1.58a15.93,15.93,0,0,0,2-1.71c.63-.65,1.08-.56,1.42.2,2.16,4.86,8.37,7.07,13.6,6.17a12.14,12.14,0,0,0,8.36-5,9.16,9.16,0,0,0,1.4-3.84c.08-.44-.15-1.19.59-1.07s.44.81.38,1.26a10.17,10.17,0,0,1-4.78,7.48A15.6,15.6,0,0,1,78.78,63.63Z"/><path class="cls-4" d="M42.1,23.69l1.22-.14c.33,0,.68.12.92-.23l.94,0c.29,0,.54,0,.66-.3a59.67,59.67,0,0,1,13.68-.77,78.13,78.13,0,0,1,13.21,1.68,31.42,31.42,0,0,1,4.45,1.39V26A92.35,92.35,0,0,0,65.41,23.7a79.11,79.11,0,0,0-14.68-.23c-2.75.22-5.5.5-8.25.75A.56.56,0,0,1,42.1,23.69Z"/><path class="cls-5" d="M42.1,23.69a.56.56,0,0,0,.38.53c-.28.52-.85.45-1.3.56a58.86,58.86,0,0,0-9.78,3c-.31.15-.69.41-.92,0s.2-.51.48-.63A41.49,41.49,0,0,1,42.1,23.69Z"/><path class="cls-5" d="M62.55,30.25l-.95.13,0-.05c-.13-.3-.2-.11-.28,0a19,19,0,0,0-7.2-.09c-.29-1-1,.08-1.41-.29.38-.61,1-.61,1.63-.74a14.67,14.67,0,0,1,6.72.18A2,2,0,0,1,62.55,30.25Z"/><path class="cls-5" d="M77.19,26v-.67a32.41,32.41,0,0,1,6,2.21c.26.1.49.31.37.62s-.41.25-.67.14Z"/><path class="cls-5" d="M85.71,53.49a.56.56,0,0,0,.55.36,1.65,1.65,0,0,1-1.33,1.29c0-.36-.22-.48-.54-.5C84.57,54,85.19,53.79,85.71,53.49Z"/><path class="cls-5" d="M64.09,31.08c-.48,0-1-.12-1.11-.71A1.13,1.13,0,0,1,64.09,31.08Z"/><path class="cls-5" d="M44.24,23.32c-.24.35-.59.27-.92.23C43.55,23.19,43.83,23,44.24,23.32Z"/><path class="cls-5" d="M45.84,23c-.12.34-.37.35-.66.3C45.34,23,45.49,22.8,45.84,23Z"/><path class="cls-6" d="M54.14,30.28a19,19,0,0,1,7.2.09l.28,0,0,.05a11.92,11.92,0,0,0,2.31,1.54,12.1,12.1,0,0,1,4.19,5.25,2.23,2.23,0,0,1,.24,1.42,1.15,1.15,0,0,0-1,.59,1.89,1.89,0,0,1-2.47.75c-.68-3-2.3-5.11-5.35-6-.13-.28-.24-.59-.58-.18l-.76-.08c-.08-.26,0-.57-.31-.74-.23-.79.57-1.82-.54-2.41-.34.05-.65.12-.28.54l0,1.6c-.37.24-.21.67-.34,1A7.4,7.4,0,0,0,50,43c.26,1.11,0,1.69-1,2a2.8,2.8,0,0,0-.7.38.41.41,0,0,0-.15.58.43.43,0,0,0,.56.22,4.37,4.37,0,0,0,.87-.34,1.49,1.49,0,0,1,2.28.44,2.06,2.06,0,0,0,1.87.79c2.27,0,4.55-.11,6.81,0a3.42,3.42,0,0,0,3.18-1.74,8.67,8.67,0,0,0,1.25-5c.45.06.51.48.7.78,0,1.47,1.11.65,1.72.8s1,0,.71-.78l.66,0a10.11,10.11,0,0,1-3.36,8.36,11.49,11.49,0,0,1-17-15.39A13,13,0,0,1,54.14,30.28Zm3.22,19.83c.46-.06.58-.34.5-.74a.69.69,0,0,0-.75-.59c-.32,0-.71.09-.68.44,0,.57.48,0,.71.18s.17.45.21.7l-.11.12Zm-3.83-.18c-.3.73-.14,1.19.67,1.23.46,0,1.06-.08.87-.67s.25-1.61-.86-1.7C53.29,48.72,53.41,49.37,53.53,49.93Zm6.35.35c-.4-.32.27-1.28-.46-1.35s-1.06.7-1.11,1.3.68.51,1.08.64S60,50.83,59.88,50.28ZM47.83,41.8c.42-.1,1.28.25,1.28-.39,0-.84-.89-.28-1.37-.43a1.5,1.5,0,0,0-.52,0c-.3,0-.69,0-.72.38s.43.42.75.45A5.58,5.58,0,0,0,47.83,41.8ZM60.34,49c.87.33.91.77.43,1.36-.11.13-.19.33,0,.44s.34.05.36,0c.25-.55.73-1.16.65-1.66C61.68,48.48,61,48.8,60.34,49Zm-7.75,1.84a2.4,2.4,0,0,0,.21-1.48c0-.35-.15-.63-.55-.52s-.61.38-.26.66S52.08,50.46,52.59,50.84Z"/><path class="cls-6" d="M35.18,56a9.7,9.7,0,0,1-9.7-9.67,9.49,9.49,0,0,1,10-9.75A9.48,9.48,0,0,1,45,46.25,9.63,9.63,0,0,1,35.18,56Zm4.69-16.65a.66.66,0,0,0-.23,0c-.09,0-.21,0-.25.09-1.07,1.45-2.47,1.31-4,.84a1.64,1.64,0,0,0-.66,0,7,7,0,0,0-6,5.1,6.57,6.57,0,0,0,3.62,7.45c2.71,1.44,5.69.7,8.09-2a6.43,6.43,0,0,0,.37-7.36c-.46-.65-1.14-1.14-1.57-1.8C38.7,40.74,40.1,40.23,39.87,39.35Z"/><path class="cls-6" d="M85.71,53.49c-.52.3-1.14.47-1.32,1.15-3.81,2.44-7.7,2.81-11.45,0a8.91,8.91,0,0,1-3.52-9.55A9.26,9.26,0,0,1,76.61,38a9,9,0,0,1,9.81,4.12c2.27,3.42,1.91,7-.13,10.44C86.11,52.9,85.9,53.2,85.71,53.49Zm-7.18.65a6.33,6.33,0,0,0,6.41-6.29,6.41,6.41,0,0,0-12.82,0A6.39,6.39,0,0,0,78.53,54.14Z"/><path class="cls-3" d="M64.9,39.93a1.89,1.89,0,0,0,2.47-.75,1.15,1.15,0,0,1,1-.59c.42.84.15,1.78.41,2.64l-.66,0-2.43,0c-.19-.3-.25-.72-.7-.78Z"/><path class="cls-4" d="M61.62,30.33l-.28,0C61.42,30.22,61.49,30,61.62,30.33Z"/><path class="cls-4" d="M64.9,39.93l.06.53a8.67,8.67,0,0,1-1.25,5,3.42,3.42,0,0,1-3.18,1.74c-2.26-.13-4.54-.06-6.81,0a2.06,2.06,0,0,1-1.87-.79,1.49,1.49,0,0,0-2.28-.44,4.37,4.37,0,0,1-.87.34.43.43,0,0,1-.56-.22.41.41,0,0,1,.15-.58,2.8,2.8,0,0,1,.7-.38c1-.35,1.28-.93,1-2a7.4,7.4,0,0,1,6.76-9.34l1.44,0,.76.08a.49.49,0,0,0,.58.18C62.6,34.82,64.22,37,64.9,39.93Zm-7.57,6.2c1.21,0,2.41,0,3.62,0a1.84,1.84,0,0,0,1.6-.73,6.57,6.57,0,0,0,1.29-5.89c-.74-3.49-4.69-5.71-8.3-4.8a6.8,6.8,0,0,0-4.6,8.55c.1.32.26.7.6.54,1.1-.48,2.15-1.08,3.23-1.6.65-.31.39-.93.54-1.41a2.33,2.33,0,0,1,2.34-1.59,2.38,2.38,0,0,1,1.83,2.47c-.1,1-1.3,2.19-2.22,1.87-1.57-.53-2.78.22-4.07.76-.42.17-1.25.17-1.06.9a1.31,1.31,0,0,0,1.45.93C54.83,46.09,56.08,46.13,57.33,46.13Zm.24-3.49c.6,0,1-.48,1-1.2a1.14,1.14,0,0,0-1.23-1.26,1.15,1.15,0,0,0-1.3,1.2C56.08,42.11,56.5,42.63,57.57,42.64Z"/><path class="cls-1" d="M53.53,49.93c-.12-.56-.24-1.21.68-1.14,1.11.09.67,1.11.86,1.7s-.41.69-.87.67C53.39,51.12,53.23,50.66,53.53,49.93Z"/><path class="cls-1" d="M59.88,50.28c.13.55-.18.7-.49.59s-1.14,0-1.08-.64.52-1.36,1.11-1.3S59.48,50,59.88,50.28Z"/><path class="cls-4" d="M47.83,41.8a5.58,5.58,0,0,1-.58,0c-.32,0-.8.1-.75-.45s.42-.36.72-.38a1.5,1.5,0,0,1,.52,0c.48.15,1.37-.41,1.37.43C49.11,42.05,48.25,41.7,47.83,41.8Z"/><path class="cls-4" d="M65.66,41.24l2.43,0c.28.74-.2.91-.71.78S65.65,42.71,65.66,41.24Z"/><path class="cls-1" d="M60.34,49c.63-.2,1.34-.52,1.46.14.08.5-.4,1.11-.65,1.66,0,.05-.26.06-.36,0s-.13-.31,0-.44C61.25,49.77,61.21,49.33,60.34,49Z"/><path class="cls-4" d="M57.11,32.7l0-1.6a.59.59,0,0,0,.28-.54c1.11.59.31,1.62.54,2.41C57.5,33.27,57.34,32.9,57.11,32.7Z"/><path class="cls-1" d="M52.59,50.84c-.51-.38-.18-1-.6-1.34s-.05-.57.26-.66.56.17.55.52A2.4,2.4,0,0,1,52.59,50.84Z"/><path class="cls-1" d="M57.35,50.1c0-.25.07-.52-.21-.7s-.67.39-.71-.18c0-.35.36-.44.68-.44a.69.69,0,0,1,.75.59c.08.4,0,.68-.5.74Z"/><path class="cls-2" d="M57.11,32.7c.23.2.39.57.79.27.27.17.23.48.31.74l-1.44,0C56.9,33.37,56.74,32.94,57.11,32.7Z"/><path class="cls-2" d="M59.55,34a.49.49,0,0,1-.58-.18C59.31,33.38,59.42,33.69,59.55,34Z"/><path class="cls-2" d="M57.36,30.56a.59.59,0,0,1-.28.54C56.71,30.68,57,30.61,57.36,30.56Z"/><path class="cls-1" d="M57.36,50.11l-.12.11.11-.12Z"/><path class="cls-4" d="M39.87,39.35c.23.88-1.17,1.39-.61,2.28.43.66,1.11,1.15,1.57,1.8a6.43,6.43,0,0,1-.37,7.36c-2.4,2.71-5.38,3.45-8.09,2a6.57,6.57,0,0,1-3.62-7.45,7,7,0,0,1,6-5.1,1.64,1.64,0,0,1,.66,0c1.49.47,2.89.61,4-.84,0-.06.16-.08.25-.09A.66.66,0,0,1,39.87,39.35Zm-4.43,1.87a5.75,5.75,0,0,0-5.61,3.71,5.66,5.66,0,0,0,1.79,6.37,5.71,5.71,0,0,0,7.69-8.42c-.59-.57-1-.75-1.52.12-.64,1-1.35,1.87-.82,3.27a1.46,1.46,0,0,1-1.31,1.95,1.79,1.79,0,0,1-2.27-1.16,1.59,1.59,0,0,1,.9-2.22c1.32-.42,1.72-1.61,2.5-2.48.46-.49.23-.92-.4-1.06A4.8,4.8,0,0,0,35.44,41.22Zm.75,5.27a1,1,0,0,0-1.06-1.07.9.9,0,0,0-1,1,1,1,0,0,0,1,1C35.81,47.44,36.19,47.16,36.19,46.49Z"/><path class="cls-4" d="M78.53,54.14a6.39,6.39,0,0,1-6.41-6.32,6.41,6.41,0,1,1,6.41,6.32Zm5.41-6.25c.25-3.42-2.83-5.55-5.42-5.56a5.49,5.49,0,0,0,0,11A5.4,5.4,0,0,0,83.94,47.89Z"/><path class="cls-6" d="M57.33,46.13c-1.25,0-2.5,0-3.75,0a1.31,1.31,0,0,1-1.45-.93c-.19-.73.64-.73,1.06-.9,1.29-.54,2.5-1.29,4.07-.76.92.32,2.12-.87,2.22-1.87a2.38,2.38,0,0,0-1.83-2.47,2.33,2.33,0,0,0-2.34,1.59c-.15.48.11,1.1-.54,1.41-1.08.52-2.13,1.12-3.23,1.6-.34.16-.5-.22-.6-.54a6.8,6.8,0,0,1,4.6-8.55c3.61-.91,7.56,1.31,8.3,4.8a6.57,6.57,0,0,1-1.29,5.89,1.84,1.84,0,0,1-1.6.73C59.74,46.1,58.54,46.13,57.33,46.13Z"/><path class="cls-6" d="M57.57,42.64c-1.07,0-1.49-.53-1.48-1.26a1.15,1.15,0,0,1,1.3-1.2,1.14,1.14,0,0,1,1.23,1.26C58.6,42.16,58.17,42.67,57.57,42.64Z"/><path class="cls-6" d="M35.44,41.22a4.8,4.8,0,0,1,1,.08c.63.14.86.57.4,1.06-.78.87-1.18,2.06-2.5,2.48a1.59,1.59,0,0,0-.9,2.22,1.79,1.79,0,0,0,2.27,1.16A1.46,1.46,0,0,0,37,46.27c-.53-1.4.18-2.24.82-3.27.55-.87.93-.69,1.52-.12a5.71,5.71,0,0,1-7.69,8.42,5.66,5.66,0,0,1-1.79-6.37A5.75,5.75,0,0,1,35.44,41.22Z"/><path class="cls-6" d="M36.19,46.49c0,.67-.38.95-1,.94a1,1,0,0,1-1-1,.9.9,0,0,1,1-1A1,1,0,0,1,36.19,46.49Z"/><path class="cls-6" d="M83.94,47.89a5.4,5.4,0,0,1-5.43,5.42,5.49,5.49,0,0,1,0-11C81.11,42.34,84.19,44.47,83.94,47.89Z"/></g></g></svg>