<svg version="1.1" id="Layer_1" xmlns="http://www.w3.org/2000/svg" xmlns:xlink="http://www.w3.org/1999/xlink" x="0px" y="0px"
	 width="100%" viewBox="0 0 618 476" enable-background="new 0 0 618 476" xml:space="preserve">
<path fill="#FFFFFF" opacity="1.000000" stroke="none" 
	d="
M619.000000,382.000000 
	C619.000000,413.660492 619.000000,445.320984 619.000000,476.986084 
	C413.046387,476.990723 207.092758,476.990723 1.069569,476.990723 
	C1.069569,318.410706 1.069569,159.821365 1.069569,1.116014 
	C206.882416,1.116014 412.764893,1.116014 619.000000,1.116014 
	C619.000000,126.690529 619.000000,252.381378 618.598022,378.463013 
	C617.794922,377.363129 617.123779,375.886414 617.045898,374.379028 
	C616.849915,370.585938 616.921570,366.779022 616.913696,362.511597 
	C616.620667,302.361694 616.299866,242.677826 616.222778,182.808609 
	C616.308228,181.749664 616.149963,180.876053 616.002014,179.533722 
	C616.010132,168.377274 616.007996,157.689560 616.256287,146.785263 
	C616.343262,145.377380 616.179810,144.186066 616.023438,142.531952 
	C616.020264,138.046097 616.010132,134.023041 616.274414,129.726196 
	C616.334595,126.979263 616.120361,124.506142 615.922852,121.588074 
	C615.635864,116.425758 615.332031,111.708389 615.187805,106.608215 
	C615.509399,97.847893 615.734192,89.470955 615.810913,81.092659 
	C615.861572,75.566254 615.492615,70.031143 615.672791,64.511726 
	C616.127014,50.601749 617.300415,36.588127 606.998779,24.663872 
	C603.482727,20.088333 600.941284,14.485716 596.598999,11.850041 
	C587.640686,6.412547 577.316284,4.139011 566.697083,4.075691 
	C507.834747,3.724704 448.972412,3.352070 390.109650,3.081635 
	C362.115570,2.953021 334.120575,3.025156 306.125977,3.023200 
	C270.373077,3.020702 234.619919,2.964215 198.867401,3.084009 
	C187.570312,3.121862 176.274857,3.650791 164.606461,3.951288 
	C163.488693,3.967483 162.743134,3.987368 161.626617,3.851928 
	C159.345200,3.501286 157.437241,3.175259 155.523697,3.138238 
	C151.703125,3.064322 147.879501,3.148924 143.590912,3.125904 
	C123.844200,3.270905 104.563690,3.458062 85.283180,3.645220 
	C85.294235,4.095974 85.305290,4.546730 85.316345,4.997485 
	C86.971222,4.997485 88.627075,4.960280 90.280830,5.003462 
	C101.884506,5.306450 113.489311,5.578403 125.090607,5.956729 
	C133.063782,6.216740 141.031906,6.631765 149.445801,6.994836 
	C152.258942,7.010392 154.628555,7.008616 157.291656,7.291303 
	C161.390213,7.370678 165.195267,7.165590 169.462631,6.978981 
	C178.552277,7.307714 187.177612,7.708621 195.807587,7.899176 
	C202.557709,8.048223 209.313614,7.933237 216.066940,7.941201 
	C229.728989,7.957311 243.391052,7.994239 257.053101,7.992902 
	C361.354126,7.982696 465.655304,7.879640 569.955994,8.053205 
	C583.775513,8.076202 595.695618,13.300138 604.198486,25.296352 
	C609.721008,34.248676 611.478027,43.721600 611.075073,53.763493 
	C610.942322,57.071156 611.399902,60.398056 611.419128,63.717133 
	C611.470398,72.588188 611.356567,81.460533 611.450195,90.330872 
	C611.522888,97.221649 611.809082,104.110168 611.990112,111.465698 
	C611.974854,116.617813 611.969849,121.303925 611.752197,126.146599 
	C611.707825,126.864449 611.876282,127.425743 612.032227,128.437958 
	C612.021118,131.594940 612.022400,134.300980 611.779907,137.193115 
	C611.705994,138.248184 611.875732,139.117172 612.031372,140.454163 
	C612.325989,148.919800 612.634766,156.917404 612.574707,165.034271 
	C612.157349,168.095245 612.108887,171.036942 612.057312,174.382462 
	C612.291809,176.558640 612.710571,178.328369 612.736206,180.103790 
	C612.860718,188.703491 612.879639,197.304688 612.577881,206.018585 
	C612.141663,208.422836 612.063538,210.713867 611.974243,213.472931 
	C611.979553,254.961929 611.996094,295.982880 611.736267,337.275146 
	C611.647095,340.028534 611.834412,342.510620 612.009155,345.461243 
	C612.002869,351.955200 612.009094,357.980591 611.738647,364.277985 
	C611.667908,367.021301 611.873840,369.492615 612.060181,372.412170 
	C612.047058,375.247498 612.053528,377.634552 611.795410,380.233215 
	C611.688782,381.963654 611.846863,383.482422 611.997070,385.377319 
	C612.000427,386.505951 612.011597,387.258514 611.735718,388.303833 
	C611.362732,395.674194 611.407959,402.756409 611.159424,409.828339 
	C610.801208,420.020264 611.135071,430.363281 609.389343,440.329285 
	C608.433350,445.786926 604.180725,450.866913 600.760803,455.649658 
	C594.526123,464.368927 584.957886,467.227325 574.566406,469.055481 
	C571.185791,469.358032 568.222046,469.960693 565.267395,469.919159 
	C552.802673,469.743927 540.340027,469.116119 527.877747,469.144043 
	C511.483887,469.180847 495.091888,469.747192 478.697449,469.952820 
	C467.939575,470.087769 457.178772,469.990448 446.419281,469.992371 
	C352.999207,470.009125 259.579102,469.978058 166.159134,470.084900 
	C149.866623,470.103546 133.574295,470.989655 117.282745,470.961609 
	C95.657494,470.924408 74.029221,470.007599 52.410145,470.231323 
	C42.964844,470.329071 35.070675,466.837402 26.876389,462.674561 
	C24.977121,460.592560 23.217995,458.818665 21.496420,457.009003 
	C16.094439,451.330688 12.667885,444.396881 11.217189,436.931854 
	C9.932539,430.321259 10.012361,423.379944 10.055300,416.588226 
	C10.240488,387.297058 10.606146,358.006866 10.969794,328.717133 
	C11.064989,321.049774 11.581499,313.384796 11.560453,305.719635 
	C11.532830,295.659454 11.215348,285.598755 10.926764,275.541016 
	C10.686202,267.156952 10.104674,258.778564 10.032848,250.394577 
	C9.887928,233.478760 9.983237,216.560883 9.986518,199.643845 
	C9.988604,188.886261 10.012710,178.128693 10.010777,167.371109 
	C10.004316,131.429047 9.892638,95.486504 10.066705,59.545334 
	C10.099404,52.793678 11.058266,46.019508 11.980622,39.309460 
	C12.519403,35.389885 13.832902,31.576801 14.797864,27.715807 
	C11.543460,31.815260 9.133330,36.219059 7.404507,40.875797 
	C6.873562,42.305946 8.762198,44.484344 8.586500,46.223484 
	C7.966415,52.361412 6.430920,58.435986 6.167946,64.574226 
	C5.743796,74.474602 5.939088,84.408241 6.093429,94.324402 
	C6.204440,101.456657 6.976867,108.585205 6.932596,115.712158 
	C6.743391,146.171127 6.299789,176.628479 6.099154,207.087418 
	C6.058803,213.213150 6.881127,219.341080 6.942725,225.471649 
	C7.080899,239.223785 7.049099,252.978607 6.951609,266.731384 
	C6.928247,270.027100 6.075744,273.323700 6.125671,276.611969 
	C6.275716,286.493896 6.857988,296.370239 6.950220,306.251801 
	C7.099700,322.266937 6.995409,338.284485 6.994741,354.300995 
	C6.994085,370.057373 6.860723,385.815125 7.028090,401.569672 
	C7.153380,413.363373 6.828419,425.253845 8.236708,436.916107 
	C9.654141,448.654144 15.495141,458.544861 26.140385,465.336670 
	C31.555302,468.027771 36.610912,471.669800 42.101337,472.527069 
	C51.315399,473.965729 60.805840,473.641907 70.180824,474.039917 
	C77.641151,474.356689 85.104279,474.921082 92.563400,474.879608 
	C103.858276,474.816864 115.149826,474.134552 126.444588,474.078705 
	C134.072922,474.040955 141.702713,474.833008 149.334747,474.894287 
	C166.920410,475.035461 184.507843,474.967590 202.094559,474.966614 
	C287.193207,474.961853 372.291870,474.950012 457.390533,474.943268 
	C482.335907,474.941284 507.281311,474.949585 532.226685,474.949493 
	C544.224731,474.949463 556.244141,475.375183 568.213501,474.787140 
	C576.519836,474.379059 585.239441,474.249420 592.447632,468.065002 
	C600.487366,466.066681 605.047791,460.178711 609.219971,454.232483 
	C615.139526,445.795868 616.551575,435.788879 616.871033,425.815948 
	C617.286865,412.834534 616.906555,399.828949 617.068542,386.836273 
	C617.088745,385.216431 618.326477,383.611725 619.000000,382.000000 
M161.989395,263.446320 
	C166.497070,266.439117 166.731110,261.631592 169.115982,259.969696 
	C167.206207,258.255157 165.649323,256.857452 164.065002,255.435089 
	C165.205170,253.275345 166.318176,251.438141 167.179886,249.489792 
	C171.976974,238.643143 167.912720,224.971069 158.395569,219.750702 
	C149.364792,214.797119 139.780243,216.345901 132.527145,223.930817 
	C126.324669,230.417068 124.893982,244.113617 129.604675,251.909073 
	C134.783585,260.479401 144.335617,264.281372 154.136612,261.270264 
	C157.183990,260.334015 159.551865,260.069122 161.989395,263.446320 
M289.966827,238.115341 
	C286.945526,228.219696 280.812103,226.535934 269.208954,232.416870 
	C263.170380,227.843369 258.777527,227.792587 251.670502,230.979507 
	C248.968842,230.607193 246.267197,230.234879 243.337418,229.831116 
	C243.337418,240.706558 243.337418,250.593918 243.337418,260.665894 
	C246.267593,260.665894 248.828232,260.665894 251.718048,260.665894 
	C251.813675,258.734985 251.949387,257.110260 251.963959,255.484451 
	C252.002731,251.157700 251.831741,246.822861 252.040741,242.505600 
	C252.252655,238.128342 255.117050,235.546738 258.381134,237.246429 
	C260.175110,238.180618 261.636505,241.252975 261.823334,243.480713 
	C262.301758,249.186859 261.982971,254.959854 261.982971,260.569458 
	C265.464661,260.569458 268.027588,260.569458 271.006714,260.569458 
	C271.006714,254.341492 270.874512,248.536697 271.049347,242.741135 
	C271.184692,238.253586 273.810913,235.686874 277.159637,237.225586 
	C278.974579,238.059509 280.630981,241.078796 280.822662,243.248047 
	C281.328003,248.966324 280.993652,254.758789 280.993652,260.663330 
	C284.304779,260.663330 286.868164,260.663330 289.989075,260.663330 
	C289.989075,253.223007 289.989075,246.111084 289.966827,238.115341 
M299.204010,260.554260 
	C301.274017,261.024628 303.355804,261.937042 305.411865,261.882477 
	C311.580750,261.718628 317.740112,261.184448 323.900574,260.757080 
	C324.149567,260.739838 324.371918,260.339264 323.996368,260.694427 
	C323.996368,253.003784 323.935486,245.897369 324.020355,238.792709 
	C324.067230,234.870941 322.574036,231.961685 318.891541,230.518784 
	C313.081573,228.242340 307.130707,228.041641 301.525757,230.896439 
	C298.235474,232.572266 294.828644,234.803680 296.562195,239.802902 
	C300.354370,239.932022 303.981354,241.108521 306.564850,237.094376 
	C307.139893,236.200928 309.371124,235.775009 310.619873,236.068741 
	C312.097961,236.416428 313.337799,237.777054 314.680908,238.698639 
	C313.541931,239.728989 312.562988,241.236511 311.228577,241.684006 
	C308.910645,242.461304 306.383484,242.673157 303.925171,242.960495 
	C299.602325,243.465729 296.298981,245.375580 295.002686,249.688812 
	C293.735870,253.903885 295.049896,257.449768 299.204010,260.554260 
M222.567947,229.012421 
	C212.728119,229.496246 206.389725,236.884003 207.043701,247.106812 
	C207.654602,256.656342 215.685425,263.039795 225.685669,261.924744 
	C231.617599,261.263306 236.878159,256.041626 236.102020,250.159256 
	C232.958420,251.279205 229.807526,251.902390 227.194778,253.439987 
	C222.268021,256.339325 218.223358,254.589111 217.300491,248.033325 
	C224.068283,248.033325 230.760529,248.033325 237.297134,248.033325 
	C239.372482,237.030624 233.607941,229.499878 222.567947,229.012421 
M463.856293,252.006393 
	C464.094788,251.212555 464.377350,250.429001 464.564880,249.623291 
	C466.257477,242.351898 463.433746,234.970230 457.591003,231.347046 
	C451.723175,227.708298 442.948608,228.235306 438.005035,232.507751 
	C431.808075,237.863464 431.057068,244.586823 433.210602,251.964325 
	C434.659668,256.928345 440.675781,261.511414 446.399109,261.913116 
	C453.980927,262.445343 460.116302,260.048523 463.856293,252.006393 
M472.773926,245.846451 
	C476.586853,246.964081 480.440094,247.966019 484.187469,249.271713 
	C485.273895,249.650269 486.464355,250.754333 486.836395,251.800034 
	C487.085785,252.500931 485.945862,254.529297 485.480896,254.512222 
	C482.980957,254.420441 479.007172,254.683304 478.276917,253.338608 
	C475.667877,248.534378 472.108154,250.164139 466.891235,250.580826 
	C468.761719,253.899536 469.672699,256.992126 471.712738,258.834717 
	C476.268799,262.950012 487.303619,263.100433 492.504303,259.638580 
	C495.823456,257.429199 497.965881,254.122192 496.785553,250.311768 
	C495.970490,247.680603 493.725067,245.059906 491.411957,243.450623 
	C489.227539,241.930878 486.089142,241.828735 483.428101,240.931808 
	C481.561035,240.302505 479.790802,239.385818 477.422852,238.356415 
	C480.688629,235.085480 484.469391,234.783768 485.967255,237.066437 
	C488.808777,241.396652 492.087372,239.622849 496.544098,239.575638 
	C495.665985,237.290970 495.368561,235.317978 494.298859,233.948044 
	C490.321533,228.854660 483.055389,227.432343 475.593994,229.981125 
	C467.817963,232.637375 466.253357,239.582153 472.773926,245.846451 
M369.885742,259.892548 
	C381.950470,264.782654 391.591278,260.852112 394.519409,249.849472 
	C396.841003,241.125961 392.250214,232.373581 383.866394,229.539368 
	C375.838226,226.825378 366.182526,230.878601 363.832733,238.804916 
	C361.648956,246.171249 361.992859,254.411880 369.885742,259.892548 
M180.300171,230.008286 
	C178.368500,230.008286 176.436829,230.008286 173.978409,230.008286 
	C173.978409,237.149811 173.933258,243.597351 173.988770,250.044052 
	C174.076645,260.248077 180.978668,264.692810 190.418976,260.861908 
	C191.795746,260.303223 193.607864,260.827026 195.218597,260.832794 
	C197.641220,260.841492 200.063904,260.835083 202.687149,260.835083 
	C202.687149,250.389526 202.687149,240.504700 202.687149,230.455139 
	C199.688828,230.455139 197.014389,230.455139 194.335831,230.455139 
	C194.015839,237.024567 193.899292,243.152176 193.350784,249.240891 
	C193.035080,252.745468 190.521683,255.052567 187.164093,253.788162 
	C185.321609,253.094315 183.449341,250.207001 183.170670,248.099762 
	C182.565231,243.521591 183.105560,238.803131 182.887177,234.155670 
	C182.822128,232.771225 181.791962,231.432159 180.300171,230.008286 
M335.886566,231.107071 
	C328.616425,237.056686 326.501434,246.525009 330.708099,254.289841 
	C334.382477,261.072235 341.696136,263.506256 350.602356,260.910736 
	C355.942719,259.354370 359.169983,254.645905 358.351318,249.213135 
	C354.828430,249.168716 351.377258,247.639587 348.791809,252.416580 
	C346.697876,256.285492 340.520813,255.400482 339.389709,251.068314 
	C338.465210,247.527618 338.660217,243.210190 339.828735,239.730759 
	C341.270599,235.437500 345.726166,234.692963 348.492096,238.163528 
	C351.572784,242.029053 354.920929,241.147873 359.645660,240.373367 
	C358.627686,238.117218 358.166321,236.008499 356.933777,234.552628 
	C351.812744,228.503555 345.600647,227.459610 335.886566,231.107071 
M419.108246,238.604141 
	C421.748993,242.672974 425.291809,240.879669 428.708771,240.466599 
	C428.188110,232.857117 421.826202,228.419632 412.840088,229.027451 
	C403.281555,229.673996 398.292145,236.790985 398.997284,248.773224 
	C399.451080,256.484772 406.526031,262.354248 414.892181,261.959778 
	C423.525085,261.552765 428.787415,256.758667 428.484833,249.576523 
	C422.619324,248.403183 422.619293,248.403152 419.019257,252.442642 
	C416.032349,255.794174 410.701599,255.263718 409.273621,251.048386 
	C408.316528,248.223099 408.057617,244.793533 408.669189,241.882904 
	C409.860718,236.212128 413.470367,235.044479 419.108246,238.604141 
M16.133282,23.411913 
	C15.879502,24.058437 15.625722,24.704962 15.371943,25.351488 
	C15.201900,25.089424 15.031857,24.827362 14.861814,24.565300 
	C19.637972,20.194141 24.414127,15.822981 28.634785,11.960217 
	C24.927372,13.233644 20.231159,17.317860 16.133282,23.411913 
M33.282551,9.467152 
	C33.011936,9.724017 32.741318,9.980882 32.470703,10.237747 
	C32.577435,10.348932 32.770489,10.563071 32.778419,10.556421 
	C33.063766,10.317173 33.331833,10.057322 33.282551,9.467152 
z"/>
<path fill="#E1E1E1" opacity="1.000000" stroke="none" 
	d="
M619.000000,381.625000 
	C618.326477,383.611725 617.088745,385.216431 617.068542,386.836273 
	C616.906555,399.828949 617.286865,412.834534 616.871033,425.815948 
	C616.551575,435.788879 615.139526,445.795868 609.219971,454.232483 
	C605.047791,460.178711 600.487366,466.066681 592.215759,467.782288 
	C589.276550,468.072357 586.955017,468.985260 584.598267,469.087585 
	C581.411011,469.225983 578.142883,473.172028 574.987488,469.059235 
	C584.957886,467.227325 594.526123,464.368927 600.760803,455.649658 
	C604.180725,450.866913 608.433350,445.786926 609.389343,440.329285 
	C611.135071,430.363281 610.801208,420.020264 611.159424,409.828339 
	C611.407959,402.756409 611.362732,395.674194 611.993408,388.513062 
	C612.984619,389.163635 613.431152,389.897736 614.497925,391.651581 
	C614.816040,388.065857 616.560364,385.243713 612.004883,385.001221 
	C611.846863,383.482422 611.688782,381.963654 612.122437,380.368713 
	C613.453430,380.011505 614.820618,379.760132 614.835510,379.444885 
	C614.991943,376.132874 614.932251,372.810638 614.932251,368.043335 
	C613.330078,370.245392 612.704956,371.104645 612.079773,371.963898 
	C611.873840,369.492615 611.667908,367.021301 612.027466,364.396790 
	C614.023926,363.821625 615.454956,363.399628 616.885925,362.977631 
	C616.921570,366.779022 616.849915,370.585938 617.045898,374.379028 
	C617.123779,375.886414 617.794922,377.363129 618.598022,378.926910 
	C619.000000,379.750000 619.000000,380.500000 619.000000,381.625000 
z"/>
<path fill="#DADADA" opacity="1.000000" stroke="none" 
	d="
M574.566406,469.055481 
	C578.142883,473.172028 581.411011,469.225983 584.598267,469.087585 
	C586.955017,468.985260 589.276550,468.072357 591.845703,467.803253 
	C585.239441,474.249420 576.519836,474.379059 568.213501,474.787140 
	C556.244141,475.375183 544.224731,474.949463 532.226685,474.949493 
	C507.281311,474.949585 482.335907,474.941284 457.390533,474.943268 
	C372.291870,474.950012 287.193207,474.961853 202.094559,474.966614 
	C184.507843,474.967590 166.920410,475.035461 149.334747,474.894287 
	C141.702713,474.833008 134.072922,474.040955 126.444588,474.078705 
	C115.149826,474.134552 103.858276,474.816864 92.563400,474.879608 
	C85.104279,474.921082 77.641151,474.356689 70.180824,474.039917 
	C60.805840,473.641907 51.315399,473.965729 42.101337,472.527069 
	C36.610912,471.669800 31.555302,468.027771 26.169424,465.028870 
	C26.367659,463.935455 26.700687,463.450867 27.033710,462.966278 
	C35.070675,466.837402 42.964844,470.329071 52.410145,470.231323 
	C74.029221,470.007599 95.657494,470.924408 117.282745,470.961609 
	C133.574295,470.989655 149.866623,470.103546 166.159134,470.084900 
	C259.579102,469.978058 352.999207,470.009125 446.419281,469.992371 
	C457.178772,469.990448 467.939575,470.087769 478.697449,469.952820 
	C495.091888,469.747192 511.483887,469.180847 527.877747,469.144043 
	C540.340027,469.116119 552.802673,469.743927 565.267395,469.919159 
	C568.222046,469.960693 571.185791,469.358032 574.566406,469.055481 
z"/>
<path fill="#DADADA" opacity="1.000000" stroke="none" 
	d="
M164.978653,3.954979 
	C176.274857,3.650791 187.570312,3.121862 198.867401,3.084009 
	C234.619919,2.964215 270.373077,3.020702 306.125977,3.023200 
	C334.120575,3.025156 362.115570,2.953021 390.109650,3.081635 
	C448.972412,3.352070 507.834747,3.724704 566.697083,4.075691 
	C577.316284,4.139011 587.640686,6.412547 596.598999,11.850041 
	C600.941284,14.485716 603.482727,20.088333 606.610474,24.670565 
	C605.615051,24.984419 604.848511,24.975401 604.082031,24.966383 
	C595.695618,13.300138 583.775513,8.076202 569.955994,8.053205 
	C465.655304,7.879640 361.354126,7.982696 257.053101,7.992902 
	C243.391052,7.994239 229.728989,7.957311 216.066940,7.941201 
	C209.313614,7.933237 202.557709,8.048223 195.807587,7.899176 
	C187.177612,7.708621 178.552277,7.307714 169.464020,6.739885 
	C169.003098,6.482310 169.003067,6.003319 169.300903,6.002725 
	C170.126114,5.916960 170.653458,5.831789 171.180817,5.746618 
	C171.127289,5.526638 171.073761,5.306657 171.020248,5.086677 
	C170.346176,5.390125 169.672104,5.693573 168.620178,5.996110 
	C167.154434,5.315126 166.066544,4.635053 164.978653,3.954979 
z"/>
<path fill="#E1E1E1" opacity="1.000000" stroke="none" 
	d="
M26.876392,462.674561 
	C26.700687,463.450867 26.367659,463.935455 26.005589,464.727844 
	C15.495141,458.544861 9.654141,448.654144 8.236708,436.916107 
	C6.828419,425.253845 7.153380,413.363373 7.028090,401.569672 
	C6.860723,385.815125 6.994085,370.057373 6.994741,354.300995 
	C6.995409,338.284485 7.099700,322.266937 6.950220,306.251801 
	C6.857988,296.370239 6.275716,286.493896 6.125671,276.611969 
	C6.075744,273.323700 6.928247,270.027100 6.951609,266.731384 
	C7.049099,252.978607 7.080899,239.223785 6.942725,225.471649 
	C6.881127,219.341080 6.058803,213.213150 6.099154,207.087418 
	C6.299789,176.628479 6.743391,146.171127 6.932596,115.712158 
	C6.976867,108.585205 6.204440,101.456657 6.093429,94.324402 
	C5.939088,84.408241 5.743796,74.474602 6.167946,64.574226 
	C6.430920,58.435986 7.966415,52.361412 8.586500,46.223484 
	C8.762198,44.484344 6.873562,42.305946 7.404507,40.875797 
	C9.133330,36.219059 11.543460,31.815260 14.797864,27.715807 
	C13.832902,31.576801 12.519403,35.389885 11.980622,39.309460 
	C11.058266,46.019508 10.099404,52.793678 10.066705,59.545334 
	C9.892638,95.486504 10.004316,131.429047 10.010777,167.371109 
	C10.012710,178.128693 9.988604,188.886261 9.986518,199.643845 
	C9.983237,216.560883 9.887928,233.478760 10.032848,250.394577 
	C10.104674,258.778564 10.686202,267.156952 10.926764,275.541016 
	C11.215348,285.598755 11.532830,295.659454 11.560453,305.719635 
	C11.581499,313.384796 11.064989,321.049774 10.969794,328.717133 
	C10.606146,358.006866 10.240488,387.297058 10.055300,416.588226 
	C10.012361,423.379944 9.932539,430.321259 11.217189,436.931854 
	C12.667885,444.396881 16.094439,451.330688 21.496420,457.009003 
	C23.217995,458.818665 24.977121,460.592560 26.876392,462.674561 
z"/>
<path fill="#D6D6D6" opacity="1.000000" stroke="none" 
	d="
M161.734467,263.197418 
	C159.551865,260.069122 157.183990,260.334015 154.136612,261.270264 
	C144.335617,264.281372 134.783585,260.479401 129.604675,251.909073 
	C124.893982,244.113617 126.324669,230.417068 132.527145,223.930817 
	C139.780243,216.345901 149.364792,214.797119 158.395569,219.750702 
	C167.912720,224.971069 171.976974,238.643143 167.179886,249.489792 
	C166.318176,251.438141 165.205170,253.275345 164.065002,255.435089 
	C165.649323,256.857452 167.206207,258.255157 169.115982,259.969696 
	C166.731110,261.631592 166.497070,266.439117 161.734467,263.197418 
M154.949951,228.469681 
	C147.407959,223.332001 140.317551,225.836060 137.679459,234.580765 
	C134.498978,245.123367 141.267639,255.266373 149.517456,253.261200 
	C147.460190,248.369537 147.460190,248.369537 152.269287,245.218201 
	C153.532639,246.109787 154.833954,247.028152 156.550949,248.239883 
	C160.511673,241.264847 159.465698,235.078339 154.949951,228.469681 
z"/>
<path fill="#DADADA" opacity="1.000000" stroke="none" 
	d="
M616.913696,362.511597 
	C615.454956,363.399628 614.023926,363.821625 612.304138,364.124756 
	C612.009094,357.980591 612.002869,351.955200 612.288879,345.193176 
	C612.391663,341.972260 612.202148,339.488037 612.012695,337.003815 
	C611.996094,295.982880 611.979553,254.961929 612.265625,213.203156 
	C612.690796,210.278656 612.813354,208.092010 612.935913,205.905365 
	C612.879639,197.304688 612.860718,188.703491 612.736206,180.103790 
	C612.710571,178.328369 612.291809,176.558640 612.335632,174.096420 
	C612.725891,170.576035 612.834717,167.745529 612.943481,164.915009 
	C612.634766,156.917404 612.325989,148.919800 612.271851,140.268555 
	C612.358887,138.745605 612.191284,137.876312 612.023682,137.007019 
	C612.022400,134.300980 612.021118,131.594940 612.251465,128.287308 
	C612.310364,127.120491 612.137573,126.555267 611.964844,125.990051 
	C611.969849,121.303925 611.974854,116.617813 612.256348,111.242813 
	C613.364624,109.366302 614.196411,108.178665 615.028137,106.991028 
	C615.332031,111.708389 615.635864,116.425758 615.658936,121.862518 
	C615.585449,125.054619 615.792725,127.527313 616.000000,130.000000 
	C616.010132,134.023041 616.020264,138.046097 615.759399,142.741180 
	C615.660828,144.609421 615.833374,145.805634 616.005920,147.001831 
	C616.007996,157.689560 616.010132,168.377274 615.754517,179.716614 
	C615.657532,181.243469 615.818298,182.118713 615.979065,182.993942 
	C616.299866,242.677826 616.620667,302.361694 616.913696,362.511597 
z"/>
<path fill="#D6D6D6" opacity="1.000000" stroke="none" 
	d="
M289.977966,238.557251 
	C289.989075,246.111084 289.989075,253.223007 289.989075,260.663330 
	C286.868164,260.663330 284.304779,260.663330 280.993652,260.663330 
	C280.993652,254.758789 281.328003,248.966324 280.822662,243.248047 
	C280.630981,241.078796 278.974579,238.059509 277.159637,237.225586 
	C273.810913,235.686874 271.184692,238.253586 271.049347,242.741135 
	C270.874512,248.536697 271.006714,254.341492 271.006714,260.569458 
	C268.027588,260.569458 265.464661,260.569458 261.982971,260.569458 
	C261.982971,254.959854 262.301758,249.186859 261.823334,243.480713 
	C261.636505,241.252975 260.175110,238.180618 258.381134,237.246429 
	C255.117050,235.546738 252.252655,238.128342 252.040741,242.505600 
	C251.831741,246.822861 252.002731,251.157700 251.963959,255.484451 
	C251.949387,257.110260 251.813675,258.734985 251.718048,260.665894 
	C248.828232,260.665894 246.267593,260.665894 243.337418,260.665894 
	C243.337418,250.593918 243.337418,240.706558 243.337418,229.831116 
	C246.267197,230.234879 248.968842,230.607193 251.670502,230.979507 
	C258.777527,227.792587 263.170380,227.843369 269.208954,232.416870 
	C280.812103,226.535934 286.945526,228.219696 289.977966,238.557251 
z"/>
<path fill="#D6D6D6" opacity="1.000000" stroke="none" 
	d="
M298.861633,260.365021 
	C295.049896,257.449768 293.735870,253.903885 295.002686,249.688812 
	C296.298981,245.375580 299.602325,243.465729 303.925171,242.960495 
	C306.383484,242.673157 308.910645,242.461304 311.228577,241.684006 
	C312.562988,241.236511 313.541931,239.728989 314.680908,238.698639 
	C313.337799,237.777054 312.097961,236.416428 310.619873,236.068741 
	C309.371124,235.775009 307.139893,236.200928 306.564850,237.094376 
	C303.981354,241.108521 300.354370,239.932022 296.562195,239.802902 
	C294.828644,234.803680 298.235474,232.572266 301.525757,230.896439 
	C307.130707,228.041641 313.081573,228.242340 318.891541,230.518784 
	C322.574036,231.961685 324.067230,234.870941 324.020355,238.792709 
	C323.935486,245.897369 323.996368,253.003784 323.996368,260.694427 
	C324.371918,260.339264 324.149567,260.739838 323.900574,260.757080 
	C317.740112,261.184448 311.580750,261.718628 305.411865,261.882477 
	C303.355804,261.937042 301.274017,261.024628 298.861633,260.365021 
M310.125183,247.490707 
	C309.155212,247.705490 307.808075,247.596481 307.290405,248.199539 
	C306.042877,249.652664 305.183502,251.439011 304.167603,253.090973 
	C305.809723,253.985519 308.259064,256.041382 308.947021,255.563217 
	C311.285156,253.938019 313.001282,251.418060 314.954956,249.239777 
	C313.603271,248.567688 312.251587,247.895584 310.125183,247.490707 
z"/>
<path fill="#D6D6D6" opacity="1.000000" stroke="none" 
	d="
M222.997101,229.012421 
	C233.607941,229.499878 239.372482,237.030624 237.297134,248.033325 
	C230.760529,248.033325 224.068283,248.033325 217.300491,248.033325 
	C218.223358,254.589111 222.268021,256.339325 227.194778,253.439987 
	C229.807526,251.902390 232.958420,251.279205 236.102020,250.159256 
	C236.878159,256.041626 231.617599,261.263306 225.685669,261.924744 
	C215.685425,263.039795 207.654602,256.656342 207.043701,247.106812 
	C206.389725,236.884003 212.728119,229.496246 222.997101,229.012421 
M225.125443,241.986099 
	C226.314651,241.809204 227.503860,241.632324 228.693069,241.455444 
	C228.883636,240.840073 229.074219,240.224686 229.264786,239.609314 
	C226.880646,238.454544 224.503769,236.443192 222.110031,236.422913 
	C220.279495,236.407425 218.427612,238.910065 216.585236,240.292618 
	C216.874084,240.857269 217.162949,241.421921 217.451797,241.986572 
	C219.722183,241.986572 221.992554,241.986572 225.125443,241.986099 
z"/>
<path fill="#D6D6D6" opacity="1.000000" stroke="none" 
	d="
M463.707764,252.370117 
	C460.116302,260.048523 453.980927,262.445343 446.399109,261.913116 
	C440.675781,261.511414 434.659668,256.928345 433.210602,251.964325 
	C431.057068,244.586823 431.808075,237.863464 438.005035,232.507751 
	C442.948608,228.235306 451.723175,227.708298 457.591003,231.347046 
	C463.433746,234.970230 466.257477,242.351898 464.564880,249.623291 
	C464.377350,250.429001 464.094788,251.212555 463.707764,252.370117 
M453.837463,252.236664 
	C454.483490,250.539581 455.361420,248.891647 455.733429,247.136475 
	C457.017548,241.078033 451.793213,234.282104 447.240692,236.361908 
	C444.966522,237.400864 442.842377,240.462372 442.204071,242.999878 
	C441.188965,247.035324 441.487305,251.805710 445.826050,253.898132 
	C447.738556,254.820465 450.834351,253.289139 453.837463,252.236664 
z"/>
<path fill="#D6D6D6" opacity="1.000000" stroke="none" 
	d="
M472.443634,245.638519 
	C466.253357,239.582153 467.817963,232.637375 475.593994,229.981125 
	C483.055389,227.432343 490.321533,228.854660 494.298859,233.948044 
	C495.368561,235.317978 495.665985,237.290970 496.544098,239.575638 
	C492.087372,239.622849 488.808777,241.396652 485.967255,237.066437 
	C484.469391,234.783768 480.688629,235.085480 477.422852,238.356415 
	C479.790802,239.385818 481.561035,240.302505 483.428101,240.931808 
	C486.089142,241.828735 489.227539,241.930878 491.411957,243.450623 
	C493.725067,245.059906 495.970490,247.680603 496.785553,250.311768 
	C497.965881,254.122192 495.823456,257.429199 492.504303,259.638580 
	C487.303619,263.100433 476.268799,262.950012 471.712738,258.834717 
	C469.672699,256.992126 468.761719,253.899536 466.891235,250.580826 
	C472.108154,250.164139 475.667877,248.534378 478.276917,253.338608 
	C479.007172,254.683304 482.980957,254.420441 485.480896,254.512222 
	C485.945862,254.529297 487.085785,252.500931 486.836395,251.800034 
	C486.464355,250.754333 485.273895,249.650269 484.187469,249.271713 
	C480.440094,247.966019 476.586853,246.964081 472.443634,245.638519 
z"/>
<path fill="#D6D6D6" opacity="1.000000" stroke="none" 
	d="
M369.561401,259.695618 
	C361.992859,254.411880 361.648956,246.171249 363.832733,238.804916 
	C366.182526,230.878601 375.838226,226.825378 383.866394,229.539368 
	C392.250214,232.373581 396.841003,241.125961 394.519409,249.849472 
	C391.591278,260.852112 381.950470,264.782654 369.561401,259.695618 
M384.593170,250.868942 
	C384.568542,247.240112 385.160309,243.448044 384.260529,240.051010 
	C383.807373,238.340103 380.639252,236.304626 378.714478,236.320480 
	C376.786041,236.336365 374.064270,238.327011 373.163971,240.171463 
	C372.019653,242.515930 371.515869,245.855896 372.292114,248.265320 
	C373.088379,250.736847 375.408386,253.498947 377.738617,254.418900 
	C379.281067,255.027863 382.016296,252.615479 384.593170,250.868942 
z"/>
<path fill="#D6D6D6" opacity="1.000000" stroke="none" 
	d="
M180.752075,230.040283 
	C181.791962,231.432159 182.822128,232.771225 182.887177,234.155670 
	C183.105560,238.803131 182.565231,243.521591 183.170670,248.099762 
	C183.449341,250.207001 185.321609,253.094315 187.164093,253.788162 
	C190.521683,255.052567 193.035080,252.745468 193.350784,249.240891 
	C193.899292,243.152176 194.015839,237.024567 194.335831,230.455139 
	C197.014389,230.455139 199.688828,230.455139 202.687149,230.455139 
	C202.687149,240.504700 202.687149,250.389526 202.687149,260.835083 
	C200.063904,260.835083 197.641220,260.841492 195.218597,260.832794 
	C193.607864,260.827026 191.795746,260.303223 190.418976,260.861908 
	C180.978668,264.692810 174.076645,260.248077 173.988770,250.044052 
	C173.933258,243.597351 173.978409,237.149811 173.978409,230.008286 
	C176.436829,230.008286 178.368500,230.008286 180.752075,230.040283 
z"/>
<path fill="#D6D6D6" opacity="1.000000" stroke="none" 
	d="
M336.238098,230.944794 
	C345.600647,227.459610 351.812744,228.503555 356.933777,234.552628 
	C358.166321,236.008499 358.627686,238.117218 359.645660,240.373367 
	C354.920929,241.147873 351.572784,242.029053 348.492096,238.163528 
	C345.726166,234.692963 341.270599,235.437500 339.828735,239.730759 
	C338.660217,243.210190 338.465210,247.527618 339.389709,251.068314 
	C340.520813,255.400482 346.697876,256.285492 348.791809,252.416580 
	C351.377258,247.639587 354.828430,249.168716 358.351318,249.213135 
	C359.169983,254.645905 355.942719,259.354370 350.602356,260.910736 
	C341.696136,263.506256 334.382477,261.072235 330.708099,254.289841 
	C326.501434,246.525009 328.616425,237.056686 336.238098,230.944794 
z"/>
<path fill="#D6D6D6" opacity="1.000000" stroke="none" 
	d="
M418.842194,238.320770 
	C413.470367,235.044479 409.860718,236.212128 408.669189,241.882904 
	C408.057617,244.793533 408.316528,248.223099 409.273621,251.048386 
	C410.701599,255.263718 416.032349,255.794174 419.019257,252.442642 
	C422.619293,248.403152 422.619324,248.403183 428.484833,249.576523 
	C428.787415,256.758667 423.525085,261.552765 414.892181,261.959778 
	C406.526031,262.354248 399.451080,256.484772 398.997284,248.773224 
	C398.292145,236.790985 403.281555,229.673996 412.840088,229.027451 
	C421.826202,228.419632 428.188110,232.857117 428.708771,240.466599 
	C425.291809,240.879669 421.748993,242.672974 418.842194,238.320770 
z"/>
<path fill="#E1E1E1" opacity="1.000000" stroke="none" 
	d="
M615.187805,106.608215 
	C614.196411,108.178665 613.364624,109.366302 612.266602,110.776810 
	C611.809082,104.110168 611.522888,97.221649 611.450195,90.330872 
	C611.356567,81.460533 611.470398,72.588188 611.419128,63.717133 
	C611.399902,60.398056 610.942322,57.071156 611.075073,53.763493 
	C611.478027,43.721600 609.721008,34.248676 604.198486,25.296352 
	C604.848511,24.975401 605.615051,24.984419 606.769775,24.986740 
	C617.300415,36.588127 616.127014,50.601749 615.672791,64.511726 
	C615.492615,70.031143 615.861572,75.566254 615.810913,81.092659 
	C615.734192,89.470955 615.509399,97.847893 615.187805,106.608215 
z"/>
<path fill="#E1E1E1" opacity="1.000000" stroke="none" 
	d="
M149.002289,6.977502 
	C141.031906,6.631765 133.063782,6.216740 125.090607,5.956729 
	C113.489311,5.578403 101.884506,5.306450 90.280830,5.003462 
	C88.627075,4.960280 86.971222,4.997485 85.316345,4.997485 
	C85.305290,4.546730 85.294235,4.095974 85.283180,3.645220 
	C104.563690,3.458062 123.844200,3.270905 143.675903,3.493039 
	C147.105911,4.437871 149.984711,4.973412 152.778900,5.493216 
	C151.585541,5.962232 150.293915,6.469866 149.002289,6.977502 
z"/>
<path fill="#DADADA" opacity="1.000000" stroke="none" 
	d="
M149.445801,6.994835 
	C150.293915,6.469866 151.585541,5.962232 152.778900,5.493216 
	C149.984711,4.973412 147.105911,4.437871 144.142120,3.535195 
	C147.879501,3.148924 151.703125,3.064322 155.523697,3.138238 
	C157.437241,3.175259 159.345200,3.501286 161.598938,4.174272 
	C160.294205,5.436905 158.646179,6.221871 156.998169,7.006839 
	C154.628555,7.008616 152.258942,7.010392 149.445801,6.994835 
z"/>
<path fill="#E1E1E1" opacity="1.000000" stroke="none" 
	d="
M16.339195,23.150013 
	C20.231159,17.317860 24.927372,13.233644 28.634785,11.960217 
	C24.414127,15.822981 19.637972,20.194141 14.861814,24.565300 
	C15.031857,24.827362 15.201900,25.089424 15.371943,25.351488 
	C15.625722,24.704962 15.879502,24.058437 16.339195,23.150013 
z"/>
<path fill="#DADADA" opacity="1.000000" stroke="none" 
	d="
M612.060181,372.412170 
	C612.704956,371.104645 613.330078,370.245392 614.932251,368.043335 
	C614.932251,372.810638 614.991943,376.132874 614.835510,379.444885 
	C614.820618,379.760132 613.453430,380.011505 612.387024,380.157074 
	C612.053528,377.634552 612.047058,375.247498 612.060181,372.412170 
z"/>
<path fill="#E1E1E1" opacity="1.000000" stroke="none" 
	d="
M157.291656,7.291302 
	C158.646179,6.221871 160.294205,5.436905 161.969879,4.329596 
	C162.743134,3.987368 163.488693,3.967483 164.606461,3.951289 
	C166.066544,4.635053 167.154434,5.315126 168.621155,5.997610 
	C169.000000,6.000021 169.003067,6.003319 169.003067,6.003319 
	C169.003067,6.003319 169.003098,6.482310 169.001709,6.721406 
	C165.195267,7.165590 161.390213,7.370678 157.291656,7.291302 
z"/>
<path fill="#E1E1E1" opacity="1.000000" stroke="none" 
	d="
M612.574646,165.034271 
	C612.834717,167.745529 612.725891,170.576035 612.338745,173.692596 
	C612.108887,171.036942 612.157349,168.095245 612.574646,165.034271 
z"/>
<path fill="#E1E1E1" opacity="1.000000" stroke="none" 
	d="
M616.274414,129.726196 
	C615.792725,127.527313 615.585449,125.054619 615.642151,122.307472 
	C616.120361,124.506142 616.334595,126.979263 616.274414,129.726196 
z"/>
<path fill="#E1E1E1" opacity="1.000000" stroke="none" 
	d="
M611.736267,337.275146 
	C612.202148,339.488037 612.391663,341.972260 612.301392,344.724579 
	C611.834412,342.510620 611.647095,340.028534 611.736267,337.275146 
z"/>
<path fill="#DADADA" opacity="1.000000" stroke="none" 
	d="
M611.997070,385.377319 
	C616.560364,385.243713 614.816040,388.065857 614.497925,391.651581 
	C613.431152,389.897736 612.984619,389.163635 612.280457,388.220337 
	C612.011597,387.258514 612.000427,386.505951 611.997070,385.377319 
z"/>
<path fill="#E1E1E1" opacity="1.000000" stroke="none" 
	d="
M612.577881,206.018585 
	C612.813354,208.092010 612.690796,210.278656 612.276855,212.735092 
	C612.063538,210.713867 612.141663,208.422836 612.577881,206.018585 
z"/>
<path fill="#E1E1E1" opacity="1.000000" stroke="none" 
	d="
M616.256287,146.785263 
	C615.833374,145.805634 615.660828,144.609421 615.752319,143.203995 
	C616.179810,144.186066 616.343262,145.377380 616.256287,146.785263 
z"/>
<path fill="#E1E1E1" opacity="1.000000" stroke="none" 
	d="
M616.222778,182.808609 
	C615.818298,182.118713 615.657532,181.243469 615.744263,180.185333 
	C616.149963,180.876053 616.308228,181.749664 616.222778,182.808609 
z"/>
<path fill="#E1E1E1" opacity="1.000000" stroke="none" 
	d="
M611.779907,137.193115 
	C612.191284,137.876312 612.358887,138.745605 612.286011,139.800537 
	C611.875732,139.117172 611.705994,138.248184 611.779907,137.193115 
z"/>
<path fill="#E1E1E1" opacity="1.000000" stroke="none" 
	d="
M33.442429,9.633741 
	C33.331833,10.057322 33.063766,10.317173 32.778419,10.556421 
	C32.770489,10.563071 32.577435,10.348932 32.470703,10.237747 
	C32.741318,9.980882 33.011936,9.724017 33.442429,9.633741 
z"/>
<path fill="#E1E1E1" opacity="1.000000" stroke="none" 
	d="
M611.752136,126.146606 
	C612.137573,126.555267 612.310364,127.120491 612.263916,127.836365 
	C611.876282,127.425743 611.707825,126.864449 611.752136,126.146606 
z"/>
<path fill="#E1E1E1" opacity="1.000000" stroke="none" 
	d="
M168.999023,5.998521 
	C169.672104,5.693573 170.346176,5.390125 171.020248,5.086677 
	C171.073761,5.306657 171.127289,5.526638 171.180817,5.746618 
	C170.653458,5.831789 170.126114,5.916960 169.300903,6.002725 
	C169.003067,6.003319 169.000000,6.000021 168.999023,5.998521 
z"/>
<path fill="#FFFFFF" opacity="1.000000" stroke="none" 
	d="
M155.224274,228.744965 
	C159.465698,235.078339 160.511673,241.264847 156.550949,248.239883 
	C154.833954,247.028152 153.532639,246.109787 152.269287,245.218201 
	C147.460190,248.369537 147.460190,248.369537 149.517456,253.261200 
	C141.267639,255.266373 134.498978,245.123367 137.679459,234.580765 
	C140.317551,225.836060 147.407959,223.332001 155.224274,228.744965 
z"/>
<path fill="#FFFFFF" opacity="1.000000" stroke="none" 
	d="
M310.512543,247.357101 
	C312.251587,247.895584 313.603271,248.567688 314.954956,249.239777 
	C313.001282,251.418060 311.285156,253.938019 308.947021,255.563217 
	C308.259064,256.041382 305.809723,253.985519 304.167603,253.090973 
	C305.183502,251.439011 306.042877,249.652664 307.290405,248.199539 
	C307.808075,247.596481 309.155212,247.705490 310.512543,247.357101 
z"/>
<path fill="#FFFFFF" opacity="1.000000" stroke="none" 
	d="
M224.694183,241.986328 
	C221.992554,241.986572 219.722183,241.986572 217.451797,241.986572 
	C217.162949,241.421921 216.874084,240.857269 216.585236,240.292618 
	C218.427612,238.910065 220.279495,236.407425 222.110031,236.422913 
	C224.503769,236.443192 226.880646,238.454544 229.264786,239.609314 
	C229.074219,240.224686 228.883636,240.840073 228.693069,241.455444 
	C227.503860,241.632324 226.314651,241.809204 224.694183,241.986328 
z"/>
<path fill="#FFFFFF" opacity="1.000000" stroke="none" 
	d="
M453.615204,252.554230 
	C450.834351,253.289139 447.738556,254.820465 445.826050,253.898132 
	C441.487305,251.805710 441.188965,247.035324 442.204071,242.999878 
	C442.842377,240.462372 444.966522,237.400864 447.240692,236.361908 
	C451.793213,234.282104 457.017548,241.078033 455.733429,247.136475 
	C455.361420,248.891647 454.483490,250.539581 453.615204,252.554230 
z"/>
<path fill="#FFFFFF" opacity="1.000000" stroke="none" 
	d="
M384.405365,251.212326 
	C382.016296,252.615479 379.281067,255.027863 377.738617,254.418900 
	C375.408386,253.498947 373.088379,250.736847 372.292114,248.265320 
	C371.515869,245.855896 372.019653,242.515930 373.163971,240.171463 
	C374.064270,238.327011 376.786041,236.336365 378.714478,236.320480 
	C380.639252,236.304626 383.807373,238.340103 384.260529,240.051010 
	C385.160309,243.448044 384.568542,247.240112 384.405365,251.212326 
z"/>
</svg>