<svg version="1.1" id="Layer_1" xmlns="http://www.w3.org/2000/svg" xmlns:xlink="http://www.w3.org/1999/xlink" x="0px" y="0px"
	 width="100%" viewBox="0 0 618 476" enable-background="new 0 0 618 476" xml:space="preserve">
<path fill="#FFFFFF" opacity="1.000000" stroke="none" 
	d="
M619.000000,382.000000 
	C619.000000,413.660492 619.000000,445.320984 619.000000,476.986084 
	C413.046387,476.990723 207.092758,476.990723 1.069569,476.990723 
	C1.069569,318.410706 1.069569,159.821365 1.069569,1.116014 
	C206.882416,1.116014 412.764893,1.116014 619.000000,1.116014 
	C619.000000,126.690529 619.000000,252.381378 618.597961,378.463013 
	C617.794922,377.363159 617.123840,375.886414 617.045959,374.379028 
	C616.849915,370.585938 616.921570,366.779022 616.913696,362.511597 
	C616.620667,302.361694 616.299866,242.677826 616.222778,182.808578 
	C616.308228,181.749634 616.149963,180.876038 616.002014,179.533722 
	C616.010132,168.377274 616.007996,157.689560 616.256287,146.785263 
	C616.343262,145.377380 616.179810,144.186066 616.023438,142.531952 
	C616.020264,138.046097 616.010132,134.023041 616.274414,129.726196 
	C616.334595,126.979263 616.120361,124.506142 615.922852,121.588074 
	C615.635864,116.425758 615.332031,111.708389 615.187805,106.608215 
	C615.509399,97.847885 615.734192,89.470947 615.810913,81.092644 
	C615.861572,75.566231 615.492493,70.031113 615.672852,64.511696 
	C616.127258,50.601673 617.300354,36.588131 606.998779,24.663868 
	C603.482788,20.088329 600.941345,14.485676 596.599121,11.850075 
	C587.640747,6.412621 577.316223,4.139119 566.697144,4.075769 
	C507.834808,3.724614 448.972473,3.352068 390.109711,3.081633 
	C362.115631,2.953019 334.120605,3.025153 306.126007,3.023197 
	C270.373108,3.020699 234.619949,2.964212 198.867416,3.084007 
	C187.570328,3.121860 176.274857,3.650788 164.606461,3.951284 
	C163.488693,3.967479 162.743134,3.987364 161.626617,3.851927 
	C159.345215,3.501286 157.437256,3.175255 155.523712,3.138234 
	C151.703140,3.064317 147.879501,3.148921 143.590912,3.125901 
	C123.844200,3.270904 104.563683,3.458063 85.283173,3.645223 
	C85.294228,4.095978 85.305283,4.546732 85.316338,4.997488 
	C86.971214,4.997488 88.627068,4.960284 90.280823,5.003465 
	C101.884499,5.306453 113.489311,5.578403 125.090607,5.956730 
	C133.063782,6.216741 141.031906,6.631768 149.445801,6.994840 
	C152.258942,7.010397 154.628555,7.008620 157.291656,7.291307 
	C161.390213,7.370684 165.195267,7.165596 169.462631,6.978986 
	C178.552277,7.307718 187.177597,7.708623 195.807571,7.899178 
	C202.557709,8.048224 209.313599,7.933239 216.066940,7.941203 
	C229.728989,7.957314 243.391052,7.994243 257.053101,7.992906 
	C361.354126,7.982699 465.655304,7.879644 569.955994,8.053206 
	C583.775513,8.076203 595.695618,13.300199 604.198425,25.296358 
	C609.720947,34.248680 611.478027,43.721588 611.075073,53.763485 
	C610.942322,57.071144 611.399963,60.398041 611.419128,63.717113 
	C611.470459,72.588150 611.356750,81.460495 611.450378,90.330826 
	C611.523071,97.221619 611.809082,104.110153 611.990112,111.465698 
	C611.974792,116.617805 611.969849,121.303917 611.752197,126.146576 
	C611.707886,126.864426 611.876282,127.425720 612.032227,128.437958 
	C612.021057,131.594940 612.022339,134.300980 611.779907,137.193115 
	C611.705994,138.248184 611.875732,139.117157 612.031372,140.454163 
	C612.325989,148.919800 612.634766,156.917404 612.574646,165.034302 
	C612.157288,168.095276 612.108826,171.036957 612.057312,174.382477 
	C612.291748,176.558670 612.710571,178.328400 612.736206,180.103806 
	C612.860718,188.703476 612.879578,197.304703 612.577881,206.018585 
	C612.141663,208.422836 612.063538,210.713867 611.974243,213.472931 
	C611.979553,254.961914 611.996094,295.982849 611.736328,337.275085 
	C611.647156,340.028534 611.834412,342.510590 612.009155,345.461243 
	C612.002869,351.955200 612.009094,357.980591 611.738647,364.277985 
	C611.667908,367.021301 611.873840,369.492615 612.060181,372.412170 
	C612.047058,375.247498 612.053528,377.634552 611.795410,380.233215 
	C611.688782,381.963654 611.846863,383.482422 611.997131,385.377319 
	C612.000488,386.505951 612.011658,387.258484 611.735779,388.303772 
	C611.362732,395.674164 611.407959,402.756378 611.159424,409.828308 
	C610.801270,420.020233 611.135132,430.363281 609.389343,440.329254 
	C608.433228,445.786926 604.180725,450.866882 600.760803,455.649658 
	C594.526184,464.368927 584.957825,467.227264 574.566406,469.055481 
	C571.185730,469.358063 568.222046,469.960693 565.267334,469.919159 
	C552.802612,469.743896 540.339905,469.113525 527.877747,469.143921 
	C510.983887,469.185150 494.091980,469.740875 477.197693,469.955231 
	C466.939758,470.085419 456.678864,469.990509 446.419312,469.992340 
	C352.999237,470.009033 259.579102,469.978027 166.159134,470.084900 
	C149.866623,470.103546 133.574280,470.989624 117.282738,470.961578 
	C95.657486,470.924377 74.029213,470.007538 52.410137,470.231293 
	C42.964825,470.329041 35.070683,466.837372 26.876400,462.674561 
	C24.977121,460.592529 23.218019,458.818512 21.496412,457.008850 
	C16.094349,451.330566 12.667918,444.396667 11.217193,436.931641 
	C9.932507,430.321014 10.012361,423.379639 10.055300,416.587891 
	C10.240489,387.296539 10.606172,358.006195 10.969784,328.716278 
	C11.064969,321.048859 11.581173,313.383759 11.560145,305.718536 
	C11.532546,295.657776 11.215344,285.596436 10.926828,275.538116 
	C10.686337,267.154022 10.104722,258.775635 10.032887,250.391647 
	C9.887950,233.475739 9.983247,216.557739 9.986517,199.640610 
	C9.988596,188.884964 10.012712,178.129303 10.010779,167.373657 
	C10.004320,131.431381 9.892649,95.488632 10.066704,59.547253 
	C10.099401,52.795555 11.058058,46.021328 11.980532,39.311268 
	C12.519470,35.391041 13.833477,31.577368 14.798790,27.715757 
	C11.546783,31.808973 9.135233,36.215099 7.404778,40.874195 
	C6.873682,42.304127 8.760596,44.481567 8.587865,46.222198 
	C7.962329,52.525784 6.444808,58.767750 6.167300,65.072731 
	C5.738906,74.805840 5.938123,84.573540 6.092915,94.323051 
	C6.208797,101.621902 6.975955,108.917068 6.931057,116.210648 
	C6.744580,146.503143 6.299033,176.794037 6.099202,207.086502 
	C6.058792,213.212265 6.881125,219.340240 6.942722,225.470840 
	C7.080895,239.223053 7.049098,252.977982 6.951605,266.730835 
	C6.928242,270.026581 6.075717,273.323181 6.125646,276.611481 
	C6.275693,286.493439 6.857979,296.369873 6.950214,306.251465 
	C7.099700,322.266510 6.995406,338.283905 6.994739,354.300323 
	C6.994082,370.056793 6.860720,385.814606 7.028087,401.569244 
	C7.153376,413.363037 6.828435,425.253571 8.236696,436.915924 
	C9.654100,448.654053 15.495106,458.544800 26.140377,465.336670 
	C31.551285,468.027130 36.602810,471.667755 42.089325,472.525238 
	C51.296734,473.964264 60.780624,473.642212 70.149048,474.040680 
	C77.604187,474.357758 85.062172,474.921112 92.516136,474.879547 
	C103.803215,474.816620 115.087044,474.128510 126.373886,474.079071 
	C134.330215,474.044220 142.287598,474.829254 150.247406,474.894745 
	C167.654343,475.037994 185.063126,474.962769 202.471161,474.964355 
	C217.291733,474.965698 232.112320,474.942413 246.932892,474.942413 
	C341.545349,474.942413 436.157806,474.946259 530.770264,474.947540 
	C543.259644,474.947723 555.769226,475.370148 568.231323,474.784912 
	C576.530273,474.395203 585.245544,474.247467 592.447632,468.065002 
	C600.487610,466.066956 605.047852,460.178711 609.219971,454.232513 
	C615.139526,445.795929 616.551575,435.788879 616.871033,425.815979 
	C617.286804,412.834534 616.906616,399.828979 617.068542,386.836273 
	C617.088745,385.216431 618.326477,383.611725 619.000000,382.000000 
M187.003006,250.581802 
	C181.627274,255.000122 174.714935,253.552979 171.707047,247.391220 
	C169.192108,242.239258 169.663361,237.165695 171.803009,231.998444 
	C174.520203,225.436386 183.667664,223.400955 187.440033,229.262421 
	C190.652908,234.254517 194.349396,232.907318 198.382782,232.716446 
	C199.315414,226.349030 194.931808,220.338379 188.042908,218.192551 
	C179.686981,215.589752 169.704956,217.926620 165.197189,223.795929 
	C158.713379,232.238129 158.125824,241.682480 162.250214,251.061554 
	C165.901550,259.364868 174.124191,263.017792 183.804733,261.955933 
	C193.057877,260.940948 199.897690,253.350800 199.414993,244.633194 
	C191.825180,243.104355 191.536224,243.235458 187.003006,250.581802 
M427.924377,258.527008 
	C429.394562,256.378662 430.864746,254.230347 432.334930,252.082016 
	C431.892883,251.484039 431.450836,250.886063 431.008789,250.288086 
	C428.081665,251.266876 424.931030,251.841858 422.275757,253.311707 
	C417.330139,256.049408 413.109680,254.410126 411.350891,247.920837 
	C418.542633,247.920837 425.574005,247.920837 432.795013,247.920837 
	C433.255676,241.238388 431.982178,235.879593 427.068665,232.118027 
	C420.978546,227.455673 412.833008,227.895508 406.815735,232.832932 
	C402.140564,236.669067 400.229553,246.433472 402.921600,252.730270 
	C406.899780,262.035492 417.269562,264.710327 427.924377,258.527008 
M368.036041,244.503632 
	C368.036041,249.902405 368.036041,255.301193 368.036041,260.705627 
	C369.964264,260.852173 370.963196,260.853546 371.935730,261.014587 
	C376.718689,261.806702 378.479370,259.895966 377.999023,255.048752 
	C377.607391,251.097015 377.851593,247.071472 377.970062,243.083282 
	C378.072388,239.637436 378.991425,236.756561 383.365479,236.942978 
	C387.445862,237.116852 388.113770,239.756287 388.074738,243.108749 
	C388.007599,248.875534 388.056183,254.643661 388.056183,260.991241 
	C390.841125,260.991241 393.036682,261.336365 395.034576,260.857239 
	C396.169098,260.585175 397.757080,259.000244 397.806854,257.943726 
	C398.072693,252.302261 398.308075,246.607452 397.825867,240.993652 
	C396.861664,229.768188 390.833618,226.613083 379.802460,230.601013 
	C378.879913,230.934525 377.739380,230.775177 376.712952,230.690048 
	C374.027313,230.467255 371.348785,230.158676 368.036133,229.819733 
	C368.036133,234.943192 368.036133,239.225494 368.036041,244.503632 
M294.298370,251.446198 
	C292.191437,252.253662 289.834076,254.024033 288.057251,253.561951 
	C286.651672,253.196442 285.215668,250.138260 285.088684,248.191345 
	C284.704193,242.295242 284.949646,236.358063 284.949646,230.413849 
	C281.256134,230.413849 278.377655,230.413849 275.114044,230.413849 
	C275.114044,237.283966 274.679657,243.777344 275.218201,250.189011 
	C275.981689,259.278839 280.810822,263.212738 288.950714,261.836975 
	C291.269226,261.445099 293.393677,259.905060 295.607086,258.891541 
	C295.542999,259.334503 295.478912,259.777496 295.414825,260.220459 
	C298.431366,260.512726 301.447876,260.804993 304.566956,261.107208 
	C304.566956,250.212708 304.566956,240.330536 304.566956,230.421936 
	C301.286133,230.421936 298.410004,230.421936 294.669342,230.421936 
	C294.669342,237.451401 294.669342,244.060471 294.298370,251.446198 
M338.227753,259.527405 
	C339.761017,260.144775 341.255371,260.895416 342.834229,261.356750 
	C350.208496,263.511383 358.298187,260.411133 361.861633,254.144730 
	C365.408081,247.908249 364.284973,238.846878 359.342438,233.818939 
	C353.901886,228.284393 346.112427,227.340332 339.207306,230.861252 
	C329.440033,235.841568 327.740601,252.324356 338.227753,259.527405 
M440.190643,259.485504 
	C445.585785,262.447296 451.265594,262.855774 457.049591,261.031433 
	C461.480225,259.633942 465.142609,254.866470 464.890045,251.103058 
	C464.568085,246.305206 461.840820,243.603882 457.219757,242.608459 
	C454.958618,242.121384 452.628540,241.736984 450.511871,240.864182 
	C448.760803,240.142090 447.277283,238.771088 445.675232,237.687607 
	C445.977325,237.040695 446.279388,236.393799 446.581451,235.746887 
	C448.897583,236.170349 452.176727,235.784470 453.344025,237.173447 
	C456.482086,240.907349 459.853760,240.081314 464.557526,239.259766 
	C463.459167,236.962189 462.902222,234.877518 461.656128,233.357956 
	C457.415619,228.186783 444.889984,226.897583 440.225922,231.605499 
	C438.051208,233.800690 436.556732,237.503479 436.369843,240.619827 
	C436.144226,244.381943 439.689514,245.947922 443.069061,246.900818 
	C446.256531,247.799561 449.476807,248.643448 452.550568,249.848419 
	C453.545135,250.238327 454.121796,251.694290 454.889618,252.662582 
	C453.786743,253.451904 452.650818,254.932190 451.588135,254.881348 
	C449.604279,254.786423 446.718201,254.401016 445.878815,253.076981 
	C443.221252,248.884964 439.915771,249.911469 434.688538,250.941254 
	C436.605621,254.091629 438.098053,256.544128 440.190643,259.485504 
M219.970825,241.519882 
	C219.970825,247.803024 219.970825,254.086182 219.970825,260.538177 
	C223.275497,260.538177 225.950256,260.538177 228.989471,260.538177 
	C228.989471,254.763947 228.883957,249.445282 229.019287,244.132751 
	C229.153305,238.871887 231.071289,236.749466 235.189499,236.956848 
	C240.015991,237.199890 239.918427,240.830490 239.971634,244.190659 
	C240.057739,249.627274 239.994797,255.066254 239.994797,260.668884 
	C243.290649,260.668884 245.856262,260.668884 249.001434,260.668884 
	C249.001434,254.391129 249.015991,248.438324 248.998413,242.485611 
	C248.962357,230.281219 242.235382,225.862778 231.048004,230.621796 
	C230.151932,231.002991 229.025955,231.103378 228.049301,230.984650 
	C225.576309,230.684052 223.127487,230.184357 219.970749,229.645157 
	C219.970749,233.945129 219.970749,237.236664 219.970825,241.519882 
M266.582703,261.033234 
	C268.198425,260.944580 269.814148,260.855927 271.703217,260.752289 
	C271.703217,258.481201 271.703217,256.578644 271.703217,255.894073 
	C269.305939,253.780304 266.479370,252.498550 266.255188,250.860596 
	C265.614044,246.176697 266.029633,241.348175 266.029633,236.610657 
	C268.341980,236.121307 270.052216,235.759384 272.035980,235.339584 
	C271.888275,233.465790 271.764526,231.895584 271.648712,230.426407 
	C269.570648,230.063293 267.986206,229.786423 266.267670,229.486130 
	C266.063812,226.641953 265.878784,224.060852 265.680298,221.291504 
	C262.728363,221.291504 260.166840,221.291504 257.316772,221.291504 
	C257.104919,224.166718 256.914551,226.750275 256.712372,229.494202 
	C255.126678,229.868408 253.736389,230.196503 252.029282,230.599350 
	C252.113174,232.378372 252.187378,233.951828 252.275314,235.816788 
	C256.548340,235.414810 257.314331,237.567871 257.057159,240.973999 
	C256.782379,244.612701 256.985107,248.288269 256.998016,251.947693 
	C257.022919,259.012970 258.674774,260.732300 266.582703,261.033234 
M319.632812,259.996521 
	C319.738220,255.360336 319.774017,250.721237 319.967560,246.088730 
	C320.181885,240.958603 322.813812,238.364807 327.934601,237.926010 
	C328.862610,237.846466 329.769257,237.517456 331.274139,237.166367 
	C330.855682,234.437241 330.468781,231.913971 330.081909,229.390717 
	C326.500946,230.097122 322.919983,230.803528 319.339020,231.509933 
	C319.447418,231.274307 319.555817,231.038681 319.664246,230.803055 
	C316.649811,230.494644 313.635406,230.186218 310.051056,229.819489 
	C310.051056,238.262283 310.050842,245.701996 310.051086,253.141708 
	C310.051361,261.661865 310.051544,261.661865 319.632812,259.996521 
M204.973953,246.497192 
	C204.973953,251.236526 204.973953,255.975845 204.973953,260.567383 
	C208.466064,260.567383 211.024887,260.567383 213.600235,260.567383 
	C213.600235,250.248764 213.600235,240.370209 213.600235,230.338989 
	C210.658737,230.338989 208.101074,230.338989 204.973877,230.338989 
	C204.973877,235.615448 204.973877,240.557724 204.973953,246.497192 
M213.027283,218.346619 
	C210.468201,218.346619 207.909103,218.346619 205.430664,218.346619 
	C204.401855,226.499359 205.321548,227.224670 213.924622,225.154114 
	C213.836227,223.156769 213.743484,221.061218 213.027283,218.346619 
M15.809405,25.593817 
	C20.502682,21.109741 25.195957,16.625666 29.889233,12.141589 
	C29.559462,11.812700 29.229692,11.483810 28.899923,11.154922 
	C23.379927,14.767084 18.352070,18.888689 15.809405,25.593817 
M33.187237,10.574665 
	C33.192348,10.203540 33.197460,9.832416 33.202568,9.461290 
	C33.048332,9.460209 32.760212,9.448169 32.759274,9.459635 
	C32.729065,9.828706 32.726593,10.200047 33.187237,10.574665 
z"/>
<path fill="#E1E1E1" opacity="1.000000" stroke="none" 
	d="
M619.000000,381.625000 
	C618.326477,383.611725 617.088745,385.216431 617.068542,386.836273 
	C616.906616,399.828979 617.286804,412.834534 616.871033,425.815979 
	C616.551575,435.788879 615.139526,445.795929 609.219971,454.232513 
	C605.047852,460.178711 600.487610,466.066956 592.215759,467.782288 
	C589.276550,468.072357 586.955017,468.985260 584.598267,469.087585 
	C581.411011,469.225983 578.142883,473.172028 574.987488,469.059235 
	C584.957825,467.227264 594.526184,464.368927 600.760803,455.649658 
	C604.180725,450.866882 608.433228,445.786926 609.389343,440.329254 
	C611.135132,430.363281 610.801270,420.020233 611.159424,409.828308 
	C611.407959,402.756378 611.362732,395.674164 611.993408,388.513062 
	C612.984619,389.163666 613.431030,389.897736 614.497803,391.651642 
	C614.816101,388.065857 616.560425,385.243744 612.004883,385.001221 
	C611.846863,383.482422 611.688782,381.963654 612.122437,380.368713 
	C613.453430,380.011505 614.820679,379.760132 614.835510,379.444885 
	C614.991943,376.132843 614.932251,372.810638 614.932251,368.043488 
	C613.327698,370.248779 612.703735,371.106354 612.079773,371.963898 
	C611.873840,369.492615 611.667908,367.021301 612.027466,364.396851 
	C614.023926,363.821625 615.454895,363.399628 616.885925,362.977600 
	C616.921570,366.779022 616.849915,370.585938 617.045959,374.379028 
	C617.123840,375.886414 617.794922,377.363159 618.597961,378.926910 
	C619.000000,379.750000 619.000000,380.500000 619.000000,381.625000 
z"/>
<path fill="#DADADA" opacity="1.000000" stroke="none" 
	d="
M574.566406,469.055481 
	C578.142883,473.172028 581.411011,469.225983 584.598267,469.087585 
	C586.955017,468.985260 589.276550,468.072357 591.845703,467.803253 
	C585.245544,474.247467 576.530273,474.395203 568.231323,474.784912 
	C555.769226,475.370148 543.259644,474.947723 530.770264,474.947540 
	C436.157806,474.946259 341.545349,474.942413 246.932892,474.942413 
	C232.112320,474.942413 217.291733,474.965698 202.471161,474.964355 
	C185.063126,474.962769 167.654343,475.037994 150.247406,474.894745 
	C142.287598,474.829254 134.330215,474.044220 126.373886,474.079071 
	C115.087044,474.128510 103.803215,474.816620 92.516136,474.879547 
	C85.062172,474.921112 77.604187,474.357758 70.149048,474.040680 
	C60.780624,473.642212 51.296734,473.964264 42.089325,472.525238 
	C36.602810,471.667755 31.551285,468.027130 26.169418,465.028870 
	C26.367659,463.935455 26.700689,463.450867 27.033718,462.966278 
	C35.070683,466.837372 42.964825,470.329041 52.410137,470.231293 
	C74.029213,470.007538 95.657486,470.924377 117.282738,470.961578 
	C133.574280,470.989624 149.866623,470.103546 166.159134,470.084900 
	C259.579102,469.978027 352.999237,470.009033 446.419312,469.992340 
	C456.678864,469.990509 466.939758,470.085419 477.197693,469.955231 
	C494.091980,469.740875 510.983887,469.185150 527.877747,469.143921 
	C540.339905,469.113525 552.802612,469.743896 565.267334,469.919159 
	C568.222046,469.960693 571.185730,469.358063 574.566406,469.055481 
z"/>
<path fill="#DADADA" opacity="1.000000" stroke="none" 
	d="
M604.082031,24.966383 
	C595.695618,13.300199 583.775513,8.076203 569.955994,8.053206 
	C465.655304,7.879644 361.354126,7.982699 257.053101,7.992906 
	C243.391052,7.994243 229.728989,7.957314 216.066940,7.941203 
	C209.313599,7.933239 202.557709,8.048224 195.807571,7.899178 
	C187.177597,7.708623 178.552277,7.307718 169.464020,6.739889 
	C169.003082,6.482313 169.003052,6.003319 169.300903,6.002726 
	C170.126114,5.916960 170.653458,5.831789 171.180817,5.746616 
	C171.111908,5.533563 171.043015,5.320510 170.974106,5.107457 
	C170.315414,5.403981 169.656723,5.700505 168.620178,5.996114 
	C167.154434,5.315124 166.066544,4.635050 164.978653,3.954975 
	C176.274857,3.650788 187.570328,3.121860 198.867416,3.084007 
	C234.619949,2.964212 270.373108,3.020699 306.126007,3.023197 
	C334.120605,3.025153 362.115631,2.953019 390.109711,3.081633 
	C448.972473,3.352068 507.834808,3.724614 566.697144,4.075769 
	C577.316223,4.139119 587.640747,6.412621 596.599121,11.850075 
	C600.941345,14.485676 603.482788,20.088329 606.610474,24.670565 
	C605.615051,24.984419 604.848511,24.975401 604.082031,24.966383 
z"/>
<path fill="#E1E1E1" opacity="1.000000" stroke="none" 
	d="
M26.876404,462.674561 
	C26.700689,463.450867 26.367659,463.935455 26.005589,464.727844 
	C15.495106,458.544800 9.654100,448.654053 8.236696,436.915924 
	C6.828435,425.253571 7.153376,413.363037 7.028087,401.569244 
	C6.860720,385.814606 6.994082,370.056793 6.994739,354.300323 
	C6.995406,338.283905 7.099700,322.266510 6.950214,306.251465 
	C6.857979,296.369873 6.275693,286.493439 6.125646,276.611481 
	C6.075717,273.323181 6.928242,270.026581 6.951605,266.730835 
	C7.049098,252.977982 7.080895,239.223053 6.942722,225.470840 
	C6.881125,219.340240 6.058792,213.212265 6.099202,207.086502 
	C6.299033,176.794037 6.744580,146.503143 6.931057,116.210648 
	C6.975955,108.917068 6.208797,101.621902 6.092915,94.323051 
	C5.938123,84.573540 5.738906,74.805840 6.167300,65.072731 
	C6.444808,58.767750 7.962329,52.525784 8.587865,46.222198 
	C8.760596,44.481567 6.873682,42.304127 7.404778,40.874195 
	C9.135233,36.215099 11.546783,31.808973 14.798790,27.715757 
	C13.833477,31.577368 12.519470,35.391041 11.980532,39.311268 
	C11.058058,46.021328 10.099401,52.795555 10.066704,59.547253 
	C9.892649,95.488632 10.004320,131.431381 10.010779,167.373657 
	C10.012712,178.129303 9.988596,188.884964 9.986517,199.640610 
	C9.983247,216.557739 9.887950,233.475739 10.032887,250.391647 
	C10.104722,258.775635 10.686337,267.154022 10.926828,275.538116 
	C11.215344,285.596436 11.532546,295.657776 11.560145,305.718536 
	C11.581173,313.383759 11.064969,321.048859 10.969784,328.716278 
	C10.606172,358.006195 10.240489,387.296539 10.055300,416.587891 
	C10.012361,423.379639 9.932507,430.321014 11.217193,436.931641 
	C12.667918,444.396667 16.094349,451.330566 21.496412,457.008850 
	C23.218019,458.818512 24.977121,460.592529 26.876404,462.674561 
z"/>
<path fill="#DADADA" opacity="1.000000" stroke="none" 
	d="
M616.913696,362.511597 
	C615.454895,363.399628 614.023926,363.821625 612.304077,364.124817 
	C612.009094,357.980591 612.002869,351.955200 612.288879,345.193176 
	C612.391663,341.972229 612.202148,339.488007 612.012695,337.003754 
	C611.996094,295.982849 611.979553,254.961914 612.265625,213.203156 
	C612.690796,210.278656 612.813354,208.092010 612.935913,205.905365 
	C612.879578,197.304703 612.860718,188.703476 612.736206,180.103806 
	C612.710571,178.328400 612.291748,176.558670 612.335632,174.096436 
	C612.725891,170.576035 612.834717,167.745529 612.943481,164.915009 
	C612.634766,156.917404 612.325989,148.919800 612.271851,140.268585 
	C612.358887,138.745651 612.191223,137.876343 612.023621,137.007019 
	C612.022339,134.300980 612.021057,131.594940 612.251404,128.287292 
	C612.310303,127.120461 612.137573,126.555252 611.964844,125.990036 
	C611.969849,121.303917 611.974792,116.617805 612.256348,111.242844 
	C613.364563,109.366341 614.196350,108.178680 615.028137,106.991028 
	C615.332031,111.708389 615.635864,116.425758 615.658936,121.862526 
	C615.585449,125.054626 615.792725,127.527313 616.000000,130.000000 
	C616.010132,134.023041 616.020264,138.046097 615.759399,142.741180 
	C615.660889,144.609421 615.833435,145.805618 616.005920,147.001831 
	C616.007996,157.689560 616.010132,168.377274 615.754517,179.716614 
	C615.657532,181.243469 615.818298,182.118713 615.979065,182.993942 
	C616.299866,242.677826 616.620667,302.361694 616.913696,362.511597 
z"/>
<path fill="#D7D7D7" opacity="1.000000" stroke="none" 
	d="
M187.276367,250.299164 
	C191.536224,243.235458 191.825180,243.104355 199.414993,244.633194 
	C199.897690,253.350800 193.057877,260.940948 183.804733,261.955933 
	C174.124191,263.017792 165.901550,259.364868 162.250214,251.061554 
	C158.125824,241.682480 158.713379,232.238129 165.197189,223.795929 
	C169.704956,217.926620 179.686981,215.589752 188.042908,218.192551 
	C194.931808,220.338379 199.315414,226.349030 198.382782,232.716446 
	C194.349396,232.907318 190.652908,234.254517 187.440033,229.262421 
	C183.667664,223.400955 174.520203,225.436386 171.803009,231.998444 
	C169.663361,237.165695 169.192108,242.239258 171.707047,247.391220 
	C174.714935,253.552979 181.627274,255.000122 187.276367,250.299164 
z"/>
<path fill="#D7D7D7" opacity="1.000000" stroke="none" 
	d="
M427.649292,258.782379 
	C417.269562,264.710327 406.899780,262.035492 402.921600,252.730270 
	C400.229553,246.433472 402.140564,236.669067 406.815735,232.832932 
	C412.833008,227.895508 420.978546,227.455673 427.068665,232.118027 
	C431.982178,235.879593 433.255676,241.238388 432.795013,247.920837 
	C425.574005,247.920837 418.542633,247.920837 411.350891,247.920837 
	C413.109680,254.410126 417.330139,256.049408 422.275757,253.311707 
	C424.931030,251.841858 428.081665,251.266876 431.008789,250.288086 
	C431.450836,250.886063 431.892883,251.484039 432.334930,252.082016 
	C430.864746,254.230347 429.394562,256.378662 427.649292,258.782379 
M421.551086,238.008423 
	C416.651642,234.534378 413.047729,235.769226 411.461853,241.964554 
	C414.658264,241.964554 417.749390,242.124847 420.792206,241.813095 
	C421.324402,241.758575 421.653290,239.719452 421.551086,238.008423 
z"/>
<path fill="#D7D7D7" opacity="1.000000" stroke="none" 
	d="
M368.036072,244.005722 
	C368.036133,239.225494 368.036133,234.943192 368.036133,229.819733 
	C371.348785,230.158676 374.027313,230.467255 376.712952,230.690048 
	C377.739380,230.775177 378.879913,230.934525 379.802460,230.601013 
	C390.833618,226.613083 396.861664,229.768188 397.825867,240.993652 
	C398.308075,246.607452 398.072693,252.302261 397.806854,257.943726 
	C397.757080,259.000244 396.169098,260.585175 395.034576,260.857239 
	C393.036682,261.336365 390.841125,260.991241 388.056183,260.991241 
	C388.056183,254.643661 388.007599,248.875534 388.074738,243.108749 
	C388.113770,239.756287 387.445862,237.116852 383.365479,236.942978 
	C378.991425,236.756561 378.072388,239.637436 377.970062,243.083282 
	C377.851593,247.071472 377.607391,251.097015 377.999023,255.048752 
	C378.479370,259.895966 376.718689,261.806702 371.935730,261.014587 
	C370.963196,260.853546 369.964264,260.852173 368.036041,260.705627 
	C368.036041,255.301193 368.036041,249.902405 368.036072,244.005722 
z"/>
<path fill="#D7D7D7" opacity="1.000000" stroke="none" 
	d="
M294.483856,251.057861 
	C294.669342,244.060471 294.669342,237.451401 294.669342,230.421936 
	C298.410004,230.421936 301.286133,230.421936 304.566956,230.421936 
	C304.566956,240.330536 304.566956,250.212708 304.566956,261.107208 
	C301.447876,260.804993 298.431366,260.512726 295.414825,260.220459 
	C295.478912,259.777496 295.542999,259.334503 295.607086,258.891541 
	C293.393677,259.905060 291.269226,261.445099 288.950714,261.836975 
	C280.810822,263.212738 275.981689,259.278839 275.218201,250.189011 
	C274.679657,243.777344 275.114044,237.283966 275.114044,230.413849 
	C278.377655,230.413849 281.256134,230.413849 284.949646,230.413849 
	C284.949646,236.358063 284.704193,242.295242 285.088684,248.191345 
	C285.215668,250.138260 286.651672,253.196442 288.057251,253.561951 
	C289.834076,254.024033 292.191437,252.253662 294.483856,251.057861 
z"/>
<path fill="#D7D7D7" opacity="1.000000" stroke="none" 
	d="
M337.927826,259.298462 
	C327.740601,252.324356 329.440033,235.841568 339.207306,230.861252 
	C346.112427,227.340332 353.901886,228.284393 359.342438,233.818939 
	C364.284973,238.846878 365.408081,247.908249 361.861633,254.144730 
	C358.298187,260.411133 350.208496,263.511383 342.834229,261.356750 
	C341.255371,260.895416 339.761017,260.144775 337.927826,259.298462 
M343.440643,253.006454 
	C346.464539,256.042816 349.321167,255.593826 351.969879,252.523605 
	C355.261932,248.707703 354.927063,241.311005 351.374756,237.829926 
	C348.956512,235.460175 346.511475,235.285187 343.888947,237.537613 
	C340.186615,240.717422 339.689026,247.642548 343.440643,253.006454 
z"/>
<path fill="#D7D7D7" opacity="1.000000" stroke="none" 
	d="
M439.890564,259.241089 
	C438.098053,256.544128 436.605621,254.091629 434.688538,250.941254 
	C439.915771,249.911469 443.221252,248.884964 445.878815,253.076981 
	C446.718201,254.401016 449.604279,254.786423 451.588135,254.881348 
	C452.650818,254.932190 453.786743,253.451904 454.889618,252.662598 
	C454.121796,251.694290 453.545135,250.238327 452.550568,249.848419 
	C449.476807,248.643448 446.256531,247.799561 443.069061,246.900818 
	C439.689514,245.947922 436.144226,244.381943 436.369843,240.619827 
	C436.556732,237.503479 438.051208,233.800690 440.225922,231.605499 
	C444.889984,226.897583 457.415619,228.186783 461.656128,233.357956 
	C462.902222,234.877518 463.459167,236.962189 464.557526,239.259766 
	C459.853760,240.081314 456.482086,240.907349 453.344025,237.173447 
	C452.176727,235.784470 448.897583,236.170349 446.581451,235.746887 
	C446.279388,236.393799 445.977325,237.040695 445.675232,237.687607 
	C447.277283,238.771088 448.760803,240.142090 450.511871,240.864182 
	C452.628540,241.736984 454.958618,242.121384 457.219757,242.608459 
	C461.840820,243.603882 464.568085,246.305206 464.890045,251.103058 
	C465.142609,254.866470 461.480225,259.633942 457.049591,261.031433 
	C451.265594,262.855774 445.585785,262.447296 439.890564,259.241089 
z"/>
<path fill="#D7D7D7" opacity="1.000000" stroke="none" 
	d="
M219.970795,241.024048 
	C219.970749,237.236664 219.970749,233.945129 219.970749,229.645157 
	C223.127487,230.184357 225.576309,230.684052 228.049301,230.984650 
	C229.025955,231.103378 230.151932,231.002991 231.048004,230.621796 
	C242.235382,225.862778 248.962357,230.281219 248.998413,242.485611 
	C249.015991,248.438324 249.001434,254.391129 249.001434,260.668884 
	C245.856262,260.668884 243.290649,260.668884 239.994797,260.668884 
	C239.994797,255.066254 240.057739,249.627274 239.971634,244.190659 
	C239.918427,240.830490 240.015991,237.199890 235.189499,236.956848 
	C231.071289,236.749466 229.153305,238.871887 229.019287,244.132751 
	C228.883957,249.445282 228.989471,254.763947 228.989471,260.538177 
	C225.950256,260.538177 223.275497,260.538177 219.970825,260.538177 
	C219.970825,254.086182 219.970825,247.803024 219.970795,241.024048 
z"/>
<path fill="#D7D7D7" opacity="1.000000" stroke="none" 
	d="
M266.137390,261.031158 
	C258.674774,260.732300 257.022919,259.012970 256.998016,251.947693 
	C256.985107,248.288269 256.782379,244.612701 257.057159,240.973999 
	C257.314331,237.567871 256.548340,235.414810 252.275314,235.816788 
	C252.187378,233.951828 252.113174,232.378372 252.029282,230.599350 
	C253.736389,230.196503 255.126678,229.868408 256.712372,229.494202 
	C256.914551,226.750275 257.104919,224.166718 257.316772,221.291504 
	C260.166840,221.291504 262.728363,221.291504 265.680298,221.291504 
	C265.878784,224.060852 266.063812,226.641953 266.267670,229.486130 
	C267.986206,229.786423 269.570648,230.063293 271.648712,230.426407 
	C271.764526,231.895584 271.888275,233.465790 272.035980,235.339584 
	C270.052216,235.759384 268.341980,236.121307 266.029633,236.610657 
	C266.029633,241.348175 265.614044,246.176697 266.255188,250.860596 
	C266.479370,252.498550 269.305939,253.780304 271.703217,255.894073 
	C271.703217,256.578644 271.703217,258.481201 271.703217,260.752289 
	C269.814148,260.855927 268.198425,260.944580 266.137390,261.031158 
z"/>
<path fill="#D7D7D7" opacity="1.000000" stroke="none" 
	d="
M319.327881,260.325928 
	C310.051544,261.661865 310.051361,261.661865 310.051086,253.141708 
	C310.050842,245.701996 310.051056,238.262283 310.051056,229.819489 
	C313.635406,230.186218 316.649811,230.494644 319.664246,230.803055 
	C319.555817,231.038681 319.447418,231.274307 319.339020,231.509933 
	C322.919983,230.803528 326.500946,230.097122 330.081909,229.390717 
	C330.468781,231.913971 330.855682,234.437241 331.274139,237.166367 
	C329.769257,237.517456 328.862610,237.846466 327.934601,237.926010 
	C322.813812,238.364807 320.181885,240.958603 319.967560,246.088730 
	C319.774017,250.721237 319.738220,255.360336 319.327881,260.325928 
z"/>
<path fill="#E1E1E1" opacity="1.000000" stroke="none" 
	d="
M615.187805,106.608215 
	C614.196350,108.178680 613.364563,109.366341 612.266602,110.776848 
	C611.809082,104.110153 611.523071,97.221619 611.450378,90.330826 
	C611.356750,81.460495 611.470459,72.588150 611.419128,63.717113 
	C611.399963,60.398041 610.942322,57.071144 611.075073,53.763485 
	C611.478027,43.721588 609.720947,34.248680 604.198425,25.296358 
	C604.848511,24.975401 605.615051,24.984419 606.769775,24.986740 
	C617.300354,36.588131 616.127258,50.601673 615.672852,64.511696 
	C615.492493,70.031113 615.861572,75.566231 615.810913,81.092644 
	C615.734192,89.470947 615.509399,97.847885 615.187805,106.608215 
z"/>
<path fill="#D7D7D7" opacity="1.000000" stroke="none" 
	d="
M204.973907,245.998596 
	C204.973877,240.557724 204.973877,235.615448 204.973877,230.338989 
	C208.101074,230.338989 210.658737,230.338989 213.600235,230.338989 
	C213.600235,240.370209 213.600235,250.248764 213.600235,260.567383 
	C211.024887,260.567383 208.466064,260.567383 204.973953,260.567383 
	C204.973953,255.975845 204.973953,251.236526 204.973907,245.998596 
z"/>
<path fill="#E1E1E1" opacity="1.000000" stroke="none" 
	d="
M149.002289,6.977506 
	C141.031906,6.631768 133.063782,6.216741 125.090607,5.956730 
	C113.489311,5.578403 101.884499,5.306453 90.280823,5.003465 
	C88.627068,4.960284 86.971214,4.997488 85.316338,4.997488 
	C85.305283,4.546732 85.294228,4.095978 85.283173,3.645223 
	C104.563683,3.458063 123.844200,3.270904 143.675903,3.493041 
	C147.105896,4.437877 149.984695,4.973415 152.778900,5.493214 
	C151.585709,5.962162 150.294006,6.469833 149.002289,6.977506 
z"/>
<path fill="#DADADA" opacity="1.000000" stroke="none" 
	d="
M213.339020,218.656143 
	C213.743484,221.061218 213.836227,223.156769 213.924622,225.154114 
	C205.321548,227.224670 204.401855,226.499359 205.430664,218.346619 
	C207.909103,218.346619 210.468201,218.346619 213.339020,218.656143 
z"/>
<path fill="#DADADA" opacity="1.000000" stroke="none" 
	d="
M149.445801,6.994839 
	C150.294006,6.469833 151.585709,5.962162 152.778900,5.493214 
	C149.984695,4.973415 147.105896,4.437877 144.142120,3.535198 
	C147.879501,3.148921 151.703140,3.064317 155.523712,3.138234 
	C157.437256,3.175255 159.345215,3.501286 161.598938,4.174269 
	C160.294189,5.436904 158.646179,6.221875 156.998169,7.006845 
	C154.628555,7.008620 152.258942,7.010397 149.445801,6.994839 
z"/>
<path fill="#E1E1E1" opacity="1.000000" stroke="none" 
	d="
M15.595686,25.367111 
	C18.352070,18.888689 23.379927,14.767084 28.899923,11.154922 
	C29.229692,11.483810 29.559462,11.812700 29.889233,12.141589 
	C25.195957,16.625666 20.502682,21.109741 15.595686,25.367111 
z"/>
<path fill="#DADADA" opacity="1.000000" stroke="none" 
	d="
M612.060181,372.412170 
	C612.703735,371.106354 613.327698,370.248779 614.932251,368.043488 
	C614.932251,372.810638 614.991943,376.132843 614.835510,379.444885 
	C614.820679,379.760132 613.453430,380.011505 612.387024,380.157074 
	C612.053528,377.634552 612.047058,375.247498 612.060181,372.412170 
z"/>
<path fill="#E1E1E1" opacity="1.000000" stroke="none" 
	d="
M157.291656,7.291309 
	C158.646179,6.221875 160.294189,5.436904 161.969879,4.329591 
	C162.743134,3.987364 163.488693,3.967479 164.606461,3.951284 
	C166.066544,4.635050 167.154434,5.315124 168.621155,5.997610 
	C169.000000,6.000021 169.003052,6.003319 169.003052,6.003319 
	C169.003052,6.003319 169.003082,6.482313 169.001709,6.721410 
	C165.195267,7.165596 161.390213,7.370684 157.291656,7.291309 
z"/>
<path fill="#E1E1E1" opacity="1.000000" stroke="none" 
	d="
M612.574585,165.034302 
	C612.834717,167.745529 612.725891,170.576035 612.338745,173.692596 
	C612.108826,171.036957 612.157288,168.095276 612.574585,165.034302 
z"/>
<path fill="#E1E1E1" opacity="1.000000" stroke="none" 
	d="
M616.274414,129.726196 
	C615.792725,127.527313 615.585449,125.054626 615.642151,122.307480 
	C616.120361,124.506142 616.334595,126.979263 616.274414,129.726196 
z"/>
<path fill="#E1E1E1" opacity="1.000000" stroke="none" 
	d="
M611.736328,337.275085 
	C612.202148,339.488007 612.391663,341.972229 612.301392,344.724579 
	C611.834412,342.510590 611.647156,340.028534 611.736328,337.275085 
z"/>
<path fill="#DADADA" opacity="1.000000" stroke="none" 
	d="
M611.997070,385.377319 
	C616.560425,385.243744 614.816101,388.065857 614.497803,391.651642 
	C613.431030,389.897736 612.984619,389.163666 612.280518,388.220306 
	C612.011658,387.258484 612.000488,386.505951 611.997070,385.377319 
z"/>
<path fill="#E1E1E1" opacity="1.000000" stroke="none" 
	d="
M612.577881,206.018585 
	C612.813354,208.092010 612.690796,210.278656 612.276855,212.735092 
	C612.063538,210.713867 612.141663,208.422836 612.577881,206.018585 
z"/>
<path fill="#E1E1E1" opacity="1.000000" stroke="none" 
	d="
M616.256287,146.785263 
	C615.833435,145.805618 615.660889,144.609421 615.752319,143.203979 
	C616.179810,144.186066 616.343262,145.377380 616.256287,146.785263 
z"/>
<path fill="#E1E1E1" opacity="1.000000" stroke="none" 
	d="
M611.779907,137.193115 
	C612.191223,137.876343 612.358887,138.745651 612.286011,139.800568 
	C611.875732,139.117157 611.705994,138.248184 611.779907,137.193115 
z"/>
<path fill="#E1E1E1" opacity="1.000000" stroke="none" 
	d="
M616.222778,182.808578 
	C615.818298,182.118713 615.657532,181.243469 615.744263,180.185333 
	C616.149963,180.876038 616.308228,181.749634 616.222778,182.808578 
z"/>
<path fill="#E1E1E1" opacity="1.000000" stroke="none" 
	d="
M611.752197,126.146576 
	C612.137573,126.555252 612.310303,127.120461 612.263916,127.836349 
	C611.876282,127.425720 611.707886,126.864426 611.752197,126.146576 
z"/>
<path fill="#E1E1E1" opacity="1.000000" stroke="none" 
	d="
M32.953598,10.572857 
	C32.726593,10.200047 32.729065,9.828706 32.759274,9.459635 
	C32.760212,9.448169 33.048332,9.460209 33.202568,9.461290 
	C33.197460,9.832416 33.192348,10.203540 32.953598,10.572857 
z"/>
<path fill="#E1E1E1" opacity="1.000000" stroke="none" 
	d="
M168.999023,5.998525 
	C169.656723,5.700505 170.315414,5.403981 170.974106,5.107457 
	C171.043015,5.320510 171.111908,5.533563 171.180817,5.746616 
	C170.653458,5.831789 170.126114,5.916960 169.300903,6.002726 
	C169.003052,6.003319 169.000000,6.000021 168.999023,5.998525 
z"/>
<path fill="#FFFFFF" opacity="1.000000" stroke="none" 
	d="
M421.813599,238.302658 
	C421.653290,239.719452 421.324402,241.758575 420.792206,241.813095 
	C417.749390,242.124847 414.658264,241.964554 411.461853,241.964554 
	C413.047729,235.769226 416.651642,234.534378 421.813599,238.302658 
z"/>
<path fill="#FFFFFF" opacity="1.000000" stroke="none" 
	d="
M343.159393,252.723389 
	C339.689026,247.642548 340.186615,240.717422 343.888947,237.537613 
	C346.511475,235.285187 348.956512,235.460175 351.374756,237.829926 
	C354.927063,241.311005 355.261932,248.707703 351.969879,252.523605 
	C349.321167,255.593826 346.464539,256.042816 343.159393,252.723389 
z"/>
</svg>