<svg version="1.1" id="Layer_1" xmlns="http://www.w3.org/2000/svg" xmlns:xlink="http://www.w3.org/1999/xlink" x="0px" y="0px"
	 width="100%" viewBox="0 0 618 476" enable-background="new 0 0 618 476" xml:space="preserve">
<path fill="#FFFFFF" opacity="1.000000" stroke="none" 
	d="
M619.000000,382.000000 
	C619.000000,413.660492 619.000000,445.320984 619.000000,476.986084 
	C413.046387,476.990723 207.092758,476.990723 1.069569,476.990723 
	C1.069569,318.410706 1.069569,159.821365 1.069569,1.116014 
	C206.882416,1.116014 412.764893,1.116014 619.000000,1.116014 
	C619.000000,126.690529 619.000000,252.381378 618.598022,378.463013 
	C617.794983,377.363098 617.123779,375.886383 617.045837,374.379028 
	C616.849915,370.585938 616.921570,366.779022 616.913696,362.511597 
	C616.620605,302.361694 616.299805,242.677811 616.222656,182.808594 
	C616.308167,181.749664 616.149902,180.876053 616.001953,179.533722 
	C616.010193,168.377274 616.008057,157.689560 616.256348,146.785248 
	C616.343262,145.377365 616.179810,144.186066 616.023376,142.531952 
	C616.020264,138.046097 616.010132,134.023041 616.270508,129.736145 
	C616.341797,127.321327 616.142578,125.170380 615.953125,122.569717 
	C615.651245,117.077011 615.339661,112.034019 615.187744,106.608215 
	C615.508850,97.848022 615.716003,89.471191 615.815552,81.093086 
	C615.883057,75.407478 615.699829,69.718262 615.803528,64.033844 
	C616.053955,50.311047 617.250671,36.403744 606.998718,24.663876 
	C603.482788,20.088362 600.937561,14.510542 596.601807,11.842003 
	C587.348267,6.146713 576.602844,4.157870 565.696167,4.086498 
	C507.167419,3.703497 448.638428,3.350229 390.109070,3.081649 
	C362.115082,2.953191 334.120148,3.025173 306.125641,3.023217 
	C270.372833,3.020720 234.619766,2.964231 198.867340,3.084026 
	C187.570282,3.121879 176.274857,3.650815 164.606476,3.951316 
	C163.488708,3.967510 162.743134,3.987393 161.626617,3.851952 
	C159.345200,3.501309 157.437256,3.175280 155.523712,3.138258 
	C151.703156,3.064340 147.879517,3.148943 143.592880,3.126018 
	C123.846313,3.272237 104.564026,3.460517 85.281738,3.648797 
	C85.292587,4.098354 85.303429,4.547912 85.314278,4.997470 
	C86.969162,4.997470 88.625023,4.960267 90.278786,5.003448 
	C101.882858,5.306436 113.488052,5.578390 125.089745,5.956713 
	C133.063217,6.216722 141.031631,6.631738 149.445831,6.994805 
	C152.258957,7.010362 154.628555,7.008583 157.291656,7.291270 
	C161.390213,7.370648 165.195267,7.165559 169.462631,6.978950 
	C178.552948,7.307689 187.178955,7.708603 195.809601,7.899163 
	C202.560287,8.048214 209.316727,7.933239 216.070618,7.941194 
	C229.733749,7.957287 243.396896,7.994162 257.060028,7.992829 
	C361.369385,7.982659 465.678833,7.895126 569.987976,8.034323 
	C583.869812,8.052847 595.676147,13.366103 604.198425,25.296371 
	C609.721252,34.248627 611.477844,43.721657 611.075012,53.763508 
	C610.942322,57.071190 611.399963,60.398098 611.419128,63.717186 
	C611.470459,72.588234 611.356628,81.460594 611.450317,90.330933 
	C611.523071,97.221687 611.809204,104.110191 611.990234,111.465698 
	C611.974915,116.617813 611.969910,121.303932 611.752197,126.146622 
	C611.707886,126.864464 611.876343,127.425751 612.032349,128.437958 
	C612.021301,131.594803 612.022766,134.300720 611.803772,137.153839 
	C611.735779,137.863495 611.888184,138.425949 612.027344,139.456863 
	C612.323975,148.255219 612.633789,156.585144 612.574707,165.034332 
	C612.157349,168.095276 612.108887,171.036957 612.057373,174.382477 
	C612.291870,176.558640 612.710632,178.328369 612.736267,180.103775 
	C612.860779,188.703476 612.879700,197.304688 612.578003,206.018585 
	C612.141785,208.422836 612.063599,210.713867 611.974182,213.472931 
	C611.979553,254.961960 611.996155,295.982910 611.736328,337.275208 
	C611.647217,340.028564 611.834473,342.510620 612.009277,345.461243 
	C612.002930,351.955200 612.009155,357.980591 611.738770,364.278046 
	C611.668030,367.021393 611.873962,369.492645 612.060242,372.412170 
	C612.047058,375.247498 612.053528,377.634552 611.795410,380.233215 
	C611.688782,381.963654 611.846863,383.482422 611.997131,385.377319 
	C612.000488,386.505981 612.011658,387.258575 611.736389,388.302612 
	C611.360718,395.654327 611.383118,402.718201 611.155518,409.774017 
	C610.831848,419.812927 611.271057,430.014008 609.530457,439.816620 
	C608.531189,445.444519 604.266846,450.704346 600.768860,455.630341 
	C594.559204,464.374969 584.965454,467.226044 574.566406,469.055511 
	C571.186890,469.358063 568.224182,469.961212 565.270874,469.918182 
	C553.810120,469.751190 542.353149,469.193512 530.893311,469.146332 
	C522.934631,469.113556 514.974915,469.883636 507.013306,469.934875 
	C487.095184,470.062988 467.175720,469.987549 447.256805,469.991150 
	C353.539490,470.008118 259.822144,469.977264 166.104950,470.084991 
	C149.652145,470.103882 133.199524,470.989166 116.747635,470.962646 
	C95.297318,470.928070 73.843857,470.005920 52.399784,470.231140 
	C42.957657,470.330292 35.067829,466.834503 26.876360,462.674561 
	C24.977528,460.592987 23.218859,458.819489 21.497702,457.010284 
	C16.097385,451.333740 12.668139,444.403564 11.217571,436.940308 
	C9.933103,430.331635 10.012184,423.392303 10.055613,416.602600 
	C10.238649,387.986267 10.696743,359.371765 10.899675,330.755463 
	C10.941927,324.797394 10.156563,318.836853 10.081491,312.873291 
	C10.039495,309.537262 10.976241,306.188782 10.933678,302.852814 
	C10.864017,297.393005 10.167032,291.941162 10.098160,286.481384 
	C10.052474,282.859650 10.940371,279.225281 10.883826,275.604767 
	C10.760703,267.721313 10.084145,259.844757 10.022799,251.962387 
	C9.884703,234.218384 9.980598,216.472534 9.986500,198.727448 
	C9.990023,188.132843 10.010843,177.538223 10.010844,166.943619 
	C10.010845,146.285736 9.992474,125.627846 10.004381,104.969978 
	C10.006659,101.019341 10.110147,97.068710 10.172372,93.118172 
	C10.384255,79.666191 10.310982,66.201218 10.919196,52.767139 
	C11.287400,44.634354 12.712934,36.549438 13.857693,26.786186 
	C11.255282,32.637177 9.004488,37.206215 7.266905,41.962730 
	C6.851967,43.098595 8.713076,44.921444 8.560026,46.322666 
	C7.926101,52.126499 6.226913,57.885239 6.188713,63.668922 
	C6.091582,78.374954 6.979405,93.086555 6.927194,107.793991 
	C6.809632,140.909592 6.306092,174.023682 6.098289,207.139267 
	C6.059859,213.263321 6.881140,219.389404 6.942734,225.518188 
	C7.080917,239.267929 7.049025,253.020370 6.951748,266.770752 
	C6.928440,270.065491 6.077535,273.361145 6.127885,276.648376 
	C6.274099,286.194305 6.865288,295.734589 6.951179,305.280029 
	C7.098242,321.623749 6.995182,337.969757 6.995006,354.314789 
	C6.994769,376.237335 6.922446,398.160248 7.038217,420.082184 
	C7.068806,425.874298 7.030881,431.792206 8.155247,437.426727 
	C10.430930,448.830719 15.613319,458.691681 26.140408,465.336639 
	C31.551527,468.027130 36.603260,471.667847 42.089966,472.525360 
	C51.297760,473.964355 60.782024,473.642212 70.150826,474.040588 
	C77.606262,474.357666 85.064552,474.921082 92.518814,474.879517 
	C103.806343,474.816620 115.090500,474.137604 126.377968,474.078461 
	C133.834686,474.039368 141.296616,474.920685 148.752853,474.872498 
	C162.704208,474.782257 176.652069,474.221893 190.603714,474.062683 
	C194.890991,474.013794 199.186432,474.914917 203.477234,474.906860 
	C285.716400,474.752502 367.955353,474.491211 450.194519,474.350250 
	C464.917542,474.325012 479.640778,474.803497 494.364929,474.925629 
	C506.636230,475.027435 518.909058,474.949799 531.181213,474.947906 
	C543.671082,474.945953 556.178467,475.338257 568.644714,474.793304 
	C576.830261,474.435516 585.317383,473.955627 592.447876,468.065002 
	C600.487061,466.066010 605.047913,460.178772 609.220032,454.232361 
	C615.139465,445.795654 616.551636,435.788757 616.871033,425.815857 
	C617.286865,412.834473 616.906555,399.828918 617.068542,386.836273 
	C617.088745,385.216431 618.326477,383.611725 619.000000,382.000000 
M83.946739,220.817474 
	C82.902916,215.706223 78.895432,218.726532 76.265038,218.285034 
	C75.731018,218.195419 74.128471,220.766724 74.075462,222.151794 
	C73.833603,228.470810 73.968399,234.804260 73.968170,241.132523 
	C73.967934,247.569885 73.968117,254.007263 73.968117,260.676331 
	C77.556885,260.676331 80.449097,260.676331 83.961983,260.676331 
	C83.961983,255.750229 83.798820,251.124283 84.072243,246.524307 
	C84.144081,245.315811 85.493935,243.251617 86.383904,243.180984 
	C90.771759,242.832794 95.202316,243.022659 100.190002,243.022659 
	C100.190002,249.415359 100.190002,254.987595 100.190002,260.633118 
	C103.690582,260.633118 106.585503,260.633118 109.652466,260.633118 
	C109.652466,246.376450 109.652466,232.491623 109.652466,218.356796 
	C106.409760,218.356796 103.515327,218.356796 99.999107,218.356796 
	C99.999107,221.117645 99.999107,223.564697 99.999107,226.011749 
	C99.999107,228.585312 99.999107,231.158890 99.999107,233.719589 
	C98.245728,233.887756 97.424393,234.016388 96.600235,234.038086 
	C83.961899,234.371002 83.961815,234.367798 83.946739,220.817474 
M402.764526,236.756561 
	C401.578644,234.529282 400.286743,230.339813 399.224274,230.397217 
	C392.928802,230.737350 385.953522,225.708038 380.438110,233.157837 
	C380.453644,232.365768 380.469208,231.573700 380.484772,230.781631 
	C377.470978,230.491669 374.457153,230.201691 371.405304,229.908066 
	C371.405304,240.827560 371.405304,250.711349 371.405304,260.622559 
	C374.384857,260.622559 376.947815,260.622559 380.006317,260.622559 
	C380.006317,255.798599 379.882751,251.337875 380.037964,246.886856 
	C380.227600,241.447433 382.651672,238.701279 386.787811,237.875122 
	C388.710938,237.491013 390.414398,236.007172 392.418182,234.912125 
	C394.662048,241.517303 397.366486,248.991837 399.700104,256.580414 
	C400.672729,259.743256 402.084015,260.922058 405.557159,261.170746 
	C410.326691,261.512268 412.194550,259.711578 413.463623,255.342133 
	C415.887512,246.996582 418.945251,238.835129 421.772186,230.502029 
	C412.808533,229.301392 412.847961,229.313446 410.540710,236.859024 
	C409.381531,240.649887 408.048798,244.387665 406.478027,249.098663 
	C405.130310,244.653702 404.051575,241.095856 402.764526,236.756561 
M241.117767,260.126648 
	C243.895615,260.461884 246.673477,260.797119 249.923203,261.189301 
	C249.923203,247.182312 250.007462,234.243393 249.772919,221.310257 
	C249.752823,220.203094 247.778305,218.599731 246.417953,218.180817 
	C244.649963,217.636398 242.587646,218.047791 240.346680,218.047791 
	C240.129501,222.662201 239.941620,226.654327 239.784424,229.994263 
	C234.738388,229.994263 230.177795,229.095551 226.144653,230.172333 
	C216.279221,232.806244 215.740112,251.223068 221.596756,257.205627 
	C226.253555,261.962524 231.641586,263.327362 237.781952,260.600006 
	C238.676025,260.202850 239.633575,259.948578 241.117767,260.126648 
M168.030457,254.990585 
	C169.495331,260.104370 173.179138,262.127533 178.175262,261.932526 
	C184.355240,261.691345 190.526154,261.213593 196.699036,260.808136 
	C196.985107,260.789337 197.251999,260.478363 196.998322,260.639221 
	C196.998322,253.018753 196.966965,245.744278 197.011322,238.470276 
	C197.034073,234.741348 195.506348,231.986816 192.040817,230.586502 
	C186.236298,228.241058 180.279083,228.030533 174.649338,230.841766 
	C171.341034,232.493774 167.881287,234.691650 169.544373,239.814377 
	C173.236099,239.839386 176.698318,241.100159 179.579163,237.235397 
	C180.505264,235.993027 183.813812,236.309113 186.016968,236.381653 
	C186.603104,236.400955 187.132004,238.157898 187.687195,239.117035 
	C185.913391,240.085449 184.211121,241.237747 182.343277,241.964523 
	C180.828995,242.553726 179.115860,242.632156 177.490707,242.936081 
	C169.717834,244.389633 167.964844,246.460800 168.030457,254.990585 
M283.543884,238.252045 
	C281.280945,230.428482 271.422638,227.345718 264.237488,229.787262 
	C256.162567,232.531143 252.518082,239.530182 254.043808,249.979279 
	C255.051941,256.883606 261.680237,261.996429 269.583527,261.966034 
	C277.517578,261.935516 282.376434,258.248108 283.606232,250.107544 
	C280.104462,251.265274 276.944092,251.821091 274.291870,253.292648 
	C269.349548,256.034790 265.154266,254.445251 263.309357,247.963745 
	C270.507233,247.963745 277.516937,247.963745 285.387329,247.963745 
	C284.774017,244.393311 284.309387,241.688522 283.543884,238.252045 
M341.629028,259.041351 
	C352.442017,265.111542 363.077148,261.746796 365.729523,250.109268 
	C362.132660,251.268173 358.958069,251.768738 356.334534,253.247147 
	C351.176056,256.154053 346.156311,254.152832 345.464844,247.802109 
	C352.557373,247.802109 359.585785,247.802109 366.512573,247.802109 
	C367.577942,237.138535 361.644531,229.422287 352.683594,229.020432 
	C345.173920,228.683624 339.822601,231.772125 336.997162,238.073807 
	C333.834564,245.127472 335.316071,252.559250 341.629028,259.041351 
M307.507507,250.059479 
	C304.037170,249.744797 303.232697,251.751633 304.446320,254.351166 
	C305.381470,256.354156 306.899750,258.529724 308.752960,259.573303 
	C313.691132,262.354034 319.117920,262.863983 324.628540,261.190979 
	C330.291107,259.471863 332.962616,256.330139 332.971497,251.459885 
	C332.980499,246.549805 330.347961,243.679901 324.343201,242.080780 
	C321.622589,241.356262 318.860291,240.763428 316.191895,239.883438 
	C315.437134,239.634552 314.800415,238.654358 314.414795,237.861191 
	C314.279175,237.582153 315.086884,236.392639 315.411774,236.413925 
	C317.764771,236.568100 321.398743,236.096436 322.214386,237.369156 
	C325.068268,241.822281 328.372467,239.502014 332.821991,239.441620 
	C331.483185,236.808212 330.835754,234.775177 329.587677,233.226120 
	C326.211487,229.035934 318.077942,227.498077 312.036377,229.587845 
	C307.556488,231.137451 304.356689,233.986130 304.474182,238.916855 
	C304.589264,243.745422 307.979828,246.127563 312.416351,247.219666 
	C314.504913,247.733765 316.728760,248.076843 318.576447,249.078262 
	C320.225189,249.971863 321.440613,251.664917 322.847260,253.005203 
	C320.825348,253.667725 318.823212,254.732941 316.773712,254.833664 
	C315.640961,254.889328 314.482666,253.234833 313.238892,252.520020 
	C311.655640,251.610123 309.974243,250.871094 307.507507,250.059479 
M487.994934,245.470581 
	C489.193604,249.321503 489.576385,253.740326 491.773254,256.896393 
	C495.499847,262.250122 503.420959,263.388214 510.376617,260.742157 
	C517.151245,258.164978 520.042114,253.461990 519.999695,245.087296 
	C519.948792,235.054413 514.203979,229.110443 504.463593,229.012650 
	C494.074066,228.908325 488.159241,234.499481 487.994934,245.470581 
M534.498413,254.259674 
	C531.809082,250.189194 528.221985,248.838226 522.733582,250.983673 
	C523.524109,252.848679 523.969421,254.947723 525.145081,256.490143 
	C530.045959,262.919800 542.380188,264.038208 548.634399,258.802032 
	C554.285095,254.071152 553.482849,246.588989 546.790833,243.481400 
	C544.126953,242.244370 541.046509,241.933472 538.287109,240.862335 
	C536.587402,240.202530 535.136047,238.902924 533.573181,237.890579 
	C533.862854,237.169052 534.152527,236.447540 534.442200,235.726013 
	C536.808105,236.226715 540.187866,235.926559 541.340454,237.385681 
	C544.231140,241.045090 547.282349,239.945343 550.517578,239.423477 
	C550.719421,238.824966 550.927124,238.508606 550.914917,238.200989 
	C550.688782,232.504593 546.734253,229.332657 539.512085,229.028610 
	C530.021545,228.629044 524.769958,231.396271 524.039246,237.181839 
	C523.309082,242.962448 525.616211,245.727539 532.736755,247.721893 
	C536.205200,248.693329 539.647522,249.758194 543.376343,250.862091 
	C541.155151,255.706833 538.237976,255.327927 534.498413,254.259674 
M147.059982,239.768082 
	C143.787399,231.776672 139.463608,228.863022 131.098892,229.012527 
	C124.179871,229.136169 119.194283,232.469391 116.735619,238.615311 
	C113.974243,245.517914 115.649887,253.584595 120.821205,258.283508 
	C125.606125,262.631287 134.375259,263.275208 140.449112,259.724823 
	C146.608887,256.124207 149.177750,248.903290 147.059982,239.768082 
M450.310944,261.553864 
	C461.430878,263.020630 468.579651,258.373657 468.581451,249.400040 
	C465.016388,249.105927 461.613495,247.486420 458.958313,252.254532 
	C456.670044,256.363800 450.562469,255.428757 449.251190,250.798904 
	C448.318848,247.506851 448.328186,243.528091 449.254272,240.231400 
	C450.539093,235.657806 455.701202,234.620743 458.653931,238.333740 
	C461.797913,242.287170 465.096161,241.023727 468.714905,240.423981 
	C468.286102,234.134750 463.223907,229.428894 456.830719,229.041000 
	C447.608337,228.481415 440.770416,232.840363 439.145538,240.314651 
	C436.938934,250.464554 440.813202,258.253845 450.310944,261.553864 
M153.039200,258.247498 
	C152.514023,260.043030 152.350769,263.157654 151.404190,263.417389 
	C145.782623,264.959869 148.517929,268.545624 148.580429,271.560760 
	C158.793503,272.720245 162.372513,270.059052 162.834137,260.486877 
	C163.193802,253.029343 162.915649,245.541046 162.920029,238.066422 
	C162.921524,235.493362 162.920258,232.920288 162.920258,230.346176 
	C161.213348,230.169266 160.396896,230.031601 159.577164,230.008041 
	C153.046036,229.820221 153.043167,229.826874 153.040146,236.367950 
	C153.036926,243.344315 153.039459,250.320663 153.039200,258.247498 
M482.978394,247.492279 
	C482.978394,241.758804 482.978394,236.025345 482.978394,230.429565 
	C479.481964,230.429565 476.923340,230.429565 474.354156,230.429565 
	C474.354156,240.748306 474.354156,250.627518 474.354156,260.658081 
	C477.293365,260.658081 479.851746,260.658081 482.978302,260.658081 
	C482.978302,256.382843 482.978302,252.435226 482.978394,247.492279 
M433.972382,240.527130 
	C433.972382,237.124649 433.972382,233.722168 433.972382,230.424866 
	C430.488312,230.424866 427.928528,230.424866 425.342865,230.424866 
	C425.342865,240.737061 425.342865,250.615372 425.342865,260.662720 
	C428.276550,260.662720 430.834534,260.662720 433.972321,260.662720 
	C433.972321,254.062744 433.972321,247.791489 433.972382,240.527130 
M153.339325,225.038223 
	C156.175354,225.146439 159.246490,225.923599 161.736816,225.048279 
	C162.799225,224.674866 162.648804,220.850769 163.048462,218.600586 
	C153.200592,217.200729 152.979996,217.340927 153.339325,225.038223 
M424.851807,220.137589 
	C422.674103,226.355255 427.357544,226.979935 434.204010,225.087677 
	C433.796082,222.901459 433.895264,219.009415 432.834808,218.662521 
	C430.566498,217.920517 427.698303,219.012466 424.851807,220.137589 
M478.501099,225.991364 
	C481.382141,226.288422 483.330658,225.737274 483.051117,222.090546 
	C482.869080,219.715546 482.820984,217.578171 479.658295,218.064713 
	C477.557220,218.387955 474.201813,216.486267 474.016388,220.735077 
	C473.905548,223.275192 473.175537,226.451080 478.501099,225.991364 
M17.835690,24.230366 
	C21.804640,20.141804 25.773592,16.053242 29.742542,11.964680 
	C23.193550,14.690951 18.466156,19.133629 15.956311,25.788681 
	C16.462706,25.455820 16.969099,25.122959 17.835690,24.230366 
M33.282536,9.467173 
	C33.011929,9.724029 32.741325,9.980886 32.470722,10.237742 
	C32.577450,10.348923 32.770504,10.563055 32.778435,10.556404 
	C33.063766,10.317164 33.331821,10.057320 33.282536,9.467173 
z"/>
<path fill="#E1E1E1" opacity="1.000000" stroke="none" 
	d="
M616.885925,362.977600 
	C616.921570,366.779022 616.849915,370.585938 617.045837,374.379028 
	C617.123779,375.886383 617.794983,377.363098 618.598022,378.926880 
	C619.000000,379.750000 619.000000,380.500000 619.000000,381.625000 
	C618.326477,383.611725 617.088745,385.216431 617.068542,386.836273 
	C616.906555,399.828918 617.286865,412.834473 616.871033,425.815857 
	C616.551636,435.788757 615.139465,445.795654 609.220032,454.232361 
	C605.047913,460.178772 600.487061,466.066010 592.215942,467.782288 
	C589.276672,468.072388 586.955078,468.985321 584.598328,469.087677 
	C581.411011,469.226074 578.142944,473.171906 574.987488,469.059265 
	C584.965454,467.226044 594.559204,464.374969 600.768860,455.630341 
	C604.266846,450.704346 608.531189,445.444519 609.530457,439.816620 
	C611.271057,430.014008 610.831848,419.812927 611.155518,409.774017 
	C611.383118,402.718201 611.360718,395.654327 611.994019,388.511871 
	C612.984619,389.163696 613.431152,389.897736 614.498047,391.651520 
	C614.815857,388.065887 616.560730,385.243500 612.004883,385.001221 
	C611.846863,383.482422 611.688782,381.963654 612.122314,380.368652 
	C613.453308,380.011444 614.820618,379.760071 614.835510,379.444824 
	C614.992004,376.132874 614.932129,372.810638 614.932129,368.043518 
	C613.330139,370.245422 612.704956,371.104675 612.079834,371.963898 
	C611.873962,369.492645 611.668030,367.021393 612.027527,364.396851 
	C614.023926,363.821564 615.454956,363.399567 616.885925,362.977600 
z"/>
<path fill="#DADADA" opacity="1.000000" stroke="none" 
	d="
M574.566406,469.055511 
	C578.142944,473.171906 581.411011,469.226074 584.598328,469.087677 
	C586.955078,468.985321 589.276672,468.072388 591.845825,467.803284 
	C585.317383,473.955627 576.830261,474.435516 568.644714,474.793304 
	C556.178467,475.338257 543.671082,474.945953 531.181213,474.947906 
	C518.909058,474.949799 506.636230,475.027435 494.364929,474.925629 
	C479.640778,474.803497 464.917542,474.325012 450.194519,474.350250 
	C367.955353,474.491211 285.716400,474.752502 203.477234,474.906860 
	C199.186432,474.914917 194.890991,474.013794 190.603714,474.062683 
	C176.652069,474.221893 162.704208,474.782257 148.752853,474.872498 
	C141.296616,474.920685 133.834686,474.039368 126.377968,474.078461 
	C115.090500,474.137604 103.806343,474.816620 92.518814,474.879517 
	C85.064552,474.921082 77.606262,474.357666 70.150826,474.040588 
	C60.782024,473.642212 51.297760,473.964355 42.089966,472.525360 
	C36.603260,471.667847 31.551527,468.027130 26.169445,465.028839 
	C26.367659,463.935455 26.700678,463.450867 27.033688,462.966278 
	C35.067829,466.834503 42.957657,470.330292 52.399784,470.231140 
	C73.843857,470.005920 95.297318,470.928070 116.747635,470.962646 
	C133.199524,470.989166 149.652145,470.103882 166.104950,470.084991 
	C259.822144,469.977264 353.539490,470.008118 447.256805,469.991150 
	C467.175720,469.987549 487.095184,470.062988 507.013306,469.934875 
	C514.974915,469.883636 522.934631,469.113556 530.893311,469.146332 
	C542.353149,469.193512 553.810120,469.751190 565.270874,469.918182 
	C568.224182,469.961212 571.186890,469.358063 574.566406,469.055511 
z"/>
<path fill="#DADADA" opacity="1.000000" stroke="none" 
	d="
M164.978683,3.955004 
	C176.274857,3.650815 187.570282,3.121879 198.867340,3.084026 
	C234.619766,2.964231 270.372833,3.020720 306.125641,3.023217 
	C334.120148,3.025173 362.115082,2.953191 390.109070,3.081649 
	C448.638428,3.350229 507.167419,3.703497 565.696167,4.086498 
	C576.602844,4.157870 587.348267,6.146713 596.601807,11.842003 
	C600.937561,14.510542 603.482788,20.088362 606.610474,24.670568 
	C605.614929,24.984423 604.848511,24.975403 604.082031,24.966383 
	C595.676147,13.366103 583.869812,8.052847 569.987976,8.034323 
	C465.678833,7.895126 361.369385,7.982659 257.060028,7.992829 
	C243.396896,7.994162 229.733749,7.957287 216.070618,7.941194 
	C209.316727,7.933239 202.560287,8.048214 195.809601,7.899163 
	C187.178955,7.708603 178.552948,7.307689 169.464020,6.739861 
	C169.003098,6.482295 169.003067,6.003319 169.300903,6.002725 
	C170.126099,5.916957 170.653427,5.831783 171.180771,5.746609 
	C171.111862,5.533559 171.042969,5.320509 170.974060,5.107460 
	C170.315384,5.403982 169.656708,5.700504 168.620178,5.996110 
	C167.154449,5.315129 166.066559,4.635066 164.978683,3.955004 
z"/>
<path fill="#E1E1E1" opacity="1.000000" stroke="none" 
	d="
M26.876368,462.674561 
	C26.700678,463.450867 26.367659,463.935455 26.005604,464.727844 
	C15.613319,458.691681 10.430930,448.830719 8.155247,437.426727 
	C7.030881,431.792206 7.068806,425.874298 7.038217,420.082184 
	C6.922446,398.160248 6.994769,376.237335 6.995006,354.314789 
	C6.995182,337.969757 7.098242,321.623749 6.951179,305.280029 
	C6.865288,295.734589 6.274099,286.194305 6.127885,276.648376 
	C6.077535,273.361145 6.928440,270.065491 6.951748,266.770752 
	C7.049025,253.020370 7.080917,239.267929 6.942734,225.518188 
	C6.881140,219.389404 6.059859,213.263321 6.098289,207.139267 
	C6.306092,174.023682 6.809632,140.909592 6.927194,107.793991 
	C6.979405,93.086555 6.091582,78.374954 6.188713,63.668922 
	C6.226913,57.885239 7.926101,52.126499 8.560026,46.322666 
	C8.713076,44.921444 6.851967,43.098595 7.266905,41.962730 
	C9.004488,37.206215 11.255282,32.637177 13.857693,26.786186 
	C12.712934,36.549438 11.287400,44.634354 10.919196,52.767139 
	C10.310982,66.201218 10.384255,79.666191 10.172372,93.118172 
	C10.110147,97.068710 10.006659,101.019341 10.004381,104.969978 
	C9.992474,125.627846 10.010845,146.285736 10.010844,166.943619 
	C10.010843,177.538223 9.990023,188.132843 9.986500,198.727448 
	C9.980598,216.472534 9.884703,234.218384 10.022799,251.962387 
	C10.084145,259.844757 10.760703,267.721313 10.883826,275.604767 
	C10.940371,279.225281 10.052474,282.859650 10.098160,286.481384 
	C10.167032,291.941162 10.864017,297.393005 10.933678,302.852814 
	C10.976241,306.188782 10.039495,309.537262 10.081491,312.873291 
	C10.156563,318.836853 10.941927,324.797394 10.899675,330.755463 
	C10.696743,359.371765 10.238649,387.986267 10.055613,416.602600 
	C10.012184,423.392303 9.933103,430.331635 11.217571,436.940308 
	C12.668139,444.403564 16.097385,451.333740 21.497702,457.010284 
	C23.218859,458.819489 24.977528,460.592987 26.876368,462.674561 
z"/>
<path fill="#DADADA" opacity="1.000000" stroke="none" 
	d="
M616.913696,362.511597 
	C615.454956,363.399567 614.023926,363.821564 612.304199,364.124756 
	C612.009155,357.980591 612.002930,351.955200 612.288940,345.193115 
	C612.391724,341.972229 612.202209,339.488068 612.012695,337.003876 
	C611.996155,295.982910 611.979553,254.961960 612.265564,213.203094 
	C612.690796,210.278595 612.813416,208.091980 612.936035,205.905365 
	C612.879700,197.304688 612.860779,188.703476 612.736267,180.103775 
	C612.710632,178.328369 612.291870,176.558640 612.335693,174.096405 
	C612.725891,170.576019 612.834717,167.745544 612.943604,164.915054 
	C612.633789,156.585144 612.323975,148.255219 612.245117,139.310211 
	C612.325439,138.132309 612.174744,137.569489 612.024170,137.006653 
	C612.022766,134.300720 612.021301,131.594803 612.251465,128.287262 
	C612.310364,127.120461 612.137634,126.555252 611.964844,125.990051 
	C611.969910,121.303932 611.974915,116.617813 612.256409,111.242783 
	C613.364563,109.366264 614.196350,108.178642 615.028076,106.991028 
	C615.339661,112.034019 615.651245,117.077011 615.684692,122.831177 
	C615.604309,125.694908 615.802185,127.847458 616.000000,130.000000 
	C616.010132,134.023041 616.020264,138.046097 615.759338,142.741180 
	C615.660828,144.609436 615.833374,145.805634 616.005920,147.001831 
	C616.008057,157.689560 616.010193,168.377274 615.754578,179.716599 
	C615.657532,181.243439 615.818237,182.118668 615.978943,182.993912 
	C616.299805,242.677811 616.620605,302.361694 616.913696,362.511597 
z"/>
<path fill="#D6D6D6" opacity="1.000000" stroke="none" 
	d="
M83.951477,221.284393 
	C83.961815,234.367798 83.961899,234.371002 96.600235,234.038086 
	C97.424393,234.016388 98.245728,233.887756 99.999107,233.719589 
	C99.999107,231.158890 99.999107,228.585312 99.999107,226.011749 
	C99.999107,223.564697 99.999107,221.117645 99.999107,218.356796 
	C103.515327,218.356796 106.409760,218.356796 109.652466,218.356796 
	C109.652466,232.491623 109.652466,246.376450 109.652466,260.633118 
	C106.585503,260.633118 103.690582,260.633118 100.190002,260.633118 
	C100.190002,254.987595 100.190002,249.415359 100.190002,243.022659 
	C95.202316,243.022659 90.771759,242.832794 86.383904,243.180984 
	C85.493935,243.251617 84.144081,245.315811 84.072243,246.524307 
	C83.798820,251.124283 83.961983,255.750229 83.961983,260.676331 
	C80.449097,260.676331 77.556885,260.676331 73.968117,260.676331 
	C73.968117,254.007263 73.967934,247.569885 73.968170,241.132523 
	C73.968399,234.804260 73.833603,228.470810 74.075462,222.151794 
	C74.128471,220.766724 75.731018,218.195419 76.265038,218.285034 
	C78.895432,218.726532 82.902916,215.706223 83.951477,221.284393 
z"/>
<path fill="#D6D6D6" opacity="1.000000" stroke="none" 
	d="
M402.868683,237.147278 
	C404.051575,241.095856 405.130310,244.653702 406.478027,249.098663 
	C408.048798,244.387665 409.381531,240.649887 410.540710,236.859024 
	C412.847961,229.313446 412.808533,229.301392 421.772186,230.502029 
	C418.945251,238.835129 415.887512,246.996582 413.463623,255.342133 
	C412.194550,259.711578 410.326691,261.512268 405.557159,261.170746 
	C402.084015,260.922058 400.672729,259.743256 399.700104,256.580414 
	C397.366486,248.991837 394.662048,241.517303 392.418182,234.912125 
	C390.414398,236.007172 388.710938,237.491013 386.787811,237.875122 
	C382.651672,238.701279 380.227600,241.447433 380.037964,246.886856 
	C379.882751,251.337875 380.006317,255.798599 380.006317,260.622559 
	C376.947815,260.622559 374.384857,260.622559 371.405304,260.622559 
	C371.405304,250.711349 371.405304,240.827560 371.405304,229.908066 
	C374.457153,230.201691 377.470978,230.491669 380.484772,230.781631 
	C380.469208,231.573700 380.453644,232.365768 380.438110,233.157837 
	C385.953522,225.708038 392.928802,230.737350 399.224274,230.397217 
	C400.286743,230.339813 401.578644,234.529282 402.868683,237.147278 
z"/>
<path fill="#D6D6D6" opacity="1.000000" stroke="none" 
	d="
M240.839752,259.877441 
	C239.633575,259.948578 238.676025,260.202850 237.781952,260.600006 
	C231.641586,263.327362 226.253555,261.962524 221.596756,257.205627 
	C215.740112,251.223068 216.279221,232.806244 226.144653,230.172333 
	C230.177795,229.095551 234.738388,229.994263 239.784424,229.994263 
	C239.941620,226.654327 240.129501,222.662201 240.346680,218.047791 
	C242.587646,218.047791 244.649963,217.636398 246.417953,218.180817 
	C247.778305,218.599731 249.752823,220.203094 249.772919,221.310257 
	C250.007462,234.243393 249.923203,247.182312 249.923203,261.189301 
	C246.673477,260.797119 243.895615,260.461884 240.839752,259.877441 
M240.955246,244.682556 
	C240.232925,240.395081 238.987671,236.100769 233.732483,236.188705 
	C229.122742,236.265854 227.539459,240.043274 227.049789,244.100723 
	C226.417038,249.343933 229.619095,254.560806 233.540344,254.916870 
	C237.503189,255.276718 240.225922,251.820633 240.955246,244.682556 
z"/>
<path fill="#D6D6D6" opacity="1.000000" stroke="none" 
	d="
M168.012787,254.573441 
	C167.964844,246.460800 169.717834,244.389633 177.490707,242.936081 
	C179.115860,242.632156 180.828995,242.553726 182.343277,241.964523 
	C184.211121,241.237747 185.913391,240.085449 187.687195,239.117035 
	C187.132004,238.157898 186.603104,236.400955 186.016968,236.381653 
	C183.813812,236.309113 180.505264,235.993027 179.579163,237.235397 
	C176.698318,241.100159 173.236099,239.839386 169.544373,239.814377 
	C167.881287,234.691650 171.341034,232.493774 174.649338,230.841766 
	C180.279083,228.030533 186.236298,228.241058 192.040817,230.586502 
	C195.506348,231.986816 197.034073,234.741348 197.011322,238.470276 
	C196.966965,245.744278 196.998322,253.018753 196.998322,260.639221 
	C197.251999,260.478363 196.985107,260.789337 196.699036,260.808136 
	C190.526154,261.213593 184.355240,261.691345 178.175262,261.932526 
	C173.179138,262.127533 169.495331,260.104370 168.012787,254.573441 
M187.843384,250.902893 
	C188.485229,247.729324 187.136002,246.294266 184.085449,247.260681 
	C181.201019,248.174484 176.514420,247.639267 177.357437,252.578491 
	C177.569000,253.818069 181.100677,255.257736 183.056030,255.188095 
	C184.594681,255.133301 186.055695,252.898132 187.843384,250.902893 
z"/>
<path fill="#D6D6D6" opacity="1.000000" stroke="none" 
	d="
M283.694336,238.617889 
	C284.309387,241.688522 284.774017,244.393311 285.387329,247.963745 
	C277.516937,247.963745 270.507233,247.963745 263.309357,247.963745 
	C265.154266,254.445251 269.349548,256.034790 274.291870,253.292648 
	C276.944092,251.821091 280.104462,251.265274 283.606232,250.107544 
	C282.376434,258.248108 277.517578,261.935516 269.583527,261.966034 
	C261.680237,261.996429 255.051941,256.883606 254.043808,249.979279 
	C252.518082,239.530182 256.162567,232.531143 264.237488,229.787262 
	C271.422638,227.345718 281.280945,230.428482 283.694336,238.617889 
M268.603699,241.986267 
	C270.627502,241.986267 272.651306,241.986267 275.104126,241.986267 
	C274.261627,237.956268 272.437469,235.659164 269.370392,236.220490 
	C267.005463,236.653305 264.939178,238.717789 262.740112,240.056793 
	C262.998932,240.603546 263.257751,241.150314 263.516602,241.697083 
	C264.921814,241.793427 266.326996,241.889771 268.603699,241.986267 
z"/>
<path fill="#D6D6D6" opacity="1.000000" stroke="none" 
	d="
M341.352722,258.789215 
	C335.316071,252.559250 333.834564,245.127472 336.997162,238.073807 
	C339.822601,231.772125 345.173920,228.683624 352.683594,229.020432 
	C361.644531,229.422287 367.577942,237.138535 366.512573,247.802109 
	C359.585785,247.802109 352.557373,247.802109 345.464844,247.802109 
	C346.156311,254.152832 351.176056,256.154053 356.334534,253.247147 
	C358.958069,251.768738 362.132660,251.268173 365.729523,250.109268 
	C363.077148,261.746796 352.442017,265.111542 341.352722,258.789215 
M355.710541,241.867126 
	C355.606354,240.540146 355.964813,238.427109 355.307373,238.040131 
	C353.632935,237.054596 351.295959,236.068619 349.613586,236.523422 
	C347.741730,237.029465 346.300537,239.128662 344.671875,240.534317 
	C344.961578,241.011307 345.251282,241.488297 345.541016,241.965286 
	C348.654663,241.965286 351.768311,241.965286 355.710541,241.867126 
z"/>
<path fill="#D6D6D6" opacity="1.000000" stroke="none" 
	d="
M307.921326,250.058929 
	C309.974243,250.871094 311.655640,251.610123 313.238892,252.520020 
	C314.482666,253.234833 315.640961,254.889328 316.773712,254.833664 
	C318.823212,254.732941 320.825348,253.667725 322.847260,253.005203 
	C321.440613,251.664917 320.225189,249.971863 318.576447,249.078262 
	C316.728760,248.076843 314.504913,247.733765 312.416351,247.219666 
	C307.979828,246.127563 304.589264,243.745422 304.474182,238.916855 
	C304.356689,233.986130 307.556488,231.137451 312.036377,229.587845 
	C318.077942,227.498077 326.211487,229.035934 329.587677,233.226120 
	C330.835754,234.775177 331.483185,236.808212 332.821991,239.441620 
	C328.372467,239.502014 325.068268,241.822281 322.214386,237.369156 
	C321.398743,236.096436 317.764771,236.568100 315.411774,236.413925 
	C315.086884,236.392639 314.279175,237.582153 314.414795,237.861191 
	C314.800415,238.654358 315.437134,239.634552 316.191895,239.883438 
	C318.860291,240.763428 321.622589,241.356262 324.343201,242.080780 
	C330.347961,243.679901 332.980499,246.549805 332.971497,251.459885 
	C332.962616,256.330139 330.291107,259.471863 324.628540,261.190979 
	C319.117920,262.863983 313.691132,262.354034 308.752960,259.573303 
	C306.899750,258.529724 305.381470,256.354156 304.446320,254.351166 
	C303.232697,251.751633 304.037170,249.744797 307.921326,250.058929 
z"/>
<path fill="#D6D6D6" opacity="1.000000" stroke="none" 
	d="
M487.995117,245.025192 
	C488.159241,234.499481 494.074066,228.908325 504.463593,229.012650 
	C514.203979,229.110443 519.948792,235.054413 519.999695,245.087296 
	C520.042114,253.461990 517.151245,258.164978 510.376617,260.742157 
	C503.420959,263.388214 495.499847,262.250122 491.773254,256.896393 
	C489.576385,253.740326 489.193604,249.321503 487.995117,245.025192 
M510.059479,250.251572 
	C510.204987,247.504044 510.749603,244.704391 510.399139,242.021652 
	C509.915680,238.320740 507.390564,235.897614 503.590027,236.164169 
	C499.893768,236.423401 497.750519,239.077484 497.085358,242.687714 
	C496.054169,248.284698 497.732544,252.566101 501.567474,254.259628 
	C505.373383,255.940338 507.876495,254.108749 510.059479,250.251572 
z"/>
<path fill="#D6D6D6" opacity="1.000000" stroke="none" 
	d="
M534.854980,254.445679 
	C538.237976,255.327927 541.155151,255.706833 543.376343,250.862091 
	C539.647522,249.758194 536.205200,248.693329 532.736755,247.721893 
	C525.616211,245.727539 523.309082,242.962448 524.039246,237.181839 
	C524.769958,231.396271 530.021545,228.629044 539.512085,229.028610 
	C546.734253,229.332657 550.688782,232.504593 550.914917,238.200989 
	C550.927124,238.508606 550.719421,238.824966 550.517578,239.423477 
	C547.282349,239.945343 544.231140,241.045090 541.340454,237.385681 
	C540.187866,235.926559 536.808105,236.226715 534.442200,235.726013 
	C534.152527,236.447540 533.862854,237.169052 533.573181,237.890579 
	C535.136047,238.902924 536.587402,240.202530 538.287109,240.862335 
	C541.046509,241.933472 544.126953,242.244370 546.790833,243.481400 
	C553.482849,246.588989 554.285095,254.071152 548.634399,258.802032 
	C542.380188,264.038208 530.045959,262.919800 525.145081,256.490143 
	C523.969421,254.947723 523.524109,252.848679 522.733582,250.983673 
	C528.221985,248.838226 531.809082,250.189194 534.854980,254.445679 
z"/>
<path fill="#D6D6D6" opacity="1.000000" stroke="none" 
	d="
M147.164459,240.161407 
	C149.177750,248.903290 146.608887,256.124207 140.449112,259.724823 
	C134.375259,263.275208 125.606125,262.631287 120.821205,258.283508 
	C115.649887,253.584595 113.974243,245.517914 116.735619,238.615311 
	C119.194283,232.469391 124.179871,229.136169 131.098892,229.012527 
	C139.463608,228.863022 143.787399,231.776672 147.164459,240.161407 
M128.639236,254.061554 
	C134.302292,255.824112 137.199142,253.931412 138.664505,247.511383 
	C139.810867,242.488983 136.721497,236.648773 132.516342,236.100754 
	C128.376831,235.561279 126.215309,238.323105 125.400513,241.627548 
	C124.363998,245.831207 124.226616,250.239212 128.639236,254.061554 
z"/>
<path fill="#D6D6D6" opacity="1.000000" stroke="none" 
	d="
M449.934326,261.401123 
	C440.813202,258.253845 436.938934,250.464554 439.145538,240.314651 
	C440.770416,232.840363 447.608337,228.481415 456.830719,229.041000 
	C463.223907,229.428894 468.286102,234.134750 468.714905,240.423981 
	C465.096161,241.023727 461.797913,242.287170 458.653931,238.333740 
	C455.701202,234.620743 450.539093,235.657806 449.254272,240.231400 
	C448.328186,243.528091 448.318848,247.506851 449.251190,250.798904 
	C450.562469,255.428757 456.670044,256.363800 458.958313,252.254532 
	C461.613495,247.486420 465.016388,249.105927 468.581451,249.400040 
	C468.579651,258.373657 461.430878,263.020630 449.934326,261.401123 
z"/>
<path fill="#D6D6D6" opacity="1.000000" stroke="none" 
	d="
M153.039337,257.772278 
	C153.039459,250.320663 153.036926,243.344315 153.040146,236.367950 
	C153.043167,229.826874 153.046036,229.820221 159.577164,230.008041 
	C160.396896,230.031601 161.213348,230.169266 162.920258,230.346176 
	C162.920258,232.920288 162.921524,235.493362 162.920029,238.066422 
	C162.915649,245.541046 163.193802,253.029343 162.834137,260.486877 
	C162.372513,270.059052 158.793503,272.720245 148.580429,271.560760 
	C148.517929,268.545624 145.782623,264.959869 151.404190,263.417389 
	C152.350769,263.157654 152.514023,260.043030 153.039337,257.772278 
z"/>
<path fill="#E1E1E1" opacity="1.000000" stroke="none" 
	d="
M615.187744,106.608215 
	C614.196350,108.178642 613.364563,109.366264 612.266724,110.776787 
	C611.809204,104.110191 611.523071,97.221687 611.450317,90.330933 
	C611.356628,81.460594 611.470459,72.588234 611.419128,63.717186 
	C611.399963,60.398098 610.942322,57.071190 611.075012,53.763508 
	C611.477844,43.721657 609.721252,34.248627 604.198425,25.296371 
	C604.848511,24.975403 605.614929,24.984423 606.769653,24.986752 
	C617.250671,36.403744 616.053955,50.311047 615.803528,64.033844 
	C615.699829,69.718262 615.883057,75.407478 615.815552,81.093086 
	C615.716003,89.471191 615.508850,97.848022 615.187744,106.608215 
z"/>
<path fill="#D6D6D6" opacity="1.000000" stroke="none" 
	d="
M482.978333,247.989944 
	C482.978302,252.435226 482.978302,256.382843 482.978302,260.658081 
	C479.851746,260.658081 477.293365,260.658081 474.354156,260.658081 
	C474.354156,250.627518 474.354156,240.748306 474.354156,230.429565 
	C476.923340,230.429565 479.481964,230.429565 482.978394,230.429565 
	C482.978394,236.025345 482.978394,241.758804 482.978333,247.989944 
z"/>
<path fill="#D6D6D6" opacity="1.000000" stroke="none" 
	d="
M433.972351,241.023682 
	C433.972321,247.791489 433.972321,254.062744 433.972321,260.662720 
	C430.834534,260.662720 428.276550,260.662720 425.342865,260.662720 
	C425.342865,250.615372 425.342865,240.737061 425.342865,230.424866 
	C427.928528,230.424866 430.488312,230.424866 433.972382,230.424866 
	C433.972382,233.722168 433.972382,237.124649 433.972351,241.023682 
z"/>
<path fill="#E1E1E1" opacity="1.000000" stroke="none" 
	d="
M149.002304,6.977469 
	C141.031631,6.631738 133.063217,6.216722 125.089745,5.956713 
	C113.488052,5.578390 101.882858,5.306436 90.278786,5.003448 
	C88.625023,4.960267 86.969162,4.997470 85.314278,4.997470 
	C85.303429,4.547912 85.292587,4.098354 85.281738,3.648797 
	C104.564026,3.460517 123.846313,3.272237 143.677872,3.493149 
	C147.105911,4.437878 149.984680,4.973416 152.778824,5.493213 
	C151.585526,5.962210 150.293915,6.469839 149.002304,6.977469 
z"/>
<path fill="#DADADA" opacity="1.000000" stroke="none" 
	d="
M153.220367,224.615265 
	C152.979996,217.340927 153.200592,217.200729 163.048462,218.600586 
	C162.648804,220.850769 162.799225,224.674866 161.736816,225.048279 
	C159.246490,225.923599 156.175354,225.146439 153.220367,224.615265 
z"/>
<path fill="#DADADA" opacity="1.000000" stroke="none" 
	d="
M424.963806,219.745422 
	C427.698303,219.012466 430.566498,217.920517 432.834808,218.662521 
	C433.895264,219.009415 433.796082,222.901459 434.204010,225.087677 
	C427.357544,226.979935 422.674103,226.355255 424.963806,219.745422 
z"/>
<path fill="#DADADA" opacity="1.000000" stroke="none" 
	d="
M478.050476,225.990601 
	C473.175537,226.451080 473.905548,223.275192 474.016388,220.735077 
	C474.201813,216.486267 477.557220,218.387955 479.658295,218.064713 
	C482.820984,217.578171 482.869080,219.715546 483.051117,222.090546 
	C483.330658,225.737274 481.382141,226.288422 478.050476,225.990601 
z"/>
<path fill="#E1E1E1" opacity="1.000000" stroke="none" 
	d="
M17.655590,24.510231 
	C16.969099,25.122959 16.462706,25.455820 15.956311,25.788681 
	C18.466156,19.133629 23.193550,14.690951 29.742542,11.964680 
	C25.773592,16.053242 21.804640,20.141804 17.655590,24.510231 
z"/>
<path fill="#DADADA" opacity="1.000000" stroke="none" 
	d="
M149.445831,6.994805 
	C150.293915,6.469839 151.585526,5.962210 152.778824,5.493213 
	C149.984680,4.973416 147.105911,4.437878 144.142151,3.535210 
	C147.879517,3.148943 151.703156,3.064340 155.523712,3.138258 
	C157.437256,3.175280 159.345200,3.501309 161.598938,4.174293 
	C160.294189,5.436907 158.646179,6.221856 156.998169,7.006804 
	C154.628555,7.008583 152.258957,7.010362 149.445831,6.994805 
z"/>
<path fill="#DADADA" opacity="1.000000" stroke="none" 
	d="
M612.060242,372.412170 
	C612.704956,371.104675 613.330139,370.245422 614.932129,368.043518 
	C614.932129,372.810638 614.992004,376.132874 614.835510,379.444824 
	C614.820618,379.760071 613.453308,380.011444 612.386963,380.157043 
	C612.053528,377.634552 612.047058,375.247498 612.060242,372.412170 
z"/>
<path fill="#E1E1E1" opacity="1.000000" stroke="none" 
	d="
M157.291656,7.291271 
	C158.646179,6.221856 160.294189,5.436907 161.969879,4.329617 
	C162.743134,3.987393 163.488708,3.967510 164.606476,3.951314 
	C166.066559,4.635066 167.154449,5.315129 168.621155,5.997607 
	C169.000000,6.000021 169.003067,6.003319 169.003067,6.003319 
	C169.003067,6.003319 169.003098,6.482295 169.001709,6.721383 
	C165.195267,7.165559 161.390213,7.370648 157.291656,7.291271 
z"/>
<path fill="#E1E1E1" opacity="1.000000" stroke="none" 
	d="
M612.574707,165.034332 
	C612.834717,167.745544 612.725891,170.576019 612.338745,173.692566 
	C612.108887,171.036957 612.157349,168.095276 612.574707,165.034332 
z"/>
<path fill="#E1E1E1" opacity="1.000000" stroke="none" 
	d="
M611.736328,337.275208 
	C612.202209,339.488068 612.391724,341.972229 612.301514,344.724548 
	C611.834473,342.510620 611.647217,340.028564 611.736328,337.275208 
z"/>
<path fill="#DADADA" opacity="1.000000" stroke="none" 
	d="
M611.997070,385.377319 
	C616.560730,385.243500 614.815857,388.065887 614.498047,391.651520 
	C613.431152,389.897736 612.984619,389.163696 612.280518,388.220428 
	C612.011658,387.258575 612.000488,386.505981 611.997070,385.377319 
z"/>
<path fill="#E1E1E1" opacity="1.000000" stroke="none" 
	d="
M612.578003,206.018585 
	C612.813416,208.091980 612.690796,210.278595 612.276794,212.735046 
	C612.063599,210.713867 612.141785,208.422836 612.578003,206.018585 
z"/>
<path fill="#E1E1E1" opacity="1.000000" stroke="none" 
	d="
M616.270508,129.736145 
	C615.802185,127.847458 615.604309,125.694908 615.674927,123.280899 
	C616.142578,125.170380 616.341797,127.321327 616.270508,129.736145 
z"/>
<path fill="#E1E1E1" opacity="1.000000" stroke="none" 
	d="
M616.256348,146.785248 
	C615.833374,145.805634 615.660828,144.609436 615.752319,143.204010 
	C616.179810,144.186066 616.343262,145.377365 616.256348,146.785248 
z"/>
<path fill="#E1E1E1" opacity="1.000000" stroke="none" 
	d="
M616.222656,182.808594 
	C615.818237,182.118668 615.657532,181.243439 615.744263,180.185318 
	C616.149902,180.876053 616.308167,181.749664 616.222656,182.808594 
z"/>
<path fill="#E1E1E1" opacity="1.000000" stroke="none" 
	d="
M611.803711,137.153854 
	C612.174744,137.569489 612.325439,138.132309 612.258301,138.841766 
	C611.888184,138.425949 611.735779,137.863495 611.803711,137.153854 
z"/>
<path fill="#E1E1E1" opacity="1.000000" stroke="none" 
	d="
M33.442406,9.633755 
	C33.331821,10.057320 33.063766,10.317164 32.778435,10.556404 
	C32.770504,10.563055 32.577450,10.348923 32.470722,10.237741 
	C32.741325,9.980886 33.011929,9.724029 33.442406,9.633755 
z"/>
<path fill="#E1E1E1" opacity="1.000000" stroke="none" 
	d="
M611.752136,126.146622 
	C612.137634,126.555252 612.310364,127.120461 612.263977,127.836349 
	C611.876343,127.425751 611.707886,126.864464 611.752136,126.146622 
z"/>
<path fill="#E1E1E1" opacity="1.000000" stroke="none" 
	d="
M168.999023,5.998524 
	C169.656708,5.700504 170.315384,5.403982 170.974060,5.107460 
	C171.042969,5.320509 171.111862,5.533559 171.180771,5.746609 
	C170.653427,5.831783 170.126099,5.916957 169.300903,6.002725 
	C169.003067,6.003319 169.000000,6.000021 168.999023,5.998524 
z"/>
<path fill="#FFFFFF" opacity="1.000000" stroke="none" 
	d="
M240.957428,245.090897 
	C240.225922,251.820633 237.503189,255.276718 233.540344,254.916870 
	C229.619095,254.560806 226.417038,249.343933 227.049789,244.100723 
	C227.539459,240.043274 229.122742,236.265854 233.732483,236.188705 
	C238.987671,236.100769 240.232925,240.395081 240.957428,245.090897 
z"/>
<path fill="#FFFFFF" opacity="1.000000" stroke="none" 
	d="
M187.697296,251.267181 
	C186.055695,252.898132 184.594681,255.133301 183.056030,255.188095 
	C181.100677,255.257736 177.569000,253.818069 177.357437,252.578491 
	C176.514420,247.639267 181.201019,248.174484 184.085449,247.260681 
	C187.136002,246.294266 188.485229,247.729324 187.697296,251.267181 
z"/>
<path fill="#FFFFFF" opacity="1.000000" stroke="none" 
	d="
M268.167969,241.986191 
	C266.326996,241.889771 264.921814,241.793427 263.516602,241.697083 
	C263.257751,241.150314 262.998932,240.603546 262.740112,240.056793 
	C264.939178,238.717789 267.005463,236.653305 269.370392,236.220490 
	C272.437469,235.659164 274.261627,237.956268 275.104126,241.986267 
	C272.651306,241.986267 270.627502,241.986267 268.167969,241.986191 
z"/>
<path fill="#FFFFFF" opacity="1.000000" stroke="none" 
	d="
M355.296265,241.916199 
	C351.768311,241.965286 348.654663,241.965286 345.541016,241.965286 
	C345.251282,241.488297 344.961578,241.011307 344.671875,240.534317 
	C346.300537,239.128662 347.741730,237.029465 349.613586,236.523422 
	C351.295959,236.068619 353.632935,237.054596 355.307373,238.040131 
	C355.964813,238.427109 355.606354,240.540146 355.296265,241.916199 
z"/>
<path fill="#FFFFFF" opacity="1.000000" stroke="none" 
	d="
M509.957214,250.636200 
	C507.876495,254.108749 505.373383,255.940338 501.567474,254.259628 
	C497.732544,252.566101 496.054169,248.284698 497.085358,242.687714 
	C497.750519,239.077484 499.893768,236.423401 503.590027,236.164169 
	C507.390564,235.897614 509.915680,238.320740 510.399139,242.021652 
	C510.749603,244.704391 510.204987,247.504044 509.957214,250.636200 
z"/>
<path fill="#FFFFFF" opacity="1.000000" stroke="none" 
	d="
M128.343140,253.807770 
	C124.226616,250.239212 124.363998,245.831207 125.400513,241.627548 
	C126.215309,238.323105 128.376831,235.561279 132.516342,236.100754 
	C136.721497,236.648773 139.810867,242.488983 138.664505,247.511383 
	C137.199142,253.931412 134.302292,255.824112 128.343140,253.807770 
z"/>
</svg>