<svg xmlns="http://www.w3.org/2000/svg" viewBox="0 0 128 128"><defs><style>.cls-1{fill:#ffcb54;}.cls-2{fill:#333;}.cls-3{fill:#fff;fill-rule:evenodd;}</style></defs><g id="Capa_2" data-name="Capa 2"><g id="Capa_1-2" data-name="Capa 1"><rect class="cls-1" width="128" height="128" rx="8"/><path class="cls-2" d="M27,119.79a6.08,6.08,0,0,1-3-.72A4.76,4.76,0,0,1,22,117a7.48,7.48,0,0,1,0-6.19,4.84,4.84,0,0,1,1.94-2,6.08,6.08,0,0,1,3-.71,6.6,6.6,0,0,1,2.15.33,4.6,4.6,0,0,1,1.65,1l-.68,1.64a5.4,5.4,0,0,0-1.45-.87A4.49,4.49,0,0,0,27,110a3.32,3.32,0,0,0-2.63,1,4.32,4.32,0,0,0-.91,3,5.48,5.48,0,0,0,.4,2.18,2.93,2.93,0,0,0,1.2,1.37A3.79,3.79,0,0,0,27,118a4.73,4.73,0,0,0,1.61-.26,5.32,5.32,0,0,0,1.45-.9l.68,1.65a4.72,4.72,0,0,1-1.65,1A6.1,6.1,0,0,1,27,119.79Z"/><path class="cls-2" d="M35.66,119.79a4.3,4.3,0,0,1-2.17-.52,3.59,3.59,0,0,1-1.43-1.46,4.83,4.83,0,0,1-.5-2.26,4.78,4.78,0,0,1,.5-2.24,3.65,3.65,0,0,1,1.43-1.46,4.41,4.41,0,0,1,2.17-.51,4.49,4.49,0,0,1,2.19.51,3.65,3.65,0,0,1,1.43,1.46,4.66,4.66,0,0,1,.51,2.24,4.71,4.71,0,0,1-.51,2.26,3.59,3.59,0,0,1-1.43,1.46A4.38,4.38,0,0,1,35.66,119.79Zm0-1.55a1.9,1.9,0,0,0,1.52-.66,3.13,3.13,0,0,0,.56-2,3.07,3.07,0,0,0-.56-2,2.07,2.07,0,0,0-3,0,3,3,0,0,0-.56,2,3.07,3.07,0,0,0,.56,2A1.89,1.89,0,0,0,35.66,118.24Z"/><path class="cls-2" d="M41.52,119.63v-6.1c0-.34,0-.67,0-1s-.05-.68-.09-1h1.94l.16,1.61h-.19a2.87,2.87,0,0,1,1.14-1.31,3.3,3.3,0,0,1,1.76-.46,2.76,2.76,0,0,1,2.16.8,3.71,3.71,0,0,1,.72,2.51v5h-2v-4.88a2.12,2.12,0,0,0-.38-1.41,1.45,1.45,0,0,0-1.13-.43,2,2,0,0,0-1.49.58,2.2,2.2,0,0,0-.54,1.55v4.59Z"/><path class="cls-2" d="M53.54,119.63,50,111.5h2.14l2.54,6.36h-.5l2.61-6.36h2l-3.52,8.13Z"/><path class="cls-2" d="M63.68,119.79a5,5,0,0,1-2.34-.51,3.52,3.52,0,0,1-1.5-1.46,4.56,4.56,0,0,1-.52-2.25,4.72,4.72,0,0,1,.49-2.22,3.7,3.7,0,0,1,1.4-1.48,3.93,3.93,0,0,1,2.08-.53,3.56,3.56,0,0,1,2,.5,3.18,3.18,0,0,1,1.2,1.4,5.09,5.09,0,0,1,.41,2.11v.53H60.94v-1.07h4.49l-.27.23a2.67,2.67,0,0,0-.48-1.72,1.63,1.63,0,0,0-1.37-.6,2,2,0,0,0-1.14.32,2.06,2.06,0,0,0-.7.92,3.89,3.89,0,0,0-.24,1.45v.21a2.69,2.69,0,0,0,.65,2,2.49,2.49,0,0,0,1.85.65,4.47,4.47,0,0,0,1.29-.18,3.65,3.65,0,0,0,1.15-.61l.6,1.36a4.31,4.31,0,0,1-1.38.72A5.66,5.66,0,0,1,63.68,119.79Z"/><path class="cls-2" d="M68.56,119.63v-6.06c0-.34,0-.69,0-1a8.4,8.4,0,0,0-.09-1h2l.23,2.22H70.3a3.26,3.26,0,0,1,.54-1.34,2.48,2.48,0,0,1,.92-.79,2.79,2.79,0,0,1,1.19-.25,3.11,3.11,0,0,1,.47,0,2,2,0,0,1,.35.09v1.77a2,2,0,0,0-.53-.16,4,4,0,0,0-.54,0,2.1,2.1,0,0,0-1.16.29,1.72,1.72,0,0,0-.71.8,2.79,2.79,0,0,0-.23,1.18v4.33Z"/><path class="cls-2" d="M78.83,119.79a2.9,2.9,0,0,1-2.19-.76,3.13,3.13,0,0,1-.74-2.27V113H74.34V111.5H75.9v-2.08l2-.52v2.6h2.17V113H77.91v3.62a1.74,1.74,0,0,0,.32,1.18,1.2,1.2,0,0,0,.89.34,2.54,2.54,0,0,0,.52-.05,3.06,3.06,0,0,0,.43-.13v1.59a2.79,2.79,0,0,1-.6.17A3.72,3.72,0,0,1,78.83,119.79Z"/><path class="cls-2" d="M81.34,110v-2h2.24v2Zm.11,9.66V111.5h2v8.13Z"/><path class="cls-2" d="M90.31,119.79a3.17,3.17,0,0,1-1.8-.51,2.48,2.48,0,0,1-1-1.37h.18v1.72h-2V107.78h2v5.38h-.2a2.47,2.47,0,0,1,1-1.33,3.25,3.25,0,0,1,1.79-.49,3.41,3.41,0,0,1,1.88.51,3.47,3.47,0,0,1,1.26,1.46,5.9,5.9,0,0,1,0,4.52,3.34,3.34,0,0,1-1.27,1.45A3.43,3.43,0,0,1,90.31,119.79Zm-.56-1.55a2,2,0,0,0,1.53-.66,3,3,0,0,0,.59-2,3,3,0,0,0-.59-2,2.09,2.09,0,0,0-3.06,0,3,3,0,0,0-.58,2,3,3,0,0,0,.58,2A1.92,1.92,0,0,0,89.75,118.24Z"/><path class="cls-2" d="M95.64,119.63V107.78h2v11.85Z"/><path class="cls-2" d="M103.77,119.79a5,5,0,0,1-2.34-.51,3.52,3.52,0,0,1-1.5-1.46,4.56,4.56,0,0,1-.52-2.25,4.72,4.72,0,0,1,.49-2.22,3.7,3.7,0,0,1,1.4-1.48,3.93,3.93,0,0,1,2.08-.53,3.56,3.56,0,0,1,2,.5,3.18,3.18,0,0,1,1.2,1.4,5.09,5.09,0,0,1,.41,2.11v.53H101v-1.07h4.49l-.27.23a2.67,2.67,0,0,0-.48-1.72,1.63,1.63,0,0,0-1.37-.6,2,2,0,0,0-1.14.32,2.06,2.06,0,0,0-.7.92,3.89,3.89,0,0,0-.24,1.45v.21a2.69,2.69,0,0,0,.65,2,2.49,2.49,0,0,0,1.85.65,4.47,4.47,0,0,0,1.29-.18,3.65,3.65,0,0,0,1.15-.61l.6,1.36a4.31,4.31,0,0,1-1.38.72A5.66,5.66,0,0,1,103.77,119.79Z"/><path class="cls-3" d="M11.44,73.14,9,68.26l2.44-2.45L9,60.92h4.89l-2.45-2.44,4.89-4.89H28.56l-2.45-2.45h9.78l2.44-2.44h2.45v2.44h2.44L53,53.59h2.44V51.14h2.45l2.44,2.45H75l-7.33-7.33h4.89l9.77,4.88,2.45,2.45h2.44l22,4.89,7.34,2.44-2.45,2.45L119,65.81V70.7l-2.44,2.44v2.45h-7.79a11,11,0,0,0,.23-2.24,10.83,10.83,0,0,0-21.66,0,11,11,0,0,0,.23,2.24H41.7a10.32,10.32,0,0,0,.24-2.24,10.84,10.84,0,0,0-21.67,0,11,11,0,0,0,.23,2.24H18.78l-7.34-2.45ZM98.17,65a8.39,8.39,0,0,1,5.92,14.34h10v2.44H11.44V79.3H25.18A8.39,8.39,0,1,1,37,79.3H92.25A8.39,8.39,0,0,1,98.17,65Zm3.5,8.39a3.5,3.5,0,0,1-7,0h2.44a1.06,1.06,0,0,0,2.12,0Zm-3.5-5.94a5.95,5.95,0,1,1-6,5.94,5.94,5.94,0,0,1,6-5.94ZM34.6,73.35a3.5,3.5,0,0,1-7,0h2.45a1.06,1.06,0,1,0,2.11,0Zm-3.5-5.94a5.95,5.95,0,1,1-5.94,5.94,5.95,5.95,0,0,1,5.94-5.94ZM13.18,71.15l4.66,1.55a13.28,13.28,0,0,1,26.54.44H84.89a13.28,13.28,0,0,1,26.56,0h2.66v-1l2.45-2.44V67.32L110,64,112,62l-3.46-1.15L87,56H83.77l-2.88-2.88-5.73-2.86L80.9,56H59.32L57.89,54.6V56H52.7l-9.78-2.44H38.33V52.16L36.9,53.59H32L34.46,56H17.35L14.9,58.48l4.89,4.89H13l1.47,2.92L12,68.74l1.21,2.41Z"/></g></g></svg>