<svg xmlns="http://www.w3.org/2000/svg" viewBox="0 0 128 128"><defs><style>.cls-1{fill:#ffcb54;}.cls-2{fill:#333;}.cls-3{fill:#fff;fill-rule:evenodd;}</style></defs><g id="Capa_2" data-name="Capa 2"><g id="Capa_1-2" data-name="Capa 1"><rect class="cls-1" width="128" height="128" rx="8"/><path class="cls-2" d="M46.34,119.79a6.08,6.08,0,0,1-3-.72,4.76,4.76,0,0,1-1.94-2,7.48,7.48,0,0,1,0-6.19,4.84,4.84,0,0,1,1.94-2,6.08,6.08,0,0,1,3-.71,6.6,6.6,0,0,1,2.15.33,4.6,4.6,0,0,1,1.65,1l-.68,1.64a5.3,5.3,0,0,0-1.46-.87,4.4,4.4,0,0,0-1.6-.27,3.32,3.32,0,0,0-2.63,1,4.32,4.32,0,0,0-.91,3,5.31,5.31,0,0,0,.4,2.18,2.93,2.93,0,0,0,1.2,1.37,3.79,3.79,0,0,0,1.94.46,4.63,4.63,0,0,0,1.6-.26,5.21,5.21,0,0,0,1.46-.9l.68,1.65a4.72,4.72,0,0,1-1.65,1A6.1,6.1,0,0,1,46.34,119.79Z"/><path class="cls-2" d="M55,119.79a4.28,4.28,0,0,1-2.17-.52,3.59,3.59,0,0,1-1.43-1.46,4.83,4.83,0,0,1-.5-2.26,4.78,4.78,0,0,1,.5-2.24,3.65,3.65,0,0,1,1.43-1.46,4.89,4.89,0,0,1,4.35,0,3.61,3.61,0,0,1,1.44,1.46,4.78,4.78,0,0,1,.5,2.24,4.83,4.83,0,0,1-.5,2.26,3.55,3.55,0,0,1-1.44,1.46A4.32,4.32,0,0,1,55,119.79Zm0-1.55a1.9,1.9,0,0,0,1.52-.66,3.13,3.13,0,0,0,.56-2,3.07,3.07,0,0,0-.56-2,1.9,1.9,0,0,0-1.52-.66,1.88,1.88,0,0,0-1.51.66,3,3,0,0,0-.56,2,3.07,3.07,0,0,0,.56,2A1.88,1.88,0,0,0,55,118.24Z"/><path class="cls-2" d="M63.82,119.79a2.83,2.83,0,0,1-2.23-.82,3.64,3.64,0,0,1-.75-2.51v-5h2v4.94a2,2,0,0,0,.37,1.33,1.41,1.41,0,0,0,1.12.43,1.85,1.85,0,0,0,1.4-.58,2.17,2.17,0,0,0,.54-1.53V111.5h2v8.13h-2V118h.23a2.82,2.82,0,0,1-1.07,1.34A2.93,2.93,0,0,1,63.82,119.79Z"/><path class="cls-2" d="M70.49,123.11v-9.58c0-.34,0-.67,0-1s-.06-.68-.1-1h2l.18,1.7h-.18a2.34,2.34,0,0,1,1-1.36,3.3,3.3,0,0,1,1.81-.5,3.55,3.55,0,0,1,1.89.5,3.43,3.43,0,0,1,1.25,1.45,5.93,5.93,0,0,1,0,4.53A3.4,3.4,0,0,1,77,119.28a3.47,3.47,0,0,1-1.89.51,3.28,3.28,0,0,1-1.79-.5,2.44,2.44,0,0,1-1-1.34h.18v5.16Zm4.09-4.87a1.94,1.94,0,0,0,1.54-.66,3,3,0,0,0,.58-2,3,3,0,0,0-.58-2,2.12,2.12,0,0,0-3.07,0,3,3,0,0,0-.58,2,3,3,0,0,0,.58,2A1.93,1.93,0,0,0,74.58,118.24Z"/><path class="cls-2" d="M84.4,119.79a5,5,0,0,1-2.34-.51,3.52,3.52,0,0,1-1.5-1.46,5.15,5.15,0,0,1,0-4.47,3.61,3.61,0,0,1,1.39-1.48,3.93,3.93,0,0,1,2.08-.53,3.56,3.56,0,0,1,2,.5,3.18,3.18,0,0,1,1.2,1.4,5.09,5.09,0,0,1,.41,2.11v.53H81.66v-1.07h4.49l-.27.23a2.73,2.73,0,0,0-.47-1.72,1.66,1.66,0,0,0-1.38-.6,2,2,0,0,0-1.14.32,2.06,2.06,0,0,0-.7.92,3.89,3.89,0,0,0-.24,1.45v.21a2.69,2.69,0,0,0,.65,2,2.49,2.49,0,0,0,1.85.65,4.47,4.47,0,0,0,1.29-.18,3.81,3.81,0,0,0,1.16-.61l.59,1.36a4.31,4.31,0,0,1-1.38.72A5.66,5.66,0,0,1,84.4,119.79Z"/><path class="cls-3" d="M13.78,76,9,71.17V66.39L11.39,64h2.39l2.39-2.39H11.39V56.83l4.78-2.4h12L25.74,52l9.57-4.78,9.56-2.39H68.79l16.74,9.56H80.74L68.79,47.26H52.05L42.48,52l-2.39,2.39,2.39,2.4h2.39V52l2.39,4.79h9.57V49.65h2.39v7.17h43.05l12,2.4-2.39,2.39,4.8,2.42L119,66.39v7.14l-4.77,4.82h-2.85a10.6,10.6,0,1,0-20.63-3.43,10.82,10.82,0,0,0,.56,3.43H41.45a10.6,10.6,0,1,0-20.06,0H18.57L13.78,76Zm87.56-9.24a8.2,8.2,0,0,1,5.78,14h7.1v2.39H11.39V80.74H25.63a8.21,8.21,0,1,1,11.58,0H95.55a8.2,8.2,0,0,1,5.79-14Zm3.42,8.2a3.43,3.43,0,1,1-6.85,0h2.39a1,1,0,1,0,2.07,0Zm-3.42-5.81a5.82,5.82,0,1,1-5.82,5.81,5.81,5.81,0,0,1,5.82-5.81Zm-66.5,5.81a3.42,3.42,0,1,1-6.84,0h2.39a1,1,0,1,0,2.06,0Zm-3.42-5.81a5.82,5.82,0,1,1-5.82,5.81,5.82,5.82,0,0,1,5.82-5.81ZM15.2,74l3.25,1.63c0-.23,0-.47,0-.7a13,13,0,1,1,26,0c0,.35,0,.69,0,1h44c0-.35,0-.69,0-1a13,13,0,0,1,26-.08l2.27-2.29V67.38L115.21,66l-7.4-3.75,1.56-1.57L102,59.22H41.49l-4.78-4.79,4.35-4.35,5.64-2.82H45.17l-9,2.26L29.78,52.7l4.13,4.13H16.74l-3,1.47v.92H22l-7.18,7.17H12.38l-1,1v2.8L15.2,74Z"/></g></g></svg>