<svg xmlns="http://www.w3.org/2000/svg" viewBox="0 0 128 128"><defs><style>.cls-1{fill:#ffcb54;}.cls-2{fill:#333;}.cls-3{fill:#fff;fill-rule:evenodd;}</style></defs><g id="Capa_2" data-name="Capa 2"><g id="Capa_1-2" data-name="Capa 1"><rect class="cls-1" width="128" height="128" rx="8"/><path class="cls-2" d="M23.49,119.63V108.28h2.08V113h5.81v-4.73h2.08v11.35H31.38v-4.9H25.57v4.9Z"/><path class="cls-2" d="M38.93,119.79a3.28,3.28,0,0,1-3.12-2,5.93,5.93,0,0,1,0-4.53,3.43,3.43,0,0,1,1.25-1.45,3.51,3.51,0,0,1,1.87-.5,3.3,3.3,0,0,1,1.81.5,2.42,2.42,0,0,1,1,1.36H41.6l.18-1.7h1.93l-.09,1c0,.35,0,.68,0,1v6.1h-2l0-1.68h.2a2.44,2.44,0,0,1-1.05,1.34A3.3,3.3,0,0,1,38.93,119.79Zm.56-1.55a1.92,1.92,0,0,0,1.53-.66,3,3,0,0,0,.58-2,3,3,0,0,0-.58-2,2.09,2.09,0,0,0-3.05,0,3,3,0,0,0-.58,2,3.07,3.07,0,0,0,.57,2A1.92,1.92,0,0,0,39.49,118.24Z"/><path class="cls-2" d="M49.25,119.79a2.93,2.93,0,0,1-2.19-.76,3.13,3.13,0,0,1-.74-2.27V113H44.76V111.5h1.56v-2.08l2-.52v2.6h2.18V113H48.33v3.62a1.68,1.68,0,0,0,.33,1.18,1.17,1.17,0,0,0,.88.34,2.65,2.65,0,0,0,.53-.05,3.38,3.38,0,0,0,.42-.13v1.59a2.63,2.63,0,0,1-.6.17A3.55,3.55,0,0,1,49.25,119.79Z"/><path class="cls-2" d="M55.53,119.79a4.45,4.45,0,0,1-2.2-.52,3.54,3.54,0,0,1-1.45-1.47,4.68,4.68,0,0,1-.52-2.28,4.62,4.62,0,0,1,.52-2.25,3.59,3.59,0,0,1,1.46-1.43,4.48,4.48,0,0,1,2.19-.5,4.91,4.91,0,0,1,1.57.25,3.11,3.11,0,0,1,1.25.71l-.61,1.4a2.85,2.85,0,0,0-1-.6,3.09,3.09,0,0,0-1-.2,2.13,2.13,0,0,0-1.68.67,2.84,2.84,0,0,0-.61,2,2.88,2.88,0,0,0,.61,2,2.11,2.11,0,0,0,1.68.69,3.06,3.06,0,0,0,1-.19,3,3,0,0,0,1-.6l.61,1.39a3.41,3.41,0,0,1-1.27.72A4.8,4.8,0,0,1,55.53,119.79Z"/><path class="cls-2" d="M59.91,119.63V107.78h2v5.34H61.7a2.69,2.69,0,0,1,1.14-1.32,3.39,3.39,0,0,1,1.77-.46,2.71,2.71,0,0,1,2.16.81,3.7,3.7,0,0,1,.71,2.47v5h-2v-4.91a2.13,2.13,0,0,0-.37-1.38,1.44,1.44,0,0,0-1.15-.43,1.93,1.93,0,0,0-1.47.58,2.08,2.08,0,0,0-.56,1.52v4.62Z"/><path class="cls-2" d="M74.27,119.79a3.19,3.19,0,0,1-1.8-.51,2.42,2.42,0,0,1-1-1.37h.18v1.72h-2V107.78h2v5.38h-.19a2.38,2.38,0,0,1,1-1.33,3.22,3.22,0,0,1,1.78-.49,3.47,3.47,0,0,1,1.89.51,3.52,3.52,0,0,1,1.25,1.46,5.9,5.9,0,0,1,0,4.52,3.38,3.38,0,0,1-1.26,1.45A3.46,3.46,0,0,1,74.27,119.79Zm-.56-1.55a2,2,0,0,0,1.54-.66,3,3,0,0,0,.58-2,3,3,0,0,0-.58-2,2.1,2.1,0,0,0-3.07,0,3,3,0,0,0-.58,2,3,3,0,0,0,.58,2A2,2,0,0,0,73.71,118.24Z"/><path class="cls-2" d="M82.74,119.79a3.28,3.28,0,0,1-3.12-2,5.93,5.93,0,0,1,0-4.53,3.43,3.43,0,0,1,1.25-1.45,3.51,3.51,0,0,1,1.87-.5,3.3,3.3,0,0,1,1.81.5,2.42,2.42,0,0,1,1,1.36h-.18l.18-1.7h1.93l-.09,1c0,.35,0,.68,0,1v6.1h-2l0-1.68h.2a2.44,2.44,0,0,1-1,1.34A3.3,3.3,0,0,1,82.74,119.79Zm.56-1.55a1.92,1.92,0,0,0,1.53-.66,3,3,0,0,0,.58-2,3,3,0,0,0-.58-2,2.09,2.09,0,0,0-3,0,3,3,0,0,0-.58,2,3.07,3.07,0,0,0,.57,2A1.92,1.92,0,0,0,83.3,118.24Z"/><path class="cls-2" d="M93.32,119.79a4.45,4.45,0,0,1-2.2-.52,3.57,3.57,0,0,1-1.46-1.47,4.8,4.8,0,0,1-.51-2.28,4.51,4.51,0,0,1,.52-2.25,3.59,3.59,0,0,1,1.46-1.43,4.48,4.48,0,0,1,2.19-.5,4.91,4.91,0,0,1,1.57.25,3.18,3.18,0,0,1,1.25.71l-.61,1.4a2.85,2.85,0,0,0-1-.6,3.09,3.09,0,0,0-1-.2,2.16,2.16,0,0,0-1.69.67,2.88,2.88,0,0,0-.6,2,2.93,2.93,0,0,0,.6,2,2.14,2.14,0,0,0,1.69.69,3,3,0,0,0,1-.19,3.14,3.14,0,0,0,1-.6l.61,1.39a3.49,3.49,0,0,1-1.27.72A4.85,4.85,0,0,1,93.32,119.79Z"/><path class="cls-2" d="M97.7,119.63V107.78h2V115h0l3.3-3.46h2.44l-4.11,4.3,0-.81,4.38,4.64h-2.5L99.74,116h0v3.64Z"/><path class="cls-3" d="M11.5,81.3H22.27a8.58,8.58,0,1,1,12.11,0H89.22a8.58,8.58,0,1,1,12.11,0H116.5v2.5H11.5V81.3Zm87.35-6.08a3.58,3.58,0,0,1-7.16,0h2.5a1.08,1.08,0,0,0,2.16,0Zm-3.58-6.08a6.08,6.08,0,1,1-6.08,6.08,6.08,6.08,0,0,1,6.08-6.08ZM31.9,75.22a3.58,3.58,0,0,1-7.16,0h2.5a1.08,1.08,0,1,0,2.16,0Zm-3.58-6.08a6.08,6.08,0,1,1-6.08,6.08,6.08,6.08,0,0,1,6.08-6.08ZM9,69.2l2.5-2.5v-5h5L19,59.2l-5-2.5-2.5-7.5h10l22.5-5H66.5l25,10H84L66.5,46.7H44L31.5,54.2,34,56.7H46.5V49.2H49l2.5,7.5h50l15,5,2.5,5h-5l2.5,2.5H119v2.5h-2.5v2.5l2.5,5H105.62a11.2,11.2,0,0,0,.73-4,11.08,11.08,0,0,0-22.16,0,11.21,11.21,0,0,0,.74,4H38.67a11.21,11.21,0,0,0,.74-4,11.08,11.08,0,1,0-22.16,0,11.2,11.2,0,0,0,.73,4H16.5l-5-2.5L9,69.2Zm2.86.67,1.68,5.06,1.21.6v-.31a13.58,13.58,0,1,1,27.16,0,14.52,14.52,0,0,1-.08,1.48H81.77a14.52,14.52,0,0,1-.08-1.48,13.58,13.58,0,0,1,27.16,0,12.12,12.12,0,0,1-.08,1.48H115l-1-1.91V70.23l-6-6h7l-.22-.46L101.09,59.2H49.7L49,57.1v2.1H33l-5.49-5.5,8.65-5.19L21.77,51.7H15L16,54.93l7.18,3.58L17.54,64.2H14v3.53l-2.14,2.14Z"/></g></g></svg>