<svg xmlns="http://www.w3.org/2000/svg" viewBox="0 0 128 128"><defs><style>.cls-1{fill:#ffcb54;}.cls-2{fill:#333;}.cls-3{fill:#fff;fill-rule:evenodd;}</style></defs><g id="Capa_2" data-name="Capa 2"><g id="Capa_1-2" data-name="Capa 1"><rect class="cls-1" width="128" height="128" rx="8"/><path class="cls-2" d="M35.07,119.63V108.28h1.82l4.17,9.38h-.5l4.17-9.38h1.8v11.35H44.65v-8.42h.58l-3.82,8.42H40.17l-3.81-8.42H37v8.42Z"/><path class="cls-2" d="M48.79,110v-2H51v2Zm.11,9.66V111.5h2v8.13Z"/><path class="cls-2" d="M53.1,119.63v-6.1c0-.34,0-.67,0-1s-.06-.68-.1-1h2l.16,1.61h-.19A2.82,2.82,0,0,1,56,111.8a3.28,3.28,0,0,1,1.76-.46,2.73,2.73,0,0,1,2.15.8,3.65,3.65,0,0,1,.73,2.51v5h-2v-4.88a2.13,2.13,0,0,0-.37-1.41,1.47,1.47,0,0,0-1.14-.43,2,2,0,0,0-1.48.58,2.16,2.16,0,0,0-.55,1.55v4.59Z"/><path class="cls-2" d="M62.7,110v-2h2.23v2Zm.11,9.66V111.5h2v8.13Z"/><path class="cls-2" d="M69.39,119.63l-3.51-8.13H68l2.54,6.36h-.5l2.61-6.36h2l-3.53,8.13Z"/><path class="cls-2" d="M78.75,119.79a3.43,3.43,0,0,1-1.87-.51,3.35,3.35,0,0,1-1.26-1.46,5.93,5.93,0,0,1,0-4.53,3.38,3.38,0,0,1,1.26-1.45,3.51,3.51,0,0,1,1.87-.5,3.32,3.32,0,0,1,1.81.5,2.42,2.42,0,0,1,1,1.36h-.18l.18-1.7h1.93l-.09,1c0,.35,0,.68,0,1v6.1h-2V118h.19a2.37,2.37,0,0,1-1,1.34A3.33,3.33,0,0,1,78.75,119.79Zm.56-1.55a2,2,0,0,0,1.53-.66,3,3,0,0,0,.58-2,3,3,0,0,0-.58-2,2.1,2.1,0,0,0-3.06,0,3,3,0,0,0-.58,2,3.07,3.07,0,0,0,.57,2A1.94,1.94,0,0,0,79.31,118.24Z"/><path class="cls-2" d="M85.59,119.63v-6.1c0-.34,0-.67,0-1s-.06-.68-.1-1h2l.16,1.61h-.19a2.87,2.87,0,0,1,1.14-1.31,3.3,3.3,0,0,1,1.76-.46,2.73,2.73,0,0,1,2.15.8,3.65,3.65,0,0,1,.73,2.51v5h-2v-4.88a2.12,2.12,0,0,0-.38-1.41,1.47,1.47,0,0,0-1.14-.43,2,2,0,0,0-1.48.58A2.21,2.21,0,0,0,87.6,115v4.59Z"/><path class="cls-3" d="M9,71.92V64.75h4.78l-2.39-2.39V55.18h12l-9.57-2.39L16.17,48,21,45.62H16.17l2.4-2.39h52.6l23.92,12H87.91L71.17,45.62H42.48L37.7,55.18H56.83V48h2.39v7.17l28.69,2.39h9.57l2.39-2.39,12,2.39,4.78,2.4h-4.78l2.39,2.39H119v9.56l-2.39,4.78-4.78,2.4h-4.25a10.67,10.67,0,0,0,.39-2.89A11,11,0,1,0,86.44,79.1h-43a10.67,10.67,0,0,0,.39-2.89A11,11,0,1,0,22.28,79.1H16.17L9,71.92Zm88-4.28A8.56,8.56,0,0,1,103,82.38h8.88v2.39h-98V82.38H26.92a8.57,8.57,0,1,1,11.87,0H91.08A8.56,8.56,0,0,1,97,67.64Zm3.79,8.57a3.79,3.79,0,0,1-7.57,0h2.39a1.39,1.39,0,0,0,2.78,0ZM97,70a6.18,6.18,0,1,1-6.17,6.18A6.18,6.18,0,0,1,97,70ZM36.64,76.21a3.79,3.79,0,0,1-7.57,0h2.39a1.4,1.4,0,0,0,2.79,0ZM32.85,70a6.18,6.18,0,1,1-6.17,6.18A6.18,6.18,0,0,1,32.85,70Zm-21.46.9,5.77,5.77h2.35c0-.16,0-.33,0-.49a13.35,13.35,0,0,1,26.7,0c0,.16,0,.33,0,.49H83.67c0-.16,0-.33,0-.49a13.35,13.35,0,1,1,26.7,0c0,.16,0,.33,0,.49h.91l3.57-1.78,1.78-3.56V64.75h-3.38l-5.57-5.57-7-1.4L98.47,60H87.81l-28.69-2.4H33.83l6-12H26.3L18,49.79l-.71,1.4L26,53.38l-.52,4.19H13.78v3.8l5.78,5.77H11.39v3.79Z"/></g></g></svg>