<svg xmlns="http://www.w3.org/2000/svg" viewBox="0 0 128 128"><defs><style>.cls-1{fill:#ffcb54;}.cls-2{fill:#333;}.cls-3{fill:#fff;fill-rule:evenodd;}</style></defs><g id="Capa_2" data-name="Capa 2"><g id="Capa_1-2" data-name="Capa 1"><rect class="cls-1" width="128" height="128" rx="8"/><path class="cls-2" d="M37.3,119.63V108.28h5a4.09,4.09,0,0,1,2.85.9,3.22,3.22,0,0,1,1,2.48,3.59,3.59,0,0,1-.44,1.81,2.91,2.91,0,0,1-1.3,1.17,4.72,4.72,0,0,1-2.09.42h-3v4.57Zm2.07-6.22H42.1a2.23,2.23,0,0,0,1.54-.46,1.64,1.64,0,0,0,.52-1.29,1.67,1.67,0,0,0-.52-1.3,2.28,2.28,0,0,0-1.54-.46H39.37Z"/><path class="cls-2" d="M47.75,110v-2H50v2Zm.11,9.66V111.5h2v8.13Z"/><path class="cls-2" d="M55.8,119.79a4.45,4.45,0,0,1-2.2-.52,3.57,3.57,0,0,1-1.46-1.47,4.8,4.8,0,0,1-.51-2.28,4.51,4.51,0,0,1,.52-2.25,3.53,3.53,0,0,1,1.46-1.43,4.48,4.48,0,0,1,2.19-.5,5,5,0,0,1,1.57.25,3.07,3.07,0,0,1,1.24.71L58,113.7a2.81,2.81,0,0,0-1-.6,3.1,3.1,0,0,0-1.06-.2,2.13,2.13,0,0,0-1.68.67,2.88,2.88,0,0,0-.6,2,2.93,2.93,0,0,0,.6,2,2.11,2.11,0,0,0,1.68.69,3.06,3.06,0,0,0,2-.79l.61,1.39a3.36,3.36,0,0,1-1.26.72A4.89,4.89,0,0,1,55.8,119.79Z"/><path class="cls-2" d="M60.18,119.63V107.78h2V115h0l3.3-3.46H68l-4.1,4.3V115l4.38,4.64H65.75L62.22,116h0v3.64Z"/><path class="cls-2" d="M76.41,119.79a2.85,2.85,0,0,1-2.24-.82,3.64,3.64,0,0,1-.74-2.51v-5h2v4.94a2,2,0,0,0,.37,1.33,1.43,1.43,0,0,0,1.13.43,1.83,1.83,0,0,0,1.39-.58,2.17,2.17,0,0,0,.54-1.53V111.5h2v8.13h-2V118h.22a2.76,2.76,0,0,1-1.07,1.34A2.92,2.92,0,0,1,76.41,119.79Z"/><path class="cls-2" d="M83.07,123.11v-9.58c0-.34,0-.67,0-1s-.06-.68-.1-1h2l.18,1.7h-.18a2.34,2.34,0,0,1,1-1.36,3.32,3.32,0,0,1,1.81-.5,3.55,3.55,0,0,1,1.89.5,3.43,3.43,0,0,1,1.25,1.45,5.93,5.93,0,0,1,0,4.53,3.4,3.4,0,0,1-1.25,1.46,3.47,3.47,0,0,1-1.89.51,3.22,3.22,0,0,1-1.78-.5,2.36,2.36,0,0,1-1-1.34h.17v5.16Zm4.09-4.87a2,2,0,0,0,1.55-.66,3.07,3.07,0,0,0,.58-2,3,3,0,0,0-.58-2,2,2,0,0,0-1.55-.66,2,2,0,0,0-1.53.66,3,3,0,0,0-.58,2,3,3,0,0,0,.58,2A2,2,0,0,0,87.16,118.24Z"/><path class="cls-3" d="M13.31,76.17,15.47,74H13.31L9,67.54V58.91h2.16l2.15-2.16H9l2.16-2.15H43.51l-2.16-2.16L43.51,46l2.16-2.16H78V46L91,54.6H86.65L75.86,46H52.14V54.6l4.31,2.15h6.47V48.13h2.16v8.62h43.14l6.47,2.16-2.16,2.16,2.16,2.15H119v4.32l-2.16,2.16L119,71.85v4.32l-6.47,2.15h-1.47a11.37,11.37,0,1,0-21.72,0H46.7a11.37,11.37,0,1,0-21.72,0H15.47l-2.16-2.15Zm86.89-10.4A9.21,9.21,0,0,1,106.12,82h6.41v2.16H15.47V82H29.92a9.21,9.21,0,1,1,11.84,0H94.28a9.21,9.21,0,0,1,5.92-16.26ZM105.09,75a4.9,4.9,0,0,1-9.79,0h2.16a2.74,2.74,0,1,0,5.48,0Zm-4.89-7a7.05,7.05,0,0,1,0,14.1h-.06a7.05,7.05,0,0,1,0-14.1ZM40.73,75a4.9,4.9,0,0,1-9.79,0H33.1a2.74,2.74,0,1,0,5.48,0Zm-4.89-7a7.05,7.05,0,0,1,0,14.1h0a7.05,7.05,0,0,1,0-14.1ZM16.36,76.17h6c0-.4-.05-.8-.05-1.19a13.52,13.52,0,1,1,27,0c0,.39,0,.79,0,1.19H86.73c0-.4,0-.8,0-1.19a13.52,13.52,0,0,1,27,0c0,.22,0,.45,0,.68l3.13-1V72.75l-3-3,3-3V65.38h-3l-4.31-4.31,1.21-1.22-2.82-.94H55.94l-6-3V46H46.56L45.4,47.13l-1.58,4.73,4.9,4.89H16.36l-4.31,4.32h-.89v5.82l3.31,5h6.21l-4.32,4.32Z"/></g></g></svg>