<svg xmlns="http://www.w3.org/2000/svg" viewBox="0 0 128 128"><defs><style>.cls-1{fill:#ffcb54;}.cls-2{fill:#333;}.cls-3{fill:#fff;fill-rule:evenodd;}</style></defs><g id="Capa_2" data-name="Capa 2"><g id="Capa_1-2" data-name="Capa 1"><rect class="cls-1" width="128" height="128" rx="8"/><path class="cls-2" d="M44.78,119.79a8.67,8.67,0,0,1-2.52-.35,6.3,6.3,0,0,1-2-1l.65-1.62a6.44,6.44,0,0,0,1.14.65,5.88,5.88,0,0,0,1.27.4,7.33,7.33,0,0,0,1.44.14,3.11,3.11,0,0,0,1.83-.42,1.28,1.28,0,0,0,.56-1.09,1.09,1.09,0,0,0-.38-.91,3.42,3.42,0,0,0-1.39-.53l-1.82-.37a4.53,4.53,0,0,1-2.33-1.08,2.68,2.68,0,0,1-.77-2,3.1,3.1,0,0,1,.56-1.86,3.7,3.7,0,0,1,1.58-1.22,5.94,5.94,0,0,1,2.37-.43,7,7,0,0,1,2.23.34,4.73,4.73,0,0,1,1.73,1L48.3,111a4.48,4.48,0,0,0-1.51-.86,5.59,5.59,0,0,0-1.84-.29,3.06,3.06,0,0,0-1.78.45,1.4,1.4,0,0,0-.63,1.21,1.21,1.21,0,0,0,.39.95,2.91,2.91,0,0,0,1.35.55l1.8.35a4.8,4.8,0,0,1,2.38,1.06,2.58,2.58,0,0,1,.78,2,3,3,0,0,1-.55,1.78,3.55,3.55,0,0,1-1.55,1.19A5.85,5.85,0,0,1,44.78,119.79Z"/><path class="cls-2" d="M55,119.79a5,5,0,0,1-2.35-.51,3.55,3.55,0,0,1-1.49-1.46,4.56,4.56,0,0,1-.53-2.25,4.72,4.72,0,0,1,.5-2.22,3.7,3.7,0,0,1,1.4-1.48,3.93,3.93,0,0,1,2.08-.53,3.58,3.58,0,0,1,2,.5,3.1,3.1,0,0,1,1.19,1.4,4.93,4.93,0,0,1,.42,2.11v.53H52.23v-1.07h4.49l-.27.23a2.67,2.67,0,0,0-.48-1.72,1.63,1.63,0,0,0-1.37-.6,2,2,0,0,0-1.14.32,2.06,2.06,0,0,0-.7.92,3.89,3.89,0,0,0-.24,1.45v.21a2.69,2.69,0,0,0,.65,2,2.49,2.49,0,0,0,1.85.65,4.47,4.47,0,0,0,1.29-.18,3.76,3.76,0,0,0,1.15-.61l.6,1.36a4.26,4.26,0,0,1-1.39.72A5.55,5.55,0,0,1,55,119.79Z"/><path class="cls-2" d="M63,119.79a3.46,3.46,0,0,1-1.88-.51,3.35,3.35,0,0,1-1.26-1.46,5.93,5.93,0,0,1,0-4.53,3.38,3.38,0,0,1,1.26-1.45,3.54,3.54,0,0,1,1.88-.5,3.27,3.27,0,0,1,1.79.49,2.32,2.32,0,0,1,1,1.33h-.21v-5.38h2v11.85h-2v-1.72h.2a2.44,2.44,0,0,1-1,1.37A3.25,3.25,0,0,1,63,119.79Zm.56-1.55a2,2,0,0,0,1.53-.66,3,3,0,0,0,.58-2,3,3,0,0,0-.58-2,2,2,0,0,0-1.53-.66,2,2,0,0,0-1.54.66,3,3,0,0,0-.58,2,3,3,0,0,0,.58,2A2,2,0,0,0,63.58,118.24Z"/><path class="cls-2" d="M73,119.79a3.39,3.39,0,0,1-1.86-.51,3.35,3.35,0,0,1-1.26-1.46,5.93,5.93,0,0,1,0-4.53,3.38,3.38,0,0,1,1.26-1.45,3.47,3.47,0,0,1,1.86-.5,3.36,3.36,0,0,1,1.82.5,2.4,2.4,0,0,1,1,1.36h-.17l.17-1.7h1.94c0,.33-.07.67-.09,1s0,.68,0,1v6.1h-2l0-1.68h.2a2.35,2.35,0,0,1-1,1.34A3.28,3.28,0,0,1,73,119.79Zm.57-1.55a2,2,0,0,0,1.53-.66,3.07,3.07,0,0,0,.58-2,3,3,0,0,0-.58-2,2,2,0,0,0-1.53-.66,1.92,1.92,0,0,0-1.53.66,3,3,0,0,0-.58,2,3.07,3.07,0,0,0,.57,2A1.93,1.93,0,0,0,73.55,118.24Z"/><path class="cls-2" d="M79.83,119.63v-6.1c0-.34,0-.67,0-1s-.05-.68-.09-1h2l.16,1.61h-.2a2.84,2.84,0,0,1,1.15-1.31,3.27,3.27,0,0,1,1.75-.46,2.74,2.74,0,0,1,2.16.8,3.71,3.71,0,0,1,.72,2.51v5h-2v-4.88a2.07,2.07,0,0,0-.38-1.41,1.45,1.45,0,0,0-1.13-.43,2,2,0,0,0-1.48.58,2.16,2.16,0,0,0-.55,1.55v4.59Z"/><path class="cls-3" d="M11.39,76,9,71.17V68.78L13.78,64h0l-2.39,2.39L9,61.61l4.78-7.18h4.78L35.3,47.26l9.57-2.39H64l9.56,2.39,14.35,7.17H80.74l-7.18-4.78L64,47.26H47.26l-12,7.17,2.4,2.4h4.78L44.87,52v4.79h12V49.65h2.39v7.18H90.3l23.92,4.78L119,64l-2.39,2.39L119,68.78v4.79l-4.78,4.78h-7.34a10.6,10.6,0,1,0-20.06,0H40.63a10.82,10.82,0,0,0,.56-3.43,10.6,10.6,0,1,0-21.19,0,10.82,10.82,0,0,0,.56,3.43H16.17L11.39,76Zm85.46-9.24a8.2,8.2,0,0,1,5.79,14h11.58v2.39H11.39V80.74H24.81a8.21,8.21,0,1,1,11.57,0H91.06a8.2,8.2,0,0,1,5.79-14Zm3.42,8.2a3.43,3.43,0,1,1-6.85,0h2.4a1,1,0,1,0,2.06,0Zm-3.42-5.81A5.82,5.82,0,1,1,91,74.92a5.81,5.81,0,0,1,5.82-5.81ZM34,74.92a3.43,3.43,0,1,1-6.85,0h2.39a1,1,0,1,0,2.07,0ZM30.6,69.11a5.82,5.82,0,1,1-5.82,5.81,5.81,5.81,0,0,1,5.82-5.81ZM13.17,74.17,16.74,76h.91c0-.35,0-.69,0-1a13,13,0,1,1,26,0c0,.35,0,.69,0,1H83.9c0-.35,0-.69,0-1a13,13,0,0,1,26,0c0,.35,0,.69,0,1h3.43l3.38-3.39v-2.8l-3.38-3.38L115,64.66l-1.53-.77L90.07,59.22H36.7L31.45,54l9.34-5.61-4.72,1.18-17,7.3h-4l-3.3,5,.29.57,1.73-1.73L17.16,64l-5.77,5.77v.84l1.78,3.56Z"/></g></g></svg>