<svg xmlns="http://www.w3.org/2000/svg" viewBox="0 0 128 128"><defs><style>.cls-1{fill:#ffcb54;}.cls-2{fill:#333;}.cls-3{fill:#fff;fill-rule:evenodd;}</style></defs><g id="Capa_2" data-name="Capa 2"><g id="Capa_1-2" data-name="Capa 1"><rect class="cls-1" width="128" height="128" rx="8"/><path class="cls-2" d="M52.2,119.79a8.77,8.77,0,0,1-2.52-.35,6.13,6.13,0,0,1-2-1l.64-1.62a7.24,7.24,0,0,0,1.14.65,5.79,5.79,0,0,0,1.28.4,7.22,7.22,0,0,0,1.43.14,3.08,3.08,0,0,0,1.83-.42,1.29,1.29,0,0,0,.57-1.09,1.1,1.1,0,0,0-.39-.91,3.42,3.42,0,0,0-1.38-.53L51,114.73a4.56,4.56,0,0,1-2.34-1.08,2.71,2.71,0,0,1-.77-2,3.17,3.17,0,0,1,.56-1.86A3.7,3.7,0,0,1,50,108.55a6,6,0,0,1,2.37-.43,7.06,7.06,0,0,1,2.24.34,4.69,4.69,0,0,1,1.72,1L55.72,111a4.48,4.48,0,0,0-1.51-.86,5.57,5.57,0,0,0-1.83-.29,3,3,0,0,0-1.78.45,1.38,1.38,0,0,0-.64,1.21,1.21,1.21,0,0,0,.39.95,3,3,0,0,0,1.35.55l1.8.35a4.84,4.84,0,0,1,2.39,1.06,2.61,2.61,0,0,1,.77,2,2.94,2.94,0,0,1-.55,1.78,3.52,3.52,0,0,1-1.54,1.19A5.94,5.94,0,0,1,52.2,119.79Z"/><path class="cls-2" d="M63.36,119.79a5.89,5.89,0,0,1-2.68-.54,3.44,3.44,0,0,1-1.6-1.62,6,6,0,0,1-.52-2.66v-6.69h2.07V115a3.46,3.46,0,0,0,.66,2.29,3.11,3.11,0,0,0,4.1,0,3.35,3.35,0,0,0,.69-2.29v-6.68h2V115a6,6,0,0,1-.53,2.66A3.47,3.47,0,0,1,66,119.25,5.8,5.8,0,0,1,63.36,119.79Z"/><path class="cls-2" d="M74.21,119.63l-5.06-11.35h2.24l4.07,9.53h-.67l4.07-9.53H81L76,119.63Z"/><path class="cls-3" d="M11.45,75,9,67.63V65.19l2.45-2.38V57.92h2.44l2.44-2.44H11.45l4.88-7.34,7.34-2.44h44l19.56,9.78H82.35L67.68,48.14H33.45L28.56,53l7.33,4.89,2.45-7.33h2.44l-2.44,7.33H55.46L53,50.59h2.45l2.44,7.33h44l9.78,2.45,4.89,2.44-2.47,2.42H119v4.89l-2.42,2.4V75l-2.45,2.44h-9a10.71,10.71,0,0,0,.58-3.5,10.84,10.84,0,1,0-21.67,0,10.71,10.71,0,0,0,.58,3.5h-45a11,11,0,0,0,.58-3.5,10.84,10.84,0,1,0-21.67,0,10.71,10.71,0,0,0,.58,3.5h-2.8L11.45,75Zm83.46-9.45a8.39,8.39,0,0,1,5.91,14.34h13.31V82.3H11.45V79.86h12a8.39,8.39,0,1,1,11.84,0H89a8.39,8.39,0,0,1,5.92-14.34Zm3.5,8.39a3.5,3.5,0,0,1-7,0h2.44a1.06,1.06,0,1,0,2.11,0Zm-3.5-6a6,6,0,1,1-6,6,5.95,5.95,0,0,1,6-6Zm-62,6a3.5,3.5,0,0,1-7,0h2.45a1.06,1.06,0,1,0,2.11,0Zm-3.5-6a6,6,0,1,1-5.94,6,6,6,0,0,1,5.94-6ZM13.44,73.23l2.68,1.34c0-.22,0-.44,0-.66a13.28,13.28,0,0,1,26.56,0c0,.35,0,.71,0,1.06H81.67c0-.35,0-.71,0-1.06a13.28,13.28,0,0,1,26.56,0c0,.35,0,.71,0,1.06h5l1-1V71.5l2.42-2.4V67.68h-8.43l4.3-4.21-1.58-.79-9.23-2.31H35.15l-10.43-7L30,48.14H24.07L17.9,50.2,16,53h6.23L14.9,60.37h-1v3.48l-2.44,2.37v1l2,6Z"/></g></g></svg>