<svg xmlns="http://www.w3.org/2000/svg" viewBox="0 0 88.55 22.96"><defs><style>.cls-1{fill:#ffc33a;}</style></defs><g id="Capa_2" data-name="Capa 2"><g id="Capa_1-2" data-name="Capa 1"><path class="cls-1" d="M6.25,8.74h4.14a.21.21,0,0,0,.24-.17L11.89,5.4A.17.17,0,0,1,12,5.2a2,2,0,0,1,.1.21c.46,1,.92,2.11,1.37,3.17a.19.19,0,0,0,.21.15h4.24c-.36-.81-.7-1.59-1-2.36q-1.32-3-2.63-6A.3.3,0,0,0,14,.18H10a.32.32,0,0,0-.32.2C8.53,3.12,7.38,5.84,6.21,8.55,6.08,8.71,6.09,8.74,6.25,8.74Z"/><path class="cls-1" d="M77.68,9.59V8.86a3.28,3.28,0,0,0-.61-.18h-.85a4.61,4.61,0,0,0-2,.46,4,4,0,0,0-1.51,1.41,5.85,5.85,0,0,0-.43.82L72,9H68c.09.6.15,1.2.18,1.79V22.62h4.13V15.78a5.5,5.5,0,0,1,.34-2,2.55,2.55,0,0,1,1.11-1.29,4,4,0,0,1,1.91-.43h.38a4.5,4.5,0,0,1,.69-1.55A4.89,4.89,0,0,1,77.68,9.59Z"/><path class="cls-1" d="M84.84,14.7l-2.78-.49A2.09,2.09,0,0,1,81,13.73a1.06,1.06,0,0,1-.34-.81,1.21,1.21,0,0,1,.58-1.06,3.39,3.39,0,0,1,1.85-.4,7.52,7.52,0,0,1,2.1.36,6.33,6.33,0,0,1,1.93,1l1.11-2.6A6.3,6.3,0,0,0,85.87,9,11.47,11.47,0,0,0,83,8.65a8.39,8.39,0,0,0-3.17.57,4.71,4.71,0,0,0-2.06,1.57A3.89,3.89,0,0,0,77,13.14a3.37,3.37,0,0,0,.92,2.46,4.68,4.68,0,0,0,2.65,1.27l2.81.52a2.65,2.65,0,0,1,1.12.47,1,1,0,0,1,.37.8,1.21,1.21,0,0,1-.56,1,3,3,0,0,1-1.77.39A9.19,9.19,0,0,1,80,19.69a8.36,8.36,0,0,1-2.34-1.05l-1,2.71a8,8,0,0,0,2.56,1.11,12.52,12.52,0,0,0,3.34.4,8.4,8.4,0,0,0,3.1-.46,4.76,4.76,0,0,0,2.12-1.53,3.84,3.84,0,0,0,.78-2.47,3.3,3.3,0,0,0-1-2.47A5.38,5.38,0,0,0,84.84,14.7Z"/><path class="cls-1" d="M63.52,11h0a3.94,3.94,0,0,0-1.38-1.54,4.84,4.84,0,0,0-2.74-.82,5.14,5.14,0,0,0-2.9.86,5.48,5.48,0,0,0-2,2.44,9.42,9.42,0,0,0-.71,3.81,9.68,9.68,0,0,0,.69,3.84,5.35,5.35,0,0,0,2,2.46,5.22,5.22,0,0,0,2.92.83,4.77,4.77,0,0,0,2.7-.77,3.63,3.63,0,0,0,1.38-1.37v1.87H67.2V12.49c0-.59,0-1.19,0-1.78s.08-1.18.15-1.76H63.75Zm-.87,7.84a2.72,2.72,0,0,1-3.84.37,2.16,2.16,0,0,1-.37-.37,4.89,4.89,0,0,1-.79-3.09,4.79,4.79,0,0,1,.8-3.07,2.75,2.75,0,0,1,3.86-.34,3.64,3.64,0,0,1,.34.34,4.92,4.92,0,0,1,.8,3.07,4.82,4.82,0,0,1-.8,3.09Z"/><path class="cls-1" d="M49.61,18.16a8.28,8.28,0,0,1-3,.48,7,7,0,0,1-3.54-.84,5.24,5.24,0,0,1-2.16-2.4,9.45,9.45,0,0,1-.72-3.9,7.71,7.71,0,0,1,1.66-5.28,6.14,6.14,0,0,1,4.79-1.87,8.73,8.73,0,0,1,3,.48,10.28,10.28,0,0,1,2.65,1.53l1.62-3.81A8.7,8.7,0,0,0,50.72.68,13.77,13.77,0,0,0,46.45,0a12.7,12.7,0,0,0-6.11,1.4,9.73,9.73,0,0,0-3.89,4,12.65,12.65,0,0,0-1.38,6v.93a6.56,6.56,0,0,0-1-.81,7.42,7.42,0,0,0-2.26-.92c0-.07.06-.06.1-.08a4.2,4.2,0,0,0,2.38-2,6,6,0,0,0,.63-3.6,4.47,4.47,0,0,0-1.77-3.3A7.05,7.05,0,0,0,28.93.2H19.71c-.18,0-.23,0-.24.18V12.13l-.25-.57q-.22-.45-.42-.93c0-.11-.08-.18-.22-.18H14.45c-.13,0-.16,0-.1.16l1,2.22c.17.38.33.76.5,1.16H8.45a.22.22,0,0,1,.07-.2c.41-1,.83-2.1,1.25-3.14.06-.15.06-.2-.11-.2H5.48a.21.21,0,0,0-.23.16C4.79,11.69.19,22.49,0,23H4.77a.28.28,0,0,0,.32-.22C5.76,21,6.4,19.27,7,17.54a.26.26,0,0,1,.27-.19h9.76a.28.28,0,0,1,.28.18c.74,1.6,1.48,3.21,2.21,4.81a.33.33,0,0,0,.38.24H31.45a3.29,3.29,0,0,0,1.08-.16A6.16,6.16,0,0,0,36.69,18a4.66,4.66,0,0,0,.53.78,9.56,9.56,0,0,0,3.15,2.75,12.48,12.48,0,0,0,6.08,1.42,13,13,0,0,0,4.24-.65,8.64,8.64,0,0,0,3.2-1.85l-1.52-3.89A9.7,9.7,0,0,1,49.61,18.16ZM24.22,3.69H27.7a2.92,2.92,0,0,1,1.15,5.59,2.78,2.78,0,0,1-1.26.27H24.22c-.17,0-.21,0-.21-.21V3.89C24,3.73,24.06,3.69,24.22,3.69Zm8.07,12.84a3.17,3.17,0,0,1-2.65,2.76H24.23c-.17,0-.22,0-.22-.22V13.22c0-.16,0-.22.21-.21h4.94a3.16,3.16,0,0,1,3.15,3.17C32.31,16.3,32.3,16.42,32.29,16.53Z"/></g></g></svg>