<svg xmlns="http://www.w3.org/2000/svg" viewBox="0 0 247.67 247.67"><defs><style>.cls-1{fill:none;stroke:#ffc754;stroke-miterlimit:10;}.cls-2{fill:#ffc754;}.cls-3{fill:#fff;}</style></defs><title>Recurso 7</title><g id="Capa_2" data-name="Capa 2"><g id="Capa_1-2" data-name="Capa 1"><circle class="cls-1" cx="123.83" cy="123.83" r="123.33"/><circle class="cls-2" cx="123.83" cy="123.83" r="103.65"/><path class="cls-3" d="M88.23,185.19a1.92,1.92,0,0,1-1.35-3.27l5-5a1.93,1.93,0,0,0,0-2.71L66.58,149a1.91,1.91,0,0,0-2.71,0l-5,5a1.92,1.92,0,0,1-2.71-2.71l5-5a5.76,5.76,0,0,1,8.13,0l25.26,25.26a5.76,5.76,0,0,1,0,8.13l-5,5A2,2,0,0,1,88.23,185.19Z"/><circle class="cls-3" cx="63.31" cy="162.18" r="3.83"/><path class="cls-3" d="M92.07,173.69a1.93,1.93,0,0,1-1.36-3.28l2.37-2.36a19.86,19.86,0,0,1,14.16-5.87h25.52a22.14,22.14,0,0,0,14.73-5.6l26-23.12a11.67,11.67,0,0,0-12.93-.34L144.29,143.3A23.17,23.17,0,0,1,132,146.84H115.08a9.6,9.6,0,0,1-9.59-9.59,1.93,1.93,0,0,1,1.6-1.89l11.66-1.94a11.61,11.61,0,0,0,9.59-9.59H114.46a36.49,36.49,0,0,0-28.65,13.78,40.72,40.72,0,0,1-9.17,8.4l-6.52,4.34A1.92,1.92,0,0,1,68,147.16l6.52-4.34a36.64,36.64,0,0,0,8.3-7.61A40.32,40.32,0,0,1,114.46,120h16a1.91,1.91,0,0,1,1.91,1.92,15.44,15.44,0,0,1-13,15.28l-9.83,1.64a5.76,5.76,0,0,0,5.53,4.17H132a19.34,19.34,0,0,0,10.3-3l16.29-10.18a15.5,15.5,0,0,1,19.24,2.19,1.92,1.92,0,0,1-.08,2.79L150,159.45A26,26,0,0,1,132.76,166H107.24a16.26,16.26,0,0,0-11.45,4.74l-2.37,2.36A1.88,1.88,0,0,1,92.07,173.69Z"/><g id="surface1"><path class="cls-3" d="M152.52,97h-6.64V93.64h6.64Z"/><path class="cls-3" d="M94.4,90.32v13.45a6.28,6.28,0,0,0,4,5.86l5.38,2.16a1.67,1.67,0,0,0,.62.12h.6a9.92,9.92,0,0,0,18.73,0h44.37a9.93,9.93,0,0,0,18.74,0h5.58a1.66,1.66,0,0,0,1.66-1.67v-9.86a7.57,7.57,0,0,0-3.81-6.56,39.31,39.31,0,0,0-19-5.15l-5.69-3.11a56.54,56.54,0,0,0-27-6.87h-2a55.88,55.88,0,0,0-23.13,5,58.34,58.34,0,0,0-6.4,3.39L95.82,88.67A1.66,1.66,0,0,0,94.4,90.32Zm76.39,18.26a6.62,6.62,0,1,1,.13,1.33A6.52,6.52,0,0,1,170.79,108.58ZM140.9,92h29.89a35.92,35.92,0,0,1,17.79,4.72,4.25,4.25,0,0,1,2.14,3.68v8.2H187.4a10,10,0,0,0-19.93,0H140.9Zm0-9.89A53,53,0,0,1,164,88.48l.32.18H140.9Zm-3.32,6.57H120l-2.9-2.9A52.56,52.56,0,0,1,136.64,82h.94Zm-29.9,19.92a6.67,6.67,0,1,1,.14,1.33A6.53,6.53,0,0,1,107.68,108.58Zm-10-16.82,10.2-1.46a1.47,1.47,0,0,0,.64-.24,52.71,52.71,0,0,1,5.27-2.88l4.3,4.31a1.68,1.68,0,0,0,1.18.49h18.26v16.6H124.28a10,10,0,0,0-10-10c-.35,0-.68,0-1,0l-.37,0-.62.1c-.13,0-.25.06-.37.09s-.39.09-.58.15l-.42.15-.49.19-.42.19-.45.22c-.14.07-.25.15-.4.24l-.42.26-.39.28c-.12.1-.25.18-.38.29s-.24.23-.36.33l-.34.31c-.12.12-.23.26-.33.36a3.39,3.39,0,0,0-.31.34c-.11.12-.21.27-.3.39l-.28.37c-.09.13-.18.29-.26.42s-.16.25-.24.4-.14.29-.21.43-.15.28-.21.43-.11.31-.17.46l-.16.45c0,.16-.09.31-.13.47s-.09.33-.12.48a3.7,3.7,0,0,0-.08.48c0,.17-.06.33-.08.5s0,.35,0,.5,0,.3,0,.46l-4.76-1.92a3,3,0,0,1-1.88-2.77V97h5V93.64h-5Z"/></g><path class="cls-3" d="M177.15,74.43h0a.91.91,0,0,1-.68-.31l-4.62-5a.91.91,0,1,1,1.34-1.22l4,4.32,11-11a.89.89,0,0,1,1.29,0,.9.9,0,0,1,0,1.28L177.79,74.15A.85.85,0,0,1,177.15,74.43Z"/><path class="cls-3" d="M178,82.24a12.2,12.2,0,1,1,0-24.39.92.92,0,1,1,0,1.83A10.36,10.36,0,1,0,188.37,70a.92.92,0,1,1,1.83,0A12.22,12.22,0,0,1,178,82.24Z"/></g></g></svg>