<svg xmlns="http://www.w3.org/2000/svg" viewBox="0 0 252.69 252.69"><defs><style>.cls-1{fill:none;stroke:#ffc754;stroke-miterlimit:10;}.cls-2{fill:#ffc754;}.cls-3{fill:#fff;}</style></defs><title>Recurso 5</title><g id="Capa_2" data-name="Capa 2"><g id="Capa_1-2" data-name="Capa 1"><circle class="cls-1" cx="126.35" cy="126.35" r="125.85"/><circle class="cls-2" cx="126.35" cy="124.43" r="105.76"/><path class="cls-3" d="M143.8,85.37h31.84A3.67,3.67,0,0,1,179.3,89v22.51a1.83,1.83,0,0,0,3.66,0V96.35h.36A3.68,3.68,0,0,1,187,100v11.64a1.83,1.83,0,1,0,3.65,0V100a7.32,7.32,0,0,0-7.32-7.32H183V89a7.33,7.33,0,0,0-7.32-7.31H143.8a1.83,1.83,0,1,0,0,3.65Z"/><path class="cls-3" d="M88.53,96.72a4,4,0,0,0-4-4H77.91a4,4,0,0,0-4,4v6.59a4,4,0,0,0,4,4H84.5a4,4,0,0,0,4-4Zm-11,0a.37.37,0,0,1,.36-.37H84.5a.38.38,0,0,1,.37.37v6.59a.38.38,0,0,1-.37.37H77.91a.37.37,0,0,1-.36-.37Z"/><path class="cls-3" d="M88.53,113.19a4,4,0,0,0-4-4H77.91a4,4,0,0,0-4,4v6.59a4,4,0,0,0,4,4H84.5a4,4,0,0,0,4-4Zm-11,0a.36.36,0,0,1,.36-.36H84.5a.37.37,0,0,1,.37.36v6.59a.38.38,0,0,1-.37.37H77.91a.37.37,0,0,1-.36-.37Z"/><path class="cls-3" d="M84.5,142.11H77.91a4,4,0,0,0-4,4v6.59a4,4,0,0,0,4,4H84.5a4,4,0,0,0,4-4v-6.59A4,4,0,0,0,84.5,142.11Zm-7,4a.36.36,0,0,1,.36-.36H84.5a.37.37,0,0,1,.37.36v6.59a.38.38,0,0,1-.37.37H77.91a.37.37,0,0,1-.36-.37Z"/><path class="cls-3" d="M109.76,98.19H93.29a1.83,1.83,0,0,0,0,3.66h16.47a1.83,1.83,0,0,0,0-3.66Z"/><path class="cls-3" d="M93.29,147.6a1.83,1.83,0,1,0,0,3.66h14.27a1.83,1.83,0,0,0,0-3.66Z"/><path class="cls-3" d="M109.76,114.66H93.29a1.83,1.83,0,0,0,0,3.66h16.47a1.83,1.83,0,0,0,0-3.66Z"/><path class="cls-3" d="M88.53,129.66a4,4,0,0,0-4-4H77.91a4,4,0,0,0-4,4v6.59a4,4,0,0,0,4,4H84.5a4,4,0,0,0,4-4Zm-11,0a.36.36,0,0,1,.36-.36H84.5a.37.37,0,0,1,.37.36v6.59a.38.38,0,0,1-.37.37H77.91a.37.37,0,0,1-.36-.37Z"/><path class="cls-3" d="M111.59,133a1.83,1.83,0,0,0-1.83-1.83H93.29a1.83,1.83,0,1,0,0,3.66h16.47A1.83,1.83,0,0,0,111.59,133Z"/><path class="cls-3" d="M169.05,98.19H140.5a1.83,1.83,0,0,0,0,3.66h28.55a1.83,1.83,0,0,0,0-3.66Z"/><path class="cls-3" d="M169.05,105.87H140.5a1.83,1.83,0,0,0,0,3.66h28.55a1.83,1.83,0,0,0,0-3.66Z"/><path class="cls-3" d="M187.72,114.11H146a7.33,7.33,0,0,0-7.32,7.32V150A7.34,7.34,0,0,0,146,157.3h41.73A7.34,7.34,0,0,0,195,150V121.43A7.33,7.33,0,0,0,187.72,114.11Zm3.66,7.32V150a3.67,3.67,0,0,1-3.66,3.66H146a3.67,3.67,0,0,1-3.66-3.66V121.43a3.66,3.66,0,0,1,3.66-3.66h41.73A3.66,3.66,0,0,1,191.38,121.43Z"/><path class="cls-3" d="M188.81,157.92a1.83,1.83,0,0,0-1.82,1.83v10.54a3.67,3.67,0,0,1-3.67,3.66H135a12.85,12.85,0,0,0-9.15,3.85v-2h0a9.17,9.17,0,0,1,9.15-9.14h40.63a7.28,7.28,0,0,0,7.25-6.59,1.82,1.82,0,0,0-1.64-2,1.84,1.84,0,0,0-2,1.64,3.63,3.63,0,0,1-3.61,3.29H135a12.77,12.77,0,0,0-9.15,3.86V161.5a1.81,1.81,0,0,0-.81-1.51,11.67,11.67,0,0,0,7.4-19.75V95a3.67,3.67,0,0,1,1.84-3.17L137.55,90a7.35,7.35,0,0,0,3.68-6.36V72.46a7.35,7.35,0,0,0-3.68-6.36l-6-3.44a1.83,1.83,0,0,0-2.74,1.59V78L124,80.4,119.27,78V64.25a1.84,1.84,0,0,0-.91-1.58,1.82,1.82,0,0,0-1.82,0l-6,3.44a7.33,7.33,0,0,0-3.69,6.36V83.65A7.33,7.33,0,0,0,110.52,90l3.25,1.86A3.65,3.65,0,0,1,115.61,95v45.2A11.67,11.67,0,0,0,123,160a1.81,1.81,0,0,0-.81,1.51v5.33a12.77,12.77,0,0,0-9.15-3.86H72.42a3.67,3.67,0,0,1-3.66-3.66V89a3.67,3.67,0,0,1,3.66-3.66h31.85a1.83,1.83,0,1,0,0-3.65H72.42A7.33,7.33,0,0,0,65.1,89V92.7h-.36A7.32,7.32,0,0,0,57.42,100v70.27a7.32,7.32,0,0,0,7.32,7.32h48.31a9.16,9.16,0,0,1,9.15,9.13v0a1.83,1.83,0,0,0,1.83,1.83h0a1.83,1.83,0,0,0,1.83-1.83v0a9.16,9.16,0,0,1,9.15-9.13h48.31a7.32,7.32,0,0,0,7.32-7.32V159.75A1.83,1.83,0,0,0,188.81,157.92ZM65.1,96.35v63a7.33,7.33,0,0,0,7.32,7.32h40.63a9.16,9.16,0,0,1,9.15,9.13v2a12.83,12.83,0,0,0-9.15-3.85H64.74a3.66,3.66,0,0,1-3.66-3.66V100a3.67,3.67,0,0,1,3.66-3.67Zm53.57,46a1.85,1.85,0,0,0,.6-1.36V95a7.33,7.33,0,0,0-3.68-6.35l-3.26-1.86a3.68,3.68,0,0,1-1.84-3.18V72.46a3.68,3.68,0,0,1,1.84-3.18l3.28-1.88V79.15a1.83,1.83,0,0,0,1,1.64l6.59,3.29a1.82,1.82,0,0,0,1.64,0l6.59-3.29a1.83,1.83,0,0,0,1-1.64V67.4l3.28,1.88a3.66,3.66,0,0,1,1.84,3.18V83.65a3.66,3.66,0,0,1-1.84,3.18l-3.25,1.86A7.32,7.32,0,0,0,128.79,95v46a1.85,1.85,0,0,0,.6,1.36,7.93,7.93,0,0,1,2.69,6,8,8,0,1,1-16.1,0A7.93,7.93,0,0,1,118.67,142.37Z"/><path class="cls-3" d="M174.88,124.32,163,136.22l-4.14-4.14a5.25,5.25,0,0,0-7.24,0,5.09,5.09,0,0,0,0,7.24l7.76,7.77a5.13,5.13,0,0,0,7.25,0l15.52-15.53a5.12,5.12,0,0,0-7.24-7.24Zm5.09,3.62a1.46,1.46,0,0,1-.43,1L164,144.5a1.53,1.53,0,0,1-2.07,0l-7.77-7.76a1.47,1.47,0,0,1,1-2.5,1.42,1.42,0,0,1,1,.43l5.44,5.43a1.84,1.84,0,0,0,2.59,0l13.2-13.2a1.47,1.47,0,0,1,2.07,0A1.5,1.5,0,0,1,180,127.94Z"/><path class="cls-3" d="M124,154.55a6.22,6.22,0,1,0-6.22-6.22A6.23,6.23,0,0,0,124,154.55Zm0-8.78a2.56,2.56,0,1,1-2.56,2.56A2.56,2.56,0,0,1,124,145.77Z"/><path class="cls-3" d="M124,134.79a1.83,1.83,0,0,0,1.83-1.83V100a1.83,1.83,0,1,0-3.66,0V133A1.83,1.83,0,0,0,124,134.79Z"/></g></g></svg>