<svg xmlns="http://www.w3.org/2000/svg" viewBox="0 0 252.69 252.69"><defs><style>.cls-1{fill:none;stroke:#ffc754;stroke-miterlimit:10;}.cls-2{fill:#ffc754;}.cls-3{fill:#fff;}</style></defs><title>Recurso 6</title><g id="Capa_2" data-name="Capa 2"><g id="Capa_1-2" data-name="Capa 1"><circle class="cls-1" cx="126.35" cy="126.35" r="125.85"/><circle class="cls-2" cx="126.35" cy="126.35" r="105.76"/><path class="cls-3" d="M83.11,119.18a1.9,1.9,0,0,0-1.91,1.91v3.47A45.67,45.67,0,0,0,99,160.87l18.12,14.06a3.69,3.69,0,0,0,4.54,0l14.17-11a1.92,1.92,0,1,0-2.35-3l-14.09,10.94-18-14A41.85,41.85,0,0,1,85,124.56v-3.47a1.91,1.91,0,0,0-1.92-1.91Z"/><path class="cls-3" d="M119.37,178.31a2.63,2.63,0,1,0,2.63,2.63A2.63,2.63,0,0,0,119.37,178.31Z"/><path class="cls-3" d="M119.37,71.6A2.63,2.63,0,1,0,122,74.23,2.63,2.63,0,0,0,119.37,71.6Z"/><path class="cls-3" d="M159,89.72a2.63,2.63,0,1,0,2.63-2.63A2.63,2.63,0,0,0,159,89.72Z"/><path class="cls-3" d="M74.22,89.72a2.63,2.63,0,1,0,2.62-2.63A2.62,2.62,0,0,0,74.22,89.72Z"/><path class="cls-3" d="M182.53,178.86V132.34a6.6,6.6,0,0,0-2.8-12.58H157.54V96.48a3.7,3.7,0,0,0-3.29-3.69A87.34,87.34,0,0,1,134,88.18a58.64,58.64,0,0,1-11-5.31,6.78,6.78,0,0,0-7.2,0,58.33,58.33,0,0,1-11,5.31,87.43,87.43,0,0,1-20.25,4.61,3.7,3.7,0,0,0-3.28,3.69V112A1.92,1.92,0,1,0,85,112V96.59a91.82,91.82,0,0,0,21-4.8,62.13,62.13,0,0,0,11.77-5.68,2.91,2.91,0,0,1,3.11,0,62.23,62.23,0,0,0,11.78,5.68,91.85,91.85,0,0,0,21,4.8v23.17H143.43a6.6,6.6,0,0,0-2.78,12.59V174.1l-14.33,11.12a11.37,11.37,0,0,1-6.95,2.38,11.21,11.21,0,0,1-7-2.38L92,169.34A56.21,56.21,0,0,1,70.2,124.91V83.1a.89.89,0,0,1,.89-.89l6.21,0c21.26-.15,31.6-7.35,35.88-11.62a40.23,40.23,0,0,0,3.6-4.15,3.22,3.22,0,0,1,2.61-1.3h0a3.19,3.19,0,0,1,2.58,1.3,37.42,37.42,0,0,0,3.58,4.15C129,74,139.39,82,161.43,82.16l6.22,0a.89.89,0,0,1,.89.89v28.84a1.92,1.92,0,1,0,3.84,0V83.1a4.75,4.75,0,0,0-4.7-4.73l-6.22,0c-20.63-.15-30.08-7.4-33.19-10.51a34.44,34.44,0,0,1-3.21-3.71,7,7,0,0,0-5.66-2.86h0a7.06,7.06,0,0,0-5.68,2.84,35.62,35.62,0,0,1-3.24,3.73c-3.86,3.86-13.31,10.36-33.19,10.51l-6.22,0a4.75,4.75,0,0,0-4.7,4.73v41.81a60,60,0,0,0,23.25,47.46l20.45,15.88a15.17,15.17,0,0,0,18.61,0l9.45-7.33a6.6,6.6,0,0,0,5.31,10.52h36.3a6.6,6.6,0,0,0,2.8-12.58Zm-38-22.21a46,46,0,0,0,4.46-5.3,18,18,0,0,0,4.76,4.12,20.66,20.66,0,0,0-9.22,13.41Zm0-14.58a21.79,21.79,0,0,0,2.16,5.87c-.67,1-1.4,2-2.16,2.94Zm3.41,30.83c0-6.84,4.74-13.79,10.35-15.19a2.31,2.31,0,0,0,0-4.47c-5.61-1.4-10.35-8.36-10.35-15.19V133h27.35v5.09c0,6.83-4.73,13.79-10.34,15.19a2.31,2.31,0,0,0,0,4.47c5.61,1.4,10.34,8.35,10.34,15.19v5.34H147.9ZM178.69,169a20.65,20.65,0,0,0-9.24-13.54,20.63,20.63,0,0,0,9.24-13.53ZM143.43,123.6h36.3a2.77,2.77,0,1,1,0,5.53h-36.3a2.77,2.77,0,1,1,0-5.53Zm36.3,64h-36.3a2.76,2.76,0,1,1,0-5.52h36.3a2.76,2.76,0,1,1,0,5.52Z"/><path class="cls-3" d="M108.89,143.61h0a2.61,2.61,0,0,1-2-.9L93.18,127.82a2.7,2.7,0,0,1,4-3.63L109,137l26.32-25.36a2.63,2.63,0,0,1,3.81,0,2.71,2.71,0,0,1,0,3.81L110.79,142.8A2.47,2.47,0,0,1,108.89,143.61Z"/></g></g></svg>